<?xml version="1.0" encoding="UTF-8"?>
<svg width="37px" height="33px" viewBox="0 0 37 33" version="1.1" xmlns="http://www.w3.org/2000/svg" xmlns:xlink="http://www.w3.org/1999/xlink">
    <!-- Generator: Sketch 47.1 (45422) - http://www.bohemiancoding.com/sketch -->
    <title>ic-advanced-sms-made-simple</title>
    <desc>Created with Sketch.</desc>
    <defs>
        <linearGradient x1="50%" y1="0%" x2="50%" y2="100%" id="linearGradient-1">
            <stop stop-color="#2BBBE8" offset="0%"></stop>
            <stop stop-color="#1385CD" offset="100%"></stop>
        </linearGradient>
    </defs>
    <g id="Page-1" stroke="none" stroke-width="1" fill="none" fill-rule="evenodd">
        <g id="001-Fone-Dynamics-Homepage-Copy-8-999-Copy" transform="translate(-402.000000, -3157.000000)" fill-rule="nonzero" fill="url(#linearGradient-1)">
            <g id="ic-advanced-sms-made-simple" transform="translate(402.000000, 3157.000000)">
                <path d="M3.13597561,33 C2.83169168,33 2.53319262,32.8793397 2.31221076,32.654262 C2.00329894,32.3404293 1.89859287,31.8780917 2.04205754,31.4610016 L4.0141182,25.7319599 C1.419606,22.93299 0,19.4558862 0,15.8645033 C0,7.11721483 8.29954659,0 18.5,0 C28.7004534,0 37,7.11721483 37,15.8645033 C37,24.6117918 28.7016104,31.7290066 18.5005785,31.7290066 C15.93904,31.7290066 13.4619606,31.2881326 11.1306598,30.4185666 L3.49868668,32.9414102 C3.37951845,32.9808568 3.25745779,33 3.13597561,33 Z M27.4298406,11.9680884 C27.8635878,11.4799751 27.8192676,10.7330318 27.3311543,10.2986936 C26.8436319,9.86494647 26.0955066,9.90867575 25.6629413,10.3967891 L16.9531326,20.1951023 L11.9201289,16.1690539 C11.4107419,15.7613079 10.6661623,15.844039 10.2590072,16.354017 C9.85126124,16.8639949 9.93399231,17.6079836 10.4433793,18.0151386 L16.3527414,22.7426283 C16.5707969,22.9163635 16.8313997,23.0014584 17.0908207,23.0014584 C17.4176084,23.0014584 17.7420324,22.8667249 17.9748613,22.6049402 L27.4298406,11.9680884 Z" id="Combined-Shape"></path>
            </g>
        </g>
    </g>
</svg>