<svg xmlns="http://www.w3.org/2000/svg" width="16" height="16" viewBox="0 0 16 16">
    <g fill="none" fill-rule="evenodd" transform="translate(-10 -10)">
        <circle cx="17.5" cy="17.5" r="17.5"/>
        <path fill="#4460A0" d="M18.546 26h-7.663a.883.883 0 0 1-.883-.883V10.883c0-.488.395-.883.883-.883h14.234c.488 0 .883.395.883.883v14.234a.883.883 0 0 1-.883.883H21.04v-6.196h2.08l.31-2.415h-2.39v-1.541c0-.7.194-1.176 1.196-1.176h1.28v-2.16c-.222-.03-.981-.095-1.864-.095-1.844 0-3.106 1.125-3.106 3.191v1.781h-2.085v2.415h2.085V26z"/>
    </g>
</svg>
