<svg xmlns="http://www.w3.org/2000/svg" width="15" height="14" viewBox="0 0 15 14">
    <g fill="none" fill-rule="evenodd" transform="translate(-10 -11)">
        <circle cx="17.5" cy="17.5" r="17.5"/>
        <path fill="#007EBB" d="M25 24.235h-3.315v-4.652c0-1.218-.519-2.05-1.66-2.05-.871 0-1.356.561-1.582 1.102-.085.194-.072.464-.072.735v4.865h-3.284s.042-8.242 0-8.99h3.284v1.41c.194-.617 1.244-1.497 2.919-1.497 2.078 0 3.71 1.293 3.71 4.078v5zM11.766 14.12h-.022c-1.058 0-1.744-.688-1.744-1.559 0-.888.706-1.561 1.786-1.561 1.079 0 1.742.671 1.763 1.559 0 .87-.684 1.56-1.783 1.56zm-1.388 1.124h2.924v8.991h-2.924v-8.99z"/>
    </g>
</svg>
