<svg xmlns="http://www.w3.org/2000/svg" width="50" height="50" viewBox="0 0 50 50">
    <g fill="none" fill-rule="evenodd">
        <rect width="50" height="50" fill="#DEEDFB" rx="25"/>
        <g fill-rule="nonzero">
            <path fill="#6DB1F5" d="M30.606 23.311c-2.146 1.503-3.776 2.671-4.888 3.504-.373.284-.675.506-.908.665-.232.159-.54.322-.927.487-.386.166-.746.25-1.08.25a2.76 2.76 0 0 1-1.099-.25 5.537 5.537 0 0 1-.927-.487 23.26 23.26 0 0 1-.908-.665c-.883-.67-2.51-1.838-4.878-3.504a5.253 5.253 0 0 1-.991-.883v11.315c0 .447.154.83.461 1.148.308.318.677.477 1.11.477h14.446c.432 0 .801-.159 1.109-.477.308-.319.461-.7.461-1.148V22.428c-.281.324-.608.62-.981.883z"/>
            <path fill="#8EC6FF" d="M15.688 25.448c.222.162.893.644 2.012 1.447a492.23 492.23 0 0 1 2.571 1.853c.066.047.205.15.417.31.213.159.39.288.53.386.14.098.311.208.51.33.2.121.388.213.565.274.177.06.34.091.49.091.17 0 .335-.03.511-.091a2.92 2.92 0 0 0 .565-.274c.2-.122.37-.232.51-.33s.317-.227.53-.386c.212-.16.352-.263.417-.31.602-.433 2.133-1.534 4.593-3.3a4.749 4.749 0 0 0 1.197-1.25c.32-.487.481-.998.481-1.533 0-.447-.155-.83-.466-1.148a1.492 1.492 0 0 0-1.104-.477H15.57c-.504 0-.891.176-1.163.528-.271.352-.407.792-.407 1.32 0 .427.18.889.54 1.387.36.497.742.888 1.148 1.173z"/>
            <path fill="#48A2FF" d="M33.134 18.87c1.277.266 2.769-.472 2.863-2.217.072-1.327-1.127-2.286-2.347-2.352-1.325-.071-2.281 1.13-2.348 2.352.04.746.337 1.307.763 1.685l-1.723 2.412a2.301 2.301 0 0 0-.593-.113c-.36-.02-.69.07-.974.233l-2.004-2.004a1.82 1.82 0 0 0 .123-.558c.049-.913-.777-1.573-1.616-1.619-.91-.049-1.57.778-1.615 1.619.013.252.077.482.176.688l-.42.486-1.185 1.177a1.523 1.523 0 0 0-.683-.197c-.783-.042-1.35.669-1.39 1.392-.041.785.67 1.352 1.39 1.391.784.042 1.351-.669 1.39-1.391a1.575 1.575 0 0 0-.026-.21l1.837-1.823c.162.059.338.095.526.105.267.014.511-.047.725-.16l1.96 1.959c-.162.301-.26.639-.278.98.063 1.167.897 2.002 2.063 2.065 1.164.063 2.005-.993 2.063-2.066a1.798 1.798 0 0 0-.477-1.315l1.8-2.52z"/>
        </g>
    </g>
</svg>
