<svg xmlns="http://www.w3.org/2000/svg" width="52" height="52" viewBox="0 0 52 52">
    <g fill="none" fill-rule="evenodd" transform="translate(1 1)">
        <rect width="50" height="50" fill="#FFD8E8" stroke="#F6F8FB" stroke-width="2" rx="25"/>
        <g fill-rule="nonzero">
            <path fill="#FB6DA5" d="M14 22.8v10.307c0 .411.137.762.412 1.054.275.293.605.439.991.439h12.908c.386 0 .716-.146.991-.439.275-.292.412-.643.412-1.054V22.8a1 1 0 0 0-1-1H15a1 1 0 0 0-1 1z"/>
            <path fill="#FF9DC4" d="M15.508 24.875c.199.143.798.567 1.798 1.273a439.7 439.7 0 0 1 2.297 1.629c.059.042.183.132.373.272s.348.253.474.34c.125.086.277.183.456.29.178.107.346.187.504.24.158.054.304.081.438.081.152 0 .299-.027.456-.08.158-.054.327-.134.505-.241.178-.107.33-.204.456-.29.125-.087.283-.2.473-.34s.314-.23.373-.272l4.104-2.902c.427-.303.783-.67 1.07-1.098.286-.429.43-.878.43-1.348 0-.393-.14-.73-.417-1.01A1.343 1.343 0 0 0 28.31 21H15.403c-.45 0-.797.155-1.04.464-.242.31-.363.697-.363 1.161 0 .375.16.781.482 1.219.322.437.664.781 1.026 1.031z"/>
        </g>
        <path fill="#FB6DA5" fill-rule="nonzero" d="M27 18a6 6 0 0 1 6 6h-1.5a4.5 4.5 0 0 0-4.5-4.5V18z"/>
        <path fill="#FB6DA5" d="M27 15c4.97 0 9 4.477 9 10h-1.5c0-4.602-3.358-8.333-7.5-8.333V15z"/>
    </g>
</svg>
