<?xml version="1.0" encoding="UTF-8"?>
<svg width="49px" height="37px" viewBox="0 0 49 37" version="1.1" xmlns="http://www.w3.org/2000/svg" xmlns:xlink="http://www.w3.org/1999/xlink">
    <!-- Generator: Sketch 47.1 (45422) - http://www.bohemiancoding.com/sketch -->
    <title>ic-voice-services</title>
    <desc>Created with Sketch.</desc>
    <defs>
        <linearGradient x1="50%" y1="0%" x2="50%" y2="100%" id="linearGradient-1">
            <stop stop-color="#2BBBE8" offset="0%"></stop>
            <stop stop-color="#1385CD" offset="100%"></stop>
        </linearGradient>
    </defs>
    <g id="Page-1" stroke="none" stroke-width="1" fill="none" fill-rule="evenodd">
        <g id="001-Fone-Dynamics-Homepage-Copy-8-999-Copy" transform="translate(-396.000000, -1521.000000)" fill-rule="nonzero" fill="url(#linearGradient-1)">
            <g id="Group-48" transform="translate(388.000000, 1501.000000)">
                <g id="Group-23" transform="translate(0.000000, 6.000000)">
                    <g id="ic-voice-services" transform="translate(8.000000, 14.000000)">
                        <path d="M7.34115817,1.01216259 C2.6774271,5.58865397 0,11.8341889 0,18.5 C0,24.9298613 2.49035909,30.9727927 6.86554936,35.5081532 C7.63243445,36.303113 8.89855987,36.325872 9.69351965,35.5589869 C10.4884794,34.7921018 10.5112385,33.5259764 9.74435337,32.7310166 C6.08139581,28.9339628 4,23.8833931 4,18.5 C4,12.919263 6.2379133,7.69896566 10.1427564,3.86716649 C10.931144,3.0935265 10.9430992,1.82725298 10.1694592,1.03886542 C9.39581925,0.250477861 8.12954573,0.238522595 7.34115817,1.01216259 Z M41.9078519,35.739976 C41.130575,36.5247781 39.8642597,36.5308785 39.0794576,35.7536016 C38.2946555,34.9763247 38.2885551,33.7100094 39.065832,32.9252073 C42.8442465,29.1102121 45,23.9780549 45,18.5 C45,12.8787096 42.7292076,7.62370688 38.7741036,3.78603971 C37.9813747,3.01684884 37.9622933,1.75066265 38.7314842,0.957933703 C39.500675,0.165204753 40.7668612,0.146123367 41.5595902,0.915314235 C46.2832808,5.49874679 49,11.7857006 49,18.5 C49,25.0430401 46.4207649,31.1833714 41.9078519,35.739976 Z M14.6500554,8.76052376 C15.4349732,7.98336365 16.7012875,7.98965251 17.4784476,8.7745703 C18.2556077,9.5594881 18.2493189,10.8258024 17.4644011,11.6029625 C15.5783365,13.4703863 14.5,16.0018349 14.5,18.7093235 C14.5,21.2965575 15.4839574,23.7242499 17.2232491,25.5685907 C17.9810769,26.3721895 17.9439721,27.6379757 17.1403734,28.3958034 C16.3367747,29.1536312 15.0709885,29.1165265 14.3131607,28.3129277 C11.8806262,25.7334739 10.5,22.3270907 10.5,18.7093235 C10.5,14.9230676 12.0127856,11.3717282 14.6500554,8.76052376 Z M34.4571568,28.5508205 C33.6806597,29.3363942 32.4143511,29.3437521 31.6287775,28.5672549 C30.8432038,27.7907577 30.8358459,26.5244491 31.6123431,25.7388755 C33.4518388,23.8778781 34.5,21.3789701 34.5,18.7093235 C34.5,15.9504767 33.3800111,13.37503 31.4302128,11.500132 C30.6340213,10.7345258 30.6092271,9.46843857 31.3748333,8.67224711 C32.1404396,7.87605565 33.4065268,7.85126145 34.2027183,8.6168677 C36.9289078,11.2383324 38.5,14.8511039 38.5,18.7093235 C38.5,22.442557 37.0294622,25.9484476 34.4571568,28.5508205 Z M24.5,23 C22.0147186,23 20,20.9852814 20,18.5 C20,16.0147186 22.0147186,14 24.5,14 C26.9852814,14 29,16.0147186 29,18.5 C29,20.9852814 26.9852814,23 24.5,23 Z" id="Combined-Shape"></path>
                    </g>
                </g>
            </g>
        </g>
    </g>
</svg>