<?xml version="1.0" encoding="UTF-8"?>
<svg width="50px" height="50px" viewBox="0 0 50 50" version="1.1" xmlns="http://www.w3.org/2000/svg" xmlns:xlink="http://www.w3.org/1999/xlink">
    <!-- Generator: Sketch 47.1 (45422) - http://www.bohemiancoding.com/sketch -->
    <title>icon_SMS Gateway</title>
    <desc>Created with Sketch.</desc>
    <defs></defs>
    <g id="Page-1" stroke="none" stroke-width="1" fill="none" fill-rule="evenodd">
        <g id="001-Fone-Dynamics-Homepage---@2560" transform="translate(-730.000000, -3261.000000)">
            <g id="#4-Body-2" transform="translate(-1.000000, 2421.000000)">
                <g id="Advanced" transform="translate(711.000000, 658.000000)">
                    <g id="Group-86" transform="translate(0.000000, 162.000000)">
                        <g id="Group-83" transform="translate(20.000000, 20.000000)">
                            <g id="icon_SMS-Gateway">
                                <rect id="Rectangle-13" fill="#DEEDFB" x="0" y="0" width="50" height="50" rx="25"></rect>
                                <g id="Group" transform="translate(14.000000, 14.000000)" fill-rule="nonzero">
                                    <g id="001-envelope">
                                        <path d="M16.6056,9.3110591 C14.459775,10.8139547 12.8304,11.9819527 11.7182656,12.8148039 C11.3453313,13.099049 11.0427969,13.3209387 10.8104563,13.4799395 C10.5781156,13.6390471 10.2691188,13.8015338 9.88301875,13.9673286 C9.49705625,14.1333724 9.13735625,14.2161453 8.80360937,14.2161453 C8.4500625,14.2161453 8.09015625,14.1333724 7.70419375,13.9673286 C7.31823125,13.8015338 7.00902813,13.6390471 6.77675625,13.4799395 C6.54455313,13.3209387 6.24191563,13.099049 5.86901563,12.8148039 C4.98568125,12.1445817 3.3598125,10.9765126 0.991340625,9.3110591 C0.618303125,9.05395443 0.287890625,8.75925158 0,8.42755524 L0,19.7430624 C0,20.1901855 0.153690625,20.5725345 0.46124375,20.8907495 C0.768728125,21.2090713 1.13846562,21.3681788 1.57031875,21.3681788 L16.0169625,21.3681788 C16.4487125,21.3681788 16.8184156,21.2090713 17.1259344,20.8907495 C17.4335562,20.5724278 17.5871781,20.1902211 17.5871781,19.7430624 L17.5871781,8.42755524 C17.3057844,8.75238644 16.9787406,9.04708929 16.6056,9.3110591 Z" id="Shape" fill="#6DB1F5"></path>
                                        <path d="M1.68801875,11.4475239 C1.91049375,11.6099751 2.58111563,12.0924554 3.69991875,12.8947159 C4.81875625,13.6969764 5.6758625,14.3146964 6.27127188,14.7479113 C6.3366875,14.7953982 6.47566563,14.8986242 6.688275,15.0577317 C6.90091875,15.216946 7.07760625,15.345605 7.2182,15.4437444 C7.35889687,15.5418483 7.52898438,15.6519039 7.72863438,15.7737334 C7.92821563,15.8954561 8.11635,15.987015 8.29300312,16.0476274 C8.46969062,16.1087378 8.63324688,16.1390084 8.78370625,16.1390084 C8.95393125,16.1390084 9.11755625,16.1087022 9.29424375,16.0476274 C9.47082813,15.987015 9.65913438,15.8953494 9.85854375,15.7737334 C10.0580563,15.6517616 10.2281437,15.5418127 10.3688406,15.4437444 C10.5095375,15.345605 10.6860875,15.216946 10.8988,15.0577317 C11.111375,14.8984819 11.250525,14.7953982 11.3159406,14.7479113 C11.9177781,14.3146964 13.4489437,13.2144605 15.9089562,11.4473105 C16.3865625,11.1021685 16.7855875,10.6857073 17.1061344,10.1982115 C17.4269219,9.71092913 17.5871437,9.19974329 17.5871437,8.66493853 C17.5871437,8.21802886 17.4316656,7.83546649 17.1208469,7.51728701 C16.8100625,7.19903639 16.441975,7.04 16.016825,7.04 L1.57021563,7.04 C1.06645,7.04 0.67876875,7.21600359 0.407240625,7.56801076 C0.135746875,7.92008908 0,8.36016918 0,8.88821552 C0,9.31474321 0.1799875,9.77694826 0.539790625,10.2745461 C0.899559375,10.7721795 1.28242812,11.1632077 1.68801875,11.4475239 Z" id="Shape" fill="#8EC6FF"></path>
                                        <path d="M19.1337309,4.86947936 C20.4113295,5.13648484 21.9027176,4.39796124 21.9969309,2.65288662 C22.0687082,1.32570015 20.8695652,0.366929574 19.6500395,0.301111947 C18.3254113,0.229532928 17.3685479,1.43078291 17.3024603,2.6525735 C17.3428798,3.39899163 17.639378,3.96007676 18.0649712,4.33805204 L16.3421912,6.74994397 C16.1498368,6.6867747 15.9496178,6.64815469 15.7486201,6.63738934 C15.388287,6.6178521 15.0594821,6.70702812 14.774801,6.86999655 L12.7712221,4.86641766 C12.8407318,4.68752112 12.8835743,4.49815507 12.8939107,4.30772088 C12.9429294,3.39491618 12.1174908,2.7346107 11.2783596,2.68927105 C10.3671385,2.64011136 9.70770048,3.46724668 9.66262086,4.30772088 C9.67625103,4.56040796 9.73990021,4.79029998 9.83850016,4.99601921 C9.6989209,5.15812145 9.55932689,5.32020892 9.41972641,5.4822899 L8.23381283,6.65914822 C8.03645502,6.54535783 7.80618981,6.4757543 7.5513189,6.4618548 C6.76770875,6.41964635 6.20080592,7.13099024 6.1617911,7.85379429 C6.11958757,8.63859591 6.8302325,9.20628078 7.5513189,9.24504492 C8.33492904,9.28737861 8.90195692,8.5759721 8.94053408,7.85379429 C8.93669185,7.78146538 8.92811096,7.71129043 8.91520841,7.64335607 L10.7517371,5.82085054 C10.9139993,5.87971131 11.0902946,5.915925 11.278047,5.92610808 C11.5445268,5.94040188 11.7891646,5.87939526 12.0032048,5.76515207 L13.9630112,7.72495852 C13.8014785,8.02627587 13.7034913,8.36393951 13.6852738,8.70416304 C13.7482978,9.8724729 14.5818644,10.7069352 15.74837,10.7702479 C16.9123121,10.8328717 17.7530064,9.77740995 17.8111535,8.70416304 C17.8387791,8.18895485 17.6477632,7.7379482 17.3340204,7.38907411 L19.1337309,4.86947936 Z" id="Combined-Shape" fill="#48A2FF"></path>
                                    </g>
                                </g>
                            </g>
                        </g>
                    </g>
                </g>
            </g>
        </g>
    </g>
</svg>