<?xml version="1.0" encoding="UTF-8"?>
<svg width="50px" height="50px" viewBox="0 0 50 50" version="1.1" xmlns="http://www.w3.org/2000/svg" xmlns:xlink="http://www.w3.org/1999/xlink">
    <!-- Generator: Sketch 47.1 (45422) - http://www.bohemiancoding.com/sketch -->
    <title>icon_SMS Marketing Platform</title>
    <desc>Created with Sketch.</desc>
    <defs></defs>
    <g id="Page-1" stroke="none" stroke-width="1" fill="none" fill-rule="evenodd">
        <g id="001-Fone-Dynamics-Homepage---@2560" transform="translate(-730.000000, -3511.000000)">
            <g id="#4-Body-2" transform="translate(-1.000000, 2421.000000)">
                <g id="Advanced" transform="translate(711.000000, 658.000000)">
                    <g id="Group-90" transform="translate(0.000000, 412.000000)">
                        <g id="Group-38" transform="translate(20.000000, 20.000000)">
                            <g id="icon_SMS-Marketing-Platform">
                                <rect id="Rectangle-13" fill="#D3F9FF" x="0" y="0" width="50" height="50" rx="25"></rect>
                                <g id="Group-91" transform="translate(14.000000, 15.000000)">
                                    <g id="Group-61" transform="translate(0.000000, 6.000000)" fill-rule="nonzero">
                                        <path d="M0,1.8 L0,12.1073618 C0,12.5180358 0.137323815,12.8692159 0.412125016,13.1614904 C0.686864789,13.4538628 1.01722823,13.6 1.40309249,13.6 L14.3112854,13.6 C14.6970575,13.6 15.0273902,13.4538628 15.3021607,13.1614904 C15.5770233,12.8691179 15.7142857,12.5180685 15.7142857,12.1073618 L15.7142857,1.8 L15.7142857,1.8 C15.7142857,1.24771525 15.2665705,0.8 14.7142857,0.8 L1,0.8 L1,0.8 C0.44771525,0.8 -6.76353751e-17,1.24771525 0,1.8 Z" id="Shape" fill="#268ACD"></path>
                                        <path d="M1.50826134,3.87516859 C1.70704493,4.01799837 2.30625217,4.44220312 3.30591375,5.14756393 C4.30560605,5.85292473 5.0714389,6.39603442 5.60344303,6.77692425 C5.66189253,6.81867545 5.78607085,6.9094335 5.97603942,7.0493235 C6.1660387,7.18930731 6.32391071,7.3024265 6.44953261,7.38871232 C6.57524665,7.47496687 6.7272215,7.57172959 6.90561074,7.6788441 C7.08393855,7.78586479 7.25203846,7.86636487 7.40987976,7.9196563 C7.56775178,7.97338556 7.71389089,8 7.84832782,8 C8.00042553,8 8.14662608,7.97335429 8.3044981,7.9196563 C8.46227797,7.86636487 8.63053145,7.78577097 8.80870569,7.6788441 C8.98697207,7.57160449 9.13894692,7.47493559 9.26466096,7.38871232 C9.390375,7.3024265 9.54812416,7.18930731 9.73818487,7.0493235 C9.92812272,6.90930841 10.0524546,6.81867545 10.1109041,6.77692425 C10.6486518,6.39603442 12.0167634,5.42868871 14.2148087,3.87498094 C14.6415546,3.5715263 14.9980873,3.20536667 15.2844991,2.77675224 C15.5711259,2.34832546 15.7142857,1.89888233 15.7142857,1.42867307 C15.7142857,1.03574263 15.5753645,0.699387414 15.2976449,0.419638704 C15.019956,0.139827444 14.6910662,0 14.3111905,0 L1.40300309,0 C0.952883552,0 0.606486546,0.15474529 0.363873499,0.464235871 C0.121291166,0.773789 0,1.16071477 0,1.62498192 C0,1.99999218 0.160820599,2.40637058 0.482308226,2.84386691 C0.803765139,3.28139452 1.14586213,3.62519302 1.50826134,3.87516859 Z" id="Shape" fill="#52CFF3"></path>
                                    </g>
                                    <path d="M13,3 C16.3137085,3 19,5.6862915 19,9 L17.5,9 C17.5,6.51471863 15.4852814,4.5 13,4.5 L13,3 Z" id="Combined-Shape" fill="#268ACD" fill-rule="nonzero"></path>
                                    <path d="M13,0 C17.9705627,0 22,4.4771525 22,10 L20.5,10 C20.5,5.39762709 17.1421356,1.66666667 13,1.66666667 L13,0 Z" id="Combined-Shape" fill="#268ACD"></path>
                                </g>
                            </g>
                        </g>
                    </g>
                </g>
            </g>
        </g>
    </g>
</svg>