<?xml version="1.0" encoding="UTF-8"?>
<svg width="32px" height="30px" viewBox="0 0 32 30" version="1.1" xmlns="http://www.w3.org/2000/svg" xmlns:xlink="http://www.w3.org/1999/xlink">
    <!-- Generator: Sketch 47.1 (45422) - http://www.bohemiancoding.com/sketch -->
    <title>icon-for-develoepr</title>
    <desc>Created with Sketch.</desc>
    <defs>
        <linearGradient x1="50%" y1="0%" x2="50%" y2="100%" id="linearGradient-1">
            <stop stop-color="#2BBBE8" offset="0%"></stop>
            <stop stop-color="#1385CD" offset="100%"></stop>
        </linearGradient>
    </defs>
    <g id="Page-1" stroke="none" stroke-width="1" fill="none" fill-rule="evenodd">
        <g id="001-Fone-Dynamics-Homepage-Copy-8-999-Copy" transform="translate(-407.000000, -4088.000000)" fill-rule="nonzero" fill="url(#linearGradient-1)">
            <g id="Group-38" transform="translate(391.000000, 4071.000000)">
                <g id="Group-35">
                    <path d="M46.0148601,17 L17.9190229,17 C16.8606616,17 16,17.8609059 16,18.9191043 L16,44.0912977 C16,45.1494962 16.8606616,46.0103206 17.9190229,46.0103206 L46.0149415,46.0103206 C47.0729771,46.0103206 47.9336387,45.1494962 47.9336387,44.0912977 L47.9336387,18.9191043 C47.933883,17.8609873 47.0728957,17 46.0148601,17 Z M31.2288041,41.2225547 C31.2288041,40.8312265 31.5460356,40.5139135 31.9372824,40.5139135 L32.6459237,40.5139135 C33.0374148,40.5139135 33.354402,40.831145 33.354402,41.2225547 L33.354402,42.0256489 C33.354402,42.4169771 33.0371705,42.7342087 32.6459237,42.7342087 L31.9372824,42.7342087 C31.5460356,42.7342087 31.2288041,42.4169771 31.2288041,42.0256489 L31.2288041,41.2225547 Z M27.9337812,41.2225547 C27.9337812,40.8312265 28.2511756,40.5139135 28.6424224,40.5139135 L29.3509008,40.5139135 C29.7421476,40.5139135 30.059542,40.831145 30.059542,41.2225547 L30.059542,42.0256489 C30.059542,42.4169771 29.7421476,42.7342087 29.3509008,42.7342087 L28.6424224,42.7342087 C28.2511756,42.7342087 27.9337812,42.4169771 27.9337812,42.0256489 L27.9337812,41.2225547 Z M36.6494249,42.0256489 C36.6494249,42.4169771 36.3321934,42.7342087 35.9409466,42.7342087 L35.2323053,42.7342087 C34.8407328,42.7342087 34.5237455,42.4169771 34.5237455,42.0256489 L34.5237455,41.2225547 C34.5237455,40.8312265 34.8409771,40.5139135 35.2323053,40.5139135 L35.9409466,40.5139135 C36.3322748,40.5139135 36.6494249,40.831145 36.6494249,41.2225547 L36.6494249,42.0256489 Z M21.8547583,30.5334758 C21.5037354,30.3696489 21.2772926,30.0143919 21.277374,29.6283562 L21.277374,29.5569466 C21.277374,29.170341 21.5039796,28.8149211 21.8546768,28.6517455 L26.9909618,26.2633079 C27.1209975,26.2028906 27.2662595,26.1710534 27.4111145,26.1710534 C27.6031959,26.1710534 27.7892519,26.2250382 27.9489262,26.3270636 C28.2377405,26.5110025 28.4102799,26.8257099 28.4102799,27.1685089 L28.4102799,27.1944835 C28.4102799,27.5812519 28.1835115,27.9365089 27.8324885,28.0996845 L24.6198677,29.5925293 L27.8324885,31.0852112 C28.1835115,31.2482239 28.4102799,31.6035623 28.4102799,31.9904936 L28.4102799,32.0167125 C28.4102799,32.3590229 28.2377405,32.6735674 27.9489262,32.8581578 C27.7876234,32.9607532 27.602056,33.0148193 27.4116845,33.0148193 C27.2655267,33.0148193 27.124173,32.9836336 26.991369,32.9221578 L21.8547583,30.5334758 Z M29.4560407,35.3987786 C29.2688448,35.1425344 29.2146158,34.8090178 29.3109415,34.5060356 L32.6948804,24.0208651 C32.8276845,23.6063308 33.2098931,23.3274504 33.6458422,23.3274504 L33.6714911,23.3274504 C33.9889669,23.3274504 34.2903206,23.4805293 34.4776794,23.7370178 C34.6651196,23.9939135 34.7189415,24.3279186 34.621883,24.6304936 L31.2382697,35.1148499 C31.1054656,35.5293842 30.7236641,35.8083461 30.2878779,35.8083461 L30.2621476,35.8083461 C29.9447532,35.8083461 29.6433995,35.6551858 29.4560407,35.3987786 Z M35.5233588,27.194402 L35.5233588,27.1943206 L35.5236031,27.1943206 L35.5236031,27.1684275 C35.5236031,26.8256285 35.6961425,26.5110025 35.9852824,26.3267379 C36.1449567,26.2248753 36.331257,26.1710534 36.5230127,26.1710534 C36.6678677,26.1710534 36.8129669,26.2028906 36.942514,26.263145 L42.078799,28.6515827 C42.4298219,28.8147583 42.6564275,29.1701781 42.6564275,29.5567837 L42.6564275,29.6281934 C42.6564275,30.0143919 42.4298219,30.3696489 42.0791247,30.5332316 L36.9428397,32.9218321 C36.8091399,32.9836336 36.6678677,33.0148193 36.5218728,33.0148193 C36.331257,33.0148193 36.1456081,32.9605903 35.9848753,32.8581578 C35.6957354,32.673486 35.5233588,32.3589415 35.5233588,32.0165496 L35.5233588,31.9903308 C35.5233588,31.6035623 35.7501272,31.2482239 36.1010687,31.0850483 L39.3136896,29.5925293 L36.1010687,28.1000916 C35.7499644,27.9361018 35.5233588,27.5807634 35.5233588,27.194402 Z" id="icon-for-develoepr"></path>
                </g>
            </g>
        </g>
    </g>
</svg>