<?xml version="1.0" encoding="UTF-8"?>
<svg width="673px" height="407px" viewBox="0 0 673 407" version="1.1" xmlns="http://www.w3.org/2000/svg" xmlns:xlink="http://www.w3.org/1999/xlink">
    <!-- Generator: Sketch 47.1 (45422) - http://www.bohemiancoding.com/sketch -->
    <title>ill-call-routing</title>
    <desc>Created with Sketch.</desc>
    <defs>
        <radialGradient cx="50%" cy="87.2957706%" fx="50%" fy="87.2957706%" r="60.5217721%" gradientTransform="translate(0.500000,0.872958),scale(0.412671,1.000000),rotate(-129.439274),scale(1.000000,1.563395),translate(-0.500000,-0.872958)" id="radialGradient-1">
            <stop stop-color="#91C6FF" offset="0%"></stop>
            <stop stop-color="#FEFEFE" stop-opacity="0" offset="100%"></stop>
        </radialGradient>
        <linearGradient x1="127.79226%" y1="-17.7486829%" x2="-19.2184804%" y2="138.231336%" id="linearGradient-2">
            <stop stop-color="#FBFDFF" offset="0%"></stop>
            <stop stop-color="#DCECFE" offset="100%"></stop>
        </linearGradient>
        <linearGradient x1="108.724601%" y1="6.32315539%" x2="22.6373122%" y2="107.10472%" id="linearGradient-3">
            <stop stop-color="#FEFEFE" offset="0%"></stop>
            <stop stop-color="#F3F6FC" offset="100%"></stop>
        </linearGradient>
        <linearGradient x1="48.905487%" y1="108.628555%" x2="34.2206705%" y2="40.1638592%" id="linearGradient-4">
            <stop stop-color="#91C6FF" offset="0%"></stop>
            <stop stop-color="#F3F6FC" offset="100%"></stop>
        </linearGradient>
        <linearGradient x1="78.0389609%" y1="-31.4547257%" x2="91.5077979%" y2="109.345321%" id="linearGradient-5">
            <stop stop-color="#48C7FF" offset="0%"></stop>
            <stop stop-color="#1F7DC2" offset="100%"></stop>
        </linearGradient>
        <linearGradient x1="50%" y1="12.6974887%" x2="91.5077979%" y2="109.345321%" id="linearGradient-6">
            <stop stop-color="#48C7FF" offset="0%"></stop>
            <stop stop-color="#1F7DC2" offset="100%"></stop>
        </linearGradient>
        <linearGradient x1="127.79226%" y1="-17.7486829%" x2="-2.29683988%" y2="109.387313%" id="linearGradient-7">
            <stop stop-color="#ABF0A2" stop-opacity="0" offset="0%"></stop>
            <stop stop-color="#68D75A" offset="100%"></stop>
        </linearGradient>
        <linearGradient x1="118.86177%" y1="-14.131318%" x2="5.2440451%" y2="81.9920371%" id="linearGradient-8">
            <stop stop-color="#FFFFFF" offset="0%"></stop>
            <stop stop-color="#68D75A" stop-opacity="0" offset="100%"></stop>
        </linearGradient>
        <linearGradient x1="129.285982%" y1="-49.0641914%" x2="15.2073956%" y2="133.746843%" id="linearGradient-9">
            <stop stop-color="#FEFEFE" offset="0%"></stop>
            <stop stop-color="#86DE7A" stop-opacity="0" offset="100%"></stop>
        </linearGradient>
        <path d="M1.24199256,41.5596828 L87.3534765,0.109652487 C88.03941,-0.220523758 88.595469,0.220087083 88.595469,1.09378434 L88.595469,65.4271836 C88.595469,66.3008808 88.03941,67.2768131 87.3534765,67.6069894 L1.24199256,109.05702 C0.556059008,109.387196 0,108.946585 0,108.072888 L0,43.7394886 C0,42.8657913 0.556059008,41.889859 1.24199256,41.5596828 Z" id="path-10"></path>
        <filter x="-44.0%" y="-23.8%" width="158.7%" height="147.6%" filterUnits="objectBoundingBox" id="filter-11">
            <feOffset dx="-13" dy="0" in="SourceAlpha" result="shadowOffsetOuter1"></feOffset>
            <feGaussianBlur stdDeviation="6.5" in="shadowOffsetOuter1" result="shadowBlurOuter1"></feGaussianBlur>
            <feComposite in="shadowBlurOuter1" in2="SourceAlpha" operator="out" result="shadowBlurOuter1"></feComposite>
            <feColorMatrix values="0 0 0 0 0.0352941176   0 0 0 0 0.505882353   0 0 0 0 0.745098039  0 0 0 0.2 0" type="matrix" in="shadowBlurOuter1"></feColorMatrix>
        </filter>
        <linearGradient x1="100%" y1="92.337695%" x2="0%" y2="92.3376977%" id="linearGradient-12">
            <stop stop-color="#5BD4F2" stop-opacity="0" offset="0%"></stop>
            <stop stop-color="#78DC6C" offset="20.1478653%"></stop>
            <stop stop-color="#46C0E9" offset="51.786617%"></stop>
            <stop stop-color="#32ADE2" offset="79.9065005%"></stop>
            <stop stop-color="#2EA9E0" stop-opacity="0" offset="100%"></stop>
        </linearGradient>
        <path d="M35.894054,61.9666546 L50.6897417,55.4574685 C53.3636655,54.2811077 55.531309,51.1817062 55.531309,48.5347616 L55.531309,3.14918172 C55.531309,0.502237079 53.3636655,-0.689906655 50.6897417,0.486454161 L4.84156723,20.656811 C2.16764348,21.8331718 0,24.9325732 0,27.5795179 L0,72.9650977 C0,75.6120424 2.16764348,76.8041861 4.84156723,75.6278253 L19.660219,69.1085365 L27.802333,76.9999852 L35.894054,61.9666546 Z" id="path-13"></path>
        <path d="M23.2705934,75.9081181 L90.6479372,43.3541514 C91.3542929,43.0128693 91.9269073,42.0041105 91.9269073,41.1010255 L91.9269073,1.25558214 C91.9269073,0.352497133 91.3542929,-0.102934128 90.6479372,0.23834795 L1.97267481,43.0825947 C1.26631911,43.4238768 0.693704679,44.4326356 0.693704679,45.3357206 L0.693704679,85.181164 C0.693704679,86.084249 1.26631911,86.5396802 1.97267481,86.1983982 L12.3216502,81.1981981 L15.9236467,87.6365493 C16.1932966,88.1185321 16.8026152,88.290662 17.284598,88.0210121 C17.4650186,87.9200741 17.6097205,87.7656985 17.6987883,87.5791322 L23.2705934,75.9081181 Z" id="path-14"></path>
        <filter x="-42.7%" y="-29.5%" width="157.0%" height="159.1%" filterUnits="objectBoundingBox" id="filter-15">
            <feOffset dx="-13" dy="0" in="SourceAlpha" result="shadowOffsetOuter1"></feOffset>
            <feGaussianBlur stdDeviation="6.5" in="shadowOffsetOuter1" result="shadowBlurOuter1"></feGaussianBlur>
            <feComposite in="shadowBlurOuter1" in2="SourceAlpha" operator="out" result="shadowBlurOuter1"></feComposite>
            <feColorMatrix values="0 0 0 0 0.0352941176   0 0 0 0 0.505882353   0 0 0 0 0.745098039  0 0 0 0.1 0" type="matrix" in="shadowBlurOuter1"></feColorMatrix>
        </filter>
        <path d="M23.2705934,75.9081181 L90.6479372,43.3541514 C91.3542929,43.0128693 91.9269073,42.0041105 91.9269073,41.1010255 L91.9269073,1.25558214 C91.9269073,0.352497133 91.3542929,-0.102934128 90.6479372,0.23834795 L1.97267481,43.0825947 C1.26631911,43.4238768 0.693704679,44.4326356 0.693704679,45.3357206 L0.693704679,85.181164 C0.693704679,86.084249 1.26631911,86.5396802 1.97267481,86.1983982 L12.3216502,81.1981981 L15.9236467,87.6365493 C16.1932966,88.1185321 16.8026152,88.290662 17.284598,88.0210121 C17.4650186,87.9200741 17.6097205,87.7656985 17.6987883,87.5791322 L23.2705934,75.9081181 Z" id="path-16"></path>
        <filter x="-42.7%" y="-29.5%" width="157.0%" height="159.1%" filterUnits="objectBoundingBox" id="filter-17">
            <feOffset dx="-13" dy="0" in="SourceAlpha" result="shadowOffsetOuter1"></feOffset>
            <feGaussianBlur stdDeviation="6.5" in="shadowOffsetOuter1" result="shadowBlurOuter1"></feGaussianBlur>
            <feComposite in="shadowBlurOuter1" in2="SourceAlpha" operator="out" result="shadowBlurOuter1"></feComposite>
            <feColorMatrix values="0 0 0 0 0.0352941176   0 0 0 0 0.505882353   0 0 0 0 0.745098039  0 0 0 0.1 0" type="matrix" in="shadowBlurOuter1"></feColorMatrix>
        </filter>
        <path d="M23.2705934,75.9081181 L90.6479372,43.3541514 C91.3542929,43.0128693 91.9269073,42.0041105 91.9269073,41.1010255 L91.9269073,1.25558214 C91.9269073,0.352497133 91.3542929,-0.102934128 90.6479372,0.23834795 L1.97267481,43.0825947 C1.26631911,43.4238768 0.693704679,44.4326356 0.693704679,45.3357206 L0.693704679,85.181164 C0.693704679,86.084249 1.26631911,86.5396802 1.97267481,86.1983982 L12.3216502,81.1981981 L15.9236467,87.6365493 L15.9236467,87.6365493 C16.1932966,88.1185321 16.8026152,88.290662 17.284598,88.0210121 C17.4650186,87.9200741 17.6097205,87.7656985 17.6987883,87.5791322 L23.2705934,75.9081181 Z" id="path-18"></path>
        <filter x="-42.7%" y="-29.5%" width="157.0%" height="159.1%" filterUnits="objectBoundingBox" id="filter-19">
            <feOffset dx="-13" dy="0" in="SourceAlpha" result="shadowOffsetOuter1"></feOffset>
            <feGaussianBlur stdDeviation="6.5" in="shadowOffsetOuter1" result="shadowBlurOuter1"></feGaussianBlur>
            <feComposite in="shadowBlurOuter1" in2="SourceAlpha" operator="out" result="shadowBlurOuter1"></feComposite>
            <feColorMatrix values="0 0 0 0 0.0352941176   0 0 0 0 0.505882353   0 0 0 0 0.745098039  0 0 0 0.1 0" type="matrix" in="shadowBlurOuter1"></feColorMatrix>
        </filter>
    </defs>
    <g id="Page-1" stroke="none" stroke-width="1" fill="none" fill-rule="evenodd">
        <g id="001-Fone-Dynamics-Homepage-Copy-8-999-Copy" transform="translate(-1240.000000, -1436.000000)">
            <g id="ill-call-routing" transform="translate(1139.000000, 1435.000000)">
                <g id="Group-64">
                    <g id="Group-58" transform="translate(0.433723, 0.434451)">
                        <g id="Group-56" transform="translate(0.015025, 52.789122)">
                            <polygon id="Path-21" fill="url(#radialGradient-1)" points="331.088769 241.776428 0.551252142 123.113392 255.468736 0.776427877 584.551252 125.724171"></polygon>
                            <path d="M498.529491,118.546331 C500.724176,117.484388 503.261201,117.385798 505.531425,118.274232 C575.190578,125.582948 610.020154,129.237306 610.020154,129.237306 C610.020154,129.237306 610.180721,151.261216 610.200653,152.295492 C610.207109,152.630488 610.149442,152.972298 610.020154,153.303778 C609.776348,153.928868 609.303525,154.43716 608.698235,154.724862 L387.14244,260.032905 C385.003066,261.049774 382.543956,261.15627 380.324949,260.328148 L277.268403,221.86797 C276.252698,221.488915 275.609506,220.547825 275.559413,219.528071 C275.548066,219.297076 275.548066,211.734194 275.559413,196.839426 L498.529491,118.546331 Z" id="Rectangle-5-Copy" fill="#C6E0FD"></path>
                            <path d="M387.14244,260.032905 L608.698235,154.724862 C609.303525,154.43716 609.776348,153.928868 610.020154,153.303778 C610.149442,152.972298 610.207109,152.630488 610.200653,152.295492 C610.180721,151.261216 610.020154,129.237306 610.020154,129.237306 L505.531425,118.274232 C503.261201,117.385798 500.724176,117.484388 498.529491,118.546331 L383.6835,158.873034 L383.6835,260.875498 C384.870187,260.834984 386.048141,260.553038 387.14244,260.032905 Z" id="Combined-Shape" fill="url(#linearGradient-2)"></path>
                            <path d="M277.042684,194.154621 L498.529491,86.9837221 C500.724176,85.921779 503.261201,85.8231888 505.531425,86.7116231 L608.527849,127.018456 C609.880483,127.547798 610.54861,129.07528 610.020154,130.430182 C609.776348,131.055271 609.303525,131.563564 608.698235,131.851265 L387.14244,237.159308 C385.003066,238.176177 382.543956,238.282673 380.324949,237.454551 L277.268403,198.994373 C275.907582,198.486522 275.215425,196.969814 275.722426,195.606712 C275.959145,194.970278 276.432152,194.45004 277.042684,194.154621 Z" id="Rectangle-5" fill="url(#linearGradient-3)"></path>
                            <path d="M302.89643,181.64476 L368.458835,149.921056 L405.443882,168.44459 L337.783047,196.249429 L302.89643,181.64476 Z" id="Combined-Shape" fill="url(#linearGradient-4)"></path>
                        </g>
                        <g id="Group-61" transform="translate(335.235506, 0.459963)">
                            <g id="Group-60" transform="translate(134.062465, 0.024229)">
                                <path d="M37.5233113,81.707149 C39.9124631,80.5511093 42.674288,80.4437833 45.1456724,81.4109399 C68.5413697,68.8384228 80.2392183,62.5521643 80.2392183,62.5521643 C80.2392183,62.5521643 80.4140127,176.497353 80.435711,177.623275 C80.4427389,177.987954 80.3799624,178.360051 80.2392183,178.720903 C79.9738096,179.401381 79.4590907,179.954712 78.800167,180.267906 L42.9475598,197.352097 C40.61862,198.459069 37.941614,198.575001 35.5259847,197.673501 L1.9915243,184.706925 C0.885820505,184.294282 0.185636193,183.269805 0.131104655,182.159692 C0.11875216,181.908229 0.11875216,143.685287 0.131104655,67.4908662 L37.5233113,81.707149 Z" id="Rectangle-5-Copy" fill="url(#linearGradient-5)"></path>
                                <path d="M42.9475598,197.352097 L78.800167,180.267906 C79.4590907,179.954712 79.9738096,179.401381 80.2392183,178.720903 C80.3799624,178.360051 80.4427389,177.987954 80.435711,177.623275 C80.4140127,176.497353 80.2392183,62.5521643 80.2392183,62.5521643 L45.1456724,81.4109399 C42.674288,80.4437833 41.5712821,82.1759757 39.1821303,83.3320154 L39.1821303,198.269351 C40.4739666,198.225247 41.7562967,197.918318 42.9475598,197.352097 Z" id="Combined-Shape" fill="url(#linearGradient-6)"></path>
                                <path d="M1.74580494,64.5681665 L37.5233113,47.3478412 C39.9124631,46.1918015 42.674288,46.0844755 45.1456724,47.0516321 L78.6146834,60.1367061 C80.0871708,60.7129524 80.8144999,62.3757809 80.2392183,63.8507376 C79.9738096,64.5312155 79.4590907,65.0845464 78.800167,65.3977405 L42.9475598,82.4819312 C40.61862,83.5889034 37.941614,83.7048357 35.5259847,82.8033352 L1.9915243,69.8367593 C0.510124117,69.2839083 -0.24336401,67.6328081 0.308561468,66.1489238 C0.566256131,65.4560964 1.08117479,64.8897613 1.74580494,64.5681665 Z" id="Rectangle-5" fill="#319DDC"></path>
                                <g id="Group-62" transform="translate(0.000000, 0.344585)">
                                    <path d="M37.5233113,35.6553839 C39.9124631,34.4993442 42.674288,34.3920182 45.1456724,35.3591748 C68.5413697,22.7866577 80.2392183,16.5003992 80.2392183,16.5003992 C80.2392183,16.5003992 80.4140127,52.2444775 80.435711,53.3703992 C80.4427389,53.7350786 80.3799624,54.1071755 80.2392183,54.4680275 C79.9738096,55.1485053 79.4590907,55.7018362 78.800167,56.0150303 L42.9475598,73.0992211 C40.61862,74.2061933 37.941614,74.3221256 35.5259847,73.4206251 L1.9915243,60.4540492 C0.885820505,60.0414062 0.185636193,59.016929 0.131104655,57.906816 C0.11875216,57.6553529 0.11875216,45.4994479 0.131104655,21.4391011 L37.5233113,35.6553839 Z" id="Rectangle-5-Copy" fill="#68D75A"></path>
                                    <path d="M42.9475598,73.0992211 L78.800167,56.0150303 C79.4590907,55.7018362 79.9738096,55.1485053 80.2392183,54.4680275 C80.3799624,54.1071755 80.4427389,53.7350786 80.435711,53.3703992 C80.4140127,52.2444775 80.2392183,16.5003992 80.2392183,16.5003992 L45.1456724,35.3591748 C42.674288,34.3920182 41.5712821,35.7796252 39.1821303,36.9356649 L39.1821303,74.016475 C40.4739666,73.972371 41.7562967,73.6654423 42.9475598,73.0992211 Z" id="Combined-Shape" fill="url(#linearGradient-7)"></path>
                                    <path d="M42.9475598,73.0992211 L78.800167,56.0150303 C79.4590907,55.7018362 79.9738096,55.1485053 80.2392183,54.4680275 C80.3799624,54.1071755 80.4427389,53.7350786 80.435711,53.3703992 C80.4140127,52.2444775 80.2392183,16.5003992 80.2392183,16.5003992 L45.1456724,35.3591748 C42.674288,34.3920182 41.5712821,35.7796252 39.1821303,36.9356649 L39.1821303,74.016475 C40.4739666,73.972371 41.7562967,73.6654423 42.9475598,73.0992211 Z" id="Combined-Shape" fill="url(#linearGradient-8)"></path>
                                    <path d="M1.74580494,18.5164014 L37.5233113,1.29607611 C39.9124631,0.140036396 42.674288,0.0327103792 45.1456724,0.99986702 L78.6146834,14.084941 C80.0871708,14.6611873 80.8144999,16.3240158 80.2392183,17.7989725 C79.9738096,18.4794503 79.4590907,19.0327812 78.800167,19.3459753 L42.9475598,36.4301661 C40.61862,37.5371383 37.941614,37.6530706 35.5259847,36.75157 L1.9915243,23.7849942 C0.510124117,23.2321432 -0.24336401,21.581043 0.308561468,20.0971587 C0.566256131,19.4043313 1.08117479,18.8379962 1.74580494,18.5164014 Z" id="Rectangle-5" fill="#97ED8C"></path>
                                    <path d="M1.74580494,18.5164014 L37.5233113,1.29607611 C39.9124631,0.140036396 42.674288,0.0327103792 45.1456724,0.99986702 L78.6146834,14.084941 C80.0871708,14.6611873 80.8144999,16.3240158 80.2392183,17.7989725 C79.9738096,18.4794503 79.4590907,19.0327812 78.800167,19.3459753 L42.9475598,36.4301661 C40.61862,37.5371383 37.941614,37.6530706 35.5259847,36.75157 L1.9915243,23.7849942 C0.510124117,23.2321432 -0.24336401,21.581043 0.308561468,20.0971587 C0.566256131,19.4043313 1.08117479,18.8379962 1.74580494,18.5164014 Z" id="Rectangle-5" fill="url(#linearGradient-9)"></path>
                                </g>
                            </g>
                            <g id="Group-59" transform="translate(69.544243, 58.594750)">
                                <path d="M37.7737021,81.9119127 C40.1628539,80.755873 42.9246788,80.6485469 45.3960632,81.6157036 C68.7917605,69.0431865 80.4896091,62.7569279 80.4896091,62.7569279 C80.4896091,62.7569279 80.6644035,149.095249 80.6861018,150.22117 C80.6931297,150.58585 80.6303532,150.957947 80.4896091,151.318798 C80.2242004,151.999276 79.7094815,152.552607 79.0505578,152.865801 L43.1979506,169.949992 C40.8690107,171.056964 38.1920048,171.172897 35.7763755,170.271396 L2.24191509,157.30482 C1.1362113,156.892177 0.436026985,155.8677 0.381495447,154.757587 C0.369142952,154.506124 0.369142952,125.485472 0.381495447,67.6956299 L37.7737021,81.9119127 Z" id="Rectangle-5-Copy" fill="url(#linearGradient-5)"></path>
                                <path d="M43.1979506,169.949992 L79.0505578,152.865801 C79.7094815,152.552607 80.2242004,151.999276 80.4896091,151.318798 C80.6303532,150.957947 80.6931297,150.58585 80.6861018,150.22117 C80.6644035,149.095249 80.4896091,62.7569279 80.4896091,62.7569279 L45.3960632,81.6157036 C42.9246788,80.6485469 41.8216729,81.8218379 39.4325211,82.9778776 L39.4325211,170.867246 C40.7243574,170.823142 42.0066875,170.516213 43.1979506,169.949992 Z" id="Combined-Shape" fill="url(#linearGradient-6)"></path>
                                <path d="M1.99619573,64.7729301 L37.7737021,47.5526049 C40.1628539,46.3965652 42.9246788,46.2892391 45.3960632,47.2563958 L78.8650742,60.3414697 C80.3375616,60.917716 81.0648907,62.5805445 80.4896091,64.0555012 C80.2242004,64.7359791 79.7094815,65.28931 79.0505578,65.6025041 L43.1979506,82.6866948 C40.8690107,83.793667 38.1920048,83.9095993 35.7763755,83.0080988 L2.24191509,70.041523 C0.760514908,69.488672 0.00702678172,67.8375718 0.558952259,66.3536874 C0.816646922,65.6608601 1.33156558,65.094525 1.99619573,64.7729301 Z" id="Rectangle-5" fill="#319DDC"></path>
                                <g id="Group-62" transform="translate(0.121840, 0.194979)">
                                    <path d="M37.5233113,35.6553839 C39.9124631,34.4993442 42.674288,34.3920182 45.1456724,35.3591748 C68.5413697,22.7866577 80.2392183,16.5003992 80.2392183,16.5003992 C80.2392183,16.5003992 80.4140127,52.2444775 80.435711,53.3703992 C80.4427389,53.7350786 80.3799624,54.1071755 80.2392183,54.4680275 C79.9738096,55.1485053 79.4590907,55.7018362 78.800167,56.0150303 L42.9475598,73.0992211 C40.61862,74.2061933 37.941614,74.3221256 35.5259847,73.4206251 L1.9915243,60.4540492 C0.885820505,60.0414062 0.185636193,59.016929 0.131104655,57.906816 C0.11875216,57.6553529 0.11875216,45.4994479 0.131104655,21.4391011 L37.5233113,35.6553839 Z" id="Rectangle-5-Copy" fill="#68D75A"></path>
                                    <path d="M42.9475598,73.0992211 L78.800167,56.0150303 C79.4590907,55.7018362 79.9738096,55.1485053 80.2392183,54.4680275 C80.3799624,54.1071755 80.4427389,53.7350786 80.435711,53.3703992 C80.4140127,52.2444775 80.2392183,16.5003992 80.2392183,16.5003992 L45.1456724,35.3591748 C42.674288,34.3920182 41.5712821,33.8372908 39.1821303,34.9933305 L39.1821303,74.016475 C40.4739666,73.972371 41.7562967,73.6654423 42.9475598,73.0992211 Z" id="Combined-Shape" fill="url(#linearGradient-7)"></path>
                                    <path d="M42.9475598,73.0992211 L78.800167,56.0150303 C79.4590907,55.7018362 79.9738096,55.1485053 80.2392183,54.4680275 C80.3799624,54.1071755 80.4427389,53.7350786 80.435711,53.3703992 C80.4140127,52.2444775 80.2392183,16.5003992 80.2392183,16.5003992 L45.1456724,35.3591748 C42.674288,34.3920182 41.5712821,35.5750933 39.1821303,36.731133 L39.1821303,74.016475 C40.4739666,73.972371 41.7562967,73.6654423 42.9475598,73.0992211 Z" id="Combined-Shape" fill="url(#linearGradient-8)"></path>
                                    <path d="M1.74580494,18.5164014 L37.5233113,1.29607611 C39.9124631,0.140036396 42.674288,0.0327103792 45.1456724,0.99986702 L78.6146834,14.084941 C80.0871708,14.6611873 80.8144999,16.3240158 80.2392183,17.7989725 C79.9738096,18.4794503 79.4590907,19.0327812 78.800167,19.3459753 L42.9475598,36.4301661 C40.61862,37.5371383 37.941614,37.6530706 35.5259847,36.75157 L1.9915243,23.7849942 C0.510124117,23.2321432 -0.24336401,21.581043 0.308561468,20.0971587 C0.566256131,19.4043313 1.08117479,18.8379962 1.74580494,18.5164014 Z" id="Rectangle-5" fill="#97ED8C"></path>
                                    <path d="M1.74580494,18.5164014 L37.5233113,1.29607611 C39.9124631,0.140036396 42.674288,0.0327103792 45.1456724,0.99986702 L78.6146834,14.084941 C80.0871708,14.6611873 80.8144999,16.3240158 80.2392183,17.7989725 C79.9738096,18.4794503 79.4590907,19.0327812 78.800167,19.3459753 L42.9475598,36.4301661 C40.61862,37.5371383 37.941614,37.6530706 35.5259847,36.75157 L1.9915243,23.7849942 C0.510124117,23.2321432 -0.24336401,21.581043 0.308561468,20.0971587 C0.566256131,19.4043313 1.08117479,18.8379962 1.74580494,18.5164014 Z" id="Rectangle-5" fill="url(#linearGradient-9)"></path>
                                </g>
                            </g>
                            <g id="Group-57" transform="translate(0.536460, 146.335220)">
                                <path d="M37.8469064,81.4300485 C40.2360582,80.2740088 42.9978831,80.1666828 45.4692674,81.1338394 C68.8649647,68.5613223 80.5628134,62.2750638 80.5628134,62.2750638 C80.5628134,62.2750638 80.7376078,93.9496243 80.7593061,95.0755459 C80.766334,95.4402253 80.7035575,95.8123223 80.5628134,96.1731742 C80.2974046,96.8536521 79.7826858,97.406983 79.123762,97.7201771 L43.2711549,114.804368 C40.942215,115.91134 38.265209,116.027272 35.8495798,115.125772 L2.31511937,102.159196 C1.20941557,101.746553 0.50923126,100.722076 0.454699723,99.6119627 C0.442347227,99.3604996 0.442347227,88.5611006 0.454699723,67.2137657 L37.8469064,81.4300485 Z" id="Rectangle-5-Copy" fill="url(#linearGradient-5)"></path>
                                <path d="M43.2711549,114.804368 L79.123762,97.7201771 C79.7826858,97.406983 80.2974046,96.8536521 80.5628134,96.1731742 C80.7035575,95.8123223 80.766334,95.4402253 80.7593061,95.0755459 C80.7376078,93.9496243 80.5628134,62.2750638 80.5628134,62.2750638 L45.4692674,81.1338394 C42.9978831,80.1666828 41.8948772,80.1025891 39.5057254,81.2586288 L39.5057254,115.721622 C40.7975616,115.677518 42.0798917,115.370589 43.2711549,114.804368 Z" id="Combined-Shape" fill="url(#linearGradient-6)"></path>
                                <path d="M2.06940001,64.291066 L37.8469064,47.0707407 C40.2360582,45.914701 42.9978831,45.807375 45.4692674,46.7745316 L78.9382785,59.8596056 C80.4107659,60.4358519 81.138095,62.0986804 80.5628134,63.5736371 C80.2974046,64.2541149 79.7826858,64.8074458 79.123762,65.1206399 L43.2711549,82.2048307 C40.942215,83.3118029 38.265209,83.4277352 35.8495798,82.5262347 L2.31511937,69.5596588 C0.833719184,69.0068078 0.0802310574,67.3557076 0.632156535,65.8718233 C0.889851198,65.1789959 1.40476985,64.6126608 2.06940001,64.291066 Z" id="Rectangle-5" fill="#319DDC"></path>
                                <g id="Group-62" transform="translate(0.200873, 0.582017)">
                                    <path d="M37.5233113,35.6553839 C39.9124631,34.4993442 42.674288,34.3920182 45.1456724,35.3591748 C68.5413697,22.7866577 80.2392183,16.5003992 80.2392183,16.5003992 C80.2392183,16.5003992 80.4140127,52.2444775 80.435711,53.3703992 C80.4427389,53.7350786 80.3799624,54.1071755 80.2392183,54.4680275 C79.9738096,55.1485053 79.4590907,55.7018362 78.800167,56.0150303 L42.9475598,73.0992211 C40.61862,74.2061933 37.941614,74.3221256 35.5259847,73.4206251 L1.9915243,60.4540492 C0.885820505,60.0414062 0.185636193,59.016929 0.131104655,57.906816 C0.11875216,57.6553529 0.11875216,45.4994479 0.131104655,21.4391011 L37.5233113,35.6553839 Z" id="Rectangle-5-Copy" fill="#68D75A"></path>
                                    <path d="M42.9475598,73.0992211 L78.800167,56.0150303 C79.4590907,55.7018362 79.9738096,55.1485053 80.2392183,54.4680275 C80.3799624,54.1071755 80.4427389,53.7350786 80.435711,53.3703992 C80.4140127,52.2444775 80.2392183,16.5003992 80.2392183,16.5003992 L45.1456724,35.3591748 C42.674288,34.3920182 41.5712821,35.2066098 39.1821303,36.3626495 L39.1821303,74.016475 C40.4739666,73.972371 41.7562967,73.6654423 42.9475598,73.0992211 Z" id="Combined-Shape" fill="url(#linearGradient-7)"></path>
                                    <path d="M42.9475598,73.0992211 L78.800167,56.0150303 C79.4590907,55.7018362 79.9738096,55.1485053 80.2392183,54.4680275 C80.3799624,54.1071755 80.4427389,53.7350786 80.435711,53.3703992 C80.4140127,52.2444775 80.2392183,16.5003992 80.2392183,16.5003992 L45.1456724,35.3591748 C42.674288,34.3920182 41.5712821,35.2066098 39.1821303,36.3626495 L39.1821303,74.016475 C40.4739666,73.972371 41.7562967,73.6654423 42.9475598,73.0992211 Z" id="Combined-Shape" fill="url(#linearGradient-8)"></path>
                                    <path d="M1.74580494,18.5164014 L37.5233113,1.29607611 C39.9124631,0.140036396 42.674288,0.0327103792 45.1456724,0.99986702 L78.6146834,14.084941 C80.0871708,14.6611873 80.8144999,16.3240158 80.2392183,17.7989725 C79.9738096,18.4794503 79.4590907,19.0327812 78.800167,19.3459753 L42.9475598,36.4301661 C40.61862,37.5371383 37.941614,37.6530706 35.5259847,36.75157 L1.9915243,23.7849942 C0.510124117,23.2321432 -0.24336401,21.581043 0.308561468,20.0971587 C0.566256131,19.4043313 1.08117479,18.8379962 1.74580494,18.5164014 Z" id="Rectangle-5" fill="#97ED8C"></path>
                                    <path d="M1.74580494,18.5164014 L37.5233113,1.29607611 C39.9124631,0.140036396 42.674288,0.0327103792 45.1456724,0.99986702 L78.6146834,14.084941 C80.0871708,14.6611873 80.8144999,16.3240158 80.2392183,17.7989725 C79.9738096,18.4794503 79.4590907,19.0327812 78.800167,19.3459753 L42.9475598,36.4301661 C40.61862,37.5371383 37.941614,37.6530706 35.5259847,36.75157 L1.9915243,23.7849942 C0.510124117,23.2321432 -0.24336401,21.581043 0.308561468,20.0971587 C0.566256131,19.4043313 1.08117479,18.8379962 1.74580494,18.5164014 Z" id="Rectangle-5" fill="url(#linearGradient-9)"></path>
                                </g>
                            </g>
                        </g>
                        <g id="Group-40" transform="translate(496.919582, 77.972069)">
                            <g id="Container" opacity="0.959701528">
                                <use fill="black" fill-opacity="1" filter="url(#filter-11)" xlink:href="#path-10"></use>
                                <use fill="#FFFFFF" fill-rule="evenodd" xlink:href="#path-10"></use>
                                <path stroke="#F3F4F6" stroke-width="1.25" d="M1.51306863,42.1228371 C1.05357825,42.3440142 0.625,43.0962066 0.625,43.7394886 L0.625,108.072888 C0.625,108.51919 0.735841957,108.607019 0.970916485,108.493865 L87.0824004,67.0438351 C87.5418908,66.8226579 87.970469,66.0704655 87.970469,65.4271836 L87.970469,1.09378434 C87.970469,0.647482041 87.8596271,0.559652931 87.6245525,0.672806785 L1.51306863,42.1228371 Z"></path>
                            </g>
                            <polygon id="Rectangle-8" fill="#D8D8D8" points="10.5288032 43.3355217 18.3947561 39.5492208 18.3947561 41.1311897 10.5288032 44.9174905"></polygon>
                            <polygon id="Rectangle-8-Copy" fill="#D8D8D8" points="32.63929 32.7890628 40.5052428 29.0027619 40.5052428 30.5847308 32.63929 34.3710316"></polygon>
                            <polygon id="Rectangle-8-Copy-2" fill="#D8D8D8" points="54.2233366 22.2426039 62.0892894 18.4563031 62.0892894 20.0382719 54.2233366 23.8245727"></polygon>
                            <polygon id="Rectangle-8-Copy-3" fill="#D8D8D8" points="76.3338233 11.696145 84.1997762 7.90984417 84.1997762 9.491813 76.3338233 13.2781138"></polygon>
                            <path d="M5.26440161,80.7508876 L83.1914071,43.2404814" id="Line" stroke="#232425" stroke-width="1.25" opacity="0.100000001" stroke-linecap="square"></path>
                            <path d="M5.26440161,71.7863976 L83.1914071,34.2759914" id="Line" stroke="#232425" stroke-width="1.25" opacity="0.100000001" stroke-linecap="square"></path>
                            <path d="M5.26440161,63.8765534 L83.1914071,26.3661472" id="Line" stroke="#232425" stroke-width="1.25" opacity="0.100000001" stroke-linecap="square"></path>
                            <path d="M5.26440161,89.1880547 L83.1914071,51.6776485" id="Line" stroke="#232425" stroke-width="1.25" opacity="0.100000001" stroke-linecap="square"></path>
                            <path d="M5.26440161,98.1525448 L83.1914071,60.6421386" id="Line" stroke="#232425" stroke-width="1.25" opacity="0.100000001" stroke-linecap="square"></path>
                            <path d="M3.68508113,83.359028 C7.23454823,80.602336 10.2673207,77.1444752 12.7833987,72.9854455 C16.5575156,66.7469009 17.5010448,63.9905546 21.8143213,65.9852658 C26.1275978,67.979977 27.2733118,64.2419361 27.8124714,68.6007988 C28.351631,72.9596615 31.7213782,73.2046314 31.990958,77.2019392 C32.2605378,81.199247 35.7650749,83.4697809 36.1694446,75.1906117 C36.5738142,66.9114425 38.123898,63.6373616 41.0892756,61.0308048 C44.0546531,58.424248 43.3133087,62.3185857 46.0765015,60.3989327 C48.8396942,58.4792798 50.1201982,49.5104999 53.1529707,53.0621086 C56.1857432,56.6137173 56.7922977,52.5877339 60.4990197,51.4913369 C64.2057417,50.3949399 67.3059091,47.5269744 69.2603625,40.6903767 C71.2148159,33.853779 72.6301098,31.9933598 74.2475884,37.5036513 C75.8650671,43.0139428 77.4151509,50.718474 79.2348144,47.28772 C81.0544779,43.8569659 81.5936374,40.7477956 84.8285948,46.1673538" id="Path-4" stroke="url(#linearGradient-12)" stroke-width="2.5" opacity="0.669999957" stroke-linecap="round" stroke-linejoin="round"></path>
                            <path d="M39.3347964,66.134673 C40.7066635,65.4743205 41.8187815,63.5224559 41.8187815,61.7750614 C41.8187815,60.0276669 40.7066635,59.1464452 39.3347964,59.8067977 C37.9629293,60.4671502 36.8508113,62.4190148 36.8508113,64.1664093 C36.8508113,65.9138038 37.9629293,66.7950255 39.3347964,66.134673 Z" id="Oval-7" fill="#48C6FE" opacity="0.5"></path>
                            <path d="M39.5391166,64.5261253 C40.1319641,64.2407563 40.612562,63.3972649 40.612562,62.6421346 C40.612562,61.8870042 40.1319641,61.5061874 39.5391166,61.7915564 C38.9462691,62.0769254 38.4656712,62.9204167 38.4656712,63.6755471 C38.4656712,64.4306775 38.9462691,64.8114943 39.5391166,64.5261253 Z" id="Oval-7" fill="#FEFEFE"></path>
                            <path d="M7.35227573,47.0231191 C7.92388702,46.7479722 8.38726952,45.9346953 8.38726952,45.2066143 C8.38726952,44.4785332 7.92388702,44.1113575 7.35227573,44.3865044 C6.78066444,44.6616513 6.31728193,45.4749282 6.31728193,46.2030092 C6.31728193,46.9310903 6.78066444,47.298266 7.35227573,47.0231191 Z" id="Oval-8" fill="#7CDD6F"></path>
                            <path d="M29.4627625,36.4766602 C30.0343738,36.2015134 30.4977563,35.3882364 30.4977563,34.6601554 C30.4977563,33.9320743 30.0343738,33.5648986 29.4627625,33.8400455 C28.8911512,34.1151924 28.4277687,34.9284693 28.4277687,35.6565504 C28.4277687,36.3846314 28.8911512,36.7518071 29.4627625,36.4766602 Z" id="Oval-8-Copy" fill="#7CDD6F"></path>
                            <path d="M51.5732492,25.9302013 C52.1448605,25.6550545 52.608243,24.8417776 52.608243,24.1136965 C52.608243,23.3856155 52.1448605,23.0184398 51.5732492,23.2935866 C51.001638,23.5687335 50.5382554,24.3820104 50.5382554,25.1100915 C50.5382554,25.8381725 51.001638,26.2053482 51.5732492,25.9302013 Z" id="Oval-8-Copy-2" fill="#7CDD6F"></path>
                            <path d="M73.1572958,15.3837425 C73.7289071,15.1085956 74.1922896,14.2953187 74.1922896,13.5672376 C74.1922896,12.8391566 73.7289071,12.4719809 73.1572958,12.7471277 C72.5856846,13.0222746 72.122302,13.8355515 72.122302,14.5636326 C72.122302,15.2917136 72.5856846,15.6588893 73.1572958,15.3837425 Z" id="Oval-8-Copy-3" fill="#7CDD6F"></path>
                        </g>
                    </g>
                </g>
                <g id="Group-65" transform="translate(348.000000, 89.000000)">
                    <g id="Combined-Shape" opacity="0.959701528">
                        <use fill="#FFFFFF" fill-rule="evenodd" xlink:href="#path-13"></use>
                        <path stroke="#F3F4F6" stroke-width="1.25" d="M27.643759,75.975909 L35.4455994,61.4811374 L50.4380598,54.8853836 C52.89195,53.8058238 54.906309,50.9255961 54.906309,48.5347616 L54.906309,3.14918172 C54.906309,0.979986046 53.2235799,0.0545317605 50.9414237,1.05853912 L5.09324917,21.2288959 C2.63935892,22.3084556 0.625,25.1886834 0.625,27.5795179 L0.625,72.9650977 C0.625,75.1342934 2.3077291,76.0597477 4.58988528,75.0557403 L19.7933307,68.3671661 L27.643759,75.975909 Z"></path>
                    </g>
                    <path d="M27.7656545,35.6498886 C25.7079884,36.5551342 24.0244434,38.9623482 24.0244434,40.999253 C24.0244434,43.0361578 25.7079884,43.9620608 27.7656545,43.0568152 C29.8233206,42.1515696 31.5068655,39.7443556 31.5068655,37.7074508 C31.5068655,35.670546 29.8233206,34.744643 27.7656545,35.6498886 Z" id="Path" fill="#7CDD6F"></path>
                    <path d="M38.9892876,34.4156485 C38.9892876,28.3049341 33.9386527,25.5272251 27.7656545,28.2429619 C21.5926563,30.9586988 16.5420214,38.1803408 16.5420214,44.2910552 C16.5420214,48.3648649 18.786748,50.8956144 22.1538379,51.4512082 L24.0244434,47.4803138 C21.7797168,47.1716423 20.2832324,45.4227516 20.2832324,42.8303273 C20.2832324,38.7565176 23.6503223,33.9420896 27.7656545,32.1315984 C31.8809866,30.3211072 35.2480766,32.1729132 35.2480766,36.2467228 C35.2480766,39.0243203 33.7515922,42.0899319 31.5068655,44.1885116 L33.377471,46.5135048 C36.744561,42.995289 38.9892876,38.4894582 38.9892876,34.4156485 Z" id="Path" fill="#7CDD6F"></path>
                    <path d="M27.7656545,20.8360353 C17.4773241,25.3622634 9.05959928,37.3983333 9.05959928,47.5828575 C9.05959928,54.4342646 12.8008103,58.7139048 18.4126269,59.3929969 L20.2832324,55.4221026 C15.7937792,54.8047596 12.8008103,51.3069782 12.8008103,45.9369563 C12.8008103,37.789337 19.5349902,28.1604811 27.7656545,24.5394986 C35.9963188,20.9185162 42.7304986,24.6221281 42.7304986,32.7697474 C42.7304986,38.3249424 39.7375298,44.2709925 35.2480766,48.8384981 L37.1186821,51.1634914 C42.7304986,45.5466959 46.4717097,37.7900803 46.4717097,31.1238463 C46.4717097,20.9393222 38.0539848,16.3098072 27.7656545,20.8360353 Z" id="Path" fill="#7CDD6F"></path>
                </g>
                <path d="M478,268 L582,307" id="Path-26" stroke="#1F7EC4" stroke-width="3" stroke-linecap="round"></path>
                <polyline id="Path-27" stroke="#1F7EC4" stroke-width="3" stroke-linecap="round" stroke-linejoin="round" points="660 233.070275 630.568578 222 405 329.452048 450.171026 346"></polyline>
                <g id="Group-63" transform="translate(405.000000, 260.000000)">
                    <g id="Group" transform="translate(0.000000, 65.426307)">
                        <g id="Group-684">
                            <path d="M50.7822303,6.14283269 L1.98615183,24.3869973 C-0.920974048,25.7204506 0.0729059782,33.632777 2.97467113,34.9764712 L101.494771,80.6043997 C104.877394,82.1712343 108.774647,82.1782412 112.162631,80.6243422 L157.653817,59.6739248 C160.66655,58.2908847 161.9156,51.370833 158.902868,49.9770131 L57.3973756,6.15522939 C55.295968,5.18397515 52.8836379,5.17912427 50.7822303,6.14283269" id="Fill-681" fill="#EBF1F9"></path>
                            <path d="M106.608911,79.4126998 C106.356956,77.3812586 109.058766,77.0540936 110.650904,76.1108666 L1.98615183,24.3869973 C1.71329049,24.5120422 1.47527391,24.6947587 1.26942174,24.9249061 C1.13272303,25.0779784 1.00996223,25.2520711 0.901675407,25.4439504 C0.792852513,25.6352907 0.6985036,25.8449566 0.617556521,26.0686361 C0.576814945,26.1807454 0.539825883,26.2966275 0.506053261,26.4152046 C0.337190149,27.0091681 0.250882337,27.6834406 0.240696943,28.3878964 C0.236408356,28.6697865 0.244449456,28.9565275 0.263748098,29.2448854 C0.283582812,29.5332433 0.314675068,29.8226793 0.357024864,30.1110372 C0.50444504,31.1200205 0.788563926,32.1101393 1.18740251,32.9423349 C1.30105007,33.1805671 1.42434694,33.4053246 1.55675706,33.6149905 C1.68916719,33.8235784 1.83015448,34.0165356 1.97971895,34.1906284 C2.1298195,34.3641821 2.28742507,34.5188714 2.45360781,34.6509231 C2.61979056,34.7829749 2.79347833,34.8929282 2.97467113,34.9764712 L101.494771,80.6043997 C104.207302,81.8607779 107.252199,82.1114068 110.098749,81.3611372 C108.410117,81.3832356 106.81798,81.0937997 106.608911,79.4126998" id="Fill-682" fill="#EBF1F9"></path>
                            <path d="M50.7822303,1.06018706 L2.98753689,23.0670186 C0.0804110054,24.4004719 0.0729059782,28.5495924 2.97467113,29.8938255 L101.494771,75.5212151 C104.877394,77.0880497 108.774647,77.0955955 112.162631,75.5411576 L157.653817,54.5907402 C160.66655,53.2077001 160.677271,48.9033514 157.664539,47.5089925 L57.3973756,1.07258375 C55.295968,0.100790534 52.8836379,0.0964786393 50.7822303,1.06018706" id="Fill-683" fill="#FFFFFE"></path>
                            <ellipse id="Oval-11" fill="#EBF1F9" cx="130.368047" cy="61.5083979" rx="4.59490758" ry="2.30085686"></ellipse>
                        </g>
                        <path d="M60.9837065,6.10833753 L11.0216685,29.1112167 C10.5960262,29.3063299 10.594418,29.913768 11.0195242,30.1104982 L98.9001759,70.7042899 C99.3504775,70.9112609 99.865108,70.9123388 100.310049,70.7069849 L149.934361,47.8604119 C150.427548,47.6356544 150.427548,46.9360495 149.939721,46.7096751 L62.0451318,6.11049348 C61.7074055,5.95472629 61.3214327,5.95418731 60.9837065,6.10833753" id="Fill-687" fill="url(#linearGradient-6)"></path>
                        <path d="M37.7931725,12.0253348 L27.5327282,16.7495542 C27.3129382,16.8487277 27.2218057,17.1047465 27.3182989,17.3219581 C27.4201528,17.5386308 27.6721073,17.6340315 27.8865367,17.5348579 L38.146981,12.8106385 C38.366771,12.711465 38.4579035,12.4554462 38.3614103,12.2382345 C38.2595564,12.0215618 38.0076019,11.9261612 37.7931725,12.0253348" id="Fill-689" fill="#91A7C3"></path>
                        <path d="M25.3777133,18.5055732 C25.3080238,18.3627417 25.1740054,18.2398527 24.9971012,18.1509199 C24.8041148,18.0539022 24.5521603,17.9962306 24.2787629,17.9962306 C23.8541928,17.9962306 23.490735,18.1347503 23.2945322,18.3449551 C23.1953586,18.4511355 23.1379988,18.5751025 23.1379988,18.7093102 C23.1379988,18.758897 23.1455038,18.8079448 23.1605138,18.8548366 C23.2655842,19.1825406 23.7196384,19.4223898 24.2787629,19.4223898 C24.9220509,19.4223898 25.4205992,19.1092384 25.4205992,18.7093102 C25.4205992,18.6381639 25.404517,18.5697126 25.3777133,18.5055732" id="Fill-696" fill="#91A7C3"></path>
                        <path d="M31.4407031,12.9771855 C31.3978172,12.8839407 31.3120455,12.8030927 31.1941094,12.7443432 C31.0654517,12.6807427 30.899269,12.6430136 30.7223648,12.6430136 C30.4436066,12.6430136 30.2023736,12.7341024 30.073716,12.872083 C30.0093872,12.9416123 29.9718621,13.0229993 29.9718621,13.1108542 L29.9879443,13.2067938 C30.0576338,13.4218496 30.3524742,13.5792337 30.7223648,13.5792337 C31.140502,13.5792337 31.4728675,13.3733408 31.4728675,13.1108542 L31.4407031,12.9771855" id="Fill-697" fill="#91A7C3"></path>
                        <path d="M131.086021,69.2382458 L131.086021,70.5339701 C131.086021,70.74148 131.29509,70.8794606 131.488076,70.7932228 L137.701166,67.8988636 C137.79766,67.8525107 137.861988,67.7511812 137.861988,67.6396109 L137.861988,66.3719139 C137.861988,66.166021 137.65292,66.0280404 137.465294,66.1110443 L131.337975,68.8442464 C131.182514,68.9126978 131.086021,69.067387 131.086021,69.2382458" id="Fill-698" fill="#91A7C3"></path>
                        <path d="M148.460159,62.0001919 C148.460159,62.5208532 148.165319,63.0539111 147.800789,63.1902748 C147.436259,63.3271774 147.141418,63.0161821 147.141418,62.4955208 C147.141418,61.9748595 147.436259,61.4423406 147.800789,61.3054379 C148.165319,61.1690742 148.460159,61.4800696 148.460159,62.0001919" id="Fill-702" fill="#91A7C3"></path>
                        <path d="M150.990425,60.8575399 C150.990425,61.3782011 150.690224,61.9107201 150.325694,62.0476228 C149.961164,62.1839864 149.666324,61.872991 149.666324,61.3528688 C149.666324,60.8322075 149.961164,60.2991495 150.325694,60.1627859 C150.690224,60.0258832 150.990425,60.3368786 150.990425,60.8575399" id="Fill-703" fill="#91A7C3"></path>
                        <path d="M153.515331,59.7148878 C153.515331,60.2350101 153.22049,60.7680681 152.855961,60.9044317 C152.48607,61.0413344 152.19123,60.730339 152.19123,60.2096777 C152.19123,59.6890165 152.48607,59.1564975 152.855961,59.0195948 C153.22049,58.8832312 153.515331,59.1942266 153.515331,59.7148878" id="Fill-704" fill="#91A7C3"></path>
                        <path d="M156.040236,58.5716968 C156.040236,59.0923581 155.745396,59.624877 155.380866,59.7617797 C155.016336,59.8986823 154.721496,59.587148 154.721496,59.0670257 C154.721496,58.5463644 155.016336,58.0133065 155.380866,57.8769428 C155.745396,57.7400402 156.040236,58.0510355 156.040236,58.5716968" id="Fill-705" fill="#91A7C3"></path>
                        <path d="M106.850144,81.7847808 C105.022134,81.7847808 103.194124,81.3907814 101.494771,80.6043997 L2.97467113,34.9764712 C2.96984647,34.9743152 2.96448573,34.9716203 2.959125,34.9694643 C2.96448573,34.9716203 2.96984647,34.9743152 2.97467113,34.9764712 L101.494771,80.6043997 C101.510853,80.6103285 101.521575,80.6167964 101.537657,80.6227252 C103.226288,81.3972493 105.038216,81.7842418 106.850144,81.7847808 M2.95322819,34.9662304 C2.95001175,34.9651524 2.94679531,34.9635355 2.94357887,34.9619185 C2.94679531,34.9635355 2.95001175,34.9651524 2.95322819,34.9662304 M2.93660992,34.9586846 C2.93339348,34.9570676 2.93071311,34.9554507 2.92803274,34.9543727 C2.93071311,34.9554507 2.93339348,34.9570676 2.93660992,34.9586846 M2.92052772,34.9505998 C2.91784735,34.9489828 2.91463091,34.9479049 2.91195054,34.9462879 C2.91516698,34.9479049 2.91784735,34.9489828 2.92052772,34.9505998 M2.90444551,34.942515 C2.90176515,34.941437 2.89908478,34.9398201 2.89640441,34.9387421 C2.89908478,34.9398201 2.90176515,34.941437 2.90444551,34.942515 M2.88889939,34.9349692 C2.88568295,34.9328132 2.88246651,34.9311963 2.87925007,34.9295793 C2.88246651,34.9311963 2.88568295,34.9328132 2.88889939,34.9349692 M2.86745645,34.9231115 C2.86424001,34.9220335 2.86155965,34.9204165 2.85887928,34.9187996 C2.86155965,34.9204165 2.86424001,34.9220335 2.86745645,34.9231115 M2.85083818,34.9144877 C2.84815781,34.9134097 2.84601352,34.9117927 2.84333315,34.9107148 C2.84601352,34.9117927 2.84815781,34.9134097 2.85083818,34.9144877 M2.83529205,34.9064029 C2.83261168,34.9047859 2.83046739,34.9037079 2.82778702,34.902091 C2.83046739,34.9037079 2.83261168,34.9047859 2.83529205,34.9064029 M2.81974592,34.8977791 C2.81760163,34.8961621 2.81492126,34.8950841 2.8122409,34.8934672 C2.81492126,34.8950841 2.81706556,34.8961621 2.81974592,34.8977791 M2.80419979,34.8891553 C2.8020555,34.8875383 2.79937513,34.8859214 2.79669477,34.8848434 C2.79937513,34.8859214 2.8020555,34.8875383 2.80419979,34.8891553 M2.78918974,34.8805315 C2.78650937,34.8789145 2.78436508,34.8778366 2.78222079,34.8762196 C2.78436508,34.8778366 2.78650937,34.8789145 2.78918974,34.8805315 M2.76613859,34.8670568 C2.76399429,34.8654399 2.76185,34.8643619 2.7597057,34.8632839 C2.76185,34.8643619 2.76399429,34.8654399 2.76613859,34.8670568 M2.75059246,34.8578941 C2.74898424,34.8562771 2.74683994,34.8551991 2.74469565,34.8541212 C2.74683994,34.8551991 2.74844816,34.8562771 2.75059246,34.8578941 M2.73504633,34.8481923 C2.73343811,34.8471143 2.73182989,34.8465753 2.73022167,34.8454974 C2.73182989,34.8460363 2.73343811,34.8476533 2.73504633,34.8481923 M2.72003628,34.8390295 C2.71896413,34.8379515 2.71735591,34.8374126 2.71628376,34.8368736 C2.71735591,34.8374126 2.71896413,34.8384905 2.72003628,34.8390295" id="Fill-706" fill="#746C68"></path>
                        <path d="M106.844783,81.7826249 C105.032855,81.7826249 103.220927,81.3961713 101.537657,80.6227252 C101.521575,80.6167964 101.510853,80.6103285 101.494771,80.6043997 L2.97467113,34.9764712 C2.96984647,34.9743152 2.96448573,34.9716203 2.959125,34.9694643 C2.9569807,34.9683864 2.95483641,34.9673084 2.95322819,34.9662304 C2.95001175,34.9651524 2.94679531,34.9635355 2.94357887,34.9619185 C2.9408985,34.9608405 2.93875421,34.9597626 2.93660992,34.9586846 C2.93339348,34.9570676 2.93071311,34.9554507 2.92803274,34.9543727 C2.92535238,34.9532947 2.92267201,34.9516778 2.92052772,34.9505998 C2.91784735,34.9489828 2.91516698,34.9479049 2.91195054,34.9462879 C2.90927017,34.9452099 2.90712588,34.9441319 2.90444551,34.942515 C2.90176515,34.941437 2.89908478,34.9398201 2.89640441,34.9387421 C2.89372405,34.9371251 2.89157975,34.9360471 2.88889939,34.9349692 C2.88568295,34.9328132 2.88246651,34.9311963 2.87925007,34.9295793 C2.87549755,34.9274234 2.87120897,34.9252674 2.86745645,34.9231115 C2.86424001,34.9220335 2.86155965,34.9204165 2.85887928,34.9187996 C2.85619891,34.9177216 2.85351854,34.9161046 2.85083818,34.9144877 C2.84815781,34.9134097 2.84601352,34.9117927 2.84333315,34.9107148 C2.84065278,34.9090978 2.83797242,34.9074808 2.83529205,34.9064029 C2.83261168,34.9047859 2.83046739,34.9037079 2.82778702,34.902091 C2.82510666,34.900474 2.82242629,34.899396 2.81974592,34.8977791 C2.81706556,34.8961621 2.81492126,34.8950841 2.8122409,34.8934672 C2.80956053,34.8918502 2.80688016,34.8907723 2.80419979,34.8891553 C2.8020555,34.8875383 2.79937513,34.8859214 2.79669477,34.8848434 C2.7940144,34.8832264 2.79187011,34.8816095 2.78918974,34.8805315 C2.78650937,34.8789145 2.78436508,34.8778366 2.78222079,34.8762196 C2.77686005,34.8729857 2.77149932,34.8697518 2.76613859,34.8670568 C2.76399429,34.8654399 2.76185,34.8643619 2.7597057,34.8632839 C2.75648926,34.861128 2.7538089,34.859511 2.75059246,34.8578941 C2.74898424,34.8568161 2.74683994,34.8551991 2.74469565,34.8541212 C2.74147921,34.8525042 2.73826277,34.8503482 2.7355824,34.8481923 C2.73343811,34.8476533 2.73182989,34.8465753 2.73022167,34.8454974 C2.72700523,34.8433414 2.72325272,34.8411855 2.72003628,34.8390295 C2.71842806,34.8379515 2.71735591,34.8374126 2.71628376,34.8368736 C2.71253125,34.8341786 2.70824266,34.8320227 2.70449015,34.8293278 C2.70449015,34.8293278 2.70449015,34.8293278 2.70395407,34.8293278 C1.60446759,34.1372687 0.815367595,32.4815012 0.456734511,30.6785903 C0.922582269,31.7037432 1.55514884,32.5154574 2.32119769,32.8706497 L8.84467452,35.8916708 L8.84467452,36.2856701 C8.84467452,36.6128351 9.03390842,36.9103558 9.32982092,37.0472585 L12.0573622,38.3111826 C12.1002481,38.3305861 12.14367,38.3397489 12.1865559,38.3397489 C12.3484501,38.3397489 12.494262,38.2082361 12.494262,38.0298314 L12.494262,37.5819334 L20.4265397,41.2551285 L20.4265397,41.7466845 C20.4265397,42.0851682 20.6222064,42.3929297 20.9283043,42.5346832 L28.5405462,46.059118 C28.6263179,46.099542 28.7174504,46.1184065 28.8032221,46.1184065 C29.1355876,46.1184065 29.4411494,45.8478351 29.4411494,45.4791682 L29.4411494,45.4290424 L30.658036,45.9933616 L30.658036,46.5366603 C30.658036,46.875683 30.8510224,47.1829055 31.1565842,47.324659 L38.7688261,50.8490938 C38.8545978,50.8895178 38.9457303,50.9083823 39.0368627,50.9083823 C39.3692282,50.9083823 39.6694293,50.6378109 39.6694293,50.2696829 L39.6694293,50.1672755 L101.569821,78.833289 C103.215567,79.5981113 104.989969,79.9937276 106.764372,80.020677 C107.230756,81.122366 108.533414,81.3622151 109.927205,81.3622151 C109.986173,81.3622151 110.039781,81.3622151 110.098749,81.3611372 C109.031963,81.6419493 107.938373,81.7826249 106.844783,81.7826249" id="Fill-708" fill="#D5E3F4"></path>
                        <path d="M20.4265397,40.5576796 L20.4265397,41.7466845 C20.4265397,42.0851682 20.6222064,42.3929297 20.9283043,42.5346832 L28.5405462,46.059118 C28.9586834,46.2536922 29.4411494,45.9448528 29.4411494,45.4791682 L29.4411494,44.1435588 C29.4411494,43.8945469 29.2964096,43.6681725 29.0712588,43.563609 L21.3271429,39.9777298 C20.9063253,39.7831555 20.4265397,40.091995 20.4265397,40.5576796" id="Fill-717" fill="#91A7C3"></path>
                        <path d="M30.658036,45.3476554 L30.658036,46.5366603 C30.658036,46.875683 30.8510224,47.1829055 31.1565842,47.324659 L38.7688261,50.8490938 C39.1869633,51.044207 39.6694293,50.7348286 39.6694293,50.2696829 L39.6694293,48.9335346 C39.6694293,48.6845227 39.5246895,48.4581483 39.2995387,48.3535848 L31.5586392,44.7682446 C31.1351413,44.5731313 30.658036,44.8819708 30.658036,45.3476554" id="Fill-720" fill="#91A7C3"></path>
                        <path d="M8.84467452,35.1160687 L8.84467452,36.2856701 C8.84467452,36.6128351 9.03390842,36.9103558 9.32982092,37.0472585 L12.0573622,38.3111826 C12.2616062,38.4055053 12.494262,38.2556669 12.494262,38.0298314 L12.494262,36.5212074 C12.494262,36.3999353 12.4245725,36.290521 12.3152135,36.2398562 L9.28103824,34.8347176 C9.07733036,34.7398559 8.84467452,34.8902333 8.84467452,35.1160687" id="Fill-723" fill="#91A7C3"></path>
                    </g>
                    <g id="Group-40-Copy-2" transform="translate(34.500000, 0.094526)">
                        <g id="Combined-Shape" opacity="0.959701528">
                            <use fill="black" fill-opacity="1" filter="url(#filter-15)" xlink:href="#path-14"></use>
                            <use fill="#FFFFFF" fill-rule="evenodd" xlink:href="#path-14"></use>
                            <path stroke="#F3F4F6" stroke-width="1.25" d="M17.1347667,87.3098652 L22.8011106,75.4408251 L90.3760363,42.7913949 C90.8561927,42.559403 91.3019073,41.7742001 91.3019073,41.1010255 L91.3019073,1.25558214 C91.3019073,0.779574687 91.1743604,0.678129729 90.9198381,0.801104489 L2.24457567,43.6453512 C1.76441927,43.8773431 1.31870468,44.662546 1.31870468,45.3357206 L1.31870468,85.181164 C1.31870468,85.6571714 1.44625158,85.7586164 1.70077395,85.6356416 L12.5797184,80.3793822 L16.4690886,87.3313967 C16.5702073,87.5121402 16.7987018,87.5766889 16.9794453,87.4755702 C17.0471031,87.4377185 17.1013663,87.3798276 17.1347667,87.3098652 Z"></path>
                        </g>
                        <g id="Group-29" transform="translate(9.257172, 23.854885)">
                            <polygon id="Rectangle-6" fill="#7CDD6F" points="27.2271968 15.0513096 57.8375087 0.438574252 57.8375087 5.00932964 27.2271968 19.622065"></polygon>
                            <polygon id="Rectangle-6-Copy" fill="#C6E0FD" points="27.2271968 23.3358038 71.4538803 2.22289175 71.4538803 4.50826944 27.2271968 25.6211815"></polygon>
                            <polygon id="Rectangle-6-Copy-2" fill="#C6E0FD" points="27.2271968 27.3352147 59.7863525 11.7921413 59.7863525 14.077519 27.2271968 29.6205924"></polygon>
                            <polygon id="Rectangle-6-Copy-3" fill="#C6E0FD" points="27.2271968 31.3346257 59.7863525 15.7915522 59.7863525 18.0769299 27.2271968 33.6200034"></polygon>
                            <path d="M11.4361628,45.9356411 C17.4738802,43.0533587 22.3684171,34.9613158 22.3684171,27.8615576 C22.3684171,20.7617993 17.4738802,17.3428596 11.4361628,20.2251421 C5.39844553,23.1074246 0.503908579,31.1994674 0.503908579,38.2992257 C0.503908579,45.3989839 5.39844553,48.8179236 11.4361628,45.9356411 Z" id="Oval-6" fill="url(#linearGradient-6)"></path>
                            <path d="M11.3208791,34.9113813 C12.8570008,34.1780683 14.2558942,30.9514041 14.2558942,28.141596 C14.2558942,25.7046036 13.1862443,24.8174611 11.3208791,25.7079482 C9.45551393,26.5984353 8.38586398,28.5068357 8.38586398,30.9438281 C8.38586398,33.7536362 9.78475741,35.6446943 11.3208791,34.9113813 Z" id="Shape" fill="#FEFEFE" fill-rule="nonzero"></path>
                            <path d="M17.0456587,34.1422715 C16.2098316,33.9482703 14.4582798,33.563053 13.4025223,33.4801777 C12.88369,34.4558994 12.1279776,35.2539104 11.3208791,35.6783341 C10.5113182,36.0252608 9.75359493,35.9472998 9.23440946,35.4636603 C8.17278189,36.5548775 6.42533911,38.616272 5.59316449,39.6087671 C5.30187502,39.9564787 5.12429599,40.4135254 5.12473608,40.8143916 L5.12473608,41.5006609 C5.12429342,42.0646832 5.47183777,42.3796465 5.94510542,42.2441235 C7.72231566,41.74881 9.51894036,41.0924018 11.3208791,40.2800506 C13.1228178,39.3719846 14.9194425,38.3130491 16.6966528,37.1115552 C17.1699692,36.7951891 17.5175288,36.1483113 17.5170221,35.5846842 L17.5170221,34.9012526 C17.5174598,34.4985567 17.3386103,34.2105764 17.0456587,34.1422715 Z" id="Shape" fill="#FEFEFE" fill-rule="nonzero"></path>
                        </g>
                    </g>
                </g>
                <g id="Group-63-Copy-2" transform="translate(613.000000, 149.000000)">
                    <g id="Group" transform="translate(0.000000, 65.426307)">
                        <g id="Group-684">
                            <path d="M50.7822303,6.14283269 L1.98615183,24.3869973 C-0.920974048,25.7204506 0.0729059782,33.632777 2.97467113,34.9764712 L101.494771,80.6043997 C104.877394,82.1712343 108.774647,82.1782412 112.162631,80.6243422 L157.653817,59.6739248 C160.66655,58.2908847 161.9156,51.370833 158.902868,49.9770131 L57.3973756,6.15522939 C55.295968,5.18397515 52.8836379,5.17912427 50.7822303,6.14283269" id="Fill-681" fill="#EBF1F9"></path>
                            <path d="M106.608911,79.4126998 C106.356956,77.3812586 109.058766,77.0540936 110.650904,76.1108666 L1.98615183,24.3869973 C1.71329049,24.5120422 1.47527391,24.6947587 1.26942174,24.9249061 C1.13272303,25.0779784 1.00996223,25.2520711 0.901675407,25.4439504 C0.792852513,25.6352907 0.6985036,25.8449566 0.617556521,26.0686361 C0.576814945,26.1807454 0.539825883,26.2966275 0.506053261,26.4152046 C0.337190149,27.0091681 0.250882337,27.6834406 0.240696943,28.3878964 C0.236408356,28.6697865 0.244449456,28.9565275 0.263748098,29.2448854 C0.283582812,29.5332433 0.314675068,29.8226793 0.357024864,30.1110372 C0.50444504,31.1200205 0.788563926,32.1101393 1.18740251,32.9423349 C1.30105007,33.1805671 1.42434694,33.4053246 1.55675706,33.6149905 C1.68916719,33.8235784 1.83015448,34.0165356 1.97971895,34.1906284 C2.1298195,34.3641821 2.28742507,34.5188714 2.45360781,34.6509231 C2.61979056,34.7829749 2.79347833,34.8929282 2.97467113,34.9764712 L101.494771,80.6043997 C104.207302,81.8607779 107.252199,82.1114068 110.098749,81.3611372 C108.410117,81.3832356 106.81798,81.0937997 106.608911,79.4126998" id="Fill-682" fill="#EBF1F9"></path>
                            <path d="M50.7822303,1.06018706 L2.98753689,23.0670186 C0.0804110054,24.4004719 0.0729059782,28.5495924 2.97467113,29.8938255 L101.494771,75.5212151 C104.877394,77.0880497 108.774647,77.0955955 112.162631,75.5411576 L157.653817,54.5907402 C160.66655,53.2077001 160.677271,48.9033514 157.664539,47.5089925 L57.3973756,1.07258375 C55.295968,0.100790534 52.8836379,0.0964786393 50.7822303,1.06018706" id="Fill-683" fill="#FFFFFE"></path>
                            <ellipse id="Oval-11" fill="#EBF1F9" cx="130.368047" cy="61.5083979" rx="4.59490758" ry="2.30085686"></ellipse>
                        </g>
                        <path d="M60.9837065,6.10833753 L11.0216685,29.1112167 C10.5960262,29.3063299 10.594418,29.913768 11.0195242,30.1104982 L98.9001759,70.7042899 C99.3504775,70.9112609 99.865108,70.9123388 100.310049,70.7069849 L149.934361,47.8604119 C150.427548,47.6356544 150.427548,46.9360495 149.939721,46.7096751 L62.0451318,6.11049348 C61.7074055,5.95472629 61.3214327,5.95418731 60.9837065,6.10833753" id="Fill-687" fill="url(#linearGradient-6)"></path>
                        <path d="M37.7931725,12.0253348 L27.5327282,16.7495542 C27.3129382,16.8487277 27.2218057,17.1047465 27.3182989,17.3219581 C27.4201528,17.5386308 27.6721073,17.6340315 27.8865367,17.5348579 L38.146981,12.8106385 C38.366771,12.711465 38.4579035,12.4554462 38.3614103,12.2382345 C38.2595564,12.0215618 38.0076019,11.9261612 37.7931725,12.0253348" id="Fill-689" fill="#91A7C3"></path>
                        <path d="M25.3777133,18.5055732 C25.3080238,18.3627417 25.1740054,18.2398527 24.9971012,18.1509199 C24.8041148,18.0539022 24.5521603,17.9962306 24.2787629,17.9962306 C23.8541928,17.9962306 23.490735,18.1347503 23.2945322,18.3449551 C23.1953586,18.4511355 23.1379988,18.5751025 23.1379988,18.7093102 C23.1379988,18.758897 23.1455038,18.8079448 23.1605138,18.8548366 C23.2655842,19.1825406 23.7196384,19.4223898 24.2787629,19.4223898 C24.9220509,19.4223898 25.4205992,19.1092384 25.4205992,18.7093102 C25.4205992,18.6381639 25.404517,18.5697126 25.3777133,18.5055732" id="Fill-696" fill="#91A7C3"></path>
                        <path d="M31.4407031,12.9771855 C31.3978172,12.8839407 31.3120455,12.8030927 31.1941094,12.7443432 C31.0654517,12.6807427 30.899269,12.6430136 30.7223648,12.6430136 C30.4436066,12.6430136 30.2023736,12.7341024 30.073716,12.872083 C30.0093872,12.9416123 29.9718621,13.0229993 29.9718621,13.1108542 L29.9879443,13.2067938 C30.0576338,13.4218496 30.3524742,13.5792337 30.7223648,13.5792337 C31.140502,13.5792337 31.4728675,13.3733408 31.4728675,13.1108542 L31.4407031,12.9771855" id="Fill-697" fill="#91A7C3"></path>
                        <path d="M131.086021,69.2382458 L131.086021,70.5339701 C131.086021,70.74148 131.29509,70.8794606 131.488076,70.7932228 L137.701166,67.8988636 C137.79766,67.8525107 137.861988,67.7511812 137.861988,67.6396109 L137.861988,66.3719139 C137.861988,66.166021 137.65292,66.0280404 137.465294,66.1110443 L131.337975,68.8442464 C131.182514,68.9126978 131.086021,69.067387 131.086021,69.2382458" id="Fill-698" fill="#91A7C3"></path>
                        <path d="M148.460159,62.0001919 C148.460159,62.5208532 148.165319,63.0539111 147.800789,63.1902748 C147.436259,63.3271774 147.141418,63.0161821 147.141418,62.4955208 C147.141418,61.9748595 147.436259,61.4423406 147.800789,61.3054379 C148.165319,61.1690742 148.460159,61.4800696 148.460159,62.0001919" id="Fill-702" fill="#91A7C3"></path>
                        <path d="M150.990425,60.8575399 C150.990425,61.3782011 150.690224,61.9107201 150.325694,62.0476228 C149.961164,62.1839864 149.666324,61.872991 149.666324,61.3528688 C149.666324,60.8322075 149.961164,60.2991495 150.325694,60.1627859 C150.690224,60.0258832 150.990425,60.3368786 150.990425,60.8575399" id="Fill-703" fill="#91A7C3"></path>
                        <path d="M153.515331,59.7148878 C153.515331,60.2350101 153.22049,60.7680681 152.855961,60.9044317 C152.48607,61.0413344 152.19123,60.730339 152.19123,60.2096777 C152.19123,59.6890165 152.48607,59.1564975 152.855961,59.0195948 C153.22049,58.8832312 153.515331,59.1942266 153.515331,59.7148878" id="Fill-704" fill="#91A7C3"></path>
                        <path d="M156.040236,58.5716968 C156.040236,59.0923581 155.745396,59.624877 155.380866,59.7617797 C155.016336,59.8986823 154.721496,59.587148 154.721496,59.0670257 C154.721496,58.5463644 155.016336,58.0133065 155.380866,57.8769428 C155.745396,57.7400402 156.040236,58.0510355 156.040236,58.5716968" id="Fill-705" fill="#91A7C3"></path>
                        <path d="M106.850144,81.7847808 C105.022134,81.7847808 103.194124,81.3907814 101.494771,80.6043997 L2.97467113,34.9764712 C2.96984647,34.9743152 2.96448573,34.9716203 2.959125,34.9694643 C2.96448573,34.9716203 2.96984647,34.9743152 2.97467113,34.9764712 L101.494771,80.6043997 C101.510853,80.6103285 101.521575,80.6167964 101.537657,80.6227252 C103.226288,81.3972493 105.038216,81.7842418 106.850144,81.7847808 M2.95322819,34.9662304 C2.95001175,34.9651524 2.94679531,34.9635355 2.94357887,34.9619185 C2.94679531,34.9635355 2.95001175,34.9651524 2.95322819,34.9662304 M2.93660992,34.9586846 C2.93339348,34.9570676 2.93071311,34.9554507 2.92803274,34.9543727 C2.93071311,34.9554507 2.93339348,34.9570676 2.93660992,34.9586846 M2.92052772,34.9505998 C2.91784735,34.9489828 2.91463091,34.9479049 2.91195054,34.9462879 C2.91516698,34.9479049 2.91784735,34.9489828 2.92052772,34.9505998 M2.90444551,34.942515 C2.90176515,34.941437 2.89908478,34.9398201 2.89640441,34.9387421 C2.89908478,34.9398201 2.90176515,34.941437 2.90444551,34.942515 M2.88889939,34.9349692 C2.88568295,34.9328132 2.88246651,34.9311963 2.87925007,34.9295793 C2.88246651,34.9311963 2.88568295,34.9328132 2.88889939,34.9349692 M2.86745645,34.9231115 C2.86424001,34.9220335 2.86155965,34.9204165 2.85887928,34.9187996 C2.86155965,34.9204165 2.86424001,34.9220335 2.86745645,34.9231115 M2.85083818,34.9144877 C2.84815781,34.9134097 2.84601352,34.9117927 2.84333315,34.9107148 C2.84601352,34.9117927 2.84815781,34.9134097 2.85083818,34.9144877 M2.83529205,34.9064029 C2.83261168,34.9047859 2.83046739,34.9037079 2.82778702,34.902091 C2.83046739,34.9037079 2.83261168,34.9047859 2.83529205,34.9064029 M2.81974592,34.8977791 C2.81760163,34.8961621 2.81492126,34.8950841 2.8122409,34.8934672 C2.81492126,34.8950841 2.81706556,34.8961621 2.81974592,34.8977791 M2.80419979,34.8891553 C2.8020555,34.8875383 2.79937513,34.8859214 2.79669477,34.8848434 C2.79937513,34.8859214 2.8020555,34.8875383 2.80419979,34.8891553 M2.78918974,34.8805315 C2.78650937,34.8789145 2.78436508,34.8778366 2.78222079,34.8762196 C2.78436508,34.8778366 2.78650937,34.8789145 2.78918974,34.8805315 M2.76613859,34.8670568 C2.76399429,34.8654399 2.76185,34.8643619 2.7597057,34.8632839 C2.76185,34.8643619 2.76399429,34.8654399 2.76613859,34.8670568 M2.75059246,34.8578941 C2.74898424,34.8562771 2.74683994,34.8551991 2.74469565,34.8541212 C2.74683994,34.8551991 2.74844816,34.8562771 2.75059246,34.8578941 M2.73504633,34.8481923 C2.73343811,34.8471143 2.73182989,34.8465753 2.73022167,34.8454974 C2.73182989,34.8460363 2.73343811,34.8476533 2.73504633,34.8481923 M2.72003628,34.8390295 C2.71896413,34.8379515 2.71735591,34.8374126 2.71628376,34.8368736 C2.71735591,34.8374126 2.71896413,34.8384905 2.72003628,34.8390295" id="Fill-706" fill="#746C68"></path>
                        <path d="M106.844783,81.7826249 C105.032855,81.7826249 103.220927,81.3961713 101.537657,80.6227252 C101.521575,80.6167964 101.510853,80.6103285 101.494771,80.6043997 L2.97467113,34.9764712 C2.96984647,34.9743152 2.96448573,34.9716203 2.959125,34.9694643 C2.9569807,34.9683864 2.95483641,34.9673084 2.95322819,34.9662304 C2.95001175,34.9651524 2.94679531,34.9635355 2.94357887,34.9619185 C2.9408985,34.9608405 2.93875421,34.9597626 2.93660992,34.9586846 C2.93339348,34.9570676 2.93071311,34.9554507 2.92803274,34.9543727 C2.92535238,34.9532947 2.92267201,34.9516778 2.92052772,34.9505998 C2.91784735,34.9489828 2.91516698,34.9479049 2.91195054,34.9462879 C2.90927017,34.9452099 2.90712588,34.9441319 2.90444551,34.942515 C2.90176515,34.941437 2.89908478,34.9398201 2.89640441,34.9387421 C2.89372405,34.9371251 2.89157975,34.9360471 2.88889939,34.9349692 C2.88568295,34.9328132 2.88246651,34.9311963 2.87925007,34.9295793 C2.87549755,34.9274234 2.87120897,34.9252674 2.86745645,34.9231115 C2.86424001,34.9220335 2.86155965,34.9204165 2.85887928,34.9187996 C2.85619891,34.9177216 2.85351854,34.9161046 2.85083818,34.9144877 C2.84815781,34.9134097 2.84601352,34.9117927 2.84333315,34.9107148 C2.84065278,34.9090978 2.83797242,34.9074808 2.83529205,34.9064029 C2.83261168,34.9047859 2.83046739,34.9037079 2.82778702,34.902091 C2.82510666,34.900474 2.82242629,34.899396 2.81974592,34.8977791 C2.81706556,34.8961621 2.81492126,34.8950841 2.8122409,34.8934672 C2.80956053,34.8918502 2.80688016,34.8907723 2.80419979,34.8891553 C2.8020555,34.8875383 2.79937513,34.8859214 2.79669477,34.8848434 C2.7940144,34.8832264 2.79187011,34.8816095 2.78918974,34.8805315 C2.78650937,34.8789145 2.78436508,34.8778366 2.78222079,34.8762196 C2.77686005,34.8729857 2.77149932,34.8697518 2.76613859,34.8670568 C2.76399429,34.8654399 2.76185,34.8643619 2.7597057,34.8632839 C2.75648926,34.861128 2.7538089,34.859511 2.75059246,34.8578941 C2.74898424,34.8568161 2.74683994,34.8551991 2.74469565,34.8541212 C2.74147921,34.8525042 2.73826277,34.8503482 2.7355824,34.8481923 C2.73343811,34.8476533 2.73182989,34.8465753 2.73022167,34.8454974 C2.72700523,34.8433414 2.72325272,34.8411855 2.72003628,34.8390295 C2.71842806,34.8379515 2.71735591,34.8374126 2.71628376,34.8368736 C2.71253125,34.8341786 2.70824266,34.8320227 2.70449015,34.8293278 C2.70449015,34.8293278 2.70449015,34.8293278 2.70395407,34.8293278 C1.60446759,34.1372687 0.815367595,32.4815012 0.456734511,30.6785903 C0.922582269,31.7037432 1.55514884,32.5154574 2.32119769,32.8706497 L8.84467452,35.8916708 L8.84467452,36.2856701 C8.84467452,36.6128351 9.03390842,36.9103558 9.32982092,37.0472585 L12.0573622,38.3111826 C12.1002481,38.3305861 12.14367,38.3397489 12.1865559,38.3397489 C12.3484501,38.3397489 12.494262,38.2082361 12.494262,38.0298314 L12.494262,37.5819334 L20.4265397,41.2551285 L20.4265397,41.7466845 C20.4265397,42.0851682 20.6222064,42.3929297 20.9283043,42.5346832 L28.5405462,46.059118 C28.6263179,46.099542 28.7174504,46.1184065 28.8032221,46.1184065 C29.1355876,46.1184065 29.4411494,45.8478351 29.4411494,45.4791682 L29.4411494,45.4290424 L30.658036,45.9933616 L30.658036,46.5366603 C30.658036,46.875683 30.8510224,47.1829055 31.1565842,47.324659 L38.7688261,50.8490938 C38.8545978,50.8895178 38.9457303,50.9083823 39.0368627,50.9083823 C39.3692282,50.9083823 39.6694293,50.6378109 39.6694293,50.2696829 L39.6694293,50.1672755 L101.569821,78.833289 C103.215567,79.5981113 104.989969,79.9937276 106.764372,80.020677 C107.230756,81.122366 108.533414,81.3622151 109.927205,81.3622151 C109.986173,81.3622151 110.039781,81.3622151 110.098749,81.3611372 C109.031963,81.6419493 107.938373,81.7826249 106.844783,81.7826249" id="Fill-708" fill="#D5E3F4"></path>
                        <path d="M20.4265397,40.5576796 L20.4265397,41.7466845 C20.4265397,42.0851682 20.6222064,42.3929297 20.9283043,42.5346832 L28.5405462,46.059118 C28.9586834,46.2536922 29.4411494,45.9448528 29.4411494,45.4791682 L29.4411494,44.1435588 C29.4411494,43.8945469 29.2964096,43.6681725 29.0712588,43.563609 L21.3271429,39.9777298 C20.9063253,39.7831555 20.4265397,40.091995 20.4265397,40.5576796" id="Fill-717" fill="#91A7C3"></path>
                        <path d="M30.658036,45.3476554 L30.658036,46.5366603 C30.658036,46.875683 30.8510224,47.1829055 31.1565842,47.324659 L38.7688261,50.8490938 C39.1869633,51.044207 39.6694293,50.7348286 39.6694293,50.2696829 L39.6694293,48.9335346 C39.6694293,48.6845227 39.5246895,48.4581483 39.2995387,48.3535848 L31.5586392,44.7682446 C31.1351413,44.5731313 30.658036,44.8819708 30.658036,45.3476554" id="Fill-720" fill="#91A7C3"></path>
                        <path d="M8.84467452,35.1160687 L8.84467452,36.2856701 C8.84467452,36.6128351 9.03390842,36.9103558 9.32982092,37.0472585 L12.0573622,38.3111826 C12.2616062,38.4055053 12.494262,38.2556669 12.494262,38.0298314 L12.494262,36.5212074 C12.494262,36.3999353 12.4245725,36.290521 12.3152135,36.2398562 L9.28103824,34.8347176 C9.07733036,34.7398559 8.84467452,34.8902333 8.84467452,35.1160687" id="Fill-723" fill="#91A7C3"></path>
                    </g>
                    <g id="Group-40-Copy-2" transform="translate(34.500000, 0.094526)">
                        <g id="Combined-Shape" opacity="0.959701528">
                            <use fill="black" fill-opacity="1" filter="url(#filter-17)" xlink:href="#path-16"></use>
                            <use fill="#FFFFFF" fill-rule="evenodd" xlink:href="#path-16"></use>
                            <path stroke="#F3F4F6" stroke-width="1.25" d="M17.1347667,87.3098652 L22.8011106,75.4408251 L90.3760363,42.7913949 C90.8561927,42.559403 91.3019073,41.7742001 91.3019073,41.1010255 L91.3019073,1.25558214 C91.3019073,0.779574687 91.1743604,0.678129729 90.9198381,0.801104489 L2.24457567,43.6453512 C1.76441927,43.8773431 1.31870468,44.662546 1.31870468,45.3357206 L1.31870468,85.181164 C1.31870468,85.6571714 1.44625158,85.7586164 1.70077395,85.6356416 L12.5797184,80.3793822 L16.4690886,87.3313967 C16.5702073,87.5121402 16.7987018,87.5766889 16.9794453,87.4755702 C17.0471031,87.4377185 17.1013663,87.3798276 17.1347667,87.3098652 Z"></path>
                        </g>
                        <g id="Group-29" transform="translate(9.257172, 23.854885)">
                            <polygon id="Rectangle-6" fill="#7CDD6F" points="27.2271968 15.0513096 57.8375087 0.438574252 57.8375087 5.00932964 27.2271968 19.622065"></polygon>
                            <polygon id="Rectangle-6-Copy" fill="#C6E0FD" points="27.2271968 23.3358038 71.4538803 2.22289175 71.4538803 4.50826944 27.2271968 25.6211815"></polygon>
                            <polygon id="Rectangle-6-Copy-2" fill="#C6E0FD" points="27.2271968 27.3352147 59.7863525 11.7921413 59.7863525 14.077519 27.2271968 29.6205924"></polygon>
                            <polygon id="Rectangle-6-Copy-3" fill="#C6E0FD" points="27.2271968 31.3346257 59.7863525 15.7915522 59.7863525 18.0769299 27.2271968 33.6200034"></polygon>
                            <path d="M11.4361628,45.9356411 C17.4738802,43.0533587 22.3684171,34.9613158 22.3684171,27.8615576 C22.3684171,20.7617993 17.4738802,17.3428596 11.4361628,20.2251421 C5.39844553,23.1074246 0.503908579,31.1994674 0.503908579,38.2992257 C0.503908579,45.3989839 5.39844553,48.8179236 11.4361628,45.9356411 Z" id="Oval-6" fill="url(#linearGradient-6)"></path>
                            <path d="M11.3208791,34.9113813 C12.8570008,34.1780683 14.2558942,30.9514041 14.2558942,28.141596 C14.2558942,25.7046036 13.1862443,24.8174611 11.3208791,25.7079482 C9.45551393,26.5984353 8.38586398,28.5068357 8.38586398,30.9438281 C8.38586398,33.7536362 9.78475741,35.6446943 11.3208791,34.9113813 Z" id="Shape" fill="#FEFEFE" fill-rule="nonzero"></path>
                            <path d="M17.0456587,34.1422715 C16.2098316,33.9482703 14.4582798,33.563053 13.4025223,33.4801777 C12.88369,34.4558994 12.1279776,35.2539104 11.3208791,35.6783341 C10.5113182,36.0252608 9.75359493,35.9472998 9.23440946,35.4636603 C8.17278189,36.5548775 6.42533911,38.616272 5.59316449,39.6087671 C5.30187502,39.9564787 5.12429599,40.4135254 5.12473608,40.8143916 L5.12473608,41.5006609 C5.12429342,42.0646832 5.47183777,42.3796465 5.94510542,42.2441235 C7.72231566,41.74881 9.51894036,41.0924018 11.3208791,40.2800506 C13.1228178,39.3719846 14.9194425,38.3130491 16.6966528,37.1115552 C17.1699692,36.7951891 17.5175288,36.1483113 17.5170221,35.5846842 L17.5170221,34.9012526 C17.5174598,34.4985567 17.3386103,34.2105764 17.0456587,34.1422715 Z" id="Shape" fill="#FEFEFE" fill-rule="nonzero"></path>
                        </g>
                    </g>
                </g>
                <g id="Group-63-Copy" transform="translate(552.000000, 222.000000)">
                    <g id="Group" transform="translate(0.000000, 65.426307)">
                        <g id="Group-684">
                            <path d="M50.7822303,6.14283269 L1.98615183,24.3869973 C-0.920974048,25.7204506 0.0729059782,33.632777 2.97467113,34.9764712 L101.494771,80.6043997 C104.877394,82.1712343 108.774647,82.1782412 112.162631,80.6243422 L157.653817,59.6739248 C160.66655,58.2908847 161.9156,51.370833 158.902868,49.9770131 L57.3973756,6.15522939 C55.295968,5.18397515 52.8836379,5.17912427 50.7822303,6.14283269" id="Fill-681" fill="#EBF1F9"></path>
                            <path d="M106.608911,79.4126998 C106.356956,77.3812586 109.058766,77.0540936 110.650904,76.1108666 L1.98615183,24.3869973 C1.71329049,24.5120422 1.47527391,24.6947587 1.26942174,24.9249061 C1.13272303,25.0779784 1.00996223,25.2520711 0.901675407,25.4439504 C0.792852513,25.6352907 0.6985036,25.8449566 0.617556521,26.0686361 C0.576814945,26.1807454 0.539825883,26.2966275 0.506053261,26.4152046 C0.337190149,27.0091681 0.250882337,27.6834406 0.240696943,28.3878964 C0.236408356,28.6697865 0.244449456,28.9565275 0.263748098,29.2448854 C0.283582812,29.5332433 0.314675068,29.8226793 0.357024864,30.1110372 C0.50444504,31.1200205 0.788563926,32.1101393 1.18740251,32.9423349 C1.30105007,33.1805671 1.42434694,33.4053246 1.55675706,33.6149905 C1.68916719,33.8235784 1.83015448,34.0165356 1.97971895,34.1906284 C2.1298195,34.3641821 2.28742507,34.5188714 2.45360781,34.6509231 C2.61979056,34.7829749 2.79347833,34.8929282 2.97467113,34.9764712 L101.494771,80.6043997 C104.207302,81.8607779 107.252199,82.1114068 110.098749,81.3611372 C108.410117,81.3832356 106.81798,81.0937997 106.608911,79.4126998" id="Fill-682" fill="#EBF1F9"></path>
                            <path d="M50.7822303,1.06018706 L2.98753689,23.0670186 C0.0804110054,24.4004719 0.0729059782,28.5495924 2.97467113,29.8938255 L101.494771,75.5212151 C104.877394,77.0880497 108.774647,77.0955955 112.162631,75.5411576 L157.653817,54.5907402 C160.66655,53.2077001 160.677271,48.9033514 157.664539,47.5089925 L57.3973756,1.07258375 C55.295968,0.100790534 52.8836379,0.0964786393 50.7822303,1.06018706" id="Fill-683" fill="#FFFFFE"></path>
                            <ellipse id="Oval-11" fill="#EBF1F9" cx="130.368047" cy="61.5083979" rx="4.59490758" ry="2.30085686"></ellipse>
                        </g>
                        <path d="M60.9837065,6.10833753 L11.0216685,29.1112167 C10.5960262,29.3063299 10.594418,29.913768 11.0195242,30.1104982 L98.9001759,70.7042899 C99.3504775,70.9112609 99.865108,70.9123388 100.310049,70.7069849 L149.934361,47.8604119 C150.427548,47.6356544 150.427548,46.9360495 149.939721,46.7096751 L62.0451318,6.11049348 C61.7074055,5.95472629 61.3214327,5.95418731 60.9837065,6.10833753" id="Fill-687" fill="url(#linearGradient-6)"></path>
                        <path d="M37.7931725,12.0253348 L27.5327282,16.7495542 C27.3129382,16.8487277 27.2218057,17.1047465 27.3182989,17.3219581 C27.4201528,17.5386308 27.6721073,17.6340315 27.8865367,17.5348579 L38.146981,12.8106385 C38.366771,12.711465 38.4579035,12.4554462 38.3614103,12.2382345 C38.2595564,12.0215618 38.0076019,11.9261612 37.7931725,12.0253348" id="Fill-689" fill="#91A7C3"></path>
                        <path d="M25.3777133,18.5055732 C25.3080238,18.3627417 25.1740054,18.2398527 24.9971012,18.1509199 C24.8041148,18.0539022 24.5521603,17.9962306 24.2787629,17.9962306 C23.8541928,17.9962306 23.490735,18.1347503 23.2945322,18.3449551 C23.1953586,18.4511355 23.1379988,18.5751025 23.1379988,18.7093102 C23.1379988,18.758897 23.1455038,18.8079448 23.1605138,18.8548366 C23.2655842,19.1825406 23.7196384,19.4223898 24.2787629,19.4223898 C24.9220509,19.4223898 25.4205992,19.1092384 25.4205992,18.7093102 C25.4205992,18.6381639 25.404517,18.5697126 25.3777133,18.5055732" id="Fill-696" fill="#91A7C3"></path>
                        <path d="M31.4407031,12.9771855 C31.3978172,12.8839407 31.3120455,12.8030927 31.1941094,12.7443432 C31.0654517,12.6807427 30.899269,12.6430136 30.7223648,12.6430136 C30.4436066,12.6430136 30.2023736,12.7341024 30.073716,12.872083 C30.0093872,12.9416123 29.9718621,13.0229993 29.9718621,13.1108542 L29.9879443,13.2067938 C30.0576338,13.4218496 30.3524742,13.5792337 30.7223648,13.5792337 C31.140502,13.5792337 31.4728675,13.3733408 31.4728675,13.1108542 L31.4407031,12.9771855" id="Fill-697" fill="#91A7C3"></path>
                        <path d="M131.086021,69.2382458 L131.086021,70.5339701 C131.086021,70.74148 131.29509,70.8794606 131.488076,70.7932228 L137.701166,67.8988636 C137.79766,67.8525107 137.861988,67.7511812 137.861988,67.6396109 L137.861988,66.3719139 C137.861988,66.166021 137.65292,66.0280404 137.465294,66.1110443 L131.337975,68.8442464 C131.182514,68.9126978 131.086021,69.067387 131.086021,69.2382458" id="Fill-698" fill="#91A7C3"></path>
                        <path d="M148.460159,62.0001919 C148.460159,62.5208532 148.165319,63.0539111 147.800789,63.1902748 C147.436259,63.3271774 147.141418,63.0161821 147.141418,62.4955208 C147.141418,61.9748595 147.436259,61.4423406 147.800789,61.3054379 C148.165319,61.1690742 148.460159,61.4800696 148.460159,62.0001919" id="Fill-702" fill="#91A7C3"></path>
                        <path d="M150.990425,60.8575399 C150.990425,61.3782011 150.690224,61.9107201 150.325694,62.0476228 C149.961164,62.1839864 149.666324,61.872991 149.666324,61.3528688 C149.666324,60.8322075 149.961164,60.2991495 150.325694,60.1627859 C150.690224,60.0258832 150.990425,60.3368786 150.990425,60.8575399" id="Fill-703" fill="#91A7C3"></path>
                        <path d="M153.515331,59.7148878 C153.515331,60.2350101 153.22049,60.7680681 152.855961,60.9044317 C152.48607,61.0413344 152.19123,60.730339 152.19123,60.2096777 C152.19123,59.6890165 152.48607,59.1564975 152.855961,59.0195948 C153.22049,58.8832312 153.515331,59.1942266 153.515331,59.7148878" id="Fill-704" fill="#91A7C3"></path>
                        <path d="M156.040236,58.5716968 C156.040236,59.0923581 155.745396,59.624877 155.380866,59.7617797 C155.016336,59.8986823 154.721496,59.587148 154.721496,59.0670257 C154.721496,58.5463644 155.016336,58.0133065 155.380866,57.8769428 C155.745396,57.7400402 156.040236,58.0510355 156.040236,58.5716968" id="Fill-705" fill="#91A7C3"></path>
                        <path d="M106.850144,81.7847808 C105.022134,81.7847808 103.194124,81.3907814 101.494771,80.6043997 L2.97467113,34.9764712 C2.96984647,34.9743152 2.96448573,34.9716203 2.959125,34.9694643 C2.96448573,34.9716203 2.96984647,34.9743152 2.97467113,34.9764712 L101.494771,80.6043997 C101.510853,80.6103285 101.521575,80.6167964 101.537657,80.6227252 C103.226288,81.3972493 105.038216,81.7842418 106.850144,81.7847808 M2.95322819,34.9662304 C2.95001175,34.9651524 2.94679531,34.9635355 2.94357887,34.9619185 C2.94679531,34.9635355 2.95001175,34.9651524 2.95322819,34.9662304 M2.93660992,34.9586846 C2.93339348,34.9570676 2.93071311,34.9554507 2.92803274,34.9543727 C2.93071311,34.9554507 2.93339348,34.9570676 2.93660992,34.9586846 M2.92052772,34.9505998 C2.91784735,34.9489828 2.91463091,34.9479049 2.91195054,34.9462879 C2.91516698,34.9479049 2.91784735,34.9489828 2.92052772,34.9505998 M2.90444551,34.942515 C2.90176515,34.941437 2.89908478,34.9398201 2.89640441,34.9387421 C2.89908478,34.9398201 2.90176515,34.941437 2.90444551,34.942515 M2.88889939,34.9349692 C2.88568295,34.9328132 2.88246651,34.9311963 2.87925007,34.9295793 C2.88246651,34.9311963 2.88568295,34.9328132 2.88889939,34.9349692 M2.86745645,34.9231115 C2.86424001,34.9220335 2.86155965,34.9204165 2.85887928,34.9187996 C2.86155965,34.9204165 2.86424001,34.9220335 2.86745645,34.9231115 M2.85083818,34.9144877 C2.84815781,34.9134097 2.84601352,34.9117927 2.84333315,34.9107148 C2.84601352,34.9117927 2.84815781,34.9134097 2.85083818,34.9144877 M2.83529205,34.9064029 C2.83261168,34.9047859 2.83046739,34.9037079 2.82778702,34.902091 C2.83046739,34.9037079 2.83261168,34.9047859 2.83529205,34.9064029 M2.81974592,34.8977791 C2.81760163,34.8961621 2.81492126,34.8950841 2.8122409,34.8934672 C2.81492126,34.8950841 2.81706556,34.8961621 2.81974592,34.8977791 M2.80419979,34.8891553 C2.8020555,34.8875383 2.79937513,34.8859214 2.79669477,34.8848434 C2.79937513,34.8859214 2.8020555,34.8875383 2.80419979,34.8891553 M2.78918974,34.8805315 C2.78650937,34.8789145 2.78436508,34.8778366 2.78222079,34.8762196 C2.78436508,34.8778366 2.78650937,34.8789145 2.78918974,34.8805315 M2.76613859,34.8670568 C2.76399429,34.8654399 2.76185,34.8643619 2.7597057,34.8632839 C2.76185,34.8643619 2.76399429,34.8654399 2.76613859,34.8670568 M2.75059246,34.8578941 C2.74898424,34.8562771 2.74683994,34.8551991 2.74469565,34.8541212 C2.74683994,34.8551991 2.74844816,34.8562771 2.75059246,34.8578941 M2.73504633,34.8481923 C2.73343811,34.8471143 2.73182989,34.8465753 2.73022167,34.8454974 C2.73182989,34.8460363 2.73343811,34.8476533 2.73504633,34.8481923 M2.72003628,34.8390295 C2.71896413,34.8379515 2.71735591,34.8374126 2.71628376,34.8368736 C2.71735591,34.8374126 2.71896413,34.8384905 2.72003628,34.8390295" id="Fill-706" fill="#746C68"></path>
                        <path d="M106.844783,81.7826249 C105.032855,81.7826249 103.220927,81.3961713 101.537657,80.6227252 C101.521575,80.6167964 101.510853,80.6103285 101.494771,80.6043997 L2.97467113,34.9764712 C2.96984647,34.9743152 2.96448573,34.9716203 2.959125,34.9694643 C2.9569807,34.9683864 2.95483641,34.9673084 2.95322819,34.9662304 C2.95001175,34.9651524 2.94679531,34.9635355 2.94357887,34.9619185 C2.9408985,34.9608405 2.93875421,34.9597626 2.93660992,34.9586846 C2.93339348,34.9570676 2.93071311,34.9554507 2.92803274,34.9543727 C2.92535238,34.9532947 2.92267201,34.9516778 2.92052772,34.9505998 C2.91784735,34.9489828 2.91516698,34.9479049 2.91195054,34.9462879 C2.90927017,34.9452099 2.90712588,34.9441319 2.90444551,34.942515 C2.90176515,34.941437 2.89908478,34.9398201 2.89640441,34.9387421 C2.89372405,34.9371251 2.89157975,34.9360471 2.88889939,34.9349692 C2.88568295,34.9328132 2.88246651,34.9311963 2.87925007,34.9295793 C2.87549755,34.9274234 2.87120897,34.9252674 2.86745645,34.9231115 C2.86424001,34.9220335 2.86155965,34.9204165 2.85887928,34.9187996 C2.85619891,34.9177216 2.85351854,34.9161046 2.85083818,34.9144877 C2.84815781,34.9134097 2.84601352,34.9117927 2.84333315,34.9107148 C2.84065278,34.9090978 2.83797242,34.9074808 2.83529205,34.9064029 C2.83261168,34.9047859 2.83046739,34.9037079 2.82778702,34.902091 C2.82510666,34.900474 2.82242629,34.899396 2.81974592,34.8977791 C2.81706556,34.8961621 2.81492126,34.8950841 2.8122409,34.8934672 C2.80956053,34.8918502 2.80688016,34.8907723 2.80419979,34.8891553 C2.8020555,34.8875383 2.79937513,34.8859214 2.79669477,34.8848434 C2.7940144,34.8832264 2.79187011,34.8816095 2.78918974,34.8805315 C2.78650937,34.8789145 2.78436508,34.8778366 2.78222079,34.8762196 C2.77686005,34.8729857 2.77149932,34.8697518 2.76613859,34.8670568 C2.76399429,34.8654399 2.76185,34.8643619 2.7597057,34.8632839 C2.75648926,34.861128 2.7538089,34.859511 2.75059246,34.8578941 C2.74898424,34.8568161 2.74683994,34.8551991 2.74469565,34.8541212 C2.74147921,34.8525042 2.73826277,34.8503482 2.7355824,34.8481923 C2.73343811,34.8476533 2.73182989,34.8465753 2.73022167,34.8454974 C2.72700523,34.8433414 2.72325272,34.8411855 2.72003628,34.8390295 C2.71842806,34.8379515 2.71735591,34.8374126 2.71628376,34.8368736 C2.71253125,34.8341786 2.70824266,34.8320227 2.70449015,34.8293278 C2.70449015,34.8293278 2.70449015,34.8293278 2.70395407,34.8293278 C1.60446759,34.1372687 0.815367595,32.4815012 0.456734511,30.6785903 C0.922582269,31.7037432 1.55514884,32.5154574 2.32119769,32.8706497 L8.84467452,35.8916708 L8.84467452,36.2856701 C8.84467452,36.6128351 9.03390842,36.9103558 9.32982092,37.0472585 L12.0573622,38.3111826 C12.1002481,38.3305861 12.14367,38.3397489 12.1865559,38.3397489 C12.3484501,38.3397489 12.494262,38.2082361 12.494262,38.0298314 L12.494262,37.5819334 L20.4265397,41.2551285 L20.4265397,41.7466845 C20.4265397,42.0851682 20.6222064,42.3929297 20.9283043,42.5346832 L28.5405462,46.059118 C28.6263179,46.099542 28.7174504,46.1184065 28.8032221,46.1184065 C29.1355876,46.1184065 29.4411494,45.8478351 29.4411494,45.4791682 L29.4411494,45.4290424 L30.658036,45.9933616 L30.658036,46.5366603 C30.658036,46.875683 30.8510224,47.1829055 31.1565842,47.324659 L38.7688261,50.8490938 C38.8545978,50.8895178 38.9457303,50.9083823 39.0368627,50.9083823 C39.3692282,50.9083823 39.6694293,50.6378109 39.6694293,50.2696829 L39.6694293,50.1672755 L101.569821,78.833289 C103.215567,79.5981113 104.989969,79.9937276 106.764372,80.020677 C107.230756,81.122366 108.533414,81.3622151 109.927205,81.3622151 C109.986173,81.3622151 110.039781,81.3622151 110.098749,81.3611372 C109.031963,81.6419493 107.938373,81.7826249 106.844783,81.7826249" id="Fill-708" fill="#D5E3F4"></path>
                        <path d="M20.4265397,40.5576796 L20.4265397,41.7466845 C20.4265397,42.0851682 20.6222064,42.3929297 20.9283043,42.5346832 L28.5405462,46.059118 C28.9586834,46.2536922 29.4411494,45.9448528 29.4411494,45.4791682 L29.4411494,44.1435588 C29.4411494,43.8945469 29.2964096,43.6681725 29.0712588,43.563609 L21.3271429,39.9777298 C20.9063253,39.7831555 20.4265397,40.091995 20.4265397,40.5576796" id="Fill-717" fill="#91A7C3"></path>
                        <path d="M30.658036,45.3476554 L30.658036,46.5366603 C30.658036,46.875683 30.8510224,47.1829055 31.1565842,47.324659 L38.7688261,50.8490938 C39.1869633,51.044207 39.6694293,50.7348286 39.6694293,50.2696829 L39.6694293,48.9335346 C39.6694293,48.6845227 39.5246895,48.4581483 39.2995387,48.3535848 L31.5586392,44.7682446 C31.1351413,44.5731313 30.658036,44.8819708 30.658036,45.3476554" id="Fill-720" fill="#91A7C3"></path>
                        <path d="M8.84467452,35.1160687 L8.84467452,36.2856701 C8.84467452,36.6128351 9.03390842,36.9103558 9.32982092,37.0472585 L12.0573622,38.3111826 C12.2616062,38.4055053 12.494262,38.2556669 12.494262,38.0298314 L12.494262,36.5212074 C12.494262,36.3999353 12.4245725,36.290521 12.3152135,36.2398562 L9.28103824,34.8347176 C9.07733036,34.7398559 8.84467452,34.8902333 8.84467452,35.1160687" id="Fill-723" fill="#91A7C3"></path>
                    </g>
                    <g id="Group-40-Copy-2" transform="translate(34.500000, 0.094526)">
                        <g id="Combined-Shape" opacity="0.959701528">
                            <use fill="black" fill-opacity="1" filter="url(#filter-19)" xlink:href="#path-18"></use>
                            <use fill="#FFFFFF" fill-rule="evenodd" xlink:href="#path-18"></use>
                            <path stroke="#F3F4F6" stroke-width="1.25" d="M17.1347667,87.3098652 L22.8011106,75.4408251 L90.3760363,42.7913949 C90.8561927,42.559403 91.3019073,41.7742001 91.3019073,41.1010255 L91.3019073,1.25558214 C91.3019073,0.779574687 91.1743604,0.678129729 90.9198381,0.801104489 L2.24457567,43.6453512 C1.76441927,43.8773431 1.31870468,44.662546 1.31870468,45.3357206 L1.31870468,85.181164 C1.31870468,85.6571714 1.44625158,85.7586164 1.70077395,85.6356416 L12.5797184,80.3793822 L16.4690886,87.3313967 C16.5702073,87.5121402 16.7987018,87.5766889 16.9794453,87.4755702 C17.0471031,87.4377185 17.1013663,87.3798276 17.1347667,87.3098652 Z"></path>
                        </g>
                        <g id="Group-29" transform="translate(9.257172, 23.854885)">
                            <polygon id="Rectangle-6" fill="#7CDD6F" points="27.2271968 15.0513096 57.8375087 0.438574252 57.8375087 5.00932964 27.2271968 19.622065"></polygon>
                            <polygon id="Rectangle-6-Copy" fill="#C6E0FD" points="27.2271968 23.3358038 71.4538803 2.22289175 71.4538803 4.50826944 27.2271968 25.6211815"></polygon>
                            <polygon id="Rectangle-6-Copy-2" fill="#C6E0FD" points="27.2271968 27.3352147 59.7863525 11.7921413 59.7863525 14.077519 27.2271968 29.6205924"></polygon>
                            <polygon id="Rectangle-6-Copy-3" fill="#C6E0FD" points="27.2271968 31.3346257 59.7863525 15.7915522 59.7863525 18.0769299 27.2271968 33.6200034"></polygon>
                            <path d="M11.4361628,45.9356411 C17.4738802,43.0533587 22.3684171,34.9613158 22.3684171,27.8615576 C22.3684171,20.7617993 17.4738802,17.3428596 11.4361628,20.2251421 C5.39844553,23.1074246 0.503908579,31.1994674 0.503908579,38.2992257 C0.503908579,45.3989839 5.39844553,48.8179236 11.4361628,45.9356411 Z" id="Oval-6" fill="url(#linearGradient-6)"></path>
                            <path d="M11.3208791,34.9113813 C12.8570008,34.1780683 14.2558942,30.9514041 14.2558942,28.141596 C14.2558942,25.7046036 13.1862443,24.8174611 11.3208791,25.7079482 C9.45551393,26.5984353 8.38586398,28.5068357 8.38586398,30.9438281 C8.38586398,33.7536362 9.78475741,35.6446943 11.3208791,34.9113813 Z" id="Shape" fill="#FEFEFE" fill-rule="nonzero"></path>
                            <path d="M17.0456587,34.1422715 C16.2098316,33.9482703 14.4582798,33.563053 13.4025223,33.4801777 C12.88369,34.4558994 12.1279776,35.2539104 11.3208791,35.6783341 C10.5113182,36.0252608 9.75359493,35.9472998 9.23440946,35.4636603 C8.17278189,36.5548775 6.42533911,38.616272 5.59316449,39.6087671 C5.30187502,39.9564787 5.12429599,40.4135254 5.12473608,40.8143916 L5.12473608,41.5006609 C5.12429342,42.0646832 5.47183777,42.3796465 5.94510542,42.2441235 C7.72231566,41.74881 9.51894036,41.0924018 11.3208791,40.2800506 C13.1228178,39.3719846 14.9194425,38.3130491 16.6966528,37.1115552 C17.1699692,36.7951891 17.5175288,36.1483113 17.5170221,35.5846842 L17.5170221,34.9012526 C17.5174598,34.4985567 17.3386103,34.2105764 17.0456587,34.1422715 Z" id="Shape" fill="#FEFEFE" fill-rule="nonzero"></path>
                        </g>
                    </g>
                </g>
            </g>
        </g>
    </g>
</svg>