<svg xmlns="http://www.w3.org/2000/svg" width="1811" height="1085" viewBox="0 0 1811 1085">
    <defs>
        <linearGradient id="a" x1="50%" x2="50%" y1="78.374%" y2="0%">
            <stop offset="0%" stop-color="#FFF" stop-opacity="0"/>
            <stop offset="100%" stop-color="#FFF"/>
        </linearGradient>
    </defs>
    <g fill="url(#a)" fill-rule="evenodd" transform="translate(-340 -2446)">
        <path d="M586.4 3495.825c-6.031-8.978-16.513-16.102-29.37-19.872C552.14 3457.192 529.361 3443 502 3443c-28.832 0-52.575 15.758-55.66 36.015-10.043 1.865-18.71 6.188-24.69 12.023A36.1 36.1 0 0 0 420 3491c-14.36 0-26 8.507-26 19s11.64 19 26 19a36.1 36.1 0 0 0 1.65-.038c7.57 7.388 19.45 12.351 32.972 12.972 8.1 7.924 21.154 13.066 35.878 13.066 8.307 0 16.082-1.637 22.736-4.486 6.955 2.24 14.658 3.486 22.764 3.486 21.691 0 40.502-8.92 49.803-21.963A34.81 34.81 0 0 0 594 3533c14.36 0 26-8.507 26-19s-11.64-19-26-19c-2.644 0-5.196.288-7.6.825zM2083.513 3240.968c-9.268-13.657-25.467-24.428-45.299-29.936-7.98-27.432-41.756-48.032-82.214-48.032-43.237 0-78.844 23.527-83.487 53.777-14.746 2.983-27.42 9.543-36.112 18.303a52.687 52.687 0 0 0-2.901-.08c-21.263 0-38.5 12.76-38.5 28.5s17.237 28.5 38.5 28.5c1.302 0 2.588-.048 3.856-.141 10.964 10.501 27.763 17.65 46.919 18.933 12.053 12.23 31.848 20.208 54.225 20.208 13.467 0 25.999-2.89 36.471-7.856 10.138 3.125 21.303 4.856 33.029 4.856 32.213 0 60.19-13.06 74.283-32.228A51.121 51.121 0 0 0 2093.5 3297c21.263 0 38.5-12.76 38.5-28.5s-17.237-28.5-38.5-28.5c-3.454 0-6.802.337-9.987.968zM1366.91 3445.414c-3.373-5.207-9.278-9.357-16.545-11.595C1347.41 3423.083 1334.49 3415 1319 3415c-16.317 0-29.782 8.969-31.752 20.56-5.535 1.012-10.35 3.337-13.78 6.492A20.663 20.663 0 0 0 1272 3442c-8.284 0-15 4.925-15 11s6.716 11 15 11c.166 0 .332-.002.497-.006 4.424 4.652 11.71 7.762 20.012 7.992 4.671 4.273 11.89 7.014 19.991 7.014 4.347 0 8.44-.789 12.02-2.18 4.097 1.399 8.664 2.18 13.48 2.18 12.287 0 22.956-5.085 28.318-12.546 1.474.354 3.047.546 4.682.546 8.284 0 15-4.925 15-11s-6.716-11-15-11c-1.418 0-2.79.144-4.09.414zM578.737 3033c-7.688-11.207-20.94-20.045-37.128-24.604-6.442-23.049-34.487-40.396-68.109-40.396-35.536 0-64.843 19.38-68.996 44.386-12.645 2.475-23.477 8.11-30.749 15.649A44.25 44.25 0 0 0 372 3028c-17.673 0-32 10.521-32 23.5s14.327 23.5 32 23.5c1.247 0 2.477-.052 3.686-.154 9.027 8.271 22.548 13.892 37.923 14.967C423.52 3100.192 440.153 3107 459 3107c10.37 0 20.07-2.061 28.348-5.644 8.865 2.98 18.741 4.644 29.152 4.644 27.258 0 50.85-11.402 62.237-28 2.932.65 6.042 1 9.263 1 17.673 0 32-10.521 32-23.5s-14.327-23.5-32-23.5c-3.22 0-6.33.35-9.263 1zM2082.42 2948.553c-4.99-7.42-13.701-13.28-24.373-16.303-4.295-14.988-22.608-26.25-44.547-26.25-23.237 0-42.405 12.633-45.16 28.947-8.108 1.627-15.065 5.252-19.789 10.095A28.828 28.828 0 0 0 1947 2945c-11.598 0-21 6.94-21 15.5 0 8.56 9.402 15.5 21 15.5.847 0 1.683-.037 2.504-.11 5.909 5.519 14.821 9.274 24.968 9.987 6.507 6.724 17.306 11.123 29.528 11.123 6.936 0 13.414-1.417 18.91-3.871 5.675 1.845 11.967 2.871 18.59 2.871 17.507 0 32.704-7.17 40.313-17.684 1.956.445 4.034.684 6.187.684 11.598 0 21-6.94 21-15.5 0-8.56-9.402-15.5-21-15.5-1.932 0-3.803.193-5.58.553zM1361.42 2994.553c-4.99-7.42-13.701-13.28-24.373-16.303-4.295-14.988-22.608-26.25-44.547-26.25-23.237 0-42.405 12.633-45.16 28.947-8.108 1.627-15.065 5.252-19.79 10.095a28.827 28.827 0 0 0-1.55-.042c-11.598 0-21 6.94-21 15.5 0 8.56 9.402 15.5 21 15.5.847 0 1.683-.037 2.504-.11 5.909 5.519 14.821 9.274 24.968 9.987 6.507 6.724 17.306 11.123 29.528 11.123 6.936 0 13.414-1.417 18.91-3.871 5.675 1.845 11.967 2.871 18.59 2.871 17.507 0 32.704-7.17 40.313-17.684 1.956.445 4.034.684 6.187.684 11.598 0 21-6.94 21-15.5 0-8.56-9.402-15.5-21-15.5-1.932 0-3.803.193-5.58.553zM1444.207 3188.842c-7.316-10.736-20.026-19.212-35.578-23.585-6.237-21.838-33.027-38.257-65.129-38.257-34.091 0-62.19 18.516-66.048 42.376-11.795 2.365-21.921 7.635-28.817 14.678a41.91 41.91 0 0 0-2.135-.054c-16.845 0-30.5 10.074-30.5 22.5s13.655 22.5 30.5 22.5a41.75 41.75 0 0 0 3.086-.114c8.644 8.281 21.864 13.92 36.938 14.946 9.499 9.778 25.206 16.168 42.976 16.168 10.442 0 20.172-2.206 28.348-6.01 8.16 2.579 17.174 4.01 26.652 4.01 25.726 0 48.04-10.545 59.1-25.973a40.63 40.63 0 0 0 8.9.973c16.845 0 30.5-10.074 30.5-22.5s-13.655-22.5-30.5-22.5a40.76 40.76 0 0 0-8.293.842zM2112.207 2507.842c-7.316-10.736-20.026-19.212-35.578-23.585-6.237-21.838-33.027-38.257-65.129-38.257-34.091 0-62.19 18.516-66.048 42.376-11.795 2.365-21.921 7.635-28.817 14.678a41.91 41.91 0 0 0-2.135-.054c-16.845 0-30.5 10.074-30.5 22.5s13.655 22.5 30.5 22.5a41.75 41.75 0 0 0 3.086-.114c8.644 8.281 21.864 13.92 36.938 14.946 9.499 9.778 25.206 16.168 42.976 16.168 10.442 0 20.172-2.206 28.348-6.01 8.16 2.579 17.174 4.01 26.652 4.01 25.726 0 48.04-10.545 59.1-25.973a40.63 40.63 0 0 0 8.9.973c16.845 0 30.5-10.074 30.5-22.5s-13.655-22.5-30.5-22.5a40.76 40.76 0 0 0-8.293.842zM978.79 2949.552c-4.927-7.74-13.829-13.896-24.823-17.108C949.469 2917.33 930.82 2906 908.5 2906c-24.006 0-43.763 13.106-46.239 29.928-8.29 1.615-15.422 5.244-20.31 10.107-.48-.023-.963-.035-1.451-.035-11.874 0-21.5 6.94-21.5 15.5 0 8.56 9.626 15.5 21.5 15.5.488 0 .971-.012 1.45-.035 6.15 6.118 15.852 10.283 26.943 10.943C875.606 2994.624 886.59 2999 899 2999c7.51 0 14.499-1.603 20.333-4.357 5.312 1.521 11.104 2.357 17.167 2.357 17.815 0 33.29-7.218 41.1-17.816a29.13 29.13 0 0 0 6.9.816c11.874 0 21.5-6.94 21.5-15.5 0-8.56-9.626-15.5-21.5-15.5-1.977 0-3.891.192-5.71.552z"/>
    </g>
</svg>
