<svg xmlns="http://www.w3.org/2000/svg" xmlns:xlink="http://www.w3.org/1999/xlink" width="130" height="146" viewBox="0 0 130 146">
    <defs>
        <filter id="a" width="125.8%" height="122.1%" x="-9.8%" y="-13.6%" filterUnits="objectBoundingBox">
            <feOffset dx="2" dy="-2" in="SourceAlpha" result="shadowOffsetOuter1"/>
            <feGaussianBlur in="shadowOffsetOuter1" result="shadowBlurOuter1" stdDeviation="2.5"/>
            <feColorMatrix in="shadowBlurOuter1" result="shadowMatrixOuter1" values="0 0 0 0 0.00392156863 0 0 0 0 0.278431373 0 0 0 0 0.6 0 0 0 0.2 0"/>
            <feMerge>
                <feMergeNode in="shadowMatrixOuter1"/>
                <feMergeNode in="SourceGraphic"/>
            </feMerge>
        </filter>
        <linearGradient id="b" x1="-22.405%" x2="92.973%" y1="50%" y2="77.758%">
            <stop offset="0%" stop-color="#48C7FF"/>
            <stop offset="100%" stop-color="#0E71B9"/>
        </linearGradient>
        <linearGradient id="c" x1="50%" x2="91.508%" y1="12.697%" y2="109.345%">
            <stop offset="0%" stop-color="#48C7FF"/>
            <stop offset="100%" stop-color="#1F7DC2"/>
        </linearGradient>
        <path id="e" d="M49.972 19.233v42.461L0 42.757V.295z"/>
        <filter id="d" width="134%" height="127.7%" x="-13%" y="-17.1%" filterUnits="objectBoundingBox">
            <feOffset dx="2" dy="-2" in="SourceAlpha" result="shadowOffsetOuter1"/>
            <feGaussianBlur in="shadowOffsetOuter1" result="shadowBlurOuter1" stdDeviation="2.5"/>
            <feColorMatrix in="shadowBlurOuter1" values="0 0 0 0 0.00392156863 0 0 0 0 0.278431373 0 0 0 0 0.6 0 0 0 0.132642663 0"/>
        </filter>
        <linearGradient id="f" x1="72.329%" x2="40.647%" y1="-17.644%" y2="135.383%">
            <stop offset="0%" stop-color="#FEFEFE"/>
            <stop offset="100%" stop-color="#C9EFFF"/>
        </linearGradient>
    </defs>
    <g fill="none" fill-rule="evenodd">
        <path stroke="#014799" stroke-dasharray="2.399999856948853,3.999999761581421" stroke-linecap="round" stroke-linejoin="round" stroke-width="1.6" d="M85 50.612L70.714 38 35 51.4v45.718L42.937 105"/>
        <g filter="url(#a)" transform="matrix(-1 0 0 1 69 7)">
            <path fill="#C6E0FD" d="M45.182 67.938c-11.493-4.089-20.81-16.12-20.81-26.872 0-10.752 9.317-16.153 20.81-12.064 11.493 4.089 20.81 16.12 20.81 26.872 0 4.1-1.354 7.42-3.667 9.735.445 2.647 1.076 5.137 1.893 7.468.3.75.324 1.212.071 1.386-.117.08-1.631 1.377-2.768 2.196-.577.415-3.847-4.643-6.798-7.489-2.858.365-6.102-.008-9.54-1.232z"/>
            <path fill="#FFF" d="M42.403 70.133c-11.494-4.089-20.81-16.12-20.81-26.872 0-10.751 9.316-16.153 20.81-12.064 11.493 4.09 20.81 16.12 20.81 26.872 0 4.1-1.354 7.42-3.667 9.735.444 2.647 1.075 5.137 1.892 7.468.51 1.273.223 1.717-.86 1.331-1.545-.55-5.684-2.392-8.634-5.237-2.858.365-6.103-.01-9.541-1.233z"/>
            <path fill="url(#b)" d="M30.308 51.087c4.078 1.451 4.878 4.594 8.325 4.275 3.68-.342 9.95-4.26 12.443-6.347 3.514-2.942 5.609-7.479 5.609-13.219 0-13.628-11.81-28.877-26.377-34.06-7.942-2.825-15.064-2.075-19.9 1.4-2.31 1.659-5.691 3.317-6.798 6.127-.827 2.098.32 5.114.32 7.765 0 5.196 1.717 10.627 4.649 15.647-.564 2.954-1.363 5.54-2.399 7.758-.646 1.154-.283 1.975 1.09 2.463 1.96.697 7.205 2.094 10.945 1.149 3.622 3.04 7.734 5.492 12.093 7.042z"/>
            <path fill="url(#c)" d="M26.416 53.831c14.568 5.183 26.377-1.663 26.377-15.291S40.983 9.663 26.416 4.48C11.85-.702.04 6.144.04 19.772c0 5.196 1.717 10.627 4.649 15.647-.564 2.954-1.364 5.54-2.4 7.758-.646 1.154-.282 1.975 1.091 2.463 1.959.697 7.204 2.094 10.944 1.149 3.623 3.04 7.734 5.492 12.093 7.042z"/>
            <path fill="#F7FBFF" d="M17.697 28.678c-1.617-.576-2.929-2.446-2.929-4.177 0-1.732 1.312-2.669 2.93-2.093 1.617.575 2.929 2.446 2.929 4.177 0 1.731-1.312 2.669-2.93 2.093zm8.754 3.114c-1.618-.575-2.93-2.446-2.93-4.177 0-1.732 1.312-2.669 2.93-2.093 1.617.575 2.929 2.446 2.929 4.177 0 1.732-1.312 2.669-2.93 2.093zm8.684 3.09c-1.618-.576-2.93-2.446-2.93-4.177 0-1.732 1.312-2.669 2.93-2.093 1.618.575 2.93 2.445 2.93 4.177 0 1.731-1.312 2.668-2.93 2.093z"/>
        </g>
        <g fill-rule="nonzero">
            <g transform="matrix(-1 0 0 1 126.972 12)">
                <use fill="#000" filter="url(#d)" xlink:href="#e"/>
                <use fill="#FFF" fill-rule="evenodd" xlink:href="#e"/>
            </g>
            <path fill="#014799" d="M77 71.162v2.532l49.972-18.937v-2.532z"/>
            <path fill="#77DB6A" d="M110.578 26.757l10.47-3.967v28.575l-10.47 3.967V26.757zM83.438 46.12l10.47-3.967v18.735l-10.47 3.968V46.12zm13.753 0l10.47-3.967v13.815l-10.47 3.968V46.12z"/>
        </g>
        <path fill="#9FCBFA" d="M67.485 102.714a5.017 5.017 0 0 1 5.174 1.045l19.376 11.668c.014 4.521.014 6.978 0 7.37a2.09 2.09 0 0 1-.531 1.323 2.036 2.036 0 0 1-.772.538L37.56 145.559a2.01 2.01 0 0 1-2.213-.511l-18.845-20.339a2.099 2.099 0 0 1-.542-1.668c.035-.312.035-2.504 0-6.575l51.526-13.752z"/>
        <path fill="url(#f)" d="M1.895 19.225L52.095.608a5.017 5.017 0 0 1 5.173 1.046L75.983 19.08c.83.773.889 2.087.13 2.934a2.036 2.036 0 0 1-.771.538L22.169 43.454a2.01 2.01 0 0 1-2.213-.512L1.11 22.604a2.106 2.106 0 0 1 .082-2.936 2.03 2.03 0 0 1 .702-.443z" transform="translate(15.39 95.121)"/>
        <path fill="#014799" d="M52.207 122.286l-2.616-1.559-4.358 1.723.913 2.232-2.958 1.17-4.143-11.573 2.64-1.044 13.544 7.857-3.022 1.194zm-9.523-5.92l1.612 3.898 2.832-1.12-4.444-2.777zm16.386-5.935c.518.567.832 1.092.943 1.577.11.485.068.928-.128 1.329-.197.4-.515.763-.956 1.087-.44.323-.953.6-1.536.83l-1.352.535 3.344 3.66-2.72 1.075-8.868-9.705 4.136-1.635a9.276 9.276 0 0 1 1.87-.524 6.4 6.4 0 0 1 1.864-.046c.61.076 1.203.258 1.777.547.575.29 1.117.713 1.626 1.27zm-2.708 1.089a1.998 1.998 0 0 0-.672-.5 2.07 2.07 0 0 0-.743-.172 2.677 2.677 0 0 0-.763.077 5.86 5.86 0 0 0-.745.24l-1.193.47 2.092 2.29 1.145-.453c.254-.1.482-.215.682-.344.2-.129.35-.275.453-.44a.754.754 0 0 0 .105-.536c-.032-.193-.152-.404-.36-.632zm10.98 4.784l-8.867-9.705 2.736-1.082 8.868 9.705-2.736 1.082z"/>
    </g>
</svg>
