<svg xmlns="http://www.w3.org/2000/svg" xmlns:xlink="http://www.w3.org/1999/xlink" width="635" height="497" viewBox="0 0 635 497">
    <defs>
        <path id="a" d="M.569 192.482c89.952-88.635 147.393-148.688 172.325-180.16 12.762-16.112 60.966-16.112 144.612 0L678 209.07V548H.569V192.482z"/>
        <filter id="b" width="101.7%" height="110.7%" x="-.8%" y="-1.7%" filterUnits="objectBoundingBox">
            <feOffset dy="2" in="SourceAlpha" result="shadowOffsetOuter1"/>
            <feGaussianBlur in="shadowOffsetOuter1" result="shadowBlurOuter1" stdDeviation="3"/>
            <feColorMatrix in="shadowBlurOuter1" result="shadowMatrixOuter1" values="0 0 0 0 0 0 0 0 0 0 0 0 0 0 0 0 0 0 0.1 0"/>
            <feMerge>
                <feMergeNode in="shadowMatrixOuter1"/>
                <feMergeNode in="SourceGraphic"/>
            </feMerge>
        </filter>
        <linearGradient id="d" x1="50%" x2="50%" y1="0%" y2="100%">
            <stop offset="0%" stop-color="#E7F5FF"/>
            <stop offset="100%" stop-color="#D8F3FF"/>
        </linearGradient>
        <linearGradient id="e" x1="50%" x2="50%" y1="100%" y2="0%">
            <stop offset="0%" stop-color="#A1ED93"/>
            <stop offset="100%" stop-color="#68D75A"/>
        </linearGradient>
        <linearGradient id="f" x1="73.262%" x2="73.262%" y1="85.959%" y2="-26.027%">
            <stop offset="0%" stop-color="#55BFFB"/>
            <stop offset="100%" stop-color="#0C8FDA"/>
        </linearGradient>
        <linearGradient id="g" x1="41.622%" x2="95.307%" y1="75.407%" y2="-11.845%">
            <stop offset="0%" stop-color="#55BFFB"/>
            <stop offset="100%" stop-color="#258BC3"/>
        </linearGradient>
        <linearGradient id="h" x1="109.536%" x2="20.996%" y1="-2.014%" y2="105.413%">
            <stop offset="0%" stop-color="#55BFFB"/>
            <stop offset="100%" stop-color="#3EA8E4"/>
        </linearGradient>
        <linearGradient id="k" x1="50%" x2="50%" y1="0%" y2="112.105%">
            <stop offset="0%" stop-color="#FDFEFE"/>
            <stop offset="100%" stop-color="#DCF4FF"/>
        </linearGradient>
        <path id="j" d="M100.623 111.575h25.11v-7.926h-25.11z"/>
        <filter id="i" width="458.4%" height="1235.5%" x="-179.2%" y="-567.7%" filterUnits="objectBoundingBox">
            <feOffset in="SourceAlpha" result="shadowOffsetOuter1"/>
            <feGaussianBlur in="shadowOffsetOuter1" result="shadowBlurOuter1" stdDeviation="15"/>
            <feColorMatrix in="shadowBlurOuter1" values="0 0 0 0 0.0352941176 0 0 0 0 0.505882353 0 0 0 0 0.745098039 0 0 0 0.2 0"/>
        </filter>
        <path id="m" d="M103.266 139.317h25.11v-7.926h-25.11z"/>
        <filter id="l" width="458.4%" height="1235.5%" x="-179.2%" y="-567.7%" filterUnits="objectBoundingBox">
            <feOffset in="SourceAlpha" result="shadowOffsetOuter1"/>
            <feGaussianBlur in="shadowOffsetOuter1" result="shadowBlurOuter1" stdDeviation="15"/>
            <feColorMatrix in="shadowBlurOuter1" values="0 0 0 0 0.0352941176 0 0 0 0 0.505882353 0 0 0 0 0.745098039 0 0 0 0.2 0"/>
        </filter>
        <path id="o" d="M105.91 167.058h25.109v-7.926h-25.11z"/>
        <filter id="n" width="458.4%" height="1235.5%" x="-179.2%" y="-567.7%" filterUnits="objectBoundingBox">
            <feOffset in="SourceAlpha" result="shadowOffsetOuter1"/>
            <feGaussianBlur in="shadowOffsetOuter1" result="shadowBlurOuter1" stdDeviation="15"/>
            <feColorMatrix in="shadowBlurOuter1" values="0 0 0 0 0.0352941176 0 0 0 0 0.505882353 0 0 0 0 0.745098039 0 0 0 0.2 0"/>
        </filter>
        <path id="q" d="M108.553 194.8h25.11v-7.926h-25.11z"/>
        <filter id="p" width="458.4%" height="1235.5%" x="-179.2%" y="-567.7%" filterUnits="objectBoundingBox">
            <feOffset in="SourceAlpha" result="shadowOffsetOuter1"/>
            <feGaussianBlur in="shadowOffsetOuter1" result="shadowBlurOuter1" stdDeviation="15"/>
            <feColorMatrix in="shadowBlurOuter1" values="0 0 0 0 0.0352941176 0 0 0 0 0.505882353 0 0 0 0 0.745098039 0 0 0 0.2 0"/>
        </filter>
        <path id="s" d="M111.196 222.541h25.11v-7.926h-25.11z"/>
        <filter id="r" width="458.4%" height="1235.5%" x="-179.2%" y="-567.7%" filterUnits="objectBoundingBox">
            <feOffset in="SourceAlpha" result="shadowOffsetOuter1"/>
            <feGaussianBlur in="shadowOffsetOuter1" result="shadowBlurOuter1" stdDeviation="15"/>
            <feColorMatrix in="shadowBlurOuter1" values="0 0 0 0 0.0352941176 0 0 0 0 0.505882353 0 0 0 0 0.745098039 0 0 0 0.2 0"/>
        </filter>
        <path id="u" d="M113.839 250.283h25.11v-7.926h-25.11z"/>
        <filter id="t" width="458.4%" height="1235.5%" x="-179.2%" y="-567.7%" filterUnits="objectBoundingBox">
            <feOffset in="SourceAlpha" result="shadowOffsetOuter1"/>
            <feGaussianBlur in="shadowOffsetOuter1" result="shadowBlurOuter1" stdDeviation="15"/>
            <feColorMatrix in="shadowBlurOuter1" values="0 0 0 0 0.0352941176 0 0 0 0 0.505882353 0 0 0 0 0.745098039 0 0 0 0.2 0"/>
        </filter>
        <path id="w" d="M116.482 278.024h25.11v-7.926h-25.11z"/>
        <filter id="v" width="458.4%" height="1235.5%" x="-179.2%" y="-567.7%" filterUnits="objectBoundingBox">
            <feOffset in="SourceAlpha" result="shadowOffsetOuter1"/>
            <feGaussianBlur in="shadowOffsetOuter1" result="shadowBlurOuter1" stdDeviation="15"/>
            <feColorMatrix in="shadowBlurOuter1" values="0 0 0 0 0.0352941176 0 0 0 0 0.505882353 0 0 0 0 0.745098039 0 0 0 0.2 0"/>
        </filter>
        <path id="y" d="M119.125 305.766h25.11v-7.926h-25.11z"/>
        <filter id="x" width="458.4%" height="1235.5%" x="-179.2%" y="-567.7%" filterUnits="objectBoundingBox">
            <feOffset in="SourceAlpha" result="shadowOffsetOuter1"/>
            <feGaussianBlur in="shadowOffsetOuter1" result="shadowBlurOuter1" stdDeviation="15"/>
            <feColorMatrix in="shadowBlurOuter1" values="0 0 0 0 0.0352941176 0 0 0 0 0.505882353 0 0 0 0 0.745098039 0 0 0 0.2 0"/>
        </filter>
        <path id="A" d="M121.768 333.507h25.11v-7.926h-25.11z"/>
        <filter id="z" width="458.4%" height="1235.5%" x="-179.2%" y="-567.7%" filterUnits="objectBoundingBox">
            <feOffset in="SourceAlpha" result="shadowOffsetOuter1"/>
            <feGaussianBlur in="shadowOffsetOuter1" result="shadowBlurOuter1" stdDeviation="15"/>
            <feColorMatrix in="shadowBlurOuter1" values="0 0 0 0 0.0352941176 0 0 0 0 0.505882353 0 0 0 0 0.745098039 0 0 0 0.2 0"/>
        </filter>
        <path id="C" d="M113.873 386.125h19.114v-6.034h-19.114z"/>
        <filter id="B" width="570.9%" height="1591.7%" x="-235.4%" y="-745.8%" filterUnits="objectBoundingBox">
            <feOffset in="SourceAlpha" result="shadowOffsetOuter1"/>
            <feGaussianBlur in="shadowOffsetOuter1" result="shadowBlurOuter1" stdDeviation="15"/>
            <feColorMatrix in="shadowBlurOuter1" values="0 0 0 0 0.0352941176 0 0 0 0 0.505882353 0 0 0 0 0.745098039 0 0 0 0.2 0"/>
        </filter>
        <linearGradient id="D" x1="135.289%" x2="50%" y1="-25.427%" y2="100%">
            <stop offset="0%" stop-color="#89D7F8"/>
            <stop offset="100%" stop-color="#FFF" stop-opacity="0"/>
        </linearGradient>
        <linearGradient id="E" x1="73.262%" x2="73.262%" y1="85.959%" y2="-60.564%">
            <stop offset="0%" stop-color="#55BFFB"/>
            <stop offset="100%" stop-color="#3EA8E4"/>
        </linearGradient>
        <linearGradient id="F" x1="50%" x2="50%" y1="-42.869%" y2="154.43%">
            <stop offset="0%" stop-color="#7BD2FA"/>
            <stop offset="100%" stop-color="#D3F0FE" stop-opacity="0"/>
        </linearGradient>
        <linearGradient id="I" x1="50%" x2="50%" y1="0%" y2="112.105%">
            <stop offset="0%" stop-color="#DEFFFF"/>
            <stop offset="100%" stop-color="#DCF4FF"/>
        </linearGradient>
        <path id="H" d="M0 37.106V212h89.965V37.106h-9.654V23.22L47.027 0 9.654 23.219v13.887z"/>
        <filter id="G" width="200%" height="142.5%" x="-50%" y="-21.2%" filterUnits="objectBoundingBox">
            <feOffset in="SourceAlpha" result="shadowOffsetOuter1"/>
            <feGaussianBlur in="shadowOffsetOuter1" result="shadowBlurOuter1" stdDeviation="15"/>
            <feColorMatrix in="shadowBlurOuter1" values="0 0 0 0 0.0352941176 0 0 0 0 0.505882353 0 0 0 0 0.745098039 0 0 0 0.2 0"/>
        </filter>
        <linearGradient id="J" x1="73.262%" x2="73.262%" y1="85.959%" y2="-60.564%">
            <stop offset="0%" stop-color="#52BFF8"/>
            <stop offset="100%" stop-color="#2A91D3"/>
        </linearGradient>
        <linearGradient id="M" x1="50%" x2="50%" y1="125.171%" y2="4.323%">
            <stop offset="0%" stop-color="#95DEFF"/>
            <stop offset="100%" stop-color="#D3F0FE"/>
        </linearGradient>
        <path id="L" d="M.119 11.063H124V177H.119z"/>
        <filter id="K" width="172.7%" height="154.2%" x="-36.3%" y="-27.1%" filterUnits="objectBoundingBox">
            <feOffset in="SourceAlpha" result="shadowOffsetOuter1"/>
            <feGaussianBlur in="shadowOffsetOuter1" result="shadowBlurOuter1" stdDeviation="15"/>
            <feColorMatrix in="shadowBlurOuter1" values="0 0 0 0 0.0352941176 0 0 0 0 0.505882353 0 0 0 0 0.745098039 0 0 0 0.2 0"/>
        </filter>
        <linearGradient id="N" x1="-27.079%" x2="146.523%" y1="12.697%" y2="12.697%">
            <stop offset="0%" stop-color="#3CB0EC"/>
            <stop offset="100%" stop-color="#2A91D3"/>
        </linearGradient>
        <linearGradient id="O" x1="0%" x2="146.523%" y1="12.697%" y2="12.697%">
            <stop offset="0%" stop-color="#52BFF8"/>
            <stop offset="100%" stop-color="#2A91D3"/>
        </linearGradient>
        <linearGradient id="P" x1="50%" x2="50%" y1="-11.283%" y2="100%">
            <stop offset="0%" stop-color="#B9EAFF"/>
            <stop offset="100%" stop-color="#FFF"/>
        </linearGradient>
        <path id="R" d="M0 19h119.95v115H0z"/>
        <filter id="Q" width="175%" height="178.3%" x="-37.5%" y="-39.1%" filterUnits="objectBoundingBox">
            <feOffset in="SourceAlpha" result="shadowOffsetOuter1"/>
            <feGaussianBlur in="shadowOffsetOuter1" result="shadowBlurOuter1" stdDeviation="15"/>
            <feColorMatrix in="shadowBlurOuter1" values="0 0 0 0 0.0352941176 0 0 0 0 0.505882353 0 0 0 0 0.745098039 0 0 0 0.2 0"/>
        </filter>
        <linearGradient id="S" x1="-27.079%" x2="103.193%" y1="12.697%" y2="12.697%">
            <stop offset="0%" stop-color="#3CB0EC"/>
            <stop offset="100%" stop-color="#2187C0"/>
        </linearGradient>
        <linearGradient id="T" x1="188.916%" x2="29.028%" y1="-63.352%" y2="108.751%">
            <stop offset="0%" stop-color="#268DC5"/>
            <stop offset="100%" stop-color="#FFF"/>
        </linearGradient>
        <path id="V" d="M115 24.432h-10V20.87c0-4.216-3.358-7.635-7.5-7.635-4.142 0-7.5 3.419-7.5 7.635v3.563H80V20.87c0-4.216-3.358-7.635-7.5-7.635-4.142 0-7.5 3.419-7.5 7.635v3.563H55V20.87c0-4.216-3.358-7.635-7.5-7.635-4.142 0-7.5 3.419-7.5 7.635v3.563H30V20.87c0-4.216-3.358-7.635-7.5-7.635-4.142 0-7.5 3.419-7.5 7.635v3.563H5V113h135V24.432h-10V20.87c0-4.216-3.358-7.635-7.5-7.635-4.142 0-7.5 3.419-7.5 7.635v3.563z"/>
        <filter id="U" width="166.7%" height="190.2%" x="-33.3%" y="-45.1%" filterUnits="objectBoundingBox">
            <feOffset in="SourceAlpha" result="shadowOffsetOuter1"/>
            <feGaussianBlur in="shadowOffsetOuter1" result="shadowBlurOuter1" stdDeviation="15"/>
            <feColorMatrix in="shadowBlurOuter1" values="0 0 0 0 0.0352941176 0 0 0 0 0.505882353 0 0 0 0 0.745098039 0 0 0 0.2 0"/>
        </filter>
        <linearGradient id="W" x1="73.262%" x2="73.262%" y1="85.959%" y2="-26.027%">
            <stop offset="0%" stop-color="#55BFFB"/>
            <stop offset="100%" stop-color="#0B70A9"/>
        </linearGradient>
    </defs>
    <g fill="none" fill-rule="evenodd">
        <g transform="translate(0 -51)">
            <mask id="c" fill="#fff">
                <use xlink:href="#a"/>
            </mask>
            <use fill="#D8D8D8" fill-opacity="0" xlink:href="#a"/>
            <g filter="url(#b)" mask="url(#c)">
                <path fill="url(#d)" d="M0 0h88.527v176.983H0z" opacity=".96" transform="translate(467.993 339.41)"/>
                <path fill="url(#e)" d="M16.473 28.888h13.059V15.724H16.473z" transform="translate(467.993 339.41)"/>
                <path fill="url(#f)" d="M38.237 28.888h13.059V15.724H38.237zM60.001 28.888H73.06V15.724H60zM16.473 50.828h13.059V37.664H16.473z" opacity=".99" transform="translate(467.993 339.41)"/>
                <path fill="url(#e)" d="M38.237 50.828h13.059V37.664H38.237z" transform="translate(467.993 339.41)"/>
                <path fill="url(#f)" d="M60.001 50.828H73.06V37.664H60zM16.473 72.768h13.059V59.604H16.473zM38.237 72.768h13.059V59.604H38.237zM60.001 72.768H73.06V59.604H60zM16.473 94.708h13.059V81.544H16.473zM38.237 94.708h13.059V81.544H38.237zM60.001 94.708H73.06V81.544H60zM16.473 136.408h13.059v-13.123H16.473zM38.237 136.408h13.059v-13.123H38.237zM60.001 136.408H73.06v-13.123H60zM16.473 158.279h13.059v-13.123H16.473zM38.237 158.279h13.059v-13.123H38.237zM60.001 158.279H73.06v-13.123H60z" opacity=".99" transform="translate(467.993 339.41)"/>
                <path fill="url(#g)" d="M108.907 45.524H70.634L27.938 464.831h123.665z" opacity=".99" transform="translate(334 82)"/>
                <path fill="url(#h)" d="M122.861 97.044H89.237L51.726 465.428h108.646z" opacity=".99" transform="translate(334 82)"/>
                <g opacity=".96" transform="translate(334 82)">
                    <use fill="#000" filter="url(#i)" xlink:href="#j"/>
                    <use fill="url(#k)" xlink:href="#j"/>
                </g>
                <g opacity=".96" transform="translate(334 82)">
                    <use fill="#000" filter="url(#l)" xlink:href="#m"/>
                    <use fill="url(#k)" xlink:href="#m"/>
                </g>
                <g opacity=".96" transform="translate(334 82)">
                    <use fill="#000" filter="url(#n)" xlink:href="#o"/>
                    <use fill="url(#k)" xlink:href="#o"/>
                </g>
                <g opacity=".96" transform="translate(334 82)">
                    <use fill="#000" filter="url(#p)" xlink:href="#q"/>
                    <use fill="url(#k)" xlink:href="#q"/>
                </g>
                <g opacity=".96" transform="translate(334 82)">
                    <use fill="#000" filter="url(#r)" xlink:href="#s"/>
                    <use fill="url(#k)" xlink:href="#s"/>
                </g>
                <g opacity=".96" transform="translate(334 82)">
                    <use fill="#000" filter="url(#t)" xlink:href="#u"/>
                    <use fill="url(#k)" xlink:href="#u"/>
                </g>
                <g opacity=".96" transform="translate(334 82)">
                    <use fill="#000" filter="url(#v)" xlink:href="#w"/>
                    <use fill="url(#k)" xlink:href="#w"/>
                </g>
                <g opacity=".96" transform="translate(334 82)">
                    <use fill="#000" filter="url(#x)" xlink:href="#y"/>
                    <use fill="url(#k)" xlink:href="#y"/>
                </g>
                <g opacity=".96" transform="translate(334 82)">
                    <use fill="#000" filter="url(#z)" xlink:href="#A"/>
                    <use fill="url(#k)" xlink:href="#A"/>
                </g>
                <g opacity=".96" transform="translate(334 82)">
                    <use fill="#000" filter="url(#B)" xlink:href="#C"/>
                    <use fill="url(#k)" xlink:href="#C"/>
                </g>
                <path fill="url(#D)" d="M143.964 321.618L.185 464.932l143.78-.183z" opacity=".9" style="mix-blend-mode:multiply" transform="translate(334 82)"/>
                <path fill="url(#E)" d="M41.153 36.277h95.152v33.026H41.153z" opacity=".99" transform="translate(334 82)"/>
                <path fill="url(#e)" d="M88.73.344l17.18 35.933H71.55z" transform="translate(334 82)"/>
                <g>
                    <path fill="#FFF" d="M103 361h183v187H103z" opacity=".96"/>
                    <path fill="url(#F)" d="M.088 0H187v187H.088z" opacity=".6" transform="translate(99 361)"/>
                    <path fill="url(#f)" d="M24.11 33.359h28.154v-12.13H24.11zM24.11 53.576h28.154v-12.13H24.11z" opacity=".99" transform="translate(99 361)"/>
                    <path fill="url(#f)" d="M62.319 33.359h28.154v-12.13H62.319z" transform="translate(99 361)"/>
                    <path fill="url(#f)" d="M62.319 53.576h28.154v-12.13H62.319zM100.527 33.359h28.154v-12.13h-28.154zM100.527 53.576h28.154v-12.13h-28.154zM138.736 33.359h28.154v-12.13h-28.154zM138.736 53.576h28.154v-12.13h-28.154zM24.11 73.793h28.154v-12.13H24.11zM62.319 73.793h28.154v-12.13H62.319zM100.527 73.793h28.154v-12.13h-28.154zM138.736 73.793h28.154v-12.13h-28.154zM24.11 94.01h28.154V81.88H24.11zM62.319 94.01h28.154V81.88H62.319zM100.527 94.01h28.154V81.88h-28.154zM138.736 94.01h28.154V81.88h-28.154zM24.11 114.228h28.154v-12.13H24.11zM62.319 114.228h28.154v-12.13H62.319zM100.527 114.228h28.154v-12.13h-28.154zM138.736 114.228h28.154v-12.13h-28.154zM24.11 134.446h28.154v-12.13H24.11zM62.319 134.446h28.154v-12.13H62.319zM100.527 134.446h28.154v-12.13h-28.154zM138.736 134.446h28.154v-12.13h-28.154z" opacity=".99" transform="translate(99 361)"/>
                </g>
                <path fill="url(#D)" d="M550 349L432 467l118-.15z" opacity=".9" style="mix-blend-mode:multiply" transform="translate(-320 82)"/>
                <g transform="translate(321 336)">
                    <g opacity=".96">
                        <use fill="#000" filter="url(#G)" xlink:href="#H"/>
                        <use fill="url(#I)" xlink:href="#H"/>
                    </g>
                    <path fill="url(#J)" d="M0 13.124h13.383V0H0zM26.023 13.124h13.383V0H26.023zM52.046 13.124H65.43V0H52.046zM0 35.333h13.383V22.21H0zM26.023 35.333h13.383V22.21H26.023zM52.046 35.333H65.43V22.21H52.046zM0 57.543h13.383V44.419H0zM26.023 57.543h13.383V44.419H26.023zM52.046 57.543H65.43V44.419H52.046zM0 79.752h13.383V66.63H0zM26.023 79.752h13.383V66.63H26.023zM52.046 79.752H65.43V66.63H52.046zM0 101.962h13.383V88.838H0zM26.023 101.962h13.383V88.838H26.023zM52.046 101.962H65.43V88.838H52.046zM0 123.162h13.383v-13.124H0zM26.023 123.162h13.383v-13.124H26.023zM52.046 123.162H65.43v-13.124H52.046z" opacity=".99" transform="translate(12.268 43.41)"/>
                    <ellipse cx="45.494" cy="24.733" fill="url(#e)" rx="8.69" ry="8.581"/>
                </g>
                <g>
                    <g opacity=".96" transform="translate(30 371)">
                        <use fill="#000" filter="url(#K)" xlink:href="#L"/>
                        <use fill="url(#M)" xlink:href="#L"/>
                    </g>
                    <path fill="url(#N)" d="M29.81 0H124v11.063H29.81z" opacity=".99" transform="translate(30 371)"/>
                    <path fill="url(#O)" d="M7.962 19.108h109.8v7.04H7.962z" opacity=".99" transform="translate(30 371)"/>
                    <path fill="url(#P)" d="M4.119 26.148h113.643l-10.238 7.04H4.119zM4.119 42.239h113.643l-10.238 7.04H4.119zM4.119 58.33h113.643l-10.238 7.04H4.119zM4.119 74.42h113.643l-10.238 7.04H4.119zM4.119 90.511h113.643l-10.238 7.04H4.119zM4.119 106.602h113.643l-10.238 7.04H4.119zM4.119 122.693h113.643l-10.238 7.04H4.119z" style="mix-blend-mode:multiply" transform="translate(30 371)"/>
                    <path fill="url(#O)" d="M7.962 35.199h109.8v7.04H7.962zM7.962 52.295h109.8v7.04H7.962zM7.962 69.392h109.8v7.04H7.962zM7.962 86.489h109.8v7.04H7.962zM7.962 102.58h109.8v7.04H7.962zM7.962 119.676h109.8v7.04H7.962z" opacity=".99" transform="translate(30 371)"/>
                </g>
                <g>
                    <g opacity=".96" transform="translate(230 415)">
                        <use fill="#000" filter="url(#Q)" xlink:href="#R"/>
                        <use fill="url(#k)" xlink:href="#R"/>
                    </g>
                    <path fill="url(#f)" d="M72.174 30H123v-6H72.174zM72.174 44H123v-6H72.174zM72.174 58H123v-6H72.174zM72.174 72H123v-6H72.174zM72.174 86H123v-6H72.174zM72.174 100H123v-6H72.174z" opacity=".99" transform="translate(230 415)"/>
                    <path fill="url(#e)" d="M.381 13.727h13.196V7.234a6.598 6.598 0 0 0-13.195 0v6.493z" transform="translate(238.132 439)"/>
                    <path fill="url(#f)" d="M22.373 13.727H35.57V7.234a6.598 6.598 0 1 0-13.195 0v6.493zM44.366 13.727H57.56V7.234a6.598 6.598 0 0 0-13.195 0v6.493zM.381 35.545h13.196v-6.493a6.598 6.598 0 1 0-13.195 0v6.493z" opacity=".99" transform="translate(238.132 439)"/>
                    <path fill="url(#e)" d="M22.373 35.545H35.57v-6.493a6.598 6.598 0 1 0-13.195 0v6.493zM44.366 35.545H57.56v-6.493a6.598 6.598 0 1 0-13.195 0v6.493z" transform="translate(238.132 439)"/>
                    <path fill="url(#f)" d="M.381 57.364h13.196V50.87a6.598 6.598 0 1 0-13.195 0v6.494z" opacity=".99" transform="translate(238.132 439)"/>
                    <path fill="url(#e)" d="M22.373 57.364H35.57V50.87a6.598 6.598 0 1 0-13.195 0v6.494z" transform="translate(238.132 439)"/>
                    <path fill="url(#f)" d="M44.366 57.364H57.56V50.87a6.598 6.598 0 1 0-13.195 0v6.494z" opacity=".99" transform="translate(238.132 439)"/>
                    <path fill="url(#e)" d="M.381 79.182h13.196v-6.493a6.598 6.598 0 1 0-13.195 0v6.493z" transform="translate(238.132 439)"/>
                    <path fill="url(#f)" d="M22.373 79.182H35.57v-6.493a6.598 6.598 0 1 0-13.195 0v6.493zM44.366 79.182H57.56v-6.493a6.598 6.598 0 1 0-13.195 0v6.493z" opacity=".99" transform="translate(238.132 439)"/>
                    <path fill="url(#f)" d="M29.48 13l90.47-13v19H29.48z" opacity=".99" transform="translate(230 415)"/>
                </g>
                <g>
                    <path fill="url(#S)" d="M7.215 3.054h129.57L144 24.361H0z" opacity=".99" transform="translate(457 436)"/>
                    <path fill="url(#N)" d="M7.215 0h89.57L144 21.307H0z" opacity=".99" transform="translate(457 436)"/>
                    <path fill="url(#T)" d="M121 13.234l-16 8.07 16 .074zM97 13.234l-16 8.07 16 .074zM72 13.234l-16 8.07 16 .074zM47 13.234l-16 8.07 16 .074zM22 13.234l-16 8.07 16 .074z" style="mix-blend-mode:multiply" transform="translate(457 436)"/>
                    <g opacity=".96" transform="translate(457 436)">
                        <use fill="#000" filter="url(#U)" xlink:href="#V"/>
                        <use fill="url(#k)" xlink:href="#V"/>
                    </g>
                    <path fill="url(#f)" d="M26 68.3v-3.181a3.02 3.02 0 1 1 6.04 0v3.18H26zm0-9.162v-3.181a3.02 3.02 0 0 1 6.04 0v3.18H26zm0-9.163v-3.18a3.02 3.02 0 0 1 6.04 0v3.18H26zM55 68.3v-3.181a3.02 3.02 0 0 1 6.04 0v3.18H55zm0-9.162v-3.181a3.02 3.02 0 0 1 6.04 0v3.18H55zm0-9.163v-3.18a3.02 3.02 0 1 1 6.04 0v3.18H55zM84 68.3v-3.181a3.02 3.02 0 1 1 6.04 0v3.18H84zm0-9.162v-3.181a3.02 3.02 0 1 1 6.04 0v3.18H84zm0-9.163v-3.18a3.02 3.02 0 0 1 6.04 0v3.18H84zM114 68.3v-3.181a3.02 3.02 0 0 1 6.04 0v3.18H114zm0-9.162v-3.181a3.02 3.02 0 0 1 6.04 0v3.18H114zm0-9.163v-3.18a3.02 3.02 0 1 1 6.04 0v3.18H114z" opacity=".99" transform="translate(457 436)"/>
                    <g opacity=".99">
                        <path fill="url(#W)" d="M8.5 0A8.5 8.5 0 0 1 17 8.5v17.968H0V8.5A8.5 8.5 0 0 1 8.5 0z" transform="translate(478 519.477)"/>
                        <path fill="url(#f)" d="M8.5 2.036a8.5 8.5 0 0 1 8.5 8.5v16.143H0V10.536a8.5 8.5 0 0 1 8.5-8.5z" transform="translate(478 519.477)"/>
                        <path fill="url(#W)" d="M8.5 0A8.5 8.5 0 0 1 17 8.5v17.968H0V8.5A8.5 8.5 0 0 1 8.5 0z" transform="translate(507 519.477)"/>
                        <path fill="url(#f)" d="M8.5 2.036a8.5 8.5 0 0 1 8.5 8.5v16.143H0V10.536a8.5 8.5 0 0 1 8.5-8.5z" transform="translate(507 519.477)"/>
                        <g>
                            <path fill="url(#W)" d="M8.5 0A8.5 8.5 0 0 1 17 8.5v17.968H0V8.5A8.5 8.5 0 0 1 8.5 0z" transform="translate(536 519.477)"/>
                            <path fill="url(#f)" d="M8.5 2.036a8.5 8.5 0 0 1 8.5 8.5v16.143H0V10.536a8.5 8.5 0 0 1 8.5-8.5z" transform="translate(536 519.477)"/>
                        </g>
                        <g>
                            <path fill="url(#W)" d="M8.5 0A8.5 8.5 0 0 1 17 8.5v17.968H0V8.5A8.5 8.5 0 0 1 8.5 0z" transform="translate(565 519.477)"/>
                            <path fill="url(#f)" d="M8.5 2.036a8.5 8.5 0 0 1 8.5 8.5v16.143H0V10.536a8.5 8.5 0 0 1 8.5-8.5z" transform="translate(565 519.477)"/>
                        </g>
                    </g>
                    <path fill="url(#e)" d="M22.5 20.36c-1.38 0-2.5-1.14-2.5-2.545s1.12-2.545 2.5-2.545 2.5 1.14 2.5 2.545c0 1.406-1.12 2.545-2.5 2.545zm25 0c-1.38 0-2.5-1.14-2.5-2.545s1.12-2.545 2.5-2.545 2.5 1.14 2.5 2.545c0 1.406-1.12 2.545-2.5 2.545zm25 0c-1.38 0-2.5-1.14-2.5-2.545s1.12-2.545 2.5-2.545 2.5 1.14 2.5 2.545c0 1.406-1.12 2.545-2.5 2.545zm25 0c-1.38 0-2.5-1.14-2.5-2.545s1.12-2.545 2.5-2.545 2.5 1.14 2.5 2.545c0 1.406-1.12 2.545-2.5 2.545zm25 0c-1.38 0-2.5-1.14-2.5-2.545s1.12-2.545 2.5-2.545 2.5 1.14 2.5 2.545c0 1.406-1.12 2.545-2.5 2.545z" transform="translate(457 436)"/>
                    <path fill="url(#E)" d="M1 33.595h143v6.108H1zM1 72.279h143v6.108H1z" opacity=".99" transform="translate(457 436)"/>
                </g>
            </g>
            <g mask="url(#c)">
                <path fill="#9751D5" fill-opacity=".725" d="M601.292 351.964c-.57.142-1.157-.25-1.313-.875-.156-.625.18-1.247.748-1.389.57-.142 1.158.25 1.314.875.156.625-.18 1.247-.749 1.39zm-66.74 4.617c-.57.142-1.158-.25-1.314-.875-.156-.625.18-1.247.749-1.39.57-.141 1.157.25 1.313.876.156.625-.18 1.247-.749 1.389zm1.399-7.563c-.57.141-1.158-.25-1.314-.875-.155-.626.18-1.248.75-1.39.569-.141 1.156.25 1.312.875.156.626-.179 1.248-.748 1.39zm4.774-7.203c-.57.142-1.157-.25-1.313-.875-.156-.625.18-1.247.749-1.389.569-.142 1.157.25 1.313.875.156.625-.18 1.247-.749 1.39zm7.683-4.32c-.57.142-1.157-.25-1.313-.875-.156-.625.18-1.247.749-1.39.569-.141 1.157.25 1.313.876.156.625-.18 1.247-.749 1.389zm9.279-2.314c-.57.142-1.158-.25-1.314-.874-.155-.626.18-1.248.75-1.39.568-.141 1.156.25 1.312.875.156.626-.179 1.248-.748 1.39zm8.247-2.056c-.57.142-1.157-.25-1.313-.875-.156-.625.18-1.247.749-1.389.569-.142 1.157.25 1.313.875.156.625-.18 1.247-.749 1.39zm18.557-4.627c-.57.142-1.157-.25-1.313-.875-.156-.625.18-1.247.749-1.389.569-.142 1.157.25 1.313.875.156.626-.18 1.247-.749 1.39zm10.407 2.215c-.569.142-1.157-.25-1.313-.875-.156-.625.18-1.247.749-1.389.57-.142 1.157.25 1.313.875.156.625-.18 1.247-.749 1.39zm7.695 8.903c-.57.142-1.157-.25-1.313-.875-.156-.625.18-1.247.749-1.39.57-.141 1.157.25 1.313.876.156.625-.18 1.247-.749 1.389zm-8.702 17.8c-.57.143-1.157-.25-1.313-.874-.156-.626.18-1.247.749-1.39.57-.141 1.157.25 1.313.876.156.625-.18 1.247-.749 1.389zm-9.094-1.34c-.57.143-1.157-.249-1.313-.874-.156-.625.18-1.247.748-1.39.57-.141 1.158.25 1.314.876.156.625-.18 1.247-.75 1.389zm-6.1-6.895c-.569.142-1.157-.25-1.313-.875-.156-.625.18-1.247.749-1.389.57-.142 1.157.25 1.313.875.156.625-.18 1.247-.749 1.389zm-3.288-8.799c-.57.142-1.158-.25-1.314-.875-.155-.625.18-1.247.75-1.39.568-.141 1.156.25 1.312.876.156.625-.179 1.247-.748 1.389zm-1.227-9.313c-.57.142-1.158-.25-1.314-.875-.155-.625.18-1.247.75-1.39.568-.141 1.156.25 1.312.876.156.625-.179 1.247-.748 1.389zm3.179-9.21c-.57.142-1.158-.25-1.314-.874-.155-.626.18-1.248.75-1.39.568-.141 1.156.25 1.312.875.156.626-.179 1.248-.748 1.39zm4.774-7.202c-.57.142-1.157-.25-1.313-.875-.156-.625.18-1.247.749-1.389.569-.142 1.157.25 1.313.875.156.625-.18 1.247-.749 1.39zm8.714-4.577c-.57.142-1.157-.25-1.313-.875-.156-.625.18-1.247.749-1.39.569-.141 1.157.25 1.313.876.156.625-.18 1.247-.749 1.389zm8.53-.925c-.57.142-1.158-.25-1.313-.874-.156-.626.179-1.248.748-1.39.57-.141 1.158.25 1.313.875.156.626-.179 1.248-.748 1.39zm9.376 2.472c-.57.142-1.157-.25-1.313-.875-.156-.625.18-1.247.749-1.389.57-.142 1.157.25 1.313.875.156.625-.18 1.247-.749 1.39z"/>
                <path fill="#9156FF" d="M634.678 296.968l-27.517 4.262 3.356 2.967 2.154 5.106 2.015-1.206 2.722 2.484z"/>
                <path fill="#643AB2" d="M611.496 304.237l2.158 5.1 2.012-1.2z"/>
                <path fill="#7C49D9" d="M634.66 297.141l-24.146 7.228 2.154 5.105 1.02-2.137z"/>
            </g>
            <g mask="url(#c)">
                <path fill="#7ED321" fill-opacity=".716" d="M395.45 57.714c-.635 0-1.15.555-1.15 1.238 0 .684.515 1.238 1.15 1.238.635 0 1.15-.554 1.15-1.238 0-.683-.515-1.238-1.15-1.238zm-71.3 12.381c-.635 0-1.15.555-1.15 1.238 0 .684.515 1.238 1.15 1.238.635 0 1.15-.554 1.15-1.238 0-.683-.515-1.238-1.15-1.238zm3.45 7.429c-.635 0-1.15.554-1.15 1.238 0 .684.515 1.238 1.15 1.238.635 0 1.15-.554 1.15-1.238 0-.684-.515-1.238-1.15-1.238zm6.9 6.19c-.635 0-1.15.555-1.15 1.238 0 .684.515 1.238 1.15 1.238.635 0 1.15-.554 1.15-1.238 0-.683-.515-1.238-1.15-1.238zm9.2 2.476c-.635 0-1.15.555-1.15 1.239 0 .683.515 1.238 1.15 1.238.635 0 1.15-.555 1.15-1.238 0-.684-.515-1.239-1.15-1.239zm10.35 0c-.635 0-1.15.555-1.15 1.239 0 .683.515 1.238 1.15 1.238.635 0 1.15-.555 1.15-1.238 0-.684-.515-1.239-1.15-1.239zm9.2 0c-.635 0-1.15.555-1.15 1.239 0 .683.515 1.238 1.15 1.238.635 0 1.15-.555 1.15-1.238 0-.684-.515-1.239-1.15-1.239zm20.7 0c-.635 0-1.15.555-1.15 1.239 0 .683.515 1.238 1.15 1.238.635 0 1.15-.555 1.15-1.238 0-.684-.515-1.239-1.15-1.239zm10.35-4.952c-.635 0-1.15.554-1.15 1.238 0 .684.515 1.238 1.15 1.238.635 0 1.15-.554 1.15-1.238 0-.684-.515-1.238-1.15-1.238zm5.75-11.143c-.635 0-1.15.555-1.15 1.238 0 .684.515 1.238 1.15 1.238.635 0 1.15-.554 1.15-1.238 0-.683-.515-1.238-1.15-1.238zM386.25 54c-.635 0-1.15.554-1.15 1.238 0 .684.515 1.238 1.15 1.238.635 0 1.15-.554 1.15-1.238 0-.684-.515-1.238-1.15-1.238zm-9.2 3.714c-.635 0-1.15.555-1.15 1.238 0 .684.515 1.238 1.15 1.238.635 0 1.15-.554 1.15-1.238 0-.683-.515-1.238-1.15-1.238zm-4.6 8.667c-.635 0-1.15.554-1.15 1.238 0 .684.515 1.238 1.15 1.238.635 0 1.15-.554 1.15-1.238 0-.684-.515-1.238-1.15-1.238zm-1.15 9.905c-.635 0-1.15.554-1.15 1.238 0 .684.515 1.238 1.15 1.238.635 0 1.15-.554 1.15-1.238 0-.684-.515-1.238-1.15-1.238zm1.15 9.904c-.635 0-1.15.555-1.15 1.239 0 .683.515 1.238 1.15 1.238.635 0 1.15-.555 1.15-1.238 0-.684-.515-1.239-1.15-1.239zm5.75 8.667c-.635 0-1.15.554-1.15 1.238 0 .684.515 1.238 1.15 1.238.635 0 1.15-.554 1.15-1.238 0-.684-.515-1.238-1.15-1.238zm6.9 6.19c-.635 0-1.15.555-1.15 1.239 0 .683.515 1.238 1.15 1.238.635 0 1.15-.555 1.15-1.238 0-.684-.515-1.238-1.15-1.238zm10.35 2.477c-.635 0-1.15.554-1.15 1.238 0 .684.515 1.238 1.15 1.238.635 0 1.15-.554 1.15-1.238 0-.684-.515-1.238-1.15-1.238zm9.2-1.238c-.635 0-1.15.554-1.15 1.238 0 .684.515 1.238 1.15 1.238.635 0 1.15-.554 1.15-1.238 0-.684-.515-1.238-1.15-1.238zm9.2-4.953c-.635 0-1.15.555-1.15 1.238 0 .684.515 1.239 1.15 1.239.635 0 1.15-.555 1.15-1.239 0-.683-.515-1.238-1.15-1.238z"/>
                <path fill="#7ED321" d="M298.899 51.91l29.677 4.088-3.693 3.32-2.438 5.64-2.154-1.278-2.997 2.778z"/>
                <path fill="#5D9C16" d="M324.205 59.348l-2.443 5.634-2.152-1.273z"/>
                <path fill="#6FBB1B" d="M298.92 52.03l25.966 7.409-2.438 5.638-1.058-2.32z"/>
            </g>
        </g>
        <path fill="#F9B951" fill-opacity=".754" d="M187.347 299.594c-.767 0-1.389-.673-1.389-1.504 0-.83.622-1.504 1.39-1.504.767 0 1.389.674 1.389 1.504 0 .831-.622 1.504-1.39 1.504zm1.39 6.77c-.768 0-1.39-.674-1.39-1.505 0-.83.622-1.504 1.39-1.504.767 0 1.389.673 1.389 1.504 0 .83-.622 1.504-1.39 1.504zm-.695 6.768c-.767 0-1.39-.674-1.39-1.504 0-.831.623-1.504 1.39-1.504.767 0 1.39.673 1.39 1.504 0 .83-.623 1.504-1.39 1.504zm-2.779 6.016c-.767 0-1.389-.673-1.389-1.504 0-.83.622-1.504 1.39-1.504.767 0 1.389.674 1.389 1.504 0 .831-.622 1.504-1.39 1.504zm-3.473 6.017c-.767 0-1.389-.673-1.389-1.504 0-.83.622-1.504 1.39-1.504.767 0 1.389.673 1.389 1.504 0 .83-.622 1.504-1.39 1.504zm-1.389 6.017c-.767 0-1.389-.674-1.389-1.505 0-.83.622-1.504 1.39-1.504.766 0 1.388.674 1.388 1.504 0 .831-.622 1.505-1.389 1.505zm0 6.016c-.767 0-1.389-.673-1.389-1.504 0-.83.622-1.504 1.39-1.504.766 0 1.388.673 1.388 1.504 0 .83-.622 1.504-1.389 1.504zm1.39 6.017c-.768 0-1.39-.674-1.39-1.504 0-.831.622-1.505 1.39-1.505.767 0 1.389.674 1.389 1.505 0 .83-.622 1.504-1.39 1.504zm3.472 6.016c-.767 0-1.389-.673-1.389-1.504 0-.83.622-1.504 1.39-1.504.767 0 1.389.673 1.389 1.504 0 .83-.622 1.504-1.39 1.504zm4.168 3.76c-.767 0-1.39-.673-1.39-1.503 0-.831.623-1.505 1.39-1.505.767 0 1.39.674 1.39 1.505 0 .83-.623 1.504-1.39 1.504zm5.557 2.257c-.767 0-1.39-.674-1.39-1.504s.623-1.504 1.39-1.504c.767 0 1.39.673 1.39 1.504 0 .83-.623 1.504-1.39 1.504zm6.252.752c-.768 0-1.39-.673-1.39-1.504 0-.83.622-1.504 1.39-1.504.767 0 1.389.673 1.389 1.504 0 .83-.622 1.504-1.39 1.504zm5.556-.752c-.767 0-1.389-.674-1.389-1.504s.622-1.504 1.39-1.504c.767 0 1.389.673 1.389 1.504 0 .83-.622 1.504-1.39 1.504zm4.863-2.256c-.768 0-1.39-.674-1.39-1.504 0-.831.622-1.505 1.39-1.505.767 0 1.389.674 1.389 1.505 0 .83-.622 1.504-1.39 1.504zm4.862-3.76c-.767 0-1.39-.674-1.39-1.505 0-.83.623-1.504 1.39-1.504.767 0 1.39.673 1.39 1.504 0 .83-.623 1.504-1.39 1.504zm3.473-5.265c-.767 0-1.39-.674-1.39-1.504 0-.831.623-1.504 1.39-1.504.767 0 1.39.673 1.39 1.504 0 .83-.623 1.504-1.39 1.504zm-47.234-25.57c-.767 0-1.389-.674-1.389-1.505 0-.83.622-1.504 1.39-1.504.767 0 1.389.673 1.389 1.504 0 .83-.622 1.504-1.39 1.504zm-42.37-29.332c-.768 0-1.39-.673-1.39-1.504 0-.83.622-1.504 1.39-1.504.766 0 1.388.674 1.388 1.504 0 .831-.622 1.504-1.389 1.504zm1.388 6.017c-.767 0-1.389-.673-1.389-1.504 0-.83.622-1.504 1.39-1.504.767 0 1.389.673 1.389 1.504 0 .83-.622 1.504-1.39 1.504zm4.168 3.76c-.767 0-1.39-.673-1.39-1.504 0-.83.623-1.504 1.39-1.504.767 0 1.39.674 1.39 1.504 0 .831-.623 1.504-1.39 1.504zm5.557 2.257c-.767 0-1.39-.674-1.39-1.505 0-.83.623-1.504 1.39-1.504.767 0 1.39.674 1.39 1.504 0 .831-.623 1.505-1.39 1.505zm6.251 0c-.767 0-1.389-.674-1.389-1.505 0-.83.622-1.504 1.39-1.504.767 0 1.389.674 1.389 1.504 0 .831-.622 1.505-1.39 1.505zm5.557 0c-.767 0-1.389-.674-1.389-1.505 0-.83.622-1.504 1.39-1.504.767 0 1.389.674 1.389 1.504 0 .831-.622 1.505-1.39 1.505zm12.503 0c-.767 0-1.389-.674-1.389-1.505 0-.83.622-1.504 1.39-1.504.767 0 1.389.674 1.389 1.504 0 .831-.622 1.505-1.39 1.505zm6.252 3.008c-.767 0-1.39-.674-1.39-1.504 0-.831.623-1.504 1.39-1.504.767 0 1.39.673 1.39 1.504 0 .83-.623 1.504-1.39 1.504zm3.473 6.769c-.767 0-1.39-.674-1.39-1.505 0-.83.623-1.504 1.39-1.504.767 0 1.39.674 1.39 1.504 0 .831-.623 1.505-1.39 1.505zm-8.335 9.777c-.768 0-1.39-.674-1.39-1.505 0-.83.622-1.504 1.39-1.504.767 0 1.389.674 1.389 1.504 0 .831-.622 1.505-1.39 1.505zm-5.557-2.257c-.768 0-1.39-.673-1.39-1.504 0-.83.622-1.504 1.39-1.504.767 0 1.389.673 1.389 1.504 0 .83-.622 1.504-1.39 1.504zm-2.779-5.264c-.767 0-1.389-.674-1.389-1.504 0-.831.622-1.504 1.39-1.504.767 0 1.388.673 1.388 1.504 0 .83-.621 1.504-1.389 1.504zm-.694-6.017c-.768 0-1.39-.673-1.39-1.504 0-.83.622-1.504 1.39-1.504.767 0 1.389.673 1.389 1.504 0 .83-.622 1.504-1.39 1.504zm.694-6.016c-.767 0-1.389-.674-1.389-1.505 0-.83.622-1.504 1.39-1.504.767 0 1.388.674 1.388 1.504 0 .831-.621 1.505-1.389 1.505zm3.473-5.265c-.767 0-1.389-.673-1.389-1.504 0-.83.622-1.504 1.39-1.504.767 0 1.389.673 1.389 1.504 0 .83-.622 1.504-1.39 1.504zm4.168-3.76c-.767 0-1.39-.674-1.39-1.504 0-.831.623-1.505 1.39-1.505.767 0 1.39.674 1.39 1.505 0 .83-.623 1.504-1.39 1.504zm6.251-1.504c-.767 0-1.389-.674-1.389-1.505 0-.83.622-1.504 1.39-1.504.767 0 1.389.674 1.389 1.504 0 .831-.622 1.505-1.39 1.505zm5.557.752c-.767 0-1.389-.674-1.389-1.504 0-.831.622-1.505 1.39-1.505.767 0 1.389.674 1.389 1.505 0 .83-.622 1.504-1.39 1.504zm5.557 3.008c-.767 0-1.389-.673-1.389-1.504 0-.83.622-1.504 1.39-1.504.766 0 1.388.673 1.388 1.504 0 .83-.622 1.504-1.389 1.504zm59.737 58.662c-.767 0-1.39-.674-1.39-1.504 0-.831.623-1.505 1.39-1.505.767 0 1.389.674 1.389 1.505 0 .83-.622 1.504-1.39 1.504zm-1.39-6.017c-.767 0-1.389-.673-1.389-1.504 0-.83.622-1.504 1.39-1.504.767 0 1.389.673 1.389 1.504 0 .83-.622 1.504-1.39 1.504zm-4.167-3.76c-.767 0-1.39-.674-1.39-1.504 0-.831.623-1.505 1.39-1.505.767 0 1.39.674 1.39 1.505 0 .83-.623 1.504-1.39 1.504zm-5.557-2.256c-.767 0-1.39-.674-1.39-1.505 0-.83.623-1.504 1.39-1.504.767 0 1.39.674 1.39 1.504 0 .831-.623 1.505-1.39 1.505zm-6.251 0c-.768 0-1.39-.674-1.39-1.505 0-.83.622-1.504 1.39-1.504.767 0 1.389.674 1.389 1.504 0 .831-.622 1.505-1.39 1.505z"/>
        <path fill="#F5A623" d="M101.437 267.953l35.5 4.954-4.408 3.957-2.902 6.73-2.58-1.532-3.576 3.31z"/>
        <path fill="#B07618" d="M132.263 277.2l-3.223 7.173-2.605-1.519z"/>
        <path fill="#D8911E" d="M101.323 268.045l31.054 8.965-2.881 6.7-1.276-2.768z"/>
    </g>
</svg>
