<?xml version="1.0" encoding="UTF-8"?>
<svg width="618px" height="653px" viewBox="0 0 618 653" version="1.1" xmlns="http://www.w3.org/2000/svg" xmlns:xlink="http://www.w3.org/1999/xlink">
    <!-- Generator: Sketch 47.1 (45422) - http://www.bohemiancoding.com/sketch -->
    <title>ill_Phone Number</title>
    <desc>Created with Sketch.</desc>
    <defs>
        <polygon id="path-1" points="0 0 682 0 682 579.992369 13.9493922 771.365721"></polygon>
        <filter x="-11.1%" y="-9.6%" width="122.2%" height="122.9%" filterUnits="objectBoundingBox" id="filter-3">
            <feOffset dx="0" dy="12" in="SourceAlpha" result="shadowOffsetOuter1"></feOffset>
            <feGaussianBlur stdDeviation="21" in="shadowOffsetOuter1" result="shadowBlurOuter1"></feGaussianBlur>
            <feColorMatrix values="0 0 0 0 0   0 0 0 0 0   0 0 0 0 0  0 0 0 0.1 0" type="matrix" in="shadowBlurOuter1" result="shadowMatrixOuter1"></feColorMatrix>
            <feMerge>
                <feMergeNode in="shadowMatrixOuter1"></feMergeNode>
                <feMergeNode in="SourceGraphic"></feMergeNode>
            </feMerge>
        </filter>
        <radialGradient cx="37.5374421%" cy="94.1217281%" fx="37.5374421%" fy="94.1217281%" r="77.6544498%" gradientTransform="translate(0.375374,0.941217),scale(0.378690,1.000000),rotate(-38.322208),scale(1.000000,1.563395),translate(-0.375374,-0.941217)" id="radialGradient-4">
            <stop stop-color="#91C6FF" offset="0%"></stop>
            <stop stop-color="#FEFEFE" stop-opacity="0" offset="100%"></stop>
        </radialGradient>
        <linearGradient x1="93.5816921%" y1="13.8354266%" x2="38.7508816%" y2="37.446903%" id="linearGradient-5">
            <stop stop-color="#404277" offset="0%"></stop>
            <stop stop-color="#262755" offset="100%"></stop>
        </linearGradient>
        <polyline id="path-6" points="161.118679 376.718754 0 302.115059 0 0 161.118679 74.6036947"></polyline>
        <linearGradient x1="50%" y1="21.1380429%" x2="50%" y2="95.7999354%" id="linearGradient-8">
            <stop stop-color="#35E072" offset="0%"></stop>
            <stop stop-color="#1C9145" offset="100%"></stop>
        </linearGradient>
        <linearGradient x1="50%" y1="12.6974887%" x2="91.5077979%" y2="109.345321%" id="linearGradient-9">
            <stop stop-color="#48C7FF" offset="0%"></stop>
            <stop stop-color="#1F7DC2" offset="100%"></stop>
        </linearGradient>
        <polygon id="path-10" points="4.99263663 0.828505814 74.5145253 32.9929053 74.5145253 65.5341176 4.99263663 33.3697182 4.99263663 23.1777958 0 12.2705978 4.99263663 10.907198"></polygon>
        <polygon id="path-11" points="4.99263663 0.828505814 74.5145253 32.9929053 74.5145253 65.5341176 4.99263663 33.3697182 4.99263663 23.1777958 0 12.2705978 4.99263663 10.907198"></polygon>
        <polygon id="path-12" points="4.99263663 0.828505814 74.5145253 32.9929053 74.5145253 65.5341176 4.99263663 33.3697182 4.99263663 23.1777958 0 12.2705978 4.99263663 10.907198"></polygon>
        <linearGradient x1="78.0389609%" y1="-31.4547257%" x2="91.5077979%" y2="109.345321%" id="linearGradient-13">
            <stop stop-color="#48C7FF" offset="0%"></stop>
            <stop stop-color="#1F7DC2" offset="100%"></stop>
        </linearGradient>
        <path d="M31.8528066,72.4754122 L14.6695855,65.1014084 C11.5641791,63.768755 9.04674988,60.1666044 9.04674988,57.0557799 L9.04674988,3.71632835 C9.04674988,0.605503816 11.5641791,-0.835988692 14.6695855,0.496664719 L67.916135,23.3468773 C71.0215413,24.6795308 73.5389706,28.2816813 73.5389706,31.3925059 L73.5389706,84.7319574 C73.5389706,87.842782 71.0215413,89.2842745 67.916135,87.9516211 L50.7062443,80.5661723 L41.250263,89.9924479 L31.8528066,72.4754122 Z" id="path-14"></path>
        <filter x="-20.2%" y="-28.9%" width="180.6%" height="157.8%" filterUnits="objectBoundingBox" id="filter-15">
            <feOffset dx="13" dy="0" in="SourceAlpha" result="shadowOffsetOuter1"></feOffset>
            <feGaussianBlur stdDeviation="6.5" in="shadowOffsetOuter1" result="shadowBlurOuter1"></feGaussianBlur>
            <feComposite in="shadowBlurOuter1" in2="SourceAlpha" operator="out" result="shadowBlurOuter1"></feComposite>
            <feColorMatrix values="0 0 0 0 0.0352941176   0 0 0 0 0.505882353   0 0 0 0 0.745098039  0 0 0 0.1 0" type="matrix" in="shadowBlurOuter1"></feColorMatrix>
        </filter>
        <linearGradient x1="-21.54464%" y1="-26.5581427%" x2="50%" y2="100%" id="linearGradient-16">
            <stop stop-color="#FFFFFF" offset="0%"></stop>
            <stop stop-color="#68D75A" stop-opacity="0" offset="100%"></stop>
        </linearGradient>
        <path d="M31.8528066,72.4754122 L14.6695855,65.1014084 C11.5641791,63.768755 9.04674988,60.1666044 9.04674988,57.0557799 L9.04674988,3.71632835 C9.04674988,0.605503816 11.5641791,-0.835988692 14.6695855,0.496664719 L67.916135,23.3468773 C71.0215413,24.6795308 73.5389706,28.2816813 73.5389706,31.3925059 L73.5389706,84.7319574 C73.5389706,87.842782 71.0215413,89.2842745 67.916135,87.9516211 L50.7062443,80.5661723 L41.250263,89.9924479 L31.8528066,72.4754122 Z" id="path-17"></path>
        <filter x="-20.2%" y="-28.9%" width="180.6%" height="157.8%" filterUnits="objectBoundingBox" id="filter-18">
            <feOffset dx="13" dy="0" in="SourceAlpha" result="shadowOffsetOuter1"></feOffset>
            <feGaussianBlur stdDeviation="6.5" in="shadowOffsetOuter1" result="shadowBlurOuter1"></feGaussianBlur>
            <feComposite in="shadowBlurOuter1" in2="SourceAlpha" operator="out" result="shadowBlurOuter1"></feComposite>
            <feColorMatrix values="0 0 0 0 0.0352941176   0 0 0 0 0.505882353   0 0 0 0 0.745098039  0 0 0 0.1 0" type="matrix" in="shadowBlurOuter1"></feColorMatrix>
        </filter>
        <linearGradient x1="57.857132%" y1="9.27174755%" x2="57.857132%" y2="143.74699%" id="linearGradient-19">
            <stop stop-color="#FFFFFF" offset="0%"></stop>
            <stop stop-color="#CCE3FD" offset="100%"></stop>
        </linearGradient>
        <linearGradient x1="42.6724364%" y1="115.05642%" x2="50%" y2="3.54168126%" id="linearGradient-20">
            <stop stop-color="#48C7FF" offset="0%"></stop>
            <stop stop-color="#1F7DC2" offset="100%"></stop>
        </linearGradient>
        <linearGradient x1="118.86177%" y1="-14.131318%" x2="5.2440451%" y2="81.9920371%" id="linearGradient-21">
            <stop stop-color="#ADE9A6" offset="0%"></stop>
            <stop stop-color="#8BE17F" offset="100%"></stop>
        </linearGradient>
        <linearGradient x1="72.2586393%" y1="7.40264827%" x2="72.2586393%" y2="91.9687724%" id="linearGradient-22">
            <stop stop-color="#48C7FF" offset="0%"></stop>
            <stop stop-color="#1F7DC2" offset="100%"></stop>
        </linearGradient>
        <linearGradient x1="50%" y1="91.2964182%" x2="0%" y2="7.40264803%" id="linearGradient-23">
            <stop stop-color="#48C7FF" offset="0%"></stop>
            <stop stop-color="#1F7DC2" offset="100%"></stop>
        </linearGradient>
        <linearGradient x1="0%" y1="79.0433365%" x2="100%" y2="28.2073127%" id="linearGradient-24">
            <stop stop-color="#48C7FF" offset="0%"></stop>
            <stop stop-color="#1F7DC2" offset="100%"></stop>
        </linearGradient>
        <linearGradient x1="50%" y1="119.830722%" x2="50%" y2="-28.9197618%" id="linearGradient-25">
            <stop stop-color="#48C7FF" offset="0%"></stop>
            <stop stop-color="#1F7DC2" offset="100%"></stop>
        </linearGradient>
    </defs>
    <g id="Page-1" stroke="none" stroke-width="1" fill="none" fill-rule="evenodd">
        <g id="001-Fone-Dynamics-Homepage---@2560" transform="translate(-32.000000, -1827.000000)">
            <g id="#3-Voice-Services" transform="translate(28.000000, 1407.000000)">
                <g id="ill_Phone-Number" transform="translate(0.000000, 368.000000)">
                    <mask id="mask-2" fill="white">
                        <use xlink:href="#path-1"></use>
                    </mask>
                    <use id="Mask" fill-opacity="0" fill="#D8D8D8" xlink:href="#path-1"></use>
                    <g id="Group-45-Copy" filter="url(#filter-3)" mask="url(#mask-2)">
                        <g transform="translate(268.500000, 366.000000) scale(-1, 1) translate(-268.500000, -366.000000) translate(-43.000000, 63.000000)">
                            <g id="Group-42">
                                <path d="M553.623696,201.681542 L553.623696,294.238548 L461.046492,251.773099 L461.046492,159.216093 L553.623696,201.681542 Z M553.623696,200.765136 L461.046492,158.299687 L461.046492,128.657699 L460.129886,157.879237 L367.552682,115.413787 L367.552682,85.7717993 L366.636076,114.993337 L274.058872,72.5278873 L274.058872,42.8858997 L273.142266,72.1074373 L180.565062,29.6419876 L180.565062,0 L179.648456,29.2215376 L150,15.6216992 L179.648456,30.1379436 L179.648456,122.69495 L150,109.095111 L179.648456,123.611356 L179.648456,216.168362 L150,202.568524 L179.648456,217.084768 L179.648456,309.641774 L150,296.041936 L179.648456,310.55818 L179.648456,403.115186 L150,389.515348 L179.648456,404.031592 L179.648456,433.67358 L180.565062,404.452042 L273.142266,446.917492 L273.142266,476.55948 L274.058872,447.337942 L366.636076,489.803392 L366.636076,519.445379 L367.552682,490.223842 L460.129886,532.689291 L460.129886,562.331279 L461.046492,533.109741 L553.623696,575.575191 L553.623696,605.217179 L554.540302,575.995641 L584.188759,589.595479 L554.540302,575.079235 L554.540302,482.522229 L584.188759,496.122067 L554.540302,481.605823 L554.540302,389.048817 L584.188759,402.648655 L554.540302,388.132411 L554.540302,295.575404 L584.188759,309.175243 L554.540302,294.658998 L554.540302,202.101992 L584.188759,215.701831 L554.540302,201.185586 L554.540302,171.543599 L553.623696,200.765136 Z M180.565062,30.5583936 L273.142266,73.0238433 L273.142266,165.580849 L180.565062,123.1154 L180.565062,30.5583936 Z M274.058872,73.4442933 L366.636076,115.909743 L366.636076,208.466749 L274.058872,166.001299 L274.058872,73.4442933 Z M367.552682,116.330193 L460.129886,158.795643 L460.129886,251.352649 L367.552682,208.887199 L367.552682,116.330193 Z M553.623696,387.711961 L461.046492,345.246511 L461.046492,252.689505 L553.623696,295.154954 L553.623696,387.711961 Z M180.565062,124.031806 L273.142266,166.497255 L273.142266,259.054262 L180.565062,216.588812 L180.565062,124.031806 Z M274.058872,166.917705 L366.636076,209.383155 L366.636076,301.940161 L274.058872,259.474712 L274.058872,166.917705 Z M460.129886,252.269055 L460.129886,344.826061 L367.552682,302.360611 L367.552682,209.803605 L460.129886,252.269055 Z M553.623696,481.185373 L461.046492,438.719923 L461.046492,346.162917 L553.623696,388.628367 L553.623696,481.185373 Z M273.142266,259.970668 L273.142266,352.527674 L180.565062,310.062224 L180.565062,217.505218 L273.142266,259.970668 Z M366.636076,302.856567 L366.636076,395.413573 L274.058872,352.948124 L274.058872,260.391118 L366.636076,302.856567 Z M460.129886,345.742467 L460.129886,438.299473 L367.552682,395.834023 L367.552682,303.277017 L460.129886,345.742467 Z M553.623696,482.101779 L553.623696,574.658785 L461.046492,532.193335 L461.046492,439.636329 L553.623696,482.101779 Z M273.142266,353.44408 L273.142266,446.001086 L180.565062,403.535636 L180.565062,310.97863 L273.142266,353.44408 Z M274.058872,353.86453 L366.636076,396.329979 L366.636076,488.886986 L274.058872,446.421536 L274.058872,353.86453 Z M460.129886,439.215879 L460.129886,531.772885 L367.552682,489.307436 L367.552682,396.750429 L460.129886,439.215879 Z" id="Combined-Shape" stroke="#C6DCEA" opacity="0.623705696"></path>
                                <g id="Group-55" transform="translate(193.858926, 79.121535)">
                                    <g id="Group-33">
                                        <g id="Group-94">
                                            <polygon id="Path-21" fill="url(#radialGradient-4)" points="176.627483 486.081023 428.00471 399.725756 248.828803 324.285714 0.754357042 402.273723"></polygon>
                                            <path d="M36.6312842,2.21427068 C29.7824077,-0.943591232 23.5755355,-0.608309892 19.0939466,2.48547681 L7.75435704,8.15660467 C12.235946,5.06281797 15.9535994,8.63332478 22.8033054,11.7910932 L163.218131,76.5369425 C176.82962,82.8129267 187.82913,100.508568 187.785168,116.058334 L186.828797,468.571518 C186.813867,473.721829 184.355338,478.183775 179.453212,481.957356 L193.46699,475.517321 C197.891346,472.463787 200.63521,466.720068 200.657605,458.995427 L201.613147,106.482336 C201.657938,90.9316518 190.658428,73.2360106 177.046939,66.9600265 L36.6312842,2.21427068 Z" id="Fill-21" fill="#C6E0FD"></path>
                                            <path d="M195.151319,314.916271 L195.151319,315.45974 C195.151319,316.021191 195.729943,316.51531 196.443712,316.563385 C197.157481,316.61146 197.736105,316.195287 197.736105,315.633836 L197.736105,315.090366 C197.736105,314.528915 197.157481,314.034797 196.443712,313.986722 C195.729943,313.938647 195.151319,314.35482 195.151319,314.916271 Z" id="Path-23-Copy" fill="#6A9ED8" fill-rule="nonzero"></path>
                                            <path d="M195.151319,157.83316 L195.151319,183.006599 C195.151319,183.901563 196.019255,184.689198 197.089908,184.765831 C198.160561,184.842463 199.028497,184.179075 199.028497,183.284111 L199.028497,158.110672 C199.028497,157.215708 198.160561,156.428073 197.089908,156.35144 C196.019255,156.274807 195.151319,156.938196 195.151319,157.83316 Z" id="Path-23" fill="#6A9ED8" fill-rule="nonzero"></path>
                                            <polygon id="Path-24" fill="#FEFEFE" fill-rule="nonzero" points="189.981748 135.671642 201.613283 133.01143 201.613283 129.211087 189.981748 131.871299"></polygon>
                                            <polygon id="Path-24" fill="#FFFFFE" fill-rule="nonzero" points="188.689355 449.654584 200.32089 446.994373 200.32089 443.19403 188.689355 445.854241"></polygon>
                                            <path d="M27.6280824,7.38028798 C20.8338418,4.22610905 14.6780526,4.56082849 10.2327533,7.65029187 L5.16957136,11.2322002 C9.61487066,8.14273679 15.7714827,7.80874722 22.5649004,10.9621963 L161.84354,75.6174751 C175.34481,81.8846891 186.255252,99.5556019 186.210823,115.084555 L185.263019,467.105037 C185.240805,474.818884 182.519982,478.907172 178.13063,481.957356 L183.193812,480.021936 C187.582342,476.971845 190.303987,471.236976 190.325378,463.522399 L191.274005,111.501824 C191.318433,95.9736937 180.407992,78.3027808 166.906722,72.0355668 L27.6280824,7.38028798 Z" id="Fill-23" fill="#6A9ED8"></path>
                                            <path d="M189.981617,112.959789 L189.02868,465.5307 C188.98405,481.083931 177.952136,488.603563 164.390354,482.326458 L24.4789453,417.570099 C10.9163366,411.293087 -0.0436728267,393.594548 0.000130845649,378.042236 L0.95306734,25.471324 C0.997697497,9.91891774 12.0296111,2.3984612 25.5913933,8.67556659 L165.502802,73.4319252 C179.065411,79.708937 190.02542,97.407476 189.981617,112.959789 Z" id="Fill-24" fill="url(#linearGradient-5)"></path>
                                            <path d="M182.227272,114.384931 L181.360508,455.639247 C181.320808,469.770576 171.291811,476.603726 158.962744,470.899636 L30.0075024,411.241689 C17.6776084,405.537692 7.71477612,389.45642 7.75447527,375.324266 L8.62124002,34.0707747 C8.66093917,19.9394454 18.6899367,13.1062954 31.0190036,18.8103855 L159.975072,78.4682389 C172.303312,84.1724225 182.266971,100.253602 182.227272,114.384931 Z" id="Fill-25" fill="#262755"></path>
                                            <path d="M89.175106,431.827297 C82.7511863,428.699937 77.5435704,419.394566 77.5435704,411.04317 C77.5435704,402.691774 82.7511863,398.456856 89.175106,401.584216 C95.5990257,404.711577 100.806642,414.016948 100.806642,422.368344 C100.806642,430.71974 95.5990257,434.954658 89.175106,431.827297 Z" id="Oval-7" fill="#5171A6"></path>
                                            <path d="M89.8213024,429.325463 C83.7542671,426.448292 78.8359633,417.887351 78.8359633,410.204066 C78.8359633,402.520782 83.7542671,398.624657 89.8213024,401.501829 C95.8883377,404.379 100.806642,412.939941 100.806642,420.623226 C100.806642,428.30651 95.8883377,432.202635 89.8213024,429.325463 Z" id="Oval-7" fill="#2C2D5D"></path>
                                            <g id="Group-53" transform="translate(11.631536, 52.976546)">
                                                <mask id="mask-7" fill="white">
                                                    <use xlink:href="#path-6"></use>
                                                </mask>
                                                <use id="Fill-26" fill="#FFFFFF" xlink:href="#path-6"></use>
                                                <path d="M80.2951603,277.730491 C107.936913,290.541692 130.34498,277.06315 130.34498,247.625326 C130.34498,218.187501 107.936913,183.937899 80.2951603,171.126698 C52.6534079,158.315497 30.2453402,171.794038 30.2453402,201.231863 C30.2453402,230.669687 52.6534079,264.91929 80.2951603,277.730491 Z" id="Oval-6" fill="#C8F9E4" mask="url(#mask-7)"></path>
                                                <path d="M80.2951603,255.795719 C96.5617916,263.334861 109.748502,255.403003 109.748502,238.079418 C109.748502,220.755833 96.5617916,200.600611 80.2951603,193.061469 C64.0285289,185.522328 50.8418187,193.454186 50.8418187,210.777771 C50.8418187,228.101356 64.0285289,248.256578 80.2951603,255.795719 Z" id="Oval-6" fill="#48E7A5" opacity="0.300000012" mask="url(#mask-7)"></path>
                                                <path d="M90.112246,223.782417 C89.7775975,223.571255 89.3236428,223.553 88.8502913,223.731668 C88.3769398,223.910336 87.9229852,224.271286 87.5883367,224.735076 L86.1390258,226.743143 C85.7498001,227.282852 85.1439527,227.58351 84.6748063,227.469777 C82.698563,227.025629 80.8550855,226.320458 79.1762058,225.36644 C77.6012453,224.268359 76.2114777,222.934487 75.0308903,221.387846 C74.7424212,221.02381 74.8137707,220.38617 75.2033379,219.846707 L76.6526487,217.83864 C76.9874203,217.374927 77.1755034,216.846312 77.1755034,216.369136 C77.1755034,215.891961 76.9874203,215.505331 76.6526487,215.29434 L73.2877494,213.172706 C72.9531009,212.961544 72.4991463,212.943288 72.0257948,213.121956 C71.5524433,213.300625 71.0984886,213.661574 70.7638401,214.125365 L68.7441258,216.923981 C66.7155366,219.731461 66.4217753,223.052888 68.0456486,224.82135 C70.1222805,227.207413 72.4373917,229.337971 74.9705512,231.194221 C77.7601242,232.694694 80.7401807,233.90344 83.8844118,234.809788 C86.246763,235.55512 89.4316217,234.056849 91.4570787,231.247337 L93.4771453,228.448588 C93.8119169,227.984875 94,227.45626 94,226.979084 C94,226.501909 93.8119169,226.11528 93.4771453,225.904288 L90.112246,223.782417 Z" id="Shape" fill="#FFFFFE" fill-rule="nonzero" mask="url(#mask-7)" transform="translate(80.500000, 224.000000) scale(-1, 1) translate(-80.500000, -224.000000) "></path>
                                                <g id="Group-22" mask="url(#mask-7)">
                                                    <g transform="translate(87.030359, 114.353810) scale(-1, 1) translate(-87.030359, -114.353810) translate(47.030359, 70.853810)" id="Combined-Shape">
                                                        <path d="M37.3466155,78.0828246 C31.5717386,81.0034766 30.4402507,85.8331115 25.5589086,85.9989207 C20.3492653,86.1758817 11.4714375,81.5068584 7.94185087,78.8627497 C2.96650901,75.1355867 0,68.7681774 0,60.2186125 C0,39.9208695 16.7206493,15.009806 37.3466155,4.57819495 C48.5914815,-1.10891169 58.6756041,-1.31832103 65.5223977,2.95666232 C68.7920183,4.99813967 73.5803231,6.83875388 75.1472898,10.8173451 C76.3177916,13.7892958 74.693231,18.4950159 74.693231,22.442407 C74.693231,30.1812548 72.2626492,38.5907136 68.1117426,46.6126154 C68.909661,50.9080966 70.0418215,54.6111783 71.5082241,57.7218605 C72.4232064,59.3194274 71.9085288,60.6098865 69.9641913,61.5932379 C67.1909922,62.9957872 59.764381,66.0532484 54.4689886,65.341586 C49.3400249,70.5440065 43.5181366,74.9615692 37.3466155,78.0828246 Z" fill="url(#linearGradient-8)"></path>
                                                        <path d="M42.6093142,82.1777994 C22.1849025,92.7269595 5.62764528,84.6387526 5.62764528,64.1122838 C5.62764528,43.585815 22.1849025,18.3940403 42.6093142,7.8448802 C63.033726,-2.70427987 79.5909832,5.38392696 79.5909832,25.9103958 C79.5909832,33.736449 77.1841528,42.2406701 73.0738083,50.352967 C73.8639295,54.696852 74.9850267,58.441662 76.4370998,61.5873971 C77.343141,63.2029662 76.8334928,64.5079669 74.9081551,65.5023992 C72.1620554,66.9207532 64.8080161,70.0126675 59.5643696,69.2929857 C54.4855256,74.5540299 48.720528,79.021372 42.6093142,82.1777994 Z" fill="#68D75A"></path>
                                                        <path d="M55.3476755,42.6489866 C57.6366608,41.5018338 59.4922501,38.5016694 59.4922501,35.947932 C59.4922501,33.3941945 57.6366608,32.2539324 55.3476755,33.4010852 C53.0586901,34.5482381 51.2031008,37.5484024 51.2031008,40.1021398 C51.2031008,42.6558773 53.0586901,43.7961394 55.3476755,42.6489866 Z M42.9626202,48.8559074 C45.2516056,47.7087546 47.1071949,44.7085903 47.1071949,42.1548528 C47.1071949,39.6011154 45.2516056,38.4608533 42.9626202,39.6080061 C40.6736349,40.7551589 38.8180456,43.7553232 38.8180456,46.3090607 C38.8180456,48.8627981 40.6736349,50.0030603 42.9626202,48.8559074 Z M30.6749024,55.0140465 C32.9638877,53.8668937 34.819477,50.8667294 34.819477,48.3129919 C34.819477,45.7592545 32.9638877,44.6189923 30.6749024,45.7661452 C28.385917,46.913298 26.5303277,49.9134623 26.5303277,52.4671997 C26.5303277,55.0209372 28.385917,56.1611993 30.6749024,55.0140465 Z" fill="#F7FBFF"></path>
                                                    </g>
                                                </g>
                                                <g id="Group-31" mask="url(#mask-7)">
                                                    <g transform="translate(102.099034, 257.130064)"></g>
                                                </g>
                                                <path d="M69.4900729,322.98593 L16.8380299,298.606156 L16.8380299,298.606156 C14.4339341,297.492974 12.8952395,295.084863 12.8952395,292.435552 L12.8952395,276.170234 L12.8952395,276.170234 C12.8952395,274.761908 14.0369134,273.620234 15.4452396,273.620234 C15.8152856,273.620234 16.180898,273.700772 16.5166932,273.856257 L69.1687362,298.236031 L69.1687362,298.236031 C71.572832,299.349213 73.1115266,301.757324 73.1115266,304.406635 L73.1115266,320.671953 L73.1115266,320.671953 C73.1115266,322.080279 71.9698527,323.221953 70.5615266,323.221953 C70.1914806,323.221953 69.8258681,323.141415 69.4900729,322.98593 Z" id="Fill-26" fill="#C0E8FB" mask="url(#mask-7)"></path>
                                                <path d="M143.427502,357.39959 L90.7754593,333.019816 L90.7754593,333.019816 C88.3713635,331.906634 86.8326689,329.498524 86.8326689,326.849212 L86.8326689,310.583894 L86.8326689,310.583894 C86.8326689,309.175568 87.9743428,308.033894 89.3826689,308.033894 C89.7527149,308.033894 90.1183274,308.114432 90.4541226,308.269918 L143.106166,332.649691 L143.106166,332.649691 C145.510261,333.762874 147.048956,336.170984 147.048956,338.820296 L147.048956,355.085614 L147.048956,355.085614 C147.048956,356.49394 145.907282,357.635614 144.498956,357.635614 C144.12891,357.635614 143.763297,357.555075 143.427502,357.39959 Z" id="Fill-26-Copy" fill="#C0E8FB" mask="url(#mask-7)"></path>
                                            </g>
                                            <path d="M158.39867,65.3289324 C157.648333,65.9199988 156.418281,66.0735093 155.660644,65.6798183 C155.414008,65.5505801 155.24715,65.3793025 155.160593,65.1865399 C154.976007,64.7818636 155.139736,64.2860047 155.647087,63.8875121 C156.404202,63.2914528 157.631126,63.1342191 158.391891,63.5357576 C158.906021,63.8074688 159.076528,64.2646186 158.892463,64.7159494" id="Fill-31" fill="#262755"></path>
                                            <path d="M69.9506119,22.4049059 C68.4498532,23.2914105 65.9896652,23.5218254 64.474603,22.9312659 C63.9811351,22.7371876 63.6477554,22.4806315 63.4739139,22.1910234 C63.1053258,21.5844435 63.4321039,20.8406225 64.4470965,20.2423213 C65.9616085,19.3488999 68.4151949,19.1130585 69.9368586,19.7146393 C70.9656045,20.1225552 71.3061359,20.8082948 70.9375478,21.4857328" id="Fill-35" fill="#262755"></path>
                                            <path d="M104.683805,77.3161205 C104.678721,79.067532 103.412957,79.0910461 101.850661,78.3835485 L71.3172708,64.5622873 C69.7549752,63.8547897 68.4917524,62.6868171 68.4968358,60.934579 C68.5019192,59.1831676 69.7727671,59.1673575 71.3350627,59.8748551 L101.8693,73.6960225 C103.431596,74.4035201 104.688888,75.5638825 104.683805,77.3161205 Z" id="Fill-37" fill="#D5E3F4"></path>
                                            <path d="M120.192519,85.1971403 C120.187635,86.7988722 118.971407,86.8203666 117.470252,86.1736386 L111.270255,83.5037717 C109.769101,82.8577993 108.556129,81.7893068 108.561013,80.1883306 C108.565898,78.5865987 109.787011,78.5721466 111.288165,79.2188746 L117.488162,81.8887415 C118.989316,82.5347139 120.197404,83.5954085 120.192519,85.1971403 Z" id="Fill-38" fill="#D5E3F4"></path>
                                        </g>
                                    </g>
                                    <g id="Group-54" transform="translate(158.066377, 252.425660)">
                                        <g id="Group-32-Copy-3" transform="translate(0.000000, 0.000000)">
                                            <g id="Group-5">
                                                <polygon id="Rectangle-11-Copy" fill="url(#linearGradient-9)" points="6.53503492 0.055912622 76.0569236 32.2203121 76.0569236 64.7615244 74.5072032 65.4955978 6.53503492 32.597125 5.04814079 0.866170868"></polygon>
                                                <g id="Rectangle-11-Copy">
                                                    <use fill="#FFFFFF" fill-rule="evenodd" xlink:href="#path-10"></use>
                                                    <path stroke="#F3F4F6" stroke-width="1.02000003" d="M5.50263664,1.62639528 L5.50263664,11.2966006 L0.713674578,12.6043804 L5.45636425,22.9655301 L5.50263664,23.1777958 L5.50263664,33.0437332 L74.0045253,64.7362282 L74.0045253,33.3188903 L5.50263664,1.62639528 Z"></path>
                                                </g>
                                                <g id="Group-29" transform="translate(40.000000, 34.500000) scale(-1, 1) translate(-40.000000, -34.500000) translate(10.000000, 15.000000)">
                                                    <polygon id="Rectangle-6" fill="#7CDD6F" points="23 12.1877592 49 0 49 3.8122408 23 16"></polygon>
                                                    <polygon id="Rectangle-6-Copy" fill="#C6E0FD" points="23 19.1442158 60 2 60 3.85578419 23 21"></polygon>
                                                    <polygon id="Rectangle-6-Copy-2" fill="#C6E0FD" points="23 23.0771933 50 10 50 11.9228067 23 25"></polygon>
                                                    <polygon id="Rectangle-6-Copy-3" fill="#C6E0FD" points="23 26.0771933 50 13 50 14.9228067 23 28"></polygon>
                                                    <path d="M9,38.1525933 C13.9705627,35.7641696 18,29.0586411 18,23.1753763 C18,17.2921114 13.9705627,14.4589829 9,16.8474067 C4.02943725,19.2358304 0,25.9413589 0,31.8246237 C0,37.7078886 4.02943725,40.5410171 9,38.1525933 Z" id="Oval-6" fill="url(#linearGradient-9)"></path>
                                                    <path d="M9.5,28.8691349 C10.8084444,28.264362 12,25.6032894 12,23.2860035 C12,21.2761837 11.0888889,20.5445456 9.5,21.2789421 C7.91111111,22.0133385 7,23.5872215 7,25.5970413 C7,27.9143272 8.19155556,29.4739079 9.5,28.8691349 Z" id="Shape" fill="#FEFEFE" fill-rule="nonzero"></path>
                                                    <path d="M13.619631,28.5269501 C12.9451574,28.3725476 11.5317365,28.0659591 10.6797893,28 C10.2611158,28.7765618 9.65129096,29.4116863 9.00000001,29.7494786 C8.34672198,30.0255922 7.73527455,29.9635442 7.31631602,29.578623 C6.45963192,30.4471059 5.04952684,32.0877378 4.37800061,32.8776493 C4.14294355,33.1543875 3.99964552,33.5181438 4.00000066,33.8371871 L4.00000066,34.3833782 C3.99964345,34.8322748 4.28009558,35.0829492 4.66200057,34.9750885 C6.09612662,34.5808761 7.54591922,34.0584511 9.00000001,33.4119134 C10.4540808,32.6891977 11.9038734,31.8464074 13.3379994,30.890157 C13.7199438,30.6383662 14.0004082,30.1235262 13.9999994,29.6749441 L13.9999994,29.1310115 C14.0003525,28.810512 13.8560293,28.581313 13.619631,28.5269501 Z" id="Shape" fill="#FEFEFE" fill-rule="nonzero"></path>
                                                </g>
                                            </g>
                                        </g>
                                        <g id="Group-32-Copy-4" transform="translate(0.000000, 46.515991)">
                                            <g id="Group-5">
                                                <polygon id="Rectangle-11-Copy" fill="url(#linearGradient-9)" points="6.53503492 0.055912622 76.0569236 32.2203121 76.0569236 64.7615244 74.5072032 65.4955978 6.53503492 32.597125 5.04814079 0.866170868"></polygon>
                                                <g id="Rectangle-11-Copy">
                                                    <use fill="#FFFFFF" fill-rule="evenodd" xlink:href="#path-11"></use>
                                                    <path stroke="#F3F4F6" stroke-width="1.02000003" d="M5.50263664,1.62639528 L5.50263664,11.2966006 L0.713674578,12.6043804 L5.45636425,22.9655301 L5.50263664,23.1777958 L5.50263664,33.0437332 L74.0045253,64.7362282 L74.0045253,33.3188903 L5.50263664,1.62639528 Z"></path>
                                                </g>
                                                <g id="Group-29-Copy" transform="translate(40.000000, 34.984009) scale(-1, 1) translate(-40.000000, -34.984009) translate(10.000000, 15.484009)">
                                                    <polygon id="Rectangle-6" fill="#7CDD6F" points="23 12.1877592 49 0 49 3.8122408 23 16"></polygon>
                                                    <polygon id="Rectangle-6-Copy" fill="#C6E0FD" points="23 19.1442158 60 2 60 3.85578419 23 21"></polygon>
                                                    <polygon id="Rectangle-6-Copy-2" fill="#C6E0FD" points="23 23.0771933 50 10 50 11.9228067 23 25"></polygon>
                                                    <polygon id="Rectangle-6-Copy-3" fill="#C6E0FD" points="23 26.0771933 50 13 50 14.9228067 23 28"></polygon>
                                                    <path d="M9,38.1525933 C13.9705627,35.7641696 18,29.0586411 18,23.1753763 C18,17.2921114 13.9705627,14.4589829 9,16.8474067 C4.02943725,19.2358304 0,25.9413589 0,31.8246237 C0,37.7078886 4.02943725,40.5410171 9,38.1525933 Z" id="Oval-6" fill="url(#linearGradient-9)"></path>
                                                    <path d="M9.5,28.8691349 C10.8084444,28.264362 12,25.6032894 12,23.2860035 C12,21.2761837 11.0888889,20.5445456 9.5,21.2789421 C7.91111111,22.0133385 7,23.5872215 7,25.5970413 C7,27.9143272 8.19155556,29.4739079 9.5,28.8691349 Z" id="Shape" fill="#FEFEFE" fill-rule="nonzero"></path>
                                                    <path d="M13.619631,28.5269501 C12.9451574,28.3725476 11.5317365,28.0659591 10.6797893,28 C10.2611158,28.7765618 9.65129096,29.4116863 9.00000001,29.7494786 C8.34672198,30.0255922 7.73527455,29.9635442 7.31631602,29.578623 C6.45963192,30.4471059 5.04952684,32.0877378 4.37800061,32.8776493 C4.14294355,33.1543875 3.99964552,33.5181438 4.00000066,33.8371871 L4.00000066,34.3833782 C3.99964345,34.8322748 4.28009558,35.0829492 4.66200057,34.9750885 C6.09612662,34.5808761 7.54591922,34.0584511 9.00000001,33.4119134 C10.4540808,32.6891977 11.9038734,31.8464074 13.3379994,30.890157 C13.7199438,30.6383662 14.0004082,30.1235262 13.9999994,29.6749441 L13.9999994,29.1310115 C14.0003525,28.810512 13.8560293,28.581313 13.619631,28.5269501 Z" id="Shape" fill="#FEFEFE" fill-rule="nonzero"></path>
                                                </g>
                                            </g>
                                        </g>
                                        <g id="Group-32-Copy-5" transform="translate(0.000000, 91.739872)">
                                            <g id="Group-5">
                                                <polygon id="Rectangle-11-Copy" fill="url(#linearGradient-9)" points="6.53503492 0.055912622 76.0569236 32.2203121 76.0569236 64.7615244 74.5072032 65.4955978 6.53503492 32.597125 5.04814079 0.866170868"></polygon>
                                                <g id="Rectangle-11-Copy">
                                                    <use fill="#FFFFFF" fill-rule="evenodd" xlink:href="#path-12"></use>
                                                    <path stroke="#F3F4F6" stroke-width="1.02000003" d="M5.50263664,1.62639528 L5.50263664,11.2966006 L0.713674578,12.6043804 L5.45636425,22.9655301 L5.50263664,23.1777958 L5.50263664,33.0437332 L74.0045253,64.7362282 L74.0045253,33.3188903 L5.50263664,1.62639528 Z"></path>
                                                </g>
                                                <g id="Group-29-Copy" transform="translate(40.000000, 35.276119) scale(-1, 1) translate(-40.000000, -35.276119) translate(10.000000, 15.776119)">
                                                    <polygon id="Rectangle-6" fill="#7CDD6F" points="23 12.1877592 49 0 49 3.8122408 23 16"></polygon>
                                                    <polygon id="Rectangle-6-Copy" fill="#C6E0FD" points="23 19.1442158 60 2 60 3.85578419 23 21"></polygon>
                                                    <polygon id="Rectangle-6-Copy-2" fill="#C6E0FD" points="23 23.0771933 50 10 50 11.9228067 23 25"></polygon>
                                                    <polygon id="Rectangle-6-Copy-3" fill="#C6E0FD" points="23 26.0771933 50 13 50 14.9228067 23 28"></polygon>
                                                    <path d="M9,38.1525933 C13.9705627,35.7641696 18,29.0586411 18,23.1753763 C18,17.2921114 13.9705627,14.4589829 9,16.8474067 C4.02943725,19.2358304 0,25.9413589 0,31.8246237 C0,37.7078886 4.02943725,40.5410171 9,38.1525933 Z" id="Oval-6" fill="url(#linearGradient-9)"></path>
                                                    <path d="M9.5,28.8691349 C10.8084444,28.264362 12,25.6032894 12,23.2860035 C12,21.2761837 11.0888889,20.5445456 9.5,21.2789421 C7.91111111,22.0133385 7,23.5872215 7,25.5970413 C7,27.9143272 8.19155556,29.4739079 9.5,28.8691349 Z" id="Shape" fill="#FEFEFE" fill-rule="nonzero"></path>
                                                    <path d="M13.619631,28.5269501 C12.9451574,28.3725476 11.5317365,28.0659591 10.6797893,28 C10.2611158,28.7765618 9.65129096,29.4116863 9.00000001,29.7494786 C8.34672198,30.0255922 7.73527455,29.9635442 7.31631602,29.578623 C6.45963192,30.4471059 5.04952684,32.0877378 4.37800061,32.8776493 C4.14294355,33.1543875 3.99964552,33.5181438 4.00000066,33.8371871 L4.00000066,34.3833782 C3.99964345,34.8322748 4.28009558,35.0829492 4.66200057,34.9750885 C6.09612662,34.5808761 7.54591922,34.0584511 9.00000001,33.4119134 C10.4540808,32.6891977 11.9038734,31.8464074 13.3379994,30.890157 C13.7199438,30.6383662 14.0004082,30.1235262 13.9999994,29.6749441 L13.9999994,29.1310115 C14.0003525,28.810512 13.8560293,28.581313 13.619631,28.5269501 Z" id="Shape" fill="#FEFEFE" fill-rule="nonzero"></path>
                                                </g>
                                            </g>
                                        </g>
                                    </g>
                                </g>
                                <g id="Group-30" transform="translate(0.000000, 302.656716)">
                                    <g id="Group-54">
                                        <path d="M44.8851458,115.338667 C42.386192,114.349316 39.4974376,114.395985 36.912472,115.46747 C12.4415421,104.566662 0.206077194,96.9868774 0.206077194,96.9868774 C0.206077194,96.9868774 0.023249505,131.615152 0.000553988118,132.70681 C-0.00679695549,133.060391 0.0588646793,133.41735 0.206077194,133.759166 C0.483683746,134.403746 1.02205835,134.911586 1.71126527,135.178985 L39.2116066,151.899467 C41.6475812,152.844579 44.4476186,152.810871 46.9742667,151.806016 L82.0499226,135.289482 C83.206443,134.829531 83.9388067,133.799123 83.9958445,132.720986 C84.0087647,132.476766 84.0087647,120.703567 83.9958445,97.4013887 L44.8851458,115.338667 Z" id="Rectangle-5-Copy" fill="url(#linearGradient-13)"></path>
                                        <path d="M39.4002631,151.918936 L1.71949858,135.290319 C1.02697572,135.024293 0.486010865,134.519936 0.207068681,133.880236 C0.0591478914,133.541009 -0.00682965728,133.186853 0.000556653487,132.83613 C0.023361364,131.753297 0.207068681,97.4043451 0.207068681,97.4043451 L37.0900668,115.777985 C39.6874693,114.718069 40.8467185,115.442296 43.3576953,116.426508 L43.3576953,152.600926 C41.9999871,152.626904 40.6522699,152.399882 39.4002631,151.918936 Z" id="Combined-Shape" fill="url(#linearGradient-9)"></path>
                                        <path d="M82.3129079,95.3677276 L44.8884031,78.1901703 C42.389268,77.1801656 39.5003039,77.2282642 36.9151507,78.3229176 L1.90541168,95.2778786 C0.365139041,95.9300893 -0.395672227,97.6154254 0.206092149,99.0421821 C0.483718847,99.7004227 1.02213252,100.218977 1.71138945,100.491956 L39.2144522,117.530668 C41.6506036,118.495502 44.4508441,118.460654 46.9776756,117.434055 L82.0558769,100.592646 C83.6054726,99.9630776 84.3936472,98.287881 83.8163141,96.8509894 C83.5467566,96.180103 83.0081339,95.6486974 82.3129079,95.3677276 Z" id="Rectangle-5" fill="#319DDC"></path>
                                        <g id="Combined-Shape" opacity="0.959701528">
                                            <use fill="black" fill-opacity="1" filter="url(#filter-15)" xlink:href="#path-14"></use>
                                            <use fill="#FFFFFF" fill-rule="evenodd" xlink:href="#path-14"></use>
                                            <path stroke="#F3F4F6" stroke-width="1.25" d="M41.4039141,88.9567833 L50.5643251,79.8251494 L68.1626103,87.3772737 C70.8734888,88.5406195 72.9139706,87.3722295 72.9139706,84.7319574 L72.9139706,31.3925059 C72.9139706,28.5385648 70.5512953,25.1578492 67.6696597,23.9212247 L14.4231102,1.07101211 C11.7122317,-0.0923337116 9.67174988,1.07605631 9.67174988,3.71632835 L9.67174988,57.0557799 C9.67174988,59.909721 12.0344252,63.2904366 14.9160608,64.527061 L32.3001986,71.9872862 L41.4039141,88.9567833 Z"></path>
                                        </g>
                                    </g>
                                    <g id="Group-54-Copy-2" transform="translate(86.590320, 40.055437)">
                                        <path d="M44.8851458,115.338667 C42.386192,114.349316 39.4974376,114.395985 36.912472,115.46747 C12.4415421,104.566662 0.206077194,96.9868774 0.206077194,96.9868774 C0.206077194,96.9868774 0.023249505,131.615152 0.000553988118,132.70681 C-0.00679695549,133.060391 0.0588646793,133.41735 0.206077194,133.759166 C0.483683746,134.403746 1.02205835,134.911586 1.71126527,135.178985 L39.2116066,151.899467 C41.6475812,152.844579 44.4476186,152.810871 46.9742667,151.806016 L82.0499226,135.289482 C83.206443,134.829531 83.9388067,133.799123 83.9958445,132.720986 C84.0087647,132.476766 84.0087647,120.703567 83.9958445,97.4013887 L44.8851458,115.338667 Z" id="Rectangle-5-Copy" fill="#68D75A"></path>
                                        <path d="M39.4002631,151.918936 L1.71949858,135.290319 C1.02697572,135.024293 0.486010865,134.519936 0.207068681,133.880236 C0.0591478914,133.541009 -0.00682965728,133.186853 0.000556653487,132.83613 C0.023361364,131.753297 0.207068681,97.4043451 0.207068681,97.4043451 L37.0900668,115.777985 C39.6874693,114.718069 40.8467185,115.442296 43.3576953,116.426508 L43.3576953,152.600926 C41.9999871,152.626904 40.6522699,152.399882 39.4002631,151.918936 Z" id="Combined-Shape" fill="url(#linearGradient-16)"></path>
                                        <path d="M82.3129079,95.3677276 L44.8884031,78.1901703 C42.389268,77.1801656 39.5003039,77.2282642 36.9151507,78.3229176 L1.90541168,95.2778786 C0.365139041,95.9300893 -0.395672227,97.6154254 0.206092149,99.0421821 C0.483718847,99.7004227 1.02213252,100.218977 1.71138945,100.491956 L39.2144522,117.530668 C41.6506036,118.495502 44.4508441,118.460654 46.9776756,117.434055 L82.0558769,100.592646 C83.6054726,99.9630776 84.3936472,98.287881 83.8163141,96.8509894 C83.5467566,96.180103 83.0081339,95.6486974 82.3129079,95.3677276 Z" id="Rectangle-5" fill="#68D75A"></path>
                                        <g id="Combined-Shape" opacity="0.959701528">
                                            <use fill="black" fill-opacity="1" filter="url(#filter-18)" xlink:href="#path-17"></use>
                                            <use fill="#FFFFFF" fill-rule="evenodd" xlink:href="#path-17"></use>
                                            <path stroke="#F3F4F6" stroke-width="1.25" d="M41.4039141,88.9567833 L50.5643251,79.8251494 L68.1626103,87.3772737 C70.8734888,88.5406195 72.9139706,87.3722295 72.9139706,84.7319574 L72.9139706,31.3925059 C72.9139706,28.5385648 70.5512953,25.1578492 67.6696597,23.9212247 L14.4231102,1.07101211 C11.7122317,-0.0923337116 9.67174988,1.07605631 9.67174988,3.71632835 L9.67174988,57.0557799 C9.67174988,59.909721 12.0344252,63.2904366 14.9160608,64.527061 L32.3001986,71.9872862 L41.4039141,88.9567833 Z"></path>
                                        </g>
                                        <path d="M40.7060552,41.5508198 C42.7637213,40.6455742 44.4472662,41.5714772 44.4472662,43.608382 C44.4472662,45.6452868 42.7637213,48.0525008 40.7060552,48.9577464 C38.6483891,49.8629921 36.9648442,48.9370891 36.9648442,46.9001842 C36.9648442,44.8632794 38.6483891,42.4560654 40.7060552,41.5508198 Z M51.9296883,40.3165798 C51.9296883,44.3903894 49.6849617,48.8962203 46.3178718,52.4144361 L44.4472662,50.0894428 C46.6919929,47.9908632 48.1884773,44.9252515 48.1884773,42.1476541 C48.1884773,38.0738444 44.8213873,36.2220384 40.7060552,38.0325297 C36.5907231,39.8430209 33.2236331,44.6574489 33.2236331,48.7312585 C33.2236331,51.3236828 34.7201175,53.0725736 36.9648442,53.381245 L35.0942386,57.3521394 C31.7271487,56.7965456 29.4824221,54.2657961 29.4824221,50.1919865 C29.4824221,44.081272 34.533057,36.85963 40.7060552,34.1438932 C46.8790534,31.4281563 51.9296883,34.2058653 51.9296883,40.3165798 Z M40.7060552,26.7369665 C50.9943856,22.2107385 59.4121104,26.8402534 59.4121104,37.0247776 C59.4121104,43.6910115 55.6708994,51.4476271 50.0590828,57.0644226 L48.1884773,54.7394293 C52.6779305,50.1719237 55.6708994,44.2258736 55.6708994,38.6706787 C55.6708994,30.5230594 48.9367195,26.8194474 40.7060552,30.4404299 C32.4753909,34.0614123 25.741211,43.6902683 25.741211,51.8378876 C25.741211,57.2079094 28.7341799,60.7056908 33.2236331,61.3230338 L31.3530276,65.2939282 C25.741211,64.614836 22,60.3351958 22,53.4837887 C22,43.2992646 30.4177248,31.2631946 40.7060552,26.7369665 Z" id="Combined-Shape" fill="#7CDD6F" transform="translate(40.706055, 45.146964) scale(-1, 1) translate(-40.706055, -45.146964) "></path>
                                    </g>
                                </g>
                            </g>
                            <g id="Group-43" transform="translate(20.000000, 320.000000)">
                                <path d="M26.6542776,38.528491 L26.6542776,33.6242715 L12.8443875,27.4049496 L12.8443875,32.3090484 C12.8443875,33.2611142 12.2794949,33.8473607 11.4517031,33.7544966 L2.80623208,32.7850234 C1.15064858,32.5994159 0.0209731082,33.772079 0.0209731082,35.67609 L0.0209731082,40.0629323 C0.0209731082,41.2606497 0.904221852,42.6293203 1.99381455,43.1200214 L37.5047408,59.1124644 C38.5943335,59.6031655 39.4775822,59.0300419 39.4775822,57.8323245 L39.4775822,53.4454822 C39.4775822,51.5414712 38.3479067,49.3511824 36.6923233,48.0457175 L28.0468522,41.2281675 C27.2190604,40.5755558 26.6542776,39.4804361 26.6542776,38.528491 Z" id="Shape" fill="url(#linearGradient-19)" fill-rule="nonzero"></path>
                                <path d="M36.6924331,48.0458877 L28.0951711,41.2662244 L22.7085947,43.774642 L20.656027,48.1149319 C20.3143899,48.8373326 19.1842752,48.3283823 18.842748,47.2983167 L16.7901802,41.1092678 L11.4036038,33.7491312 L2.80634189,32.7851936 C1.1507584,32.599586 0.021082924,33.7722492 0.021082924,35.6762602 L0.021082924,40.0631024 C0.021082924,41.2608199 0.904331668,42.6294905 1.99392436,43.1201915 L37.5048506,59.1126346 C38.5944433,59.6033357 39.477692,59.030212 39.477692,57.8324946 L39.477692,53.4456524 C39.477692,51.5416414 38.3479067,49.3515446 36.6924331,48.0458877 Z" id="Shape" fill="url(#linearGradient-20)" fill-rule="nonzero"></path>
                                <path d="M23.5316644,35.8012479 L27.490635,33.9575913 C28.223436,33.6164443 28.7101398,32.8953967 28.8608071,31.9280128 L31.1107139,17.4842878 C31.8778873,12.5594436 28.1741287,6.11699303 23.3185119,3.93025265 L16.1802631,0.715522732 C11.3246462,-1.47121765 7.62088764,1.63523718 8.38806104,7.25107877 L10.6379678,23.7213071 C10.7886352,24.8243979 11.2754487,25.9838717 12.00814,26.9850072 L15.9671106,32.3945303 C16.4989486,33.1211232 17.1692645,33.6898989 17.8615435,34.0016687 L21.6373413,35.7021095 C22.3294007,36.0137804 22.9998263,36.048932 23.5316644,35.8012479 Z" id="Shape" fill="url(#linearGradient-19)" fill-rule="nonzero"></path>
                                <path d="M29.7348313,29.4165456 C29.6856339,29.5785979 28.4497665,33.3486279 20.9303469,29.9622367 L20.9303469,32.1308513 C30.0547249,36.2400399 31.5777607,31.0661572 31.638379,30.8434596 L29.7348313,29.4165456 Z" id="Shape" fill="url(#linearGradient-21)" fill-rule="nonzero"></path>
                                <path d="M9.45118812,15.033861 L8.18138765,14.4620028 C7.6365913,14.2166523 7.19502184,14.5032992 7.19502184,15.1020372 L7.19502184,19.4392663 C7.19502184,20.038125 7.63670112,20.7224247 8.18138765,20.9677257 L10.39813,21.9660418 L9.45118812,15.033861 Z" id="Shape" fill="url(#linearGradient-21)" fill-rule="nonzero"></path>
                                <path d="M31.5863263,25.0024812 L30.047477,24.3094562 L29.1005351,30.3888419 L31.5863263,31.5083248 C32.1311226,31.7536753 32.5726921,31.4670284 32.5726921,30.8682904 L32.5726921,26.5310614 C32.5726921,25.9322026 32.1311226,25.2478317 31.5863263,25.0024812 Z" id="Shape" fill="url(#linearGradient-21)" fill-rule="nonzero"></path>
                                <path d="M9.45107831,15.0338115 L10.1180997,15.3342064 C10.5629636,15.5345521 10.9527,15.3826965 11.0697637,14.9637895 L11.8975906,12.0003581 C16.029833,13.8183171 21.998082,15.9454726 26.8454141,15.6861243 L28.4287916,22.7813547 C28.5458553,23.3058222 28.9357015,23.8086443 29.3804557,24.0089406 L30.047477,24.3093355 L31.1106041,17.4841177 C31.2541936,16.5627893 31.2381418,15.5886374 31.0879628,14.5992345 C30.4505011,10.2961608 27.2650733,5.7074767 23.3185119,3.93013194 L16.1802631,0.715402019 C11.3246462,-1.47133836 7.62088764,1.63511647 8.38806104,7.25095805 L8.68885437,9.45291533 L9.45107831,15.0338115 Z" id="Combined-Shape" fill="url(#linearGradient-22)" fill-rule="nonzero"></path>
                                <path d="M12.6886687,32.9504042 L16.7900704,41.1092183 L13.8484337,42.2094538 C13.3371312,42.4007182 12.6016946,41.8534354 12.3499967,41.0942664 L9.88518029,33.6623531 L11.0652612,32.248028 C11.448189,31.78915 12.2875115,32.1522934 12.6886687,32.9504042 Z" id="Shape" fill="url(#linearGradient-23)" fill-rule="nonzero"></path>
                                <path d="M26.8099965,39.3099829 L22.7085947,43.774642 L25.6502314,47.5244258 C26.161534,48.1762231 26.8969706,48.2913522 27.1486685,47.7588889 L29.6134849,42.5470491 L28.4334039,40.0698187 C28.0504761,39.2660355 27.2111537,38.8731966 26.8099965,39.3099829 Z" id="Shape" fill="url(#linearGradient-24)" fill-rule="nonzero"></path>
                                <path d="M6.92597305,42.5276467 C6.92597305,41.5621817 6.53579739,40.471096 5.86108892,39.5491871 L1.17469825,33.1605786 C1.15778661,33.1715523 1.13263878,33.1765232 1.11287193,33.1854867 C0.432123586,33.6663227 0.0208632924,34.5359034 0.0208632924,35.6761613 L0.0208632924,40.0630035 C0.0208632924,41.2606002 0.904221852,42.629441 1.99370473,43.1200926 L6.92597305,45.3413532 L6.92597305,42.5276467 Z" id="Shape" fill="url(#linearGradient-25)" fill-rule="nonzero"></path>
                                <path d="M33.6375762,52.0584044 L38.3239669,49.8909744 C38.3408785,49.9171805 38.3660264,49.9448022 38.3857932,49.9715698 C39.0665416,51.065801 39.4778019,52.3055647 39.4778019,53.4458225 L39.4778019,57.8325441 C39.4778019,59.0301408 38.5944433,59.6033357 37.5049604,59.1126841 L32.5729117,56.8915224 L32.5726921,54.077717 C32.5726921,53.112252 32.9628678,52.3725997 33.6375762,52.0584044 Z" id="Shape" fill="url(#linearGradient-25)" fill-rule="nonzero"></path>
                            </g>
                        </g>
                    </g>
                </g>
            </g>
        </g>
    </g>
</svg>