<?xml version="1.0" encoding="UTF-8"?>
<svg width="395px" height="429px" viewBox="0 0 395 429" version="1.1" xmlns="http://www.w3.org/2000/svg" xmlns:xlink="http://www.w3.org/1999/xlink">
    <!-- Generator: Sketch 47.1 (45422) - http://www.bohemiancoding.com/sketch -->
    <title>ill-call-tracking-analytic</title>
    <desc>Created with Sketch.</desc>
    <defs>
        <rect id="path-1" x="0" y="0" width="513" height="442"></rect>
        <linearGradient x1="57.4240037%" y1="45.0666755%" x2="32.5261836%" y2="45.0666755%" id="linearGradient-3">
            <stop stop-color="#91C6FF" offset="0%"></stop>
            <stop stop-color="#FEFEFE" stop-opacity="0" offset="100%"></stop>
        </linearGradient>
        <linearGradient x1="50%" y1="-20.7303198%" x2="50%" y2="81.791492%" id="linearGradient-4">
            <stop stop-color="#FFFFFE" offset="0%"></stop>
            <stop stop-color="#DFE9F5" offset="100%"></stop>
        </linearGradient>
        <linearGradient x1="50%" y1="-20.7303198%" x2="50%" y2="81.791492%" id="linearGradient-5">
            <stop stop-color="#FFFFFE" offset="0%"></stop>
            <stop stop-color="#EBF1F9" offset="100%"></stop>
        </linearGradient>
        <linearGradient x1="13.5873113%" y1="100%" x2="127.623336%" y2="-11.2515719%" id="linearGradient-6">
            <stop stop-color="#014C9E" offset="0%"></stop>
            <stop stop-color="#2A90D2" offset="100%"></stop>
        </linearGradient>
        <linearGradient x1="50%" y1="12.6974887%" x2="91.5077979%" y2="109.345321%" id="linearGradient-7">
            <stop stop-color="#48C7FF" offset="0%"></stop>
            <stop stop-color="#1F7DC2" offset="100%"></stop>
        </linearGradient>
        <path d="M259.562253,325.346827 L269.686922,321.558712 C271.516684,320.874112 273,318.901246 273,317.152193 L273,287.162226 C273,285.413173 271.516684,284.550263 269.686922,285.234863 L238.313078,296.973293 C236.483316,297.657893 235,299.630759 235,301.379812 L235,331.36978 C235,333.118833 236.483316,333.981742 238.313078,333.297142 L248.453461,329.503148 L254.025099,335 L259.562253,325.346827 Z" id="path-8"></path>
        <filter x="-61.8%" y="-43.0%" width="223.7%" height="194.0%" filterUnits="objectBoundingBox" id="filter-9">
            <feOffset dx="0" dy="2" in="SourceAlpha" result="shadowOffsetOuter1"></feOffset>
            <feGaussianBlur stdDeviation="7.5" in="shadowOffsetOuter1" result="shadowBlurOuter1"></feGaussianBlur>
            <feComposite in="shadowBlurOuter1" in2="SourceAlpha" operator="out" result="shadowBlurOuter1"></feComposite>
            <feColorMatrix values="0 0 0 0 0.862745098   0 0 0 0 0.917647059   0 0 0 0 0.984313725  0 0 0 1 0" type="matrix" in="shadowBlurOuter1"></feColorMatrix>
        </filter>
        <linearGradient x1="50%" y1="0%" x2="50%" y2="100%" id="linearGradient-10">
            <stop stop-color="#5BD5F2" offset="0%"></stop>
            <stop stop-color="#2EAAE1" offset="100%"></stop>
        </linearGradient>
        <path d="M420.445122,258.51984 L496.554878,229.084401 C497.352997,228.775728 498,229.34022 498,230.345229 L498,300.10153 C498,301.106539 497.352997,302.171488 496.554878,302.48016 L420.445122,331.915599 C419.647003,332.224272 419,331.65978 419,330.654771 L419,260.89847 C419,259.893461 419.647003,258.828512 420.445122,258.51984 Z" id="path-11"></path>
        <filter x="-29.7%" y="-20.9%" width="159.5%" height="145.6%" filterUnits="objectBoundingBox" id="filter-12">
            <feOffset dx="0" dy="2" in="SourceAlpha" result="shadowOffsetOuter1"></feOffset>
            <feGaussianBlur stdDeviation="7.5" in="shadowOffsetOuter1" result="shadowBlurOuter1"></feGaussianBlur>
            <feComposite in="shadowBlurOuter1" in2="SourceAlpha" operator="out" result="shadowBlurOuter1"></feComposite>
            <feColorMatrix values="0 0 0 0 0.862745098   0 0 0 0 0.917647059   0 0 0 0 0.984313725  0 0 0 1 0" type="matrix" in="shadowBlurOuter1"></feColorMatrix>
        </filter>
        <path d="M350.429907,200.981099 L449.570093,162.084718 C450.359809,161.774884 451,162.341502 451,163.350295 L451,237.631314 C451,238.640107 450.359809,239.709067 449.570093,240.018901 L350.429907,278.915282 C349.640191,279.225116 349,278.658498 349,277.649705 L349,203.368686 C349,202.359893 349.640191,201.290933 350.429907,200.981099 Z" id="path-13"></path>
        <filter x="-23.0%" y="-18.4%" width="146.1%" height="140.2%" filterUnits="objectBoundingBox" id="filter-14">
            <feOffset dx="0" dy="2" in="SourceAlpha" result="shadowOffsetOuter1"></feOffset>
            <feGaussianBlur stdDeviation="7.5" in="shadowOffsetOuter1" result="shadowBlurOuter1"></feGaussianBlur>
            <feComposite in="shadowBlurOuter1" in2="SourceAlpha" operator="out" result="shadowBlurOuter1"></feComposite>
            <feColorMatrix values="0 0 0 0 0.862745098   0 0 0 0 0.917647059   0 0 0 0 0.984313725  0 0 0 1 0" type="matrix" in="shadowBlurOuter1"></feColorMatrix>
        </filter>
        <linearGradient x1="100%" y1="92.337695%" x2="0%" y2="92.3376977%" id="linearGradient-15">
            <stop stop-color="#5BD4F2" stop-opacity="0" offset="0%"></stop>
            <stop stop-color="#78DC6C" offset="20.1478653%"></stop>
            <stop stop-color="#46C0E9" offset="51.786617%"></stop>
            <stop stop-color="#32ADE2" offset="79.9065005%"></stop>
            <stop stop-color="#2EA9E0" stop-opacity="0" offset="100%"></stop>
        </linearGradient>
        <polygon id="path-16" points="365 281.266816 401 267 401 339.733184 365 354"></polygon>
        <filter x="-65.3%" y="-24.7%" width="230.6%" height="154.0%" filterUnits="objectBoundingBox" id="filter-17">
            <feOffset dx="0" dy="2" in="SourceAlpha" result="shadowOffsetOuter1"></feOffset>
            <feGaussianBlur stdDeviation="7.5" in="shadowOffsetOuter1" result="shadowBlurOuter1"></feGaussianBlur>
            <feComposite in="shadowBlurOuter1" in2="SourceAlpha" operator="out" result="shadowBlurOuter1"></feComposite>
            <feColorMatrix values="0 0 0 0 0.862745098   0 0 0 0 0.917647059   0 0 0 0 0.984313725  0 0 0 1 0" type="matrix" in="shadowBlurOuter1"></feColorMatrix>
        </filter>
    </defs>
    <g id="Page-1" stroke="none" stroke-width="1" fill="none" fill-rule="evenodd">
        <g id="001-Fone-Dynamics-Homepage-Copy-8-999-Copy" transform="translate(-369.000000, -1744.000000)">
            <g id="ill-call-tracking-analytic" transform="translate(251.000000, 1736.000000)">
                <mask id="mask-2" fill="white">
                    <use xlink:href="#path-1"></use>
                </mask>
                <use id="Rectangle-3" fill-opacity="0" fill="#FFFFFF" xlink:href="#path-1"></use>
                <polygon id="Path-21" fill="url(#linearGradient-3)" mask="url(#mask-2)" points="206.467347 434 -1 372.987013 161.528571 318 366 371.103896"></polygon>
                <path d="M337.932269,9.35896123 C344.114876,7.01496641 349.717933,7.80100932 353.763545,10.9644361 L364,17.0052724 C359.954388,13.8418457 356.598394,16.8040395 350.415039,19.1478849 L223.660006,67.2075945 C211.372666,71.8660923 201.443208,87.1221361 201.482893,101.280337 L202.346226,422.243628 C202.359704,426.933061 204.579063,431.185185 209.004302,435 L196.353808,428.052069 C192.359861,424.929717 189.882925,419.488704 189.862708,412.455305 L189.000123,91.4921642 C188.959689,77.333063 198.889148,62.0770193 211.176488,57.4185215 L337.932269,9.35896123 Z" id="Fill-21" fill="#D5E3F4" mask="url(#mask-2)"></path>
                <path d="M195,280.78908 L195,281.21092 C195,281.646717 194.552285,282 194,282 C193.447715,282 193,281.646717 193,281.21092 L193,280.78908 C193,280.353283 193.447715,280 194,280 C194.552285,280 195,280.353283 195,280.78908 Z" id="Path-23-Copy" fill="#43576D" fill-rule="nonzero" mask="url(#mask-2)"></path>
                <polygon id="Path-24" fill="#FFFFFE" fill-rule="nonzero" mask="url(#mask-2)" points="200 117 189 114 189 111 200 114"></polygon>
                <polygon id="Path-24" fill="#FFFFFE" fill-rule="nonzero" mask="url(#mask-2)" points="202 403 191 400 191 397 202 400"></polygon>
                <path d="M347.484937,14.3555755 C353.691238,12.0177116 359.314336,12.8013487 363.374961,15.9556923 L368,19.6057609 C363.939375,16.4514173 358.315526,15.6683796 352.109977,18.0056442 L224.883821,65.9272122 C212.550885,70.5723342 202.584579,85.7845737 202.625163,99.9030202 L203.490948,419.944588 C203.51124,426.957792 205.996616,430.885716 210.006136,434 L205.381097,431.846501 C201.372329,428.732365 198.886201,423.307723 198.866661,416.29392 L198.000124,96.2522033 C197.95954,82.1345051 207.925845,66.9222656 220.258782,62.2771436 L347.484937,14.3555755 Z" id="Fill-23" fill="#91A7C3" mask="url(#mask-2)"></path>
                <path d="M199.000118,97.488357 L199.86286,418.439286 C199.903266,432.597841 209.89101,440.29918 222.169171,435.640712 L348.837984,387.583003 C361.116893,382.924684 371.039539,367.669228 370.999882,353.511572 L370.13714,32.5606438 C370.096734,18.4028384 360.10899,10.7007496 347.830829,15.3592173 L221.162016,63.4169265 C208.883107,68.0752449 198.960461,83.330701 199.000118,97.488357 Z" id="Fill-24" fill="#EBF1F9" mask="url(#mask-2)"></path>
                <path d="M208.000107,99.2829243 L208.785035,409.176463 C208.820986,422.009439 217.903087,428.99075 229.068093,424.767748 L345.847906,380.600831 C357.013662,376.377978 366.035844,362.550051 365.999893,349.716327 L365.214965,39.823537 C365.179014,26.9905612 356.096913,20.0092504 344.931907,24.2322519 L228.151345,68.3990201 C216.987087,72.6221707 207.964156,86.4499485 208.000107,99.2829243 Z" id="Fill-25" fill="#FFFFFE" mask="url(#mask-2)"></path>
                <path d="M292,395.357288 C298.075132,393.00674 303,384.897125 303,377.243956 C303,369.590787 298.075132,365.292164 292,367.642712 C285.924868,369.99326 281,378.102875 281,385.756044 C281,393.409213 285.924868,397.707836 292,395.357288 Z" id="Oval-7" fill="url(#linearGradient-4)" mask="url(#mask-2)"></path>
                <path d="M290.5,394.401613 C296.29899,392.213172 301,384.662841 301,377.537477 C301,370.412112 296.29899,366.409946 290.5,368.598387 C284.70101,370.786828 280,378.337159 280,385.462523 C280,392.587888 284.70101,396.590054 290.5,394.401613 Z" id="Oval-7" fill="url(#linearGradient-5)" mask="url(#mask-2)"></path>
                <polygon id="Fill-26" fill="url(#linearGradient-6)" mask="url(#mask-2)" points="214 389 214 113.47915 361 58 361 333.52085"></polygon>
                <path d="M285.5,227.126897 C257.60962,240.016213 235,226.455488 235,196.83817 C235,167.220853 257.60962,132.762418 285.5,119.873103 C313.39038,106.983787 336,120.544512 336,150.16183 C336,179.779147 313.39038,214.237582 285.5,227.126897 Z" id="Oval-6-Copy-4" fill="#C0E8FB" opacity="0.100000001" mask="url(#mask-2)"></path>
                <polygon id="Fill-26" fill="#FEFEFE" opacity="0.200000003" mask="url(#mask-2)" points="219 378 356 326.273965 356 219 219 270.726035"></polygon>
                <path d="M286,207.032714 C269.431458,213.312156 256,204.061114 256,186.369934 C256,168.678755 269.431458,149.246727 286,142.967286 C302.568542,136.687844 316,145.938886 316,163.630066 C316,181.321245 302.568542,200.753273 286,207.032714 Z" id="Oval-6" fill="url(#linearGradient-7)" mask="url(#mask-2)"></path>
                <path d="M299.112246,176.782417 C298.777597,176.571255 298.323643,176.553 297.850291,176.731668 C297.37694,176.910336 296.922985,177.271286 296.588337,177.735076 L295.139026,179.743143 C294.7498,180.282852 294.143953,180.58351 293.674806,180.469777 C291.698563,180.025629 289.855086,179.320458 288.176206,178.36644 C286.601245,177.268359 285.211478,175.934487 284.03089,174.387846 C283.742421,174.02381 283.813771,173.38617 284.203338,172.846707 L285.652649,170.83864 C285.98742,170.374927 286.175503,169.846312 286.175503,169.369136 C286.175503,168.891961 285.98742,168.505331 285.652649,168.29434 L282.287749,166.172706 C281.953101,165.961544 281.499146,165.943288 281.025795,166.121956 C280.552443,166.300625 280.098489,166.661574 279.76384,167.125365 L277.744126,169.923981 C275.715537,172.731461 275.421775,176.052888 277.045649,177.82135 C279.12228,180.207413 281.437392,182.337971 283.970551,184.194221 C286.760124,185.694694 289.740181,186.90344 292.884412,187.809788 C295.246763,188.55512 298.431622,187.056849 300.457079,184.247337 L302.477145,181.448588 C302.811917,180.984875 303,180.45626 303,179.979084 C303,179.501909 302.811917,179.11528 302.477145,178.904288 L299.112246,176.782417 Z" id="Shape" fill="#FFFFFE" fill-rule="nonzero" mask="url(#mask-2)"></path>
                <path d="M227.437676,56.440471 L227.055599,55.9474687 C226.913178,55.5974364 227.045109,55.2686583 227.442921,55.1030443 C228.03157,54.8583683 228.980913,55.0642521 229.566737,55.563636 C229.959304,55.8975823 230.085991,56.2793697 229.943166,56.5679802 C229.876191,56.705555 229.747084,56.8213028 229.556247,56.8999253 C228.970019,57.138972 228.018256,56.9356404 227.437676,56.440471 Z" id="Fill-31" fill="#43576D" mask="url(#mask-2)"></path>
                <path d="M308.875116,23.8809207 L308.111466,22.8952776 C307.826268,22.1947523 308.089757,21.5371609 308.885758,21.2056323 C310.063159,20.71703 311.961642,21.1287734 313.133509,22.1268853 C313.918868,22.79535 314.171715,23.5588949 313.886517,24.1357126 C313.752006,24.4112653 313.49405,24.6424205 313.112225,24.7998657 C311.939933,25.2779806 310.036341,24.8711588 308.875116,23.8809207 Z" id="Fill-35" fill="#43576D" mask="url(#mask-2)"></path>
                <path d="M276.000014,71.5415137 C276.004509,73.1267515 277.123819,73.2437231 278.50535,72.7216199 L305.505889,62.5231198 C306.88742,62.0010165 308.004482,61.0396187 307.999986,59.4536329 C307.995491,57.8683951 306.871686,57.7580105 305.490155,58.2801137 L278.488867,68.478465 C277.107336,69.0005682 275.995518,69.9555279 276.000014,71.5415137 Z" id="Fill-37" fill="#D5E3F4" mask="url(#mask-2)"></path>
                <path d="M262.000014,78.3219685 C262.004633,80.1457919 263.154826,80.2803048 264.574476,79.679906 L270.437843,77.201554 C271.857492,76.6020153 273.004605,75.495413 272.999986,73.6724498 C272.995367,71.8486264 271.840555,71.7216883 270.420905,72.3220872 L264.557538,74.8004392 C263.137889,75.3999778 261.995395,76.4981451 262.000014,78.3219685 Z" id="Fill-38" fill="#D5E3F4" mask="url(#mask-2)"></path>
                <polygon id="Rectangle-11-Copy" fill="#FEFEFE" mask="url(#mask-2)" points="280 272 145 322.868526 145 386 280 335.131474"></polygon>
                <g id="Combined-Shape" opacity="0.900000036" mask="url(#mask-2)">
                    <use fill="black" fill-opacity="1" filter="url(#filter-9)" xlink:href="#path-8"></use>
                    <use fill="#FFFFFF" fill-rule="evenodd" xlink:href="#path-8"></use>
                    <path stroke="#F3F4F6" stroke-width="1" d="M253.914284,334.188295 L259.218224,324.941694 L269.511711,321.090416 C271.152858,320.476386 272.5,318.684636 272.5,317.152193 L272.5,287.162226 C272.5,285.78403 271.382905,285.134167 269.862134,285.703159 L238.488289,297.441589 C236.847142,298.055619 235.5,299.847369 235.5,301.379812 L235.5,331.36978 C235.5,332.747975 236.617095,333.397838 238.137866,332.828846 L248.577312,328.922959 L253.914284,334.188295 Z"></path>
                </g>
                <path d="M254.5,308.17119 C253.125,308.672528 252,310.130678 252,311.411524 C252,312.692369 253.125,313.330148 254.5,312.82881 C255.875,312.327472 257,310.869322 257,309.588476 C257,308.307631 255.875,307.669852 254.5,308.17119 Z" id="Path" fill="#68D75A" mask="url(#mask-2)"></path>
                <path d="M261,307.790277 C261,303.927705 257.85,302.004392 254,303.516249 C250.15,305.028106 247,309.425366 247,313.287938 C247,315.862986 248.4,317.537125 250.5,318 L251.666667,315.552052 C250.266667,315.282484 249.333333,314.127376 249.333333,312.488709 C249.333333,309.91366 251.433333,306.982154 254,305.974249 C256.566667,304.966345 258.666667,306.248553 258.666667,308.823601 C258.666667,310.579316 257.733333,312.467446 256.333333,313.719498 L257.5,315.25117 C259.6,313.138996 261,310.365325 261,307.790277 Z" id="Path" fill="#68D75A" mask="url(#mask-2)"></path>
                <path d="M254.5,297.932157 C247.625,300.66202 242,308.601871 242,315.57627 C242,320.268138 244.5,323.333293 248.25,324 L249.5,321.347938 C246.5,320.763849 244.5,318.261003 244.5,314.583592 C244.5,309.004073 249,302.652193 254.5,300.468303 C260,298.284412 264.5,301.062654 264.5,306.642173 C264.5,310.446391 262.5,314.410714 259.5,317.377229 L260.75,319.036613 C264.5,315.391874 267,310.214557 267,305.649496 C267,298.675097 261.375,295.202295 254.5,297.932157 Z" id="Path" fill="#68D75A" mask="url(#mask-2)"></path>
                <polygon id="Rectangle-Copy-2" fill="#C6E0FD" mask="url(#mask-2)" points="158 327.369672 226 302 226 310.630328 158 336"></polygon>
                <polygon id="Rectangle-Copy-4" fill="#E0E8EB" mask="url(#mask-2)" points="179 332.239633 227 314 227 317.760367 179 336"></polygon>
                <polygon id="Rectangle-Copy-5" fill="#E0E8EB" mask="url(#mask-2)" points="179 339.239633 227 321 227 324.760367 179 343"></polygon>
                <polygon id="Rectangle-Copy-6" fill="#E0E8EB" mask="url(#mask-2)" points="192 342.39502 227 330 227 333.60498 192 346"></polygon>
                <polygon id="Rectangle-7" fill="#FFFFFF" mask="url(#mask-2)" points="324 212.995615 488 149 488 298.004385 324 362"></polygon>
                <polygon id="Rectangle-7-Copy" fill="url(#linearGradient-10)" mask="url(#mask-2)" points="459 169.257006 495 155 495 219.742994 459 234"></polygon>
                <polygon id="Rectangle-Copy" fill="#FFFFFF" mask="url(#mask-2)" points="460 202.418636 491 190 491 197.581364 460 210"></polygon>
                <polygon id="Rectangle-Copy-2" fill="#FFFFFF" mask="url(#mask-2)" points="460 211.418636 491 199 491 206.581364 460 219"></polygon>
                <polygon id="Rectangle-Copy-3" fill="#FFFFFF" mask="url(#mask-2)" points="460 222.418636 491 210 491 217.581364 460 230"></polygon>
                <path d="M476,190.601075 C479.865993,189.142114 483,184.10856 483,179.358318 C483,174.608075 479.865993,171.939964 476,173.398925 C472.134007,174.857886 469,179.89144 469,184.641682 C469,189.391925 472.134007,192.060036 476,190.601075 Z" id="Oval-7" fill="#FFFFFF" mask="url(#mask-2)"></path>
                <polygon id="Rectangle-7" fill="#C6E0FD" mask="url(#mask-2)" points="324 211.505279 356 199 356 348.494721 324 361"></polygon>
                <polygon id="Rectangle-10" fill="#2B92D3" mask="url(#mask-2)" points="329 221.87974 334 220 334 226.12026 329 228"></polygon>
                <polygon id="Rectangle-9" fill="#2B92D3" mask="url(#mask-2)" points="337 220.578329 351 215 351 217.421671 337 223"></polygon>
                <polygon id="Rectangle-9-Copy-3" fill="#2B92D3" mask="url(#mask-2)" points="337 231.578329 351 226 351 228.421671 337 234"></polygon>
                <polygon id="Rectangle-9-Copy-4" fill="#2B92D3" mask="url(#mask-2)" points="337 244.578329 351 239 351 241.421671 337 247"></polygon>
                <polygon id="Rectangle-9-Copy-5" fill="#2B92D3" mask="url(#mask-2)" points="337 256.578329 351 251 351 253.421671 337 259"></polygon>
                <polygon id="Rectangle-9-Copy-6" fill="#2B92D3" mask="url(#mask-2)" points="337 269.578329 351 264 351 266.421671 337 272"></polygon>
                <polygon id="Rectangle-9-Copy-7" fill="#2B92D3" mask="url(#mask-2)" points="337 280.578329 351 275 351 277.421671 337 283"></polygon>
                <polygon id="Rectangle-10-Copy" fill="#2B92D3" mask="url(#mask-2)" points="329 233.87974 334 232 334 238.12026 329 240"></polygon>
                <polygon id="Rectangle-10-Copy-2" fill="#2B92D3" mask="url(#mask-2)" points="329 246.87974 334 245 334 251.12026 329 253"></polygon>
                <polygon id="Rectangle-10-Copy-3" fill="#2B92D3" mask="url(#mask-2)" points="329 258.87974 334 257 334 263.12026 329 265"></polygon>
                <polygon id="Rectangle-10-Copy-4" fill="#2B92D3" mask="url(#mask-2)" points="329 270.87974 334 269 334 275.12026 329 277"></polygon>
                <polygon id="Rectangle-10-Copy-5" fill="#2B92D3" mask="url(#mask-2)" points="329 282.87974 334 281 334 287.12026 329 289"></polygon>
                <g id="Rectangle-3-Copy-7" opacity="0.900000036" mask="url(#mask-2)">
                    <use fill="black" fill-opacity="1" filter="url(#filter-12)" xlink:href="#path-11"></use>
                    <use fill="#FFFFFF" fill-rule="evenodd" xlink:href="#path-11"></use>
                    <path stroke="#F3F4F6" stroke-width="1" d="M420.625478,258.986178 C420.030971,259.216104 419.5,260.090067 419.5,260.89847 L419.5,330.654771 C419.5,331.335482 419.825242,331.619247 420.264766,331.449261 L496.374522,302.013822 C496.969029,301.783896 497.5,300.909933 497.5,300.10153 L497.5,230.345229 C497.5,229.664518 497.174758,229.380753 496.735234,229.550739 L420.625478,258.986178 Z"></path>
                </g>
                <path d="M431,320 L490,297 L431,320 Z" id="Line" stroke="#232425" opacity="0.2" stroke-linecap="square" mask="url(#mask-2)"></path>
                <path d="M431,305 L490,282 L431,305 Z" id="Line" stroke="#232425" opacity="0.2" stroke-linecap="square" mask="url(#mask-2)"></path>
                <path d="M431,289 L490,266 L431,289 Z" id="Line" stroke="#232425" opacity="0.2" stroke-linecap="square" mask="url(#mask-2)"></path>
                <path d="M431,272 L490,249 L431,272 Z" id="Line" stroke="#232425" opacity="0.2" stroke-linecap="square" mask="url(#mask-2)"></path>
                <polygon id="Bar" fill="url(#linearGradient-10)" mask="url(#mask-2)" points="434 300.235233 439 298 439 317.764767 434 320"></polygon>
                <polygon id="Bar" fill="url(#linearGradient-10)" mask="url(#mask-2)" points="443 271.209843 448 269 448 313.790157 443 316"></polygon>
                <polygon id="Bar" fill="url(#linearGradient-10)" mask="url(#mask-2)" points="453 286.152079 458 284 458 309.847921 453 312"></polygon>
                <polygon id="Bar" fill="url(#linearGradient-10)" mask="url(#mask-2)" points="462 294.174124 467 292 467 307.825876 462 310"></polygon>
                <polygon id="Bar" fill="url(#linearGradient-10)" mask="url(#mask-2)" points="472 282.210005 477 280 477 302.789995 472 305"></polygon>
                <path d="M469.486651,269.873254 L479.513349,266.028182 C479.782119,265.925113 480,266.113603 480,266.449186 L480,274.332497 C480,274.668079 479.782119,275.023677 479.513349,275.126746 L475.932426,276.49997 L474.5,278.280369 L473.080027,277.593818 L469.486651,278.971818 C469.217881,279.074887 469,278.886397 469,278.550814 L469,270.667503 C469,270.331921 469.217881,269.976323 469.486651,269.873254 Z" id="Rectangle-4" fill="#68D75A" mask="url(#mask-2)"></path>
                <polygon id="Bar" fill="url(#linearGradient-10)" mask="url(#mask-2)" points="482 295.045158 487 293 487 298.954842 482 301"></polygon>
                <polygon id="Bar" fill="#C6E0FD" mask="url(#mask-2)" points="434 300.192254 439 298 439 313.807746 434 316"></polygon>
                <polygon id="Bar" fill="#C6E0FD" mask="url(#mask-2)" points="443 286.212011 448 284 448 310.787989 443 313"></polygon>
                <polygon id="Bar" fill="#C6E0FD" mask="url(#mask-2)" points="453 295.113091 458 293 458 306.886909 453 309"></polygon>
                <polygon id="Bar" fill="#C6E0FD" mask="url(#mask-2)" points="462 295.338221 467 293 467 303.661779 462 306"></polygon>
                <polygon id="Bar" fill="#C6E0FD" mask="url(#mask-2)" points="472 290.213382 477 288 477 298.786618 472 301"></polygon>
                <polygon id="Bar" fill="#C6E0FD" mask="url(#mask-2)" points="482 295.192954 487 293 487 295.807046 482 298"></polygon>
                <polygon id="Rectangle-9" fill="#A8E7F8" mask="url(#mask-2)" points="431 259.185877 445 254 445 256.814123 431 262"></polygon>
                <polygon id="Rectangle-9-Copy" fill="#A8E7F8" mask="url(#mask-2)" points="454 251.185877 468 246 468 248.814123 454 254"></polygon>
                <polygon id="Rectangle-9-Copy-2" fill="#A8E7F8" mask="url(#mask-2)" points="476 242.185877 490 237 490 239.814123 476 245"></polygon>
                <g id="Container" opacity="0.900000036" mask="url(#mask-2)">
                    <use fill="black" fill-opacity="1" filter="url(#filter-14)" xlink:href="#path-13"></use>
                    <use fill="#FFFFFF" fill-rule="evenodd" xlink:href="#path-13"></use>
                    <path stroke="#F3F4F6" stroke-width="1" d="M350.612523,201.446557 C350.026035,201.676658 349.5,202.555005 349.5,203.368686 L349.5,277.649705 C349.5,278.335148 349.81929,278.617744 350.24729,278.449824 L449.387477,239.553443 C449.973965,239.323342 450.5,238.444995 450.5,237.631314 L450.5,163.350295 C450.5,162.664852 450.18071,162.382256 449.75271,162.550176 L350.612523,201.446557 Z"></path>
                </g>
                <polygon id="Rectangle-8" fill="#D8D8D8" mask="url(#mask-2)" points="362 204.302312 371 201 371 202.697688 362 206"></polygon>
                <polygon id="Rectangle-8-Copy" fill="#D8D8D8" mask="url(#mask-2)" points="387 194.302312 396 191 396 192.697688 387 196"></polygon>
                <polygon id="Rectangle-8-Copy-2" fill="#D8D8D8" mask="url(#mask-2)" points="412 183.302312 421 180 421 181.697688 412 185"></polygon>
                <polygon id="Rectangle-8-Copy-3" fill="#D8D8D8" mask="url(#mask-2)" points="437 175.302312 446 172 446 173.697688 437 177"></polygon>
                <path d="M355,247 L445,212 L355,247 Z" id="Line" stroke="#C6E0FD" opacity="0.300000012" stroke-linecap="square" mask="url(#mask-2)"></path>
                <path d="M355,236 L445,201 L355,236 Z" id="Line" stroke="#C6E0FD" opacity="0.300000012" stroke-linecap="square" mask="url(#mask-2)"></path>
                <path d="M355,227 L445,192 L355,227 Z" id="Line" stroke="#C6E0FD" opacity="0.300000012" stroke-linecap="square" mask="url(#mask-2)"></path>
                <path d="M355,256 L445,221 L355,256 Z" id="Line" stroke="#C6E0FD" opacity="0.300000012" stroke-linecap="square" mask="url(#mask-2)"></path>
                <path d="M355,267 L445,232 L355,267 Z" id="Line" stroke="#C6E0FD" opacity="0.300000012" stroke-linecap="square" mask="url(#mask-2)"></path>
                <path d="M354,249.787333 C358.111849,246.959072 361.625138,243.262915 364.539867,238.69886 C368.91196,231.852778 370.004983,228.752257 375.001661,231.518785 C379.998339,234.285314 381.325581,230.066512 381.950166,235.182181 C382.574751,240.297851 386.478405,240.934763 386.790698,245.602575 C387.10299,250.270388 391.162791,253.27244 391.631229,243.705261 C392.099668,234.138081 393.895349,230.500099 397.330565,227.784983 C400.765781,225.069868 399.906977,229.512391 403.107973,227.573398 C406.30897,225.634405 407.792359,215.358477 411.305648,219.79809 C414.818937,224.237703 415.521595,219.628277 419.815615,218.743546 C424.109635,217.858814 427.700997,214.854389 429.965116,207.123764 C432.229236,199.393139 433.868771,197.381866 435.742525,203.946805 C437.616279,210.511743 439.41196,219.616447 441.519934,215.824823 C443.627907,212.033199 444.252492,208.480851 448,215.109715" id="Path-4" stroke="url(#linearGradient-15)" stroke-width="2" opacity="0.669999957" stroke-linecap="round" stroke-linejoin="round" mask="url(#mask-2)"></path>
                <path d="M394,231.889188 C395.104569,231.483921 396,230.085711 396,228.766199 C396,227.446687 395.104569,226.705546 394,227.110812 C392.895431,227.516079 392,228.914289 392,230.233801 C392,231.553313 392.895431,232.294454 394,231.889188 Z" id="Oval-7" fill="#3FBBE8" opacity="0.300000012" mask="url(#mask-2)"></path>
                <path d="M394,233.8227 C395.656854,233.174273 397,230.937138 397,228.825919 C397,226.7147 395.656854,225.528873 394,226.1773 C392.343146,226.825727 391,229.062862 391,231.174081 C391,233.2853 392.343146,234.471127 394,233.8227 Z" id="Oval-7" fill="#3FBBE8" opacity="0.100000001" mask="url(#mask-2)"></path>
                <path d="M396,229.955675 C396.552285,229.793568 397,229.234284 397,228.70648 C397,228.178675 396.552285,227.882218 396,228.044325 C395.447715,228.206432 395,228.765716 395,229.29352 C395,229.821325 395.447715,230.117782 396,229.955675 Z" id="Oval-7" fill="#3FBBE8" mask="url(#mask-2)"></path>
                <path d="M357,207.933513 C357.552285,207.690352 358,206.851427 358,206.05972 C358,205.268012 357.552285,204.823327 357,205.066487 C356.447715,205.309648 356,206.148573 356,206.94028 C356,207.731988 356.447715,208.176673 357,207.933513 Z" id="Oval-8" fill="#68D75A" mask="url(#mask-2)"></path>
                <path d="M383,196.933513 C383.552285,196.690352 384,195.851427 384,195.05972 C384,194.268012 383.552285,193.823327 383,194.066487 C382.447715,194.309648 382,195.148573 382,195.94028 C382,196.731988 382.447715,197.176673 383,196.933513 Z" id="Oval-8-Copy" fill="#68D75A" mask="url(#mask-2)"></path>
                <path d="M408,188.933513 C408.552285,188.690352 409,187.851427 409,187.05972 C409,186.268012 408.552285,185.823327 408,186.066487 C407.447715,186.309648 407,187.148573 407,187.94028 C407,188.731988 407.447715,189.176673 408,188.933513 Z" id="Oval-8-Copy-2" fill="#68D75A" mask="url(#mask-2)"></path>
                <path d="M434,178.933513 C434.552285,178.690352 435,177.851427 435,177.05972 C435,176.268012 434.552285,175.823327 434,176.066487 C433.447715,176.309648 433,177.148573 433,177.94028 C433,178.731988 433.447715,179.176673 434,178.933513 Z" id="Oval-8-Copy-3" fill="#68D75A" mask="url(#mask-2)"></path>
                <g id="Rectangle-7-Copy-4" opacity="0.900000036" mask="url(#mask-2)">
                    <use fill="black" fill-opacity="1" filter="url(#filter-17)" xlink:href="#path-16"></use>
                    <use fill="#FFFFFF" fill-rule="evenodd" xlink:href="#path-16"></use>
                    <path stroke="#F3F4F6" stroke-width="1" d="M365.5,281.606498 L365.5,353.264018 L400.5,339.393502 L400.5,267.735982 L365.5,281.606498 Z"></path>
                </g>
                <polygon id="Rectangle-9" fill="#47C2EA" mask="url(#mask-2)" points="368 288.185877 382 283 382 285.814123 368 291"></polygon>
                <path d="M378.918367,335.608335 L399,328.049966 L399,330.441631 L378.918367,338 L378.918367,335.608335 Z M381.857143,329.718903 L399,323.266636 L399,325.658301 L381.857143,332.110568 L381.857143,329.718903 Z M377.938776,326.410377 L399,318.483307 L399,320.874972 L377.938776,328.802042 L377.938776,326.410377 Z M375,322.73315 L399,313.699977 L399,316.091642 L375,325.124815 L375,322.73315 Z M377.938776,316.843718 L399,308.916648 L399,311.308312 L377.938776,319.235383 L377.938776,316.843718 Z M376.390848,312.701844 L399,304.133318 L399,306.524983 L376.390848,315.093509 L376.390848,312.701844 Z M375,308.383162 L399,299.349989 L399,301.741653 L375,310.774827 L375,308.383162 Z M376.959184,302.86243 L399,294.566659 L399,296.958324 L376.959184,305.254095 L376.959184,302.86243 Z M382.836735,295.866895 L399,289.78333 L399,292.174994 L382.836735,298.25856 L382.836735,295.866895 Z M380.387755,292.005318 L399,285 L399,287.391665 L380.387755,294.396983 L380.387755,292.005318 Z" id="Combined-Shape" fill="#C6E0FD" mask="url(#mask-2)"></path>
                <path d="M387.023256,332.134759 L387.023256,334.506042 L367,342 L367,339.628717 L387.023256,332.134759 Z M384.093023,328.48887 L384.093023,330.860153 L367,337.257434 L367,334.88615 L384.093023,328.48887 Z M388,322.284068 L388,324.655351 L367,332.514867 L367,330.143584 L388,322.284068 Z M380.674419,320.283193 L380.674419,322.654476 L367,327.772301 L367,325.401018 L380.674419,320.283193 Z M377.744186,316.637303 L377.744186,319.008586 L367,323.029734 L367,320.658451 L377.744186,316.637303 Z M376.27907,312.443075 L376.27907,314.814358 L367,318.287168 L367,315.915885 L376.27907,312.443075 Z M380.674419,306.055494 L380.674419,308.426777 L367,313.544602 L367,311.173318 L380.674419,306.055494 Z M378.72093,302.044045 L378.72093,304.415328 L367,308.802035 L367,306.430752 L378.72093,302.044045 Z M383.116279,295.656464 L383.116279,298.027747 L367,304.059469 L367,301.688186 L383.116279,295.656464 Z M385.55814,290 L385.55814,292.371283 L367,299.316902 L367,296.945619 L385.55814,290 Z" id="Combined-Shape" fill="#2FA2DD" mask="url(#mask-2)"></path>
            </g>
        </g>
    </g>
</svg>