<svg xmlns="http://www.w3.org/2000/svg" xmlns:xlink="http://www.w3.org/1999/xlink" width="170" height="180" viewBox="0 0 170 180">
    <defs>
        <linearGradient id="a" x1="82.57%" x2="10.998%" y1="12.148%" y2="93.287%">
            <stop offset="0%" stop-color="#0FC3C9"/>
            <stop offset="100%" stop-color="#9746FF"/>
        </linearGradient>
        <path id="b" d="M7.782 56.704l114.54-53.447c1.2-.552 2.174.238 2.174 1.764v105.956c0 1.526-.973 3.228-2.175 3.8L7.781 170.204c-1.2.59-2.174-.192-2.174-1.747V60.55c0-1.555.973-3.276 2.175-3.845z"/>
        <linearGradient id="c" x1="50%" x2="91.508%" y1="12.697%" y2="109.345%">
            <stop offset="0%" stop-color="#48C7FF"/>
            <stop offset="100%" stop-color="#1F7DC2"/>
        </linearGradient>
        <path id="e" d="M27.993 47.993l11.344-5.041c2.05-.911 3.712-3.311 3.712-5.361V2.444c0-2.05-1.662-2.973-3.712-2.062l-35.15 15.62c-2.05.91-3.712 3.311-3.712 5.36V56.51c0 2.05 1.661 2.973 3.711 2.062l11.361-5.049 6.243 6.112 6.203-11.642z"/>
        <filter id="d" width="210.4%" height="178.9%" x="-43.5%" y="-39.4%" filterUnits="objectBoundingBox">
            <feOffset dx="5" in="SourceAlpha" result="shadowOffsetOuter1"/>
            <feGaussianBlur in="shadowOffsetOuter1" result="shadowBlurOuter1" stdDeviation="7"/>
            <feColorMatrix in="shadowBlurOuter1" values="0 0 0 0 0.0352941176 0 0 0 0 0.505882353 0 0 0 0 0.745098039 0 0 0 0.2 0"/>
        </filter>
        <path id="g" d="M3.771 7.132L10.043 0c5.89 7.7 6.228 13.167 1.011 16.4-5.216 3.233-7.643.143-7.283-9.268z"/>
        <filter id="f" width="527.6%" height="366.4%" x="-168.3%" y="-133.2%" filterUnits="objectBoundingBox">
            <feOffset dx="5" in="SourceAlpha" result="shadowOffsetOuter1"/>
            <feGaussianBlur in="shadowOffsetOuter1" result="shadowBlurOuter1" stdDeviation="7"/>
            <feColorMatrix in="shadowBlurOuter1" values="0 0 0 0 0.0352941176 0 0 0 0 0.505882353 0 0 0 0 0.745098039 0 0 0 0.2 0"/>
        </filter>
        <linearGradient id="h" x1="72.259%" x2="72.259%" y1="7.403%" y2="91.969%">
            <stop offset="0%" stop-color="#787878"/>
            <stop offset="100%" stop-color="#2D2D2D"/>
        </linearGradient>
        <linearGradient id="i" x1="52.418%" x2="52.418%" y1="11.298%" y2="28.951%">
            <stop offset="0%" stop-color="#EDF5FF"/>
            <stop offset="100%" stop-color="#C6E0FD"/>
        </linearGradient>
        <linearGradient id="j" x1="54.62%" x2="54.62%" y1="-5.369%" y2="17.793%">
            <stop offset="0%" stop-color="#83AEDF"/>
            <stop offset="100%" stop-color="#C6E0FD"/>
        </linearGradient>
        <linearGradient id="k" x1="57.857%" x2="57.857%" y1="9.272%" y2="48.214%">
            <stop offset="0%" stop-color="#FFF"/>
            <stop offset="100%" stop-color="#CCE3FD"/>
        </linearGradient>
        <path id="m" d="M22.211 28.725c1.996-7.578 7.37-14.157 16.123-19.737 8.754-5.58 14.17-3.42 16.247 6.479h.76C54.294 5.577 50.1.429 42.755.025 31.738-.582 21.016 10.035 17.89 26.752l4.32 1.973z"/>
        <filter id="l" width="225.5%" height="263.6%" x="-49.4%" y="-81.8%" filterUnits="objectBoundingBox">
            <feOffset dx="5" in="SourceAlpha" result="shadowOffsetOuter1"/>
            <feGaussianBlur in="shadowOffsetOuter1" result="shadowBlurOuter1" stdDeviation="7"/>
            <feColorMatrix in="shadowBlurOuter1" values="0 0 0 0 0.0352941176 0 0 0 0 0.505882353 0 0 0 0 0.745098039 0 0 0 0.2 0"/>
        </filter>
        <path id="o" d="M26.632 43.517c3.745 3.633 8.371 5.682 13.878 6.147l-.147 3.421c-6.28-.703-11.99-3.374-17.13-8.014l3.4-1.554z"/>
        <filter id="n" width="372%" height="591.2%" x="-107.1%" y="-245.6%" filterUnits="objectBoundingBox">
            <feOffset dx="5" in="SourceAlpha" result="shadowOffsetOuter1"/>
            <feGaussianBlur in="shadowOffsetOuter1" result="shadowBlurOuter1" stdDeviation="7"/>
            <feColorMatrix in="shadowBlurOuter1" values="0 0 0 0 0.0352941176 0 0 0 0 0.505882353 0 0 0 0 0.745098039 0 0 0 0.2 0"/>
        </filter>
        <ellipse id="q" cx="20.315" cy="35.947" rx="6.905" ry="10.222"/>
        <filter id="p" width="440.4%" height="329.9%" x="-134%" y="-114.9%" filterUnits="objectBoundingBox">
            <feOffset dx="5" in="SourceAlpha" result="shadowOffsetOuter1"/>
            <feGaussianBlur in="shadowOffsetOuter1" result="shadowBlurOuter1" stdDeviation="7"/>
            <feColorMatrix in="shadowBlurOuter1" values="0 0 0 0 0.0352941176 0 0 0 0 0.505882353 0 0 0 0 0.745098039 0 0 0 0.2 0"/>
        </filter>
    </defs>
    <g fill="none" fill-rule="evenodd">
        <path fill="url(#a)" d="M2.714 54.177L117.254.73c.558-.257 1.067-.224 1.453.039.232.159 2.655 1.34 4.903 2.543 1.356.726-.038 35.772-4.181 105.138 0 1.526-.974 3.228-2.175 3.8L6.757 170.159c-.584.286-5.157-2.233-5.548-2.526-.413-.31-.67-.904-.67-1.703V58.022c0-1.555.974-3.276 2.175-3.845z"/>
        <g>
            <use fill="#FFF" xlink:href="#b"/>
            <path stroke="#F3F4F6" stroke-width=".96" d="M7.986 57.138c-1.024.486-1.9 2.034-1.9 3.411v107.907c0 1.227.632 1.735 1.486 1.315l114.543-55.426c1.026-.49 1.901-2.02 1.901-3.368V5.02c0-1.202-.64-1.721-1.492-1.33L7.986 57.139z"/>
        </g>
        <path fill="#FFF" d="M16.022 70.747l98.672-46.734c.786-.372 1.423.124 1.423 1.11v72.51c0 .985-.637 2.085-1.423 2.458l-98.672 46.733c-.786.372-1.423-.124-1.423-1.109V73.204c0-.985.637-2.085 1.423-2.457z"/>
        <path fill="#0DDF83" d="M26.663 72.747l9.014-4.27v1.784l-9.014 4.269zM51.999 60.856l9.013-4.269v1.783L52 62.639zM76.731 48.965l9.014-4.269v1.783l-9.014 4.27zM102.067 37.074l9.013-4.269v1.784l-9.013 4.268z"/>
        <path stroke="#47C4FD" stroke-linecap="square" d="M20.631 114.92l89.294-42.293M20.631 104.815l89.294-42.292M20.631 95.9l89.294-42.292M20.631 124.429l89.294-42.292M20.631 134.533l89.294-42.292" opacity=".2"/>
        <path stroke="#0DDF83" stroke-linecap="round" stroke-linejoin="round" d="M18.821 117.595c6.407-4.64 11.882-9.848 16.424-15.623 6.812-8.662 8.515-12.176 16.301-11.791 7.786.385 9.854-4.324 10.827.356.974 4.68 7.056 3.5 7.543 7.89.486 4.389 6.812 5.434 7.542-4.072.73-9.507 3.528-13.866 8.881-18.085 5.353-4.22 4.015.49 9.002-2.867 4.988-3.357 7.3-14.02 12.774-11.326"/>
        <path fill="url(#c)" d="M45.671 67.917c1.572-.744 2.846-2.944 2.846-4.914 0-1.97-1.274-2.963-2.846-2.218-1.572.744-2.846 2.945-2.846 4.914 0 1.97 1.274 2.963 2.846 2.218z" opacity=".34" transform="translate(14 23.832)"/>
        <path fill="url(#c)" d="M45.905 66.104c.68-.322 1.23-1.272 1.23-2.124 0-.85-.55-1.28-1.23-.958-.68.322-1.23 1.273-1.23 2.124 0 .85.55 1.28 1.23.958zM9.023 53.071c.655-.31 1.186-1.227 1.186-2.047 0-.821-.53-1.235-1.186-.925-.655.31-1.185 1.227-1.185 2.048 0 .82.53 1.234 1.185.924zM34.36 41.18c.654-.31 1.185-1.227 1.185-2.047 0-.82-.53-1.235-1.186-.924-.655.31-1.186 1.227-1.186 2.047 0 .82.531 1.235 1.186.924zM59.695 29.29c.655-.31 1.186-1.227 1.186-2.048 0-.82-.531-1.234-1.186-.924-.655.31-1.186 1.227-1.186 2.047 0 .821.53 1.235 1.186.925z" transform="translate(14 23.832)"/>
        <path fill="#8E4EFB" d="M98.427 41.231c.655-.31 1.186-1.227 1.186-2.047 0-.821-.53-1.235-1.186-.925-.655.31-1.186 1.227-1.186 2.048 0 .82.531 1.234 1.186.924z"/>
        <g>
            <g transform="translate(24.902 107.918)">
                <use fill="#000" filter="url(#d)" xlink:href="#e"/>
                <use fill="#0DDF83" xlink:href="#e"/>
            </g>
            <path fill="#FFF" d="M46.664 154.972c7.37-3.488 13.344-13.28 13.344-21.873 0-8.592-5.975-12.73-13.344-9.241-7.37 3.488-13.344 13.28-13.344 21.873 0 8.592 5.974 12.73 13.344 9.241z"/>
            <path stroke="#6ED860" stroke-linecap="round" stroke-linejoin="round" stroke-width="4" d="M40.088 142.274l5.826 6.658 9.155-18.309"/>
        </g>
        <g>
            <g transform="translate(94.011 37.066)">
                <g transform="rotate(15 -22.628 178.708)">
                    <use fill="#000" filter="url(#f)" xlink:href="#g"/>
                    <use fill="#0DDF83" xlink:href="#g"/>
                </g>
                <path fill="url(#a)" d="M9.806 3.072c4.681 8.836 4.174 13.644-1.52 14.422-5.696.779-8.423-2.888-8.182-11l9.702-3.422z" transform="rotate(15 -22.628 178.708)"/>
                <path fill="url(#h)" d="M15.442 27.58c-1.96-5.015-.846-10.72 3.343-17.117C25.068.868 37.167 1.12 44.937 2.86c5.18 1.161 8.366 5.133 9.557 11.917.602 7.667-.482 12.092-3.25 13.275-4.14 7.796-8.502 14.253-13.089 19.372l-12.561-1.93c-5.474-4.598-8.211-7.235-8.211-7.912 0-.677-.647-4.011-1.941-10.003z"/>
                <path fill="url(#i)" d="M23.882 43.344c1.231 6.362-.796 11.383-6.083 15.065C9.87 63.93 4.296 64.566 4.557 87.535c.174 15.313.54 29.088 1.1 41.326.297 2.935 2.305 4.308 6.023 4.118 5.578-.285 43.493-6.644 55.21-26.324 1.019-1.535 1.456-4.205 1.31-8.01-.145-3.805-1.258-15.431-3.338-34.88-2.035-8.668-6.63-12.877-13.784-12.627a9.033 9.033 0 0 1-3.587-.231c2.914-5.883 4.222-14.67 3.922-26.36-.753-1.29-1.442-2.2-2.066-2.728-4.254 5.331-11.587 6.448-22 3.35-.436 3.794-1.181 6.483-2.234 8.068 1.047 2.014 1.494 4.047 1.343 6.1-.151 2.052-1.01 3.388-2.574 4.007z"/>
                <path fill="url(#j)" d="M23.882 43.344c1.231 6.362-.796 11.383-6.083 15.065C9.87 63.93 4.296 64.566 4.557 87.535c.174 15.313.54 29.088 1.1 41.326.297 2.935 2.305 4.308 6.023 4.118 5.578-.285 43.493-6.644 55.21-26.324 1.019-1.535 1.456-4.205 1.31-8.01-.145-3.805-1.258-15.431-3.338-34.88-2.035-8.668-6.63-12.877-13.784-12.627a9.033 9.033 0 0 1-3.587-.231c-4.458 4.534-12.328 2.013-23.61-7.563z"/>
                <path fill="url(#k)" d="M22.75 53.035c-1.814 2.547-3.464 4.338-4.95 5.374C9.87 63.93 4.295 64.566 4.556 87.535c.174 15.313.54 29.088 1.1 41.326.297 2.935 2.305 4.308 6.023 4.118 5.578-.285 43.493-6.644 55.21-26.324 1.019-1.535 1.456-4.205 1.31-8.01-.145-3.805-1.258-15.431-3.338-34.88-2.035-8.668-6.63-12.877-13.784-12.627a9.033 9.033 0 0 1-3.587-.231c0 5.795-2.049 10.599-6.146 14.413-10.136-2.413-16.334-6.508-18.596-12.285z"/>
                <path fill="url(#a)" d="M39.936 125.445L19.534 57.05c-.74.616-1.319 1.07-1.735 1.359C9.87 63.93.244 65.069.505 88.039c.173 15.312.483 27.595.929 36.847.344 5.395 3.76 8.093 10.246 8.093 5.121 0 16.899-1.84 28.616-6.453l-.36-1.08zm21.84-13.137l-10.698-61.17c7.154-.25 11.749 3.96 13.784 12.628 2.08 19.448 3.193 31.074 3.338 34.88.146 3.804-.291 6.474-1.31 8.01-1.368 2.298-3.037 4.419-4.934 6.372l-.18-.72z"/>
                <use fill="#000" filter="url(#l)" xlink:href="#m"/>
                <use fill="#0DDF83" xlink:href="#m"/>
                <use fill="#000" filter="url(#n)" xlink:href="#o"/>
                <use fill="#0DDF83" xlink:href="#o"/>
                <rect width="14.524" height="6.912" x="39.148" y="45.74" fill="url(#a)" rx="3.456" transform="rotate(-27 46.41 49.196)"/>
                <g transform="rotate(-34 20.315 35.947)">
                    <use fill="#000" filter="url(#p)" xlink:href="#q"/>
                    <use fill="#0DDF83" xlink:href="#q"/>
                </g>
                <ellipse cx="18.826" cy="37.332" fill="url(#a)" rx="4.852" ry="7.85" transform="rotate(-34 18.826 37.332)"/>
            </g>
        </g>
    </g>
</svg>
