<svg xmlns="http://www.w3.org/2000/svg" xmlns:xlink="http://www.w3.org/1999/xlink" width="740" height="382" viewBox="0 0 740 382">
    <defs>
        <linearGradient id="a" x1="18.266%" x2="98.803%" y1="100%" y2="2.769%">
            <stop offset="0%" stop-color="#48429E"/>
            <stop offset="73.129%" stop-color="#3A657D"/>
            <stop offset="100%" stop-color="#507285" stop-opacity="0"/>
        </linearGradient>
        <linearGradient id="b" x1="46.589%" x2="55.3%" y1="79.076%" y2="22.453%">
            <stop offset="0%" stop-color="#859AB9"/>
            <stop offset="100%" stop-color="#FEFEFE" stop-opacity="0"/>
        </linearGradient>
        <linearGradient id="c" x1="41.06%" x2="72.895%" y1="58.764%" y2="35.703%">
            <stop offset="0%" stop-color="#F8EDFF"/>
            <stop offset="100%" stop-color="#C6FDF9"/>
        </linearGradient>
        <linearGradient id="d" x1="110.679%" x2="50%" y1="-42.688%" y2="107.789%">
            <stop offset="0%" stop-color="#34DDFF"/>
            <stop offset="100%" stop-color="#49A3FD"/>
        </linearGradient>
        <linearGradient id="e" x1="86.213%" x2="50%" y1="13.901%" y2="136.534%">
            <stop offset="0%" stop-color="#34DDFF"/>
            <stop offset="100%" stop-color="#49A3FD"/>
        </linearGradient>
        <linearGradient id="f" x1="127.792%" x2="-2.297%" y1="-17.749%" y2="109.387%">
            <stop offset="0%" stop-color="#ABF0A2" stop-opacity="0"/>
            <stop offset="100%" stop-color="#68D75A"/>
        </linearGradient>
        <linearGradient id="g" x1="127.792%" x2="-19.218%" y1="-17.749%" y2="138.231%">
            <stop offset="0%" stop-color="#FBFDFF"/>
            <stop offset="100%" stop-color="#DCECFE"/>
        </linearGradient>
        <linearGradient id="h" x1="108.725%" x2="22.637%" y1="6.323%" y2="107.105%">
            <stop offset="0%" stop-color="#FEFEFE"/>
            <stop offset="100%" stop-color="#F3F6FC"/>
        </linearGradient>
        <linearGradient id="i" x1="50%" x2="95.472%" y1="17.05%" y2="71.504%">
            <stop offset="0%" stop-color="#72FAD6"/>
            <stop offset="100%" stop-color="#49FCD8"/>
        </linearGradient>
        <linearGradient id="j" x1="50%" x2="50%" y1="17.05%" y2="100%">
            <stop offset="0%" stop-color="#1EF1B9"/>
            <stop offset="100%" stop-color="#0DDF83"/>
        </linearGradient>
        <linearGradient id="k" x1="35.64%" y1="121.503%" y2="50%">
            <stop offset="0%" stop-color="#7243C0"/>
            <stop offset="100%" stop-color="#AC5FCF"/>
        </linearGradient>
        <linearGradient id="l" x1="156.729%" x2="-23.341%" y1="128.396%" y2="58.371%">
            <stop offset="0%" stop-color="#9C57CA"/>
            <stop offset="100%" stop-color="#AC5FCF"/>
        </linearGradient>
        <path id="n" d="M32.255 55.433l13.296-4.56c2.403-.823 4.35-3.443 4.35-5.85V3.742c0-2.408-1.947-3.692-4.35-2.868L4.35 15.003C1.948 15.827 0 18.447 0 20.854v41.281c0 2.408 1.948 3.691 4.35 2.867l13.317-4.566 7.317 7.927 7.271-12.93z"/>
        <filter id="m" width="204.2%" height="176.8%" x="-78.2%" y="-38.4%" filterUnits="objectBoundingBox">
            <feOffset dx="-13" in="SourceAlpha" result="shadowOffsetOuter1"/>
            <feGaussianBlur in="shadowOffsetOuter1" result="shadowBlurOuter1" stdDeviation="6.5"/>
            <feComposite in="shadowBlurOuter1" in2="SourceAlpha" operator="out" result="shadowBlurOuter1"/>
            <feColorMatrix in="shadowBlurOuter1" values="0 0 0 0 0.0352941176 0 0 0 0 0.505882353 0 0 0 0 0.745098039 0 0 0 0.2 0"/>
        </filter>
        <path id="p" d="M32.255 55.433l13.296-4.56c2.403-.823 4.35-3.443 4.35-5.85V3.742c0-2.408-1.947-3.692-4.35-2.868L4.35 15.003C1.948 15.827 0 18.447 0 20.854v41.281c0 2.408 1.948 3.691 4.35 2.867l13.317-4.566 7.317 7.927 7.271-12.93z"/>
        <filter id="o" width="204.2%" height="176.8%" x="-78.2%" y="-38.4%" filterUnits="objectBoundingBox">
            <feOffset dx="-13" in="SourceAlpha" result="shadowOffsetOuter1"/>
            <feGaussianBlur in="shadowOffsetOuter1" result="shadowBlurOuter1" stdDeviation="6.5"/>
            <feComposite in="shadowBlurOuter1" in2="SourceAlpha" operator="out" result="shadowBlurOuter1"/>
            <feColorMatrix in="shadowBlurOuter1" values="0 0 0 0 0.0352941176 0 0 0 0 0.505882353 0 0 0 0 0.745098039 0 0 0 0.2 0"/>
        </filter>
    </defs>
    <g fill="none" fill-rule="evenodd">
        <path fill="url(#a)" fill-rule="nonzero" d="M216.546 315.4l159.332-68.632-17.16-9.253c-21.353-11.514-56.03-14.286-77.454-6.191L60.348 314.796l-23.534-12.69 220.916-83.472c34.464-13.022 90.25-8.563 124.6 9.96 9.477 5.11 24.868 6.34 34.376 2.747l186.858-70.603-37.823-20.394c-21.353-11.515-56.03-14.286-77.454-6.192l-73.365 27.721 18.491 9.971-79.165 1.393 37.14-24.054 73.366-27.72c34.464-13.023 90.249-8.564 124.6 9.959l12.607 6.798c13.925 7.51 36.54 9.317 50.513 4.038l69.992-26.446L746 128.502l-117.216 44.29c-13.972 5.279-14.01 15.646-.084 23.155l42.782 23.069c34.35 18.522 34.258 44.095-.206 57.117l-118.06 44.608 20.256 10.922-79.165 1.393 16.968-34.931 18.408 9.926 118.06-44.609c21.423-8.094 21.48-23.99.127-35.505l-67.996-36.665L240.08 328.09l17.65 9.517L178.565 339l16.968-34.931 21.013 11.33zM16.969 291.426l62.196 33.538L0 326.357l16.969-34.93z" opacity=".5" transform="translate(0 12)"/>
        <g stroke-width="2">
            <path stroke="#3EB3EF" d="M621.27 351.418c86.306-39.443 86.306-103.393 0-142.836-86.305-39.443-226.235-39.443-312.54 0-86.306 39.443-86.306 103.393 0 142.836 86.305 39.443 226.235 39.443 312.54 0z"/>
            <path stroke="#3EB3EF" d="M563.434 324.401c54.088-24.798 54.088-65.004 0-89.802-54.087-24.799-141.78-24.799-195.868 0-54.088 24.798-54.088 65.004 0 89.802 54.087 24.799 141.78 24.799 195.868 0z"/>
            <path stroke="#C6E0FD" d="M532.59 310.113c37.88-17.183 37.88-45.043 0-62.226-37.881-17.183-99.299-17.183-137.18 0-37.88 17.183-37.88 45.043 0 62.226 37.881 17.183 99.299 17.183 137.18 0z"/>
        </g>
        <path fill="url(#b)" d="M493.792 293.485L624 223.58 196 85 82 147z" style="mix-blend-mode:multiply" transform="matrix(-1 0 0 1 706 12)"/>
        <path fill="#C6E0FD" d="M719.962 213.075c10.018 5.383 6.593 32.215-3.406 36.006L377.07 377.824c-11.656 4.421-25.086 3.354-36.76-2.92L183.552 290.38c-10.381-5.582-14.685-29.642-4.304-33.574l349.775-121.718c7.24-2.74 15.553-2.08 22.795 1.81"/>
        <path fill="#C6E0FD" d="M345.518 359.863l374.444-146.788c.94.505 1.76 1.198 2.47 2.044.471.563.894 1.194 1.267 1.881.375.686.7 1.431.98 2.22.14.396.267.803.384 1.22.582 2.081.879 4.416.914 6.832.015.968-.013 1.948-.08 2.93a37.527 37.527 0 0 1-.32 2.942c-.509 3.416-1.488 6.729-2.862 9.468-.392.785-.817 1.52-1.273 2.202-.456.677-.942 1.299-1.457 1.853a10.83 10.83 0 0 1-1.633 1.445 7.984 7.984 0 0 1-1.796.97L377.07 377.823c-9.347 3.545-19.84 3.551-29.648.183 5.818.549 11.305.003 12.025-5.698.868-6.89-8.442-8.768-13.928-12.446z"/>
        <path fill="#262755" d="M716.512 208.272c10.017 5.383 10.043 19.601.044 23.395L377.07 360.407c-11.656 4.422-25.086 3.356-36.76-2.919l-156.757-84.524c-10.381-5.583-10.418-20.334-.037-24.268l345.508-131.023c7.24-2.741 15.553-2.08 22.795 1.81l164.694 88.79z"/>
        <path fill="#86A9D2" d="M276.597 311.134c-8.745-.71-15.834-4.816-15.834-9.17s7.09-7.307 15.834-6.597c8.744.711 15.833 4.817 15.833 9.17 0 4.355-7.089 7.308-15.833 6.597z"/>
        <path fill="#2C2D5D" d="M277.043 312.148c-8.45-.686-15.301-4.654-15.301-8.862s6.85-7.062 15.301-6.375c8.45.687 15.302 4.655 15.302 8.863 0 4.207-6.851 7.061-15.302 6.374z"/>
        <path fill="#FFF" d="M688.827 226.731c1.467.788 1.472 2.87.008 3.425L386.009 344.63c-1.551.583-3.325.442-4.858-.386l-170.999-92.178c-1.7-.909-1.7-3.306-.018-3.945l302.873-114.488c1.164-.44 2.494-.333 3.658.29"/>
        <path fill="#FFF" d="M510.433 138.68l170.925 91.859-295.64 111.218-170.925-91.86z"/>
        <path fill="#86A9D2" d="M625.98 217.347l-109.253-58.716c-3.097-1.664-8.092-2.078-11.157-.925l-75.78 28.669v-.886h-7.358v4.905h.018c-.148.995.627 2.09 2.321 3.001l111.002 59.656c3.096 1.664 8.091 2.078 11.157.925l80.855-30.588c1.65-.621 2.404-1.57 2.266-2.573h.016v-4.905h-4.087v1.437z"/>
        <path fill="url(#c)" d="M94.294 1.753l111.002 59.655c3.096 1.664 3.122 3.948.056 5.101l-80.855 30.588c-3.065 1.153-8.06.74-11.156-.925L2.339 36.517c-3.097-1.664-3.122-3.948-.056-5.1L83.138.827c3.065-1.153 8.06-.739 11.156.925z" transform="translate(422.432 151.973)"/>
        <path fill="#86A9D2" d="M515.19 193.107l2.71 3.614 8.132 2.71c10.56 31.726 15.98 47.688 16.264 47.887.283.198-4.563-15.36-14.54-46.678l-9.855-3.015-2.992-6.084c-58.24-4.377-87.359-6.264-87.359-5.662 0 .602 29.213 3.012 87.64 7.228z"/>
        <path fill="url(#c)" d="M207.617 64.413c.15-.995-.625-2.093-2.32-3.005L94.293 1.753C92.027.535 88.741-.014 85.941.233l7.72 46.322 113.956 17.858z" transform="translate(422.432 151.973)"/>
        <path fill="#86A9D2" d="M508.886 154.039l7.267 37.787a7 7 0 0 0 5.64 5.568l104.808 18.772-105.945-14.801a7 7 0 0 1-5.964-5.96l-5.806-41.366z"/>
        <path fill="#3EB3EF" d="M286.084 239.484l21.948 11.795-46.091 17.34-21.948-11.796z"/>
        <path fill="#36D4FB" d="M307.366 250.922l38.409 5.602-62.552 23.532-21.947-11.795z"/>
        <path fill="#3EB3EF" d="M345.775 256.524l10.974 15.924-51.578 19.403-21.948-11.795z"/>
        <path fill="#36D4FB" d="M356.237 272.033l43.962 3.513-73.746 27.743-21.947-11.795z"/>
        <path fill="#3EB3EF" d="M399.979 275.629l27.435 9.731-79.013 29.724-21.948-11.795z"/>
        <path fill="#36D4FB" d="M427.414 285.36l38.408 5.603-95.474 35.916-21.947-11.795z"/>
        <path fill="#44BEF8" d="M300.124 253.647c4.04 2.171 10.558 2.711 14.558 1.207 4-1.505 3.968-4.485-.073-6.657-4.04-2.171-10.558-2.712-14.558-1.207-4 1.505-3.968 4.485.073 6.657z" opacity=".5"/>
        <path fill="#33A1E0" d="M303.466 252.389c2.176 1.17 5.686 1.46 7.84.65 2.154-.81 2.136-2.415-.04-3.584-2.175-1.17-5.685-1.46-7.839-.65-2.154.81-2.136 2.415.04 3.584z"/>
        <path fill="#44BEF8" d="M336.557 259.992c4.04 2.172 10.558 2.712 14.559 1.207 4-1.504 3.967-4.485-.073-6.656-4.04-2.172-10.559-2.712-14.56-1.207-4 1.505-3.967 4.485.074 6.656z" opacity=".5"/>
        <path fill="#33A1E0" d="M339.9 258.735c2.175 1.169 5.685 1.46 7.839.65 2.154-.81 2.136-2.415-.04-3.585-2.175-1.169-5.685-1.46-7.839-.65-2.154.81-2.136 2.416.04 3.585z"/>
        <path fill="#44BEF8" d="M348.621 274.898c4.04 2.171 10.559 2.712 14.559 1.207 4-1.505 3.967-4.485-.073-6.657-4.04-2.171-10.559-2.711-14.559-1.207-4 1.505-3.967 4.485.073 6.657z" opacity=".5"/>
        <path fill="#33A1E0" d="M351.964 273.64c2.176 1.17 5.685 1.46 7.84.65 2.153-.81 2.136-2.415-.04-3.584-2.176-1.17-5.685-1.46-7.84-.65-2.153.81-2.136 2.415.04 3.584z"/>
        <path fill="#44BEF8" d="M390.98 279.014c4.04 2.172 10.559 2.712 14.559 1.207 4-1.505 3.967-4.485-.073-6.656-4.04-2.172-10.559-2.712-14.559-1.207-4 1.505-3.967 4.485.073 6.656z" opacity=".5"/>
        <path fill="#33A1E0" d="M394.323 277.757c2.176 1.169 5.686 1.46 7.84.65 2.153-.81 2.136-2.415-.04-3.585-2.175-1.169-5.685-1.46-7.84-.65-2.153.81-2.135 2.416.04 3.585z"/>
        <path fill="#44BEF8" d="M420.17 288.085c4.041 2.171 10.56 2.712 14.56 1.207 4-1.505 3.967-4.485-.074-6.657-4.04-2.171-10.558-2.711-14.558-1.207-4 1.505-3.968 4.485.073 6.657z" opacity=".5"/>
        <path fill="#33A1E0" d="M423.514 286.827c2.175 1.17 5.685 1.46 7.839.65 2.154-.81 2.136-2.415-.04-3.584-2.175-1.17-5.685-1.46-7.839-.65-2.154.81-2.136 2.415.04 3.584z"/>
        <path fill="#44BEF8" d="M457.914 293.33c4.04 2.171 10.559 2.712 14.559 1.207 4-1.505 3.967-4.485-.073-6.656-4.04-2.172-10.559-2.712-14.559-1.207-4 1.504-3.967 4.485.073 6.656z" opacity=".5"/>
        <path fill="#33A1E0" d="M461.257 292.072c2.176 1.17 5.685 1.46 7.84.65 2.153-.81 2.136-2.415-.04-3.584-2.176-1.17-5.685-1.46-7.84-.65-2.153.81-2.136 2.415.04 3.584z"/>
        <path fill="#0DDF83" d="M391.415 198.037l69.833 37.53-11.852 4.458-69.833-37.53z"/>
        <path fill="#DFF3FD" d="M371.661 205.468l53.872 28.951-7.243 2.725-53.871-28.952zM361.126 209.43l35.25 18.945-7.243 2.724-35.25-18.943z"/>
        <path fill="#EBF1F9" d="M631.932 179.752c.758.401 1.072 1.304.74 2.021-.352.714-1.22.97-1.959.57l-35.356-19.06c-.757-.402-1.071-1.304-.739-2.021.351-.714 1.22-.97 1.958-.57M640.67 185.263c.665-.278 1.533-.405 2.475-.328 1.463.119 2.715.695 3.392 1.47.341.392.539.833.539 1.292 0 .17-.026.336-.078.493-.362 1.093-1.926 1.788-3.853 1.631-2.217-.18-3.935-1.393-3.935-2.763 0-.244.056-.474.148-.686M619.316 165.003c.443-.182 1.016-.265 1.625-.215.96.078 1.792.458 2.235.967.222.256.351.545.351.846l-.055.324c-.24.718-1.256 1.174-2.53 1.07-1.442-.116-2.587-.915-2.587-1.814l.11-.45"/>
        <path fill="#262755" d="M265.708 328.767c0 .711-.72 1.125-1.385.776l-21.41-11.658a1.09 1.09 0 0 1-.554-.933v-4.343c0-.706.72-1.12 1.367-.783l21.114 11.08c.536.279.868.836.868 1.421v4.44z"/>
        <g fill="#262755">
            <path d="M217.504 305.188c1.256.571 2.272-.412 2.272-2.196 0-1.783-1.016-3.69-2.272-4.262-1.256-.57-2.272.414-2.272 2.196 0 1.784 1.016 3.693 2.272 4.262zM208.804 300.566c1.256.57 2.272-.414 2.272-2.196 0-1.784-1.016-3.693-2.272-4.262-1.256-.571-2.29.41-2.29 2.194s1.034 3.693 2.29 4.264zM200.085 295.94c1.274.573 2.29-.41 2.29-2.194s-1.016-3.691-2.29-4.264c-1.256-.569-2.272.414-2.272 2.198 0 1.782 1.016 3.691 2.272 4.26zM191.384 291.318c1.256.571 2.272-.414 2.272-2.196 0-1.784-1.016-3.693-2.272-4.262-1.256-.571-2.272.412-2.272 2.196 0 1.784 1.016 3.69 2.272 4.262z"/>
        </g>
        <g fill="#262755">
            <path d="M317.794 358.563c1.256.571 2.272-.412 2.272-2.196 0-1.784-1.016-3.691-2.272-4.262-1.256-.57-2.272.413-2.272 2.196 0 1.783 1.016 3.693 2.272 4.262zM309.094 353.94c1.256.57 2.272-.413 2.272-2.195 0-1.784-1.016-3.693-2.272-4.263-1.256-.57-2.29.41-2.29 2.195 0 1.784 1.034 3.692 2.29 4.264zM300.375 349.315c1.274.573 2.29-.41 2.29-2.194s-1.016-3.691-2.29-4.264c-1.256-.57-2.272.414-2.272 2.197 0 1.783 1.016 3.692 2.272 4.26zM291.674 344.693c1.256.57 2.272-.414 2.272-2.196 0-1.784-1.016-3.693-2.272-4.262-1.256-.572-2.272.411-2.272 2.195 0 1.784 1.016 3.691 2.272 4.263z"/>
        </g>
        <path fill="#746C68" d="M377.069 377.824l339.487-128.743L377.07 377.824c-5.967 2.232-12.21 3.05-18.454 2.545M716.663 249.04c-.01.005-.022.01-.033.012m.087-.033l-.03.012m.085-.035l-.03.012m.084-.034c-.01.003-.019.008-.028.01m.087-.037a.27.27 0 0 0-.033.016m.103-.047c-.01.005-.018.01-.03.013m.084-.036c-.01.003-.017.008-.026.01m.08-.035l-.027.012m.08-.038l-.026.013m.08-.038a.107.107 0 0 0-.026.013m.075-.038c-.007.005-.015.008-.024.013m.102-.051l-.022.01m.074-.037a.112.112 0 0 0-.02.01m.07-.036c-.006.001-.012.007-.017.008m.064-.034l-.012.007"/>
        <path fill="#A6CAF3" d="M376.921 377.875c.037-.01 113.249-42.942 339.635-128.794l.772-.343c3.95-2.148 6.669-7.6 7.905-13.677-1.606 3.382-3.785 5.986-6.425 6.988l-22.48 8.524v1.35c0 1.121-.651 2.087-1.67 2.474l-9.4 3.566c-1.003.017-1.505-.475-1.505-1.086v-1.535l-27.334 10.364v1.684c0 1.16-.674 2.16-1.729 2.56l-26.23 9.944c-2.051.036-3.104-.976-3.104-2.24l-4.193 1.421v1.862c0 1.161-.665 2.16-1.718 2.56l-26.23 9.944c-2.07.035-3.104-.976-3.104-2.237l-213.3 80.53c-5.672 2.16-11.786 3.019-17.9 2.614-1.608 3.644-6.096 4.101-10.9 3.711 3.086 1.21 6.854 1.997 10.622 2.304 6.244.507 12.488-.31 18.288-2.488z"/>
        <path fill="#FFF" fill-rule="nonzero" d="M389.514 355.717v17.461l2.811-.936V354.78zM693.195 240.54v17.461l2.812-.936v-17.46z"/>
        <path fill="#262755" d="M656.42 267.39c0 1.16-.675 2.16-1.73 2.56l-26.23 9.944c-1.441.55-3.104-.644-3.104-2.24v-4.576c0-.853.499-1.588 1.275-1.883l26.685-10.118c1.45-.549 3.103.644 3.103 2.24M621.163 280.937c0 1.161-.665 2.16-1.718 2.56l-26.23 9.944c-1.442.551-3.104-.644-3.104-2.237v-4.579c0-.853.499-1.588 1.274-1.883l26.674-10.117c1.46-.55 3.104.642 3.104 2.238v4.074z"/>
        <g>
            <path fill="url(#d)" d="M15.833 15.026c1.012-.31 2.181-.19 3.227.327 9.904-3.514 14.857-6.122 14.857-6.122s.074 13.85.083 14.287a.95.95 0 0 1-.083.414.953.953 0 0 1-.61.515L18.13 29.838c-.986.294-2.12.184-3.142-.305L.792 21.72c-.469-.224-.765-.66-.788-1.094-.005-.098-.005-4.805 0-14.12l15.83 8.52z" transform="translate(638 126)"/>
            <path fill="url(#e)" d="M18.053 29.84l15.251-5.348c.28-.083.5-.266.612-.512.06-.13.087-.27.084-.41-.01-.434-.084-14.172-.084-14.172L18.988 15.47c-1.05-.514-1.52-.264-2.536.043v14.462c.55.057 1.095.013 1.601-.136z" transform="translate(638 126)"/>
            <path fill="#59E0FF" d="M638.685 131.751l15.147-5.576c1.012-.318 2.18-.199 3.227.328l14.17 7.986c.623.314.931 1.014.688 1.563a.96.96 0 0 1-.61.528l-15.178 5.518c-.986.302-2.12.191-3.143-.306l-14.197-7.943c-.627-.305-.946-1.002-.712-1.557a.959.959 0 0 1 .608-.541z"/>
        </g>
        <g>
            <path fill="url(#d)" d="M15.833 15.026c1.012-.31 2.181-.19 3.227.327 9.904-3.514 14.857-6.122 14.857-6.122s.074 13.85.083 14.287a.95.95 0 0 1-.083.414.953.953 0 0 1-.61.515L18.13 29.838c-.986.294-2.12.184-3.142-.305L.792 21.72c-.469-.224-.765-.66-.788-1.094-.005-.098-.005-4.805 0-14.12l15.83 8.52z" transform="translate(129 209)"/>
            <path fill="url(#f)" d="M18.053 29.84l15.251-5.348c.28-.083.5-.266.612-.512.06-.13.087-.27.084-.41-.01-.434-.084-14.172-.084-14.172L18.988 15.47c-1.05-.514-1.52-.264-2.536.043v14.462c.55.057 1.095.013 1.601-.136z" transform="translate(129 209)"/>
            <path fill="url(#e)" d="M18.053 29.84l15.251-5.348c.28-.083.5-.266.612-.512.06-.13.087-.27.084-.41-.01-.434-.084-14.172-.084-14.172L18.988 15.47c-1.05-.514-1.52-.264-2.536.043v14.462c.55.057 1.095.013 1.601-.136z" transform="translate(129 209)"/>
            <path fill="#97ED8C" d="M129.685 214.751l15.147-5.576c1.012-.318 2.18-.199 3.227.328l14.17 7.986c.623.314.931 1.014.688 1.563a.96.96 0 0 1-.61.528l-15.178 5.518c-.986.302-2.12.191-3.143-.306l-14.197-7.943c-.627-.305-.946-1.002-.712-1.557a.959.959 0 0 1 .608-.541z"/>
            <path fill="#59E0FF" d="M129.685 214.751l15.147-5.576c1.012-.318 2.18-.199 3.227.328l14.17 7.986c.623.314.931 1.014.688 1.563a.96.96 0 0 1-.61.528l-15.178 5.518c-.986.302-2.12.191-3.143-.306l-14.197-7.943c-.627-.305-.946-1.002-.712-1.557a.959.959 0 0 1 .608-.541z"/>
        </g>
        <g>
            <path fill="#C6E0FD" d="M318.03 133.964c1.616-.628 3.485-.525 5.157.283l76.956 15.24.133 7.614c.005.246-.037.493-.133.727-.18.442-.527.782-.973.952l-170.302 64.836c-1.576.598-3.387.507-5.022-.253l-75.901-35.313c-.748-.348-1.222-1.083-1.259-1.835-.008-.17-.008 3.596 0-7.33l171.344-44.921z"/>
            <path fill="url(#g)" d="M82.593 113.446L252.896 48.61c.446-.17.794-.51.973-.952.096-.234.138-.48.133-.727l-.133-7.614-76.956-15.24c-1.672-.809-3.54-.911-5.157-.283l-91.71 24.52v65.512a6.138 6.138 0 0 0 2.547-.38z" transform="translate(146.274 110.17)"/>
            <path fill="url(#h)" d="M1.504 66.848L171.756.641c1.616-.628 3.485-.526 5.157.282l75.857 36.664c.997.481 1.489 1.648 1.1 2.606-.18.441-.528.782-.974.95L82.593 105.98c-1.575.599-3.386.507-5.02-.253L1.67 70.414C.668 69.948.159 68.787.532 67.822c.174-.45.523-.8.972-.974z" transform="translate(146.274 110.17)"/>
            <g opacity=".9">
                <path fill="url(#i)" d="M2.156 142.918c7.095-36.568 20.045-54.016 38.85-52.345 28.208 2.508 19.432-47.012 47.64-40.117 28.207 6.895 27.9-6.927 30.715-20.686C123.12 11.383 135.225 1.67 155.67.627v84.72L2.156 142.918z" transform="translate(168.281 36.712)"/>
                <path fill="url(#i)" d="M206.795 25.77l.06-.07L155.596.338c-20.474 1.108-32.593 10.855-36.354 29.242-2.814 13.76-2.507 27.581-30.714 20.686-28.208-6.895-19.432 42.625-47.64 40.117C22.082 88.712 8.545 106.568.276 143.952l53.005 24.04c7.095-36.569 20.045-54.017 38.85-52.345 28.208 2.507 19.432-47.013 47.64-40.118 28.207 6.895 27.9-6.926 30.714-20.685 3.762-18.388 15.865-28.102 36.31-29.144v.07z" transform="translate(168.281 36.712)"/>
                <path fill="url(#j)" d="M53.281 167.992c7.095-36.569 20.045-54.017 38.85-52.345 28.208 2.507 19.432-47.013 47.64-40.118 28.207 6.895 27.9-6.926 30.714-20.685 3.762-18.388 15.865-28.102 36.31-29.144v84.72L53.281 167.992z" transform="translate(168.281 36.712)"/>
            </g>
            <path stroke="#F5F7FA" stroke-dasharray="3,5" stroke-linecap="round" stroke-linejoin="round" d="M243.488 157.278v39.654M294.264 115.067v62.056M344.41 77.77v81.802"/>
            <path stroke="#FFF" stroke-linecap="round" stroke-linejoin="round" stroke-width="2" d="M216.591 200.264c7.095-36.568 20.045-54.016 38.85-52.345 28.208 2.507 19.432-47.013 47.64-40.117 28.207 6.895 27.9-6.927 30.715-20.686 3.76-18.387 15.864-28.101 36.31-29.143M168.327 175.42c7.095-36.568 20.045-54.016 38.85-52.345 28.208 2.508 19.432-47.012 47.64-40.117 28.208 6.895 27.9-6.927 30.715-20.686 3.76-18.387 15.864-28.101 36.31-29.143" opacity=".9"/>
            <g>
                <path fill="#F5F7FA" d="M295.04 96.438c-6.305 2.37-11.463 9.472-11.463 15.783 0 6.31 5.158 9.534 11.463 7.164 6.305-2.37 11.464-9.473 11.464-15.783 0-6.31-5.159-9.534-11.464-7.164z" opacity=".5"/>
                <path fill="url(#i)" d="M11.668 5.406c-4.02 1.51-7.308 6.038-7.308 10.06 0 4.023 3.289 6.078 7.308 4.567 4.02-1.51 7.308-6.038 7.308-10.06 0-4.023-3.289-6.078-7.308-4.567z" transform="translate(283.372 95.192)"/>
                <path fill="#F5F7FA" d="M295.04 104.166c-2.058.774-3.742 3.092-3.742 5.152s1.684 3.112 3.742 2.338c2.058-.773 3.742-3.091 3.742-5.151 0-2.06-1.684-3.112-3.742-2.339z"/>
            </g>
        </g>
        <g>
            <path fill="url(#k)" d="M15.833 15.062c1.012-.308 2.181-.19 3.227.326 9.904-3.505 14.857-6.107 14.857-6.107s.074 13.817.083 14.253a.945.945 0 0 1-.083.412.952.952 0 0 1-.61.515L18.13 29.839c-.986.293-2.12.183-3.142-.305L.792 21.74c-.469-.223-.765-.66-.788-1.091-.005-.098-.005-4.793 0-14.087l15.83 8.5z" transform="translate(571 86)"/>
            <path fill="url(#l)" d="M18.552 29.84l14.774-5.354a.933.933 0 0 0 .674-.923c-.01-.434-.081-14.188-.081-14.188l-14.462 6.08c-1.018-.514-1.472-.264-2.457.043v14.478c.532.057 1.06.013 1.552-.136z" transform="translate(571 86)"/>
            <path fill="#CC86EF" d="M571.685 91.967l15.147-5.786c1.012-.33 2.18-.206 3.227.34l14.17 8.286c.623.326.931 1.052.688 1.622a.972.972 0 0 1-.61.548l-15.178 5.725c-.986.313-2.12.198-3.143-.318l-14.197-8.24c-.627-.317-.946-1.04-.712-1.616a.972.972 0 0 1 .608-.561z"/>
        </g>
        <g>
            <path fill="url(#k)" d="M30.27 29.089c1.933-.6 4.169-.37 6.169.632C55.373 22.918 64.84 17.869 64.84 17.869s.141 26.812.159 27.659c.005.274-.046.546-.16.8-.214.48-.63.838-1.164.999L34.66 57.763c-1.885.569-4.052.356-6.007-.59L1.513 42.046C.618 41.614.052 40.767.007 39.93c-.01-.19-.01-9.302 0-27.335L30.27 29.089z" transform="translate(455 65.178)"/>
            <path fill="url(#l)" d="M34.514 57.765L63.67 47.412c.535-.16.954-.513 1.17-.99.114-.253.165-.522.16-.794-.018-.84-.16-27.436-.16-27.436L36.3 29.95c-2.01-.994-2.906-.51-4.85.084v27.996a7.85 7.85 0 0 0 3.063-.264z" transform="translate(455 65.178)"/>
            <path fill="#CC86EF" d="M456.31 76.31l28.957-10.794c1.934-.615 4.17-.385 6.17.635l27.089 15.46c1.191.608 1.78 1.963 1.315 3.027-.215.49-.632.856-1.165 1.021l-29.019 10.682c-1.885.585-4.051.37-6.006-.593l-27.142-15.376c-1.2-.591-1.81-1.94-1.363-3.014a1.84 1.84 0 0 1 1.164-1.047z"/>
            <g>
                <g opacity=".96" transform="translate(462.688 12)">
                    <use fill="#000" filter="url(#m)" xlink:href="#n"/>
                    <use fill="#FFF" xlink:href="#n"/>
                    <path stroke="#F3F4F6" stroke-width="1.25" d="M24.86 67.307l6.967-12.388 13.52-4.636c2.156-.74 3.93-3.125 3.93-5.26V3.742c0-1.967-1.515-2.965-3.524-2.276l-41.2 14.128C2.4 16.334.625 18.72.625 20.854v41.281c0 1.966 1.515 2.965 3.523 2.276l13.702-4.699 7.01 7.595z"/>
                </g>
                <g fill="#0DDF83">
                    <path d="M481.909 34.729c3.267-1.122 5.94.642 5.94 3.92 0 3.277-2.673 6.877-5.94 7.998-3.268 1.122-5.941-.642-5.941-3.92 0-3.277 2.673-6.877 5.94-7.998zm.35 3.31c-1.539.499-2.797 2.099-2.797 3.555 0 1.457 1.258 2.241 2.796 1.743 1.538-.499 2.796-2.099 2.796-3.556 0-1.456-1.258-2.24-2.796-1.742zM498.333 44.506c3.076-1.06 5.592.606 5.592 3.702 0 3.095-2.516 6.495-5.592 7.554-3.075 1.06-5.591-.606-5.591-3.702 0-3.095 2.516-6.495 5.591-7.554zm0 3.048c-1.41.486-2.562 2.044-2.562 3.463s1.153 2.182 2.562 1.697c1.41-.486 2.563-2.044 2.563-3.463s-1.153-2.182-2.563-1.697z"/>
                    <path fill-rule="nonzero" d="M498.14 31.745l-19.01 26.782a1.987 1.987 0 0 0 .497 2.79 2.044 2.044 0 0 0 2.825-.491l19.009-26.782a1.987 1.987 0 0 0-.497-2.79 2.044 2.044 0 0 0-2.824.491z"/>
                </g>
            </g>
            <g>
                <path fill="url(#d)" d="M30.27 29.089c1.933-.6 4.169-.37 6.169.632C55.373 22.918 64.84 17.869 64.84 17.869s.141 26.812.159 27.659c.005.274-.046.546-.16.8-.214.48-.63.838-1.164.999L34.66 57.763c-1.885.569-4.052.356-6.007-.59L1.513 42.046C.618 41.614.052 40.767.007 39.93c-.01-.19-.01-9.302 0-27.335L30.27 29.089z" transform="translate(385 92.178)"/>
                <path fill="url(#e)" d="M34.514 57.765L63.67 47.412c.535-.16.954-.513 1.17-.99.114-.253.165-.522.16-.794-.018-.84-.16-27.436-.16-27.436L36.3 29.95c-2.01-.994-2.906-.51-4.85.084v27.996a7.85 7.85 0 0 0 3.063-.264z" transform="translate(385 92.178)"/>
                <path fill="#59E0FF" d="M386.31 103.31l28.957-10.794c1.934-.615 4.17-.385 6.17.635l27.089 15.46c1.191.608 1.78 1.963 1.315 3.027-.215.49-.632.856-1.165 1.021l-29.019 10.682c-1.885.585-4.051.37-6.006-.593l-27.142-15.376c-1.2-.591-1.81-1.94-1.363-3.014a1.84 1.84 0 0 1 1.164-1.047z"/>
                <g>
                    <g opacity=".96" transform="translate(392.688 39)">
                        <use fill="#000" filter="url(#o)" xlink:href="#p"/>
                        <use fill="#FFF" xlink:href="#p"/>
                        <path stroke="#F3F4F6" stroke-width="1.25" d="M24.86 67.307l6.967-12.388 13.52-4.636c2.156-.74 3.93-3.125 3.93-5.26V3.742c0-1.967-1.515-2.965-3.524-2.276l-41.2 14.128C2.4 16.334.625 18.72.625 20.854v41.281c0 1.966 1.515 2.965 3.523 2.276l13.702-4.699 7.01 7.595z"/>
                    </g>
                    <path fill="#35D6FB" d="M417.639 69.749c-1.85.634-3.362 2.669-3.362 4.521 0 1.853 1.513 2.85 3.362 2.216 1.849-.634 3.362-2.669 3.362-4.522 0-1.852-1.513-2.85-3.362-2.215z"/>
                    <path fill="#35D6FB" d="M427.725 69.659c0-5.558-4.539-8.55-10.086-6.647-5.547 1.902-10.086 8.006-10.086 13.564 0 3.705 2.017 6.214 5.043 7.029l1.681-3.44c-2.017-.487-3.362-2.215-3.362-4.573 0-3.706 3.026-7.775 6.724-9.043 3.698-1.268 6.724.726 6.724 4.431 0 2.526-1.345 5.177-3.362 6.88l1.68 2.286c3.026-2.89 5.044-6.782 5.044-10.487z"/>
                    <path fill="#35D6FB" d="M417.639 56.275c-9.245 3.17-16.81 13.343-16.81 22.607 0 6.232 3.362 10.468 8.405 11.602l1.681-3.44c-4.034-.974-6.724-4.43-6.724-9.315 0-7.41 6.052-15.55 13.448-18.086 7.396-2.536 13.448 1.452 13.448 8.863 0 5.053-2.69 10.186-6.724 13.927l1.68 2.287c5.044-4.593 8.405-11.304 8.405-17.367 0-9.264-7.564-14.249-16.81-11.078z"/>
                </g>
            </g>
        </g>
    </g>
</svg>
