<svg xmlns="http://www.w3.org/2000/svg" xmlns:xlink="http://www.w3.org/1999/xlink" width="209" height="185" viewBox="0 0 209 185">
    <defs>
        <linearGradient id="a" x1="82.57%" x2="10.998%" y1="12.148%" y2="93.287%">
            <stop offset="0%" stop-color="#0FC3C9"/>
            <stop offset="100%" stop-color="#9746FF"/>
        </linearGradient>
        <path id="c" d="M89 58l71 71-85.012 33.126c-4.348 1.645-9.906.9-12.416-1.664L1.219 97.792C-1.29 95.226.2 91.814 4.546 90.17L89 58z"/>
        <filter id="b" width="130%" height="145.7%" x="-15%" y="-25.7%" filterUnits="objectBoundingBox">
            <feOffset dy="-3" in="SourceAlpha" result="shadowOffsetOuter1"/>
            <feGaussianBlur in="shadowOffsetOuter1" result="shadowBlurOuter1" stdDeviation="7.5"/>
            <feColorMatrix in="shadowBlurOuter1" values="0 0 0 0 0.22745098 0 0 0 0 0.474509804 0 0 0 0 0.788235294 0 0 0 0.312584918 0"/>
        </filter>
        <linearGradient id="d" x1="-19.533%" x2="-61.573%" y1="-6.737%" y2="137.079%">
            <stop offset="0%" stop-color="#FFF" stop-opacity="0"/>
            <stop offset="100%" stop-color="#0DDF83"/>
        </linearGradient>
        <linearGradient id="e" x1="50%" x2="50%" y1="0%" y2="100%">
            <stop offset="0%" stop-color="#FFF" stop-opacity="0"/>
            <stop offset="100%" stop-color="#0DDF83"/>
        </linearGradient>
        <linearGradient id="f" x1="50%" x2="50%" y1="0%" y2="100%">
            <stop offset="0%" stop-color="#49B6F7"/>
            <stop offset="100%" stop-color="#9647FF"/>
        </linearGradient>
        <path id="h" d="M31.482 51.672c17.937 9.117 52.03 4.475 100.47-12.407l4.878 10.71 17.046-34.712-38.93-12.762 6.914 15.822C80.8 36.17 51.505 43.203 33.976 39.42c-11.949-3.212-16.962-8.901-15.04-17.067-1.982 1.934-2.973 5.178-2.973 9.73.53 10.671 11.929 18.066 15.519 19.589z"/>
        <filter id="g" width="134.1%" height="187.4%" x="-13.4%" y="-43.7%" filterUnits="objectBoundingBox">
            <feOffset dx="5" in="SourceAlpha" result="shadowOffsetOuter1"/>
            <feGaussianBlur in="shadowOffsetOuter1" result="shadowBlurOuter1" stdDeviation="7"/>
            <feColorMatrix in="shadowBlurOuter1" values="0 0 0 0 0.0352941176 0 0 0 0 0.505882353 0 0 0 0 0.745098039 0 0 0 0.2 0"/>
        </filter>
        <path id="j" d="M170.247 113.492l11.23-4.991c2.03-.902 3.676-3.279 3.676-5.309V68.39c0-2.03-1.645-2.943-3.675-2.041l-34.803 15.467c-2.03.902-3.675 3.278-3.675 5.308v34.803c0 2.03 1.645 2.944 3.675 2.042l11.249-5 6.18 6.052 6.143-11.528z"/>
        <filter id="i" width="185.4%" height="157.6%" x="-64.1%" y="-28.8%" filterUnits="objectBoundingBox">
            <feOffset dx="-10" in="SourceAlpha" result="shadowOffsetOuter1"/>
            <feGaussianBlur in="shadowOffsetOuter1" result="shadowBlurOuter1" stdDeviation="4"/>
            <feComposite in="shadowBlurOuter1" in2="SourceAlpha" operator="out" result="shadowBlurOuter1"/>
            <feColorMatrix in="shadowBlurOuter1" values="0 0 0 0 0.0352941176 0 0 0 0 0.505882353 0 0 0 0 0.745098039 0 0 0 0.1 0"/>
        </filter>
        <path id="l" d="M14.5 15.623c1.933-.872 3.5-2.977 3.5-4.702 0-1.724-1.567-2.416-3.5-1.544-1.933.872-3.5 2.977-3.5 4.702 0 1.724 1.567 2.416 3.5 1.544z"/>
        <filter id="k" width="771.4%" height="771.4%" x="-264.3%" y="-335.7%" filterUnits="objectBoundingBox">
            <feOffset dx="5" in="SourceAlpha" result="shadowOffsetOuter1"/>
            <feGaussianBlur in="shadowOffsetOuter1" result="shadowBlurOuter1" stdDeviation="7"/>
            <feColorMatrix in="shadowBlurOuter1" values="0 0 0 0 0.0352941176 0 0 0 0 0.505882353 0 0 0 0 0.745098039 0 0 0 0.2 0"/>
        </filter>
        <path id="n" d="M7.636 10.372c-3.515 4.419-3.515 9.177 0 10.628l1.497-1.882c-2.687-1.11-2.687-4.749 0-8.127l-1.497-.619zm12.728 5.256c3.515-4.419 3.515-9.177 0-10.628l-1.497 1.882c2.687 1.11 2.687 4.749 0 8.127l1.497.619z"/>
        <filter id="m" width="361.1%" height="393.8%" x="-102.8%" y="-146.9%" filterUnits="objectBoundingBox">
            <feOffset dx="5" in="SourceAlpha" result="shadowOffsetOuter1"/>
            <feGaussianBlur in="shadowOffsetOuter1" result="shadowBlurOuter1" stdDeviation="7"/>
            <feColorMatrix in="shadowBlurOuter1" values="0 0 0 0 0.0352941176 0 0 0 0 0.505882353 0 0 0 0 0.745098039 0 0 0 0.2 0"/>
        </filter>
        <path id="p" d="M4.1 8.394C-1.366 15.298-1.366 22.732 4.1 25l1.467-1.852C.91 21.217.91 14.883 5.567 9.002l-1.466-.608zm19.8 8.212C29.366 9.702 29.366 2.268 23.9 0l-1.467 1.852c4.657 1.931 4.657 8.265 0 14.146l1.466.608z"/>
        <filter id="o" width="267.9%" height="288%" x="-66.1%" y="-94%" filterUnits="objectBoundingBox">
            <feOffset dx="5" in="SourceAlpha" result="shadowOffsetOuter1"/>
            <feGaussianBlur in="shadowOffsetOuter1" result="shadowBlurOuter1" stdDeviation="7"/>
            <feColorMatrix in="shadowBlurOuter1" values="0 0 0 0 0.0352941176 0 0 0 0 0.505882353 0 0 0 0 0.745098039 0 0 0 0.2 0"/>
        </filter>
    </defs>
    <g fill="none" fill-rule="evenodd">
        <path fill="url(#a)" d="M89.558 64L167 123v6.557a5 5 0 0 1-3.217 4.671l-88.795 33.898c-4.348 1.645-9.906.9-12.416-1.664l-61.353-62.67c-.92-.941-1.303-1.996-1.204-3.036C.13 99.56.125 97.641 0 95l89.558-31z" transform="translate(13.998 10.724)"/>
        <g transform="translate(13.998 10.724)">
            <use fill="#000" filter="url(#b)" xlink:href="#c"/>
            <use fill="#FFF" xlink:href="#c"/>
        </g>
        <path fill="url(#a)" d="M103.902 58.513l61.868 62.056c2.532 2.539 1.03 5.917-3.354 7.546l-2.382.885L89 57.75l2.381-.884c4.384-1.63 9.99-.892 12.52 1.647z" transform="translate(13.998 10.724)"/>
        <path fill="url(#d)" d="M62.019 157V49.85L0 .936v94.353zM62.019 157V61.988L148 29.984v94.96z" transform="translate(21.998 10.724)"/>
        <path fill="url(#e)" fill-rule="nonzero" d="M76.5 151a.5.5 0 0 1-1 0V52.873a.5.5 0 1 1 1 0V151zm17.908-6.529a.5.5 0 0 1-1 0V46.344a.5.5 0 1 1 1 0v98.127zm17-5.908a.5.5 0 0 1-1 0V40.436a.5.5 0 1 1 1 0v98.127zm17-7.092a.5.5 0 0 1-1 0V33.344a.5.5 0 1 1 1 0v98.127zm17-6a.5.5 0 0 1-1 0V27.344a.5.5 0 1 1 1 0v98.127z" transform="translate(21.998 10.724)"/>
        <path fill="url(#e)" fill-rule="nonzero" d="M14.5 142a.5.5 0 0 1-1 0V43.873a.5.5 0 1 1 1 0V142zm17.908-18.529a.5.5 0 0 1-1 0V25.344a.5.5 0 1 1 1 0v98.127zm17-16.908a.5.5 0 0 1-1 0V8.436a.5.5 0 1 1 1 0v98.127z" transform="matrix(-1 0 0 1 84.906 10.724)"/>
        <path stroke="url(#f)" stroke-linecap="round" stroke-linejoin="round" stroke-width="3" d="M.604 10.366C7.75 6.36 12.96 7.443 16.234 13.614c4.914 9.257 5.553 25.625 20.619 13.231 15.066-12.393 14.171 39.547 26.09 40.002 11.92.456 14.272-33.03 24.332-40.002 10.06-6.973 22.748 15.788 30.874-1.517 8.126-17.305 19.512-.691 26.671-25.25" transform="translate(21.998 52.724)"/>
        <path fill="#0AB369" d="M39.843 39.56c-5.288 2.987-5.959 6.436-2.013 10.348 3.946 3.911 3.946 4.269 0 1.072-12.564-10.355-12.564-18.56 0-24.618l2.013 13.198z"/>
        <g transform="translate(11 10)">
            <use fill="#000" filter="url(#g)" xlink:href="#h"/>
            <use fill="#0DDF83" xlink:href="#h"/>
        </g>
        <g opacity=".96" transform="translate(11 10)">
            <use fill="#000" filter="url(#i)" xlink:href="#j"/>
            <use fill="#FFF" xlink:href="#j"/>
            <path stroke="#F3F4F6" d="M163.977 124.196l5.91-11.09 11.388-5.062c1.854-.824 3.378-3.026 3.378-4.852V68.39c0-1.648-1.257-2.347-2.972-1.584l-34.803 15.467c-1.854.824-3.378 3.025-3.378 4.851v34.803c0 1.649 1.257 2.347 2.972 1.585l11.559-5.137 5.946 5.822z"/>
        </g>
        <g>
            <g transform="translate(162 93)">
                <use fill="#000" filter="url(#k)" xlink:href="#l"/>
                <use fill="#0DDF83" xlink:href="#l"/>
            </g>
            <g fill-rule="nonzero" transform="translate(162 93)">
                <use fill="#000" filter="url(#m)" xlink:href="#n"/>
                <use fill="#0DDF83" fill-rule="evenodd" xlink:href="#n"/>
            </g>
            <g fill-rule="nonzero" transform="translate(162 93)">
                <use fill="#000" filter="url(#o)" xlink:href="#p"/>
                <use fill="#0DDF83" fill-rule="evenodd" xlink:href="#p"/>
            </g>
        </g>
    </g>
</svg>
