<svg xmlns="http://www.w3.org/2000/svg" xmlns:xlink="http://www.w3.org/1999/xlink" width="145" height="128" viewBox="0 0 145 128">
    <defs>
        <linearGradient id="a" x1="10.559%" x2="104.474%" y1="54.152%" y2="73.889%">
            <stop offset="0%" stop-color="#EDF5FF"/>
            <stop offset="100%" stop-color="#C6E0FD"/>
        </linearGradient>
        <linearGradient id="b" x1="82.57%" x2="10.998%" y1="12.148%" y2="93.287%">
            <stop offset="0%" stop-color="#0FC3C9"/>
            <stop offset="100%" stop-color="#9746FF"/>
        </linearGradient>
        <path id="d" d="M44.004 83.672c.321-25.38 18.937-54.76 41.578-65.626 22.642-10.864 40.735.902 40.414 26.282-.322 25.38-18.937 54.761-41.578 65.626-22.642 10.864-40.735-.903-40.414-26.282zm42.779 23.755c20.687-9.927 37.695-36.773 37.989-59.961.294-23.189-16.238-33.94-36.925-24.013-20.687 9.926-37.696 36.772-37.99 59.96-.293 23.19 16.24 33.94 36.926 24.014z"/>
        <filter id="c" width="157.3%" height="147%" x="-22.6%" y="-23.5%" filterUnits="objectBoundingBox">
            <feOffset dx="5" in="SourceAlpha" result="shadowOffsetOuter1"/>
            <feGaussianBlur in="shadowOffsetOuter1" result="shadowBlurOuter1" stdDeviation="7"/>
            <feColorMatrix in="shadowBlurOuter1" values="0 0 0 0 0.0352941176 0 0 0 0 0.505882353 0 0 0 0 0.745098039 0 0 0 0.2 0"/>
        </filter>
    </defs>
    <g fill="none" fill-rule="nonzero">
        <path fill="#CCE3FD" d="M7.094 38L7 70.697c-.012 4.296 2.237 8.265 5.886 10.386l6.517 3.788a8.282 8.282 0 0 0 7.825.28L30 83.795 20 76V46L7.094 38z"/>
        <path fill="url(#a)" d="M28.277 84.541l4.17-2.058c2.145-1.058 3.116-3.641 2.22-5.9L32.056 70 20 75.997l2.08 5.943c.84 2.4 3.42 3.649 5.763 2.788.148-.055.293-.117.434-.187z"/>
        <path fill="url(#a)" d="M20 76l12-6V39l-11.97 6.096z"/>
        <path fill="url(#b)" d="M2.762 36.663a9.97 9.97 0 0 1-.824-1.111 10.668 10.668 0 0 1-.69-1.272 12.325 12.325 0 0 1-.766-2.2 14.784 14.784 0 0 1-.318-1.655 17.394 17.394 0 0 1-.152-1.804 20.81 20.81 0 0 1-.01-.957c.127-10.076 7.5-21.742 16.47-26.057.14-.067.278-.132.416-.194l.413-.182c.247-.101.329-.136.41-.168.254-.098.331-.128.407-.156.256-.09.33-.118.405-.143.255-.084.328-.108.4-.13l.398-.12.395-.105c.252-.06.321-.078.39-.093l.387-.082c.249-.045.316-.058.383-.069.247-.037.313-.048.38-.056l.374-.045c.243-.023.307-.029.371-.033.24-.015.304-.019.367-.021.237-.008.3-.01.362-.01.235 0 .296 0 .357.002.233.008.293.01.353.014.23.015.29.02.348.025.226.023.285.03.343.037.223.03.28.038.338.048.22.037.277.048.334.059.216.045.272.057.327.07.213.053.268.067.322.082l.317.092c.205.067.258.085.31.104.202.074.254.094.306.114.198.081.249.103.3.125.194.089.243.112.292.136.19.096.24.121.288.147.186.102.233.13.281.157l.202.12 32.514 20.304c2.982 1.859 4.801 5.582 4.736 10.702-.127 10.074-7.5 21.739-16.469 26.054-4.41 2.122-8.384 2.072-11.27.274-5.296-3.298-27.22-17.001-32.516-20.3a9.132 9.132 0 0 1-1.03-.757 9.03 9.03 0 0 1-.951-.946zm29.88 11.835l-.117.055.116-.055z"/>
        <path fill="url(#a)" d="M45.59 95.964c5.077 15.8 20.42 21.707 38.728 13.033 22.696-10.752 41.356-39.838 41.678-64.965.265-20.669-11.96-32.22-28.936-29.686L52.62 20.98c6.801-1.015 11.698 3.613 11.592 11.892-.13 10.067-7.604 21.72-16.697 26.026-7.335 3.475-13.481 1.109-15.515-5.22l13.59 42.286z"/>
        <path fill="#626EE8" d="M50.623 57.355a5.927 5.927 0 0 1-.484-.647 6.257 6.257 0 0 1-.577-1.146 7.411 7.411 0 0 1-.279-.876 8.328 8.328 0 0 1-.187-.964 9.633 9.633 0 0 1-.089-1.051 11.91 11.91 0 0 1-.006-.558c.075-5.868 4.41-12.663 9.682-15.177l.244-.113.243-.106.241-.098.105-.04.135-.05.106-.038.131-.046.107-.034.129-.042.108-.032.126-.037.108-.029.123-.032.23-.055c.147-.03.187-.04.228-.047l.224-.04.223-.033.22-.027.219-.02.215-.011c.14-.005.177-.005.213-.006l.21.001.208.008.204.015a8.94 8.94 0 0 1 .4.05c.13.021.162.027.196.034l.192.04.19.048.186.054a6 6 0 0 1 .537.2c.115.051.144.065.173.079.112.055.14.07.169.085.11.06.137.075.165.092l.119.07 17.905 10.88c1.753 1.082 2.822 3.25 2.784 6.232-.075 5.868-4.41 12.662-9.681 15.175-2.592 1.236-4.929 1.207-6.625.16-3.113-1.92-14.794-8.956-17.907-10.877a5.301 5.301 0 0 1-1.163-.99zm16.357 5.948l-.069.032.069-.032z"/>
        <path fill="url(#b)" d="M58.622 36.928c2.577-1.225 4.9-1.195 6.585-.157L83 47.556c-1.686-1.038-4.008-1.068-6.584.158-5.239 2.491-9.546 9.225-9.62 15.041-.038 2.956.918 5.172 2.66 6.245-3.093-1.904-14.594-8.945-17.687-10.849-1.743-1.072-2.806-3.223-2.768-6.179.074-5.817 4.382-12.552 9.621-15.044z"/>
        <path fill="url(#a)" d="M47.748 22.468c1.618-.764 3.18-1.246 4.65-1.465l44.574-6.632c16.92-2.634 29.29 8.924 29.024 29.678-.323 25.12-19.04 54.2-41.803 64.95-18.445 8.71-33.886 2.712-38.91-13.24-4.479-13.883-9.022-27.975-13.565-42.067-.49-1.516-.741-3.26-.716-5.204.129-10.064 7.627-21.713 16.746-26.02zm38.823 84.03c20.799-9.822 37.9-36.391 38.194-59.344.296-22.952-16.326-33.597-37.125-23.775-20.799 9.821-37.9 36.39-38.194 59.343-.296 22.952 16.326 33.597 37.125 23.775z"/>
        <g>
            <use fill="#000" filter="url(#c)" xlink:href="#d"/>
            <use fill="#0DDF83" fill-rule="evenodd" xlink:href="#d"/>
        </g>
    </g>
</svg>
