<svg xmlns="http://www.w3.org/2000/svg" xmlns:xlink="http://www.w3.org/1999/xlink" width="680" height="544" viewBox="0 0 680 544">
    <defs>
        <linearGradient id="a" x1="82.57%" x2="10.998%" y1="12.148%" y2="93.287%">
            <stop offset="0%" stop-color="#0FC3C9"/>
            <stop offset="100%" stop-color="#9746FF"/>
        </linearGradient>
        <linearGradient id="b" x1="100%" x2="0%" y1="92.338%" y2="92.338%">
            <stop offset="0%" stop-color="#FFF" stop-opacity="0"/>
            <stop offset="20.148%" stop-color="#0FC3C9"/>
            <stop offset="51.787%" stop-color="#10C3C9"/>
            <stop offset="79.907%" stop-color="#5285E4"/>
            <stop offset="100%" stop-color="#FFF" stop-opacity="0"/>
        </linearGradient>
        <linearGradient id="e" x1="50%" x2="50%" y1="17.05%" y2="100%">
            <stop offset="0%" stop-color="#1EF1B9"/>
            <stop offset="100%" stop-color="#0DDF83"/>
        </linearGradient>
        <path id="d" d="M90.146 173.243c-42.997 22.232-77.853 5.186-77.853-38.073 0-43.26 34.856-96.352 77.853-118.584C133.144-5.647 168 11.399 168 54.659c0 16.493-5.067 34.416-13.72 51.513 1.663 9.154 4.024 17.047 7.08 23.676 1.908 3.405.835 6.155-3.218 8.251-5.781 2.99-21.263 9.506-32.302 7.989-10.692 11.088-22.828 20.503-35.694 27.155z"/>
        <filter id="c" width="130.2%" height="126.7%" x="-11.9%" y="-13.3%" filterUnits="objectBoundingBox">
            <feOffset dx="5" in="SourceAlpha" result="shadowOffsetOuter1"/>
            <feGaussianBlur in="shadowOffsetOuter1" result="shadowBlurOuter1" stdDeviation="7"/>
            <feColorMatrix in="shadowBlurOuter1" values="0 0 0 0 0.0352941176 0 0 0 0 0.505882353 0 0 0 0 0.745098039 0 0 0 0.2 0"/>
        </filter>
        <linearGradient id="f" x1="-9.575%" x2="-9.575%" y1="-10.757%" y2="116.071%">
            <stop offset="0%" stop-color="#278CCE"/>
            <stop offset="100%" stop-color="#8B50FA"/>
        </linearGradient>
        <linearGradient id="g" x1="156.729%" x2="-23.341%" y1="128.396%" y2="58.371%">
            <stop offset="0%" stop-color="#9C57CA"/>
            <stop offset="100%" stop-color="#AC5FCF"/>
        </linearGradient>
        <linearGradient id="h" x1="35.64%" y1="121.503%" y2="50%">
            <stop offset="0%" stop-color="#7243C0"/>
            <stop offset="100%" stop-color="#AC5FCF"/>
        </linearGradient>
        <linearGradient id="i" x1="86.213%" x2="50%" y1="13.901%" y2="136.534%">
            <stop offset="0%" stop-color="#34DDFF"/>
            <stop offset="100%" stop-color="#49A3FD"/>
        </linearGradient>
        <linearGradient id="j" x1="110.679%" x2="50%" y1="-42.688%" y2="107.789%">
            <stop offset="0%" stop-color="#34DDFF"/>
            <stop offset="100%" stop-color="#49A3FD"/>
        </linearGradient>
    </defs>
    <g fill="none" fill-rule="evenodd">
        <rect width="680" height="544" fill="url(#a)" rx="5"/>
        <g opacity=".8">
            <path fill="#59E0FF" d="M443.576 428.765c61.899-28.313 61.899-74.217 0-102.53-61.898-28.313-162.254-28.313-224.152 0-61.899 28.313-61.899 74.217 0 102.53 61.898 28.313 162.254 28.313 224.152 0z" opacity=".2"/>
            <path fill="#59E0FF" d="M410.196 413.916c43.739-20.112 43.739-52.72 0-72.832-43.739-20.112-114.653-20.112-158.392 0-43.739 20.112-43.739 52.72 0 72.832 43.739 20.112 114.653 20.112 158.392 0z" opacity=".2"/>
            <path fill="#45C0FA" d="M379.644 398.774c27.141-12.302 27.141-32.246 0-44.548-27.142-12.301-71.146-12.301-98.288 0-27.141 12.302-27.141 32.246 0 44.548 27.142 12.301 71.146 12.301 98.288 0z" opacity=".2"/>
        </g>
        <path stroke="url(#b)" stroke-linecap="round" stroke-linejoin="round" stroke-width="4" d="M0 257c17.672-11.911 32.772-25.845 45.299-41.802 18.79-23.935 23.488-33.997 44.963-30.258 21.476 3.738 27.18-9.812 29.864 4.659 2.685 14.471 19.462-4.084 20.804 9.346 1.342 13.43 18.79 35.682 20.804 7.183 2.014-28.5 9.731-40.755 24.495-51.74 14.764-10.986 11.073 2.81 24.83-5.69 13.758-8.501 20.134-39.972 35.233-30.02 15.1 9.952 18.12-4.197 36.575-10.562 18.455-6.365 33.89-18.337 43.621-43.02 9.731-24.682 16.778-32.025 24.83-14.395 8.054 17.63 15.772 42.785 24.832 29.803 9.06-12.98 11.744-23.958 27.85-7.784" transform="translate(21 80)"/>
        <path fill="#0FE189" d="M209.3 289.906c-12.108 6.168-14.48 16.368-24.714 16.718-10.923.374-29.536-9.487-36.935-15.071C137.219 283.68 131 270.233 131 252.178c0-42.868 35.056-95.478 78.3-117.51 23.575-12.01 44.716-12.452 59.071-3.424 6.855 4.312 16.894 8.199 20.18 16.602 2.453 6.276-.953 16.214-.953 24.55 0 16.345-5.096 34.105-13.798 51.047 1.673 9.072 4.046 16.892 7.12 23.462 1.919 3.374.84 6.1-3.236 8.176-5.815 2.962-21.385 9.42-32.487 7.916-10.753 10.987-22.959 20.317-35.898 26.909z"/>
        <g transform="translate(131 125)">
            <use fill="#000" filter="url(#c)" xlink:href="#d"/>
            <use fill="url(#e)" xlink:href="#d"/>
        </g>
        <path fill="#F7FBFF" d="M246.706 215.238c4.742-2.436 8.587-8.808 8.587-14.232 0-5.423-3.845-7.845-8.587-5.409-4.743 2.437-8.587 8.808-8.587 14.232 0 5.424 3.844 7.846 8.587 5.41zm-25.66 13.183c4.742-2.437 8.587-8.808 8.587-14.232 0-5.424-3.845-7.846-8.587-5.41-4.743 2.437-8.587 8.809-8.587 14.233 0 5.423 3.844 7.845 8.587 5.409zM195.587 241.5c4.742-2.437 8.587-8.808 8.587-14.232 0-5.424-3.845-7.846-8.587-5.41-4.742 2.437-8.587 8.809-8.587 14.233 0 5.423 3.845 7.845 8.587 5.409z"/>
        <g transform="matrix(-1 0 0 1 504 272)">
            <path fill="#D1E3FC" d="M120.174 14.401L4.7 57.172C-2.18 60.298.173 78.848 7.04 81.998l233.143 106.969a30.409 30.409 0 0 0 25.245.046l107.653-49.115c7.13-3.243 10.086-19.466 2.956-22.733L135.83 14.43a18.858 18.858 0 0 0-15.655-.029"/>
            <path fill="#D1E3FC" d="M252.286 186.173c-.597-4.763 5.797-5.53 9.565-7.741L4.7 57.172a5.148 5.148 0 0 0-1.697 1.261 6.95 6.95 0 0 0-.87 1.217c-.258.449-.481.94-.673 1.465-.096.262-.184.534-.263.812-.4 1.392-.604 2.973-.628 4.625-.01.66.008 1.333.054 2.009.047.676.12 1.354.22 2.03.35 2.366 1.022 4.687 1.966 6.638.269.559.56 1.085.874 1.577.313.489.647.941 1 1.35.356.406.73.769 1.122 1.079.394.31.805.567 1.233.763l233.144 106.969a30.42 30.42 0 0 0 20.361 1.774c-3.996.051-7.764-.627-8.258-4.568"/>
            <path fill="#FFFFFE" d="M120.174 2.485L7.07 54.078C.19 57.204.173 66.93 7.04 70.082L240.182 177.05a30.404 30.404 0 0 0 25.245.046l107.653-49.115c7.13-3.242 7.155-13.333.026-16.602L135.829 2.515a18.854 18.854 0 0 0-15.655-.03"/>
            <ellipse cx="308.511" cy="144.198" fill="#D1E3FC" rx="10.874" ry="5.394"/>
        </g>
        <path fill="url(#a)" d="M144.976 13.888L26.704 67.97c-1.008.46-1.011 1.887-.005 2.35l208.034 95.44a4.012 4.012 0 0 0 3.337.007l117.472-53.715c1.168-.528 1.168-2.173.013-2.705L147.488 13.893a3.025 3.025 0 0 0-2.512-.005" transform="matrix(-1 0 0 1 504 272)"/>
        <path fill="#FEFFFF" d="M343.732 393.494c.887.404.89 1.661.004 2.069L269.3 430.145a3.533 3.533 0 0 1-2.939.006l-103.455-47.306c-1.028-.466-1.028-1.914-.011-2.383l74.466-34.594a2.664 2.664 0 0 1 2.212-.004l104.16 47.63z" opacity=".3"/>
        <path fill="#91A7C3" d="M415.286 300.691l23.942 11.513c.512.241.725.865.5 1.394-.238.528-.826.76-1.326.52l-23.941-11.513c-.513-.242-.726-.866-.5-1.395.237-.528.825-.76 1.325-.519M444.017 315.185c.166-.272.487-.507.91-.677.462-.185 1.065-.295 1.72-.295 1.015 0 1.885.264 2.355.666.237.202.374.44.374.695a.744.744 0 0 1-.054.278c-.251.626-1.338 1.084-2.676 1.084-1.539 0-2.732-.598-2.732-1.362 0-.135.038-.266.103-.389M428.98 302.93c.117-.272.351-.507.673-.678a2.806 2.806 0 0 1 1.288-.295c.76 0 1.42.265 1.77.667.176.202.278.439.278.694l-.044.28c-.19.625-.995 1.083-2.004 1.083-1.141 0-2.049-.6-2.049-1.363l.088-.388M194.01 434.488v2.983c0 .477-.505.795-.972.597l-15.025-6.662a.662.662 0 0 1-.39-.597v-2.918c0-.474.506-.792.96-.6l14.818 6.29a.98.98 0 0 1 .61.907M154.269 417.523c0 1.091.61 2.209 1.365 2.494.755.287 1.366-.364 1.366-1.456 0-1.09-.61-2.207-1.366-2.494-.755-.286-1.365.366-1.365 1.456zm-6.688-2.382c0 1.09.619 2.207 1.37 2.494.753.286 1.36-.366 1.36-1.456 0-1.091-.607-2.209-1.36-2.494-.751-.287-1.37.365-1.37 1.456zm-6.828-2.723c0 1.09.608 2.207 1.36 2.493.763.287 1.37-.365 1.37-1.456s-.607-2.207-1.37-2.494c-.752-.286-1.36.366-1.36 1.457zm-5.463-2.724c0 1.09.611 2.207 1.366 2.494.755.287 1.366-.366 1.366-1.456 0-1.091-.611-2.208-1.366-2.494-.755-.287-1.366.365-1.366 1.456z"/>
        <path fill="#746C68" d="M251.366 464c4.315 0 8.63-.926 12.64-2.773L496.563 354.03l.037-.016-.037.016-232.555 107.197c-.038.014-.063.029-.101.043a30.203 30.203 0 0 1-12.54 2.73m245.286-110.012l.02-.01-.02.01m.038-.019l.02-.01-.02.01m.038-.019l.019-.009-.02.01m.088-.046l.02-.01-.02.01m.04-.02l.017-.01-.018.01m.037-.02l.018-.01-.018.01m.037-.02c.005-.004.011-.006.018-.01l-.018.01M497 353.805l.016-.01-.016.01M497.128 353.729l.011-.007-.011.007m.035-.022l.009-.005-.009.005"/>
        <path fill="#AACBF4" d="M250.872 464c4.288 0 8.576-.906 12.56-2.72.037-.014.063-.029.1-.043l233.144-106.989.037-.016a.139.139 0 0 0 .014-.008.18.18 0 0 0 .022-.01.207.207 0 0 0 .017-.008l.02-.01c.007-.002.013-.006.018-.009l.02-.01a.116.116 0 0 0 .018-.009l.02-.008a.116.116 0 0 1 .017-.01l.023-.012.028-.015a.101.101 0 0 0 .02-.01l.019-.01.018-.01.019-.01.017-.01.02-.01.017-.01.02-.01a.081.081 0 0 1 .017-.01l.018-.01.016-.01.038-.022a.095.095 0 0 1 .016-.008.191.191 0 0 1 .021-.013l.014-.009a.126.126 0 0 0 .022-.014c.005-.001.009-.004.012-.006l.024-.015.01-.005c.008-.007.018-.012.027-.018h.001c2.602-1.623 4.47-5.505 5.318-9.733-1.102 2.404-2.599 4.307-4.412 5.14l-15.437 7.084v.924c0 .767-.448 1.465-1.148 1.786l-6.455 2.963a.729.729 0 0 1-1.034-.66v-1.05l-18.771 8.613v1.153c0 .794-.463 1.515-1.188 1.848l-18.014 8.264a1.479 1.479 0 0 1-.621.139c-.787 0-1.51-.635-1.51-1.5v-.117l-2.88 1.324v1.274c0 .794-.456 1.515-1.18 1.847l-18.013 8.264a1.5 1.5 0 0 1-2.131-1.359v-.24l-146.485 67.217a30.507 30.507 0 0 1-12.292 2.785c-1.104 2.583-4.187 3.145-7.485 3.145-.14 0-.266 0-.406-.002a30.51 30.51 0 0 0 7.7.988"/>
        <path fill="#91A7C3" d="M456.204 367.502v2.872c0 .818-.474 1.562-1.216 1.904l-18.45 8.515c-1.014.47-2.183-.276-2.183-1.401v-3.227c0-.601.35-1.148.896-1.401l18.77-8.664a1.54 1.54 0 0 1 2.183 1.402M431.624 378.395v2.872a2.09 2.09 0 0 1-1.21 1.904l-18.456 8.515c-1.014.472-2.184-.276-2.184-1.4v-3.228c0-.601.351-1.148.897-1.401l18.769-8.662a1.537 1.537 0 0 1 2.184 1.4M483.516 354.518v3.078c0 .86-.483 1.643-1.24 2.003l-6.968 3.326c-.522.248-1.116-.147-1.116-.74v-3.97c0-.319.178-.607.457-.74l7.752-3.697c.52-.25 1.115.146 1.115.74"/>
        <g>
            <path fill="url(#f)" d="M50.439 29.433v111.353l-21.836 16.067-8.214-3.338V42.162L8.172 53.906 0 50.799 35.414.693l8.668 3.083 26.746 17.02-20.39 8.637zm-29.7 140l30.05-12.73 7.78 2.834-7.78 14.542-21.754 15.549-8.296-2.82v-17.376z" transform="translate(299 80)"/>
            <path fill="url(#a)" d="M58.611 33.025v111.22l-30.05 12.683V45.708L8.172 53.905l35.414-49.5L79 24.42l-20.389 8.605zm-29.7 139.304l29.658-12.792v16.397l-29.657 13.7v-17.305z" transform="translate(299 80)"/>
        </g>
        <g fill-rule="nonzero">
            <path fill="#FFF" d="M405.64 341.828l-51.03 25.648-26.606-13.956-24.423-11.692 47.23-26.805z"/>
            <path fill="#68D75A" d="M347.616 323.205l16.701 8.154-5.301 2.649-16.7-8.154z"/>
            <path fill="#E6E9EE" d="M340.482 326.77l42.558 20.779-2.718 1.358-42.558-20.78zM333.858 330.08l42.558 20.779-2.718 1.358-42.558-20.78z"/>
        </g>
        <g>
            <path fill="url(#g)" d="M34.73 30.264c-1.933-.766-4.169-.73-6.169.1C9.627 21.926.16 16.06.16 16.06S.018 42.86 0 43.705c-.005.274.046.55.16.815.214.499.63.892 1.164 1.099l29.016 12.94c1.885.732 4.052.706 6.007-.072l27.14-12.783c.895-.356 1.461-1.153 1.506-1.988.01-.189.01-9.3 0-27.334L34.73 30.264z" transform="translate(407 220)"/>
            <path fill="url(#h)" d="M30.486 58.574L1.33 45.704a2.066 2.066 0 0 1-1.17-1.09 1.913 1.913 0 0 1-.16-.808c.018-.839.16-27.422.16-27.422L28.7 30.604c2.01-.82 2.906-.26 4.85.502v27.996a8.11 8.11 0 0 1-3.063-.528z" transform="translate(407 220)"/>
            <path fill="#CC86EF" d="M470.69 234.808l-28.957-13.294c-1.934-.782-4.17-.745-6.17.102l-27.089 13.122c-1.191.505-1.78 1.81-1.315 2.913.215.51.632.911 1.165 1.122l29.019 13.187c1.885.747 4.051.72 6.006-.075l27.142-13.034c1.2-.487 1.81-1.783 1.363-2.895a2.08 2.08 0 0 0-1.164-1.148z"/>
        </g>
        <g>
            <path fill="url(#i)" d="M34.73 30.264c-1.933-.766-4.169-.73-6.169.1C9.627 21.926.16 16.06.16 16.06S.018 42.86 0 43.705c-.005.274.046.55.16.815.214.499.63.892 1.164 1.099l29.016 12.94c1.885.732 4.052.706 6.007-.072l27.14-12.783c.895-.356 1.461-1.153 1.506-1.988.01-.189.01-9.3 0-27.334L34.73 30.264z" transform="translate(474 252)"/>
            <path fill="url(#j)" d="M30.486 58.574L1.33 45.704a2.066 2.066 0 0 1-1.17-1.09 1.913 1.913 0 0 1-.16-.808c.018-.839.16-27.422.16-27.422L28.7 30.604c2.01-.82 2.906-.26 4.85.502v27.996a8.11 8.11 0 0 1-3.063-.528z" transform="translate(474 252)"/>
            <path fill="#59E0FF" d="M537.69 266.808l-28.957-13.294c-1.934-.782-4.17-.745-6.17.102l-27.089 13.122c-1.191.505-1.78 1.81-1.315 2.913.215.51.632.911 1.165 1.122l29.019 13.187c1.885.747 4.051.72 6.006-.075l27.142-13.034c1.2-.487 1.81-1.783 1.363-2.895a2.08 2.08 0 0 0-1.164-1.148z"/>
        </g>
    </g>
</svg>
