<svg xmlns="http://www.w3.org/2000/svg" xmlns:xlink="http://www.w3.org/1999/xlink" width="144" height="165" viewBox="0 0 144 165">
    <defs>
        <linearGradient id="a" x1="46.42%" x2="87.151%" y1="10.092%" y2="132.256%">
            <stop offset="0%" stop-color="#FFF"/>
            <stop offset="99.454%" stop-color="#EDCAFE"/>
        </linearGradient>
        <linearGradient id="b" x1="41.823%" x2="224.462%" y1="75.684%" y2="88.981%">
            <stop offset="0%" stop-color="#7243C0"/>
            <stop offset="100%" stop-color="#AC5FCF"/>
        </linearGradient>
        <radialGradient id="c" cx="81.487%" cy="13.893%" r="114.397%" fx="81.487%" fy="13.893%" gradientTransform="matrix(0 .39909 -1 0 .954 -.186)">
            <stop offset="0%" stop-color="#FFF"/>
            <stop offset="100%" stop-color="#F0F4FC"/>
        </radialGradient>
        <linearGradient id="d" x1="29.341%" x2="83.882%" y1="119.305%" y2="16.091%">
            <stop offset="0%" stop-color="#7243C0"/>
            <stop offset="100%" stop-color="#AC5FCF"/>
        </linearGradient>
        <path id="e" d="M36.523 61.872l14.968-5.158c2.705-.932 4.898-3.882 4.898-6.59V3.705c0-2.706-2.193-4.146-4.898-3.214L5.11 16.472c-2.705.932-4.898 3.882-4.898 6.59v46.42c0 2.707 2.193 4.146 4.898 3.214L20.1 67.53l8.237 8.897 8.186-14.555z"/>
    </defs>
    <g fill="none" fill-rule="evenodd">
        <path fill="#FFFFFE" d="M49.042 34.765l.329 122.245c.015 5.393 3.82 8.326 8.499 6.552l48.263-18.305c4.678-1.774 8.459-7.585 8.444-12.977l-.33-122.245c-.014-5.393-3.82-8.326-8.498-6.552L57.486 21.787c-4.679 1.775-8.46 7.585-8.444 12.978z"/>
        <path fill="url(#a)" d="M48.829 161.8L1.476 114.574a4.5 4.5 0 0 1 1.643-7.417l60.95-22.116 44.198 52.438L48.83 161.8z"/>
        <path fill="url(#b)" d="M102.097 1.202c2.392-.891 4.56-.592 6.126.61l4.068 2.673c-1.566-1.202-2.971-.453-5.364.438L57.88 23.192c-4.755 1.77-8.597 7.57-8.581 12.952l.334 122.006c.008 2.674.966 4.742 2.511 5.93l-4.83-3.722c-1.545-1.187-2.504-3.255-2.512-5.928L44.47 32.423c-.016-5.382 3.826-11.181 8.58-12.952l49.047-18.269z"/>
        <path fill="#FFFFFE" d="M49.042 34.765l.329 122.245c.015 5.393 3.82 8.326 8.499 6.552l48.263-18.305c4.678-1.774 8.459-7.585 8.444-12.977l-.33-122.245c-.014-5.393-3.82-8.326-8.498-6.552L57.486 21.787c-4.679 1.775-8.46 7.585-8.444 12.978z"/>
        <path fill="url(#c)" d="M51.328 35.68l.303 117.463c.014 4.864 3.518 7.51 7.826 5.91l45.058-16.742c4.308-1.6 7.79-6.842 7.776-11.706l-.303-117.463c-.014-4.864-3.518-7.51-7.826-5.91L59.103 23.973c-4.307 1.601-7.789 6.842-7.775 11.707z"/>
        <path fill="url(#d)" d="M79.523 143.553l.009 2.943c.005 1.818 1.338 2.808 2.977 2.21l6.251-2.284c1.637-.597 2.961-2.557 2.956-4.375l-.009-2.942c-.005-1.819-1.338-2.808-2.975-2.21l-6.252 2.282c-1.638.599-2.962 2.558-2.957 4.376zM56.12 38.269L108 20.14c.47-.17.851.168.851.757v103.358c0 .588-.381 1.204-.851 1.375L56.12 143.76c-.47.171-.85-.168-.85-.757V39.644c0-.588.38-1.204.85-1.375z"/>
        <g opacity=".96" transform="translate(86.706 33.719)">
            <use fill="#FFF" xlink:href="#e"/>
            <path stroke="#F3F4F6" stroke-width="1.25" d="M28.213 75.373l7.882-14.015 15.192-5.234c2.458-.847 4.477-3.564 4.477-6V3.705c0-2.264-1.76-3.419-4.07-2.623L5.314 17.063C2.855 17.909.836 20.626.836 23.06v46.42c0 2.266 1.759 3.42 4.07 2.624l15.375-5.298 7.931 8.566z"/>
        </g>
        <path fill="#FFAF4B" fill-rule="nonzero" d="M126.869 71.066c-.403-.284-.95-.284-1.521 0-.57.286-1.118.832-1.521 1.52l-1.747 2.976c-.47.8-1.2 1.269-1.765 1.132a20.706 20.706 0 0 1-6.627-2.708c-1.899-1.49-3.574-3.329-4.997-5.488-.347-.507-.261-1.43.208-2.23l1.747-2.976c.403-.687.63-1.46.63-2.147 0-.687-.227-1.233-.63-1.517l-4.056-2.859c-.403-.284-.95-.284-1.52 0-.571.286-1.119.832-1.522 1.52l-2.434 4.148c-2.445 4.162-2.8 8.962-.842 11.414 2.503 3.315 5.293 6.249 8.347 8.774a47.195 47.195 0 0 0 10.743 4.686c2.848.936 6.687-1.408 9.128-5.573l2.435-4.148c.403-.688.63-1.46.63-2.147 0-.687-.227-1.233-.63-1.517l-4.056-2.86z"/>
    </g>
</svg>
