<svg xmlns="http://www.w3.org/2000/svg" xmlns:xlink="http://www.w3.org/1999/xlink" width="698" height="600" viewBox="0 0 698 600">
    <defs>
        <linearGradient id="a" x1="127.792%" x2="-19.218%" y1="-17.749%" y2="138.231%">
            <stop offset="0%" stop-color="#FBFDFF"/>
            <stop offset="100%" stop-color="#DCECFE"/>
        </linearGradient>
        <linearGradient id="b" x1="108.725%" x2="22.637%" y1="6.323%" y2="107.105%">
            <stop offset="0%" stop-color="#FEFEFE"/>
            <stop offset="100%" stop-color="#F3F6FC"/>
        </linearGradient>
        <linearGradient id="c" x1="-68.123%" x2="93.176%" y1="-19.771%" y2="111.199%">
            <stop offset="0%" stop-color="#FFBF6E"/>
            <stop offset="100%" stop-color="#DF8718"/>
        </linearGradient>
        <linearGradient id="d" x1="32.043%" x2="88.906%" y1="26.039%" y2="89.589%">
            <stop offset="0%" stop-color="#FFBF6E"/>
            <stop offset="100%" stop-color="#DF8718"/>
        </linearGradient>
        <path id="f" d="M30.47 46.954l12.372-4.651c2.236-.84 4.049-3.336 4.049-5.574V3.576c0-2.237-1.813-3.37-4.049-2.53L4.505 15.458c-2.236.84-4.048 3.336-4.048 5.574v33.153c0 2.237 1.812 3.37 4.048 2.53l12.391-4.658 6.809 7.14 6.766-12.243z"/>
        <filter id="e" width="212%" height="189%" x="-84%" y="-44.5%" filterUnits="objectBoundingBox">
            <feOffset dx="-13" in="SourceAlpha" result="shadowOffsetOuter1"/>
            <feGaussianBlur in="shadowOffsetOuter1" result="shadowBlurOuter1" stdDeviation="6.5"/>
            <feComposite in="shadowBlurOuter1" in2="SourceAlpha" operator="out" result="shadowBlurOuter1"/>
            <feColorMatrix in="shadowBlurOuter1" values="0 0 0 0 0.0352941176 0 0 0 0 0.505882353 0 0 0 0 0.745098039 0 0 0 0.2 0"/>
        </filter>
        <linearGradient id="g" x1="51.309%" x2="77.426%" y1="55.443%" y2="20.143%">
            <stop offset="0%" stop-color="#859AB9"/>
            <stop offset="100%" stop-color="#FEFEFE" stop-opacity="0"/>
        </linearGradient>
        <linearGradient id="h" x1="93.582%" x2="38.751%" y1="13.835%" y2="37.447%">
            <stop offset="0%" stop-color="#404277"/>
            <stop offset="100%" stop-color="#262755"/>
        </linearGradient>
        <path id="i" d="M200.09 467.725L.522 375.139V.206L200.09 92.791"/>
        <linearGradient id="k" x1="35.64%" y1="121.503%" y2="50%">
            <stop offset="0%" stop-color="#7243C0"/>
            <stop offset="100%" stop-color="#AC5FCF"/>
        </linearGradient>
        <path id="l" d="M174.236 75.831L3.98.486C2.196-.29.75.913.75 3.176v157.086c0 2.263 1.447 4.753 3.232 5.561l170.255 78.278c1.785.834 3.232-.359 3.232-2.664V81.458c0-2.305-1.447-4.824-3.232-5.627z"/>
        <linearGradient id="m" x1="41.823%" x2="224.462%" y1="75.684%" y2="88.981%">
            <stop offset="0%" stop-color="#7243C0"/>
            <stop offset="100%" stop-color="#AC5FCF"/>
        </linearGradient>
        <path id="o" d="M152.88 73.106L2.596.886C1.398.311.428 1.08.428 2.601v67.164c0 1.523.97 3.223 2.167 3.798l150.286 72.22c1.197.575 2.167-.193 2.167-1.715v-18.141l17.624-6.214-17.624-26.194V76.904c0-1.523-.97-3.223-2.167-3.798z"/>
        <filter id="n" width="123.2%" height="127.5%" x="-17.4%" y="-13.8%" filterUnits="objectBoundingBox">
            <feOffset dx="-10" in="SourceAlpha" result="shadowOffsetOuter1"/>
            <feGaussianBlur in="shadowOffsetOuter1" result="shadowBlurOuter1" stdDeviation="5"/>
            <feComposite in="shadowBlurOuter1" in2="SourceAlpha" operator="out" result="shadowBlurOuter1"/>
            <feColorMatrix in="shadowBlurOuter1" values="0 0 0 0 0.0352941176 0 0 0 0 0.505882353 0 0 0 0 0.745098039 0 0 0 0.2 0"/>
        </filter>
    </defs>
    <g fill="none" fill-rule="evenodd">
        <path fill="#C6E0FD" d="M273.915 305.147c2.578-1.002 5.56-.838 8.227.45l122.77 24.315s.188 10.933.212 12.146c.007.393-.06.786-.213 1.16a2.7 2.7 0 0 1-1.553 1.518L131.672 448.17c-2.513.955-5.403.81-8.01-.404L2.575 391.431c-1.193-.556-1.95-1.728-2.008-2.926-.013-.272-.013 5.735 0-11.694l273.348-71.664z"/>
        <path fill="url(#a)" d="M131.763 180.982L403.449 77.548a2.7 2.7 0 0 0 1.553-1.518c.152-.374.22-.768.212-1.16-.024-1.213-.212-12.146-.212-12.146L282.232 38.41c-2.667-1.29-5.648-1.453-8.227-.451L127.699 77.076v104.512a9.792 9.792 0 0 0 4.064-.606z" transform="translate(-.09 267.188)"/>
        <path fill="url(#b)" d="M2.4 106.644L274.005 1.022c2.579-1.002 5.56-.838 8.227.451l121.016 58.49c1.59.768 2.375 2.63 1.754 4.157a2.7 2.7 0 0 1-1.553 1.517L131.763 169.072c-2.514.954-5.403.809-8.01-.404L2.664 112.332c-1.599-.744-2.412-2.595-1.816-4.134a2.701 2.701 0 0 1 1.551-1.554z" transform="translate(-.09 267.188)"/>
        <path fill="url(#c)" d="M39.44 234c11.318-58.338 31.978-86.174 61.978-83.507 45 4 31-75 76-64s44.51-11.05 49-33c6-29.334 25.308-44.831 57.925-46.493v135.155L39.44 234z" opacity=".9" transform="translate(-.982 144)"/>
        <path fill="url(#d)" d="M365.903 47.112L366 47 284.225 6.539c-32.665 1.767-51.997 17.318-57.997 46.651-4.49 21.95-4 44-49 33s-31 68-76 64c-30-2.667-51.596 25.82-64.788 85.458L121 274c11.319-58.338 31.978-86.174 61.978-83.507 45 4 31-75 76-64s44.51-11.05 49-33c6-29.334 25.308-44.831 57.925-46.493v.112z" opacity=".9" transform="translate(-.982 144)"/>
        <path fill="url(#c)" d="M121 274c11.319-58.338 31.978-86.174 61.978-83.507 45 4 31-75 76-64s44.51-11.05 49-33c6-29.334 25.308-44.831 57.925-46.493v135.155L121 274z" opacity=".9" transform="translate(-.982 144)"/>
        <path stroke="#E6F1FE" stroke-dasharray="3,5" stroke-linecap="round" stroke-linejoin="round" d="M154.997 342.34V405.6M236 275v99M316 215.499V346"/>
        <path stroke="#FFF" stroke-linecap="round" stroke-linejoin="round" stroke-width="2" d="M112.088 410.917c11.318-58.338 31.978-86.174 61.978-83.507 45 4 31-75 76-64s44.51-11.05 49-33c6-29.333 25.308-44.831 57.925-46.493M35.092 371.283C46.41 312.945 67.07 285.11 97.07 287.776c45 4 31-75 76-64s44.51-11.05 49-33c6-29.333 25.308-44.831 57.925-46.493" opacity=".9"/>
        <g>
            <path fill="#F5F7FA" d="M237.238 245.282c-10.058 3.78-18.288 15.11-18.288 25.178 0 10.066 8.23 15.21 18.288 11.428 10.059-3.78 18.288-15.111 18.288-25.178s-8.23-15.21-18.288-11.428z" opacity=".5"/>
            <path fill="#EDA040" d="M237.238 251.917c-6.412 2.41-11.658 9.633-11.658 16.05 0 6.418 5.246 9.696 11.658 7.286 6.412-2.41 11.658-9.633 11.658-16.05 0-6.418-5.246-9.696-11.658-7.286z" opacity=".5"/>
            <path fill="#F5F7FA" d="M237.238 257.61c-3.283 1.235-5.97 4.933-5.97 8.219 0 3.286 2.687 4.965 5.97 3.73 3.284-1.234 5.97-4.932 5.97-8.218 0-3.286-2.686-4.965-5.97-3.73z"/>
            <g>
                <g opacity=".96" transform="translate(208.696 182.993)">
                    <use fill="#000" filter="url(#e)" xlink:href="#f"/>
                    <use fill="#FFF" xlink:href="#f"/>
                    <path stroke="#F3F4F6" stroke-width="1.25" d="M23.57 58.15l6.465-11.7 12.588-4.732c1.997-.75 3.643-3.017 3.643-4.989V3.576c0-1.785-1.363-2.637-3.204-1.945L4.725 16.043c-1.997.75-3.643 3.017-3.643 4.989v33.153c0 1.785 1.363 2.636 3.203 1.944l12.778-4.803 6.506 6.823z"/>
                </g>
                <g fill="#CA5BFF">
                    <path d="M216.053 218.282v-2.751l4.872-6.707a8.38 8.38 0 0 0 .74-1.275c.19-.41.283-.825.283-1.244 0-.498-.14-.849-.423-1.053-.283-.204-.66-.22-1.13-.046-.494.182-.897.523-1.21 1.025a3.883 3.883 0 0 0-.555 1.728l-2.842.613a7.01 7.01 0 0 1 .52-2.078 7.919 7.919 0 0 1 1.05-1.792 7.49 7.49 0 0 1 1.457-1.42 6.961 6.961 0 0 1 1.739-.945 5.738 5.738 0 0 1 1.677-.362c.541-.029 1.024.056 1.447.254.424.198.762.519 1.015.963.253.444.38 1.026.38 1.747 0 .498-.059.968-.177 1.411-.117.443-.28.873-.485 1.29-.206.416-.441.82-.706 1.212a47.29 47.29 0 0 1-.821 1.177l-2.895 3.935 5.101-1.878v2.87l-9.037 3.326zm21.088-14.758c0 .983-.088 1.952-.265 2.908a10.702 10.702 0 0 1-.847 2.66 7.875 7.875 0 0 1-1.51 2.168 6.037 6.037 0 0 1-2.25 1.427c-.883.325-1.636.403-2.26.233a2.764 2.764 0 0 1-1.526-1.05c-.395-.53-.68-1.208-.857-2.034a12.992 12.992 0 0 1-.264-2.713c0-.983.088-1.949.264-2.898.177-.95.462-1.828.857-2.634a7.917 7.917 0 0 1 1.527-2.144 6.162 6.162 0 0 1 2.259-1.422c.883-.324 1.633-.404 2.25-.238.619.165 1.122.508 1.51 1.026.388.52.67 1.188.847 2.008.177.82.265 1.72.265 2.703zm-3.036 1.117c0-.432-.024-.901-.07-1.408a6.444 6.444 0 0 0-.266-1.367c-.129-.404-.314-.716-.556-.935-.24-.22-.556-.258-.944-.115-.388.143-.706.414-.953.813a5.04 5.04 0 0 0-.574 1.351 8.99 8.99 0 0 0-.273 1.565c-.048.541-.071 1.028-.071 1.46 0 .446.023.926.07 1.439.048.513.139.971.274 1.373.135.403.327.712.574.93.247.216.565.253.953.11.388-.143.703-.412.944-.81a4.97 4.97 0 0 0 .556-1.344 9.5 9.5 0 0 0 .265-1.571c.047-.548.07-1.045.07-1.49zm14.734-5.422c0 .983-.089 1.952-.265 2.908a10.702 10.702 0 0 1-.848 2.66 7.875 7.875 0 0 1-1.509 2.168 6.037 6.037 0 0 1-2.25 1.427c-.883.325-1.636.403-2.26.233a2.764 2.764 0 0 1-1.527-1.05c-.394-.53-.68-1.208-.856-2.034a12.992 12.992 0 0 1-.265-2.713c0-.983.089-1.949.265-2.898.177-.95.462-1.828.856-2.634a7.917 7.917 0 0 1 1.527-2.144 6.162 6.162 0 0 1 2.26-1.422c.882-.324 1.632-.404 2.25-.238.618.165 1.121.508 1.51 1.026.388.52.67 1.188.847 2.008.176.82.265 1.72.265 2.703zm-3.037 1.117c0-.432-.023-.902-.07-1.408a6.444 6.444 0 0 0-.265-1.367c-.13-.405-.315-.716-.556-.935-.241-.22-.556-.258-.944-.115-.389.143-.707.414-.954.813a5.04 5.04 0 0 0-.573 1.351 8.99 8.99 0 0 0-.274 1.565c-.047.541-.07 1.028-.07 1.46 0 .446.023.926.07 1.439.047.513.138.971.274 1.373.135.403.326.712.573.93.247.216.565.253.954.11.388-.143.703-.413.944-.81a4.97 4.97 0 0 0 .556-1.344 9.5 9.5 0 0 0 .265-1.571c.047-.548.07-1.045.07-1.49zM223.365 228.443a6.038 6.038 0 0 1-1.165 1.53c-.477.457-1.05.808-1.72 1.055-.578.212-1.11.3-1.598.26a2.375 2.375 0 0 1-1.261-.451c-.353-.263-.629-.63-.828-1.1-.2-.47-.3-1.03-.3-1.68 0-.659.102-1.297.305-1.915a6.534 6.534 0 0 1 2.121-3.071 5.673 5.673 0 0 1 1.603-.911 4.1 4.1 0 0 1 .78-.204c.264-.042.517-.051.76-.03.241.022.462.078.662.167.2.09.37.215.513.377l-.834 1.02c-.185-.217-.447-.357-.785-.419-.339-.062-.704-.02-1.096.124a3.777 3.777 0 0 0-1.191.706 4.702 4.702 0 0 0-.903 1.064c-.25.401-.442.831-.577 1.29a4.842 4.842 0 0 0-.203 1.377c0 .476.066.896.197 1.26.132.364.32.653.567.868.246.215.545.345.897.39.353.044.747-.013 1.181-.173a3.516 3.516 0 0 0 1.165-.714c.35-.32.638-.703.866-1.152l.844.332zm1.44.78l-1.176.432 3.28-9.632.962-.354 3.249 7.229-1.197.44-.77-1.787-3.59 1.322-.759 2.35zm1.132-3.523l2.832-1.042-1.41-3.432-1.422 4.474zm7.391-.662l3.377-1.243v1.047l-4.435 1.632v-8.424l1.058-.39v7.378zm5.64-2.075l3.376-1.243v1.047l-4.435 1.632v-8.424l1.058-.39v7.378zm8.342-8.89a1.049 1.049 0 0 0-.61-.34c-.256-.052-.544-.02-.865.098a2.51 2.51 0 0 0-.518.268 2.275 2.275 0 0 0-.823.982c-.089.203-.134.423-.134.661 0 .23.041.408.123.532a.701.701 0 0 0 .332.271c.139.056.302.087.491.093.189.006.39.009.604.01a9.63 9.63 0 0 1 .78.01c.264.014.502.073.716.177.214.103.388.267.524.491.135.224.203.546.203.967 0 .436-.073.841-.22 1.216-.145.375-.34.713-.582 1.012a4.02 4.02 0 0 1-.839.779c-.317.22-.643.391-.977.514a3.122 3.122 0 0 1-1.384.2 1.728 1.728 0 0 1-1.106-.509l.823-1.076c.178.228.416.378.716.45.299.073.623.045.972-.084a2.473 2.473 0 0 0 1.02-.72c.147-.173.266-.366.359-.579.092-.212.138-.445.138-.7 0-.253-.048-.447-.144-.583a.794.794 0 0 0-.39-.29 1.775 1.775 0 0 0-.572-.093 29.927 29.927 0 0 0-.689-.003c-.242.01-.48.001-.716-.028a1.591 1.591 0 0 1-.63-.208 1.2 1.2 0 0 1-.45-.495c-.113-.22-.17-.524-.17-.913 0-.42.076-.81.23-1.167.153-.358.352-.681.598-.97.246-.289.524-.536.834-.74a4.53 4.53 0 0 1 .935-.482c.441-.162.855-.227 1.24-.194.384.033.694.153.929.36l-.748 1.084z"/>
                </g>
            </g>
        </g>
        <g>
            <path fill="url(#g)" d="M227.953 592.999l150.208-69.906-221.736-93.58-146.12 59.527z" style="mix-blend-mode:multiply" transform="translate(356.085 .282)"/>
            <path fill="#C6E0FD" d="M401.964 3.233c-8.437-3.914-16.084-3.498-21.605.336L366.39 10.6c5.521-3.835 10.1.59 18.539 4.505l172.978 80.25c16.768 7.78 30.319 29.713 30.265 48.987l-1.179 436.933c-.018 6.383-3.047 11.914-9.086 16.591l17.264-7.982c5.45-3.785 8.83-10.904 8.858-20.479l1.177-436.933c.055-19.274-13.495-41.208-30.263-48.987l-172.98-80.25z"/>
            <path fill="#6A9ED8" fill-rule="nonzero" d="M596.965 389.362v.737c0 .762.617 1.432 1.379 1.497.761.065 1.379-.5 1.379-1.26v-.738c0-.762-.618-1.432-1.38-1.497-.76-.066-1.378.499-1.378 1.26z"/>
            <path fill="#FEFEFE" fill-rule="nonzero" d="M590.865 166.911l14.32-2.86v-4.088l-14.32 2.861z"/>
            <path fill="#FFFFFE" fill-rule="nonzero" d="M589.843 555.116l14.32-2.86v-4.088l-14.32 2.861z"/>
            <path fill="#6A9ED8" d="M390.195 9.379c-8.438-3.915-16.083-3.5-21.604.335l-6.288 4.446c5.52-3.835 13.167-4.25 21.604-.335l172.98 80.251c16.767 7.779 30.318 29.712 30.263 48.987l-1.177 436.933c-.028 9.575-3.407 14.649-8.859 18.435l6.289-2.402c5.45-3.786 8.83-10.904 8.857-20.48l1.178-436.933c.055-19.274-13.495-41.207-30.263-48.986L390.195 9.38z"/>
            <path fill="url(#h)" d="M234.97 139.151l-1.178 436.933c-.055 19.275-13.695 28.594-30.462 20.815L30.351 516.648C13.583 508.868.033 486.935.087 467.662L1.265 30.729C1.32 11.455 14.959 2.135 31.726 9.914l172.98 80.251c16.768 7.78 30.318 29.713 30.264 48.986z" transform="translate(356.085 .282)"/>
            <path fill="#262755" d="M579.904 142.177l-1.07 422.806c-.05 17.508-12.44 25.974-27.673 18.907L391.84 509.975c-15.234-7.067-27.542-26.991-27.493-44.5l1.07-422.805c.05-17.508 12.44-25.974 27.672-18.907l159.323 73.914c15.231 7.068 27.541 26.992 27.492 44.5z"/>
            <path fill="#5171A6" d="M465.495 533.89c-8.04-3.829-14.556-15.22-14.556-25.442 0-10.223 6.517-15.407 14.556-11.579 8.04 3.829 14.557 15.22 14.557 25.442 0 10.223-6.518 15.407-14.557 11.579z"/>
            <path fill="#2C2D5D" d="M466.758 532.643c-7.621-3.63-13.8-14.428-13.8-24.12 0-9.691 6.179-14.606 13.8-10.977 7.622 3.63 13.8 14.428 13.8 24.12s-6.178 14.606-13.8 10.977z"/>
            <g transform="translate(370.978 67.03)">
                <mask id="j" fill="#fff">
                    <use xlink:href="#i"/>
                </mask>
                <use fill="#FFF" xlink:href="#i"/>
                <path fill="#E8D5FF" d="M86.296 393.938l-65.69-30.476a8 8 0 0 1-4.633-7.257v-20.724a3 3 0 0 1 4.262-2.721l65.69 30.475a8 8 0 0 1 4.634 7.257v20.725a3 3 0 0 1-4.263 2.721zM177.878 436.646l-65.69-30.475a8 8 0 0 1-4.634-7.257v-20.725a3 3 0 0 1 4.263-2.721l65.69 30.476a8 8 0 0 1 4.634 7.257v20.724a3 3 0 0 1-4.263 2.721z" mask="url(#j)"/>
                <g mask="url(#j)">
                    <path fill="#D2ABFF" d="M100.66 299.395c44.26 20.552 80.138-1.07 80.138-48.296 0-47.225-35.879-102.17-80.138-122.722-44.259-20.553-80.137 1.07-80.137 48.296 0 47.225 35.878 102.17 80.137 122.722z" opacity=".5"/>
                    <path fill="#D2ABFF" d="M100.66 280.035c34.238 15.899 61.994-.828 61.994-37.361 0-36.534-27.756-79.038-61.994-94.937-34.238-15.9-61.993.828-61.993 37.361 0 36.533 27.755 79.038 61.993 94.937z"/>
                    <path fill="url(#k)" d="M45.008 100.766c24.829 11.53 44.957-.601 44.957-27.094 0-26.494-20.128-57.317-44.957-68.847C20.178-6.705.05 5.425.05 31.919c0 26.493 20.128 57.317 44.957 68.847z" transform="translate(55.652 161.09)"/>
                    <path fill="#FBFDFF" fill-rule="nonzero" d="M119.02 230.253c-.638-.98-1.506-1.765-2.41-2.185-.904-.42-1.77-.44-2.41-.054l-2.769 1.669c-.743.449-1.9.057-2.796-.947a123.104 123.104 0 0 1-10.503-13.326 120.783 120.783 0 0 1-7.918-14.885c-.552-1.212-.415-2.383.33-2.831l2.767-1.668c.64-.386 1-1.144 1-2.109 0-.965-.36-2.057-1-3.036l-6.427-9.842c-.64-.979-1.506-1.765-2.41-2.185-.905-.42-1.772-.439-2.41-.053l-3.859 2.325c-3.875 2.329-4.436 8.56-1.334 14.815a278.298 278.298 0 0 0 13.227 24.312 283.114 283.114 0 0 0 17.027 22.019c4.512 5.405 10.596 7.631 14.465 5.293l3.858-2.325c.64-.385.999-1.144.999-2.109 0-.964-.36-2.056-.999-3.035l-6.427-9.843z"/>
                </g>
            </g>
            <path fill="#262755" d="M551.884 79.792c-.825.574-2.176.724-3.008.34-.271-.125-.454-.291-.55-.479-.202-.393-.022-.875.535-1.263.832-.58 2.18-.732 3.015-.342.565.264.752.709.55 1.148M441.14 27.346c-1.652 1.151-4.36 1.45-6.028.683-.543-.252-.91-.585-1.101-.961-.406-.788-.046-1.754 1.07-2.531 1.668-1.16 4.369-1.467 6.044-.685 1.132.53 1.507 1.42 1.101 2.3"/>
            <path fill="#D5E3F4" d="M485.434 96.338c-.006 2.165-1.533 2.194-3.417 1.32l-36.825-17.085c-1.885-.875-3.408-2.318-3.402-4.484.006-2.165 1.539-2.185 3.423-1.31l36.827 17.084c1.884.875 3.4 2.309 3.394 4.475zM505.437 105.455c-.006 2.166-1.532 2.195-3.417 1.32l-7.782-3.61c-1.884-.873-3.407-2.318-3.4-4.483.006-2.166 1.538-2.185 3.423-1.31l7.782 3.61c1.884.873 3.4 2.308 3.394 4.473z"/>
        </g>
        <g>
            <g transform="translate(506.58 268.695)">
                <use fill="#FFF" xlink:href="#l"/>
                <path stroke="#F3F4F6" stroke-width="1.2" d="M173.991 76.38L3.741 1.035C2.39.447 1.35 1.313 1.35 3.176v157.086c0 2.038 1.32 4.308 2.883 5.016l170.257 78.28c1.349.63 2.38-.22 2.38-2.12V81.457c0-2.08-1.32-4.378-2.878-5.079z"/>
            </g>
            <path stroke="#232425" stroke-linecap="square" stroke-width="1.2" d="M657.225 448.832l-132.54-60.634M657.225 410.372l-132.54-60.112M657.225 373.514l-132.54-59.61" opacity=".2"/>
            <path fill="url(#m)" d="M145.911 170.301l-12.623-5.67v44.518l12.623 5.726zM123.821 103.476L111.2 97.814v101.79l12.622 5.793zM103.31 134.173l-12.624-5.648v61.618l12.623 5.724zM81.22 148.875l-12.624-5.762v36.325l12.623 5.81zM60.707 123.731l-12.623-5.646v51.995l12.623 5.713z" transform="translate(506.58 268.695)"/>
            <path fill="#FFAF4B" d="M570.974 362.891l-21.574-9.636c-.578-.258-1.047.13-1.047.866v17.297c0 .736.469 1.543 1.047 1.802l7.705 3.453 3.082 4.087 3.055-1.333 7.732 3.474c.578.26 1.047-.127 1.047-.866v-17.339c0-.738-.469-1.546-1.047-1.805z"/>
            <path fill="url(#m)" d="M40.195 149.42l-12.623-5.63v16.941l12.623 5.649z" transform="translate(506.58 268.695)"/>
            <path fill="#DFF3FD" d="M658.803 346l-31.557-14.11v6.743l31.557 14.133z"/>
            <path stroke="#D3D3D3" stroke-linecap="square" stroke-width="1.2" d="M657.225 485.69l-132.54-61.135"/>
            <path fill="#DFF3FD" d="M608.311 322.578L576.754 308.6v6.708l31.557 14.001zM556.242 300.88l-31.557-13.85v6.673l31.557 13.872z"/>
        </g>
        <g>
            <g opacity=".96" transform="translate(263.524 54.04)">
                <use fill="#000" filter="url(#n)" xlink:href="#o"/>
                <use fill="#FFF" xlink:href="#o"/>
                <path stroke="#F3F4F6" d="M171.897 119.457L154.548 93.67V76.904c0-1.338-.868-2.86-1.884-3.348L2.38 1.337C1.542.935.928 1.421.928 2.601v67.164c0 1.338.868 2.86 1.884 3.348l150.285 72.219c.837.402 1.451-.084 1.451-1.264v-18.495l17.349-6.116z"/>
            </g>
            <path fill="#FFAF4B" d="M357.914 120.106l-51.877-24.632v7.705l51.877 24.631z"/>
            <path fill="#C6E0FD" d="M357.914 134.07L282.96 98.482v3.852l74.954 35.589zM357.914 140.812l-55.18-26.2v3.852l55.18 26.2zM357.914 147.553l-55.18-26.2v3.853l55.18 26.2z"/>
            <path fill="url(#m)" d="M121.153 118.125c-10.232-4.858-18.528-18.498-18.528-30.466 0-11.967 8.296-17.73 18.528-12.872 10.233 4.858 18.528 18.498 18.528 30.466 0 11.967-8.295 17.73-18.528 12.872z" transform="translate(263.524 54.04)"/>
            <path fill="#FEFEFE" fill-rule="nonzero" d="M384.872 153.582c-2.603-1.236-4.974-6.675-4.974-11.41 0-4.109 1.813-5.604 4.974-4.103 3.162 1.5 4.974 4.718 4.974 8.826 0 4.736-2.37 7.923-4.974 6.687z"/>
            <path fill="#FEFEFE" fill-rule="nonzero" d="M375.17 152.286c1.417-.327 4.385-.976 6.174-1.116.88 1.645 2.16 2.99 3.528 3.705 1.372.585 2.656.454 3.536-.362 1.8 1.84 4.761 5.314 6.171 6.987.494.587.795 1.357.794 2.033v1.156c.001.951-.588 1.482-1.39 1.254a64.263 64.263 0 0 1-9.11-3.311 83.07 83.07 0 0 1-9.112-5.34c-.802-.534-1.39-1.625-1.39-2.575v-1.152c0-.678.302-1.164.799-1.279z"/>
        </g>
    </g>
</svg>
