<svg xmlns="http://www.w3.org/2000/svg" xmlns:xlink="http://www.w3.org/1999/xlink" width="583" height="600" viewBox="0 0 583 600">
    <defs>
        <linearGradient id="a" x1="100%" x2="0%" y1="92.338%" y2="92.338%">
            <stop offset="0%" stop-color="#FFF"/>
            <stop offset="20.148%" stop-color="#FFAF4B"/>
            <stop offset="51.787%" stop-color="#874DC5"/>
            <stop offset="79.907%" stop-color="#D36AFF"/>
            <stop offset="100%" stop-color="#FFF" stop-opacity="0"/>
        </linearGradient>
        <linearGradient id="b" x1="77.554%" x2="30.214%" y1="167.903%" y2="27.648%">
            <stop offset="0%" stop-color="#91C6FF"/>
            <stop offset="100%" stop-color="#FEFEFE"/>
        </linearGradient>
        <linearGradient id="c" x1="-220.003%" x2="165.887%" y1="-26.881%" y2="114.611%">
            <stop offset="0%" stop-color="#DBBADB"/>
            <stop offset="100%" stop-color="#D6C7E3"/>
        </linearGradient>
        <radialGradient id="d" cx="81.487%" cy="13.893%" r="114.397%" fx="81.487%" fy="13.893%" gradientTransform="matrix(0 .38572 -1 0 .954 -.175)">
            <stop offset="0%" stop-color="#FFF"/>
            <stop offset="100%" stop-color="#FAE6FF"/>
        </radialGradient>
        <linearGradient id="e" x1="41.823%" x2="224.462%" y1="75.684%" y2="88.981%">
            <stop offset="0%" stop-color="#7243C0"/>
            <stop offset="100%" stop-color="#AC5FCF"/>
        </linearGradient>
        <path id="g" d="M3.255 58.895L129.117.742c1.32-.61 2.39.257 2.39 1.935v116.49c0 1.679-1.07 3.534-2.39 4.144L3.255 181.464c-1.32.61-2.39-.257-2.39-1.935V63.039c0-1.679 1.07-3.534 2.39-4.144z"/>
        <filter id="f" width="123%" height="116.6%" x="-11.5%" y="-6.6%" filterUnits="objectBoundingBox">
            <feOffset dy="3" in="SourceAlpha" result="shadowOffsetOuter1"/>
            <feGaussianBlur in="shadowOffsetOuter1" result="shadowBlurOuter1" stdDeviation="4.5"/>
            <feComposite in="shadowBlurOuter1" in2="SourceAlpha" operator="out" result="shadowBlurOuter1"/>
            <feColorMatrix in="shadowBlurOuter1" values="0 0 0 0 0.137254902 0 0 0 0 0.141176471 0 0 0 0 0.145098039 0 0 0 0.1 0"/>
        </filter>
        <path id="i" d="M19.458 69.834L163.975.386c1.151-.553 2.084.185 2.084 1.65v64.586c0 1.464-.933 3.1-2.084 3.652L19.458 139.722c-1.151.553-2.084-.185-2.084-1.649v-17.445L.426 114.653l16.948-25.19V73.487c0-1.464.933-3.099 2.084-3.652z"/>
        <filter id="h" width="131.4%" height="137.2%" x="-23.5%" y="-18.6%" filterUnits="objectBoundingBox">
            <feOffset dx="-13" in="SourceAlpha" result="shadowOffsetOuter1"/>
            <feGaussianBlur in="shadowOffsetOuter1" result="shadowBlurOuter1" stdDeviation="6.5"/>
            <feComposite in="shadowBlurOuter1" in2="SourceAlpha" operator="out" result="shadowBlurOuter1"/>
            <feColorMatrix in="shadowBlurOuter1" values="0 0 0 0 0.0352941176 0 0 0 0 0.505882353 0 0 0 0 0.745098039 0 0 0 0.2 0"/>
        </filter>
        <linearGradient id="j" x1="29.341%" x2="83.882%" y1="119.305%" y2="16.091%">
            <stop offset="0%" stop-color="#7243C0"/>
            <stop offset="100%" stop-color="#AC5FCF"/>
        </linearGradient>
        <path id="l" d="M19.458 69.834L163.975.386c1.151-.553 2.084.185 2.084 1.65v64.586c0 1.464-.933 3.1-2.084 3.652L19.458 139.722c-1.151.553-2.084-.185-2.084-1.649v-17.445L.426 114.653l16.948-25.19V73.487c0-1.464.933-3.099 2.084-3.652z"/>
        <filter id="k" width="131.4%" height="137.2%" x="-23.5%" y="-18.6%" filterUnits="objectBoundingBox">
            <feOffset dx="-13" in="SourceAlpha" result="shadowOffsetOuter1"/>
            <feGaussianBlur in="shadowOffsetOuter1" result="shadowBlurOuter1" stdDeviation="6.5"/>
            <feComposite in="shadowBlurOuter1" in2="SourceAlpha" operator="out" result="shadowBlurOuter1"/>
            <feColorMatrix in="shadowBlurOuter1" values="0 0 0 0 0.0352941176 0 0 0 0 0.505882353 0 0 0 0 0.745098039 0 0 0 0.2 0"/>
        </filter>
        <path id="n" d="M19.458 69.834L163.975.386c1.151-.553 2.084.185 2.084 1.65v64.586c0 1.464-.933 3.1-2.084 3.652L19.458 139.722c-1.151.553-2.084-.185-2.084-1.649v-17.445L.426 114.653l16.948-25.19V73.487c0-1.464.933-3.099 2.084-3.652z"/>
        <filter id="m" width="131.4%" height="137.2%" x="-23.5%" y="-18.6%" filterUnits="objectBoundingBox">
            <feOffset dx="-13" in="SourceAlpha" result="shadowOffsetOuter1"/>
            <feGaussianBlur in="shadowOffsetOuter1" result="shadowBlurOuter1" stdDeviation="6.5"/>
            <feComposite in="shadowBlurOuter1" in2="SourceAlpha" operator="out" result="shadowBlurOuter1"/>
            <feColorMatrix in="shadowBlurOuter1" values="0 0 0 0 0.0352941176 0 0 0 0 0.505882353 0 0 0 0 0.745098039 0 0 0 0.2 0"/>
        </filter>
        <path id="p" d="M71.537 125.23l29.488-13.105c5.329-2.368 9.649-8.608 9.649-13.938V6.811c0-5.329-4.32-7.729-9.65-5.36L9.65 42.06C4.32 44.428 0 50.668 0 55.998v91.376c0 5.329 4.32 7.729 9.65 5.36l29.533-13.125 16.227 15.888 16.127-30.267z"/>
        <filter id="o" width="141.6%" height="127.7%" x="-31.2%" y="-13.9%" filterUnits="objectBoundingBox">
            <feOffset dx="-13" in="SourceAlpha" result="shadowOffsetOuter1"/>
            <feGaussianBlur in="shadowOffsetOuter1" result="shadowBlurOuter1" stdDeviation="5"/>
            <feComposite in="shadowBlurOuter1" in2="SourceAlpha" operator="out" result="shadowBlurOuter1"/>
            <feColorMatrix in="shadowBlurOuter1" values="0 0 0 0 0.577893889 0 0 0 0 0.0352941176 0 0 0 0 0.745098039 0 0 0 0.1 0"/>
        </filter>
        <linearGradient id="q" x1="-68.123%" x2="93.176%" y1="-19.771%" y2="111.199%">
            <stop offset="0%" stop-color="#FFBF6E"/>
            <stop offset="100%" stop-color="#DF8718"/>
        </linearGradient>
    </defs>
    <g fill="none" fill-rule="evenodd">
        <path stroke="url(#a)" stroke-linecap="round" stroke-linejoin="round" stroke-width="6.25" d="M.963 528.904c25.354-17.124 47.017-37.157 64.99-60.098 26.958-34.411 33.697-48.877 64.507-43.502 30.81 5.375 38.994-14.107 42.845 6.698 3.851 20.805 27.921 18.57 29.847 37.878 1.925 19.309 26.958 26.86 29.847-14.114 2.888-40.973 13.96-58.593 35.142-74.387 21.182-15.793 15.886 4.042 35.624-8.18 19.737-12.222 28.884-57.467 50.547-43.159 21.663 14.308 25.996-6.034 52.473-15.185 26.477-9.15 48.621-26.362 62.582-61.848 13.96-35.486 24.07-46.044 35.624-20.697 11.553 25.346 22.625 61.511 35.623 42.848 12.998-18.662 16.85-34.444 39.957-11.192" opacity=".67" transform="translate(-1 9)"/>
        <path fill="url(#b)" d="M.404 402.433l167.063-80.702 100.584 45.873L92.267 439.72.404 402.433z" transform="translate(73.06 151.259)"/>
        <path fill="#FFFFFE" d="M169.978 256.976l.872 325.344c.041 14.352 10.144 21.178 22.564 15.246l128.133-61.194c12.42-5.932 22.458-22.377 22.418-36.728l-.873-325.344c-.04-14.351-10.144-21.178-22.564-15.246l-128.132 61.194c-12.421 5.931-22.458 22.376-22.418 36.728z"/>
        <path fill="url(#c)" d="M237.772 2.666c6.351-2.99 12.107-2.755 16.263.042l10.8 6.065c-4.156-2.797-7.888-.439-14.24 2.55L120.384 72.626c-12.623 5.942-22.823 22.373-22.782 36.696l.887 324.708c.02 7.116 3.27 10.701 7.373 13.463l-13.529-6.986c-4.103-2.76-6.647-8.02-6.668-15.135l-.886-324.707c-.042-14.324 10.158-30.755 22.78-36.697L237.773 2.666z" transform="translate(73.06 151.259)"/>
        <path fill="#F6F8FD" d="M169.978 256.976l.872 325.344c.041 14.352 10.144 21.178 22.564 15.246l128.133-61.194c12.42-5.932 22.458-22.377 22.418-36.728l-.873-325.344c-.04-14.351-10.144-21.178-22.564-15.246l-128.132 61.194c-12.421 5.931-22.458 22.376-22.418 36.728z"/>
        <path fill="url(#d)" d="M102.987 107.562l.804 312.62c.037 12.946 9.34 19.085 20.777 13.711l119.624-56.205c11.438-5.374 20.68-20.226 20.643-33.172l-.804-312.62c-.037-12.945-9.34-19.084-20.777-13.71L123.629 74.39c-11.436 5.374-20.68 20.226-20.642 33.172z" transform="translate(73.06 151.259)"/>
        <path fill="url(#e)" d="M109.056 400.23l149.71-70.517V51.85l-149.71 70.516z" transform="translate(73.06 151.259)"/>
        <g opacity=".9" transform="translate(190.987 224.476)">
            <use fill="#000" filter="url(#f)" xlink:href="#g"/>
            <use fill="#FFF" xlink:href="#g"/>
            <path stroke="#F3F4F6" stroke-width="1.25" d="M3.517 59.463c-1.088.502-2.027 2.13-2.027 3.575v116.49c0 1.257.634 1.77 1.503 1.368l125.862-58.153c1.088-.502 2.027-2.13 2.027-3.575V2.678c0-1.257-.634-1.77-1.503-1.368L3.517 59.463z"/>
        </g>
        <path stroke="#232425" stroke-linecap="square" stroke-width="1.25" d="M211.098 385.819l98.536-45.527M211.098 358.469l98.536-45.527M211.098 331.119l98.536-45.527M211.098 303.769l98.536-45.527" opacity=".2"/>
        <path fill="#E2A8FB" d="M210.085 284.09l23.898-11.041v5.065l-23.898 11.041zM247.565 266.551l23.898-11.042v5.065l-23.898 11.042zM286.057 249.03l23.898-11.041v5.065l-23.898 11.041z"/>
        <path fill="#E28DFF" d="M211.409 385.099l5.154-29.896a2.267 2.267 0 0 1 4.217-.716 2.388 2.388 0 0 0 4.426-.676l5-24.165a4.103 4.103 0 0 1 6.192-2.647 4.64 4.64 0 0 0 6.861-2.468l1.885-5.654a5.012 5.012 0 0 1 9.205-.722l3.29 6.345a7.188 7.188 0 0 0 13.354-1.566l8.893-35.572a2.119 2.119 0 0 1 3.991-.347l.518 1.164a3.035 3.035 0 0 0 5.105.71 2.896 2.896 0 0 1 4.918.79l19.447 49.19-102.456 46.23z" opacity=".7"/>
        <path fill="#FFF" d="M190.987 529.904l131.968-62.16v-109.3l-131.968 62.16z" opacity=".254"/>
        <path fill="#E5A9FC" d="M250.902 538.71l.023 7.83c.014 4.84 3.553 7.13 7.903 5.113l16.597-7.692c4.346-2.014 7.86-7.572 7.847-12.411l-.023-7.831c-.014-4.84-3.553-7.128-7.899-5.115l-16.597 7.692c-4.35 2.016-7.865 7.574-7.851 12.413z"/>
        <g>
            <g opacity=".96" transform="translate(289.168 153.096)">
                <use fill="#000" filter="url(#h)" xlink:href="#i"/>
                <use fill="#FFF" xlink:href="#i"/>
                <path stroke="#F3F4F6" stroke-width="1.25" d="M1.395 114.332L18 120.186v17.887c0 1.037.487 1.422 1.188 1.086L163.704 69.71c.925-.444 1.73-1.856 1.73-3.089V2.035c0-1.036-.488-1.422-1.188-1.085L19.729 70.397c-.925.445-1.73 1.856-1.73 3.09v16.168L1.395 114.332z"/>
            </g>
            <path fill="#FFAF4B" d="M364.87 216.16l49.887-23.685v7.408L364.87 223.57z"/>
            <path fill="#E5A9FC" d="M364.87 229.59l72.078-34.223v3.704l-72.078 34.223zM364.87 236.072l53.063-25.194v3.704l-53.063 25.195zM364.87 242.555l53.063-25.194v3.704L364.87 246.26z"/>
            <path fill="url(#j)" d="M18.638 74.459c9.84-4.672 17.817-17.789 17.817-29.297s-7.977-17.05-17.817-12.378C8.798 37.456.82 50.572.82 62.08c0 11.508 7.977 17.05 17.817 12.378z" transform="translate(320.497 191.764)"/>
            <path fill="#FEFEFE" fill-rule="nonzero" d="M338.947 248.353c2.504-1.189 4.784-6.42 4.784-10.974 0-3.95-1.744-5.388-4.784-3.944-3.04 1.443-4.783 4.536-4.783 8.487 0 4.554 2.28 7.62 4.783 6.43z"/>
            <path fill="#FEFEFE" fill-rule="nonzero" d="M348.277 247.106c-1.362-.314-4.217-.939-5.937-1.073-.846 1.582-2.077 2.875-3.393 3.563-1.319.562-2.554.436-3.4-.348-1.73 1.769-4.578 5.11-5.934 6.719-.475.564-.764 1.304-.764 1.954v1.113c0 .914.566 1.424 1.337 1.205a61.796 61.796 0 0 0 8.761-3.184 79.881 79.881 0 0 0 8.761-5.136c.772-.513 1.338-1.561 1.337-2.475v-1.108c.001-.652-.29-1.12-.768-1.23z"/>
        </g>
        <g>
            <g opacity=".96" transform="translate(289.168 248.282)">
                <use fill="#000" filter="url(#k)" xlink:href="#l"/>
                <use fill="#FFF" xlink:href="#l"/>
                <path stroke="#F3F4F6" stroke-width="1.25" d="M1.395 114.332L18 120.186v17.887c0 1.037.487 1.422 1.188 1.086L163.704 69.71c.925-.444 1.73-1.856 1.73-3.089V2.035c0-1.036-.488-1.422-1.188-1.085L19.729 70.397c-.925.445-1.73 1.856-1.73 3.09v16.168L1.395 114.332z"/>
            </g>
            <path fill="#FFAF4B" d="M364.87 311.347l49.887-23.687v7.41l-49.887 23.685z"/>
            <path fill="#E5A9FC" d="M364.87 324.775l72.078-34.223v3.705L364.87 328.48zM364.87 331.258l53.063-25.194v3.704l-53.063 25.194zM364.87 337.74l53.063-25.194v3.705l-53.063 25.194z"/>
            <path fill="url(#j)" d="M18.638 74.459c9.84-4.672 17.817-17.789 17.817-29.297s-7.977-17.05-17.817-12.378C8.798 37.456.82 50.572.82 62.08c0 11.508 7.977 17.05 17.817 12.378z" transform="translate(320.497 286.95)"/>
            <path fill="#FEFEFE" fill-rule="nonzero" d="M338.947 343.538c2.504-1.188 4.784-6.418 4.784-10.973 0-3.95-1.744-5.388-4.784-3.945-3.04 1.444-4.783 4.537-4.783 8.487 0 4.555 2.28 7.62 4.783 6.431z"/>
            <path fill="#FEFEFE" fill-rule="nonzero" d="M348.277 342.292c-1.362-.315-4.217-.94-5.937-1.073-.846 1.581-2.077 2.875-3.393 3.563-1.319.562-2.554.436-3.4-.348-1.73 1.768-4.578 5.11-5.934 6.719-.475.563-.764 1.304-.764 1.954v1.112c0 .914.566 1.425 1.337 1.205a61.796 61.796 0 0 0 8.761-3.183 79.881 79.881 0 0 0 8.761-5.136c.772-.513 1.338-1.562 1.337-2.475v-1.108c.001-.653-.29-1.12-.768-1.23z"/>
        </g>
        <g>
            <g opacity=".96" transform="translate(289.168 342.792)">
                <use fill="#000" filter="url(#m)" xlink:href="#n"/>
                <use fill="#FFF" xlink:href="#n"/>
                <path stroke="#F3F4F6" stroke-width="1.25" d="M1.395 114.332L18 120.186v17.887c0 1.037.487 1.422 1.188 1.086L163.704 69.71c.925-.444 1.73-1.856 1.73-3.089V2.035c0-1.036-.488-1.422-1.188-1.085L19.729 70.397c-.925.445-1.73 1.856-1.73 3.09v16.168L1.395 114.332z"/>
            </g>
            <path fill="#FFAF4B" d="M364.87 405.856l49.887-23.686v7.409l-49.887 23.686z"/>
            <path fill="#E5A9FC" d="M364.87 419.285l72.078-34.223v3.705l-72.078 34.222zM364.87 425.768l53.063-25.195v3.705l-53.063 25.194zM364.87 432.25l53.063-25.194v3.705l-53.063 25.194z"/>
            <path fill="url(#j)" d="M18.638 74.459c9.84-4.672 17.817-17.789 17.817-29.297s-7.977-17.05-17.817-12.378C8.798 37.456.82 50.572.82 62.08c0 11.508 7.977 17.05 17.817 12.378z" transform="translate(320.497 381.459)"/>
            <path fill="#FEFEFE" fill-rule="nonzero" d="M338.947 438.048c2.504-1.189 4.784-6.419 4.784-10.973 0-3.95-1.744-5.388-4.784-3.945s-4.783 4.537-4.783 8.487c0 4.554 2.28 7.62 4.783 6.431z"/>
            <path fill="#FEFEFE" fill-rule="nonzero" d="M348.277 436.801c-1.362-.314-4.217-.938-5.937-1.073-.846 1.582-2.077 2.875-3.393 3.563-1.319.563-2.554.436-3.4-.348-1.73 1.77-4.578 5.11-5.934 6.72-.475.563-.764 1.304-.764 1.954v1.112c0 .914.566 1.425 1.337 1.205a61.796 61.796 0 0 0 8.761-3.184 79.881 79.881 0 0 0 8.761-5.136c.772-.512 1.338-1.56 1.337-2.475v-1.107c.001-.653-.29-1.12-.768-1.23z"/>
        </g>
        <g>
            <g opacity=".96" transform="translate(186.911 9.317)">
                <use fill="#000" filter="url(#o)" xlink:href="#p"/>
                <use fill="#FFF" xlink:href="#p"/>
                <path stroke="#F3F4F6" stroke-width="1.25" d="M55.25 154.467l15.836-29.72 29.685-13.193c5.11-2.27 9.278-8.292 9.278-13.367V6.811c0-4.852-3.835-6.983-8.77-4.79L9.902 42.632C4.793 44.902.625 50.923.625 55.998v91.376c0 4.852 3.835 6.983 8.77 4.79l29.922-13.298 15.934 15.6z"/>
            </g>
            <path fill="#FFAF4B" d="M242.248 81.563c-4.1 1.822-7.456 6.669-7.456 10.77 0 4.1 3.355 5.965 7.456 4.142 4.101-1.822 7.456-6.669 7.456-10.77 0-4.1-3.355-5.965-7.456-4.142z"/>
            <path fill="#FFAF4B" d="M264.617 79.078c0-12.303-10.066-17.896-22.369-12.428-12.303 5.468-22.368 20.007-22.368 32.31 0 8.202 4.473 13.297 11.184 14.416l3.728-7.995c-4.474-.621-7.456-4.142-7.456-9.362 0-8.202 6.71-17.895 14.912-21.54 8.202-3.645 14.913.083 14.913 8.285 0 5.593-2.983 11.765-7.457 15.99l3.729 4.68c6.71-7.083 11.184-16.154 11.184-24.356z"/>
            <path fill="#FFAF4B" d="M242.248 51.738c-20.504 9.112-37.28 33.345-37.28 53.85 0 13.794 7.455 22.41 18.64 23.777l3.728-7.994c-8.948-1.243-14.913-8.285-14.913-19.097 0-16.404 13.422-35.79 29.825-43.08 16.404-7.29 29.825.166 29.825 16.57 0 11.184-5.965 23.156-14.912 32.352l3.728 4.68c11.184-11.308 18.64-26.924 18.64-40.346 0-20.504-16.776-29.825-37.28-20.712z"/>
        </g>
        <g>
            <path fill="url(#q)" d="M37.837 93.709c20.789-10.195 37.642-38.435 37.642-63.077 0-24.642-16.853-36.354-37.642-26.16C17.047 14.668.194 42.908.194 67.55c0 24.642 16.853 36.354 37.643 26.16z" transform="translate(139.152 433.4)"/>
            <path fill="#FFAF4B" d="M182.952 530.147c20.79-10.194 37.643-38.435 37.643-63.076 0-24.642-16.853-36.354-37.643-26.16-20.789 10.194-37.642 38.434-37.642 63.076 0 24.642 16.853 36.354 37.642 26.16z"/>
            <path fill="#FEFEFE" fill-rule="nonzero" d="M197.83 486.668c-.49-.346-1.155-.346-1.849 0-.694.347-1.359 1.011-1.849 1.847l-2.123 3.618c-.57.973-1.458 1.542-2.146 1.376a25.17 25.17 0 0 1-8.056-3.291c-2.307-1.81-4.344-4.047-6.073-6.671-.423-.617-.318-1.738.252-2.71l2.124-3.619c.49-.835.766-1.774.766-2.61 0-.835-.276-1.498-.766-1.844l-4.93-3.475c-.49-.346-1.156-.346-1.85 0-.693.347-1.358 1.011-1.848 1.847l-2.96 5.043c-2.971 5.058-3.402 10.894-1.023 13.875 3.043 4.03 6.435 7.595 10.146 10.664a57.368 57.368 0 0 0 13.06 5.697c3.461 1.137 8.128-1.712 11.095-6.774l2.96-5.043c.49-.836.766-1.774.766-2.61 0-.835-.276-1.499-.766-1.844l-4.93-3.476z"/>
        </g>
    </g>
</svg>
