<svg xmlns="http://www.w3.org/2000/svg" xmlns:xlink="http://www.w3.org/1999/xlink" width="100" height="103" viewBox="0 0 100 103">
    <defs>
        <linearGradient id="c" x1="-65.834%" x2="50%" y1="19.437%" y2="95.8%">
            <stop offset="0%" stop-color="#F7EBFF"/>
            <stop offset="100%" stop-color="#E9D4FF"/>
        </linearGradient>
        <path id="b" d="M86.123 83.019l-66.05-24.685a6 6 0 0 1-3.9-5.62l-2-48.182c0-.94 2.432-2.454 3.108-3.004a2.988 2.988 0 0 1 2.943-.482l66.05 24.685a6 6 0 0 1 3.9 5.62v48.857c0 .963-.454 1.82-1.16 2.37-.508.395-3.147 1.954-3.84 1.954-.36 0 1.285-1.388.95-1.513z"/>
        <filter id="a" width="125%" height="122.7%" x="-17.8%" y="-13.7%" filterUnits="objectBoundingBox">
            <feOffset dx="-4" dy="-2" in="SourceAlpha" result="shadowOffsetOuter1"/>
            <feGaussianBlur in="shadowOffsetOuter1" result="shadowBlurOuter1" stdDeviation="2.5"/>
            <feColorMatrix in="shadowBlurOuter1" values="0 0 0 0 0.00392156863 0 0 0 0 0.278431373 0 0 0 0 0.6 0 0 0 0.132642663 0"/>
        </filter>
        <linearGradient id="d" x1="86.213%" x2="22.669%" y1="13.901%" y2="94.902%">
            <stop offset="0%" stop-color="#F6F0FF"/>
            <stop offset="100%" stop-color="#F5E1FF"/>
        </linearGradient>
        <linearGradient id="g" x1="-65.834%" x2="50%" y1="19.437%" y2="95.8%">
            <stop offset="0%" stop-color="#D89AFF"/>
            <stop offset="100%" stop-color="#A262EA"/>
        </linearGradient>
        <path id="f" d="M72.95 92.486L6.9 67.802a6 6 0 0 1-3.9-5.62L1 14c0-.94 2.432-2.454 3.107-3.004a2.988 2.988 0 0 1 2.943-.482L73.1 35.198a6 6 0 0 1 3.9 5.62v48.858c0 .963-.454 1.82-1.16 2.37C75.334 92.44 72.695 94 72 94c-.359 0 1.286-1.388.95-1.514z"/>
        <filter id="e" width="125%" height="122.7%" x="-17.8%" y="-13.7%" filterUnits="objectBoundingBox">
            <feOffset dx="-4" dy="-2" in="SourceAlpha" result="shadowOffsetOuter1"/>
            <feGaussianBlur in="shadowOffsetOuter1" result="shadowBlurOuter1" stdDeviation="2.5"/>
            <feColorMatrix in="shadowBlurOuter1" values="0 0 0 0 0.00392156863 0 0 0 0 0.278431373 0 0 0 0 0.6 0 0 0 0.132642663 0"/>
        </filter>
        <linearGradient id="h" x1="86.213%" x2="22.277%" y1="13.901%" y2="95.402%">
            <stop offset="0%" stop-color="#B98FFF"/>
            <stop offset="100%" stop-color="#DE9CFF"/>
        </linearGradient>
    </defs>
    <g fill="none" fill-rule="evenodd">
        <g transform="translate(8 6)">
            <use fill="#000" filter="url(#a)" xlink:href="#b"/>
            <use fill="url(#c)" xlink:href="#b"/>
        </g>
        <path fill="url(#d)" d="M84.123 85.019l-66.05-24.685a6 6 0 0 1-3.9-5.62V5.855a3 3 0 0 1 4.05-2.81l66.05 24.685a6 6 0 0 1 3.9 5.62v48.857a3 3 0 0 1-4.05 2.81z" transform="translate(8 6)"/>
        <g transform="translate(8 6)">
            <use fill="#000" filter="url(#e)" xlink:href="#f"/>
            <use fill="url(#g)" xlink:href="#f"/>
        </g>
        <path fill="url(#h)" d="M69.95 94.486L3.9 69.802a6 6 0 0 1-3.9-5.62V15.323a3 3 0 0 1 4.05-2.81L70.1 37.198a6 6 0 0 1 3.9 5.62v48.858a3 3 0 0 1-4.05 2.81z" transform="translate(8 6)"/>
        <path fill="#FFF" fill-rule="nonzero" d="M41.605 68.478l-5.007-6.87a3.877 3.877 0 0 0 1.192-.486c.364-.229.674-.518.937-.851l5.007 6.87c1.577-.127 3.498.87 4.799 2.655 1.67 2.294 1.67 5.01 0 6.059-1.672 1.05-4.388.038-6.059-2.255-1.3-1.778-1.584-3.81-.87-5.122zm2.689 1.574c-.667.419-.667 1.497 0 2.412.667.916 1.745 1.317 2.412.898.667-.419.667-1.497 0-2.412-.667-.916-1.745-1.317-2.412-.898zm-1.82-20.901c-1.671-2.294-1.671-5.01 0-6.059 1.671-1.05 4.387-.038 6.059 2.255 1.293 1.782 1.583 3.81.862 5.126l5.007 6.87a3.877 3.877 0 0 0-1.192.487 3.612 3.612 0 0 0-.93.846l-5.008-6.87c-1.577.127-3.497-.87-4.798-2.655zm1.82-3.562c-.667.419-.667 1.497 0 2.413.667.915 1.745 1.316 2.412.897.667-.418.667-1.497 0-2.412-.667-.916-1.745-1.317-2.412-.898zm-14.045 11.25c-1.67-2.293-1.67-5.009 0-6.058 1.294-.82 3.222-.385 4.799.916l5.007-3.143a10.49 10.49 0 0 0 2.123 2.912L37.17 54.61c.715 1.843.432 3.658-.869 4.475-1.671 1.05-4.387.038-6.052-2.246zm1.82-3.568c-.667.419-.667 1.497 0 2.412.667.916 1.745 1.317 2.413.898.667-.419.667-1.497 0-2.412-.668-.916-1.746-1.317-2.413-.898zm16.753 14.214l5.008-3.144c-.715-1.843-.432-3.658.869-4.474 1.671-1.05 4.387-.04 6.052 2.245 1.67 2.293 1.67 5.01 0 6.058-1.294.82-3.222.385-4.799-.916l-5.007 3.144a10.49 10.49 0 0 0-2.123-2.913zm7.696-5.115c-.667.419-.667 1.497 0 2.413.668.915 1.746 1.316 2.413.897.667-.418.667-1.497 0-2.412-.667-.916-1.745-1.317-2.413-.898z"/>
    </g>
</svg>
