<svg xmlns="http://www.w3.org/2000/svg" width="148" height="40" viewBox="0 0 148 40">
    <defs>
        <linearGradient id="a" x1="91.08%" x2="6.473%" y1="50%" y2="50%">
            <stop offset="0%" stop-color="#1576BF"/>
            <stop offset="100%" stop-color="#27A4DD"/>
        </linearGradient>
    </defs>
    <g fill="none" fill-rule="evenodd">
        <path fill="url(#a)" d="M32.544 20.438c-.095 2.354-1.026 4.631-2.873 6.5-1.521 1.54-3.1 3.02-4.615 4.565-.578.59-1.004.692-1.6.017a45.804 45.804 0 0 0-2.669-2.739c-.544-.519-.547-.899.009-1.423 1.433-1.35 2.822-2.75 4.226-4.132 2.201-2.172 2.173-4.273-.02-6.414-.512-.5-.82-.49-1.313.006-2.072 2.08-4.178 4.126-6.274 6.183-1.151 1.13-1.152 1.13-2.317-.062-.595-.608-1.194-1.21-1.78-1.826-.956-1.003-.962-1.34.013-2.305 2.031-2.012 4.052-4.035 6.131-5.997.668-.63.706-1.035.02-1.652-.859-.774-1.646-1.63-2.436-2.479-.445-.478-.8-.454-1.255-.003-2.909 2.882-5.866 5.717-8.742 8.632-1.592 1.614-1.461 3.736.234 5.478 3.988 4.099 7.973 8.2 12.008 12.252.808.812.936 1.357.005 2.132-.888.738-1.681 1.595-2.489 2.425-.457.47-.829.584-1.345.051-4.249-4.385-8.616-8.658-12.745-13.151-3.772-4.106-3.581-9.553.35-13.559C7.236 8.692 11.548 4.59 15.773.4c.599-.593.98-.487 1.516.065 4.143 4.27 8.321 8.506 12.459 12.783 1.877 1.94 2.83 4.41 2.797 7.191"/>
        <path fill="#35A4E2" d="M53 18.96c0-2.267.4-4.32 1.2-6.16.8-1.84 1.893-3.413 3.28-4.72 1.387-1.307 3.02-2.313 4.9-3.02C64.26 4.353 66.267 4 68.4 4c2.187 0 4.253.353 6.2 1.06 1.947.707 3.573 1.66 4.88 2.86l-5.84 7.04a5.153 5.153 0 0 0-2-1.58c-.8-.36-1.693-.54-2.68-.54-.8 0-1.547.14-2.24.42-.693.28-1.3.687-1.82 1.22a5.657 5.657 0 0 0-1.22 1.94c-.293.76-.44 1.607-.44 2.54s.153 1.767.46 2.5c.307.733.72 1.367 1.24 1.9.52.533 1.127.94 1.82 1.22a5.82 5.82 0 0 0 2.2.42c1.093 0 2.033-.227 2.82-.68.787-.453 1.407-.987 1.86-1.6l5.84 7c-1.28 1.28-2.853 2.3-4.72 3.06-1.867.76-3.987 1.14-6.36 1.14-2.133 0-4.14-.36-6.02-1.08-1.88-.72-3.513-1.74-4.9-3.06-1.387-1.32-2.48-2.893-3.28-4.72-.8-1.827-1.2-3.86-1.2-6.1zM83.231 4.8h12.2c1.387 0 2.767.14 4.14.42 1.373.28 2.6.773 3.68 1.48s1.953 1.653 2.62 2.84c.667 1.187 1 2.673 1 4.46 0 1.733-.427 3.26-1.28 4.58-.853 1.32-2.08 2.34-3.68 3.06l7.2 11.48h-10.96L92.711 23h-.28v10.12h-9.2V4.8zm9.12 11.96h1.88c.32 0 .673-.027 1.06-.08a3.3 3.3 0 0 0 1.08-.34c.333-.173.613-.413.84-.72.227-.307.34-.713.34-1.22s-.093-.907-.28-1.2a1.798 1.798 0 0 0-.72-.66 2.862 2.862 0 0 0-.96-.28 8.418 8.418 0 0 0-.96-.06h-2.28v4.56zm28.991.36l.44 16h-8.88V4.8h12.44l5.12 15.24h.2l4.44-15.24h12.84v28.32h-9.24l.28-15.92-.24-.04-5.28 15.96h-6.72l-5.2-16h-.2z"/>
    </g>
</svg>
