<svg xmlns="http://www.w3.org/2000/svg" width="87" height="40" viewBox="0 0 87 40">
    <defs>
        <linearGradient id="a" x1="91.08%" x2="6.473%" y1="50%" y2="50%">
            <stop offset="0%" stop-color="#1576BF"/>
            <stop offset="100%" stop-color="#27A4DD"/>
        </linearGradient>
    </defs>
    <g fill="none" fill-rule="evenodd">
        <path fill="url(#a)" d="M29.67 26.938c-1.52 1.54-3.099 3.02-4.614 4.565-.578.59-1.004.692-1.6.017a45.804 45.804 0 0 0-2.669-2.739c-.544-.519-.547-.899.009-1.423 1.433-1.35 2.822-2.75 4.226-4.132 2.201-2.172 2.173-4.273-.02-6.414-.512-.5-.82-.49-1.313.006-2.072 2.08-4.178 4.126-6.274 6.183-1.151 1.13-1.152 1.13-2.317-.062-.595-.608-1.194-1.21-1.78-1.826-.956-1.003-.962-1.34.013-2.305 2.031-2.012 4.052-4.035 6.131-5.997.668-.63.706-1.035.02-1.652-.859-.774-1.646-1.63-2.436-2.479-.445-.478-.8-.454-1.255-.003-2.909 2.882-5.866 5.717-8.742 8.632-1.592 1.614-1.461 3.736.234 5.478 3.988 4.099 7.973 8.2 12.008 12.252.808.812.936 1.357.005 2.132-.888.738-1.681 1.595-2.489 2.425-.457.47-.829.584-1.345.051-4.249-4.385-8.616-8.658-12.745-13.151-3.772-4.106-3.581-9.553.35-13.559C7.236 8.692 11.548 4.59 15.773.4c.599-.593.98-.487 1.516.065 4.143 4.27 8.321 8.506 12.459 12.783 1.877 1.94 2.83 4.41 2.797 7.191-.095 2.354-1.026 4.631-2.873 6.5z"/>
        <g fill="#46648E" fill-rule="nonzero">
            <path d="M49.605 14.37c.209.714.498 1.404.864 2.05l-1.042 1.316a1.08 1.08 0 0 0 .08 1.43l1.797 1.797c.387.388 1 .422 1.43.081l1.307-1.034c.673.387 1.388.69 2.133.902l.196 1.682c.064.544.523.953 1.068.953h2.542c.545 0 1.004-.409 1.068-.953l.187-1.622c.8-.209 1.567-.52 2.286-.924l1.265 1a1.08 1.08 0 0 0 1.43-.08l1.797-1.797c.387-.387.421-1 .08-1.43l-.983-1.248c.409-.706.728-1.46.941-2.247l1.515-.175c.545-.064.954-.524.954-1.068V10.46c0-.545-.409-1.005-.954-1.068l-1.494-.175a9.442 9.442 0 0 0-.902-2.222l.92-1.162a1.08 1.08 0 0 0-.082-1.43L66.216 2.61c-.387-.387-1-.421-1.43-.08l-1.128.893a9.474 9.474 0 0 0-2.337-.979l-.17-1.46A1.077 1.077 0 0 0 60.08.03h-2.54c-.545 0-1.005.409-1.07.954l-.17 1.46a9.435 9.435 0 0 0-2.396 1.013l-1.17-.928a1.08 1.08 0 0 0-1.431.081l-1.797 1.797c-.387.387-.421 1-.08 1.43l.979 1.239a9.26 9.26 0 0 0-.886 2.243l-1.566.179A1.077 1.077 0 0 0 47 10.567v2.542c0 .545.409 1.005.954 1.068l1.651.192zm9.208-6.876a4.208 4.208 0 0 1 4.202 4.202 4.208 4.208 0 0 1-4.202 4.201 4.208 4.208 0 0 1-4.201-4.201 4.208 4.208 0 0 1 4.201-4.202z"/>
            <path d="M83.938 14.995l-1.34-1.133a1.06 1.06 0 0 0-1.414.039l-.74.694a7.656 7.656 0 0 0-1.976-.639l-.209-1.022a1.07 1.07 0 0 0-1.132-.851l-1.75.149a1.066 1.066 0 0 0-.975 1.026l-.034 1.039a7.678 7.678 0 0 0-1.885.992l-.886-.588a1.064 1.064 0 0 0-1.4.2l-1.133 1.35a1.06 1.06 0 0 0 .038 1.413l.775.826a7.935 7.935 0 0 0-.57 1.89l-1.107.226a1.07 1.07 0 0 0-.851 1.132l.149 1.75c.046.536.485.957 1.025.974l1.197.039c.217.57.502 1.11.847 1.617l-.668 1.01a1.064 1.064 0 0 0 .2 1.4l1.34 1.132a1.06 1.06 0 0 0 1.414-.038l.877-.822c.575.268 1.179.469 1.8.588l.243 1.2a1.07 1.07 0 0 0 1.133.852l1.75-.15c.536-.046.957-.485.974-1.025l.038-1.175a7.869 7.869 0 0 0 1.801-.911l.966.638a1.064 1.064 0 0 0 1.401-.2l1.132-1.34a1.06 1.06 0 0 0-.038-1.414l-.779-.826a7.666 7.666 0 0 0 .613-1.899l1.064-.217a1.07 1.07 0 0 0 .852-1.132l-.15-1.75a1.066 1.066 0 0 0-1.025-.975l-1.069-.034a7.73 7.73 0 0 0-.89-1.753l.584-.877a1.058 1.058 0 0 0-.192-1.405zm-6.594 10.114a3.44 3.44 0 1 1-.578-6.854 3.44 3.44 0 0 1 .578 6.854zM55.727 29.818c-.536.055-.95.506-.954 1.047l-.012 1.077c-.009.54.391 1 .928 1.069l.791.102c.132.48.32.94.562 1.375l-.51.63a1.061 1.061 0 0 0 .063 1.413l.754.77c.379.388.983.43 1.413.099l.634-.49c.447.264.92.473 1.414.617l.085.818c.055.536.506.949 1.047.953l1.077.013c.54.008 1-.392 1.069-.928l.098-.775a6.396 6.396 0 0 0 1.532-.596l.596.481c.422.34 1.026.315 1.413-.064l.771-.753c.387-.379.43-.983.098-1.413l-.456-.592c.281-.468.498-.967.647-1.49l.707-.073c.537-.055.95-.506.954-1.047l.012-1.077c.009-.54-.391-1-.928-1.068l-.69-.09a6.413 6.413 0 0 0-.582-1.49l.43-.528a1.061 1.061 0 0 0-.064-1.413l-.754-.77a1.063 1.063 0 0 0-1.413-.098l-.515.396a6.262 6.262 0 0 0-1.55-.673l-.068-.668a1.063 1.063 0 0 0-1.047-.954l-1.077-.013c-.54-.008-1 .392-1.069.928l-.085.664a6.43 6.43 0 0 0-1.605.656l-.532-.434a1.061 1.061 0 0 0-1.413.064l-.775.757c-.387.38-.43.984-.098 1.414l.456.587a6.23 6.23 0 0 0-.61 1.49l-.744.077zm6.952-1.218a2.804 2.804 0 0 1 2.767 2.835 2.804 2.804 0 0 1-2.836 2.768 2.804 2.804 0 0 1-2.767-2.836A2.804 2.804 0 0 1 62.68 28.6z"/>
        </g>
    </g>
</svg>
