<svg xmlns="http://www.w3.org/2000/svg" width="94" height="40" viewBox="0 0 94 40">
    <defs>
        <linearGradient id="a" x1="91.08%" x2="6.473%" y1="50%" y2="50%">
            <stop offset="0%" stop-color="#1576BF"/>
            <stop offset="100%" stop-color="#27A4DD"/>
        </linearGradient>
    </defs>
    <g fill="none" fill-rule="evenodd">
        <path fill="#1A64B2" fill-rule="nonzero" d="M88.795 16.024c-.082-1.99-.555-3.787-1.406-5.437l-2.277 3.148a9.127 9.127 0 0 1 .347 3.362c-.433 5.414-5.352 9.803-10.987 9.803-1.323 0-2.569-.242-3.693-.682l13.606-14.213 5.745-5.828-4.093 2.164c-2.714-3.416-7.075-5.444-12.076-5.244-8.603.344-15.912 7.343-16.325 15.633-.414 8.289 6.224 14.73 14.826 14.386 7.587-.303 14.168-5.784 15.9-12.759l.433-4.333zM87.03 31.637C83.93 35.824 77.02 40 70.205 40c-10.902 0-19.022-8.953-18.14-20C52.95 8.954 62.505 0 73.406 0c5.527 0 10.339 2.3 13.625 6.01l6.27-2.402-3.704 6.176c.368.726.534 0 1.482 6.24.947 6.24-.948 11.426-4.048 15.613zM76.04 7.293c2.824 0 5.293 1.104 6.999 2.886l-16.71 12.356c-.958-1.555-1.438-3.426-1.278-5.437.433-5.415 5.353-9.805 10.988-9.805z"/>
        <path fill="url(#a)" d="M29.67 26.938c-1.52 1.54-3.099 3.02-4.614 4.565-.578.59-1.004.692-1.6.017a45.804 45.804 0 0 0-2.669-2.739c-.544-.519-.547-.899.009-1.423 1.433-1.35 2.822-2.75 4.226-4.132 2.201-2.172 2.173-4.273-.02-6.414-.512-.5-.82-.49-1.313.006-2.072 2.08-4.178 4.126-6.274 6.183-1.151 1.13-1.152 1.13-2.317-.062-.595-.608-1.194-1.21-1.78-1.826-.956-1.003-.962-1.34.013-2.305 2.031-2.012 4.052-4.035 6.131-5.997.668-.63.706-1.035.02-1.652-.859-.774-1.646-1.63-2.436-2.479-.445-.478-.8-.454-1.255-.003-2.909 2.882-5.866 5.717-8.742 8.632-1.592 1.614-1.461 3.736.234 5.478 3.988 4.099 7.973 8.2 12.008 12.252.808.812.936 1.357.005 2.132-.888.738-1.681 1.595-2.489 2.425-.457.47-.829.584-1.345.051-4.249-4.385-8.616-8.658-12.745-13.151-3.772-4.106-3.581-9.553.35-13.559C7.236 8.692 11.548 4.59 15.773.4c.599-.593.98-.487 1.516.065 4.143 4.27 8.321 8.506 12.459 12.783 1.877 1.94 2.83 4.41 2.797 7.191-.095 2.354-1.026 4.631-2.873 6.5z"/>
    </g>
</svg>
