<svg xmlns="http://www.w3.org/2000/svg" width="92" height="40" viewBox="0 0 92 40">
    <defs>
        <linearGradient id="a" x1="91.08%" x2="6.473%" y1="50%" y2="50%">
            <stop offset="0%" stop-color="#1576BF"/>
            <stop offset="100%" stop-color="#27A4DD"/>
        </linearGradient>
    </defs>
    <g fill="none" fill-rule="evenodd">
        <path fill="url(#a)" d="M32.544 20.438c-.095 2.354-1.026 4.631-2.873 6.5-1.521 1.54-3.1 3.02-4.615 4.565-.578.59-1.004.692-1.6.017a45.804 45.804 0 0 0-2.669-2.739c-.544-.519-.547-.899.009-1.423 1.433-1.35 2.822-2.75 4.226-4.132 2.201-2.172 2.173-4.273-.02-6.414-.512-.5-.82-.49-1.313.006-2.072 2.08-4.178 4.126-6.274 6.183-1.151 1.13-1.152 1.13-2.317-.062-.595-.608-1.194-1.21-1.78-1.826-.956-1.003-.962-1.34.013-2.305 2.031-2.012 4.052-4.035 6.131-5.997.668-.63.706-1.035.02-1.652-.859-.774-1.646-1.63-2.436-2.479-.445-.478-.8-.454-1.255-.003-2.909 2.882-5.866 5.717-8.742 8.632-1.592 1.614-1.461 3.736.234 5.478 3.988 4.099 7.973 8.2 12.008 12.252.808.812.936 1.357.005 2.132-.888.738-1.681 1.595-2.489 2.425-.457.47-.829.584-1.345.051-4.249-4.385-8.616-8.658-12.745-13.151-3.772-4.106-3.581-9.553.35-13.559C7.236 8.692 11.548 4.59 15.773.4c.599-.593.98-.487 1.516.065 4.143 4.27 8.321 8.506 12.459 12.783 1.877 1.94 2.83 4.41 2.797 7.191"/>
        <g fill-rule="nonzero">
            <path fill="#4285F4" d="M91.065 20.374c0-1.639-.133-2.834-.42-4.075H71.93v7.397h10.985c-.222 1.838-1.418 4.606-4.075 6.467l-.037.247 5.916 4.584.41.04c3.765-3.476 5.935-8.592 5.935-14.66"/>
            <path fill="#34A853" d="M71.931 39.863c5.382 0 9.9-1.772 13.2-4.828l-6.29-4.872c-1.683 1.173-3.942 1.993-6.91 1.993-5.27 0-9.744-3.477-11.338-8.283l-.234.02-6.153 4.762-.08.223c3.278 6.511 10.01 10.985 17.805 10.985"/>
            <path fill="#FBBC05" d="M60.593 23.873a12.27 12.27 0 0 1-.665-3.942c0-1.373.244-2.702.642-3.942l-.01-.264-6.23-4.838-.204.097A19.95 19.95 0 0 0 52 19.931c0 3.211.775 6.245 2.126 8.947l6.467-5.005"/>
            <path fill="#EB4335" d="M71.931 7.707c3.743 0 6.267 1.616 7.707 2.967l5.625-5.492C81.808 1.971 77.313 0 71.931 0c-7.795 0-14.527 4.473-17.805 10.984l6.444 5.005c1.617-4.805 6.09-8.282 11.361-8.282"/>
        </g>
    </g>
</svg>
