<svg xmlns="http://www.w3.org/2000/svg" xmlns:xlink="http://www.w3.org/1999/xlink" width="186" height="162" viewBox="0 0 186 162">
    <defs>
        <linearGradient id="a" x1="127.792%" x2="-19.218%" y1="-17.749%" y2="138.231%">
            <stop offset="0%" stop-color="#FCF4FF"/>
            <stop offset="100%" stop-color="#C494EA"/>
        </linearGradient>
        <linearGradient id="b" x1="96.13%" x2="-16.376%" y1="9.754%" y2="77.632%">
            <stop offset="0%" stop-color="#F7F1FA"/>
            <stop offset="100%" stop-color="#FFF"/>
        </linearGradient>
        <linearGradient id="c" x1="48.905%" x2="34.221%" y1="108.629%" y2="40.164%">
            <stop offset="0%" stop-color="#D4B6E2"/>
            <stop offset="100%" stop-color="#FDFCFE"/>
        </linearGradient>
        <linearGradient id="d" x1="41.823%" x2="224.462%" y1="75.684%" y2="88.981%">
            <stop offset="0%" stop-color="#7243C0"/>
            <stop offset="100%" stop-color="#AC5FCF"/>
        </linearGradient>
        <linearGradient id="e" x1="29.341%" x2="83.882%" y1="119.305%" y2="16.091%">
            <stop offset="0%" stop-color="#7243C0"/>
            <stop offset="100%" stop-color="#AC5FCF"/>
        </linearGradient>
        <linearGradient id="f" x1="-75.577%" x2="102%" y1="0%" y2="101%">
            <stop offset="0%" stop-color="#ABA2FF"/>
            <stop offset="100%" stop-color="#E650FF"/>
        </linearGradient>
        <path id="h" d="M2.684 58.942l43.762-20.75c1.554-.737 2.584-2.326 2.584-3.987V1.801c0-1.099-.89-1.9-1.988-1.79a2.12 2.12 0 0 0-.696.195L2.584 20.956C1.03 21.692 0 23.28 0 24.942v32.404c0 1.1.89 1.9 1.988 1.791a2.12 2.12 0 0 0 .696-.195z"/>
        <filter id="g" width="138.8%" height="132.1%" x="-27.5%" y="-19.4%" filterUnits="objectBoundingBox">
            <feOffset dx="-4" dy="-2" in="SourceAlpha" result="shadowOffsetOuter1"/>
            <feGaussianBlur in="shadowOffsetOuter1" result="shadowBlurOuter1" stdDeviation="2.5"/>
            <feColorMatrix in="shadowBlurOuter1" values="0 0 0 0 0.00392156863 0 0 0 0 0.278431373 0 0 0 0 0.6 0 0 0 0.132642663 0"/>
        </filter>
        <path id="j" d="M49.528 38.183l8.985-3.964c1.623-.716 2.94-2.604 2.94-4.216V2.364c0-1.612-1.317-2.338-2.94-1.621L30.67 13.026c-1.624.717-2.94 2.604-2.94 4.216v27.639c0 1.612 1.316 2.338 2.94 1.621l8.998-3.97 4.945 4.806 4.914-9.155z"/>
        <filter id="i" width="230.5%" height="193.9%" x="-94.9%" y="-46.9%" filterUnits="objectBoundingBox">
            <feMorphology in="SourceAlpha" operator="dilate" radius="2" result="shadowSpreadOuter1"/>
            <feOffset dx="-10" in="shadowSpreadOuter1" result="shadowOffsetOuter1"/>
            <feGaussianBlur in="shadowOffsetOuter1" result="shadowBlurOuter1" stdDeviation="5"/>
            <feComposite in="shadowBlurOuter1" in2="SourceAlpha" operator="out" result="shadowBlurOuter1"/>
            <feColorMatrix in="shadowBlurOuter1" values="0 0 0 0 0.598749201 0 0 0 0 0.0352941176 0 0 0 0 0.745098039 0 0 0 0.2 0"/>
        </filter>
    </defs>
    <g fill="none" fill-rule="evenodd">
        <path fill="#D4B6E2" d="M123.376 96.492c1.212-.47 2.612-.394 3.865.212l57.672 11.421.1 5.706c.004.184-.028.37-.1.545a1.269 1.269 0 0 1-.73.713L61.898 161.542c-1.181.449-2.538.38-3.763-.19L1.252 134.888a1.631 1.631 0 0 1-.943-1.374c-.006-.128-.006 2.694 0-5.493l123.067-31.53z"/>
        <path fill="url(#a)" d="M61.897 82.882l122.287-46.453c.334-.127.595-.382.73-.713.07-.176.103-.36.1-.545-.012-.57-.1-5.706-.1-5.706L127.24 18.043c-1.253-.605-2.653-.682-3.865-.212l-63.388 16.24v49.096a4.6 4.6 0 0 0 1.909-.285z" transform="translate(0 78.66)"/>
        <path fill="url(#b)" d="M1.127 47.96L123.377.48c1.21-.47 2.611-.394 3.864.212l56.849 27.476c.746.361 1.115 1.235.823 1.953a1.269 1.269 0 0 1-.73.713L61.898 77.287c-1.181.449-2.538.38-3.763-.19L1.252 50.633c-.751-.35-1.133-1.219-.853-1.942.13-.338.391-.6.728-.73z" transform="translate(0 78.66)"/>
        <path fill="url(#c)" d="M19.289 43.975L55.476 29.92l20.413 12.093-37.345 11.792z" transform="translate(0 78.66)"/>
        <g>
            <path fill="url(#d)" d="M20.957 20.115c1.33-.531 2.867-.463 4.243.188l19.537-8.842s.097 90.8.11 91.425c.003.203-.032.407-.11.6a1.415 1.415 0 0 1-.801.792l-19.96 7.823c-1.296.506-2.786.446-4.131-.166l-18.668-8.75a1.77 1.77 0 0 1-1.036-1.5c-.007-.14-.007-48.697 0-91.193l20.816 9.623z" transform="translate(105.064 3.17)"/>
            <path fill="url(#e)" d="M23.977 112.1l19.959-7.822c.366-.143.653-.426.8-.792.08-.193.114-.397.11-.6-.012-.626-.11-91.425-.11-91.425L25.2 20.303c-1.376-.651-1.99-1.01-3.32-.48v92.612a5.07 5.07 0 0 0 2.097-.334z" transform="translate(105.064 3.17)"/>
            <path fill="url(#f)" d="M1.04 8.945l19.917-7.902c1.33-.53 2.867-.462 4.243.19l18.632 8.812c-2.69-1.274 1.225 1.345.905 2.137a1.415 1.415 0 0 1-.801.792l-19.96 7.822c-1.296.506-2.786.447-4.131-.166L1.177 11.88C.352 11.505-.068 10.554.24 9.756c.143-.373.43-.664.8-.811z" transform="translate(105.064 3.17)"/>
        </g>
        <g>
            <path fill="url(#d)" d="M20.957 19.645c1.33-.512 2.867-.422 4.243.249l19.537-8.564s.097 79.42.11 80.045c.003.203-.032.406-.11.599a1.386 1.386 0 0 1-.801.78l-19.96 7.538c-1.296.488-2.786.407-4.131-.224L1.177 91.052A1.801 1.801 0 0 1 .14 89.537c-.007-.14-.007-45.422 0-79.812l20.816 9.92z" transform="translate(70.82 28.074)"/>
            <path fill="url(#e)" d="M23.977 100.292l19.959-7.537c.366-.139.653-.418.8-.781.08-.193.114-.396.11-.599-.012-.626-.11-80.045-.11-80.045L25.2 19.894c-1.376-.671-1.99-1.039-3.32-.527v81.23a5.038 5.038 0 0 0 2.097-.305z" transform="translate(70.82 28.074)"/>
            <path fill="url(#f)" d="M1.04 8.19L20.957.575C22.287.06 23.824.152 25.2.823L43.832 9.9c.82.4 1.225 1.362.905 2.15a1.386 1.386 0 0 1-.801.78l-19.96 7.538c-1.296.488-2.786.407-4.131-.224L1.177 11.128C.352 10.741-.068 9.784.24 8.99c.143-.37.43-.657.8-.8z" transform="translate(70.82 28.074)"/>
        </g>
        <g>
            <path fill="url(#d)" d="M20.957 19.711c1.33-.517 2.867-.433 4.243.233l19.537-8.641s.097 58.406.11 59.032a1.51 1.51 0 0 1-.11.6 1.394 1.394 0 0 1-.801.783l-19.96 7.616c-1.296.494-2.786.419-4.131-.207L1.177 70.184a1.792 1.792 0 0 1-1.036-1.51c-.007-.14-.007-37.9 0-58.8l20.816 9.837z" transform="translate(37.356 62.317)"/>
            <path fill="url(#e)" d="M23.977 79.334l19.959-7.616c.366-.14.653-.42.8-.784a1.51 1.51 0 0 0 .11-.599c-.012-.626-.11-59.032-.11-59.032L25.2 19.943c-1.376-.665-1.99-1.03-3.32-.513v60.218c.72.042 1.433-.061 2.097-.314z" transform="translate(37.356 62.317)"/>
            <path fill="url(#f)" d="M1.04 8.336L20.957.64c1.33-.517 2.867-.433 4.243.233l18.632 9.004c.82.397 1.225 1.358.905 2.147a1.394 1.394 0 0 1-.801.783l-19.96 7.617c-1.296.493-2.786.418-4.131-.208L1.177 11.273C.352 10.89-.068 9.933.24 9.14c.143-.371.43-.659.8-.803z" transform="translate(37.356 62.317)"/>
        </g>
        <g>
            <g transform="translate(119.85 35.078)">
                <use fill="#000" filter="url(#g)" xlink:href="#h"/>
                <use fill="#A85DCE" xlink:href="#h"/>
            </g>
            <path fill="#DDA3FF" d="M124.09 94.02l43.763-20.75c1.554-.737 2.584-2.326 2.584-3.987V36.88c0-1.099-.89-1.9-1.988-1.79a2.12 2.12 0 0 0-.695.195l-43.763 20.75c-1.554.737-2.584 2.325-2.584 3.986v32.404c0 1.1.89 1.901 1.988 1.791a2.12 2.12 0 0 0 .696-.195z"/>
            <path fill="#CF84FC" d="M121.407 71.656l49.03-23.11v-8.798l-49.03 23.11z"/>
            <path fill="#FFF" d="M147.09 79.438l20.234-9.504v-1.391l-20.234 9.504z"/>
            <path fill="#FFAF4B" d="M157.985 71.656l9.34-4.395v-2.61l-9.34 4.396z"/>
            <path fill="#FFF" d="M129.19 88.521c1.72-.682 3.113-2.514 3.113-4.091 0-1.578-1.394-2.304-3.113-1.622-1.72.682-3.113 2.514-3.113 4.091 0 1.578 1.394 2.304 3.113 1.622z" opacity=".5"/>
            <path fill="#FFF" d="M133.081 86.965c1.72-.682 3.113-2.514 3.113-4.092 0-1.578-1.394-2.304-3.113-1.622-1.72.682-3.113 2.514-3.113 4.092 0 1.578 1.394 2.304 3.113 1.622z" opacity=".5"/>
        </g>
        <g>
            <g transform="translate(15.073 9.396)">
                <use fill="#000" filter="url(#i)" xlink:href="#j"/>
                <use fill="#FFAF4B" xlink:href="#j"/>
                <path stroke="#FFF" stroke-width="2" d="M50.246 38.96l-5.378 10.02-5.412-5.26-8.382 3.697c-2.251.994-4.344-.16-4.344-2.536V17.242c0-2.021 1.561-4.26 3.537-5.13L58.109-.173c2.251-.993 4.344.16 4.344 2.536v27.64c0 2.02-1.561 4.258-3.537 5.13l-8.67 3.825z"/>
            </g>
            <path stroke="#7243C0" stroke-dasharray="3,5" stroke-linecap="round" stroke-linejoin="round" stroke-width="2" d="M37.456 42.665l-21.848 8.403v64.31"/>
            <g fill="#FFF">
                <path d="M51.07 34.446c0-2.087 1.716-4.492 3.837-5.38 2.121-.888 3.838.082 3.838 2.168 0 2.087-1.717 4.492-3.838 5.38-2.121.888-3.838-.09-3.838-2.168zm5.436-2.275c0-.864-.713-1.267-1.591-.9-.879.368-1.591 1.367-1.591 2.231 0 .865.712 1.267 1.59.9.88-.368 1.592-1.367 1.592-2.231zM55.66 41.515c-.324.512-.91.81-1.304.665-.393-.144-.447-.682-.123-1.194l9.958-15.65c.324-.512.91-.81 1.303-.665.394.144.448.682.124 1.195l-9.958 15.65zM64.944 38.371c-2.122.888-3.838-.082-3.838-2.168 0-2.086 1.716-4.491 3.838-5.379 2.122-.888 3.837.082 3.837 2.168 0 2.086-1.715 4.492-3.837 5.38zm1.591-4.44c0-.863-.712-1.266-1.591-.898s-1.591 1.366-1.591 2.23c0 .865.712 1.267 1.59.9.88-.369 1.592-1.367 1.592-2.231z"/>
            </g>
        </g>
    </g>
</svg>
