<svg xmlns="http://www.w3.org/2000/svg" xmlns:xlink="http://www.w3.org/1999/xlink" width="135" height="203" viewBox="0 0 135 203">
    <defs>
        <path id="b" d="M47.042 34.08l.329 122.244c.015 5.393 3.82 8.326 8.499 6.552l48.263-18.304c4.678-1.775 8.459-7.585 8.444-12.978l-.33-122.245c-.014-5.392-3.82-8.326-8.498-6.551L55.486 21.102c-4.679 1.774-8.46 7.585-8.444 12.977z"/>
        <filter id="a" width="203.8%" height="142.2%" x="-51.9%" y="-19.9%" filterUnits="objectBoundingBox">
            <feOffset dy="2" in="SourceAlpha" result="shadowOffsetOuter1"/>
            <feGaussianBlur in="shadowOffsetOuter1" result="shadowBlurOuter1" stdDeviation="11"/>
            <feColorMatrix in="shadowBlurOuter1" values="0 0 0 0 0.886797664 0 0 0 0 0.946728313 0 0 0 0 1 0 0 0 1 0"/>
        </filter>
        <linearGradient id="c" x1="48.905%" x2="34.221%" y1="108.629%" y2="40.164%">
            <stop offset="0%" stop-color="#D4B6E2"/>
            <stop offset="100%" stop-color="#FDFCFE"/>
        </linearGradient>
        <linearGradient id="d" x1="-220.003%" x2="165.887%" y1="-26.881%" y2="114.611%">
            <stop offset="0%" stop-color="#DBBADB"/>
            <stop offset="100%" stop-color="#D6C7E3"/>
        </linearGradient>
        <radialGradient id="e" cx="81.487%" cy="13.893%" r="114.397%" fx="81.487%" fy="13.893%" gradientTransform="matrix(0 .39909 -1 0 .954 -.186)">
            <stop offset="0%" stop-color="#FFF"/>
            <stop offset="100%" stop-color="#F0F4FC"/>
        </radialGradient>
        <linearGradient id="f" x1="29.341%" x2="83.882%" y1="119.305%" y2="16.091%">
            <stop offset="0%" stop-color="#7243C0"/>
            <stop offset="100%" stop-color="#AC5FCF"/>
        </linearGradient>
        <path id="h" d="M1.27 33.353L89.261.574c.701-.26 1.27.248 1.27 1.137v65.452c0 .888-.569 1.82-1.27 2.082L1.27 102.023c-.7.261-1.269-.248-1.269-1.137V35.435c0-.889.568-1.821 1.27-2.082z"/>
        <filter id="g" width="139.8%" height="135.4%" x="-29.8%" y="-17.7%" filterUnits="objectBoundingBox">
            <feOffset dx="-9" in="SourceAlpha" result="shadowOffsetOuter1"/>
            <feGaussianBlur in="shadowOffsetOuter1" result="shadowBlurOuter1" stdDeviation="4.5"/>
            <feComposite in="shadowBlurOuter1" in2="SourceAlpha" operator="out" result="shadowBlurOuter1"/>
            <feColorMatrix in="shadowBlurOuter1" values="0 0 0 0 0.525490196 0 0 0 0 0.0352941176 0 0 0 0 0.745098039 0 0 0 0.1 0"/>
        </filter>
        <linearGradient id="i" x1="100%" x2="0%" y1="92.338%" y2="92.338%">
            <stop offset="0%" stop-color="#FFF"/>
            <stop offset="20.148%" stop-color="#FFAF4B"/>
            <stop offset="51.787%" stop-color="#874DC5"/>
            <stop offset="79.907%" stop-color="#D36AFF"/>
            <stop offset="100%" stop-color="#FFF" stop-opacity="0"/>
        </linearGradient>
    </defs>
    <g fill="none" fill-rule="evenodd">
        <g transform="translate(0 17.055)">
            <use fill="#000" filter="url(#a)" xlink:href="#b"/>
            <use fill="#FFFFFE" xlink:href="#b"/>
        </g>
        <path fill="url(#c)" d="M46.829 161.114L2.832 135.72a4.5 4.5 0 0 1 .714-8.128l58.523-21.235 44.198 30.438-59.438 24.319z" transform="translate(0 17.055)"/>
        <path fill="url(#d)" d="M100.097.517c2.392-.891 4.56-.593 6.126.61L110.29 3.8c-1.566-1.203-2.971-.453-5.364.438L55.88 22.506c-4.755 1.771-8.597 7.57-8.581 12.952l.334 122.007c.008 2.674.966 4.742 2.511 5.929l-4.83-3.721c-1.545-1.187-2.504-3.255-2.512-5.929L42.47 31.738c-.016-5.383 3.826-11.182 8.58-12.953L100.098.517z" transform="translate(0 17.055)"/>
        <path fill="#FFFFFE" d="M47.042 51.134l.329 122.245c.015 5.393 3.82 8.327 8.499 6.552l48.263-18.304c4.678-1.774 8.459-7.585 8.444-12.977l-.33-122.246c-.014-5.392-3.82-8.326-8.498-6.551L55.486 38.157c-4.679 1.774-8.46 7.585-8.444 12.977z"/>
        <path fill="url(#e)" d="M49.328 34.994l.303 117.463c.014 4.864 3.518 7.51 7.826 5.91l45.058-16.741c4.308-1.6 7.79-6.842 7.776-11.707l-.303-117.462c-.014-4.865-3.518-7.51-7.826-5.91l-45.059 16.74c-4.307 1.602-7.789 6.843-7.775 11.707z" transform="translate(0 17.055)"/>
        <path fill="url(#f)" d="M51.614 145.155l56.39-21.018V19.759l-56.39 21.018z" transform="translate(0 17.055)"/>
        <path fill="#E5A9FC" d="M77.523 159.923l.009 2.942c.005 1.819 1.338 2.808 2.977 2.21l6.251-2.283c1.637-.598 2.961-2.557 2.956-4.375l-.009-2.943c-.005-1.818-1.338-2.807-2.975-2.21l-6.252 2.283c-1.638.598-2.962 2.558-2.957 4.376z"/>
        <g>
            <g opacity=".96" transform="translate(33.6 51.66)">
                <use fill="#000" filter="url(#g)" xlink:href="#h"/>
                <use fill="#FFF" xlink:href="#h"/>
                <path stroke="#F3F4F6" stroke-width=".9" d="M1.426 33.774c-.514.192-.976.95-.976 1.661v65.451c0 .6.285.856.662.715l87.993-32.778c.514-.191.976-.95.976-1.66V1.71c0-.6-.285-.855-.662-.715L1.426 33.774z"/>
            </g>
            <path fill="#D8D8D8" d="M44.358 87.832l8.038-2.994v1.61l-8.038 2.994zM66.952 79.514l8.038-2.994v1.61l-8.038 2.994zM89.008 71.138l8.037-2.994v1.61l-8.037 2.994zM111.601 62.82l8.038-2.994v1.61l-8.038 2.994z"/>
            <path stroke="#232425" stroke-linecap="square" stroke-width=".9" d="M38.979 125.324l79.63-29.663M38.979 116.203l79.63-29.662M38.979 108.156l79.63-29.663M38.979 133.907l79.63-29.662M38.979 143.028l79.63-29.663" opacity=".1"/>
            <path stroke="url(#i)" stroke-linecap="round" stroke-linejoin="round" d="M3.766 76.145c3.627-2.417 6.726-5.605 9.297-9.562 3.856-5.935 4.82-8.636 9.228-6.136 4.407 2.5 5.578-1.179 6.13 3.315.55 4.493 3.993 5.11 4.269 9.206.275 4.096 3.857 6.789 4.27-1.59.413-8.38 1.997-11.541 5.027-13.87 3.03-2.328 2.273 1.553 5.096-.099 2.824-1.651 4.132-10.636 7.231-6.692 3.1 3.944 3.72-.086 7.507-.797 3.788-.711 6.955-3.29 8.953-10.033 1.997-6.742 3.443-8.48 5.096-2.698s3.237 13.79 5.096 10.498c1.86-3.292 2.41-6.396 5.716-.53" opacity=".67" transform="translate(33.6 51.66)"/>
            <path fill="#FFAF4B" d="M73.794 114.17c1.402-.523 2.538-2.387 2.538-4.165s-1.136-2.796-2.538-2.273c-1.402.522-2.538 2.386-2.538 4.164 0 1.778 1.136 2.796 2.538 2.273z" opacity=".5"/>
            <path fill="#FFAF4B" d="M74.003 112.555c.605-.225 1.096-1.031 1.096-1.8 0-.768-.49-1.208-1.096-.982-.606.226-1.097 1.032-1.097 1.8s.49 1.208 1.097.982zM41.112 91.238c.585-.218 1.058-.995 1.058-1.736 0-.74-.473-1.165-1.058-.947-.584.218-1.057.995-1.057 1.735 0 .741.473 1.165 1.057.948zM63.706 82.92c.584-.218 1.058-.995 1.058-1.736 0-.74-.474-1.165-1.058-.947-.584.217-1.058.994-1.058 1.735 0 .74.474 1.165 1.058.947zM86.3 74.601c.584-.217 1.057-.994 1.057-1.735 0-.74-.473-1.165-1.057-.947-.584.217-1.058.994-1.058 1.735 0 .74.474 1.165 1.058.947zM108.355 66.226c.584-.218 1.058-.995 1.058-1.736 0-.74-.474-1.164-1.058-.947-.584.218-1.057.995-1.057 1.735 0 .741.473 1.165 1.057.948z"/>
        </g>
    </g>
</svg>
