<svg xmlns="http://www.w3.org/2000/svg" xmlns:xlink="http://www.w3.org/1999/xlink" width="190" height="195" viewBox="0 0 190 195">
    <defs>
        <path id="b" d="M0 52.33v107.094l5.745 3.878 122.547-53.404c3.713-69.638 5.237-104.71 4.57-105.214-2.037-1.54-5.198-3.52-5.633-3.874a2.855 2.855 0 0 0-2.84-.45L3.68 46.96A5.755 5.755 0 0 0 0 52.33z"/>
        <filter id="a" width="140.6%" height="133.1%" x="-18%" y="-17.8%" filterUnits="objectBoundingBox">
            <feOffset dx="3" dy="-2" in="SourceAlpha" result="shadowOffsetOuter1"/>
            <feGaussianBlur in="shadowOffsetOuter1" result="shadowBlurOuter1" stdDeviation="8.5"/>
            <feColorMatrix in="shadowBlurOuter1" values="0 0 0 0 0.448550725 0 0 0 0 0.00392156863 0 0 0 0 0.6 0 0 0 0.132642663 0"/>
        </filter>
        <linearGradient id="c" x1="41.823%" x2="224.462%" y1="75.684%" y2="88.981%">
            <stop offset="0%" stop-color="#7243C0"/>
            <stop offset="100%" stop-color="#AC5FCF"/>
        </linearGradient>
        <path id="e" d="M134.034 56.661v106.6L5.742 113.736V7.415a3.24 3.24 0 0 1 4.407-3.023l119.738 46.224a6.48 6.48 0 0 1 4.147 6.045z"/>
        <filter id="d" width="142.1%" height="133.9%" x="-18.7%" y="-18.2%" filterUnits="objectBoundingBox">
            <feOffset dx="3" dy="-2" in="SourceAlpha" result="shadowOffsetOuter1"/>
            <feGaussianBlur in="shadowOffsetOuter1" result="shadowBlurOuter1" stdDeviation="8.5"/>
            <feColorMatrix in="shadowBlurOuter1" values="0 0 0 0 0.00392156863 0 0 0 0 0.278431373 0 0 0 0 0.6 0 0 0 0.132642663 0"/>
        </filter>
        <path id="g" d="M28.063 49.64l11.568-5.153c2.09-.931 3.785-3.385 3.785-5.48V3.073c0-2.096-1.694-3.04-3.785-2.108L3.785 16.935C1.695 17.866 0 20.32 0 22.415v35.933c0 2.096 1.695 3.04 3.785 2.108l11.586-5.161 6.366 6.248 6.326-11.903z"/>
        <filter id="f" width="224.4%" height="188.6%" x="-55.3%" y="-47.6%" filterUnits="objectBoundingBox">
            <feOffset dx="3" dy="-2" in="SourceAlpha" result="shadowOffsetOuter1"/>
            <feGaussianBlur in="shadowOffsetOuter1" result="shadowBlurOuter1" stdDeviation="8.5"/>
            <feColorMatrix in="shadowBlurOuter1" values="0 0 0 0 0.457054561 0 0 0 0 0.00392156863 0 0 0 0 0.6 0 0 0 0.132642663 0"/>
        </filter>
        <linearGradient id="h" x1="29.341%" x2="83.882%" y1="119.305%" y2="16.091%">
            <stop offset="0%" stop-color="#7243C0"/>
            <stop offset="100%" stop-color="#AC5FCF"/>
        </linearGradient>
        <path id="i" d="M84.836 32.798L1.658.234C.786-.108.078.517.078 1.628v77.17c0 1.113.708 2.29 1.58 2.632l83.178 32.564c.873.342 1.58-.283 1.58-1.394V35.429c0-1.112-.707-2.29-1.58-2.631z"/>
    </defs>
    <g fill="none" fill-rule="evenodd">
        <g fill-rule="nonzero" transform="translate(14.345 18.328)">
            <use fill="#000" filter="url(#a)" xlink:href="#b"/>
            <use fill="#D9C0DF" fill-rule="evenodd" xlink:href="#b"/>
        </g>
        <path fill="url(#c)" fill-rule="nonzero" d="M132.38 27.596c.63-15.041.79-22.679.481-22.912-2.036-1.54-5.197-3.52-5.632-3.874a2.855 2.855 0 0 0-2.84-.45L3.68 46.96A5.755 5.755 0 0 0 0 52.33v13.018l5.397 1.475L132.38 27.596z" transform="translate(14.345 18.328)"/>
        <g fill-rule="nonzero" transform="matrix(-1 0 0 1 154.12 18.328)">
            <use fill="#000" filter="url(#d)" xlink:href="#e"/>
            <use fill="#FEFEFE" fill-rule="evenodd" xlink:href="#e"/>
        </g>
        <g transform="translate(126.367 53.728)">
            <use fill="#000" filter="url(#f)" xlink:href="#g"/>
            <use fill="#FEFEFE" xlink:href="#g"/>
        </g>
        <path fill="#FFAF4B" d="M148.076 82.533c-1.61.717-2.925 2.623-2.925 4.236 0 1.612 1.316 2.345 2.925 1.629 1.608-.717 2.925-2.623 2.925-4.236 0-1.612-1.317-2.345-2.925-1.629z"/>
        <path fill="#FFAF4B" d="M156.85 81.556c0-4.838-3.948-7.037-8.774-4.887-4.827 2.15-8.775 7.868-8.775 12.706 0 3.225 1.755 5.229 4.387 5.669l1.463-3.144c-1.755-.245-2.925-1.63-2.925-3.682 0-3.225 2.632-7.037 5.85-8.47 3.217-1.433 5.85.033 5.85 3.258 0 2.199-1.17 4.626-2.925 6.288l1.462 1.84c2.633-2.785 4.388-6.352 4.388-9.578z"/>
        <path fill="#FFAF4B" d="M148.076 70.805c-8.044 3.584-14.625 13.113-14.625 21.176 0 5.424 2.925 8.812 7.312 9.35l1.463-3.144c-3.51-.488-5.85-3.258-5.85-7.51 0-6.45 5.265-14.073 11.7-16.94 6.435-2.867 11.7.066 11.7 6.516 0 4.398-2.34 9.106-5.85 12.722l1.462 1.84c4.388-4.446 7.313-10.587 7.313-15.865 0-8.063-6.582-11.728-14.625-8.145z"/>
        <path fill="url(#h)" fill-rule="nonzero" d="M134.034 17.27V7.415a3.24 3.24 0 0 0-4.407-3.023L9.888 50.616a6.48 6.48 0 0 0-4.146 6.045v10.135L134.034 17.27z" transform="translate(14.345 18.328)"/>
        <g>
            <g opacity=".9" transform="matrix(-1 0 0 1 114.939 56.722)">
                <use fill="#FFF" xlink:href="#i"/>
                <path stroke="#F3F4F6" stroke-width="1.08" d="M84.64 33.3L1.46.736C.98.548.62.866.62 1.628v77.17c0 .902.583 1.874 1.236 2.13l83.178 32.564c.482.188.843-.13.843-.892V35.429c0-.9-.584-1.873-1.236-2.129z"/>
            </g>
            <path stroke="#E28DFF" stroke-linecap="square" stroke-width="1.08" d="M41.242 158.185l65.12-25.494M41.242 140.066l65.12-25.493M41.242 121.948l65.12-25.494M41.242 103.83l65.12-25.494" opacity=".2"/>
            <path fill="url(#h)" d="M71.019 79.333l-6.14-2.404v21.253l6.14 2.403zM60.308 47.418l-6.14-2.404V93.73l6.14 2.403zM50.267 63.087l-6.14-2.404V89.55l6.14 2.404zM39.556 70.764l-6.14-2.404v17.495l6.14 2.404zM28.845 58.98l-6.14-2.404v24.785l6.14 2.404z" transform="matrix(-1 0 0 1 114.939 56.722)"/>
            <path fill="#FFAF4B" d="M83.943 101.045L94.789 96.8c.291-.114.527.094.527.465v8.706c0 .37-.236.763-.527.877l-3.873 1.517-1.55 1.966-1.536-.758-3.887 1.522c-.29.113-.527-.095-.527-.465v-8.706c0-.371.236-.764.527-.878z"/>
            <path fill="url(#h)" d="M18.803 72.636l-6.139-2.404v6.998l6.14 2.404z" transform="matrix(-1 0 0 1 114.939 56.722)"/>
            <path fill="#7243C0" d="M40.573 90.746l15.793-6.183v3.355L40.573 94.1zM65.342 80.901l15.793-6.183v3.355l-15.793 6.183zM90.78 71.117l15.793-6.183v3.355L90.78 74.472z"/>
        </g>
    </g>
</svg>
