<?xml version="1.0" encoding="UTF-8"?>
<svg width="167px" height="163px" viewBox="0 0 167 163" version="1.1" xmlns="http://www.w3.org/2000/svg" xmlns:xlink="http://www.w3.org/1999/xlink">
    <!-- Generator: Sketch 47.1 (45422) - http://www.bohemiancoding.com/sketch -->
    <title>il_Build Better Campaigns</title>
    <desc>Created with Sketch.</desc>
    <defs>
        <linearGradient x1="96.1298348%" y1="9.75357191%" x2="-16.3759042%" y2="77.6319816%" id="linearGradient-1">
            <stop stop-color="#F7F1FA" offset="0%"></stop>
            <stop stop-color="#FFFFFF" offset="100%"></stop>
        </linearGradient>
        <linearGradient x1="29.3413945%" y1="119.304558%" x2="83.882271%" y2="16.0908992%" id="linearGradient-2">
            <stop stop-color="#7243C0" offset="0%"></stop>
            <stop stop-color="#AC5FCF" offset="100%"></stop>
        </linearGradient>
        <linearGradient x1="41.8233959%" y1="75.6842301%" x2="224.461971%" y2="88.9807126%" id="linearGradient-3">
            <stop stop-color="#7243C0" offset="0%"></stop>
            <stop stop-color="#AC5FCF" offset="100%"></stop>
        </linearGradient>
        <linearGradient x1="132.798205%" y1="-48.7991857%" x2="-16.3759042%" y2="77.6319816%" id="linearGradient-4">
            <stop stop-color="#EADCF1" offset="0%"></stop>
            <stop stop-color="#FFFFFF" offset="100%"></stop>
        </linearGradient>
    </defs>
    <g id="Page-1" stroke="none" stroke-width="1" fill="none" fill-rule="evenodd">
        <g id="002-Fone-Dynamics---Call-Tracking-Analytics-@2560" transform="translate(-1586.000000, -1114.000000)">
            <g id="Call-Attribution" transform="translate(0.000000, 811.000000)">
                <g id="Group-46" transform="translate(810.000000, 285.000000)">
                    <g id="il_Build-Better-Campaigns" transform="translate(775.000000, 10.923900)">
                        <g id="Group-39" transform="translate(0.853961, 0.000000)">
                            <g id="Group-61">
                                <g id="Group-57" transform="translate(0.538886, 30.436391)">
                                    <path d="M38.0180412,57.9731391 C40.4179962,56.9697987 43.1923095,57.0429933 45.6748688,58.1751489 C69.176356,47.0938578 130.866131,19.2432432 130.866131,19.2432432 C130.866131,19.2432432 131.041716,51.0324013 131.063512,52.1634107 C131.070572,52.5297379 131.007511,52.8989354 130.866131,53.2517453 C130.599522,53.9170577 130.082476,54.438482 129.420572,54.7095435 L43.4668169,91.8113749 C41.1273461,92.7694312 38.4382353,92.7104256 36.0116832,91.6477913 L2.3255878,76.4428385 C1.21488427,75.9564398 0.511533885,74.8827718 0.456755768,73.7654723 C0.444347418,73.5123814 0.444347418,62.6778133 0.456755768,41.2617682 L38.0180412,57.9731391 Z" id="Rectangle-5-Copy" fill="#EADCF1"></path>
                                    <path d="M43.4668169,91.8113749 L129.420572,54.7095435 C130.082476,54.438482 130.599522,53.9170577 130.866131,53.2517453 C131.007511,52.8989354 131.070572,52.5297379 131.063512,52.1634107 C131.041716,51.0324013 130.866131,19.2432432 130.866131,19.2432432 L45.6748688,58.1751489 C43.1923095,57.0429933 42.084316,56.9064557 39.6843611,57.9097961 L39.6843611,92.4850204 C40.9820387,92.5253742 42.2701672,92.301425 43.4668169,91.8113749 Z" id="Combined-Shape" fill="#ECD1FA"></path>
                                    <path d="M2.07875735,38.4352962 L87.9570725,1.19196867 C90.3570275,0.188628252 93.1313407,0.261822869 95.6139001,1.39397851 L129.23425,16.7135291 C130.713396,17.3880842 131.444014,19.1039602 130.866131,20.5460453 C130.599522,21.2113578 130.082476,21.732782 129.420572,22.0038436 L43.4668169,59.105675 C41.1273461,60.0637313 38.4382353,60.0047257 36.0116832,58.9420914 L2.3255878,43.7371386 C0.837489067,43.0854712 0.0805938435,41.3796486 0.635014999,39.9270772 C0.893874897,39.2488698 1.41112189,38.7144121 2.07875735,38.4352962 Z" id="Rectangle-5" fill="url(#linearGradient-1)"></path>
                                    <polyline id="Path-2" stroke="#DCB9F1" points="0.795101461 51.5832815 39.4740756 69.3916111 130.824714 30.5060194"></polyline>
                                    <polyline id="Path-2" stroke="#DCB9F1" points="0.795101461 58.7945092 39.4740756 76.6028389 130.824714 37.7172471"></polyline>
                                    <polyline id="Path-2" stroke="#DCB9F1" points="0.795101461 66.9071405 39.4740756 84.7154701 130.824714 45.8298784"></polyline>
                                    <polygon id="Path-18" fill="url(#linearGradient-2)" points="34.8121221 23.6530711 79.592648 43.3565025 79.592648 76.6028389 105.565353 64.851155 105.565353 31.7135658 61.6804376 12.0101344"></polygon>
                                    <polygon id="Path-18" fill="url(#linearGradient-3)" points="79.592648 43.3565025 79.592648 76.6028389 105.565353 64.851155 105.565353 31.7135658"></polygon>
                                </g>
                            </g>
                        </g>
                        <g id="Group-28" transform="translate(26.882319, 115.355923)" stroke="#7243C0" stroke-width="2" stroke-linecap="round" stroke-linejoin="round" stroke-dasharray="3,5">
                            <path d="M49.3589645,0.763472637 L3.69964555,20.8013577 L3.69964555,20.8013577 C1.20748079,21.8950602 0.0738031241,24.80198 1.16750562,27.2941448 C1.66283179,28.4228196 2.56314798,29.324892 3.69085531,29.8224168 L3.69085531,29.8224168 L3.69085531,29.8224168 C10.2159022,32.7011538 17.6534016,32.6895556 24.1694384,29.790482 L42.788142,21.5067672 L42.788142,21.5067672 C50.4621172,18.0925111 59.2094615,18.0190421 66.9397027,21.3039182 L66.9397027,21.3039182 L66.9397027,21.3039182 C69.804821,22.5214168 71.1404806,25.8310318 69.9229819,28.69615 C69.3562352,30.0298651 68.2975959,31.0940691 66.9668705,31.6678004 L59.7018216,34.8000661 L59.7018216,34.8000661 C55.255946,36.7168685 53.2057272,41.8748381 55.1225296,46.3207136 C55.9949139,48.3441419 57.5973136,49.9648259 59.610714,50.8601109 L59.610714,50.8601109" id="Path-22"></path>
                        </g>
                        <path d="M87.2416233,169.344439 C81.773109,165.213481 79.0388518,161.637914 79.0388518,158.617737 C79.0388518,154.087472 82.7113577,150.414966 87.2416233,150.414966 C91.771889,150.414966 95.4443949,154.087472 95.4443949,158.617737 C95.4443949,161.637914 92.7101377,165.213481 87.2416233,169.344439 Z M87.2416233,161.772649 C89.3325152,161.772649 91.0275179,160.077647 91.0275179,157.986755 C91.0275179,155.895863 89.3325152,154.20086 87.2416233,154.20086 C85.1507315,154.20086 83.4557288,155.895863 83.4557288,157.986755 C83.4557288,160.077647 85.1507315,161.772649 87.2416233,161.772649 Z" id="Combined-Shape" fill="#FFAF4B"></path>
                        <path d="M77.0130661,117.466206 C71.5445517,113.335248 68.8102945,109.759681 68.8102945,106.739504 C68.8102945,102.209239 72.4828004,98.5367327 77.0130661,98.5367327 C81.5433317,98.5367327 85.2158376,102.209239 85.2158376,106.739504 C85.2158376,109.759681 82.4815805,113.335248 77.0130661,117.466206 Z M77.0130661,109.894416 C79.1039579,109.894416 80.7989606,108.199414 80.7989606,106.108522 C80.7989606,104.01763 79.1039579,102.322627 77.0130661,102.322627 C74.9221742,102.322627 73.2271715,104.01763 73.2271715,106.108522 C73.2271715,108.199414 74.9221742,109.894416 77.0130661,109.894416 Z" id="Combined-Shape-Copy" fill="#FFAF4B"></path>
                        <g id="Group-31" transform="translate(90.994308, 113.576837)">
                            <path d="M0.00217332371,10.4840158 C0.0730284126,12.4053984 1.87640623,14.3178371 5.41230677,15.7839422 C12.6287158,18.7761118 24.3288265,18.7761118 31.5452356,15.7839422 C35.0811361,14.3178371 36.8845139,12.4053984 36.955369,10.4840158 L36.9575423,7.41924396 L35.5413513,7.41924396 C34.6397797,6.52082475 33.3077411,5.67913259 31.5452356,4.94833761 C24.3288265,1.95616802 12.6287158,1.95616802 5.41230677,4.94833761 C3.64980122,5.67913259 2.31776265,6.52082475 1.41619107,7.41924396 L0,7.41924396 L0,10.4840158 L0.00217332371,10.4840158 Z" id="Combined-Shape" fill="#D4B6E2"></path>
                            <ellipse id="Oval-11" fill="#EADCF1" cx="18.4787712" cy="7.66192951" rx="18.4787712" ry="7.66192951"></ellipse>
                        </g>
                        <g id="Group-30" transform="translate(103.613957, 12.619649)">
                            <polygon id="Rectangle-12" fill="#D4B6E2" points="0 108.756731 0 1.39790713 10.8168417 1.39790713 10.8168417 108.711331 5.40842083 110.595543"></polygon>
                            <polygon id="Rectangle-12" fill="url(#linearGradient-4)" points="5.40842083 1.39790713 10.8168417 1.39790713 10.8168417 108.711331 5.40842083 110.595543"></polygon>
                            <polygon id="Rectangle-12" fill="#EADCF1" points="0 1.35210521 5.40842083 0 10.8168417 1.35210521 5.40842083 2.70421041"></polygon>
                        </g>
                        <g id="Group-33" transform="translate(114.430799, 7.211228)">
                            <polygon id="Rectangle-13" fill="url(#linearGradient-2)" points="17.126666 12.6462841 52.6609484 0 52.6609484 38.7603493 17.126666 51.4066333"></polygon>
                            <polygon id="Path-24" fill="#542E94" points="35.8156143 38.8394627 17.4080971 51.1064779 17.4080971 43.0461529 31.5443082 36.7670932"></polygon>
                            <polygon id="Rectangle-13" fill="url(#linearGradient-2)" points="0 12.6462841 35.5342825 0 35.5342825 38.7603493 0 51.4066333"></polygon>
                        </g>
                    </g>
                </g>
            </g>
        </g>
    </g>
</svg>