<svg xmlns="http://www.w3.org/2000/svg" width="91" height="95" viewBox="0 0 91 95">
    <defs>
        <linearGradient id="a" x1="50%" x2="50%" y1="128.815%" y2="-12.325%">
            <stop offset="0%" stop-color="#B2DDFC"/>
            <stop offset="100%" stop-color="#ECF5FD"/>
        </linearGradient>
        <linearGradient id="b" x1="86.213%" x2="22.277%" y1="13.901%" y2="95.402%">
            <stop offset="0%" stop-color="#E6F2FD"/>
            <stop offset="100%" stop-color="#DCEDFD"/>
        </linearGradient>
        <linearGradient id="c" x1="12.681%" x2="148.585%" y1="77.509%" y2="142.667%">
            <stop offset="0%" stop-color="#1695F7"/>
            <stop offset="100%" stop-color="#48EBEA"/>
        </linearGradient>
        <linearGradient id="d" x1="100%" x2="22.277%" y1="-13.447%" y2="95.402%">
            <stop offset="0%" stop-color="#80F2F1"/>
            <stop offset="100%" stop-color="#26AEF3"/>
        </linearGradient>
    </defs>
    <g fill="none" fill-rule="evenodd">
        <path fill="url(#a)" d="M86.123 83.019l-66.05-24.685a6 6 0 0 1-3.9-5.62l-2-48.182c0-.94 2.432-2.454 3.108-3.004a2.988 2.988 0 0 1 2.943-.482l66.05 24.685a6 6 0 0 1 3.9 5.62v48.857c0 .963-.454 1.82-1.16 2.37-.508.395-3.147 1.954-3.84 1.954-.36 0 1.285-1.388.95-1.513z"/>
        <path fill="url(#b)" d="M84.123 85.019l-66.05-24.685a6 6 0 0 1-3.9-5.62V5.855a3 3 0 0 1 4.05-2.81l66.05 24.685a6 6 0 0 1 3.9 5.62v48.857a3 3 0 0 1-4.05 2.81z"/>
        <path fill="url(#c)" d="M72.95 92.486L6.9 67.802a6 6 0 0 1-3.9-5.62L1 14c0-.94 2.432-2.454 3.107-3.004a2.988 2.988 0 0 1 2.943-.482L73.1 35.198a6 6 0 0 1 3.9 5.62v48.858c0 .963-.454 1.82-1.16 2.37C75.334 92.44 72.695 94 72 94c-.359 0 1.286-1.388.95-1.514z"/>
        <path fill="url(#d)" d="M69.95 94.162L3.9 69.478a6 6 0 0 1-3.9-5.62V15a3 3 0 0 1 4.05-2.81L70.1 36.875a6 6 0 0 1 3.9 5.62v48.857a3 3 0 0 1-4.05 2.81z"/>
        <path stroke="#FFF" stroke-linecap="round" stroke-linejoin="round" stroke-width="3" d="M25.082 61.244c6.777 9.276 17.764 13.33 24.54 9.052 6.777-4.276 6.777-15.263 0-24.54-2.951-4.04-6.702-7.09-10.556-8.892-4.993-2.335-10.159-2.574-13.984-.16-6.776 4.276-6.776 15.263 0 24.54z"/>
    </g>
</svg>
