<svg xmlns="http://www.w3.org/2000/svg" width="90" height="93" viewBox="0 0 90 93">
    <defs>
        <linearGradient id="a" x1="50%" x2="50%" y1="128.815%" y2="-12.325%">
            <stop offset="0%" stop-color="#B2DDFC"/>
            <stop offset="100%" stop-color="#ECF5FD"/>
        </linearGradient>
        <linearGradient id="b" x1="86.213%" x2="22.277%" y1="13.901%" y2="95.402%">
            <stop offset="0%" stop-color="#E6F2FD"/>
            <stop offset="100%" stop-color="#DCEDFD"/>
        </linearGradient>
        <linearGradient id="c" x1="12.681%" x2="148.585%" y1="77.509%" y2="142.667%">
            <stop offset="0%" stop-color="#1695F7"/>
            <stop offset="100%" stop-color="#48EBEA"/>
        </linearGradient>
        <linearGradient id="d" x1="100%" x2="22.277%" y1="-13.447%" y2="95.402%">
            <stop offset="0%" stop-color="#80F2F1"/>
            <stop offset="100%" stop-color="#26AEF3"/>
        </linearGradient>
    </defs>
    <g fill="none" fill-rule="evenodd">
        <path fill="url(#a)" d="M85.95 82.48L19.9 57.7a6.022 6.022 0 0 1-3.9-5.642L14 3.69c0-.943 2.432-2.463 3.107-3.015A2.98 2.98 0 0 1 20.05.19L86.1 24.97a6.022 6.022 0 0 1 3.9 5.642v49.046a3.01 3.01 0 0 1-1.16 2.379C88.334 82.435 85.695 84 85 84c-.359 0 1.286-1.394.95-1.52z"/>
        <path fill="url(#b)" d="M83.95 83.811L17.9 59.231a5.975 5.975 0 0 1-3.9-5.595V4.987A2.994 2.994 0 0 1 17 2c.359 0 .714.064 1.05.189l66.05 24.58a5.975 5.975 0 0 1 3.9 5.595v48.649A2.994 2.994 0 0 1 85 84c-.359 0-.714-.064-1.05-.189z"/>
        <path fill="url(#c)" d="M72.95 91.48L6.9 66.7A6.022 6.022 0 0 1 3 61.058L1 12.69c0-.943 2.432-2.463 3.107-3.015A2.98 2.98 0 0 1 7.05 9.19L73.1 33.97a6.022 6.022 0 0 1 3.9 5.642v49.046a3.01 3.01 0 0 1-1.16 2.379C75.334 91.435 72.695 93 72 93c-.359 0 1.286-1.394.95-1.52z"/>
        <path fill="url(#d)" d="M69.95 92.811L3.9 68.231A5.975 5.975 0 0 1 0 62.637V13.987A2.994 2.994 0 0 1 3 11c.359 0 .714.064 1.05.189l66.05 24.58a5.975 5.975 0 0 1 3.9 5.595v48.649A2.994 2.994 0 0 1 71 93c-.359 0-.714-.064-1.05-.189z"/>
        <g stroke="#FFF" stroke-width="3">
            <path d="M33 49.562c3.866 1.343 7-.505 7-4.129 0-3.624-3.134-7.65-7-8.995-3.866-1.343-7 .505-7 4.129 0 3.624 3.134 7.65 7 8.995z"/>
            <path stroke-linecap="round" stroke-linejoin="round" d="M22 63.746c0-6.146 5.149-9.281 11.5-7.002C39.851 59.023 45 65.854 45 72"/>
        </g>
    </g>
</svg>
