<svg xmlns="http://www.w3.org/2000/svg" xmlns:xlink="http://www.w3.org/1999/xlink" width="156" height="179" viewBox="0 0 156 179">
    <defs>
        <linearGradient id="a" x1="50%" x2="91.508%" y1="12.697%" y2="109.345%">
            <stop offset="0%" stop-color="#48C7FF"/>
            <stop offset="100%" stop-color="#1F7DC2"/>
        </linearGradient>
        <path id="b" d="M7.782 56.704l114.54-53.447c1.2-.552 2.174.238 2.174 1.764v105.956c0 1.526-.973 3.228-2.175 3.8L7.781 170.204c-1.2.59-2.174-.192-2.174-1.747V60.55c0-1.555.973-3.276 2.175-3.845z"/>
        <path id="d" d="M1.277 30.57L62.095.36c.638-.317 1.155.077 1.155.88v55.766c0 .803-.517 1.711-1.155 2.028L1.277 89.245c-.638.316-1.155-.078-1.155-.881V32.599c0-.804.517-1.712 1.155-2.029z"/>
        <filter id="c" width="141.2%" height="129.2%" x="-20.6%" y="-12.3%" filterUnits="objectBoundingBox">
            <feOffset dy="2" in="SourceAlpha" result="shadowOffsetOuter1"/>
            <feGaussianBlur in="shadowOffsetOuter1" result="shadowBlurOuter1" stdDeviation="4"/>
            <feColorMatrix in="shadowBlurOuter1" values="0 0 0 0 0.0941176471 0 0 0 0 0.305882353 0 0 0 0 0.51372549 0 0 0 0.15 0"/>
        </filter>
        <path id="f" d="M27.993 47.993l11.344-5.041c2.05-.911 3.712-3.311 3.712-5.361V2.444c0-2.05-1.662-2.973-3.712-2.062l-35.15 15.62c-2.05.91-3.712 3.311-3.712 5.36V56.51c0 2.05 1.661 2.973 3.711 2.062l11.361-5.049 6.243 6.112 6.203-11.642z"/>
        <filter id="e" width="203.3%" height="173.8%" x="-63.4%" y="-36.9%" filterUnits="objectBoundingBox">
            <feOffset dx="-5" in="SourceAlpha" result="shadowOffsetOuter1"/>
            <feGaussianBlur in="shadowOffsetOuter1" result="shadowBlurOuter1" stdDeviation="6.5"/>
            <feColorMatrix in="shadowBlurOuter1" values="0 0 0 0 0.0352941176 0 0 0 0 0.505882353 0 0 0 0 0.745098039 0 0 0 0.2 0"/>
        </filter>
    </defs>
    <g fill="none" fill-rule="evenodd">
        <path fill="url(#a)" d="M2.714 54.177L117.254.73c.558-.257 1.067-.224 1.453.039.232.159 2.655 1.34 4.903 2.543 1.356.726-.038 35.772-4.181 105.138 0 1.526-.974 3.228-2.175 3.8L6.757 170.159c-.584.286-5.157-2.233-5.548-2.526-.413-.31-.67-.904-.67-1.703V58.022c0-1.555.974-3.276 2.175-3.845z"/>
        <g>
            <use fill="#FFF" xlink:href="#b"/>
            <path stroke="#F3F4F6" stroke-width=".96" d="M7.986 57.138c-1.024.486-1.9 2.034-1.9 3.411v107.907c0 1.227.632 1.735 1.486 1.315l114.543-55.426c1.026-.49 1.901-2.02 1.901-3.368V5.02c0-1.202-.64-1.721-1.492-1.33L7.986 57.139z"/>
        </g>
        <path fill="#FFF" d="M16.022 70.747l98.672-46.734c.786-.372 1.423.124 1.423 1.11v72.51c0 .985-.637 2.085-1.423 2.458l-98.672 46.733c-.786.372-1.423-.124-1.423-1.109V73.204c0-.985.637-2.085 1.423-2.457z"/>
        <path fill="#0DDF83" d="M26.663 72.747l9.014-4.27v1.784l-9.014 4.269zM51.999 60.856l9.013-4.269v1.783L52 62.639zM76.731 48.965l9.014-4.269v1.783l-9.014 4.27zM102.067 37.074l9.013-4.269v1.784l-9.013 4.268z"/>
        <path stroke="#47C4FD" stroke-linecap="square" d="M20.631 114.92l89.294-42.293M20.631 104.815l89.294-42.292M20.631 95.9l89.294-42.292M20.631 124.429l89.294-42.292M20.631 134.533l89.294-42.292" opacity=".2"/>
        <path stroke="#0DDF83" stroke-linecap="round" stroke-linejoin="round" d="M18.821 117.595c6.407-4.64 11.882-9.848 16.424-15.623 6.812-8.662 8.515-12.176 16.301-11.791 7.786.385 9.854-4.324 10.827.356.974 4.68 7.056 3.5 7.543 7.89.486 4.389 6.812 5.434 7.542-4.072.73-9.507 3.528-13.866 8.881-18.085 5.353-4.22 4.015.49 9.002-2.867 4.988-3.357 7.3-14.02 12.774-11.326"/>
        <path fill="url(#a)" d="M45.671 67.917c1.572-.744 2.846-2.944 2.846-4.914 0-1.97-1.274-2.963-2.846-2.218-1.572.744-2.846 2.945-2.846 4.914 0 1.97 1.274 2.963 2.846 2.218z" opacity=".34" transform="translate(14 23.832)"/>
        <path fill="url(#a)" d="M45.905 66.104c.68-.322 1.23-1.272 1.23-2.124 0-.85-.55-1.28-1.23-.958-.68.322-1.23 1.273-1.23 2.124 0 .85.55 1.28 1.23.958zM9.023 53.071c.655-.31 1.186-1.227 1.186-2.047 0-.821-.53-1.235-1.186-.925-.655.31-1.185 1.227-1.185 2.048 0 .82.53 1.234 1.185.924zM34.36 41.18c.654-.31 1.185-1.227 1.185-2.047 0-.82-.53-1.235-1.186-.924-.655.31-1.186 1.227-1.186 2.047 0 .82.531 1.235 1.186.924zM59.695 29.29c.655-.31 1.186-1.227 1.186-2.048 0-.82-.531-1.234-1.186-.924-.655.31-1.186 1.227-1.186 2.047 0 .821.53 1.235 1.186.925z" transform="translate(14 23.832)"/>
        <path fill="#8E4EFB" d="M98.427 41.231c.655-.31 1.186-1.227 1.186-2.047 0-.821-.53-1.235-1.186-.925-.655.31-1.186 1.227-1.186 2.048 0 .82.531 1.234 1.186.924z"/>
        <g>
            <g transform="translate(84 52.86)">
                <use fill="#000" filter="url(#c)" xlink:href="#d"/>
                <use fill="#FFF" xlink:href="#d"/>
            </g>
            <path fill="#0DDF83" d="M131.146 84.14l7.505-4.072c.202-.11.365.032.365.315v6.658c0 .283-.163.602-.365.71l-2.68 1.455-1.072 1.621-1.063-.463-2.69 1.46c-.201.108-.364-.033-.364-.316V84.85c0-.283.163-.602.364-.71zM93.728 83.937l10.979-5.654v2.413L93.728 86.35zM111.569 75.115l10.978-5.653v2.413L111.57 77.53zM129.41 66.294l10.978-5.654v2.414l-10.979 5.654z"/>
            <path fill="url(#a)" d="M9.729 65.385l10.978-5.654v16.137L9.73 81.522zM27.57 38.723l10.978-5.654v33.978l-10.979 5.654zM45.41 43.625l10.978-5.653v20.254L45.41 63.88z" transform="translate(84 52.86)"/>
        </g>
        <g>
            <g opacity=".96" transform="translate(24.902 107.918)">
                <use fill="#000" filter="url(#e)" xlink:href="#f"/>
                <use fill="#68D75A" xlink:href="#f"/>
            </g>
            <path fill="#FFF" d="M46.664 154.972c7.37-3.488 13.344-13.28 13.344-21.873 0-8.592-5.975-12.73-13.344-9.241-7.37 3.488-13.344 13.28-13.344 21.873 0 8.592 5.974 12.73 13.344 9.241z"/>
            <path stroke="#6ED860" stroke-linecap="round" stroke-linejoin="round" stroke-width="4" d="M40.088 142.274l5.826 6.658 9.155-18.309"/>
        </g>
    </g>
</svg>
