<svg xmlns="http://www.w3.org/2000/svg" xmlns:xlink="http://www.w3.org/1999/xlink" width="423" height="523" viewBox="0 0 423 523">
    <defs>
        <linearGradient id="a" x1="60.037%" x2="31.09%" y1="78.894%" y2="17.347%">
            <stop offset="0%" stop-color="#91C6FF"/>
            <stop offset="100%" stop-color="#FEFEFE" stop-opacity="0"/>
        </linearGradient>
        <linearGradient id="b" x1="50%" x2="50%" y1="-20.73%" y2="81.791%">
            <stop offset="0%" stop-color="#FFFFFE"/>
            <stop offset="100%" stop-color="#DFE9F5"/>
        </linearGradient>
        <linearGradient id="c" x1="50%" x2="50%" y1="-20.73%" y2="81.791%">
            <stop offset="0%" stop-color="#FFFFFE"/>
            <stop offset="100%" stop-color="#EBF1F9"/>
        </linearGradient>
        <linearGradient id="d" x1="13.587%" x2="127.623%" y1="100%" y2="-11.252%">
            <stop offset="0%" stop-color="#014C9E"/>
            <stop offset="100%" stop-color="#2A90D2"/>
        </linearGradient>
        <linearGradient id="e" x1="238.493%" x2="22.277%" y1="-53.577%" y2="95.402%">
            <stop offset="0%" stop-color="#80F2F1"/>
            <stop offset="100%" stop-color="#26AEF3"/>
        </linearGradient>
        <path id="g" d="M325.943 378.956l10.842-4.243c1.96-.767 3.548-2.977 3.548-4.937V336.18c0-1.96-1.588-2.926-3.548-2.159l-33.596 13.15c-1.96.767-3.547 2.977-3.547 4.936v33.596c0 1.96 1.588 2.926 3.547 2.16l10.859-4.25 5.966 6.157 5.93-10.814z"/>
        <filter id="f" width="215.5%" height="183.9%" x="-57.8%" y="-38.4%" filterUnits="objectBoundingBox">
            <feOffset dy="2" in="SourceAlpha" result="shadowOffsetOuter1"/>
            <feGaussianBlur in="shadowOffsetOuter1" result="shadowBlurOuter1" stdDeviation="7.5"/>
            <feComposite in="shadowBlurOuter1" in2="SourceAlpha" operator="out" result="shadowBlurOuter1"/>
            <feColorMatrix in="shadowBlurOuter1" values="0 0 0 0 0.862745098 0 0 0 0 0.917647059 0 0 0 0 0.984313725 0 0 0 1 0"/>
        </filter>
        <linearGradient id="h" x1="10.559%" x2="104.474%" y1="54.152%" y2="73.889%">
            <stop offset="0%" stop-color="#EDF5FF"/>
            <stop offset="100%" stop-color="#C6E0FD"/>
        </linearGradient>
        <linearGradient id="i" x1="50%" x2="50%" y1="114.61%" y2="74.894%">
            <stop offset="0%" stop-color="#4AA249"/>
            <stop offset="100%" stop-color="#75DA69"/>
        </linearGradient>
    </defs>
    <g fill="none" fill-rule="evenodd">
        <path fill="url(#a)" d="M229.153 515.95L.376 449.05l179.222-60.29 225.473 58.226z" transform="translate(-65)"/>
        <path stroke="#99D6F0" d="M25.128 143.393V219.5l76.108-29.125v-76.108l-76.108 29.125zm0-.754l76.108-29.124V89.14l.753 24.085 76.108-29.124V59.728l.754 24.085 76.108-29.124V30.315l.753 24.085 76.108-29.124V.902l.754 24.085 24.374-9.327-24.374 10.08v76.109l24.374-9.327-24.374 10.08v76.108l24.374-9.327-24.374 10.08v76.109l24.374-9.327-24.374 10.08v76.108l24.374-9.327-24.374 10.08v24.375l-.754-24.086-76.108 29.125v24.374l-.753-24.086-76.108 29.125v24.374l-.754-24.086-76.108 29.125V445.8l-.753-24.086-76.108 29.125v24.374l-.754-24.086L0 460.454l24.374-10.08v-76.108L0 383.593l24.374-10.081v-76.108L0 306.731l24.374-10.08v-76.108L0 229.87l24.374-10.081v-76.108L0 153.008l24.374-10.08v-24.375l.754 24.086zM331.82 26.03l-76.108 29.125v76.108l76.108-29.125V26.03zm-76.861 29.413L178.85 84.567v76.108l76.108-29.125V55.442zm-76.862 29.413L101.99 113.98v76.108l76.108-29.125V84.855zM25.127 296.362l76.109-29.124V191.13l-76.108 29.124v76.108zM331.82 102.891l-76.108 29.124v76.108L331.82 179V102.89zm-76.861 29.413l-76.108 29.124v76.108l76.108-29.124v-76.108zm-152.97 58.537v76.108l76.108-29.124v-76.108L101.99 190.84zM25.128 373.224l76.108-29.125v-76.108l-76.108 29.125v76.108zm230.584-164.347v76.108l76.108-29.125v-76.108l-76.108 29.125zm-76.861 29.413v76.108l76.108-29.125v-76.108L178.85 238.29zm-76.862 29.413v76.108l76.108-29.125v-76.108l-76.108 29.125zM25.128 373.977v76.108l76.108-29.124v-76.108l-76.108 29.124zm230.584-88.239v76.108l76.108-29.124v-76.108l-76.108 29.124zm-.753.289L178.85 315.15v76.108l76.108-29.124v-76.108zm-152.97 58.537v76.108l76.108-29.124V315.44l-76.108 29.124z" opacity=".4"/>
        <path fill="#D5E3F4" d="M311.318 51.632c6.82-2.58 13-1.714 17.462 1.767l11.291 6.649c-4.462-3.482-8.164-.222-14.984 2.358l-139.813 52.893c-13.553 5.127-24.506 21.917-24.462 37.499l.952 353.242c.015 5.16 2.463 9.84 7.344 14.039l-13.953-7.647c-4.406-3.436-7.138-9.424-7.16-17.165l-.952-353.242c-.044-15.583 10.908-32.373 24.461-37.5l139.814-52.893z"/>
        <path fill="#43576D" fill-rule="nonzero" d="M153.705 350.233v.596a1.115 1.115 0 0 1-2.23 0v-.596a1.115 1.115 0 1 1 2.23 0z"/>
        <path fill="#FFFFFE" fill-rule="nonzero" d="M158.635 170.855l-11.574-3.304v-3.303l11.574 3.303zM159.461 484.7l-11.574-3.303v-3.304l11.574 3.303z"/>
        <path fill="#91A7C3" d="M320.83 57.414c6.82-2.58 13-1.715 17.462 1.766l5.083 4.03c-4.462-3.482-10.643-4.347-17.462-1.767l-139.814 52.893c-13.553 5.127-24.506 21.917-24.461 37.5l.951 353.242c.023 7.74 2.754 12.076 7.16 15.513l-5.082-2.377c-4.406-3.437-7.138-9.424-7.16-17.166l-.952-353.241c-.044-15.583 10.908-32.373 24.461-37.5L320.83 57.414z"/>
        <path fill="#EBF1F9" d="M158.481 148.632l.953 353.242c.044 15.583 11.068 24.059 24.62 18.932l139.815-52.893c13.553-5.127 24.505-21.917 24.461-37.5l-.952-353.24c-.044-15.583-11.069-24.06-24.621-18.933l-139.814 52.893c-13.553 5.127-24.505 21.917-24.462 37.5z"/>
        <path fill="#FFFFFE" d="M167.494 151.622l.866 341.815c.04 14.155 10.055 21.855 22.366 17.197l128.775-48.716c12.313-4.658 22.262-19.91 22.222-34.066l-.865-341.815c-.04-14.155-10.055-21.855-22.367-17.197l-128.775 48.716c-12.311 4.659-22.261 19.91-22.222 34.066z"/>
        <path fill="url(#b)" d="M324.968 476.15c6.498-2.539 11.765-11.294 11.765-19.557 0-8.263-5.267-12.904-11.765-10.366-6.498 2.538-11.766 11.293-11.766 19.556 0 8.263 5.268 12.904 11.766 10.366z" transform="translate(-65)"/>
        <path fill="url(#c)" d="M323.947 475.054c6.16-2.406 11.154-10.706 11.154-18.54 0-7.833-4.994-12.233-11.154-9.827-6.16 2.406-11.155 10.706-11.155 18.54 0 7.833 4.994 12.233 11.155 9.827z" transform="translate(-65)"/>
        <path fill="url(#d)" d="M239.637 469.542V166.495l161.305-61.022V408.52z" transform="translate(-65)"/>
        <path fill="#FEFEFE" d="M179.807 457.874l150.965-57.11V282.322l-150.965 57.11z" opacity=".2"/>
        <path fill="#1064B1" fill-rule="nonzero" d="M416.996 330.588v82.26c0 5.36-4.219 11.198-9.219 13.111l-100.52 41.729c-2.914 1.114-7.77-1.694-9.45-3.208-1.292-1.165-2.06-2.978-2.06-5.239v-83.34l120.24-46.007a.743.743 0 0 1 1.01.694z"/>
        <path fill="#1064B1" fill-rule="nonzero" d="M295.746 375.82l60.625 32.2 65.854-75.892-60.95-23.654z"/>
        <path fill="url(#e)" fill-rule="nonzero" d="M487.14 332.082v83.34c0 5.36-4.218 11.199-9.218 13.112l-102.812 39.34c-5.157 1.972-9.22-.86-9.22-6.058v-83.34l121.25-46.394z" transform="translate(-65)"/>
        <path fill="#146BB6" fill-rule="nonzero" d="M300.89 378.392l60.626 32.2 60.625-78.503-60.625-22.166z"/>
        <path fill="#FFF" fill-rule="nonzero" d="M312.083 337.623v46.28l49.9 27.21 49.898-65.68v-46.28z"/>
        <path fill="#298FD1" fill-rule="nonzero" d="M303.658 467.464c2.311.914 4.21 1.086 5.697.516l103.388-39.615c2.514-.963 3.393-1.663 5.121-4.448l-46.089-25.976-9.327 14.113-11.769-7.107-47.336 61.372a.743.743 0 0 0 .315 1.145z"/>
        <path fill="url(#e)" fill-rule="nonzero" d="M368.908 467.875c2.235.513 4.05.504 5.447-.027l103.388-39.3c2.514-.955 4.871-2.996 6.6-5.29l-51.38-22.848c-4.085-1.72-9.742.43-13.827 5.255l-50.634 61.01a.743.743 0 0 0 .406 1.2z" transform="translate(-65)"/>
        <path fill="#68D75A" fill-rule="nonzero" d="M399.756 322.025l-30.378 11.691v9.788l30.378-11.691z"/>
        <path fill="#E6E9EE" fill-rule="nonzero" d="M399.756 335.197l-77.413 29.792v5.019l77.413-29.793zM399.756 347.427l-77.413 29.793v5.019l77.413-29.793z"/>
        <path fill="#43576D" d="M190.142 103.136l-.438-.519c-.164-.368-.012-.715.444-.89.676-.257 1.765-.04 2.438.486.45.352.596.754.432 1.058-.077.145-.225.267-.444.35-.673.251-1.765.037-2.432-.485zM279.653 68.41l-.878-1.04c-.328-.739-.025-1.433.89-1.783 1.354-.515 3.537-.08 4.885.972.903.706 1.194 1.512.866 2.12-.155.291-.451.535-.89.701-1.349.505-3.537.076-4.873-.97z"/>
        <path fill="#D5E3F4" d="M243.852 121.11c.005 1.75 1.239 1.879 2.762 1.302l29.764-11.26c1.523-.576 2.755-1.638 2.75-3.389-.005-1.75-1.244-1.872-2.767-1.296l-29.766 11.26c-1.523.577-2.748 1.631-2.743 3.382zM227.684 127.094c.005 1.751 1.239 1.88 2.762 1.304l6.29-2.38c1.523-.575 2.753-1.638 2.748-3.388-.005-1.75-1.243-1.873-2.766-1.296l-6.29 2.38c-1.524.575-2.75 1.63-2.744 3.38z"/>
        <path fill="#FEFEFE" d="M283.497 319.643l-148.908 56.06v69.573l148.908-56.059z"/>
        <g opacity=".9" transform="translate(-65)">
            <use fill="#000" filter="url(#f)" xlink:href="#g"/>
            <use fill="#FFF" xlink:href="#g"/>
            <path stroke="#F3F4F6" d="M319.902 388.935l5.69-10.378 11.011-4.31c1.772-.694 3.23-2.722 3.23-4.47V336.18c0-1.593-1.222-2.337-2.866-1.693l-33.595 13.15c-1.772.693-3.23 2.722-3.23 4.47v33.596c0 1.593 1.222 2.337 2.865 1.694l11.168-4.372 5.727 5.91z"/>
        </g>
        <path fill="#68D75A" d="M254.987 359.16c-1.508.59-2.741 2.306-2.741 3.814s1.233 2.259 2.741 1.669c1.508-.59 2.742-2.307 2.742-3.815s-1.234-2.258-2.742-1.668z"/>
        <path fill="#68D75A" d="M263.212 358.682c0-4.523-3.701-6.776-8.225-5.005-4.523 1.77-8.224 6.92-8.224 11.443 0 3.016 1.645 4.976 4.112 5.519l1.37-2.867c-1.644-.316-2.74-1.669-2.74-3.588 0-3.015 2.467-6.448 5.482-7.629 3.016-1.18 5.483.322 5.483 3.337 0 2.056-1.096 4.267-2.741 5.734l1.37 1.793c2.468-2.473 4.113-5.721 4.113-8.737z"/>
        <path fill="#68D75A" d="M254.987 348.194c-7.539 2.95-13.707 11.533-13.707 19.072 0 5.072 2.742 8.385 6.854 9.106l1.37-2.867c-3.29-.631-5.482-3.337-5.482-7.312 0-6.03 4.934-12.897 10.965-15.257 6.031-2.361 10.966.642 10.966 6.673 0 4.112-2.193 8.397-5.483 11.604l1.37 1.794c4.113-3.94 6.854-9.536 6.854-14.47 0-7.54-6.168-11.294-13.707-8.343z"/>
        <path fill="#C6E0FD" d="M148.874 384.262l75.157-28.398v9.66l-75.157 28.398z"/>
        <path fill="#E0E8EB" d="M148.874 398.02l52.555-19.857v4.094l-52.555 19.858zM148.874 407.932l52.555-19.858v4.094l-52.555 19.858zM148.874 416.19l38.817-14.075v4.094l-38.817 14.076z"/>
        <path fill="#86A9D2" fill-rule="nonzero" d="M240.305 221.312l-.12 40.497a14.743 14.743 0 0 0 7.465 12.865l8.263 4.691a10.722 10.722 0 0 0 9.923.348l3.515-1.682-13.438-9.382-.004-37.725-15.604-9.612z"/>
        <path fill="url(#h)" fill-rule="nonzero" d="M331.567 279.346l5.351-2.577a5.781 5.781 0 0 0 2.848-7.386l-3.351-8.242-15.467 7.508 2.669 7.44a5.781 5.781 0 0 0 7.95 3.257z" transform="translate(-65)"/>
        <path fill="url(#h)" fill-rule="nonzero" d="M320.948 268.649l15.51-7.06.117-38.424-15.59 7.494z" transform="translate(-65)"/>
        <path fill="#E0E0E2" fill-rule="nonzero" d="M256.671 231.145l14.904-7.922-15.202-9.822-14.904 7.921z"/>
        <path fill="url(#e)" fill-rule="nonzero" d="M299.446 220.079a12.435 12.435 0 0 1-.534-.668 12.834 12.834 0 0 1-1.356-2.304 15.359 15.359 0 0 1-.684-1.781 17.078 17.078 0 0 1-.496-1.97 21.664 21.664 0 0 1-.363-3.305 25.917 25.917 0 0 1-.013-1.194c.158-12.564 9.365-27.111 20.564-32.493.173-.083.346-.164.52-.242.282-.125.399-.177.515-.226.307-.127.41-.17.512-.21.317-.122.413-.16.508-.195l.505-.178c.319-.104.41-.135.5-.163.319-.095.408-.122.497-.147.317-.086.405-.11.492-.132.315-.076.402-.098.488-.117.312-.066.398-.085.483-.101.31-.057.395-.073.478-.086.309-.048.391-.06.473-.071.307-.038.388-.048.469-.056.303-.028.383-.036.463-.041.3-.018.379-.024.458-.027.296-.009.374-.01.452-.012l.446.003c.29.01.366.013.44.017.287.02.361.025.435.032.282.028.356.036.429.045.278.038.35.049.421.06.275.047.346.06.416.074.27.057.34.071.41.088.265.065.333.083.401.101.261.075.329.095.396.116.256.083.322.105.388.129.252.092.316.117.381.142.248.102.31.129.374.156a15 15 0 0 1 .366.17c.238.12.298.15.359.183.232.127.291.162.35.196l.253.15 40.594 25.319c3.723 2.317 5.994 6.96 5.914 13.344-.16 12.562-9.365 27.108-20.562 32.489-5.506 2.646-10.468 2.583-14.071.342-6.612-4.112-33.986-21.2-40.598-25.313a12.56 12.56 0 0 1-.64-.433 11.399 11.399 0 0 1-.647-.511 11.268 11.268 0 0 1-1.186-1.18zm37.305 14.758l-.145.068.145-.068z" transform="translate(-65)"/>
        <path fill="#C6C5CB" fill-rule="nonzero" d="M291.084 202.252c2.005-.955 3.94-1.557 5.764-1.83l55.245-8.292c.17-.026.34-.048.51-.07.119-.017.237-.035.355-.05a37.95 37.95 0 0 1 2.177-.217 56.6 56.6 0 0 1 1.078-.06c.13-.006.26-.01.389-.014.233-.007.466-.012.697-.015l.375-.004c.257 0 .511.003.765.009.627.014.97.029 1.31.05.478.032.75.053 1.019.077a44.319 44.319 0 0 1 1.38.156 32.93 32.93 0 0 1 1.796.297 28.702 28.702 0 0 1 2.068.485 30.5 30.5 0 0 1 3.072 1.03c.333.137.603.252.871.37.474.218.669.309.862.403a29.051 29.051 0 0 1 2.768 1.555c.38.25.582.385.78.523.437.31.605.433.772.558a28.295 28.295 0 0 1 1.64 1.332 25.971 25.971 0 0 1 1.473 1.399 30.514 30.514 0 0 1 2.149 2.46c.248.325.42.555.588.787.319.45.447.633.573.819a33.82 33.82 0 0 1 1.759 2.927c.238.46.356.69.471.925.26.539.358.749.455.96a38.91 38.91 0 0 1 1.34 3.37c.188.568.268.813.346 1.06.19.624.258.861.326 1.1a44.872 44.872 0 0 1 .892 3.79 67.596 67.596 0 0 1 .28 1.628c.041.266.08.534.117.804.02.14.04.278.058.418.042.323.08.65.117.979a51.247 51.247 0 0 1 .238 2.784c.01.152.017.305.025.458a55.032 55.032 0 0 1 .075 2.25c.002.14.006.28.007.422.003.446.004.894-.002 1.346-.4 31.404-23.597 67.755-51.81 81.193-.405.192-.808.377-1.21.558-.126.057-.252.112-.378.167a59.752 59.752 0 0 1-2.077.873l-.39.155a56.668 56.668 0 0 1-2.358.857c-.115.04-.23.076-.345.113a49.665 49.665 0 0 1-2.025.622l-.388.11a48.11 48.11 0 0 1-3.412.801c-.13.026-.26.05-.39.074a45.625 45.625 0 0 1-1.97.316c-.635.085-.997.127-1.358.164-.53.048-.806.072-1.08.092-.124.01-.246.016-.369.024-.24.016-.48.029-.72.039l-.37.014a37.738 37.738 0 0 1-2.093.01 43.697 43.697 0 0 1-1.026-.044 44.039 44.039 0 0 1-1.382-.108 33.093 33.093 0 0 1-1.981-.259c-.39-.067-.68-.12-.967-.177-.528-.11-.747-.159-.964-.209a30.185 30.185 0 0 1-2.156-.59 26.417 26.417 0 0 1-1.83-.653 29.46 29.46 0 0 1-1.912-.843 25.947 25.947 0 0 1-1.772-.95 29.266 29.266 0 0 1-1.699-1.083 25.718 25.718 0 0 1-2.39-1.865 30.148 30.148 0 0 1-1.61-1.525 38.356 38.356 0 0 1-.654-.698c-.361-.406-.503-.57-.644-.736a32.01 32.01 0 0 1-1.41-1.8c-.252-.355-.409-.58-.563-.81a43.867 43.867 0 0 1-.549-.845 36.313 36.313 0 0 1-1.195-2.066c-.18-.346-.325-.63-.466-.918-.248-.517-.35-.734-.45-.952a41.183 41.183 0 0 1-.934-2.25c-.155-.41-.276-.752-.395-1.096-.16-.479-.215-.64-.267-.803l-16.893-52.848c-.603-1.895-.915-4.074-.884-6.506.16-12.58 9.453-27.143 20.756-32.527z"/>
        <path fill="url(#h)" fill-rule="nonzero" d="M353.108 294.134c6.312 19.746 25.385 27.13 48.146 16.288 28.214-13.437 51.41-49.788 51.81-81.192.33-25.83-14.866-40.268-35.971-37.1l-55.245 8.291c8.455-1.269 14.543 4.515 14.41 14.863-.16 12.58-9.453 27.143-20.756 32.527-9.118 4.342-16.759 1.385-19.287-6.526l16.893 52.849z" transform="translate(-65)"/>
        <path fill="#57B750" fill-rule="nonzero" d="M294.528 245.768a7.396 7.396 0 0 1-.6-.81 7.838 7.838 0 0 1-.715-1.431 9.323 9.323 0 0 1-.344-1.095 10.496 10.496 0 0 1-.232-1.206 13.943 13.943 0 0 1-.118-2.01c.092-7.336 5.46-15.83 11.988-18.972l.302-.141.3-.132c.18-.074.24-.1.3-.123l.129-.05c.056-.02.112-.043.167-.063.044-.017.088-.031.132-.047.054-.02.108-.04.162-.058l.133-.043.16-.052.133-.04.155-.046.135-.036c.05-.014.102-.028.153-.04.183-.045.233-.058.284-.069.182-.038.232-.05.281-.059l.279-.05.276-.042c.179-.022.226-.027.273-.032l.27-.025.267-.015.263-.007.26.001.257.01.253.019a8.015 8.015 0 0 1 .495.062l.243.042.238.051.235.06a7.381 7.381 0 0 1 .679.226 7.687 7.687 0 0 1 .43.19c.139.069.174.088.21.106l.204.115.147.088 22.17 13.6c2.17 1.352 3.495 4.063 3.447 7.79-.092 7.334-5.46 15.827-11.987 18.969-3.21 1.545-6.102 1.508-8.202.2-3.855-2.4-18.318-11.196-22.172-13.597a6.573 6.573 0 0 1-1.44-1.239zm20.252 7.435l-.085.04.085-.04z"/>
        <path fill="url(#i)" fill-rule="nonzero" d="M369.415 220.057c3.174-1.527 6.035-1.49 8.112-.197l21.92 13.437c-2.077-1.294-4.938-1.33-8.112.196-6.454 3.105-11.76 11.494-11.851 18.74-.047 3.683 1.131 6.444 3.277 7.78-3.81-2.372-17.978-11.144-21.79-13.516-2.146-1.336-3.456-4.015-3.41-7.698.092-7.247 5.399-15.639 11.854-18.742z" transform="translate(-65)"/>
        <path fill="#D8D8DA" fill-rule="nonzero" d="M295.211 292.414c-1.382-4.323-2.094-9.293-2.023-14.84l-16.009-44.338c-.023 1.804.21 3.422.659 4.828 5.79 18.117 11.582 36.233 17.373 54.35z"/>
        <path fill="#D8D8DA" fill-rule="nonzero" d="M296.859 207.74c-1.354.204-2.79.651-4.278 1.36-8.387 3.995-15.283 14.8-15.402 24.136l16.009 44.339c.366-28.693 21.56-61.906 47.339-74.184 4.574-2.179 8.986-3.552 13.147-4.177l-56.815 8.527z"/>
        <path fill="url(#h)" fill-rule="nonzero" d="M356.084 202.252c2.005-.955 3.94-1.557 5.764-1.83l55.245-8.292c20.97-3.292 36.302 11.156 35.972 37.1-.4 31.404-23.597 67.755-51.81 81.193-22.861 10.888-42 3.39-48.227-16.55-5.55-17.356-11.182-34.971-16.813-52.588-.605-1.895-.918-4.075-.887-6.506.16-12.58 9.453-27.143 20.756-32.527zM404.2 307.297c25.778-12.279 46.973-45.492 47.339-74.185.365-28.692-20.235-42-46.014-29.721-25.778 12.278-46.972 45.49-47.338 74.184-.366 28.693 20.235 42 46.013 29.722z" transform="translate(-65)"/>
        <path fill="#86A9D2" fill-rule="nonzero" d="M285.978 278.033c.4-31.48 23.578-67.925 51.768-81.402 28.19-13.476 50.719 1.119 50.319 32.6-.4 31.48-23.578 67.925-51.768 81.402-28.19 13.476-50.72-1.12-50.319-32.6zm53.263 29.465c25.757-12.313 46.934-45.612 47.3-74.375.365-28.764-20.218-42.1-45.975-29.786-25.757 12.313-46.934 45.612-47.3 74.376-.365 28.763 20.218 42.099 45.975 29.785z"/>
    </g>
</svg>
