<svg xmlns="http://www.w3.org/2000/svg" xmlns:xlink="http://www.w3.org/1999/xlink" width="167" height="181" viewBox="0 0 167 181">
    <defs>
        <filter id="a" width="115.2%" height="111.1%" x="-10.8%" y="-6.7%" filterUnits="objectBoundingBox">
            <feOffset dx="-4" dy="-2" in="SourceAlpha" result="shadowOffsetOuter1"/>
            <feGaussianBlur in="shadowOffsetOuter1" result="shadowBlurOuter1" stdDeviation="2.5"/>
            <feColorMatrix in="shadowBlurOuter1" result="shadowMatrixOuter1" values="0 0 0 0 0.00392156863 0 0 0 0 0.278431373 0 0 0 0 0.6 0 0 0 0.132642663 0"/>
            <feMerge>
                <feMergeNode in="shadowMatrixOuter1"/>
                <feMergeNode in="SourceGraphic"/>
            </feMerge>
        </filter>
        <linearGradient id="b" x1="50%" x2="91.508%" y1="12.697%" y2="109.345%">
            <stop offset="0%" stop-color="#48C7FF"/>
            <stop offset="100%" stop-color="#1F7DC2"/>
        </linearGradient>
        <path id="c" d="M7.782 56.704l114.54-53.447c1.2-.552 2.174.238 2.174 1.764v105.956c0 1.526-.973 3.228-2.175 3.8L7.781 170.204c-1.2.59-2.174-.192-2.174-1.747V60.55c0-1.555.973-3.276 2.175-3.845z"/>
        <path id="e" d="M21.259 75.67C32.54 69.851 41.686 55.96 41.686 44.641c0-11.318-9.145-15.778-20.427-9.961S.83 54.389.83 65.708c0 4.315 1.33 7.634 3.6 9.766a55.044 55.044 0 0 1-1.858 8.11c-.295.83-.318 1.32-.07 1.47.115.068 1.602 1.234 2.717 1.946.567.362 3.777-5.394 6.673-8.778 2.806.008 5.99-.812 9.366-2.553z"/>
        <filter id="d" width="207.7%" height="180.2%" x="-66.1%" y="-40.1%" filterUnits="objectBoundingBox">
            <feOffset dx="-5" in="SourceAlpha" result="shadowOffsetOuter1"/>
            <feGaussianBlur in="shadowOffsetOuter1" result="shadowBlurOuter1" stdDeviation="6.5"/>
            <feColorMatrix in="shadowBlurOuter1" values="0 0 0 0 0.0352941176 0 0 0 0 0.505882353 0 0 0 0 0.745098039 0 0 0 0.2 0"/>
        </filter>
        <path id="g" d="M23.987 77.615c11.282-5.818 20.428-19.709 20.428-31.027 0-11.32-9.146-15.78-20.428-9.962C12.705 42.443 3.56 56.334 3.56 67.653c0 4.315 1.33 7.634 3.6 9.766a55.044 55.044 0 0 1-1.858 8.11c-.5 1.407-.22 1.837.844 1.288 1.517-.782 5.58-3.266 8.476-6.65 2.805.008 5.99-.812 9.365-2.552z"/>
        <filter id="f" width="207.7%" height="183.1%" x="-66.1%" y="-41.5%" filterUnits="objectBoundingBox">
            <feOffset dx="-5" in="SourceAlpha" result="shadowOffsetOuter1"/>
            <feGaussianBlur in="shadowOffsetOuter1" result="shadowBlurOuter1" stdDeviation="6.5"/>
            <feColorMatrix in="shadowBlurOuter1" values="0 0 0 0 0.0352941176 0 0 0 0 0.505882353 0 0 0 0 0.745098039 0 0 0 0.2 0"/>
        </filter>
        <linearGradient id="h" x1="50%" x2="22.86%" y1="12.697%" y2="86.936%">
            <stop offset="0%" stop-color="#48C7FF"/>
            <stop offset="100%" stop-color="#1F7DC2"/>
        </linearGradient>
        <linearGradient id="i" x1="100%" x2="22.277%" y1="-13.447%" y2="95.402%">
            <stop offset="0%" stop-color="#80F2F1"/>
            <stop offset="100%" stop-color="#26AEF3"/>
        </linearGradient>
    </defs>
    <g fill="none" fill-rule="evenodd">
        <g filter="url(#a)" transform="translate(9 7)">
            <path fill="url(#b)" d="M2.714 54.177L117.254.73c.558-.257 1.067-.224 1.453.039.232.159 2.655 1.34 4.903 2.543 1.356.726-.038 35.772-4.181 105.138 0 1.526-.974 3.228-2.175 3.8L6.757 170.159c-.584.286-5.157-2.233-5.548-2.526-.413-.31-.67-.904-.67-1.703V58.022c0-1.555.974-3.276 2.175-3.845z"/>
            <use fill="#FFF" xlink:href="#c"/>
            <path stroke="#F3F4F6" stroke-width=".96" d="M7.986 57.138c-1.024.486-1.9 2.034-1.9 3.411v107.907c0 1.227.632 1.735 1.486 1.315l114.543-55.426c1.026-.49 1.901-2.02 1.901-3.368V5.02c0-1.202-.64-1.721-1.492-1.33L7.986 57.139z"/>
            <path fill="#DFF3FD" d="M15.953 66.31l98.197-45.82c1.03-.474 1.864.203 1.864 1.512v82.147c0 1.309-.835 2.768-1.864 3.259l-98.197 47.517c-1.03.505-1.864-.166-1.864-1.498v-83.82c0-1.333.835-2.81 1.864-3.297z"/>
            <g>
                <path fill="#2E98D8" d="M25.898 72.237l59.514-27.912c1.368-.641 2.476-.053 2.476 1.315 0 1.367-1.108 2.995-2.476 3.636L25.898 77.188c-1.368.641-2.476.053-2.476-1.314 0-1.368 1.108-2.996 2.476-3.637zM25.898 84.615l59.514-27.912c1.368-.641 2.476-.053 2.476 1.315 0 1.367-1.108 2.995-2.476 3.636L25.898 89.566c-1.368.642-2.476.053-2.476-1.314 0-1.368 1.108-2.996 2.476-3.637z"/>
                <path fill="#60CC69" d="M81.6 46.113l18.428-8.643c1.367-.64 2.476-.052 2.476 1.315s-1.109 2.995-2.476 3.637L81.6 51.064c-1.367.642-2.475.053-2.475-1.314s1.108-2.996 2.475-3.637zM46.138 75.122l39.274-18.419c1.368-.641 2.476-.053 2.476 1.315 0 1.367-1.108 2.995-2.476 3.636l-39.274 18.42c-1.367.64-2.475.052-2.475-1.315s1.108-2.995 2.475-3.637z"/>
                <path fill="#2E98D8" d="M25.898 96.993l33.47-15.697c1.366-.641 2.475-.052 2.475 1.315s-1.109 2.995-2.476 3.637l-33.47 15.696c-1.367.642-2.475.053-2.475-1.314s1.108-2.996 2.476-3.637z"/>
                <path fill="#60CC69" d="M58.13 81.876l14.484-6.792c1.367-.641 2.475-.053 2.475 1.314 0 1.368-1.108 2.996-2.475 3.637L58.13 86.827c-1.368.642-2.476.053-2.476-1.314s1.108-2.996 2.476-3.637z"/>
                <path fill="#2E98D8" d="M25.898 109.371l33.47-15.697c1.366-.64 2.475-.052 2.475 1.315s-1.109 2.995-2.476 3.637l-33.47 15.697c-1.367.64-2.475.052-2.475-1.315s1.108-2.995 2.476-3.637z"/>
                <path fill="#60CC69" d="M60.507 93.14l30.56-14.333c1.367-.64 2.476-.052 2.476 1.315s-1.109 2.996-2.476 3.637L60.507 98.09c-1.367.641-2.476.053-2.476-1.314 0-1.368 1.109-2.996 2.476-3.637z"/>
                <path fill="#2E98D8" d="M25.898 122.987l59.514-27.912c1.368-.64 2.476-.052 2.476 1.315s-1.108 2.995-2.476 3.637l-59.514 27.912c-1.368.64-2.476.052-2.476-1.315s1.108-2.995 2.476-3.637z"/>
                <path fill="#60CC69" d="M70.93 101.868l14.482-6.793c1.368-.64 2.476-.052 2.476 1.315s-1.108 2.995-2.476 3.637l-14.483 6.792c-1.367.641-2.475.053-2.475-1.314 0-1.368 1.108-2.996 2.475-3.637z"/>
                <path fill="#2E98D8" d="M25.898 135.365l18.428-8.642c1.368-.642 2.476-.053 2.476 1.314s-1.108 2.996-2.476 3.637l-18.428 8.643c-1.368.641-2.476.052-2.476-1.315s1.108-2.995 2.476-3.637z"/>
                <path fill="#60CC69" d="M45.703 126.077l30.56-14.332c1.367-.642 2.476-.053 2.476 1.314s-1.109 2.996-2.476 3.637l-30.56 14.332c-1.368.642-2.476.053-2.476-1.314 0-1.368 1.108-2.996 2.476-3.637z"/>
            </g>
        </g>
        <g opacity=".96" transform="translate(101 66.969)">
            <use fill="#000" filter="url(#d)" xlink:href="#e"/>
            <use fill="#68D75A" xlink:href="#e"/>
        </g>
        <g opacity=".96" transform="translate(101 66.969)">
            <use fill="#000" filter="url(#f)" xlink:href="#g"/>
            <use fill="#A2F897" xlink:href="#g"/>
        </g>
        <path fill="url(#h)" d="M26.86 55.973c-4.004 2.064-4.789 5.478-8.173 5.595-3.611.125-9.766-3.175-12.213-5.044C3.024 53.89.968 49.39.968 43.347.968 29 12.56 11.393 26.859 4.02 34.655 0 41.646-.147 46.393 2.874c2.267 1.443 5.587 2.744 6.673 5.556.811 2.1-.315 5.427-.315 8.217 0 5.47-1.685 11.413-4.563 17.083.553 3.036 1.338 5.653 2.355 7.852.634 1.13.278 2.041-1.07 2.736-1.923.992-7.072 3.153-10.743 2.65-3.556 3.677-7.592 6.799-11.87 9.005z" transform="translate(110 66.969)"/>
        <path fill="url(#i)" d="M30.68 58.35c-14.3 7.373-25.892 1.72-25.892-12.627 0-14.346 11.592-31.953 25.891-39.326 14.3-7.373 25.892-1.72 25.892 12.626 0 5.47-1.685 11.414-4.563 17.083.553 3.037 1.338 5.654 2.355 7.852.634 1.13.277 2.042-1.07 2.737-1.923.991-7.072 3.152-10.743 2.649-3.556 3.677-7.592 6.8-11.87 9.005z" transform="translate(110 66.969)"/>
        <path fill="#F7FBFF" d="M149.238 97.691c1.588-.818 2.875-2.96 2.875-4.782 0-1.823-1.287-2.637-2.875-1.818-1.588.818-2.876 2.96-2.876 4.783 0 1.822 1.288 2.636 2.876 1.817zm-8.592 4.43c1.588-.818 2.875-2.96 2.875-4.782 0-1.823-1.287-2.637-2.875-1.818s-2.876 2.96-2.876 4.783c0 1.823 1.288 2.636 2.876 1.818zm-8.525 4.396c1.588-.819 2.875-2.96 2.875-4.783 0-1.823-1.287-2.636-2.875-1.818-1.588.82-2.875 2.96-2.875 4.783 0 1.823 1.287 2.637 2.875 1.818z"/>
    </g>
</svg>
