<svg xmlns="http://www.w3.org/2000/svg" xmlns:xlink="http://www.w3.org/1999/xlink" width="131" height="149" viewBox="0 0 131 149">
    <defs>
        <filter id="a" width="118.9%" height="114.5%" x="-12.7%" y="-8.8%" filterUnits="objectBoundingBox">
            <feOffset dx="-4" dy="-2" in="SourceAlpha" result="shadowOffsetOuter1"/>
            <feGaussianBlur in="shadowOffsetOuter1" result="shadowBlurOuter1" stdDeviation="2.5"/>
            <feColorMatrix in="shadowBlurOuter1" result="shadowMatrixOuter1" values="0 0 0 0 0.00392156863 0 0 0 0 0.278431373 0 0 0 0 0.6 0 0 0 0.132642663 0"/>
            <feMerge>
                <feMergeNode in="shadowMatrixOuter1"/>
                <feMergeNode in="SourceGraphic"/>
            </feMerge>
        </filter>
        <linearGradient id="b" x1="50%" x2="91.508%" y1="12.697%" y2="109.345%">
            <stop offset="0%" stop-color="#48C7FF"/>
            <stop offset="100%" stop-color="#1F7DC2"/>
        </linearGradient>
        <path id="c" d="M5.933 43.4L93.27 2.492c.916-.423 1.658.182 1.658 1.35v81.095c0 1.168-.742 2.47-1.658 2.909l-87.337 42.42c-.915.452-1.658-.147-1.658-1.337V46.342c0-1.19.743-2.507 1.658-2.943z"/>
        <path id="e" d="M9.945 29.828L68.712 1.676c.468-.224.848.075.848.669v26.181c0 .594-.38 1.257-.848 1.48L9.945 58.16c-.468.224-.848-.075-.848-.668v-7.072l-6.891-2.422 6.891-10.211v-6.477c0-.594.38-1.256.848-1.48z"/>
        <filter id="d" width="159.4%" height="170.6%" x="-44.5%" y="-35.3%" filterUnits="objectBoundingBox">
            <feOffset dx="-10" in="SourceAlpha" result="shadowOffsetOuter1"/>
            <feGaussianBlur in="shadowOffsetOuter1" result="shadowBlurOuter1" stdDeviation="5"/>
            <feComposite in="shadowBlurOuter1" in2="SourceAlpha" operator="out" result="shadowBlurOuter1"/>
            <feColorMatrix in="shadowBlurOuter1" values="0 0 0 0 0.0352941176 0 0 0 0 0.505882353 0 0 0 0 0.745098039 0 0 0 0.2 0"/>
        </filter>
        <path id="g" d="M9.945 29.828L68.712 1.676c.468-.224.848.075.848.669v26.181c0 .594-.38 1.257-.848 1.48L9.945 58.16c-.468.224-.848-.075-.848-.668v-7.072l-6.891-2.422 6.891-10.211v-6.477c0-.594.38-1.256.848-1.48z"/>
        <filter id="f" width="159.4%" height="170.6%" x="-44.5%" y="-35.3%" filterUnits="objectBoundingBox">
            <feOffset dx="-10" in="SourceAlpha" result="shadowOffsetOuter1"/>
            <feGaussianBlur in="shadowOffsetOuter1" result="shadowBlurOuter1" stdDeviation="5"/>
            <feComposite in="shadowBlurOuter1" in2="SourceAlpha" operator="out" result="shadowBlurOuter1"/>
            <feColorMatrix in="shadowBlurOuter1" values="0 0 0 0 0.0352941176 0 0 0 0 0.505882353 0 0 0 0 0.745098039 0 0 0 0.2 0"/>
        </filter>
        <linearGradient id="h" x1="-22.405%" x2="92.973%" y1="50%" y2="77.758%">
            <stop offset="0%" stop-color="#48C7FF"/>
            <stop offset="100%" stop-color="#0E71B9"/>
        </linearGradient>
        <linearGradient id="i" x1="100%" x2="22.277%" y1="-13.447%" y2="95.402%">
            <stop offset="0%" stop-color="#80F2F1"/>
            <stop offset="100%" stop-color="#26AEF3"/>
        </linearGradient>
    </defs>
    <g fill="none" fill-rule="evenodd">
        <g filter="url(#a)" transform="translate(9 10)">
            <path fill="url(#b)" d="M2.07 41.465L89.405.558c.426-.196.814-.17 1.108.03.177.122 2.024 1.026 3.739 1.947 1.033.556-.03 27.378-3.189 80.468 0 1.169-.742 2.471-1.658 2.91l-84.254 44.32c-.445.219-3.932-1.71-4.23-1.933-.315-.237-.51-.693-.51-1.304V44.408c0-1.19.742-2.508 1.657-2.943z"/>
            <use fill="#FFF" xlink:href="#c"/>
            <path stroke="#F3F4F6" stroke-width=".96" d="M6.138 43.833c-.739.352-1.383 1.496-1.383 2.51v82.587c0 .863.4 1.186.969.906l87.339-42.422c.741-.355 1.385-1.485 1.385-2.476V3.843c0-.844-.408-1.177-.974-.916L6.138 43.833z"/>
            <path stroke="#014799" stroke-dasharray="3,5" stroke-linecap="round" stroke-linejoin="round" stroke-width="2" d="M105 80l.225 13.374-53.375 26.023"/>
            <path fill="#DFF3FD" d="M12.165 57.64l74.874-35.07c.785-.362 1.422.156 1.422 1.158v55.984c0 1.001-.637 2.118-1.422 2.494l-74.874 36.368c-.786.386-1.422-.127-1.422-1.147V60.163c0-1.02.636-2.15 1.422-2.523z"/>
            <path fill="url(#b)" d="M17.226 43.9l16.188-7.657v3.481l-16.188 7.669zM43.127 31.213l16.188-7.59v3.464l-16.188 7.6zM69.837 19.397l16.188-7.523v3.445l-16.188 7.534z"/>
        </g>
        <path fill="#36A6E4" d="M68.327 76.607l59.99-28.337c.52-.24 2.01-.305 2.017 1.575l-.446 24.97c0 .593-.38 1.256-.848 1.48l-58.454 29.658c-2.671.973-2.671-1.3-2.671-1.893v-6.685l-6.929-2.458 6.929-10.43v-6.476c0-.593-.057-1.18.412-1.404z" opacity=".99"/>
        <g opacity=".96" transform="translate(60.85 47.715)">
            <use fill="#000" filter="url(#d)" xlink:href="#e"/>
            <use fill="#FFF" xlink:href="#e"/>
            <path stroke="#F3F4F6" d="M2.982 47.74l6.615 2.325v7.426c0 .25.023.269.132.217l58.767-28.152c.287-.137.564-.621.564-1.03V2.345c0-.252-.024-.27-.132-.218L10.161 30.279c-.287.138-.564.621-.564 1.03v6.63l-6.615 9.8z"/>
        </g>
        <path fill="#7CDD6F" d="M93.667 74.8l20.286-9.603v3.004l-20.286 9.602z"/>
        <path fill="#C6E0FD" d="M93.667 80.243l29.31-13.873v1.502l-29.31 13.872zM93.667 82.87l21.577-10.212v1.501L93.667 84.372z"/>
        <path fill="url(#b)" d="M7.579 30.184c4.001-1.894 7.245-7.212 7.245-11.877 0-4.665-3.244-6.911-7.245-5.017C3.578 15.184.334 20.5.334 25.166c0 4.665 3.244 6.911 7.245 5.018z" transform="translate(75.622 64.91)"/>
        <path fill="#FEFEFE" fill-rule="nonzero" d="M83.125 87.849c1.018-.482 1.945-2.602 1.945-4.448 0-1.602-.709-2.185-1.945-1.6-1.236.586-1.945 1.84-1.945 3.44 0 1.847.927 3.09 1.945 2.608z"/>
        <path fill="#FEFEFE" fill-rule="nonzero" d="M86.919 87.344c-.554-.128-1.715-.381-2.414-.436-.344.642-.845 1.166-1.38 1.445-.536.228-1.039.177-1.383-.141-.703.717-1.861 2.071-2.413 2.723-.193.229-.31.53-.31.793v.45c0 .371.23.578.543.49a25.18 25.18 0 0 0 3.563-1.291 32.507 32.507 0 0 0 3.563-2.082c.313-.208.544-.633.543-1.004v-.449c0-.264-.118-.454-.312-.498z"/>
        <g>
            <path fill="#36A6E4" d="M68.327 36.607l59.99-28.337c.52-.24 2.01-.305 2.017 1.575l-.446 24.97c0 .593-.38 1.256-.848 1.48L70.586 65.953c-2.671.973-2.671-1.3-2.671-1.893v-6.685l-6.929-2.458 6.929-10.43v-6.476c0-.593-.057-1.18.412-1.404z" opacity=".99"/>
            <g opacity=".96" transform="translate(60.85 7.715)">
                <use fill="#000" filter="url(#f)" xlink:href="#g"/>
                <use fill="#FFF" xlink:href="#g"/>
                <path stroke="#F3F4F6" d="M2.982 47.74l6.615 2.325v7.426c0 .25.023.269.132.217l58.767-28.152c.287-.137.564-.621.564-1.03V2.345c0-.252-.024-.27-.132-.218L10.161 30.279c-.287.138-.564.621-.564 1.03v6.63l-6.615 9.8z"/>
            </g>
            <path fill="#7CDD6F" d="M93.667 34.8l20.286-9.603v3.004l-20.286 9.602z"/>
            <path fill="#C6E0FD" d="M93.667 40.243l29.31-13.873v1.502l-29.31 13.872zM93.667 42.87l21.577-10.212v1.501L93.667 44.372z"/>
            <path fill="url(#b)" d="M7.579 30.184c4.001-1.894 7.245-7.212 7.245-11.877 0-4.665-3.244-6.911-7.245-5.017C3.578 15.184.334 20.5.334 25.166c0 4.665 3.244 6.911 7.245 5.018z" transform="translate(75.622 24.91)"/>
            <path fill="#FEFEFE" fill-rule="nonzero" d="M83.125 47.849c1.018-.482 1.945-2.602 1.945-4.448 0-1.602-.709-2.185-1.945-1.6-1.236.586-1.945 1.84-1.945 3.44 0 1.847.927 3.09 1.945 2.608z"/>
            <path fill="#FEFEFE" fill-rule="nonzero" d="M86.919 47.344c-.554-.128-1.715-.381-2.414-.436-.344.642-.845 1.166-1.38 1.445-.536.228-1.039.177-1.383-.141-.703.717-1.861 2.071-2.413 2.723-.193.229-.31.53-.31.793v.45c0 .371.23.578.543.49a25.18 25.18 0 0 0 3.563-1.291 32.507 32.507 0 0 0 3.563-2.082c.313-.208.544-.633.543-1.004v-.449c0-.264-.118-.454-.312-.498z"/>
        </g>
        <g>
            <path fill="url(#h)" d="M20.48 42.84c-3.052 1.58-3.65 4.192-6.23 4.282-2.755.096-7.448-2.43-9.314-3.86C2.306 41.245.738 37.8.738 33.176c0-10.98 8.839-24.456 19.742-30.1C26.425 0 31.755-.112 35.375 2.2c1.728 1.104 4.26 2.1 5.088 4.252.619 1.608-.24 4.153-.24 6.289 0 4.186-1.285 8.735-3.48 13.075.422 2.323 1.02 4.327 1.796 6.01.484.863.212 1.562-.816 2.094-1.466.758-5.392 2.412-8.191 2.027-2.712 2.814-5.79 5.204-9.052 6.893z" transform="translate(9.863 101)"/>
            <path fill="url(#i)" d="M23.393 44.659C12.49 50.302 3.651 45.975 3.651 34.995s8.839-24.456 19.742-30.1C34.296-.746 43.135 3.58 43.135 14.56c0 4.186-1.285 8.735-3.479 13.075.422 2.323 1.02 4.326 1.796 6.01.483.863.211 1.561-.817 2.093-1.466.76-5.391 2.413-8.19 2.028-2.712 2.814-5.79 5.204-9.052 6.893z" transform="translate(9.863 101)"/>
            <path fill="#F7FBFF" d="M39.781 124.514c1.211-.627 2.193-2.266 2.193-3.66 0-1.396-.982-2.019-2.193-1.392-1.21.627-2.192 2.266-2.192 3.66 0 1.396.981 2.019 2.192 1.392zm-6.551 3.39c1.21-.626 2.192-2.265 2.192-3.66s-.981-2.018-2.192-1.391c-1.211.626-2.193 2.265-2.193 3.66s.982 2.018 2.193 1.392zm-6.5 3.365c1.21-.627 2.192-2.266 2.192-3.66 0-1.396-.981-2.019-2.192-1.392-1.211.627-2.193 2.265-2.193 3.66 0 1.396.982 2.018 2.193 1.392z"/>
        </g>
    </g>
</svg>
