<?xml version="1.0" encoding="UTF-8"?>
<svg width="158px" height="33px" viewBox="0 0 158 33" version="1.1" xmlns="http://www.w3.org/2000/svg" xmlns:xlink="http://www.w3.org/1999/xlink">
    <!-- Generator: Sketch 47.1 (45422) - http://www.bohemiancoding.com/sketch -->
    <title>logo_FD</title>
    <desc>Created with Sketch.</desc>
    <defs></defs>
    <g id="Page-1" stroke="none" stroke-width="1" fill="none" fill-rule="evenodd">
        <g id="009-SMS-Marketing" transform="translate(-710.000000, -5876.000000)" fill="#222236">
            <g id="Group-70" transform="translate(0.000000, 5532.000000)">
                <g id="Footer" transform="translate(0.000000, 274.000000)">
                    <g id="logo_FD" transform="translate(710.000000, 70.000000)">
                        <path d="M26.8490272,16.8615155 C26.7707082,18.8031439 26.0026636,20.6821185 24.4781663,22.2242555 C23.2237516,23.493609 21.9212796,24.7152721 20.6712047,25.9899343 C20.194417,26.4766686 19.8426077,26.5609946 19.3504708,26.003906 C18.6550074,25.2169406 17.9086031,24.4714237 17.1492379,23.7446912 C16.7008187,23.3162647 16.6979353,23.0030245 17.1564611,22.5707478 C18.3387606,21.4560747 19.4850315,20.3019075 20.6428362,19.1612161 C22.4590856,17.3694553 22.436018,15.6360022 20.6264967,13.8702888 C20.2040285,13.4577592 19.9507514,13.4659555 19.5436615,13.8746058 C17.8341287,15.5911994 16.0961984,17.278858 14.3674426,18.9756754 C13.417741,19.9081623 13.4167798,19.9076956 12.4555444,18.9246015 C11.9653007,18.4233996 11.4707464,17.9260772 10.9872598,17.4181374 C10.199031,16.591153 10.1937593,16.3121274 10.9978324,15.5169657 C12.673725,13.8567838 14.3409965,12.1874431 16.0563253,10.5691763 C16.6070922,10.0496567 16.6383441,9.71521102 16.0731308,9.20584201 C15.3642405,8.56728585 14.7144461,7.86079632 14.0627295,7.16107388 C13.6955419,6.76686199 13.4028286,6.78663822 13.0279518,7.1581862 C10.6277613,9.53643746 8.18813463,11.8746696 5.81581745,14.2799017 C4.50230675,15.6114424 4.60995533,17.3617548 6.00854219,18.7992937 C9.29837709,22.180882 12.5862606,25.5643955 15.9150074,28.9074231 C16.5816364,29.5768103 16.6868966,30.026909 15.9193471,30.6659318 C15.1868941,31.2750862 14.532294,31.9815757 13.8661602,32.6668306 C13.4888659,33.0543045 13.1822306,33.1482854 12.7559178,32.7087748 C9.2507857,29.0915345 5.64808256,25.5663206 2.24148274,21.8589496 C-0.870044635,18.4720818 -0.712882372,13.9777455 2.53081742,10.6732494 C5.96913512,7.17119534 9.52616917,3.78575678 13.0116122,0.329468006 C13.5056715,-0.159687249 13.8209571,-0.0724443527 14.2626483,0.382467117 C17.6803159,3.90575587 21.1277791,7.40057619 24.5411069,10.9286777 C26.089662,12.5291226 26.8754733,14.5666277 26.8490272,16.8615155 Z M36.4574842,12.6202291 L36.4574842,15.6508351 L42.7772931,15.6508351 L42.7772931,17.8988007 L36.4574842,17.8988007 L36.4574842,23.71875 L33.0457516,23.71875 L33.0457516,10.3125 L43.372549,10.3125 L43.372549,12.6202291 L36.4574842,12.6202291 Z M44.4052288,18.05749 C44.4052288,13.8806741 46.2884711,12.375 49.5797031,12.375 C53.0002946,12.375 54.7320261,13.8377765 54.7320261,18.0362891 C54.7320261,22.1919041 52.8915956,23.71875 49.4493298,23.71875 C46.1802491,23.71875 44.4052288,22.234306 44.4052288,18.05749 Z M55.7647059,13.6525806 C56.7660537,13.2191971 59.2143784,12.375 61.6181709,12.375 C63.9329907,12.375 66.0915033,13.0027287 66.0915033,16.250053 L66.0915033,23.71875 L62.9978437,23.71875 L62.9978437,16.5098151 C62.9978437,15.0379191 62.1745024,14.626629 61.1286224,14.626629 C60.3720335,14.626629 59.4369172,14.7781569 58.8583348,15.1028596 L58.8583348,23.71875 L55.7647059,23.71875 L55.7647059,13.6525806 Z M70.2404556,18.3854425 L70.2404556,18.6605404 C70.2404556,20.5649479 71.6283021,21.3906492 73.5159451,21.3906492 C74.5848566,21.3906492 75.9044494,21.2425486 76.859657,20.9458236 L77.1098371,23.1469562 C75.7680046,23.5071653 74.3801894,23.71875 73.1065794,23.71875 C69.7856083,23.71875 67.124183,22.2370752 67.124183,17.7294689 C67.124183,14.935876 68.6939559,12.375 72.6289913,12.375 C76.1318887,12.375 77.4509804,14.1740955 77.4509804,16.5017015 C77.4509804,17.0946858 77.3599859,17.7294689 77.2008003,18.3854425 L70.2404556,18.3854425 Z M47.3929322,18.05749 C47.3929322,20.7503286 48.2804125,21.4499008 49.5580587,21.4499008 C50.8568424,21.4499008 51.7226783,20.7503286 51.7226783,18.05749 C51.7226783,15.1950441 50.8784868,14.6650501 49.5797031,14.6650501 C48.2804125,14.6650501 47.3929322,15.1950441 47.3929322,18.05749 Z M72.7199545,14.4703548 C70.718075,14.4703548 70.3541909,16.0361803 70.3314501,16.6709925 L74.7895551,16.6709925 C74.7895551,15.4013972 74.1527501,14.4703548 72.7199545,14.4703548 Z M80.5490196,9.55479824 C82.023785,9.38644305 83.4765711,9.28125 84.6216471,9.28125 C89.1345274,9.28125 91.9084967,10.8389119 91.9084967,16.4789556 C91.9084967,22.2246845 88.5181976,23.71875 84.4895894,23.71875 C83.2784543,23.71875 81.9137369,23.5503948 80.5490196,23.3610242 L80.5490196,9.55479824 Z M82.5080572,21.9511073 C83.2124254,22.0773737 83.9172788,22.1405069 84.5556182,22.1405069 C87.5496837,22.1405069 89.8168861,20.6459782 89.8168861,16.4579112 C89.8168861,12.5644368 88.1660135,10.7542422 84.6656663,10.7542422 C84.0273572,10.7542422 83.2784543,10.7968231 82.5080572,10.8810007 L82.5080572,21.9511073 Z M92.9411765,12.375 L95.0160636,12.375 L98.4544451,20.3472345 L101.193087,12.3954196 L103.267974,12.3954196 L99.724718,21.9657799 C98.5821112,25.4830348 97.0205208,26.8125 94.643145,26.8125 C94.0366267,26.8125 93.593792,26.7307374 93.0343981,26.5262605 L93.2674842,25.339901 C93.826846,25.4625872 94.223102,25.4625872 94.5260723,25.4625872 C96.2280729,25.4625872 97.3001857,24.0517813 97.5798826,22.7432138 L92.9411765,12.375 Z M108.96679,12.375 C111.067155,12.375 112.562092,13.0136979 112.562092,16.1415666 L112.562092,23.71875 L110.885855,23.71875 L110.885855,16.4719433 C110.885855,14.3576538 109.976571,13.939207 108.785045,13.939207 C107.895955,13.939207 106.805398,14.1594278 105.997557,14.5338244 L105.997557,23.71875 L104.300654,23.71875 L104.300654,13.5422703 C105.795618,12.8154719 107.512242,12.375 108.96679,12.375 Z M121.856209,22.98138 C120.844755,23.3500501 119.116443,23.71875 117.514519,23.71875 C115.597045,23.71875 113.594771,22.98138 113.594771,20.6392003 C113.594771,18.0362845 115.68083,17.2989145 117.725244,17.2989145 C118.589646,17.2989145 119.410952,17.4507321 120.064659,17.6458963 L120.064659,16.3225264 C120.064659,14.8044398 119.68535,13.9369404 117.851661,13.9369404 C116.945612,13.9369404 115.82881,14.1755109 114.690475,14.4791163 L114.353333,13.0906519 C115.42846,12.6357361 117.240615,12.375 118.104524,12.375 C120.823685,12.375 121.856209,13.5899586 121.856209,16.2357735 L121.856209,22.98138 Z M120.064659,18.8170011 C119.516793,18.6434952 118.84251,18.5350839 118.189296,18.5350839 C116.798097,18.5350839 115.406897,19.0772599 115.406897,20.617512 C115.406897,22.070534 116.777027,22.3524511 117.957038,22.3524511 C118.715599,22.3524511 119.537863,22.2006634 120.064659,22.0271575 L120.064659,18.8170011 Z M127.489194,12.375 C128.536367,12.375 129.521947,12.5952511 130.179,13.3440443 C131.349869,12.7053464 132.541241,12.375 133.752692,12.375 C135.826988,12.375 137.346405,13.080258 137.346405,16.0754913 L137.346405,23.71875 L135.641698,23.71875 L135.641698,16.4063527 C135.641698,14.3356287 134.758802,13.9612018 133.383074,13.9612018 C132.500179,13.9612018 131.576192,14.2255031 130.898127,14.5778746 C131.021343,14.9963214 131.062405,15.5028687 131.062405,16.0754913 L131.062405,23.71875 L129.35815,23.71875 L129.35815,16.4063527 C129.35815,14.3356287 128.474774,13.9612018 127.099074,13.9612018 C126.154076,13.9612018 125.209559,14.2255031 124.61458,14.5778746 L124.61458,23.71875 L122.888889,23.71875 L122.888889,13.5422703 C124.429319,12.8154719 125.990279,12.375 127.489194,12.375 Z M138.379085,13.4383723 L140.444444,13.4383723 L140.444444,23.71875 L138.379085,23.71875 L138.379085,13.4383723 Z M138.379085,9.28125 L140.444444,9.28125 L140.444444,11.4112298 L138.379085,11.4112298 L138.379085,9.28125 Z M149.180731,14.3087613 C148.150855,13.9650498 147.420861,13.9220859 146.606026,13.9220859 C145.017816,13.9220859 143.429577,14.9531613 143.429577,18.0468898 C143.429577,21.1620707 145.017816,22.2146281 146.777184,22.2146281 C147.721718,22.2146281 148.558006,22.0427723 149.459661,21.6990904 L149.738562,23.1168116 C148.644324,23.5039599 147.700264,23.71875 146.712823,23.71875 C143.902095,23.71875 141.477124,22.0857363 141.477124,18.0468898 C141.477124,14.0724597 144.008892,12.375 146.563118,12.375 C147.549584,12.375 148.472693,12.5468557 149.545477,12.9120197 L149.180731,14.3087613 Z M151.255891,21.5099355 C151.972344,21.8101146 152.984306,22.0888229 154.037915,22.0888229 C155.512991,22.0888229 156.208374,21.3384341 156.208374,20.587544 C156.208374,18.0361691 151.024087,19.1510315 151.024087,15.5700582 C151.024087,13.6404534 152.499163,12.375 154.796509,12.375 C155.998134,12.375 157.072813,12.696591 157.599633,12.9538873 L157.241377,14.3051062 C156.798869,14.1550167 155.850147,13.940603 154.944031,13.940603 C153.847788,13.940603 152.794178,14.2622235 152.794178,15.4199687 C152.794178,17.8431968 158,16.8135984 158,20.330749 C158,22.0673815 156.735657,23.71875 153.974704,23.71875 C152.730967,23.71875 151.382343,23.3537749 150.771242,22.9249771 L151.255891,21.5099355 Z" id="Combined-Shape"></path>
                    </g>
                </g>
            </g>
        </g>
    </g>
</svg>