<svg xmlns="http://www.w3.org/2000/svg" width="158" height="33" viewBox="0 0 158 33">
    <path fill="#FFF" fill-rule="evenodd" d="M24.478 22.224c-1.254 1.27-2.557 2.491-3.807 3.766-.477.487-.828.571-1.32.014a37.789 37.789 0 0 0-2.202-2.26c-.448-.428-.451-.741.007-1.173 1.183-1.115 2.329-2.27 3.487-3.41 1.816-1.792 1.793-3.525-.017-5.29-.422-.413-.675-.405-1.082.004-1.71 1.716-3.448 3.404-5.177 5.1-.95.933-.95.933-1.911-.05-.49-.502-.985-.999-1.469-1.507-.788-.827-.793-1.106.01-1.901 1.677-1.66 3.344-3.33 5.06-4.948.55-.52.581-.854.016-1.363-.709-.639-1.359-1.345-2.01-2.045-.367-.394-.66-.374-1.035-.003-2.4 2.378-4.84 4.717-7.212 7.122-1.314 1.331-1.206 3.082.193 4.52 3.29 3.38 6.577 6.764 9.906 10.107.667.67.772 1.12.004 1.759-.732.61-1.387 1.316-2.053 2-.377.388-.684.482-1.11.043-3.505-3.617-7.108-7.143-10.515-10.85-3.111-3.387-2.954-7.881.29-11.186C5.969 7.171 9.526 3.786 13.01.33c.495-.489.81-.401 1.252.053C17.68 3.906 21.128 7.401 24.54 10.93c1.549 1.6 2.334 3.638 2.308 5.933-.078 1.941-.846 3.82-2.37 5.362zm11.98-6.573h6.32v2.248h-6.32v5.82h-3.412V10.312h10.327v2.308h-6.916v3.03zm13.122-3.276c3.42 0 5.152 1.463 5.152 5.661 0 4.156-1.84 5.683-5.283 5.683-3.269 0-5.044-1.485-5.044-5.662 0-4.176 1.883-5.682 5.175-5.682zm12.038 0c2.315 0 4.474.628 4.474 3.875v7.469h-3.094v-7.21c0-1.471-.823-1.882-1.87-1.882-.756 0-1.691.151-2.27.476v8.616h-3.093V13.653c1.001-.434 3.45-1.278 5.853-1.278zm8.622 6.286c0 1.904 1.388 2.73 3.276 2.73 1.069 0 2.388-.148 3.344-.445l.25 2.201c-1.342.36-2.73.572-4.003.572-3.321 0-5.983-1.482-5.983-5.99 0-2.793 1.57-5.354 5.505-5.354 3.503 0 4.822 1.8 4.822 4.127a8.07 8.07 0 0 1-.25 1.883h-6.96v.276zm-22.847-.604c0 2.693.887 3.393 2.165 3.393 1.299 0 2.165-.7 2.165-3.393 0-2.862-.845-3.392-2.143-3.392-1.3 0-2.187.53-2.187 3.392zM72.72 14.47c-2.002 0-2.366 1.566-2.389 2.201h4.459c0-1.27-.637-2.2-2.07-2.2zm11.902-5.189c4.513 0 7.286 1.558 7.286 7.198 0 5.746-3.39 7.24-7.418 7.24-1.212 0-2.576-.169-3.941-.358V9.555c1.475-.169 2.928-.274 4.073-.274zm-2.114 12.67c.704.126 1.41.19 2.048.19 2.994 0 5.26-1.495 5.26-5.683 0-3.894-1.65-5.704-5.15-5.704-.639 0-1.388.043-2.158.127v11.07zm12.508-9.576l3.438 7.972 2.74-7.952h2.074l-3.543 9.57c-1.143 3.518-2.704 4.848-5.082 4.848-.606 0-1.05-.082-1.609-.287l.233-1.186c.56.123.956.123 1.26.123 1.701 0 2.773-1.411 3.053-2.72L92.94 12.375h2.075zm17.546 3.767v7.577h-1.676v-7.247c0-2.114-.91-2.533-2.101-2.533-.889 0-1.98.22-2.787.595v9.185H104.3V13.542c1.495-.727 3.211-1.167 4.666-1.167 2.1 0 3.595.639 3.595 3.767zm4.953 7.577c-1.918 0-3.92-.738-3.92-3.08 0-2.603 2.086-3.34 4.13-3.34a8.34 8.34 0 0 1 2.34.347v-1.323c0-1.519-.38-2.386-2.213-2.386-.906 0-2.023.239-3.162.542l-.337-1.388c1.075-.455 2.888-.716 3.752-.716 2.719 0 3.751 1.215 3.751 3.86v6.746c-1.011.37-2.74.738-4.341.738zm2.55-4.902a6.432 6.432 0 0 0-1.876-.282c-1.39 0-2.782.542-2.782 2.083 0 1.453 1.37 1.734 2.55 1.734.759 0 1.58-.151 2.108-.325v-3.21zm10.114-5.473c1.17-.639 2.362-.969 3.574-.969 2.074 0 3.593.705 3.593 3.7v7.644h-1.704v-7.313c0-2.07-.883-2.445-2.259-2.445-.883 0-1.807.265-2.485.617.123.418.164.925.164 1.497v7.644h-1.704v-7.313c0-2.07-.883-2.445-2.259-2.445-.945 0-1.89.265-2.484.617v9.14h-1.726V13.543c1.54-.727 3.101-1.167 4.6-1.167 1.047 0 2.033.22 2.69.969zm8.2.094h2.065v10.28h-2.065v-10.28zm0-4.157h2.065v2.13h-2.065v-2.13zm8.227 4.641c-1.588 0-3.176 1.031-3.176 4.125 0 3.115 1.588 4.168 3.347 4.168.945 0 1.781-.172 2.683-.516l.279 1.418c-1.095.387-2.039.602-3.026.602-2.81 0-5.236-1.633-5.236-5.672 0-3.975 2.532-5.672 5.086-5.672.987 0 1.91.172 2.982.537l-.364 1.397c-1.03-.344-1.76-.387-2.575-.387zm7.432 8.167c1.475 0 2.17-.75 2.17-1.501 0-2.552-5.184-1.437-5.184-5.018 0-1.93 1.475-3.195 3.773-3.195 1.201 0 2.276.322 2.803.579l-.359 1.351a8.048 8.048 0 0 0-2.297-.364c-1.096 0-2.15.321-2.15 1.479 0 2.423 5.206 1.394 5.206 4.91 0 1.737-1.264 3.389-4.025 3.389-1.244 0-2.593-.365-3.204-.794l.485-1.415c.716.3 1.728.579 2.782.579z"/>
</svg>
