<svg xmlns="http://www.w3.org/2000/svg" xmlns:xlink="http://www.w3.org/1999/xlink" width="510" height="381" viewBox="0 0 510 381">
    <defs>
        <linearGradient id="a" x1="-113.303%" x2="141.838%" y1="43.929%" y2="88.283%">
            <stop offset="0%" stop-color="#5AF941"/>
            <stop offset="100%" stop-color="#13A23E"/>
        </linearGradient>
        <linearGradient id="b" x1="127.792%" x2="-2.297%" y1="-17.749%" y2="109.387%">
            <stop offset="0%" stop-color="#ABF0A2" stop-opacity="0"/>
            <stop offset="100%" stop-color="#68D75A"/>
        </linearGradient>
        <linearGradient id="c" x1="50%" y1="-26.296%" y2="92.461%">
            <stop offset="0%" stop-color="#4DF047"/>
            <stop offset="100%" stop-color="#00883B"/>
        </linearGradient>
        <linearGradient id="d" x1="188.675%" x2="7.128%" y1="57.904%" y2="42.2%">
            <stop offset="0%" stop-color="#0FC165"/>
            <stop offset="100%" stop-color="#62FF3D"/>
        </linearGradient>
        <linearGradient id="e" x1="36.904%" x2="19.214%" y1="35.516%" y2="66.224%">
            <stop offset="0%" stop-color="#FCCE3E"/>
            <stop offset="100%" stop-color="#FBA525"/>
        </linearGradient>
        <linearGradient id="f" x1="19.214%" x2="19.214%" y1="-54.155%" y2="66.224%">
            <stop offset="0%" stop-color="#FCCE3E"/>
            <stop offset="100%" stop-color="#FBA525"/>
        </linearGradient>
        <linearGradient id="g" x1="222.42%" x2="34.188%" y1="249.71%" y2="42.589%">
            <stop offset="0%" stop-color="#F0671F"/>
            <stop offset="100%" stop-color="#FBA525"/>
        </linearGradient>
        <path id="i" d="M114.868 37.006L1.633.083C.731-.234 0 .381 0 1.455V76.83c0 1.074.731 2.214 1.633 2.546l113.235 42.594c.902.347 1.633-.264 1.633-1.364V39.598c0-1.1-.731-2.26-1.633-2.592z"/>
        <filter id="h" width="148.1%" height="145.9%" x="-24%" y="-21.3%" filterUnits="objectBoundingBox">
            <feOffset dy="2" in="SourceAlpha" result="shadowOffsetOuter1"/>
            <feGaussianBlur in="shadowOffsetOuter1" result="shadowBlurOuter1" stdDeviation="9"/>
            <feComposite in="shadowBlurOuter1" in2="SourceAlpha" operator="out" result="shadowBlurOuter1"/>
            <feColorMatrix in="shadowBlurOuter1" values="0 0 0 0 0.862745098 0 0 0 0 0.917647059 0 0 0 0 0.984313725 0 0 0 1 0"/>
        </filter>
    </defs>
    <g fill="none" fill-rule="evenodd">
        <path fill="url(#a)" d="M62.48 59.61a15.848 15.848 0 0 1 12.733-.497l58.625-31.65s.292 59.988.328 61.878a4.825 4.825 0 0 1-2.732 4.438L71.54 122.451a15.847 15.847 0 0 1-12.398.54l-56.02-21.762a4.81 4.81 0 0 1-3.108-4.275c-.02-.422-.02-20.823 0-61.202L62.48 59.61z" transform="translate(375 207.5)"/>
        <path fill="url(#b)" d="M72.146 122.46l60.111-28.674a4.807 4.807 0 0 0 2.413-2.597 4.81 4.81 0 0 0 .33-1.842c-.037-1.89-.33-61.884-.33-61.884L75.832 59.116c-4.144-1.623-5.993-2.554-9.999-.614V124a15.958 15.958 0 0 0 6.313-1.54z" transform="translate(375 207.5)"/>
        <path fill="url(#c)" d="M72.146 122.46l60.111-28.674a4.807 4.807 0 0 0 2.413-2.597 4.81 4.81 0 0 0 .33-1.842c-.037-1.89-.33-61.884-.33-61.884L75.832 59.116c-4.144-1.623-5.993.363-9.999 2.303V124a15.958 15.958 0 0 0 6.313-1.54z" transform="translate(375 207.5)"/>
        <path fill="#97ED8C" d="M377.703 238.147l59.772-29.042a15.78 15.78 0 0 1 12.734-.5l55.915 22.069c2.46.972 3.675 3.776 2.714 6.264a4.815 4.815 0 0 1-2.405 2.609l-59.896 28.813a15.779 15.779 0 0 1-12.4.542l-56.023-21.869c-2.475-.932-3.734-3.717-2.812-6.22a4.816 4.816 0 0 1 2.401-2.666z"/>
        <path fill="url(#d)" d="M2.703 30.647L62.475 1.605a15.78 15.78 0 0 1 12.734-.5l55.915 22.069c2.46.972 3.675 3.776 2.714 6.264a4.815 4.815 0 0 1-2.405 2.609L71.537 60.86a15.779 15.779 0 0 1-12.4.542L3.115 39.533C.639 38.601-.62 35.816.302 33.313a4.816 4.816 0 0 1 2.401-2.666z" transform="translate(375 207.5)"/>
        <g>
            <path fill="url(#e)" d="M62.402 58.828a15.85 15.85 0 0 1 12.718-.496l58.551-31.56s.292 64.782.328 66.667a4.804 4.804 0 0 1-.328 1.837 4.79 4.79 0 0 1-2.4 2.589l-59.819 28.59a15.85 15.85 0 0 1-12.382.539l-55.95-21.7a4.798 4.798 0 0 1-3.105-4.263c-.02-.421-.02-22.42 0-65.995l62.387 23.792z" transform="translate(0 141.5)"/>
            <path fill="url(#f)" d="M71.225 126.465l60.035-28.593a4.796 4.796 0 0 0 2.74-4.426c-.037-1.884-.33-66.675-.33-66.675L74.905 58.334c-4.138-1.619-5.985.345-9.986 2.28V128a15.96 15.96 0 0 0 6.306-1.535z" transform="translate(0 141.5)"/>
            <path fill="url(#g)" d="M2.7 30.398L62.397 1.592a15.86 15.86 0 0 1 12.718-.496l55.846 21.89c2.457.963 3.67 3.745 2.71 6.212a4.788 4.788 0 0 1-2.4 2.588L71.447 60.365a15.859 15.859 0 0 1-12.384.537L3.11 39.212c-2.472-.925-3.73-3.687-2.808-6.17A4.789 4.789 0 0 1 2.7 30.399z" transform="translate(0 141.5)"/>
        </g>
        <g>
            <path fill="url(#a)" d="M62.48 59.61a15.848 15.848 0 0 1 12.733-.497l58.625-31.65s.292 59.988.328 61.878a4.825 4.825 0 0 1-2.732 4.438L71.54 122.451a15.847 15.847 0 0 1-12.398.54l-56.02-21.762a4.81 4.81 0 0 1-3.108-4.275c-.02-.422-.02-20.823 0-61.202L62.48 59.61z" transform="translate(0 50.5)"/>
            <path fill="url(#b)" d="M72.146 122.46l60.111-28.674a4.807 4.807 0 0 0 2.413-2.597 4.81 4.81 0 0 0 .33-1.842c-.037-1.89-.33-61.884-.33-61.884L75.832 59.116c-4.144-1.623-5.993-2.554-9.999-.614V124a15.958 15.958 0 0 0 6.313-1.54z" transform="translate(0 50.5)"/>
            <path fill="url(#c)" d="M72.146 122.46l60.111-28.674a4.807 4.807 0 0 0 2.413-2.597 4.81 4.81 0 0 0 .33-1.842c-.037-1.89-.33-61.884-.33-61.884L75.832 59.116c-4.144-1.623-5.993.363-9.999 2.303V124a15.958 15.958 0 0 0 6.313-1.54z" transform="translate(0 50.5)"/>
            <path fill="#97ED8C" d="M2.703 81.147l59.772-29.042a15.78 15.78 0 0 1 12.734-.5l55.915 22.069c2.46.972 3.675 3.776 2.714 6.264a4.815 4.815 0 0 1-2.405 2.609L71.537 111.36a15.779 15.779 0 0 1-12.4.542L3.115 90.033C.639 89.101-.62 86.316.302 83.813a4.816 4.816 0 0 1 2.401-2.666z"/>
            <path fill="url(#d)" d="M2.703 30.647L62.475 1.605a15.78 15.78 0 0 1 12.734-.5l55.915 22.069c2.46.972 3.675 3.776 2.714 6.264a4.815 4.815 0 0 1-2.405 2.609L71.537 60.86a15.779 15.779 0 0 1-12.4.542L3.115 39.533C.639 38.601-.62 35.816.302 33.313a4.816 4.816 0 0 1 2.401-2.666z" transform="translate(0 50.5)"/>
        </g>
        <g>
            <path fill="url(#e)" d="M65.196 61.706a16.585 16.585 0 0 1 13.287-.517l61.174-32.92s.304 150.715.342 152.68a5.004 5.004 0 0 1-.342 1.917 4.999 4.999 0 0 1-2.509 2.7L74.652 215.39a16.585 16.585 0 0 1-12.937.561L3.259 193.315a5.005 5.005 0 0 1-3.243-4.446c-.021-.44-.021-51.1 0-151.98l65.18 24.817z" transform="translate(221 .5)"/>
            <path fill="url(#f)" d="M74.507 215.399l62.635-29.825a5.004 5.004 0 0 0 2.857-4.617c-.038-1.965-.343-152.689-.343-152.689L78.347 61.191c-4.317-1.689-6.244.36-10.418 2.378V217a16.653 16.653 0 0 0 6.578-1.601z" transform="translate(221 .5)"/>
            <path fill="url(#g)" d="M2.82 31.843L65.19 1.667a16.53 16.53 0 0 1 13.289-.519l58.346 22.93c2.566 1.01 3.834 3.923 2.832 6.508a5.01 5.01 0 0 1-2.51 2.71l-62.5 29.938a16.53 16.53 0 0 1-12.938.563L3.249 41.075C.667 40.106-.647 37.213.315 34.613a5.012 5.012 0 0 1 2.506-2.77z" transform="translate(221 .5)"/>
        </g>
        <g>
            <path fill="#393A62" d="M171.388 240.69c3.317-1.169 8.548-.82 11.68.78l182.784 66.664h15.152v3.966c.244 1.1-.609 2.184-2.592 2.884l-134.294 65.007c-3.317 1.17-8.568.854-11.722-.71L34.4 306.684c-1.71-.847-2.453-1.886-2.248-2.846l-.033-4.759 21.363.793 117.906-59.181z"/>
            <path fill="#F4F6F9" d="M34.699 297.704c-3.32 1.172-3.454 3.393-.299 4.961l75.67 27.81c0 1.014 1.023 2.221 2.288 2.697l38.546 14.513c1.263.476 2.288-.224 2.288-1.362l79.227 29.117c3.155 1.568 8.407 1.885 11.723.712l134.31-65.167c3.32-1.174 3.472-3.426.34-5.03l-195.706-73.436c-3.133-1.604-8.365-1.952-11.682-.78L34.699 297.704z"/>
            <path fill="#C6E0FD" d="M104.7 316.871c-1.126.396-1.172 1.146-.1 1.676l67.217 24.578c1.07.529 2.853.636 3.979.24l45.591-22.008c1.127-.397 1.179-1.157.116-1.699l-66.433-24.8c-1.063-.542-2.839-.66-3.965-.264l-46.404 22.277z" opacity=".5"/>
            <path fill="#1D1E3A" d="M178.14 224.658c0 3.601 2.607 7.835 5.818 9.455l190.68 72.123c.956.483 1.948 3.436 3.136 3.021 2.803-.979 5.832-2.88 5.832-5.41V129.853c0-3.596-2.617-7.824-5.832-9.438L184.859 53.868c-4.636-1.049-9.08 1.702-9.08 5.302l2.36 165.488z"/>
            <path fill="#393A62" d="M175.53 226.48c0 3.594 2.608 7.82 5.82 9.436l193.875 73.16c3.214 1.618 5.82.025 5.82-3.57V132.754c0-3.589-2.617-7.808-5.833-9.419L181.364 56.046c-3.322-1.279-5.833.188-5.833 3.781V226.48z"/>
            <path fill="#FFF" d="M185.774 227.547l185.667 66.813V137.79L185.774 74.999z"/>
            <path fill="#393A62" fill-rule="nonzero" d="M313.102 296.971l3.27-1.526c.785-.367.71-.943-.166-1.262l-8.546-3.112c-.875-.319-2.27-.279-3.057.088l-3.268 1.526c-.786.367-.71.943.165 1.262l8.546 3.112c.875.32 2.27.279 3.056-.088zm-17.88 42.492l3.08-1.438c.786-.367.71-.943-.165-1.262l-8.546-3.112c-.875-.319-2.27-.278-3.056.088l-3.08 1.439c-.786.366-.746.93.165 1.261l8.545 3.113c.876.318 2.272.278 3.057-.089zM178.47 257.58l7.67-3.581c.785-.367.71-.943-.166-1.262l-8.546-3.112c-.875-.319-2.27-.278-3.056.088l-7.67 3.581c-.785.367-.71.943.166 1.262l8.546 3.112c.875.319 2.27.279 3.056-.088zm-13.098-4.77l7.669-3.581c.785-.367.71-.943-.166-1.262l-8.545-3.112c-.876-.32-2.271-.279-3.057.088l-7.669 3.58c-.786.368-.71.944.165 1.263l8.546 3.112c.876.319 2.271.278 3.057-.089zm39.296 14.31l7.668-3.58c.786-.367.71-.943-.165-1.262l-8.545-3.112c-.876-.32-2.272-.279-3.057.088l-7.67 3.58c-.785.368-.71.944.166 1.262l8.546 3.113c.875.319 2.27.278 3.057-.089zm-13.099-4.77l7.669-3.58c.786-.368.71-.944-.165-1.263l-8.546-3.112c-.876-.319-2.271-.278-3.057.089l-7.669 3.58c-.785.367-.71.943.166 1.262l8.545 3.112c.876.32 2.271.279 3.057-.088zm39.436 14.362l7.669-3.58c.785-.368.71-.944-.166-1.263l-8.545-3.112c-.876-.319-2.271-.278-3.057.089l-7.669 3.58c-.786.367-.71.943.165 1.262l8.546 3.112c.876.32 2.271.279 3.057-.088zm-13.134-4.783l7.67-3.58c.785-.368.71-.944-.166-1.263l-8.546-3.112c-.875-.319-2.27-.278-3.057.088l-7.668 3.581c-.786.367-.71.943.165 1.262l8.545 3.112c.876.32 2.271.279 3.057-.088zm39.33 14.323l7.67-3.58c.786-.367.71-.943-.166-1.262l-8.545-3.112c-.876-.32-2.271-.279-3.057.088l-7.669 3.58c-.785.368-.71.944.166 1.263l8.545 3.112c.876.319 2.271.278 3.057-.089zm-13.098-4.77l7.67-3.58c.785-.368.71-.944-.166-1.262l-8.546-3.113c-.875-.318-2.27-.278-3.056.089l-7.67 3.58c-.785.367-.71.943.166 1.262l8.546 3.112c.875.32 2.27.279 3.056-.088zm26.303 9.579l7.668-3.58c.786-.368.71-.944-.165-1.263l-8.545-3.112c-.876-.319-2.272-.278-3.057.089l-7.67 3.58c-.785.367-.71.943.166 1.262l8.546 3.112c.875.32 2.27.279 3.057-.088zm26.302 9.579l7.669-3.581c.785-.367.71-.943-.166-1.262l-8.545-3.112c-.876-.319-2.271-.278-3.057.088l-7.669 3.581c-.786.367-.71.943.165 1.262l8.546 3.112c.876.319 2.271.279 3.057-.088zm-13.099-4.77l7.67-3.581c.785-.367.71-.943-.166-1.262l-8.546-3.112c-.875-.32-2.27-.279-3.057.088l-7.668 3.58c-.786.368-.71.944.165 1.263l8.545 3.112c.876.319 2.271.278 3.057-.088zm39.33 14.323l7.67-3.58c.786-.368.71-.944-.166-1.262l-8.545-3.113c-.876-.318-2.271-.278-3.057.089l-7.669 3.58c-.786.367-.71.943.166 1.262l8.545 3.112c.876.32 2.271.279 3.057-.088zm-16.19-4.695c.876.32 2.272.279 3.092-.075l7.67-3.581c.785-.367.71-.943-.166-1.262l-8.546-3.112c-.875-.319-2.27-.278-3.056.088l-7.67 3.581c-.785.367-.71.943.166 1.262l8.51 3.1zm-29.206-9.852c-.805-.294-2.068-.257-2.79.08l-7.67 3.581c-.723.338-.654.859.151 1.152l8.546 3.112c.805.294 2.068.257 2.79-.08l7.67-3.581c.723-.338.654-.859-.151-1.152l-8.546-3.112zm27.467 17.447l7.668-3.58c.786-.368.71-.944-.165-1.263l-8.546-3.112c-.875-.319-2.27-.278-3.056.089l-7.67 3.58c-.785.367-.71.943.166 1.262l8.546 3.112c.875.32 2.27.279 3.057-.088zm-13.1-4.77l7.67-3.581c.786-.367.71-.943-.166-1.262l-8.545-3.112c-.876-.319-2.271-.279-3.057.088l-7.669 3.581c-.785.367-.71.943.166 1.262l8.545 3.112c.876.319 2.271.279 3.057-.088zm39.332 14.323l7.669-3.58c.785-.367.71-.943-.166-1.262l-8.545-3.112c-.876-.32-2.271-.279-3.057.088l-7.669 3.58c-.786.368-.745.93.165 1.262l8.546 3.113c.875.318 2.27.278 3.057-.089zm-13.099-4.77l7.669-3.58c.786-.368.71-.944-.165-1.263l-8.546-3.112c-.876-.319-2.271-.278-3.057.089l-7.669 3.58c-.785.367-.71.943.166 1.262l8.545 3.112c.876.32 2.271.279 3.057-.088zm-105.139-38.29l7.67-3.58c.785-.367.71-.943-.166-1.262l-8.546-3.112c-.875-.32-2.27-.279-3.057.088l-7.668 3.58c-.786.368-.71.944.165 1.262l8.546 3.113c.875.318 2.27.278 3.056-.089zm26.303 9.58l7.668-3.582c.786-.367.71-.943-.165-1.261l-8.545-3.113c-.876-.319-2.272-.278-3.057.089l-7.67 3.58c-.785.367-.71.943.166 1.262l8.546 3.112c.875.32 2.27.279 3.057-.088zm-13.099-4.771l7.669-3.581c.786-.367.71-.943-.165-1.262l-8.546-3.112c-.876-.319-2.271-.278-3.057.088l-7.669 3.581c-.785.367-.71.943.166 1.262l8.545 3.112c.876.319 2.271.279 3.057-.088zm-52.534-19.132l7.668-3.581c.786-.367.71-.943-.165-1.262l-8.545-3.112c-.876-.319-2.271-.279-3.057.088l-7.67 3.581c-.785.367-.71.943.166 1.262l8.546 3.112c.875.319 2.27.279 3.057-.088zm26.302 9.578l7.669-3.58c.785-.367.71-.943-.166-1.262l-8.545-3.112c-.876-.32-2.271-.279-3.057.088l-7.669 3.58c-.786.368-.71.944.165 1.263l8.546 3.112c.876.319 2.271.278 3.057-.089zm-13.099-4.77l7.67-3.58c.785-.367.71-.943-.166-1.262l-8.546-3.113c-.875-.318-2.27-.278-3.057.089l-7.668 3.58c-.786.367-.71.944.165 1.262l8.545 3.113c.876.318 2.272.278 3.057-.089zm78.627 28.635l7.669-3.581c.785-.367.71-.943-.166-1.262l-8.545-3.112c-.876-.319-2.271-.279-3.057.088l-7.669 3.581c-.786.367-.71.943.165 1.262l8.546 3.112c.875.319 2.27.278 3.057-.088zm-13.099-4.77l7.669-3.581c.786-.367.71-.943-.165-1.262l-8.546-3.112c-.875-.32-2.271-.279-3.057.088l-7.669 3.58c-.785.368-.71.944.166 1.263l8.545 3.112c.876.319 2.271.278 3.057-.089zm17.86 16.169l7.67-3.581c.785-.367.71-.943-.166-1.262l-8.546-3.112c-.875-.319-2.27-.279-3.056.088l-7.67 3.581c-.785.367-.71.943.166 1.262l8.546 3.112c.875.319 2.27.279 3.056-.088zm26.303 9.579l7.668-3.581c.786-.367.71-.943-.165-1.262l-8.545-3.112c-.876-.32-2.271-.279-3.057.088l-7.67 3.58c-.785.368-.71.944.166 1.263l8.546 3.112c.875.319 2.27.278 3.057-.088zm-13.099-4.77l7.669-3.582c.786-.366.71-.942-.165-1.261l-8.546-3.112c-.876-.32-2.271-.279-3.057.088l-7.669 3.58c-.785.368-.71.944.166 1.262l8.545 3.113c.876.318 2.271.278 3.057-.089zm-78.907-28.737l7.67-3.581c.785-.367.71-.943-.166-1.262l-8.546-3.112c-.875-.319-2.27-.278-3.056.088l-7.67 3.581c-.785.367-.71.943.166 1.262l8.546 3.112c.875.319 2.27.279 3.056-.088zm26.303 9.579l7.668-3.581c.786-.367.71-.943-.165-1.262l-8.545-3.112c-.876-.319-2.271-.279-3.057.088l-7.669 3.581c-.786.367-.71.943.165 1.262l8.546 3.112c.875.319 2.27.278 3.057-.088zm-13.099-4.77l7.669-3.581c.786-.367.71-.943-.165-1.262l-8.546-3.112c-.876-.32-2.271-.279-3.057.088l-7.669 3.58c-.785.368-.71.944.166 1.263l8.545 3.112c.876.319 2.271.278 3.057-.089zm-52.534-19.133l7.669-3.58c.785-.367.71-.943-.166-1.262l-8.545-3.113c-.876-.318-2.271-.278-3.057.089l-7.669 3.58c-.786.368-.71.944.165 1.262l8.546 3.113c.875.318 2.271.278 3.057-.089zm26.302 9.579l7.669-3.58c.786-.368.71-.944-.166-1.263l-8.545-3.112c-.876-.319-2.271-.278-3.057.089l-7.669 3.58c-.785.367-.71.943.166 1.262l8.545 3.112c.876.32 2.271.279 3.057-.088zm-13.099-4.77l7.67-3.581c.785-.367.71-.943-.166-1.262l-8.546-3.112c-.875-.319-2.27-.278-3.056.088l-7.67 3.581c-.785.367-.71.943.166 1.262l8.546 3.112c.875.319 2.27.279 3.056-.088zm75.57 28.723c.876.318 2.271.278 3.092-.076l7.669-3.58c.785-.368.71-.944-.166-1.263l-8.545-3.112c-.876-.319-2.271-.278-3.057.089l-7.669 3.58c-.786.367-.71.943.165 1.262l8.511 3.1zm-10.042-4.86l7.67-3.58c.785-.367.71-.943-.166-1.262l-8.546-3.112c-.875-.319-2.27-.278-3.057.089l-7.668 3.58c-.786.367-.71.943.165 1.262l8.545 3.112c.876.32 2.271.279 3.057-.088zm21.345 17.309l7.669-3.581c.785-.367.71-.943-.166-1.262l-8.545-3.112c-.876-.319-2.271-.279-3.057.088l-7.669 3.581c-.786.367-.71.943.165 1.262l8.546 3.112c.876.319 2.271.278 3.057-.088zm13.203 4.808l7.67-3.58c.785-.368.71-.944-.166-1.262l-8.546-3.113c-.875-.318-2.27-.278-3.056.089l-7.67 3.58c-.785.367-.71.943.166 1.262l8.546 3.112c.875.32 2.27.279 3.056-.088zm-78.906-28.736l7.669-3.581c.785-.367.71-.943-.166-1.262l-8.545-3.112c-.876-.319-2.271-.279-3.057.088l-7.669 3.581c-.786.367-.71.943.165 1.262l8.546 3.112c.876.319 2.271.279 3.057-.088zm26.302 9.578l7.669-3.58c.786-.367.71-.943-.165-1.262l-8.546-3.112c-.876-.32-2.271-.279-3.057.088l-7.669 3.58c-.785.368-.71.944.166 1.263l8.545 3.112c.876.319 2.271.278 3.057-.089zm-13.098-4.77l7.668-3.58c.786-.367.71-.943-.165-1.262l-8.546-3.113c-.875-.318-2.27-.278-3.056.089l-7.67 3.58c-.785.367-.71.944.166 1.262l8.546 3.113c.875.318 2.27.278 3.057-.089zm-52.535-19.132l7.669-3.58c.786-.368.71-.944-.165-1.262l-8.546-3.113c-.875-.319-2.27-.278-3.057.089l-7.669 3.58c-.785.367-.71.943.166 1.262l8.545 3.112c.876.32 2.271.279 3.057-.088zm-42.078-4.745l8.675-4.05c.911-.426.898-1.031.023-1.35l-8.546-3.112c-.875-.32-2.334-.25-3.245.176l-8.675 4.05c-.911.426-.899 1.031-.023 1.35l8.546 3.112c.875.32 2.334.25 3.245-.176zm13.099 4.77l8.674-4.05c.912-.426.899-1.031.023-1.35l-8.545-3.112c-.876-.319-2.334-.25-3.246.176l-8.674 4.05c-.912.426-.899 1.032-.023 1.35l8.545 3.113c.876.319 2.334.249 3.246-.177zm13.098 4.77l8.675-4.05c.911-.425.899-1.03.023-1.35l-8.546-3.112c-.875-.319-2.334-.249-3.245.177l-8.675 4.05c-.911.426-.898 1.031-.023 1.35l8.546 3.112c.875.319 2.334.25 3.245-.176zm111.688 40.676l8.675-4.05c.911-.426.899-1.032.023-1.35l-8.546-3.113c-.875-.319-2.334-.249-3.245.177l-8.675 4.05c-.911.426-.898 1.03-.023 1.35l8.546 3.112c.875.319 2.334.25 3.245-.176zm-69.505-35.892l7.67-3.58c.785-.368.71-.944-.166-1.263l-8.546-3.112c-.875-.319-2.27-.278-3.056.089l-7.67 3.58c-.785.367-.71.943.166 1.262l8.546 3.112c.875.32 2.27.279 3.056-.088zm-13.098-4.77l7.669-3.581c.785-.367.71-.943-.166-1.262l-8.545-3.112c-.876-.319-2.271-.279-3.057.088l-7.669 3.581c-.786.367-.71.943.165 1.262l8.546 3.112c.876.319 2.271.279 3.057-.088zm78.626 28.634l7.67-3.58c.785-.368.71-.944-.166-1.263l-8.546-3.112c-.875-.319-2.27-.278-3.057.089l-7.668 3.58c-.786.367-.71.943.165 1.262l8.545 3.112c.876.32 2.271.279 3.057-.088zm-13.098-4.77l7.668-3.581c.786-.367.71-.943-.165-1.262l-8.545-3.112c-.876-.319-2.271-.278-3.057.088l-7.669 3.581c-.786.367-.71.943.165 1.262l8.546 3.112c.875.319 2.27.279 3.057-.088zm-62.037-60.86l3.27-1.527c.785-.367.71-.943-.166-1.262l-8.546-3.112c-.875-.319-2.27-.278-3.057.088l-3.268 1.527c-.786.367-.71.943.165 1.261l8.546 3.113c.875.319 2.27.278 3.056-.089zm13.764 5.012l3.27-1.526c.785-.367.71-.943-.166-1.262l-8.546-3.112c-.875-.32-2.27-.279-3.057.088l-3.268 1.526c-.786.367-.71.943.165 1.262l8.546 3.112c.875.32 2.27.279 3.056-.088zm13.484 4.91l3.269-1.526c.786-.367.71-.943-.165-1.262l-8.546-3.112c-.875-.319-2.271-.278-3.057.089l-3.268 1.526c-.786.367-.71.943.165 1.262l8.545 3.112c.876.319 2.272.278 3.057-.089zm13.764 5.013l3.269-1.526c.786-.367.71-.943-.165-1.262l-8.546-3.112c-.875-.319-2.271-.279-3.057.088l-3.268 1.527c-.786.366-.71.942.165 1.261l8.545 3.112c.876.32 2.272.279 3.057-.088zm13.344 4.86l3.269-1.527c.785-.366.71-.942-.166-1.261l-8.545-3.113c-.876-.318-2.271-.278-3.057.089l-3.269 1.526c-.785.367-.71.943.166 1.262l8.545 3.112c.876.319 2.271.279 3.057-.088zm13.799 5.025l3.269-1.526c.785-.367.71-.943-.166-1.262l-8.545-3.112c-.876-.319-2.271-.279-3.057.088l-3.269 1.526c-.785.367-.745.93.166 1.262l8.545 3.112c.876.32 2.271.279 3.057-.088zm13.589 4.949l3.269-1.526c.785-.367.71-.943-.166-1.262l-8.545-3.112c-.876-.32-2.271-.279-3.057.088l-3.269 1.526c-.786.367-.71.943.165 1.262l8.546 3.112c.876.32 2.271.279 3.057-.088zm13.764 5.012l3.269-1.526c.785-.367.71-.943-.166-1.262l-8.545-3.112c-.876-.319-2.271-.278-3.057.089l-3.269 1.526c-.786.367-.71.943.165 1.262l8.546 3.112c.876.319 2.271.278 3.057-.089zm13.484 4.911l3.268-1.526c.786-.367.71-.943-.165-1.262l-8.545-3.112c-.876-.319-2.272-.279-3.057.088l-3.269 1.526c-.786.367-.71.943.165 1.262l8.546 3.112c.875.32 2.271.279 3.057-.088zm13.764 5.013l3.268-1.527c.786-.366.71-.942-.165-1.261l-8.545-3.112c-.876-.32-2.272-.279-3.057.088l-3.269 1.526c-.786.367-.71.943.165 1.262l8.546 3.112c.875.319 2.271.279 3.057-.088zm27.142 9.885l3.27-1.527c.785-.367.71-.943-.166-1.261l-8.546-3.113c-.875-.318-2.27-.278-3.057.089l-3.268 1.526c-.786.367-.71.943.165 1.262l8.546 3.112c.875.319 2.27.278 3.056-.088zm13.52 4.923l3.268-1.526c.786-.367.71-.943-.165-1.262l-8.546-3.112c-.875-.32-2.271-.279-3.057.088l-3.268 1.526c-.786.367-.71.943.165 1.262l8.545 3.112c.876.32 2.272.279 3.057-.088zm13.798 5.025l3.269-1.526c.786-.367.71-.943-.165-1.262l-8.546-3.112c-.875-.319-2.27-.278-3.057.088l-3.268 1.527c-.786.367-.746.93.165 1.261l8.546 3.113c.875.319 2.27.278 3.056-.089zm-193.75-51.492l7.669-3.58c.786-.367.71-.943-.165-1.262l-14.955-5.446c-.876-.32-2.271-.279-3.057.088l-7.669 3.58c-.786.368-.71.944.165 1.262l14.955 5.447c.876.319 2.271.278 3.057-.089zm-11.324 6.743c.876.319 2.271.279 3.057-.088l7.669-3.581c.786-.367.71-.943-.165-1.262l-18.317-6.67c-.876-.32-2.271-.28-3.057.088l-7.669 3.58c-.786.367-.71.943.165 1.262l18.317 6.671zm-1.69 7.717l7.669-3.58c.785-.368.71-.944-.166-1.262l-25.041-9.12c-.876-.319-2.271-.279-3.057.088l-7.669 3.581c-.785.367-.71.943.166 1.262l25.04 9.12c.877.318 2.272.278 3.058-.089zm13.14 15.521l9.051-4.226c.786-.367.71-.943-.165-1.262l-11.768-4.286c-.876-.319-2.271-.278-3.057.089l-9.052 4.226c-.785.367-.71.943.166 1.262l11.767 4.286c.876.318 2.271.278 3.057-.089zm81.813 29.795l9.051-4.226c.786-.367.71-.943-.165-1.262l-11.768-4.286c-.875-.318-2.27-.278-3.056.089l-9.052 4.226c-.786.367-.71.943.165 1.262l11.768 4.286c.875.318 2.271.278 3.057-.089zm97.157-2.78c.876.319 2.271.278 3.022-.101l7.669-3.581c.785-.367.71-.943-.166-1.262l-15.34-5.586c-.875-.32-2.27-.279-3.057.088l-7.668 3.58c-.786.368-.71.944.165 1.263l15.375 5.599zm-19.918 10.64l7.669-3.582c.785-.367.71-.943-.166-1.261l-18.492-6.735c-.875-.319-2.27-.278-3.057.088l-7.669 3.581c-.785.367-.71.943.166 1.262l18.492 6.734c.875.32 2.27.279 3.057-.088zm-11.472 5.356l7.669-3.581c.785-.367.71-.943-.166-1.262l-24.97-9.094c-.876-.319-2.272-.279-3.058.088l-7.669 3.581c-.785.367-.71.943.166 1.262l24.971 9.094c.876.319 2.271.279 3.057-.088zm-39.15-3.522l3.08-1.438c.786-.367.71-.943-.165-1.262l-8.546-3.112c-.875-.32-2.27-.279-3.056.088l-3.08 1.438c-.786.367-.71.943.165 1.262l8.545 3.112c.876.32 2.271.279 3.057-.088zm13.134 4.783l9.051-4.227c.786-.366.71-.943-.165-1.261l-8.545-3.113c-.876-.318-2.272-.278-3.057.089l-9.052 4.226c-.786.367-.71.943.165 1.262l8.546 3.112c.875.32 2.271.279 3.057-.088zm-56.037-20.408l9.052-4.226c.786-.367.71-.943-.165-1.262l-60.975-22.206c-.876-.319-2.271-.279-3.057.088l-9.052 4.227c-.786.367-.71.943.165 1.262l60.975 22.206c.876.319 2.271.278 3.057-.089z"/>
            <path fill="#F4F6F9" d="M357.371 148.096L200.927 98.341v114.611l156.444 58.107z"/>
            <path fill="#C6E0FD" d="M231.716 108.36l-30.79-10.02V213.55l30.79 11.01z"/>
            <g fill="#49A13E">
                <path d="M210.1 112.082v5.395l-4.688-1.474v-5.39l4.689 1.469zm0 10.898v5.395l-4.688-1.486V121.5l4.689 1.48zm0 11.54v5.395l-4.688-1.499v-5.389l4.689 1.493zm0 10.899v5.395l-4.688-1.511v-5.39l4.689 1.506zm0 10.898v5.395l-4.688-1.522v-5.39l4.689 1.517zm0 10.899v5.395l-4.688-1.535v-5.389l4.689 1.529zM226.596 117.637v2.131l-13.395-4.356v-2.125l13.395 4.35zm0 10.88v2.131l-13.395-4.391v-2.124l13.395 4.384zm0 10.88v2.13l-13.395-4.425v-2.124l13.395 4.419zm0 11.52v2.13l-13.395-4.462v-2.124l13.395 4.455zm0 10.88v2.13l-13.395-4.497v-2.124l13.395 4.49zm0 10.879v2.13l-13.395-4.53v-2.125l13.395 4.525z"/>
            </g>
            <g opacity=".9" transform="translate(236.71 123.252)">
                <use fill="#000" filter="url(#h)" xlink:href="#i"/>
                <use fill="#FFF" xlink:href="#i"/>
                <path stroke="#F3F4F6" stroke-width="1.2" d="M114.67 37.572L1.434.65C.948.48.6.771.6 1.455V76.83c0 .831.584 1.741 1.244 1.984l113.24 42.596c.479.184.817-.098.817-.804V39.598c0-.855-.58-1.78-1.23-2.026z"/>
            </g>
            <path fill="#D8D8D8" d="M350.567 169.069l-9.858-3.817v1.992l9.858 3.82zM320.567 159.06l-9.858-3.808v2l9.858 3.813zM292.567 150.052l-9.858-3.8v2.008l9.858 3.805zM263.567 142.044l-9.858-3.792v2.016l9.858 3.797z"/>
            <path stroke="#C6E0FD" stroke-linecap="square" stroke-width="1.2" d="M346.937 210.442L243.88 172.244M346.937 200.477L243.88 162.28M346.937 188.022L243.88 150.654M346.937 220.406L243.88 182.21M346.937 231.201L243.88 193.004" opacity=".3"/>
            <path fill="#FBA525" d="M247 179.231l12-.318v20l-12-4.495z"/>
            <path fill="#FCCB3C" d="M259 178.913l12 12.713v11.7l-12-4.495z"/>
            <path fill="#FBA525" d="M271 191.388l12-15.65v32l-12-4.495z"/>
            <path fill="#FCCB3C" d="M283 175.738l12 10.127v26.286l-12-4.495z"/>
            <path fill="#FBA525" d="M295 186.06l12-5.497v36l-12-4.494z"/>
            <path fill="#FCCB3C" d="M307 180.445l12-7.47v48l-12-4.494z"/>
            <path fill="#FBA525" d="M319 172.976l12 16.034v36.379l-12-4.495z"/>
            <path fill="#FCCB3C" d="M331 188.938l12-5.137v46l-12-4.494zM337.053 166.313c-.742-.333-1.344-1.493-1.344-2.59 0-1.095.602-1.714 1.344-1.38.743.332 1.345 1.492 1.345 2.589s-.602 1.715-1.345 1.381zM307.053 156.314c-.742-.332-1.344-1.49-1.344-2.587 0-1.097.602-1.717 1.344-1.386.743.332 1.345 1.49 1.345 2.588 0 1.097-.602 1.717-1.345 1.385zM279.053 148.315c-.742-.33-1.344-1.488-1.344-2.586 0-1.097.602-1.719 1.344-1.389.743.33 1.345 1.489 1.345 2.586 0 1.098-.602 1.72-1.345 1.389zM249.053 140.316c-.742-.33-1.344-1.486-1.344-2.584s.602-1.721 1.344-1.392c.743.329 1.345 1.486 1.345 2.584s-.602 1.721-1.345 1.392z"/>
        </g>
    </g>
</svg>
