<svg xmlns="http://www.w3.org/2000/svg" xmlns:xlink="http://www.w3.org/1999/xlink" width="364" height="464" viewBox="0 0 364 464">
    <defs>
        <linearGradient id="a" x1="100%" x2="0%" y1="92.338%" y2="92.338%">
            <stop offset="0%" stop-color="#FFF" stop-opacity="0"/>
            <stop offset="20.148%" stop-color="#FBA525"/>
            <stop offset="51.787%" stop-color="#FFD75A"/>
            <stop offset="79.907%" stop-color="#46D37A"/>
            <stop offset="100%" stop-color="#FFF" stop-opacity="0"/>
        </linearGradient>
        <linearGradient id="b" x1="36.904%" x2="19.214%" y1="35.516%" y2="66.224%">
            <stop offset="0%" stop-color="#FCCE3E"/>
            <stop offset="100%" stop-color="#FBA525"/>
        </linearGradient>
        <linearGradient id="c" x1="-113.303%" x2="141.838%" y1="43.929%" y2="88.283%">
            <stop offset="0%" stop-color="#5AF941"/>
            <stop offset="100%" stop-color="#13A23E"/>
        </linearGradient>
        <path id="e" d="M20.596 60.872L142.3 2.788c.97-.463 1.756.154 1.756 1.379v54.019c0 1.224-.786 2.592-1.756 3.054L20.596 119.325c-.97.463-1.756-.155-1.756-1.379v-14.59L4.568 98.357 18.84 77.29V63.927c0-1.224.786-2.592 1.756-3.055z"/>
        <filter id="d" width="128.7%" height="134.2%" x="-21.5%" y="-17.1%" filterUnits="objectBoundingBox">
            <feOffset dx="-10" in="SourceAlpha" result="shadowOffsetOuter1"/>
            <feGaussianBlur in="shadowOffsetOuter1" result="shadowBlurOuter1" stdDeviation="5"/>
            <feComposite in="shadowBlurOuter1" in2="SourceAlpha" operator="out" result="shadowBlurOuter1"/>
            <feColorMatrix in="shadowBlurOuter1" values="0 0 0 0 0.0352941176 0 0 0 0 0.505882353 0 0 0 0 0.745098039 0 0 0 0.2 0"/>
        </filter>
        <linearGradient id="f" x1="38.887%" x2="92.9%" y1="100%" y2="14.788%">
            <stop offset="0%" stop-color="#31CD73"/>
            <stop offset="100%" stop-color="#A1EB97"/>
        </linearGradient>
        <path id="h" d="M80.922 2.88L6.596 38.222c-.975.457-1.766 1.82-1.766 3.046v54.076c0 1.226.79 1.85 1.766 1.393l74.326-35.342c.976-.457 1.767-1.82 1.767-3.046V43.743L97.05 25.198 82.69 17.65V4.273c0-1.226-.791-1.85-1.767-1.393z"/>
        <filter id="g" width="143.4%" height="142.5%" x="-32.5%" y="-21.2%" filterUnits="objectBoundingBox">
            <feOffset dx="-10" in="SourceAlpha" result="shadowOffsetOuter1"/>
            <feGaussianBlur in="shadowOffsetOuter1" result="shadowBlurOuter1" stdDeviation="5"/>
            <feComposite in="shadowBlurOuter1" in2="SourceAlpha" operator="out" result="shadowBlurOuter1"/>
            <feColorMatrix in="shadowBlurOuter1" values="0 0 0 0 0.0352941176 0 0 0 0 0.505882353 0 0 0 0 0.745098039 0 0 0 0.2 0"/>
        </filter>
        <path id="j" d="M20.596 60.872L142.3 2.788c.97-.463 1.756.154 1.756 1.379v54.019c0 1.224-.786 2.592-1.756 3.054L20.596 119.325c-.97.463-1.756-.155-1.756-1.379v-14.59L4.568 98.357 18.84 77.29V63.927c0-1.224.786-2.592 1.756-3.055z"/>
        <filter id="i" width="128.7%" height="134.2%" x="-21.5%" y="-17.1%" filterUnits="objectBoundingBox">
            <feOffset dx="-10" in="SourceAlpha" result="shadowOffsetOuter1"/>
            <feGaussianBlur in="shadowOffsetOuter1" result="shadowBlurOuter1" stdDeviation="5"/>
            <feComposite in="shadowBlurOuter1" in2="SourceAlpha" operator="out" result="shadowBlurOuter1"/>
            <feColorMatrix in="shadowBlurOuter1" values="0 0 0 0 0.0352941176 0 0 0 0 0.505882353 0 0 0 0 0.745098039 0 0 0 0.2 0"/>
        </filter>
        <path id="l" d="M80.922 2.88L6.596 38.222c-.975.457-1.766 1.82-1.766 3.046v54.076c0 1.226.79 1.85 1.766 1.393l74.326-35.342c.976-.457 1.767-1.82 1.767-3.046V43.743L97.05 25.198 82.69 17.65V4.273c0-1.226-.791-1.85-1.767-1.393z"/>
        <filter id="k" width="143.4%" height="142.5%" x="-32.5%" y="-21.2%" filterUnits="objectBoundingBox">
            <feOffset dx="-10" in="SourceAlpha" result="shadowOffsetOuter1"/>
            <feGaussianBlur in="shadowOffsetOuter1" result="shadowBlurOuter1" stdDeviation="5"/>
            <feComposite in="shadowBlurOuter1" in2="SourceAlpha" operator="out" result="shadowBlurOuter1"/>
            <feColorMatrix in="shadowBlurOuter1" values="0 0 0 0 0.0352941176 0 0 0 0 0.505882353 0 0 0 0 0.745098039 0 0 0 0.2 0"/>
        </filter>
    </defs>
    <g fill="none" fill-rule="evenodd">
        <path stroke="url(#a)" stroke-linecap="round" stroke-linejoin="round" stroke-width="5" d="M.73 361.51c15.932-14.91 29.545-61.046 40.839-78.407 16.94-26.043 21.175-36.24 40.536-37.892 19.36-1.652 24.503-15.24 26.923-2.785 2.42 12.454 17.545-15.883 18.755-4.055 1.21 11.828 16.94 12.488 18.756-13.75 1.815-26.238 8.773-16.127 22.083-29.518 13.31-13.391 9.983-.053 22.386-10.962 12.402-10.91 18.15-40.856 31.763-35.396 13.613 5.46 16.335-8.04 32.973-18.12 16.638-10.078 30.554-24.518 39.326-49.113 8.773-24.596 31.407-32.521 36.118-5.104 4.711 27.417 33.762 6.94 33.762 25.836" transform="translate(-1)"/>
        <path stroke="#99D6F0" d="M32.94 158.843v69.967l69.967-33.6v-69.968l-69.967 33.6zm0-.693l69.967-33.6v-22.408l.693 22.075 69.967-33.6V68.208l.693 22.074 69.967-33.6V34.275l.693 22.075 69.967-33.6V.342l.693 22.075 22.407-10.76L315.58 23.11v69.967l22.407-10.761L315.58 93.77v69.967l22.407-10.761-22.407 11.453v69.968l22.407-10.761-22.407 11.453v69.967l22.407-10.76-22.407 11.453v22.408l-.693-22.075-69.967 33.6v22.408l-.693-22.075-69.967 33.6v22.408l-.693-22.075-69.967 33.6v22.408l-.693-22.074-69.967 33.6v22.408l-.692-22.075-22.408 10.76 22.408-11.453v-69.967L9.84 381.915l22.408-11.453v-69.967L9.84 311.255l22.408-11.453v-69.967L9.84 240.596l22.408-11.454v-69.967L9.84 169.936l22.408-11.453v-22.408l.692 22.075zM314.887 23.442l-69.967 33.6v69.968l69.967-33.6V23.441zm-70.66 33.934l-69.967 33.6v69.967l69.967-33.6V57.376zm-70.66 33.933l-69.967 33.6v69.968l69.967-33.601V91.309zM32.94 299.469l69.967-33.6v-69.967l-69.967 33.6v69.968zM314.887 94.103l-69.967 33.6v69.968l69.967-33.6V94.101zm-70.66 33.933l-69.967 33.601v69.967l69.967-33.6v-69.968zM103.6 195.57v69.967l69.967-33.6v-69.967l-69.967 33.6zM32.94 370.13l69.967-33.6v-69.967l-69.967 33.6v69.968zm211.98-171.766v69.967l69.967-33.6v-69.968l-69.967 33.6zm-70.66 33.933v69.967l69.967-33.6v-69.968l-69.967 33.6zm-70.66 33.933v69.967l69.967-33.6v-69.967l-69.967 33.6zM32.94 370.822v69.967l69.967-33.6v-69.967l-69.967 33.6zm211.98-101.8v69.968l69.967-33.6v-69.968l-69.967 33.6zm-.693.333l-69.967 33.6v69.968l69.967-33.6v-69.968zM103.6 336.89v69.967l69.967-33.6v-69.968L103.6 336.89z" opacity=".4"/>
        <path fill="#FFD75A" d="M39.5 357.044l33.518-30.551v92.358L39.5 435.063z"/>
        <path fill="url(#b)" d="M34.018 191.509l33.519 8.335v67.794l-33.519 16.213z" transform="translate(39 135)"/>
        <path fill="#FFD75A" d="M106.537 334.844l33.518-75.97v127.552l-33.518 16.212z"/>
        <path fill="url(#b)" d="M101.055 123.628l33.519.56v111.026l-33.519 16.212z" transform="translate(39 135)"/>
        <path fill="#FFD75A" d="M173.574 259.39l33.518-44.908v139.52l-33.518 16.212z"/>
        <path fill="url(#b)" d="M168.092 79.958l33.518-52.06V202.79l-33.518 16.212z" transform="translate(39 135)"/>
        <path fill="#FFD75A" d="M240.61 162.899l33.519 18.042v140.637L240.61 337.79z"/>
        <path fill="url(#b)" d="M235.129 45.32L268.647.387v169.978l-33.518 16.213z" transform="translate(39 135)"/>
        <g>
            <path fill="url(#c)" d="M15.484 58.94L139.723.475c1.078-.496 4.161-.63 4.177 3.25l-.924 51.519c0 1.224-.786 2.591-1.755 3.054l-121.059 61.19c-5.53 2.009-5.53-2.681-5.53-3.906v-13.79L.281 96.717 14.633 75.2V61.837c0-1.224-.118-2.434.852-2.896z" transform="translate(162.852 64.264)"/>
            <g opacity=".96" transform="translate(162.852 64.264)">
                <use fill="#000" filter="url(#d)" xlink:href="#e"/>
                <use fill="#FFF" xlink:href="#e"/>
                <path stroke="#F3F4F6" d="M5.346 98.101l13.994 4.9v14.945c0 .882.43 1.22 1.04.928l121.706-58.085c.788-.376 1.47-1.564 1.47-2.603V4.166c0-.881-.429-1.218-1.04-.927L20.812 61.324c-.788.376-1.47 1.564-1.47 2.603v13.517L5.345 98.1z"/>
            </g>
            <path fill="#FBA525" d="M230.814 119.474l42.013-19.81v6.196l-42.013 19.81z"/>
            <path fill="#C6E0FD" d="M230.814 130.705l60.7-28.623v3.099l-60.7 28.623zM230.814 136.127l44.687-21.072v3.099l-44.687 21.072z"/>
            <path fill="url(#f)" d="M15.025 62.276c8.287-3.908 15.005-14.878 15.005-24.504 0-9.625-6.718-14.26-15.005-10.352C6.74 31.327.021 42.298.021 51.923s6.718 14.26 15.004 10.353z" transform="translate(194.116 99.069)"/>
            <path fill="#FEFEFE" fill-rule="nonzero" d="M208.983 146.399c2.108-.995 4.028-5.369 4.028-9.178 0-3.304-1.468-4.507-4.028-3.3-2.56 1.208-4.028 3.795-4.028 7.099 0 3.809 1.92 6.373 4.028 5.379z"/>
            <path fill="#FEFEFE" fill-rule="nonzero" d="M216.84 145.356c-1.147-.263-3.55-.785-5-.898-.712 1.323-1.75 2.405-2.857 2.98-1.111.47-2.151.365-2.864-.29-1.457 1.479-3.855 4.273-4.997 5.619-.4.471-.644 1.09-.643 1.634v.93c0 .765.476 1.192 1.126 1.009a52.276 52.276 0 0 0 7.378-2.663 67.382 67.382 0 0 0 7.378-4.296c.65-.428 1.127-1.305 1.126-2.07v-.926c0-.546-.245-.936-.647-1.03z"/>
            <g>
                <path fill="url(#c)" d="M.966 36.79L77.842.252c1.084-.497 4.695-.63 4.71 3.254l-1.436 51.572c0 1.225-.791 2.594-1.767 3.058L5.676 97.176C.108 99.595.108 94.715.108 93.49V39.689c0-1.225-.117-2.436.858-2.899z" transform="translate(76 178.87)"/>
                <g opacity=".96" transform="translate(76 178.87)">
                    <use fill="#000" filter="url(#g)" xlink:href="#h"/>
                    <use fill="#FFF" xlink:href="#h"/>
                    <path stroke="#F3F4F6" d="M81.136 3.333L6.808 38.675c-.792.37-1.478 1.554-1.478 2.593v54.076c0 .885.437 1.229 1.051.941l74.33-35.343c.792-.37 1.478-1.554 1.478-2.593V43.572L96.29 25.363l-14.101-7.41V4.272c0-.884-.436-1.228-1.053-.94z"/>
                </g>
                <path fill="#FBA525" d="M88.589 232.595l11.387-5.63v6.203l-11.387 5.422z"/>
                <path fill="#C6E0FD" d="M88.589 243.63l19.467-9.204v3.102l-19.467 9.204zM88.589 249.058l11.597-5.3v3.102l-11.597 5.3zM88.589 254.486l11.597-5.3v3.101l-11.597 5.3z"/>
                <path fill="url(#f)" d="M55.068 63.506c-8.339 3.95-15.098-.657-15.098-10.293 0-9.635 6.76-20.65 15.098-24.6 8.338-3.951 15.098.657 15.098 10.293 0 9.635-6.76 20.649-15.098 24.6z" transform="translate(76 178.87)"/>
                <path fill="#FEFEFE" fill-rule="nonzero" d="M131.227 227.263c-2.121 1.005-4.053-1.552-4.053-5.365 0-3.308 1.477-5.904 4.053-7.125 2.576-1.22 4.054-.024 4.054 3.284 0 3.813-1.932 8.201-4.054 9.206z"/>
                <path fill="#FEFEFE" fill-rule="nonzero" d="M123.32 233.675c1.155-1.352 3.574-4.156 5.032-5.643.717.648 1.76.747 2.875.272 1.118-.583 2.165-1.676 2.882-3.008 1.466.098 3.88.62 5.029.883.402.093.647.482.646 1.027v.931c.001.765-.479 1.645-1.133 2.077a68.306 68.306 0 0 1-7.424 4.335 53.02 53.02 0 0 1-7.424 2.7c-.654.188-1.134-.237-1.133-1.003v-.928c0-.545.246-1.17.65-1.643z"/>
            </g>
            <g>
                <path fill="url(#c)" d="M15.484 58.94L139.723.475c1.078-.496 4.161-.63 4.177 3.25l-.924 51.519c0 1.224-.786 2.591-1.755 3.054l-121.059 61.19c-5.53 2.009-5.53-2.681-5.53-3.906v-13.79L.281 96.717 14.633 75.2V61.837c0-1.224-.118-2.434.852-2.896z" transform="translate(162.852 186.327)"/>
                <g opacity=".96" transform="translate(162.852 186.327)">
                    <use fill="#000" filter="url(#i)" xlink:href="#j"/>
                    <use fill="#FFF" xlink:href="#j"/>
                    <path stroke="#F3F4F6" d="M5.346 98.101l13.994 4.9v14.945c0 .882.43 1.22 1.04.928l121.706-58.085c.788-.376 1.47-1.564 1.47-2.603V4.166c0-.881-.429-1.218-1.04-.927L20.812 61.324c-.788.376-1.47 1.564-1.47 2.603v13.517L5.345 98.1z"/>
                </g>
                <path fill="#FBA525" d="M230.814 241.537l42.013-19.81v6.196l-42.013 19.81z"/>
                <path fill="#C6E0FD" d="M230.814 252.769l60.7-28.624v3.099l-60.7 28.623zM230.814 258.19l44.687-21.071v3.098l-44.687 21.072z"/>
                <path fill="url(#f)" d="M15.025 62.276c8.287-3.908 15.005-14.878 15.005-24.504 0-9.625-6.718-14.26-15.005-10.352C6.74 31.327.021 42.298.021 51.923s6.718 14.26 15.004 10.353z" transform="translate(194.116 221.132)"/>
                <path fill="#FEFEFE" fill-rule="nonzero" d="M208.983 268.462c2.108-.994 4.028-5.369 4.028-9.178 0-3.304-1.468-4.507-4.028-3.3-2.56 1.208-4.028 3.795-4.028 7.099 0 3.81 1.92 6.373 4.028 5.379z"/>
                <path fill="#FEFEFE" fill-rule="nonzero" d="M216.84 267.42c-1.147-.264-3.55-.786-5-.899-.712 1.323-1.75 2.405-2.857 2.98-1.111.47-2.151.365-2.864-.29-1.457 1.479-3.855 4.274-4.997 5.62-.4.47-.644 1.09-.643 1.634v.93c0 .765.476 1.192 1.126 1.008a52.276 52.276 0 0 0 7.378-2.663 67.382 67.382 0 0 0 7.378-4.295c.65-.43 1.127-1.306 1.126-2.07v-.927c0-.546-.245-.936-.647-1.029z"/>
                <g>
                    <path fill="url(#c)" d="M.966 36.79L77.842.252c1.084-.497 4.695-.63 4.71 3.254l-1.436 51.572c0 1.225-.791 2.594-1.767 3.058L5.676 97.176C.108 99.595.108 94.715.108 93.49V39.689c0-1.225-.117-2.436.858-2.899z" transform="translate(76 300.932)"/>
                    <g opacity=".96" transform="translate(76 300.932)">
                        <use fill="#000" filter="url(#k)" xlink:href="#l"/>
                        <use fill="#FFF" xlink:href="#l"/>
                        <path stroke="#F3F4F6" d="M81.136 3.333L6.808 38.675c-.792.37-1.478 1.554-1.478 2.593v54.076c0 .885.437 1.229 1.051.941l74.33-35.343c.792-.37 1.478-1.554 1.478-2.593V43.572L96.29 25.363l-14.101-7.41V4.272c0-.884-.436-1.228-1.053-.94z"/>
                    </g>
                    <path fill="#FBA525" d="M88.589 354.658l11.387-5.63v6.203l-11.387 5.422z"/>
                    <path fill="#C6E0FD" d="M88.589 365.693l19.467-9.203v3.101l-19.467 9.204zM88.589 371.12l11.597-5.299v3.102l-11.597 5.3zM88.589 376.549l11.597-5.3v3.101l-11.597 5.3z"/>
                    <path fill="url(#f)" d="M55.068 63.506c-8.339 3.95-15.098-.657-15.098-10.293 0-9.635 6.76-20.65 15.098-24.6 8.338-3.951 15.098.657 15.098 10.293 0 9.635-6.76 20.649-15.098 24.6z" transform="translate(76 300.932)"/>
                    <path fill="#FEFEFE" fill-rule="nonzero" d="M131.227 349.326c-2.121 1.006-4.053-1.552-4.053-5.365 0-3.307 1.477-5.904 4.053-7.125 2.576-1.22 4.054-.024 4.054 3.284 0 3.813-1.932 8.201-4.054 9.206z"/>
                    <path fill="#FEFEFE" fill-rule="nonzero" d="M123.32 355.738c1.155-1.352 3.574-4.156 5.032-5.643.717.648 1.76.747 2.875.272 1.118-.583 2.165-1.676 2.882-3.008 1.466.098 3.88.62 5.029.884.402.092.647.481.646 1.026v.931c.001.765-.479 1.645-1.133 2.077a68.306 68.306 0 0 1-7.424 4.336 53.02 53.02 0 0 1-7.424 2.7c-.654.187-1.134-.238-1.133-1.004v-.927c0-.546.246-1.17.65-1.644z"/>
                </g>
            </g>
        </g>
    </g>
</svg>
