<svg xmlns="http://www.w3.org/2000/svg" xmlns:xlink="http://www.w3.org/1999/xlink" width="99" height="97" viewBox="0 0 99 97">
    <defs>
        <linearGradient id="a" x1="50%" x2="50%" y1="128.815%" y2="-12.325%">
            <stop offset="0%" stop-color="#B2DDFC"/>
            <stop offset="100%" stop-color="#ECF5FD"/>
        </linearGradient>
        <linearGradient id="b" x1="86.213%" x2="22.277%" y1="13.901%" y2="95.402%">
            <stop offset="0%" stop-color="#E6F2FD"/>
            <stop offset="100%" stop-color="#DCEDFD"/>
        </linearGradient>
        <linearGradient id="e" x1="50%" x2="50%" y1="21.138%" y2="95.8%">
            <stop offset="0%" stop-color="#35E072"/>
            <stop offset="100%" stop-color="#1C9145"/>
        </linearGradient>
        <path id="d" d="M72.95 92.486L6.9 67.802a6 6 0 0 1-3.9-5.62L1 14c0-.94 2.432-2.454 3.107-3.004a2.988 2.988 0 0 1 2.943-.482L73.1 35.198a6 6 0 0 1 3.9 5.62v48.858c0 .963-.454 1.82-1.16 2.37C75.334 92.44 72.695 94 72 94c-.359 0 1.286-1.388.95-1.514z"/>
        <filter id="c" width="125%" height="122.7%" x="-17.8%" y="-13.7%" filterUnits="objectBoundingBox">
            <feOffset dx="-4" dy="-2" in="SourceAlpha" result="shadowOffsetOuter1"/>
            <feGaussianBlur in="shadowOffsetOuter1" result="shadowBlurOuter1" stdDeviation="2.5"/>
            <feColorMatrix in="shadowBlurOuter1" values="0 0 0 0 0.00392156863 0 0 0 0 0.278431373 0 0 0 0 0.6 0 0 0 0.132642663 0"/>
        </filter>
        <linearGradient id="f" x1="100%" x2="22.277%" y1="-20.779%" y2="95.402%">
            <stop offset="0%" stop-color="#47FF95"/>
            <stop offset="100%" stop-color="#2FD566"/>
        </linearGradient>
    </defs>
    <g fill="none" fill-rule="evenodd">
        <path fill="url(#a)" d="M86.123 83.019l-66.05-24.685a6 6 0 0 1-3.9-5.62l-2-48.182c0-.94 2.432-2.454 3.108-3.004a2.988 2.988 0 0 1 2.943-.482l66.05 24.685a6 6 0 0 1 3.9 5.62v48.857c0 .963-.454 1.82-1.16 2.37-.508.395-3.147 1.954-3.84 1.954-.36 0 1.285-1.388.95-1.513z" transform="translate(8)"/>
        <path fill="url(#b)" d="M84.123 85.019l-66.05-24.685a6 6 0 0 1-3.9-5.62V5.855a3 3 0 0 1 4.05-2.81l66.05 24.685a6 6 0 0 1 3.9 5.62v48.857a3 3 0 0 1-4.05 2.81z" transform="translate(8)"/>
        <g transform="translate(8)">
            <use fill="#000" filter="url(#c)" xlink:href="#d"/>
            <use fill="url(#e)" xlink:href="#d"/>
        </g>
        <path fill="url(#f)" d="M69.95 94.486L3.9 69.802a6 6 0 0 1-3.9-5.62V15.323a3 3 0 0 1 4.05-2.81L70.1 37.198a6 6 0 0 1 3.9 5.62v48.858a3 3 0 0 1-4.05 2.81z" transform="translate(8)"/>
        <path fill="#FFF" fill-rule="nonzero" d="M41.974 37.593a1.5 1.5 0 1 1-.36 2.979c-4.819-.583-8.114 2.391-8.114 7.532 0 5.21 3.415 11.16 8.348 14.631a1.5 1.5 0 1 1-1.727 2.454c-5.696-4.01-9.621-10.847-9.621-17.085 0-6.928 4.856-11.31 11.474-10.51zM49.427 65.5c4.246.06 7.073-2.842 7.073-7.604 0-5.3-3.532-11.354-8.582-14.794a1.5 1.5 0 0 1 1.688-2.48c5.835 3.975 9.894 10.931 9.894 17.274 0 6.221-3.916 10.39-9.506 10.596L51.2 70.1a1.5 1.5 0 1 1-2.4 1.8l-3-4a1.5 1.5 0 0 1-.142-1.57l2-4a1.5 1.5 0 0 1 2.684 1.34l-.915 1.83zM40.731 39l-2.003-3.205a1.5 1.5 0 1 1 2.544-1.59l2.5 4a1.5 1.5 0 0 1 0 1.59l-2.5 4a1.5 1.5 0 0 1-2.544-1.59L40.731 39z"/>
    </g>
</svg>
