<svg xmlns="http://www.w3.org/2000/svg" xmlns:xlink="http://www.w3.org/1999/xlink" width="179" height="151" viewBox="0 0 179 151">
    <defs>
        <path id="b" d="M2.03 39.214L108.954.316c.852-.31 1.542.304 1.542 1.371v78.576c0 1.067-.69 2.183-1.542 2.493L2.03 121.654c-.852.31-1.542-.304-1.542-1.37V41.706c0-1.067.69-2.183 1.542-2.493z"/>
        <filter id="a" width="140%" height="136.2%" x="-21.8%" y="-18.1%" filterUnits="objectBoundingBox">
            <feOffset dx="-2" in="SourceAlpha" result="shadowOffsetOuter1"/>
            <feGaussianBlur in="shadowOffsetOuter1" result="shadowBlurOuter1" stdDeviation="7"/>
            <feColorMatrix in="shadowBlurOuter1" values="0 0 0 0 0.0352941176 0 0 0 0 0.505882353 0 0 0 0 0.745098039 0 0 0 0.2 0"/>
        </filter>
        <linearGradient id="c" x1="70.078%" x2="55.646%" y1="79.494%" y2="10.475%">
            <stop offset="0%" stop-color="#A4EE96" stop-opacity="0"/>
            <stop offset="100%" stop-color="#38E679"/>
        </linearGradient>
        <linearGradient id="d" x1="35.618%" x2="95.416%" y1="4.14%" y2="63.937%">
            <stop offset="0%" stop-color="#48C7FF"/>
            <stop offset="100%" stop-color="#1F7DC2"/>
        </linearGradient>
        <linearGradient id="e" x1="72.259%" x2="72.259%" y1="7.403%" y2="91.969%">
            <stop offset="0%" stop-color="#48C7FF"/>
            <stop offset="100%" stop-color="#1F7DC2"/>
        </linearGradient>
        <linearGradient id="f" x1="118.862%" x2="5.244%" y1="-14.131%" y2="81.992%">
            <stop offset="0%" stop-color="#ADE9A6"/>
            <stop offset="100%" stop-color="#8BE17F"/>
        </linearGradient>
        <linearGradient id="g" x1="52.418%" x2="52.418%" y1="11.298%" y2="28.951%">
            <stop offset="0%" stop-color="#EDF5FF"/>
            <stop offset="100%" stop-color="#C6E0FD"/>
        </linearGradient>
        <linearGradient id="h" x1="54.62%" x2="54.62%" y1="-5.369%" y2="17.793%">
            <stop offset="0%" stop-color="#83AEDF"/>
            <stop offset="100%" stop-color="#C6E0FD"/>
        </linearGradient>
        <linearGradient id="i" x1="57.857%" x2="57.857%" y1="9.272%" y2="48.214%">
            <stop offset="0%" stop-color="#FFF"/>
            <stop offset="100%" stop-color="#CCE3FD"/>
        </linearGradient>
        <linearGradient id="j" x1="83.198%" x2="14.987%" y1="6.892%" y2="112.869%">
            <stop offset="0%" stop-color="#48CFFD"/>
            <stop offset="100%" stop-color="#0472E7"/>
        </linearGradient>
        <linearGradient id="k" x1="100%" x2="22.277%" y1="-20.779%" y2="95.402%">
            <stop offset="0%" stop-color="#47FF95"/>
            <stop offset="100%" stop-color="#2FD566"/>
        </linearGradient>
    </defs>
    <g fill="none" fill-rule="evenodd">
        <g transform="translate(15.484 12.5)">
            <use fill="#000" filter="url(#a)" xlink:href="#b"/>
            <use fill="#FFF" xlink:href="#b"/>
        </g>
        <path fill="#37E375" d="M29.045 55.148l9.768-3.553v1.932l-9.768 3.553zM56.5 45.278l9.767-3.553v1.932L56.5 47.21zM83.3 35.337l9.768-3.553v1.932l-9.767 3.553z"/>
        <path fill="#7CDD6F" d="M110.755 25.467l9.767-3.553v1.932l-9.767 3.553z"/>
        <path stroke="#232425" stroke-linecap="square" d="M22.509 100.13l96.761-35.201M22.509 89.18l96.761-35.2M22.509 79.52l96.761-35.201M22.509 110.435l96.761-35.201M22.509 121.384l96.761-35.201" opacity=".1"/>
        <path fill="url(#c)" d="M9.778 91.936c6.436-3.955 9.909-8.86 14.471-14.159 6.844-7.95 8.554-11.292 16.375-10.046 7.821 1.246 9.899-3.256 10.877 1.553.977 4.808 7.087 4.295 7.576 8.757.489 4.463 6.844 6.21 7.577-3.258.733-9.469 3.544-13.54 8.92-17.187 5.378-3.648 4.033.936 9.044-1.887 5.01-2.822 10.692-14.957 16.191-11.648v31.105l-91.031 33.57v-16.8z" transform="translate(15.484 12.5)"/>
        <g fill="#49C7FF">
            <path d="M64.814 83.293c1.703-.62 3.084-2.852 3.084-4.986s-1.38-3.362-3.084-2.742c-1.704.62-3.085 2.852-3.085 4.986s1.381 3.362 3.085 2.742z" opacity=".5"/>
            <path d="M65.067 81.357c.737-.268 1.333-1.233 1.333-2.155 0-.923-.596-1.453-1.333-1.185-.736.267-1.332 1.232-1.332 2.154 0 .923.596 1.453 1.332 1.186z"/>
        </g>
        <path fill="#48C7FF" d="M25.101 59.22c.71-.259 1.285-1.189 1.285-2.078 0-.89-.575-1.401-1.285-1.143s-1.285 1.189-1.285 2.078c0 .889.575 1.4 1.285 1.142zM52.556 49.35c.71-.259 1.285-1.189 1.285-2.078 0-.89-.576-1.4-1.285-1.143-.71.258-1.285 1.189-1.285 2.078 0 .89.575 1.4 1.285 1.143zM80.01 39.48c.71-.258 1.285-1.189 1.285-2.078 0-.89-.575-1.4-1.285-1.143-.71.259-1.285 1.189-1.285 2.078 0 .89.575 1.401 1.285 1.143zM106.811 29.538c.71-.258 1.285-1.188 1.285-2.077 0-.89-.575-1.401-1.285-1.143s-1.285 1.188-1.285 2.078c0 .889.575 1.4 1.285 1.142z"/>
        <g>
            <g transform="translate(85.512 6.075)">
                <path fill="url(#d)" d="M1.785 19.93c3.194-4.29 3.194-9.469 0-11.566-.277-.182-.728-.028-1.005.345-.278.373-.278.824 0 1.006 2.638 1.733 2.638 6.01 0 9.555-.278.373-.278.824 0 1.006.277.182.728.028 1.005-.345z" transform="translate(58.576 9.852)"/>
                <path fill="url(#d)" d="M4.586 21.77c4.879-6.553 4.879-14.462 0-17.666-.277-.182-.728-.027-1.005.346-.278.373-.278.823 0 1.006 4.322 2.838 4.322 9.847 0 15.654-.278.373-.278.823 0 1.005.277.183.728.028 1.005-.345z" transform="translate(58.576 9.852)"/>
                <path fill="url(#e)" d="M7.407 23.622c6.436-8.645 6.436-19.08 0-23.306C7.129.133 6.679.288 6.4.66s-.278.823 0 1.006c5.88 3.861 5.88 13.395 0 21.295-.278.373-.278.823 0 1.005.278.183.728.028 1.006-.345z" transform="translate(58.576 9.852)"/>
                <path fill="#68D75A" d="M51.363 21.453l8.58-5.697c4.024 9.712 2.845 15.526-3.535 17.44-6.38 1.916-8.062-1.999-5.045-11.743z"/>
                <path fill="url(#f)" d="M10.653 12.327c5.086 9.57 4.536 14.777-1.652 15.62-6.187.843-9.15-3.128-8.888-11.915l10.54-3.705z" transform="rotate(15 9.77 198.599)"/>
                <path fill="url(#e)" d="M16.776 29.87c-2.129-5.431-.918-11.61 3.632-18.539C27.235.94 40.38 1.213 48.821 3.1c5.628 1.257 9.089 5.56 10.383 12.906.654 8.303-.524 13.096-3.532 14.378-4.496 8.443-9.236 15.436-14.22 20.98l-13.646-2.09c-5.948-4.98-8.921-7.836-8.921-8.569 0-.733-.703-4.344-2.109-10.834z"/>
                <path fill="url(#g)" d="M25.946 46.944c1.338 6.89-.865 12.328-6.608 16.315-8.615 5.98-14.67 6.669-14.387 31.545.188 16.585.587 31.504 1.196 44.757.322 3.18 2.503 4.666 6.543 4.46 6.06-.307 47.252-7.195 59.982-28.51 1.106-1.662 1.58-4.553 1.423-8.674-.158-4.121-1.367-16.713-3.627-37.776-2.212-9.389-7.203-13.947-14.975-13.676a9.843 9.843 0 0 1-3.898-.25c3.167-6.372 4.587-15.888 4.262-28.55-.819-1.397-1.567-2.382-2.246-2.954-4.62 5.774-12.587 6.984-23.9 3.629-.475 4.108-1.284 7.02-2.428 8.737 1.138 2.181 1.624 4.383 1.46 6.606-.165 2.223-1.097 3.67-2.797 4.34z"/>
                <path fill="url(#h)" d="M25.946 46.944c1.338 6.89-.865 12.328-6.608 16.315-8.615 5.98-14.67 6.669-14.387 31.545.188 16.585.587 31.504 1.196 44.757.322 3.18 2.503 4.666 6.543 4.46 6.06-.307 47.252-7.195 59.982-28.51 1.106-1.662 1.58-4.553 1.423-8.674-.158-4.121-1.367-16.713-3.627-37.776-2.212-9.389-7.203-13.947-14.975-13.676a9.843 9.843 0 0 1-3.898-.25c-4.843 4.91-13.393 2.18-25.649-8.191z"/>
                <path fill="url(#i)" d="M24.716 57.439c-1.97 2.759-3.763 4.699-5.378 5.82-8.615 5.98-14.67 6.669-14.387 31.545.188 16.585.587 31.504 1.196 44.757.322 3.18 2.503 4.666 6.543 4.46 6.06-.307 47.252-7.195 59.982-28.51 1.106-1.662 1.58-4.553 1.423-8.674-.158-4.121-1.367-16.713-3.627-37.776-2.212-9.389-7.203-13.947-14.975-13.676a9.843 9.843 0 0 1-3.898-.25c0 6.275-2.225 11.479-6.677 15.609-11.011-2.613-17.745-7.048-20.202-13.305z"/>
                <path fill="url(#j)" d="M21.223 61.787c-.805.668-1.434 1.158-1.885 1.472-8.615 5.98-19.073 7.214-18.79 32.09.189 16.585.525 29.887 1.01 39.907.374 5.844 4.084 8.766 11.132 8.766 10.57 0 47.252-7.196 59.982-28.51 1.106-1.663 1.58-4.554 1.423-8.675-.158-4.121-1.367-16.713-3.627-37.776-2.212-9.389-7.203-13.947-14.975-13.676l11.642 66.36c-4.88 4.206-8.477 7.004-10.792 8.393-2.315 1.39-6.712 3.388-13.19 5.995l-21.93-74.346z"/>
                <path fill="url(#k)" d="M24.131 31.11c2.168-8.207 8.007-15.332 17.516-21.375 9.51-6.043 15.394-3.705 17.651 7.016h.826C58.987 6.04 54.43.465 46.45.027 34.48-.631 22.833 10.868 19.438 28.974l4.693 2.137z"/>
                <path fill="#68D75A" d="M28.934 47.13c4.068 3.936 9.094 6.155 15.078 6.658l-.16 3.706c-6.823-.762-13.027-3.655-18.612-8.68l3.694-1.683z"/>
                <rect width="15.78" height="7.485" x="42.531" y="49.538" fill="url(#e)" rx="3.743" transform="rotate(-27 50.42 53.281)"/>
                <ellipse cx="22.071" cy="38.932" fill="#68D75A" rx="7.501" ry="11.071" transform="rotate(-34 22.07 38.932)"/>
                <ellipse cx="20.453" cy="40.432" fill="url(#f)" rx="5.271" ry="8.502" transform="rotate(-34 20.453 40.432)"/>
                <g fill-rule="nonzero">
                    <path fill="url(#d)" d="M11.219 5.335c-3.194 4.29-3.194 9.47 0 11.567.277.182.728.028 1.005-.346.278-.373.278-.823 0-1.005-2.638-1.733-2.638-6.011 0-9.555.278-.374.278-.824 0-1.006-.277-.183-.728-.028-1.005.345z" transform="translate(5.988 28.925)"/>
                    <path fill="url(#d)" d="M7.92 3.17c-4.877 6.553-4.877 14.462 0 17.665.279.182.729.028 1.007-.345.277-.373.277-.824 0-1.006-4.323-2.839-4.323-9.847 0-15.654.277-.373.277-.823 0-1.006-.278-.182-.728-.028-1.006.345z" transform="translate(5.988 28.925)"/>
                    <path fill="url(#e)" d="M5.1 1.317c-6.436 8.646-6.436 19.08 0 23.307.278.182.728.028 1.006-.345.278-.374.278-.824 0-1.006-5.88-3.862-5.88-13.396 0-21.295.278-.373.278-.824 0-1.006C5.828.79 5.378.944 5.1 1.317z" transform="translate(5.988 28.925)"/>
                </g>
            </g>
            <path fill="url(#k)" d="M55.69 89.57l35.71-16.3c.958-.437 1.734.284 1.734 1.612v31.181c0 1.327-.776 2.758-1.733 3.195l-12.754 5.82-5.101 7.199-5.058-2.561-12.798 5.841c-.957.437-1.733-.285-1.733-1.612V92.764c0-1.328.776-2.758 1.733-3.195z" transform="translate(85.5 5.517)"/>
            <path fill="#FFF" d="M146.455 115.539v-7.13l-1.81 2.108-1.193-1.164 3.195-3.598 2.112-.828v9.708l-2.304.904zm12.472-7.716c0 .53-.108 1.032-.322 1.505a5.058 5.058 0 0 1-.844 1.29 6.33 6.33 0 0 1-1.172 1.022 6.785 6.785 0 0 1-1.323.704c-.439.172-.866.29-1.282.352a3.226 3.226 0 0 1-1.138-.013 1.937 1.937 0 0 1-.898-.443c-.256-.224-.448-.54-.576-.947l2.139-1.4c.091.283.278.491.562.622.283.131.644.11 1.083-.061.165-.065.331-.153.5-.265.17-.112.32-.242.453-.39.133-.148.242-.317.33-.506.086-.19.13-.399.13-.627 0-.247-.058-.43-.172-.55a.722.722 0 0 0-.452-.213 1.926 1.926 0 0 0-.638.044 4.717 4.717 0 0 0-.713.218l-.617.242v-1.687l.672-.263c.22-.086.43-.185.63-.295a2.69 2.69 0 0 0 .542-.391c.16-.15.288-.316.384-.5.096-.184.144-.395.144-.633 0-.347-.123-.564-.37-.65-.247-.086-.53-.066-.85.06-.33.128-.615.339-.857.63-.243.292-.4.616-.473.974l-2.14.345c.12-.458.298-.886.535-1.286.238-.4.52-.765.844-1.098a6.551 6.551 0 0 1 2.242-1.503c.43-.169.847-.278 1.254-.328a2.53 2.53 0 0 1 1.09.08c.32.103.578.288.775.553.197.266.295.632.295 1.098 0 .54-.153 1.054-.46 1.545-.306.49-.697.892-1.172 1.207v.04c.274-.043.526-.038.754.014.229.052.425.144.59.276.164.132.292.3.384.507.091.207.137.447.137.721zm8.591-5.425c0 .685-.068 1.366-.205 2.041a7.345 7.345 0 0 1-.658 1.897 6.037 6.037 0 0 1-1.173 1.584 5.186 5.186 0 0 1-1.748 1.103c-.686.27-1.27.36-1.755.27a2.004 2.004 0 0 1-1.186-.659c-.307-.35-.528-.81-.665-1.378a8.012 8.012 0 0 1-.206-1.88c0-.685.069-1.363.206-2.034.137-.671.358-1.297.665-1.88a6.092 6.092 0 0 1 1.186-1.568 5.298 5.298 0 0 1 1.755-1.1c.685-.268 1.268-.36 1.748-.274.48.086.87.301 1.173.644.301.344.52.797.658 1.36.137.563.205 1.188.205 1.874zm-2.358.924c0-.301-.018-.628-.055-.98a3.94 3.94 0 0 0-.206-.94c-.1-.276-.244-.485-.432-.626-.187-.141-.431-.153-.733-.034a1.56 1.56 0 0 0-.74.612 3.58 3.58 0 0 0-.446.97 5.895 5.895 0 0 0-.213 1.105c-.036.38-.055.72-.055 1.022 0 .311.019.645.055 1 .037.356.108.671.213.946.105.274.253.48.445.62s.44.15.74.032c.303-.118.547-.322.734-.61.188-.288.332-.61.432-.965.1-.354.17-.724.206-1.109.037-.384.055-.732.055-1.043zm10.717-4.202c0 .686-.069 1.366-.206 2.041a7.345 7.345 0 0 1-.658 1.897 6.037 6.037 0 0 1-1.172 1.584 5.186 5.186 0 0 1-1.749 1.104c-.685.269-1.27.359-1.755.27a2.004 2.004 0 0 1-1.186-.66c-.306-.35-.528-.81-.665-1.377a8.012 8.012 0 0 1-.206-1.88c0-.686.069-1.364.206-2.035.137-.67.359-1.297.665-1.879a6.092 6.092 0 0 1 1.186-1.569 5.298 5.298 0 0 1 1.755-1.1c.686-.268 1.269-.36 1.749-.273.48.086.87.3 1.172.644.302.343.52.796.658 1.36.137.563.206 1.187.206 1.873zm-2.359.925c0-.302-.018-.628-.055-.98a3.94 3.94 0 0 0-.205-.94c-.1-.277-.245-.485-.432-.627-.188-.14-.432-.152-.734-.034a1.56 1.56 0 0 0-.74.612 3.58 3.58 0 0 0-.446.97 5.895 5.895 0 0 0-.212 1.105c-.037.38-.055.721-.055 1.023 0 .31.018.644.055 1 .036.356.107.67.212.945.105.274.254.481.446.62.192.14.439.15.74.032.302-.118.546-.321.734-.61.187-.288.331-.61.432-.964.1-.355.169-.725.205-1.11.037-.384.055-.731.055-1.042z"/>
        </g>
    </g>
</svg>
