<svg xmlns="http://www.w3.org/2000/svg" xmlns:xlink="http://www.w3.org/1999/xlink" width="147" height="145" viewBox="0 0 147 145">
    <defs>
        <linearGradient id="b" x1="83.198%" x2="14.987%" y1="6.892%" y2="112.869%">
            <stop offset="0%" stop-color="#48CFFD"/>
            <stop offset="100%" stop-color="#0472E7"/>
        </linearGradient>
        <circle id="a" cx="72.269" cy="72.269" r="72.269"/>
        <linearGradient id="c" x1="50%" x2="50%" y1="12.697%" y2="73.291%">
            <stop offset="0%" stop-color="#12ADEF"/>
            <stop offset="100%" stop-color="#0C68B9"/>
        </linearGradient>
        <linearGradient id="e" x1="100%" x2="22.277%" y1="-20.779%" y2="95.402%">
            <stop offset="0%" stop-color="#47FF95"/>
            <stop offset="100%" stop-color="#2FD566"/>
        </linearGradient>
    </defs>
    <g fill="none" fill-rule="evenodd">
        <g transform="translate(.548)">
            <mask id="d" fill="#fff">
                <use xlink:href="#a"/>
            </mask>
            <use fill="url(#b)" xlink:href="#a"/>
            <path fill="url(#c)" fill-rule="nonzero" d="M127.48 112.118c-.021-15.666-3.03-30.494-8.383-43.723-13.839 6.181-29.579 9.611-46.009 9.727v47.616c19.353-.032 37.958-4.788 54.391-13.62zm-.026 2.678c-16.492 8.628-35.068 13.266-54.366 13.298v18.937H70.74v-18.956c-19.061-.34-37.367-5.176-53.594-13.907.03 2.003.11 3.998.239 5.984l-2.343.153c-.16-2.469-.245-4.95-.257-7.443a115.172 115.172 0 0 1-8.316-5.21 1.18 1.18 0 0 1-.305-1.637 1.171 1.171 0 0 1 1.632-.306 112.813 112.813 0 0 0 7.006 4.446c.26-15.262 3.302-29.718 8.553-42.682-8.47-4-16.187-9.052-22.865-15.021l.48-.54L0 51.25c14.066-20.777 38.35-34.371 65.572-36.451a72.505 72.505 0 0 0-36.08-2.66l-.417-2.319a74.686 74.686 0 0 1 13.296-1.19c9.933 0 19.475 1.961 28.37 5.572v-17.94h2.347V14.52h.011c9.113-3.814 18.92-5.89 29.141-5.89 5.037 0 10.02.505 14.914 1.501l-.467 2.31a72.495 72.495 0 0 0-37.442 2.29c27.614 1.827 52.307 15.496 66.54 36.519l-1.942 1.324c-6.614 5.88-14.243 10.872-22.611 14.839 5.343 13.169 8.406 27.88 8.587 43.412a112.865 112.865 0 0 0 7.543-4.688 1.171 1.171 0 0 1 1.63.317 1.18 1.18 0 0 1-.316 1.635 115.223 115.223 0 0 1-8.855 5.434c-.027 2.767-.146 5.52-.356 8.256l-2.34-.18a121.6 121.6 0 0 0 .329-6.803zm-110.32-3.316c16.164 8.934 34.495 13.892 53.606 14.238V78.116c-16.146-.197-31.614-3.594-45.25-9.663-5.265 13.034-8.255 27.619-8.356 43.027zm101.057-45.259C108.712 44.17 92.642 26.803 73.088 17.79v57.977c16.123-.116 31.555-3.485 45.103-9.545zm2.132-.983c8.216-3.905 15.694-8.819 22.156-14.61-14.416-19.88-38.735-32.556-65.7-33.672 18.848 9.566 34.277 26.753 43.544 48.282zM2.79 51.346c6.311 5.512 13.551 10.201 21.471 13.952 9.244-21.51 24.637-38.692 43.447-48.28-26.77 1.48-50.798 14.358-64.918 34.328zM26.396 66.28c13.346 5.948 28.506 9.284 44.344 9.48V18.156c-19.217 9.121-34.996 26.34-44.344 48.124z" mask="url(#d)"/>
        </g>
        <g fill="url(#e)" transform="translate(65.5 49.396)">
            <path fill-rule="nonzero" d="M7.548 15.166a7.218 7.218 0 1 1 0-14.436 7.218 7.218 0 0 1 0 14.436zm0-2a5.218 5.218 0 1 0 0-10.436 5.218 5.218 0 0 0 0 10.436z"/>
            <circle cx="7.548" cy="7.948" r="3.448"/>
        </g>
        <g fill="url(#e)" transform="translate(65.548 85.338)">
            <path fill-rule="nonzero" d="M7.548 15.166a7.218 7.218 0 1 1 0-14.436 7.218 7.218 0 0 1 0 14.436zm0-2a5.218 5.218 0 1 0 0-10.436 5.218 5.218 0 0 0 0 10.436z"/>
            <circle cx="7.548" cy="7.948" r="3.448"/>
        </g>
        <g fill="url(#e)" transform="translate(4.358 45.589)">
            <path fill-rule="nonzero" d="M7.548 15.166a7.218 7.218 0 1 1 0-14.436 7.218 7.218 0 0 1 0 14.436zm0-2a5.218 5.218 0 1 0 0-10.436 5.218 5.218 0 0 0 0 10.436z"/>
            <circle cx="7.548" cy="7.948" r="3.448"/>
        </g>
        <g fill="url(#e)" transform="translate(131.548 71.338)">
            <path fill-rule="nonzero" d="M7.548 15.166a7.218 7.218 0 1 1 0-14.436 7.218 7.218 0 0 1 0 14.436zm0-2a5.218 5.218 0 1 0 0-10.436 5.218 5.218 0 0 0 0 10.436z"/>
            <circle cx="7.548" cy="7.948" r="3.448"/>
        </g>
        <path stroke="#FFF" stroke-linecap="round" stroke-linejoin="round" stroke-width="2" d="M11.5 54c30-2 50.667 11.333 62 40 25.333-29.333 47.333-34.333 66-15-20-34-42-41.333-66-22"/>
        <path fill="url(#e)" d="M.548 38.771v-34.8A3.95 3.95 0 0 1 4.498.02h32.6a3.95 3.95 0 0 1 3.952 3.95v26.114a3.95 3.95 0 0 1-3.951 3.951H9.239L.549 38.771z" transform="translate(73 18.396)"/>
        <path fill="#FFF" d="M93.503 33.694c1.464 0 2.661 1.229 2.661 2.728 0 1.5-1.197 2.725-2.661 2.724-1.464 0-2.662-1.228-2.662-2.728 0-1.5 1.198-2.725 2.662-2.724zm-7.984 3.151c0-4.358 3.46-7.912 7.688-7.897 4.229.015 7.689 3.593 7.689 7.951 0 2.906-1.538 5.41-3.845 6.854l-1.281-2.25c1.538-.919 2.563-2.632 2.563-4.48 0-2.906-2.307-5.292-5.126-5.301-2.819-.01-5.126 2.359-5.126 5.264 0 1.981 1.026 3.702 2.563 4.5l-1.281 2.24c-2.307-1.46-3.844-3.975-3.844-6.88zm8.28-13.639c7.156-.037 13.01 5.853 13.01 13.088 0 4.868-2.601 9.091-6.505 11.348l-1.3-2.23c3.122-1.858 5.204-5.289 5.204-9.104 0-5.789-4.684-10.5-10.41-10.47-5.724.029-10.409 4.79-10.409 10.578 0 3.946 2.082 7.225 5.205 9.05l-1.301 2.243c-3.904-2.216-6.506-6.544-6.506-11.28 0-7.235 5.855-13.186 13.012-13.223z"/>
    </g>
</svg>
