<svg xmlns="http://www.w3.org/2000/svg" width="32" height="21" viewBox="0 0 32 21">
    <path fill="#FF69E9" fill-rule="nonzero" d="M26.901.006c-2.592-.14-4.465 2.21-4.594 4.602.092 1.71.872 2.924 1.94 3.647l-3.107 4.673a4.599 4.599 0 0 0-1.874-.521c-.918-.05-1.731.26-2.386.78l-3.557-3.98a3.62 3.62 0 0 0 .356-1.36c.096-1.786-1.52-3.079-3.162-3.167-1.783-.096-3.074 1.522-3.162 3.167.027.495.151.945.344 1.347l-2.923 3.394a2.937 2.937 0 0 0-1.553-.525C1.689 11.98.58 13.373.503 14.787c-.082 1.536 1.309 2.647 2.72 2.723 1.533.083 2.643-1.31 2.719-2.723a2.98 2.98 0 0 0-.413-1.372l2.229-2.586c.203-.237.406-.473.61-.708.55.52 1.287.847 2.148.893.86.047 1.603-.307 2.153-.868l3.44 3.85a4.639 4.639 0 0 0-.882 2.455c.124 2.287 1.755 3.92 4.038 4.044 2.278.122 3.923-1.943 4.037-4.044.063-1.17-.451-2.172-1.248-2.887l3.19-4.8c2.614.944 6.05-.44 6.25-4.155.14-2.598-2.206-4.474-4.593-4.603z"/>
</svg>
