<svg xmlns="http://www.w3.org/2000/svg" xmlns:xlink="http://www.w3.org/1999/xlink" width="491" height="341" viewBox="0 0 491 341">
    <defs>
        <linearGradient id="a" x1="57.787%" x2="53.477%" y1="78.473%" y2="-9.976%">
            <stop offset="0%" stop-color="#C716A1"/>
            <stop offset="100%" stop-color="#FF94EF"/>
        </linearGradient>
        <linearGradient id="b" x1="82.154%" x2="53.477%" y1="136.611%" y2="-9.976%">
            <stop offset="0%" stop-color="#C716A1"/>
            <stop offset="100%" stop-color="#FF94EF"/>
        </linearGradient>
        <linearGradient id="d" x1="64.004%" x2="78.346%" y1="8.092%" y2="79.317%">
            <stop offset="0%" stop-color="#B66DF6"/>
            <stop offset="100%" stop-color="#8248DF"/>
        </linearGradient>
        <circle id="c" cx="43" cy="43" r="43"/>
        <linearGradient id="f" x1="13.579%" x2="98.27%" y1="100%" y2="2.233%">
            <stop offset="0%" stop-color="#965EE7"/>
            <stop offset="100%" stop-color="#AF7DFF"/>
        </linearGradient>
        <linearGradient id="g" x1="-116.204%" x2="98.27%" y1="-48.871%" y2="2.233%">
            <stop offset="0%" stop-color="#965EE7"/>
            <stop offset="100%" stop-color="#BC92FF"/>
        </linearGradient>
        <linearGradient id="h" x1="72.259%" x2="72.259%" y1="7.403%" y2="91.969%">
            <stop offset="0%" stop-color="#787878"/>
            <stop offset="100%" stop-color="#2D2D2D"/>
        </linearGradient>
        <linearGradient id="i" x1="52.418%" x2="52.418%" y1="11.298%" y2="28.951%">
            <stop offset="0%" stop-color="#EDF5FF"/>
            <stop offset="100%" stop-color="#C6E0FD"/>
        </linearGradient>
        <linearGradient id="j" x1="54.62%" x2="54.62%" y1="-5.369%" y2="17.793%">
            <stop offset="0%" stop-color="#83AEDF"/>
            <stop offset="100%" stop-color="#C6E0FD"/>
        </linearGradient>
        <linearGradient id="k" x1="57.857%" x2="57.857%" y1="9.272%" y2="48.214%">
            <stop offset="0%" stop-color="#FFF"/>
            <stop offset="100%" stop-color="#CCE3FD"/>
        </linearGradient>
        <linearGradient id="l" x1="72.259%" x2="72.259%" y1="7.403%" y2="91.969%">
            <stop offset="0%" stop-color="#48C7FF"/>
            <stop offset="100%" stop-color="#1F7DC2"/>
        </linearGradient>
        <linearGradient id="m" x1="50%" x2="50%" y1="12.697%" y2="106.173%">
            <stop offset="0%" stop-color="#EDF5FF"/>
            <stop offset="100%" stop-color="#C6E0FD"/>
        </linearGradient>
        <linearGradient id="n" x1="50%" x2="50%" y1="12.697%" y2="73.291%">
            <stop offset="0%" stop-color="#EDF5FF"/>
            <stop offset="100%" stop-color="#C6E0FD"/>
        </linearGradient>
    </defs>
    <g fill="none" fill-rule="evenodd">
        <path fill="#C6E0FD" d="M3.63 229.714c-4.67 1.65-4.86 4.772-.42 6.976l278.647 102.314c4.44 2.204 11.83 2.65 16.497 1.001l188.997-91.618c4.672-1.65 4.886-4.817.479-7.072L212.437 138.072c-4.408-2.255-11.77-2.745-16.439-1.097L3.631 229.715z" opacity=".5"/>
        <path fill="url(#a)" d="M80.147 67.904c-4.462-1.773-9.62-1.69-14.236.23C22.216 48.6.368 35.018.368 35.018S.042 97.071.001 99.027a4.526 4.526 0 0 0 .367 1.886c.496 1.155 1.457 2.066 2.688 2.545l66.96 29.963c4.35 1.693 9.35 1.633 13.861-.168l62.631-29.597c2.065-.825 3.373-2.671 3.475-4.603.023-.438.023-21.535 0-63.293L80.147 67.904z" transform="translate(289 156)"/>
        <path fill="url(#b)" d="M70.353 133.456L3.07 103.657c-1.236-.477-2.202-1.38-2.7-2.527A4.442 4.442 0 0 1 0 99.26c.04-1.941.369-63.494.369-63.494L66.228 68.69c4.638-1.9 6.708-.601 11.191 1.162v64.825a18.66 18.66 0 0 1-7.066-1.222z" transform="translate(289 156)"/>
        <path fill="#DE49C1" d="M435.978 188.116l-66.825-30.782c-4.463-1.81-9.621-1.724-14.237.238l-62.514 30.383c-2.75 1.169-4.109 4.189-3.034 6.746.496 1.18 1.457 2.108 2.688 2.598l66.965 30.533c4.35 1.729 9.35 1.666 13.862-.173l62.636-30.18c2.767-1.128 4.174-4.13 3.143-6.705-.481-1.202-1.443-2.155-2.684-2.658z"/>
        <g transform="translate(321 117)">
            <mask id="e" fill="#fff">
                <use xlink:href="#c"/>
            </mask>
            <use fill="url(#d)" xlink:href="#c"/>
            <path fill="#6633B8" fill-rule="nonzero" d="M75.85 66.71c-.013-9.322-1.803-18.144-4.988-26.015-8.234 3.678-17.599 5.718-27.375 5.787v28.331c11.515-.019 22.585-2.848 32.363-8.103zm-.016 1.593c-9.812 5.134-20.865 7.894-32.347 7.912v11.268H42.09v-11.28c-11.341-.2-22.233-3.079-31.888-8.274.018 1.192.065 2.38.142 3.561l-1.394.09a74.026 74.026 0 0 1-.153-4.428 68.527 68.527 0 0 1-4.948-3.1.702.702 0 0 1-.181-.974c.218-.319.652-.4.97-.182a67.123 67.123 0 0 0 4.169 2.645c.154-9.08 1.965-17.681 5.089-25.395-5.04-2.38-9.631-5.386-13.604-8.937l.285-.322L0 30.494C8.37 18.13 22.818 10.043 39.015 8.805a43.14 43.14 0 0 0-21.468-1.582l-.247-1.38a44.438 44.438 0 0 1 7.91-.708c5.91 0 11.588 1.167 16.88 3.315V-2.224h1.397V8.639h.007C48.916 6.37 54.75 5.135 60.833 5.135c2.997 0 5.962.3 8.873.893l-.278 1.374A43.134 43.134 0 0 0 47.15 8.764c16.43 1.088 31.123 9.22 39.591 21.73l-1.155.787c-3.936 3.499-8.475 6.469-13.454 8.83 3.18 7.835 5.002 16.588 5.11 25.83 1.53-.87 3.027-1.8 4.488-2.79a.697.697 0 0 1 .97.189.702.702 0 0 1-.189.973 68.558 68.558 0 0 1-5.268 3.232 73.86 73.86 0 0 1-.212 4.913l-1.393-.108c.103-1.342.169-2.691.196-4.047zm-65.64-1.973c9.618 5.316 20.525 8.266 31.896 8.472V46.478c-9.607-.117-18.81-2.138-26.923-5.749-3.133 7.755-4.912 16.433-4.972 25.601zm60.129-26.929c-5.64-13.12-15.201-23.453-26.836-28.817V45.08c9.593-.068 18.775-2.073 26.836-5.679zm1.268-.585c4.89-2.323 9.339-5.247 13.183-8.693-8.577-11.828-23.047-19.37-39.091-20.034C56.898 15.78 66.078 26.007 71.59 38.816zm-69.93-8.265c3.755 3.28 8.063 6.07 12.775 8.301 5.5-12.798 14.659-23.022 25.85-28.726-15.927.88-30.224 8.543-38.625 20.425zm14.044 8.885c7.941 3.539 16.961 5.524 26.385 5.64V10.803C30.656 16.23 21.268 26.474 15.705 39.436z" mask="url(#e)"/>
        </g>
        <path fill="url(#d)" d="M80.147 67.904c-4.462-1.773-9.62-1.69-14.236.23C22.216 48.6.368 35.018.368 35.018S.042 97.071.001 99.027a4.526 4.526 0 0 0 .367 1.886c.496 1.155 1.457 2.066 2.688 2.545l66.96 29.963c4.35 1.693 9.35 1.633 13.861-.168l62.631-29.597c2.065-.825 3.373-2.671 3.475-4.603.023-.438.023-21.535 0-63.293L80.147 67.904z" transform="translate(137 77)"/>
        <path fill="url(#f)" d="M70.353 133.456L3.07 103.657c-1.236-.477-2.202-1.38-2.7-2.527A4.442 4.442 0 0 1 0 99.26c.04-1.941.369-63.494.369-63.494L66.228 68.69c4.638-1.9 6.708-.601 11.191 1.162v64.825a18.66 18.66 0 0 1-7.066-1.222z" transform="translate(137 77)"/>
        <path fill="url(#g)" d="M146.978 32.116L80.153 1.334c-4.463-1.81-9.621-1.724-14.237.238L3.402 31.955C.652 33.124-.707 36.144.368 38.7c.496 1.18 1.457 2.108 2.688 2.598L70.02 71.832c4.35 1.729 9.35 1.666 13.862-.173l62.636-30.18c2.767-1.128 4.174-4.13 3.143-6.705-.481-1.202-1.443-2.155-2.684-2.658z" transform="translate(137 77)"/>
        <g>
            <g transform="translate(182.011 .066)">
                <path fill="url(#d)" d="M3.771 7.132L10.043 0c5.89 7.7 6.228 13.167 1.011 16.4-5.216 3.233-7.643.143-7.283-9.268z" transform="rotate(15 -22.628 178.708)"/>
                <path fill="url(#g)" d="M9.806 3.072c4.681 8.836 4.174 13.644-1.52 14.422-5.696.779-8.423-2.888-8.182-11l9.702-3.422z" transform="rotate(15 -22.628 178.708)"/>
                <path fill="url(#h)" d="M15.442 27.58c-1.96-5.015-.846-10.72 3.343-17.117C25.068.868 37.167 1.12 44.937 2.86c5.18 1.161 8.366 5.133 9.557 11.917.602 7.667-.482 12.092-3.25 13.275-4.14 7.796-8.502 14.253-13.089 19.372l-12.561-1.93c-5.474-4.598-8.211-7.235-8.211-7.912 0-.677-.647-4.011-1.941-10.003z"/>
                <path fill="url(#i)" d="M23.882 43.344c1.231 6.362-.796 11.383-6.083 15.065C9.87 63.93 4.296 64.566 4.557 87.535c.174 15.313.54 29.088 1.1 41.326.297 2.935 2.305 4.308 6.023 4.118 5.578-.285 43.493-6.644 55.21-26.324 1.019-1.535 1.456-4.205 1.31-8.01-.145-3.805-1.258-15.431-3.338-34.88-2.035-8.668-6.63-12.877-13.784-12.627a9.033 9.033 0 0 1-3.587-.231c2.914-5.883 4.222-14.67 3.922-26.36-.753-1.29-1.442-2.2-2.066-2.728-4.254 5.331-11.587 6.448-22 3.35-.436 3.794-1.181 6.483-2.234 8.068 1.047 2.014 1.494 4.047 1.343 6.1-.151 2.052-1.01 3.388-2.574 4.007z"/>
                <path fill="url(#j)" d="M23.882 43.344c1.231 6.362-.796 11.383-6.083 15.065C9.87 63.93 4.296 64.566 4.557 87.535c.174 15.313.54 29.088 1.1 41.326.297 2.935 2.305 4.308 6.023 4.118 5.578-.285 43.493-6.644 55.21-26.324 1.019-1.535 1.456-4.205 1.31-8.01-.145-3.805-1.258-15.431-3.338-34.88-2.035-8.668-6.63-12.877-13.784-12.627a9.033 9.033 0 0 1-3.587-.231c-4.458 4.534-12.328 2.013-23.61-7.563z"/>
                <path fill="url(#k)" d="M22.75 53.035c-1.814 2.547-3.464 4.338-4.95 5.374C9.87 63.93 4.295 64.566 4.556 87.535c.174 15.313.54 29.088 1.1 41.326.297 2.935 2.305 4.308 6.023 4.118 5.578-.285 43.493-6.644 55.21-26.324 1.019-1.535 1.456-4.205 1.31-8.01-.145-3.805-1.258-15.431-3.338-34.88-2.035-8.668-6.63-12.877-13.784-12.627a9.033 9.033 0 0 1-3.587-.231c0 5.795-2.049 10.599-6.146 14.413-10.136-2.413-16.334-6.508-18.596-12.285z"/>
                <path fill="url(#a)" d="M39.936 125.445L19.534 57.05c-.74.616-1.319 1.07-1.735 1.359C9.87 63.93.244 65.069.505 88.039c.173 15.312.483 27.595.929 36.847.344 5.395 3.76 8.093 10.246 8.093 5.121 0 16.899-1.84 28.616-6.453l-.36-1.08zm21.84-13.137l-10.698-61.17c7.154-.25 11.749 3.96 13.784 12.628 2.08 19.448 3.193 31.074 3.338 34.88.146 3.804-.291 6.474-1.31 8.01-1.368 2.298-3.037 4.419-4.934 6.372l-.18-.72z"/>
                <path fill="url(#d)" d="M22.211 28.725c1.996-7.578 7.37-14.157 16.123-19.737 8.754-5.58 14.17-3.42 16.247 6.479h.76C54.294 5.577 50.1.429 42.755.025 31.738-.582 21.016 10.035 17.89 26.752l4.32 1.973zM26.632 43.517c3.745 3.633 8.371 5.682 13.878 6.147l-.147 3.421c-6.28-.703-11.99-3.374-17.13-8.014l3.4-1.554z"/>
                <rect width="14.524" height="6.912" x="39.148" y="45.74" fill="url(#l)" rx="3.456" transform="rotate(-27 46.41 49.196)"/>
                <ellipse cx="20.315" cy="35.947" fill="url(#d)" rx="6.905" ry="10.222" transform="rotate(-34 20.315 35.947)"/>
                <ellipse cx="18.826" cy="37.332" fill="url(#g)" rx="4.852" ry="7.85" transform="rotate(-34 18.826 37.332)"/>
            </g>
        </g>
        <path stroke="#874BE1" stroke-linecap="round" stroke-linejoin="round" stroke-width="3" d="M148 177l-73 37 129 51"/>
        <g>
            <path fill="url(#a)" d="M81.275 66.555c-4.518-1.557-9.673-1.285-14.229.751C22.739 49.947.466 37.561.466 37.561S2.083 97.857 2.103 99.76c.007.616.144 1.234.426 1.819.532 1.104 1.522 1.952 2.768 2.372l67.9 26.629c4.402 1.484 9.4 1.24 13.855-.677l61.703-31.073c2.04-.877 3.29-2.72 3.33-4.6.01-.426-.65-20.922-1.983-61.488L81.275 66.555z" transform="translate(114 168)"/>
            <path fill="url(#b)" d="M73.535 130.6L5.32 104.143c-1.252-.417-2.246-1.26-2.78-2.354a4.2 4.2 0 0 1-.427-1.804C2.092 98.098.49 38.288.49 38.288l66.89 29.547c4.578-2.017 6.689-.833 11.227.715l2.032 62.976c-2.423.135-4.842-.172-7.105-.926z" transform="translate(114 168)"/>
            <path fill="#DE49C1" d="M260.984 197.312l-67.79-27.43c-4.519-1.592-9.675-1.317-14.23.76l-61.56 31.831c-2.714 1.238-3.978 4.222-2.823 6.666.533 1.128 1.523 1.995 2.77 2.425l67.921 27.182c4.404 1.518 9.403 1.273 13.857-.682l61.69-31.639c2.731-1.198 4.044-4.167 2.933-6.63-.52-1.15-1.51-2.04-2.768-2.483z"/>
        </g>
        <g fill-rule="nonzero">
            <path fill="#A4C0E0" d="M217 135.762v46.796c0 3.087-2.227 6.628-4.866 7.94l-53.058 28.282c-1.538.765-4.102-.647-4.988-1.448-.682-.616-1.088-1.627-1.088-2.93v-47.991l62.97-31.332a.692.692 0 0 1 .98.392c.033.091.05.19.05.291z"/>
            <path fill="#A4C0E0" d="M153 166.195L185.115 182 220 135.915 187.712 125z"/>
            <path fill="url(#m)" d="M66 19v47.708c0 3.07-2.227 6.59-4.866 7.898L6.866 101.493C4.144 102.841 2 101.393 2 98.417V50.709L66 19z" transform="translate(153 117)"/>
            <path fill="#7B9BC0" d="M155 168.04L187 184l32-47.82L187 126z"/>
            <path fill="#FFF" d="M161 143.178V171l26.5 14 26.5-41.591V117z"/>
            <path fill="#A4C0E0" d="M157.52 218.823c.99.266 1.821.232 2.492-.102l54.299-27.054c1.32-.658 1.781-1.095 2.689-2.762L192.795 177l-4.899 8.47-6.181-3.566c-10.85 16.202-18.989 27.354-24.414 35.455l-.145.216c-.252.377-.192.885.135 1.135a.66.66 0 0 0 .229.113z"/>
            <path fill="url(#n)" d="M4.627 101.977c.892.076 1.638-.035 2.237-.332l54.648-27.103c1.329-.659 2.574-1.937 3.488-3.335L37.842 60.223c-2.159-.818-5.149.665-7.308 3.624L4.24 100.564c-.344.48-.3.996.02 1.261.104.088.232.14.367.152z" transform="translate(153 117)"/>
            <path fill="url(#g)" d="M55 14l-16 8.226V28l16-8.226z" transform="translate(153 117)"/>
            <path fill="#E6E9EE" d="M208 139l-41 20.154V162l41-20.154zM208 146l-41 20.154V169l41-20.154z"/>
        </g>
        <path stroke="#874BE1" stroke-linecap="round" stroke-linejoin="round" stroke-width="3" d="M228 275.429L282.857 296l47.314-24"/>
    </g>
</svg>
