<svg xmlns="http://www.w3.org/2000/svg" xmlns:xlink="http://www.w3.org/1999/xlink" width="533" height="432" viewBox="0 0 533 432">
    <defs>
        <linearGradient id="a" x1="64.004%" x2="78.346%" y1="8.092%" y2="79.317%">
            <stop offset="0%" stop-color="#B66DF6"/>
            <stop offset="100%" stop-color="#8248DF"/>
        </linearGradient>
        <linearGradient id="b" x1="74.839%" x2="53.066%" y1="104.545%" y2="34.425%">
            <stop offset="0%" stop-color="#C716A1"/>
            <stop offset="100%" stop-color="#FF94EF"/>
        </linearGradient>
        <linearGradient id="c" x1="69.903%" x2="98.27%" y1="84.686%" y2="2.233%">
            <stop offset="0%" stop-color="#965EE7"/>
            <stop offset="100%" stop-color="#AF7DFF"/>
        </linearGradient>
        <linearGradient id="d" x1="53.066%" x2="53.066%" y1="129.316%" y2="34.425%">
            <stop offset="0%" stop-color="#C716A1"/>
            <stop offset="100%" stop-color="#FF94EF"/>
        </linearGradient>
        <linearGradient id="e" x1="71.781%" x2="46.345%" y1="39.743%" y2="-63.988%">
            <stop offset="0%" stop-color="#71C2FF"/>
            <stop offset="100%" stop-color="#EDF5FF"/>
        </linearGradient>
        <linearGradient id="f" x1="112.674%" x2="-15.969%" y1="108.825%" y2="-18.173%">
            <stop offset="0%" stop-color="#93D0FF"/>
            <stop offset="100%" stop-color="#F9FDFE"/>
        </linearGradient>
        <path id="h" d="M20.161 64.768L4.971 57.96C2.225 56.73 0 53.489 0 50.72V3.26C0 .49 2.225-.756 4.97.474l47.072 21.093c2.745 1.23 4.971 4.472 4.971 7.24v47.462c0 2.768-2.226 4.015-4.97 2.785l-15.215-6.818-8.36 8.253-8.307-15.721z"/>
        <filter id="g" width="180.7%" height="153.4%" x="-60.5%" y="-26.7%" filterUnits="objectBoundingBox">
            <feOffset dx="-13" in="SourceAlpha" result="shadowOffsetOuter1"/>
            <feGaussianBlur in="shadowOffsetOuter1" result="shadowBlurOuter1" stdDeviation="5"/>
            <feComposite in="shadowBlurOuter1" in2="SourceAlpha" operator="out" result="shadowBlurOuter1"/>
            <feColorMatrix in="shadowBlurOuter1" values="0 0 0 0 0.0352941176 0 0 0 0 0.505882353 0 0 0 0 0.745098039 0 0 0 0.1 0"/>
        </filter>
        <linearGradient id="i" x1="93.582%" x2="38.751%" y1="13.835%" y2="37.447%">
            <stop offset="0%" stop-color="#404277"/>
            <stop offset="100%" stop-color="#262755"/>
        </linearGradient>
        <path id="j" d="M139.365 325.927L0 261.382V0l139.365 64.545"/>
        <path id="m" d="M105.083 259.993c9.26 4.267 16.768-.317 16.768-10.24s-7.507-21.427-16.768-25.694c-9.261-4.268-16.769.316-16.769 10.24 0 9.922 7.508 21.426 16.769 25.694z"/>
        <filter id="l" width="532.4%" height="470.6%" x="-216.2%" y="-121.4%" filterUnits="objectBoundingBox">
            <feOffset dy="25" in="SourceAlpha" result="shadowOffsetOuter1"/>
            <feGaussianBlur in="shadowOffsetOuter1" result="shadowBlurOuter1" stdDeviation="20"/>
            <feColorMatrix in="shadowBlurOuter1" values="0 0 0 0 0.125490196 0 0 0 0 0.168627451 0 0 0 0 0.211764706 0 0 0 0.07 0"/>
        </filter>
        <path id="o" d="M13.974 29.71c7.717 3.628 13.974.245 13.974-7.557 0-7.801-6.257-17.068-13.974-20.696C6.256-2.172 0 1.21 0 9.013S6.256 26.081 13.974 29.71z"/>
        <filter id="n" width="618.8%" height="565.2%" x="-259.4%" y="-152.4%" filterUnits="objectBoundingBox">
            <feOffset dy="25" in="SourceAlpha" result="shadowOffsetOuter1"/>
            <feGaussianBlur in="shadowOffsetOuter1" result="shadowBlurOuter1" stdDeviation="20"/>
            <feColorMatrix in="shadowBlurOuter1" values="0 0 0 0 0.125490196 0 0 0 0 0.168627451 0 0 0 0 0.211764706 0 0 0 0.07 0"/>
        </filter>
        <path id="q" d="M13.974 29.71c7.717 3.628 13.974.245 13.974-7.557 0-7.801-6.257-17.068-13.974-20.696C6.256-2.172 0 1.21 0 9.013S6.256 26.081 13.974 29.71z"/>
        <filter id="p" width="618.8%" height="565.2%" x="-259.4%" y="-152.4%" filterUnits="objectBoundingBox">
            <feOffset dy="25" in="SourceAlpha" result="shadowOffsetOuter1"/>
            <feGaussianBlur in="shadowOffsetOuter1" result="shadowBlurOuter1" stdDeviation="20"/>
            <feColorMatrix in="shadowBlurOuter1" values="0 0 0 0 0.125490196 0 0 0 0 0.168627451 0 0 0 0 0.211764706 0 0 0 0.07 0"/>
        </filter>
        <path id="r" d="M9.662 1.602l134.54 62.204v62.932L9.662 64.534v-19.71L0 23.73l9.662-2.636z"/>
        <path id="s" d="M118.525 54.026L2.209.176C.989-.382 0 .43 0 1.985v108.01c0 1.555.989 3.285 2.209 3.862l116.316 55.867c1.22.594 2.208-.208 2.208-1.793V57.933c0-1.584-.988-3.334-2.208-3.907z"/>
    </defs>
    <g fill="none" fill-rule="evenodd">
        <path fill="#BA4283" d="M32.42 306.617L0 325.62l221.344 92.786 119.616-57.013 146.63 66.918a40 40 0 0 0 38.337-2.807l.605-.39c5.703-3.691 7.335-11.307 3.645-17.01a12.3 12.3 0 0 0-5.298-4.544L340.96 321.15 32.42 306.617z"/>
        <path fill="url(#a)" d="M17.886 209.73L207.61 0l181.42 209.73-168.088 82.042z" transform="translate(0 107.63)"/>
        <path fill="url(#b)" d="M68 154.331L207.61 0l134.814 155.851-125.302 56.587z" transform="translate(0 107.63)"/>
        <path fill="url(#c)" d="M17.886 209.73L207.336 0l13.313 291.772z" transform="translate(0 107.63)"/>
        <path fill="url(#d)" d="M67.947 154.31L207.336 0l9.691 212.401z" transform="translate(0 107.63)"/>
        <path fill="url(#e)" d="M119.407 97.504L207.609 0l86.025 99.448-80.038 35.42-94.19-37.364z" transform="translate(0 107.63)"/>
        <path fill="url(#f)" d="M119.299 97.461L207.336 0l6.152 134.824-94.19-37.363z" transform="translate(0 107.63)"/>
        <g>
            <g opacity=".96" transform="translate(178.864 20.434)">
                <use fill="#000" filter="url(#g)" xlink:href="#h"/>
                <use fill="#FFF" xlink:href="#h"/>
                <path stroke="#F3F4F6" stroke-width="1.25" d="M28.628 79.453l8.065-7.962 15.605 6.993c2.35 1.053 4.09.078 4.09-2.215V28.807c0-2.515-2.075-5.537-4.601-6.67L4.715 1.045C2.365-.009.625.966.625 3.26V50.72c0 2.515 2.075 5.537 4.601 6.67l15.387 6.894 8.015 15.168z"/>
            </g>
            <path fill="#FF69E9" d="M207.37 57.962c2.172.988 3.948 3.616 3.948 5.84 0 2.224-1.776 3.235-3.947 2.246-2.171-.988-3.947-3.616-3.947-5.84 0-2.224 1.776-3.234 3.947-2.246zm-11.84-.708c0-6.464 5.13-9.402 11.402-6.53 6.272 2.873 11.403 10.512 11.403 16.975 0 4.309-2.28 6.986-5.702 7.574l-1.9-4.2c2.28-.327 3.8-2.177 3.8-4.919 0-4.309-3.42-9.401-7.6-11.316-4.182-1.915-7.603.043-7.603 4.352 0 2.938 1.52 6.18 3.801 8.4l-1.9 2.46c-3.42-3.722-5.701-8.487-5.701-12.796zm12.28-14.647c10.612 4.77 19.296 17.451 19.296 28.182 0 7.22-3.86 11.728-9.648 12.444l-1.93-4.184c4.631-.65 7.719-4.336 7.719-9.994 0-8.585-6.947-18.73-15.438-22.545-8.49-3.816-15.437.087-15.437 8.671 0 5.854 3.087 12.119 7.719 16.931l-1.93 2.45c-5.79-5.918-9.648-14.091-9.648-21.115 0-10.73 8.683-15.609 19.296-10.84z"/>
        </g>
        <g>
            <path fill="#C6E0FD" d="M388.296 2.227c-5.924-2.732-11.293-2.442-15.17.235l-9.808 4.907c3.876-2.677 7.092.412 13.017 3.144L497.792 66.53c11.774 5.43 21.288 20.74 21.25 34.192l-.827 304.986c-.013 4.456-2.14 8.316-6.38 11.58l12.122-5.57c3.827-2.643 6.2-7.612 6.22-14.295l.826-304.986c.039-13.454-9.476-28.763-21.25-34.193L388.297 2.227z"/>
            <path fill="#6A9ED8" fill-rule="nonzero" d="M525.414 272.77v.47c0 .485.5.913 1.118.954.617.042 1.117-.318 1.117-.804v-.47c0-.486-.5-.913-1.117-.955-.618-.042-1.118.318-1.118.804zM525.414 136.865v21.78c0 .774.75 1.455 1.676 1.521.927.067 1.677-.507 1.677-1.282v-21.779c0-.774-.75-1.456-1.677-1.522-.926-.066-1.676.508-1.676 1.282z"/>
            <path fill="#FEFEFE" fill-rule="nonzero" d="M520.942 117.691l10.061-2.301v-3.288l-10.061 2.301z"/>
            <path fill="#FFFFFE" fill-rule="nonzero" d="M519.824 389.341l10.061-2.301v-3.288l-10.06 2.301z"/>
            <path fill="#6A9ED8" d="M380.508 6.697c-5.876-2.729-11.201-2.44-15.046.234l-4.38 3.099c3.845-2.673 9.17-2.962 15.047-.234l120.474 55.938c11.678 5.422 21.116 20.71 21.077 34.146l-.82 304.56c-.019 6.673-2.372 10.21-6.169 12.849l4.38-1.675c3.796-2.638 6.15-7.6 6.168-14.275l.82-304.559c.04-13.434-9.398-28.723-21.077-34.145L380.508 6.697z"/>
            <path fill="url(#i)" d="M164.331 97.73l-.824 305.035c-.038 13.457-9.58 19.962-21.312 14.532L21.174 361.27C9.442 355.841-.038 340.528 0 327.073L.824 22.037C.863 8.582 10.405 2.075 22.136 7.506L143.158 63.53c11.731 5.431 21.211 20.743 21.173 34.199z" transform="translate(356.61 .312)"/>
            <path fill="#262755" d="M514.235 99.275l-.75 295.244c-.035 12.226-8.71 18.138-19.374 13.203l-111.544-51.614c-10.666-4.935-19.283-18.849-19.249-31.075l.75-295.244c.034-12.226 8.71-18.138 19.374-13.203L494.987 68.2c10.663 4.936 19.282 18.849 19.248 31.075z"/>
            <path fill="#5171A6" d="M433.746 373.918c-5.557-2.706-10.061-10.757-10.061-17.982 0-7.226 4.504-10.89 10.06-8.184 5.557 2.706 10.062 10.757 10.062 17.982s-4.505 10.89-10.061 8.184z"/>
            <path fill="#2C2D5D" d="M434.305 371.753c-5.248-2.49-9.502-9.896-9.502-16.543 0-6.648 4.254-10.018 9.502-7.53 5.248 2.49 9.502 9.897 9.502 16.544 0 6.648-4.254 10.018-9.502 7.53z"/>
            <g transform="translate(366.672 46.146)">
                <mask id="k" fill="#fff">
                    <use xlink:href="#j"/>
                </mask>
                <use fill="#FFF" xlink:href="#j"/>
                <path stroke="#CDF" stroke-linecap="square" stroke-width="2" d="M69.458 149.68l42.332-68.073M69.458 149.68l-47.811 51.478M69.458 149.68l32.271 77.254" mask="url(#k)"/>
                <g mask="url(#k)">
                    <use fill="#000" filter="url(#l)" xlink:href="#m"/>
                    <use fill="#71C2FF" xlink:href="#m"/>
                </g>
                <path fill="#FFF" fill-rule="nonzero" d="M110.224 237.005c.693-.106 1.583.679 1.562 1.376l-.433 14.242c-.02.668-.84.787-1.54.223l-5.729-4.606-2.096 1.888c-.368.33-1.183-.019-1.489-.64l-2.933-5.942-5.248-2.493c-.69-.327-.893-1.189-.304-1.279l18.21-2.77zm-1.727 2.352c.192-.137-.138-.527-.368-.434l-10.01 4.008c-.176.07-.223.275-.114.497l2.39 4.851c.05.102.197.122.19.026l-.221-2.95c-.009-.114.03-.208.11-.266l8.023-5.732z" mask="url(#k)"/>
                <path fill="#B6D5F9" d="M59.619 279.213l-44.523-20.62a6.8 6.8 0 0 1-3.942-6.17v-12.95a2.55 2.55 0 0 1 3.622-2.313l44.522 20.62a6.8 6.8 0 0 1 3.942 6.17V276.9a2.55 2.55 0 0 1-3.621 2.314zM123.574 308.986l-44.523-20.62a6.8 6.8 0 0 1-3.942-6.17v-12.948a2.55 2.55 0 0 1 3.622-2.314l44.522 20.62a6.8 6.8 0 0 1 3.942 6.17v12.949a2.55 2.55 0 0 1-3.621 2.313z" mask="url(#k)"/>
                <g mask="url(#k)">
                    <g transform="translate(9.042 183.718)">
                        <use fill="#000" filter="url(#n)" xlink:href="#o"/>
                        <use fill="#68D75A" xlink:href="#o"/>
                    </g>
                    <path fill="#FCFDFE" d="M22.191 191.85c4.083 1.893 7.4 6.773 7.4 10.881 0 4.108-3.317 5.912-7.395 4.02-1.505-.697-2.9-1.795-4.07-3.117l-2.843-.403.921-2.34c-.886-1.638-1.408-3.39-1.408-5.02 0-4.108 3.317-5.912 7.395-4.02zm-2.065 2.827c-.143-.413-.252-.476-.47-.586a5.779 5.779 0 0 0-.247-.123c-.283-.131-.578-.185-.757-.084-.217.123-.756.394-.756 1.462 0 1.07.774 2.461.878 2.654.109.195 1.509 3.07 3.683 4.984 1.7 1.497 2.204 1.666 2.591 1.762.565.14 1.274.047 1.452-.378.179-.426.179-.86.126-.975-.052-.116-.195-.235-.413-.446-.217-.21-1.274-1.226-1.474-1.388-.195-.165-.382-.226-.53-.084-.209.197-.413.4-.578.503-.13.08-.344-.002-.522-.16-.24-.21-.909-.758-1.735-1.88a12.506 12.506 0 0 1-1.2-2.06c-.126-.277-.013-.351.087-.423.109-.086.213-.134.322-.21.108-.077.17-.114.239-.231.074-.11.022-.283-.03-.417-.053-.134-.488-1.404-.666-1.92z"/>
                </g>
                <g mask="url(#k)">
                    <g transform="translate(97.586 65.45)">
                        <use fill="#000" filter="url(#p)" xlink:href="#q"/>
                        <use fill="#085CD1" xlink:href="#q"/>
                    </g>
                    <path fill="#FEFEFE" d="M106.04 84.71c-.347-.16-.628-.572-.628-.919V73.677c0-.347.281-.497.628-.337l10.137 4.689c.348.16.63.571.63.918v10.115c0 .346-.282.497-.63.336l-2.903-1.343v-4.403l1.48.685.223-1.613-1.703-.788v-1.095c0-.497.138-.771.852-.441l.91.42v-1.534c-.157-.094-.697-.39-1.326-.681-1.313-.608-2.212-.224-2.212 1.245v1.265l-1.485-.687v1.716l1.485.687v4.403l-5.458-2.524z"/>
                </g>
                <g mask="url(#k)">
                    <path fill="#B6D5F9" d="M70.295 208.721c30.907 14.328 55.963-.746 55.963-33.669 0-32.923-25.056-71.227-55.963-85.555-30.908-14.328-55.963.746-55.963 33.67 0 32.922 25.055 71.226 55.963 85.554z" opacity=".5"/>
                    <path fill="#B6D5F9" d="M70.295 195.225c23.91 11.083 43.292-.578 43.292-26.047s-19.383-55.1-43.292-66.184c-23.91-11.084-43.293.577-43.293 26.046s19.383 55.1 43.293 66.185z"/>
                    <path fill="#023FCD" d="M70.259 182.227c17.339 8.037 31.395-.42 31.395-18.889 0-18.47-14.056-39.958-31.395-47.996-17.339-8.038-31.395.419-31.395 18.888 0 18.47 14.056 39.959 31.395 47.997z"/>
                    <path fill="#FFF" d="M85.911 163.247c-1.723.945-3.513 1.794-5.23 2.75-.656.365-1.139.256-1.815-.823a101.922 101.922 0 0 0-3.025-4.506c-.616-.874-.62-1.306.01-1.608 1.625-.779 3.2-1.634 4.79-2.464 2.496-1.305 2.464-3.702-.022-7.28-.58-.836-.928-.986-1.488-.684-2.349 1.27-4.736 2.482-7.112 3.712-1.305.676-1.306.675-2.627-1.288-.673-1-1.353-2-2.017-3.005-1.083-1.638-1.09-2.025.015-2.605 2.302-1.214 4.593-2.446 6.95-3.577.757-.363.8-.802.023-1.862-.974-1.329-1.867-2.714-2.762-4.09-.505-.776-.907-.935-1.422-.663-3.298 1.739-6.65 3.398-9.91 5.191-1.804.993-1.656 3.467.265 6.333 4.52 6.741 9.038 13.484 13.612 20.198.916 1.344 1.06 2.03.006 2.419-1.007.37-1.906.924-2.821 1.441-.519.292-.94.226-1.526-.65-4.816-7.202-9.766-14.34-14.446-21.604-4.276-6.635-4.06-12.71.397-15.184 4.724-2.622 9.612-5.008 14.4-7.537.68-.357 1.112-.037 1.72.87 4.695 7.017 9.432 14.015 14.122 21.037 2.127 3.185 3.207 6.485 3.17 9.621-.107 2.618-1.162 4.71-3.257 5.858z"/>
                </g>
            </g>
            <path fill="#262755" d="M493.623 56.833c-.649.511-1.713.644-2.368.303a.923.923 0 0 1-.433-.427c-.16-.35-.018-.779.421-1.123.655-.516 1.716-.652 2.374-.305.445.235.592.63.433 1.021M417.117 19.696c-1.298.767-3.426.966-4.737.455-.427-.168-.715-.39-.865-.64-.32-.525-.037-1.169.841-1.686 1.31-.773 3.433-.977 4.749-.457.89.353 1.184.946.866 1.533"/>
            <path fill="#D5E3F4" d="M447.16 67.204c-.004 1.515-1.099 1.535-2.45.923L418.299 56.17c-1.351-.612-2.444-1.622-2.44-3.138.005-1.516 1.104-1.53 2.455-.917l26.412 11.958c1.351.612 2.439 1.616 2.435 3.132zM460.575 74.022c-.004 1.386-1.056 1.404-2.354.845l-5.363-2.31c-1.299-.559-2.348-1.483-2.344-2.868.004-1.386 1.06-1.399 2.36-.84l5.362 2.31c1.299.56 2.344 1.477 2.34 2.863z"/>
        </g>
        <g>
            <path fill="#A2CEF1" d="M239.58 146.865l134.541 62.203V272l-2.999 1.42-131.541-63.623-2.878-61.365z"/>
            <g transform="translate(226.934 146.757)">
                <use fill="#FFF" xlink:href="#r"/>
                <path stroke="#F3F4F6" stroke-width="1.02" d="M10.172 2.4v19.083L.714 24.064l9.412 20.548.046.212v19.384l133.52 61.732V64.132L10.172 2.4z"/>
            </g>
            <path fill="#FF69E9" d="M312.727 192.778L244.82 161.29v8.739l10.786 5.001 57.12 26.488z"/>
            <path fill="#E0E8EB" d="M292.305 195.605l-47.485-22.019v3.703l7.543 3.498 39.942 18.522zM292.305 203.43l-47.485-22.018v3.703l7.543 3.497 39.942 18.522zM279.893 206.084l-35.073-15.73v3.704l35.073 15.73z"/>
            <path fill="#B6D5F9" d="M314.144 230.245v-14.618l-2.703 1.595-1.782-4.184 4.772-2.56 3.154 1.484v19.903l-3.44-1.62zm19.213-.965c0 1.406-.102 2.697-.307 3.875-.205 1.178-.533 2.144-.983 2.897-.451.753-1.035 1.247-1.752 1.48-.717.235-1.587.111-2.611-.37a7.257 7.257 0 0 1-2.622-2.092 11.97 11.97 0 0 1-1.772-3.14 17.87 17.87 0 0 1-.993-3.826 28.142 28.142 0 0 1-.307-4.165c0-1.405.102-2.692.307-3.861.205-1.169.536-2.119.993-2.85.458-.73 1.048-1.207 1.772-1.429.724-.221 1.598-.091 2.622.39a7.248 7.248 0 0 1 2.611 2.073c.717.9 1.301 1.929 1.752 3.087a17.64 17.64 0 0 1 .983 3.78 27.86 27.86 0 0 1 .307 4.15zm-3.523-1.658c0-.619-.027-1.316-.082-2.09a16.609 16.609 0 0 0-.307-2.24 8.222 8.222 0 0 0-.645-1.934c-.28-.572-.646-.964-1.096-1.176-.45-.212-.82-.166-1.106.14-.287.305-.509.744-.666 1.317a10.316 10.316 0 0 0-.317 1.945 26.887 26.887 0 0 0-.082 2.013c0 .638.027 1.349.082 2.133.054.785.16 1.538.317 2.258s.379 1.369.666 1.944c.287.575.655.97 1.106 1.181.45.212.816.164 1.096-.145.28-.308.495-.75.645-1.327.15-.575.252-1.23.307-1.963.055-.734.082-1.419.082-2.056zm16.243 7.644c0 1.406-.103 2.698-.308 3.876-.204 1.178-.532 2.143-.983 2.896-.45.754-1.034 1.247-1.751 1.481-.717.235-1.587.11-2.611-.371a7.257 7.257 0 0 1-2.622-2.092 11.97 11.97 0 0 1-1.772-3.139 17.87 17.87 0 0 1-.993-3.827 28.143 28.143 0 0 1-.308-4.164c0-1.406.103-2.693.308-3.862.204-1.168.536-2.118.993-2.85.457-.73 1.048-1.207 1.772-1.428.723-.222 1.597-.092 2.622.39a7.248 7.248 0 0 1 2.611 2.073c.717.9 1.3 1.928 1.751 3.087a17.64 17.64 0 0 1 .983 3.78 27.86 27.86 0 0 1 .308 4.15zm-3.523-1.658c0-.618-.028-1.315-.082-2.09a16.61 16.61 0 0 0-.307-2.24 8.222 8.222 0 0 0-.646-1.934c-.28-.572-.645-.964-1.095-1.176-.451-.212-.82-.165-1.107.14-.286.306-.508.745-.665 1.317a10.316 10.316 0 0 0-.318 1.945 26.888 26.888 0 0 0-.082 2.014c0 .637.028 1.348.082 2.133.055.784.16 1.537.318 2.258.157.72.379 1.368.665 1.943.287.576.656.97 1.107 1.182.45.212.815.163 1.095-.145.28-.309.495-.751.646-1.327.15-.576.252-1.23.307-1.964.054-.733.082-1.419.082-2.056zm22.162 15.463c0 .73-.103 1.371-.307 1.921-.205.55-.482.983-.83 1.297-.348.314-.761.499-1.24.555-.477.056-.982-.041-1.515-.292-.532-.25-1.038-.629-1.516-1.135a8.16 8.16 0 0 1-1.239-1.721 9.8 9.8 0 0 1-.83-2.078 8.29 8.29 0 0 1-.307-2.21c0-.731.103-1.372.308-1.922.205-.55.481-.982.83-1.296.347-.314.76-.5 1.238-.556.478-.056.984.041 1.516.292.533.25 1.038.629 1.516 1.135a8.16 8.16 0 0 1 1.239 1.722 9.8 9.8 0 0 1 .83 2.077 8.29 8.29 0 0 1 .307 2.21zm-2.294-1.08c0-.3-.045-.606-.133-.92a4.223 4.223 0 0 0-.349-.867 3.315 3.315 0 0 0-.501-.7 2.05 2.05 0 0 0-.615-.458c-.437-.205-.812-.166-1.126.117-.314.283-.471.725-.471 1.324 0 .6.157 1.185.47 1.754.315.57.69.957 1.127 1.163.219.103.423.143.615.12a.887.887 0 0 0 .501-.227c.144-.13.26-.305.349-.525.088-.22.133-.481.133-.78zm-7.538-13.5c0 .732-.102 1.372-.307 1.923-.205.55-.481.982-.83 1.296-.348.314-.76.499-1.239.555-.478.056-.983-.04-1.515-.292-.533-.25-1.038-.628-1.516-1.135a8.16 8.16 0 0 1-1.24-1.721 9.8 9.8 0 0 1-.829-2.077 8.29 8.29 0 0 1-.307-2.211c0-.75.102-1.4.307-1.95.205-.55.481-.982.83-1.296a2.11 2.11 0 0 1 1.239-.542c.478-.046.983.056 1.516.306.532.25 1.037.624 1.515 1.121a7.835 7.835 0 0 1 1.24 1.708 9.8 9.8 0 0 1 .829 2.077 8.39 8.39 0 0 1 .307 2.239zm-2.294-1.079c0-.6-.157-1.189-.47-1.768-.315-.578-.69-.97-1.127-1.176-.437-.206-.813-.167-1.127.116-.314.283-.471.725-.471 1.324 0 .6.157 1.185.471 1.754.314.57.69.957 1.127 1.163.436.206.812.172 1.126-.102.314-.274.471-.711.471-1.31zm-.02 15.874l-1.823-2.095 8.459-16.54 1.905 2.161-8.541 16.474z"/>
        </g>
        <g>
            <g transform="translate(278.357 24.906)">
                <use fill="#FFF" xlink:href="#s"/>
                <path stroke="#F3F4F6" stroke-width=".96" d="M118.322 54.46L2.009.613C1.137.214.48.752.48 1.986v108.01c0 1.377.89 2.934 1.936 3.43l116.32 55.867c.868.424 1.517-.103 1.517-1.361V57.933c0-1.407-.89-2.982-1.931-3.472z"/>
            </g>
            <path stroke="#DFF3FD" stroke-linecap="square" stroke-width=".96" d="M382.322 151.228l-91.668-43.598M382.322 125.517l-91.668-42.48M382.322 98.687l-91.668-42.48"/>
            <path fill="url(#d)" d="M100.611 120.177l-8.943-3.915v29.585l8.943 3.952zM86.078 71.222l-8.943-4.148v71.777l8.943 4.24zM70.428 92.49l-8.943-4.176v43.84l8.943 4.23zM57.013 104.716l-8.943-4.105v24.928l8.943 4.138zM41.362 86.687l-8.943-3.962v35.119l8.943 4.007z" transform="translate(278.357 24.906)"/>
            <path fill="#B6D5F9" d="M323.45 91.258l-15.285-7.043c-.41-.189-.742.078-.742.596v12.167c0 .518.332 1.091.742 1.28l5.459 2.524 2.183 2.913 2.165-.9 5.478 2.538c.41.19.741-.077.741-.596V92.541c0-.52-.332-1.094-.741-1.283z"/>
            <path fill="url(#d)" d="M29.065 103.794l-8.943-4.3v12.453l8.943 4.315z" transform="translate(278.357 24.906)"/>
            <path fill="#DFF3FD" d="M382.322 80.684l-21.24-9.945v4.574l21.24 9.96z"/>
            <path stroke="#DFF3FD" stroke-linecap="square" stroke-width=".96" d="M382.322 176.94l-91.668-43.598"/>
            <path fill="#DFF3FD" d="M348.785 62.785l-21.24-9.932v4.586l21.24 9.947zM311.894 47.123l-21.24-9.92v4.596l21.24 9.936z"/>
        </g>
    </g>
</svg>
