<svg xmlns="http://www.w3.org/2000/svg" width="390" height="516" viewBox="0 0 390 516">
    <defs>
        <linearGradient id="a" x1="69.903%" x2="98.27%" y1="84.686%" y2="2.233%">
            <stop offset="0%" stop-color="#965EE7"/>
            <stop offset="100%" stop-color="#AF7DFF"/>
        </linearGradient>
        <linearGradient id="b" x1="53.066%" x2="53.066%" y1="173.33%" y2="5.245%">
            <stop offset="0%" stop-color="#C716A1"/>
            <stop offset="100%" stop-color="#FF94EF"/>
        </linearGradient>
        <linearGradient id="c" x1="64.004%" x2="78.346%" y1="8.092%" y2="79.317%">
            <stop offset="0%" stop-color="#B66DF6"/>
            <stop offset="100%" stop-color="#8248DF"/>
        </linearGradient>
        <linearGradient id="d" x1="129.286%" x2="15.207%" y1="-49.064%" y2="133.747%">
            <stop offset="0%" stop-color="#68D75A"/>
            <stop offset="100%" stop-color="#86DE7A" stop-opacity="0"/>
        </linearGradient>
        <linearGradient id="e" x1="53.066%" x2="53.066%" y1="129.316%" y2="34.425%">
            <stop offset="0%" stop-color="#C716A1"/>
            <stop offset="100%" stop-color="#FF94EF"/>
        </linearGradient>
        <linearGradient id="f" x1="53.066%" x2="53.066%" y1="129.316%" y2="0%">
            <stop offset="0%" stop-color="#C716A1"/>
            <stop offset="100%" stop-color="#FF94EF"/>
        </linearGradient>
        <linearGradient id="g" x1="127.792%" x2="-2.297%" y1="-17.749%" y2="109.387%">
            <stop offset="0%" stop-color="#ABF0A2" stop-opacity="0"/>
            <stop offset="100%" stop-color="#68D75A"/>
        </linearGradient>
        <linearGradient id="h" x1="13.579%" x2="98.27%" y1="100%" y2="2.233%">
            <stop offset="0%" stop-color="#965EE7"/>
            <stop offset="100%" stop-color="#AF7DFF"/>
        </linearGradient>
        <linearGradient id="i" x1="112.674%" x2="-15.969%" y1="108.825%" y2="-18.173%">
            <stop offset="0%" stop-color="#93D0FF"/>
            <stop offset="100%" stop-color="#F9FDFE"/>
        </linearGradient>
        <linearGradient id="j" x1="19.063%" x2="53.066%" y1="227.422%" y2="0%">
            <stop offset="0%" stop-color="#C716A1"/>
            <stop offset="100%" stop-color="#FF94EF"/>
        </linearGradient>
    </defs>
    <g fill="none" fill-rule="evenodd">
        <path stroke="#99D6F0" d="M366.305 125.15v69.967l-69.598-25.258V99.89l69.598 25.26zm0-.693L296.707 99.2V76.79l-.689 22.158L226.42 73.69V51.283l-.689 22.157-69.598-25.259V25.774l-.689 22.157-69.598-25.258V.265l-.689 22.158-22.289-8.09 22.29 8.782v69.967l-22.29-8.089 22.29 8.782v69.967l-22.29-8.089 22.29 8.782v69.967l-22.29-8.089 22.29 8.782v69.967l-22.29-8.09 22.29 8.783v22.407l.688-22.157 69.598 25.259v22.407l.69-22.157 69.597 25.258v22.408l.69-22.158 69.597 25.259v22.407l.69-22.157 69.597 25.259v22.407l.69-22.157 22.289 8.089-22.29-8.782V337.38l22.29 8.09-22.29-8.783V266.72l22.29 8.09-22.29-8.783V196.06l22.29 8.09-22.29-8.783V125.4l22.29 8.09-22.29-8.783V102.3l-.689 22.157zM85.846 23.365l69.598 25.259v69.967L85.846 93.333V23.365zm70.287 25.51l69.598 25.258V144.1l-69.598-25.259V48.874zm70.287 25.508l69.598 25.258v69.968l-69.598-25.26V74.384zm139.885 191.394l-69.598-25.258V170.55l69.598 25.259v69.967zM85.846 94.025l69.598 25.259v69.967l-69.598-25.259V94.025zm70.287 25.509l69.598 25.259v69.967L156.133 189.5v-69.967zm139.885 50.767v69.967L226.42 215.01v-69.967l69.598 25.258zm70.287 166.136l-69.598-25.259v-69.967l69.598 25.259v69.967zm-210.86-146.493v69.967l-69.599-25.259v-69.967l69.598 25.259zm70.286 25.508v69.968l-69.598-25.259v-69.967l69.598 25.258zm70.287 25.51v69.966L226.42 285.67v-69.967l69.598 25.258zm70.287 96.168v69.967l-69.598-25.259v-69.967l69.598 25.259zm-210.86-76.526v69.967l-69.599-25.259v-69.967l69.598 25.259zm.688.25l69.598 25.258v69.967l-69.598-25.258v-69.967zm139.885 50.767v69.967L226.42 356.33v-69.968l69.598 25.26z" opacity=".4"/>
        <path fill="url(#a)" d="M297.793 324.475l-33.342-26.556v92.358l33.342 12.216z" transform="translate(62)"/>
        <path fill="url(#b)" d="M264.451 297.935l-33.341 12.331v67.795l33.341 12.216z" transform="translate(62)"/>
        <path fill="url(#a)" d="M231.11 310.266l-33.342-71.973v127.552l33.342 12.216z" transform="translate(62)"/>
        <path fill="url(#b)" d="M197.768 238.048l-33.341 4.555V353.63l33.341 12.216z" transform="translate(62)"/>
        <path fill="url(#a)" d="M164.427 242.806l-33.342-40.912v139.52l33.342 12.215z" transform="translate(62)"/>
        <path fill="url(#b)" d="M131.085 202.37l-33.341-48.063v174.89l33.341 12.216z" transform="translate(62)"/>
        <path fill="url(#a)" d="M97.744 154.307l-33.342 22.038v140.637l33.342 12.216z" transform="translate(62)"/>
        <path fill="url(#b)" d="M64.402 175.724l-33.341-40.936v169.978l33.341 12.216z" transform="translate(62)"/>
        <g>
            <path fill="url(#c)" d="M44.893 42.774a11.4 11.4 0 0 1 9.149-.357l42.123-22.71s.21 43.044.236 44.4a3.458 3.458 0 0 1-1.964 3.185L51.404 87.866a11.4 11.4 0 0 1-8.908.387L2.244 72.638A3.452 3.452 0 0 1 .011 69.57c-.015-.303-.015-14.941 0-43.916l44.882 17.12z" transform="translate(0 324.023)"/>
            <path fill="url(#a)" d="M51.839 87.872l43.19-20.575A3.451 3.451 0 0 0 97 64.112c-.026-1.356-.236-44.406-.236-44.406L54.487 42.42c-2.978-1.164-4.306-1.833-7.185-.44v46.998a11.479 11.479 0 0 0 4.537-1.105z" transform="translate(0 324.023)"/>
            <path fill="#8349DF" d="M1.942 346.014l42.947-20.84a11.351 11.351 0 0 1 9.15-.358l40.176 15.835c1.767.698 2.64 2.71 1.95 4.495a3.457 3.457 0 0 1-1.728 1.872L51.4 367.693a11.351 11.351 0 0 1-8.908.39L2.237 352.39c-1.778-.669-2.682-2.667-2.02-4.463a3.458 3.458 0 0 1 1.725-1.913z"/>
            <path fill="url(#c)" d="M10.038 9.562a2.506 2.506 0 0 1 2.046-.081l9.419-5.176s.047 9.81.052 10.119a.802.802 0 0 1-.052.301.78.78 0 0 1-.387.425l-9.622 4.688a2.505 2.505 0 0 1-1.992.089l-9-3.559a.786.786 0 0 1-.5-.7C0 15.6 0 12.265.002 5.662l10.036 3.901z" transform="translate(38.081 344.115)"/>
            <path fill="url(#a)" d="M11.762 19.84l9.366-4.69a.772.772 0 0 0 .376-.424.821.821 0 0 0 .051-.301c-.005-.31-.05-10.12-.05-10.12l-9.17 5.176c-.645-.265-.933-.417-1.557-.1v10.71c.337-.012.672-.096.984-.251z" transform="translate(38.081 344.115)"/>
            <path fill="#8349DF" d="M38.516 349.047l9.603-4.674a2.531 2.531 0 0 1 2.046-.08l8.983 3.551a.782.782 0 0 1 .05 1.428l-9.623 4.638a2.53 2.53 0 0 1-1.992.087l-9.001-3.52a.781.781 0 0 1-.066-1.43z"/>
            <g>
                <path fill="url(#c)" d="M10.038 9.562a2.506 2.506 0 0 1 2.046-.081l9.419-5.176s.047 9.81.052 10.119a.802.802 0 0 1-.052.301.78.78 0 0 1-.387.425l-9.622 4.688a2.505 2.505 0 0 1-1.992.089l-9-3.559a.786.786 0 0 1-.5-.7C0 15.6 0 12.265.002 5.662l10.036 3.901z" transform="translate(64.667 329.046)"/>
                <path fill="url(#a)" d="M11.762 19.84l9.366-4.69a.772.772 0 0 0 .376-.424.821.821 0 0 0 .051-.301c-.005-.31-.05-10.12-.05-10.12l-9.17 5.176c-.645-.265-.933-.417-1.557-.1v10.71c.337-.012.672-.096.984-.251z" transform="translate(64.667 329.046)"/>
                <path fill="#8349DF" d="M65.101 333.978l9.603-4.674a2.531 2.531 0 0 1 2.046-.08l8.983 3.552a.782.782 0 0 1 .05 1.428l-9.623 4.637a2.53 2.53 0 0 1-1.992.087l-9.001-3.52a.781.781 0 0 1-.066-1.43z"/>
            </g>
            <g>
                <path fill="url(#c)" d="M10.038 9.562a2.506 2.506 0 0 1 2.046-.081l9.419-5.176s.047 9.81.052 10.119a.802.802 0 0 1-.052.301.78.78 0 0 1-.387.425l-9.622 4.688a2.505 2.505 0 0 1-1.992.089l-9-3.559a.786.786 0 0 1-.5-.7C0 15.6 0 12.265.002 5.662l10.036 3.901z" transform="translate(11.496 334.069)"/>
                <path fill="url(#a)" d="M11.762 19.84l9.366-4.69a.772.772 0 0 0 .376-.424.821.821 0 0 0 .051-.301c-.005-.31-.05-10.12-.05-10.12l-9.17 5.176c-.645-.265-.933-.417-1.557-.1v10.71c.337-.012.672-.096.984-.251z" transform="translate(11.496 334.069)"/>
                <path fill="#8349DF" d="M11.93 339.001l9.604-4.674a2.531 2.531 0 0 1 2.046-.08l8.983 3.551a.782.782 0 0 1 .05 1.429l-9.623 4.637a2.53 2.53 0 0 1-1.992.087l-9.001-3.52a.781.781 0 0 1-.066-1.43z"/>
            </g>
            <g>
                <path fill="#97ED8C" d="M38.516 323.933l9.603-4.675a2.531 2.531 0 0 1 2.046-.08l8.983 3.552a.782.782 0 0 1 .05 1.428l-9.623 4.637a2.53 2.53 0 0 1-1.992.088l-9.001-3.52a.781.781 0 0 1-.066-1.43z"/>
                <path fill="url(#d)" d="M.434 4.933L10.037.258a2.531 2.531 0 0 1 2.046-.08l8.984 3.552a.782.782 0 0 1 .05 1.428l-9.624 4.637a2.53 2.53 0 0 1-1.992.088l-9-3.52a.781.781 0 0 1-.067-1.43z" transform="translate(38.081 319)"/>
            </g>
            <g>
                <path fill="url(#e)" d="M44.706 42.145a11.356 11.356 0 0 1 9.111-.355l41.947-22.61s.21 46.411.235 47.761a3.442 3.442 0 0 1-1.955 3.17L51.19 90.596a11.356 11.356 0 0 1-8.871.385L2.235 75.434A3.437 3.437 0 0 1 .01 72.38c-.015-.301-.015-16.061 0-47.28l44.695 17.045z" transform="translate(0 247.299)"/>
                <path fill="url(#f)" d="M51.027 90.602l43.01-20.485A3.436 3.436 0 0 0 96 66.947c-.026-1.35-.235-47.768-.235-47.768l-42.1 22.612c-2.965-1.16-4.289.248-7.155 1.634V91.7c1.55-.052 3.088-.42 4.518-1.1z" transform="translate(0 247.299)"/>
                <path fill="#E355C8" d="M1.934 269.076l42.768-20.637a11.362 11.362 0 0 1 9.112-.355l40.009 15.682a3.44 3.44 0 0 1 .221 6.305l-42.858 20.474a11.362 11.362 0 0 1-8.871.385L2.228 275.39a3.44 3.44 0 0 1-.294-6.314z"/>
                <path fill="url(#e)" d="M10.009 9.547a2.495 2.495 0 0 1 2.04-.081l9.39-5.167s.048 9.794.053 10.102a.801.801 0 0 1-.052.3.778.778 0 0 1-.385.425l-9.595 4.68a2.495 2.495 0 0 1-1.986.089L.5 16.342a.784.784 0 0 1-.498-.698c-.003-.069-.003-3.4 0-9.992L10.01 9.547z" transform="translate(35.82 265.209)"/>
                <path fill="url(#g)" d="M11.727 19.808l9.34-4.681a.77.77 0 0 0 .374-.424.82.82 0 0 0 .051-.301 8317.46 8317.46 0 0 1-.05-10.103L12.3 9.466c-.644-.265-.931-.417-1.554-.1V20.06c.337-.012.67-.096.981-.252z" transform="translate(35.82 265.209)"/>
                <path fill="url(#f)" d="M11.727 19.808l9.34-4.681a.77.77 0 0 0 .374-.424.82.82 0 0 0 .051-.301 8317.46 8317.46 0 0 1-.05-10.103L12.3 9.466c-.644-.265-.931.06-1.554.376V20.06c.337-.012.67-.096.981-.252z" transform="translate(35.82 265.209)"/>
                <path fill="#E355C8" d="M36.254 270.134l9.575-4.667a2.52 2.52 0 0 1 2.04-.08l8.957 3.546a.78.78 0 0 1 .05 1.426l-9.595 4.63a2.52 2.52 0 0 1-1.987.087l-8.974-3.514a.78.78 0 0 1-.066-1.428z"/>
                <g>
                    <path fill="url(#e)" d="M10.009 9.547a2.495 2.495 0 0 1 2.04-.081l9.39-5.167s.048 9.794.053 10.102a.801.801 0 0 1-.052.3.778.778 0 0 1-.385.425l-9.595 4.68a2.495 2.495 0 0 1-1.986.089L.5 16.342a.784.784 0 0 1-.498-.698c-.003-.069-.003-3.4 0-9.992L10.01 9.547z" transform="translate(60.896 253.03)"/>
                    <path fill="url(#g)" d="M11.727 19.808l9.34-4.681a.77.77 0 0 0 .374-.424.82.82 0 0 0 .051-.301 8317.46 8317.46 0 0 1-.05-10.103L12.3 9.466c-.644-.265-.931-.417-1.554-.1V20.06c.337-.012.67-.096.981-.252z" transform="translate(60.896 253.03)"/>
                    <path fill="url(#f)" d="M11.727 19.808l9.34-4.681a.77.77 0 0 0 .374-.424.82.82 0 0 0 .051-.301 8317.46 8317.46 0 0 1-.05-10.103L12.3 9.466c-.644-.265-.931.06-1.554.376V20.06c.337-.012.67-.096.981-.252z" transform="translate(60.896 253.03)"/>
                    <path fill="#E355C8" d="M61.329 257.955l9.575-4.667a2.52 2.52 0 0 1 2.04-.08l8.957 3.546a.78.78 0 0 1 .05 1.426l-9.596 4.63a2.52 2.52 0 0 1-1.986.087l-8.975-3.514a.78.78 0 0 1-.065-1.428z"/>
                </g>
                <g>
                    <path fill="url(#e)" d="M10.009 9.547a2.495 2.495 0 0 1 2.04-.081l9.39-5.167s.048 9.794.053 10.102a.801.801 0 0 1-.052.3.778.778 0 0 1-.385.425l-9.595 4.68a2.495 2.495 0 0 1-1.986.089L.5 16.342a.784.784 0 0 1-.498-.698c-.003-.069-.003-3.4 0-9.992L10.01 9.547z" transform="translate(12.18 255.18)"/>
                    <path fill="url(#g)" d="M11.727 19.808l9.34-4.681a.77.77 0 0 0 .374-.424.82.82 0 0 0 .051-.301 8317.46 8317.46 0 0 1-.05-10.103L12.3 9.466c-.644-.265-.931-.417-1.554-.1V20.06c.337-.012.67-.096.981-.252z" transform="translate(12.18 255.18)"/>
                    <path fill="url(#f)" d="M11.727 19.808l9.34-4.681a.77.77 0 0 0 .374-.424.82.82 0 0 0 .051-.301 8317.46 8317.46 0 0 1-.05-10.103L12.3 9.466c-.644-.265-.931.06-1.554.376V20.06c.337-.012.67-.096.981-.252z" transform="translate(12.18 255.18)"/>
                    <path fill="#E355C8" d="M12.612 260.104l9.575-4.667a2.52 2.52 0 0 1 2.04-.08l8.957 3.546a.78.78 0 0 1 .05 1.426l-9.595 4.63a2.52 2.52 0 0 1-1.986.087l-8.975-3.514a.78.78 0 0 1-.066-1.428z"/>
                </g>
                <g>
                    <path fill="url(#e)" d="M10.009 9.547a2.495 2.495 0 0 1 2.04-.081l9.39-5.167s.048 9.794.053 10.102a.801.801 0 0 1-.052.3.778.778 0 0 1-.385.425l-9.595 4.68a2.495 2.495 0 0 1-1.986.089L.5 16.342a.784.784 0 0 1-.498-.698c-.003-.069-.003-3.4 0-9.992L10.01 9.547z" transform="translate(37.254 243)"/>
                    <path fill="url(#g)" d="M11.727 19.808l9.34-4.681a.77.77 0 0 0 .374-.424.82.82 0 0 0 .051-.301 8317.46 8317.46 0 0 1-.05-10.103L12.3 9.466c-.644-.265-.931-.417-1.554-.1V20.06c.337-.012.67-.096.981-.252z" transform="translate(37.254 243)"/>
                    <path fill="url(#f)" d="M11.727 19.808l9.34-4.681a.77.77 0 0 0 .374-.424.82.82 0 0 0 .051-.301 8317.46 8317.46 0 0 1-.05-10.103L12.3 9.466c-.644-.265-.931.06-1.554.376V20.06c.337-.012.67-.096.981-.252z" transform="translate(37.254 243)"/>
                    <path fill="#E355C8" d="M37.687 247.925l9.575-4.667a2.52 2.52 0 0 1 2.04-.08l8.957 3.546a.78.78 0 0 1 .05 1.426l-9.596 4.63a2.52 2.52 0 0 1-1.986.087l-8.974-3.514a.78.78 0 0 1-.066-1.428z"/>
                </g>
            </g>
        </g>
        <g>
            <path fill="#91C8F1" d="M45.014 480.188c.41 10.549 10.069 20.445 29.01 27.326 39.018 14.175 102.65 10.182 142.125-8.919 21.353-10.332 31.264-22.967 29.689-34.635l.076-.006-.81-38.154L164.9 412 45 442.036v38.153h.014z"/>
            <path fill="url(#c)" d="M200.948 74.917c-.617 10.637-11.289 21.463-30.478 30.756-4.828 2.338-10.017 4.449-15.48 6.327L100 73.542 202 50c-.632 15.413-.983 23.719-1.052 24.917z" transform="translate(45 393)"/>
            <path fill="url(#h)" d="M201.481 46c2.977 12.218-6.863 25.711-29.467 36.636-4.865 2.352-10.094 4.475-15.599 6.364L101 50.32 201.481 46z" transform="translate(45 393)"/>
            <path fill="url(#i)" d="M100.405 36.457L200 32.407c-2.234-9.166-11.345-17.856-28.113-23.938C132.89-5.678 69.29-1.692 29.835 17.37-6.57 34.959-9.699 59.238 20.67 74l79.735-37.543z" transform="translate(45 393)"/>
            <path fill="url(#f)" d="M100.683 74L156 81.225v30.835c-39.206 13.315-92.406 14.846-126.653 2.549A87.346 87.346 0 0 1 21 111.14V81.225c0-.699 26.561-3.107 79.683-7.225z" transform="translate(45 393)"/>
            <path fill="url(#j)" d="M100.683 43L156 81.06c-39.206 13.315-92.406 14.846-126.653 2.549A87.346 87.346 0 0 1 21 80.14L100.683 43z" transform="translate(45 393)"/>
        </g>
        <path stroke="#71C2FF" stroke-linecap="round" stroke-linejoin="round" stroke-width="5" d="M363.732 304l-33.341-26.556-33.342 12.348-33.341-71.973-33.342 4.31-33.341-40.71-33.342-47.587-33.341 22.038L97 114.313"/>
    </g>
</svg>
