<svg xmlns="http://www.w3.org/2000/svg" xmlns:xlink="http://www.w3.org/1999/xlink" width="171" height="216" viewBox="0 0 171 216">
    <defs>
        <filter id="a" height="114.5%" x="-14.2%" y="-8.8%" filterUnits="objectBoundingBox">
            <feOffset dx="-4" dy="-2" in="SourceAlpha" result="shadowOffsetOuter1"/>
            <feGaussianBlur in="shadowOffsetOuter1" result="shadowBlurOuter1" stdDeviation="2.5"/>
            <feColorMatrix in="shadowBlurOuter1" result="shadowMatrixOuter1" values="0 0 0 0 0.00392156863 0 0 0 0 0.278431373 0 0 0 0 0.6 0 0 0 0.132642663 0"/>
            <feMerge>
                <feMergeNode in="shadowMatrixOuter1"/>
                <feMergeNode in="SourceGraphic"/>
            </feMerge>
        </filter>
        <linearGradient id="b" x1="62.466%" x2="50%" y1="77.912%" y2="-112.142%">
            <stop offset="0%" stop-color="#13547A"/>
            <stop offset="100%" stop-color="#80D0C7"/>
        </linearGradient>
        <path id="c" d="M5.933 43.4L93.27 2.492c.916-.423 1.658.182 1.658 1.35v81.095c0 1.168-.742 2.47-1.658 2.909l-87.337 42.42c-.915.452-1.658-.147-1.658-1.337V46.342c0-1.19.743-2.507 1.658-2.943z"/>
        <linearGradient id="d" x1="13.17%" x2="85.753%" y1="95.516%" y2="-83.34%">
            <stop offset="0%" stop-color="#13547A"/>
            <stop offset="100%" stop-color="#80D0C7"/>
        </linearGradient>
        <path id="f" d="M3.12 29.518l59-27.792c.47-.222.852.076.852.665V45.75c0 .589-.381 1.246-.851 1.467L3.12 75.01c-.47.22-.85-.077-.85-.666V30.985c0-.589.38-1.245.85-1.467z"/>
        <filter id="e" width="165.9%" height="154.5%" x="-49.4%" y="-27.2%" filterUnits="objectBoundingBox">
            <feOffset dx="-10" in="SourceAlpha" result="shadowOffsetOuter1"/>
            <feGaussianBlur in="shadowOffsetOuter1" result="shadowBlurOuter1" stdDeviation="5"/>
            <feComposite in="shadowBlurOuter1" in2="SourceAlpha" operator="out" result="shadowBlurOuter1"/>
            <feColorMatrix in="shadowBlurOuter1" values="0 0 0 0 0.0352941176 0 0 0 0 0.505882353 0 0 0 0 0.745098039 0 0 0 0.2 0"/>
        </filter>
        <path id="h" d="M1.12 28.518l59-27.792c.47-.222.852.076.852.665V63.75c0 .589-.381 1.246-.851 1.467L1.12 93.01c-.47.22-.85-.077-.85-.666V29.985c0-.589.38-1.245.85-1.467z"/>
        <filter id="g" width="157.7%" height="137.9%" x="-37.1%" y="-18.9%" filterUnits="objectBoundingBox">
            <feOffset dx="-5" in="SourceAlpha" result="shadowOffsetOuter1"/>
            <feGaussianBlur in="shadowOffsetOuter1" result="shadowBlurOuter1" stdDeviation="5"/>
            <feComposite in="shadowBlurOuter1" in2="SourceAlpha" operator="out" result="shadowBlurOuter1"/>
            <feColorMatrix in="shadowBlurOuter1" values="0 0 0 0 0.0352941176 0 0 0 0 0.505882353 0 0 0 0 0.745098039 0 0 0 0.146654212 0"/>
        </filter>
        <path id="j" d="M2.87 29.933L63.13 1.076c.48-.23.87.077.87.685V46.55c0 .609-.39 1.288-.87 1.518L2.87 76.924c-.48.23-.87-.077-.87-.685V31.45c0-.609.39-1.288.87-1.518z"/>
        <filter id="i" width="164.5%" height="152.6%" x="-48.4%" y="-26.3%" filterUnits="objectBoundingBox">
            <feOffset dx="-10" in="SourceAlpha" result="shadowOffsetOuter1"/>
            <feGaussianBlur in="shadowOffsetOuter1" result="shadowBlurOuter1" stdDeviation="5"/>
            <feComposite in="shadowBlurOuter1" in2="SourceAlpha" operator="out" result="shadowBlurOuter1"/>
            <feColorMatrix in="shadowBlurOuter1" values="0 0 0 0 0.0352941176 0 0 0 0 0.505882353 0 0 0 0 0.745098039 0 0 0 0.2 0"/>
        </filter>
    </defs>
    <g fill="none" fill-rule="evenodd">
        <path stroke="#13547A" stroke-dasharray="3,5" stroke-linecap="round" stroke-linejoin="round" stroke-width="1.5" d="M155.361 41v56.305a10 10 0 0 1-5.289 8.821L121 121.652M26 137v54.184a5 5 0 0 0 7.25 4.466l22.791-11.481"/>
        <g filter="url(#a)" transform="translate(45 77)">
            <path fill="url(#b)" d="M2.07 41.465L89.405.558c.426-.196.814-.17 1.108.03.177.122 2.024 1.026 3.739 1.947 1.033.556-.03 27.378-3.189 80.468 0 1.169-.742 2.471-1.658 2.91l-84.254 44.32c-.445.219-3.932-1.71-4.23-1.933-.315-.237-.51-.693-.51-1.304V44.408c0-1.19.742-2.508 1.657-2.943z"/>
            <use fill="#FFF" xlink:href="#c"/>
            <path stroke="#F3F4F6" stroke-width=".96" d="M6.138 43.833c-.739.352-1.383 1.496-1.383 2.51v82.587c0 .863.4 1.186.969.906l87.339-42.422c.741-.355 1.385-1.485 1.385-2.476V3.843c0-.844-.408-1.177-.974-.916L6.138 43.833z"/>
            <path fill="#DFF3FD" d="M12.165 47.64l74.874-35.07c.785-.362 1.422.156 1.422 1.158v65.984c0 1.001-.637 2.118-1.422 2.494l-74.874 36.368c-.786.386-1.422-.127-1.422-1.147V50.163c0-1.02.636-2.15 1.422-2.523z"/>
            <path fill="#FFF" d="M18.627 54.51L51.63 39.05c.346-.159.626.07.626.511v29.085c0 .442-.28.934-.626 1.1l-33.004 16.03c-.346.17-.627-.056-.627-.505V55.62c0-.45.28-.947.627-1.112zM57.476 36.937L82.524 25.03c.263-.122.476.137.476.578v50.683c0 .442-.213.904-.476 1.032L57.476 89.802c-.263.133-.476-.124-.476-.573V37.98c0-.45.213-.917.476-1.044z"/>
        </g>
        <path fill="url(#d)" d="M1.12 28.518L60.972.525c.754-.356 1.992-.086 1.945 1.48l-1.945 42.744c0 .589-.381 1.246-.851 1.467L2.848 75.098c-.384.193-1.018-.065-1.903-.775-.561-.496-.676-1.246-.676-2.075V29.985c0-.589.381-1.245.851-1.467z" transform="translate(108 132)"/>
        <g opacity=".96" transform="translate(108 132)">
            <use fill="#000" filter="url(#e)" xlink:href="#f"/>
            <use fill="#FFF" xlink:href="#f"/>
            <path stroke="#F3F4F6" d="M3.333 29.97c-.287.136-.564.613-.564 1.015v43.358c0 .247.025.266.138.213l59-27.792c.288-.136.565-.612.565-1.015V2.391c0-.246-.026-.266-.138-.213l-59 27.793z"/>
        </g>
        <path fill="#5FF5F5" d="M117.483 162.73l5.39-2.538v1.066l-5.39 2.539zM132.632 155.66l5.39-2.54v1.067l-5.39 2.539zM147.421 148.587l5.39-2.538v1.066l-5.39 2.539zM162.57 141.516l5.39-2.538v1.066l-5.39 2.538z"/>
        <path stroke="#DFF3FD" stroke-linecap="square" d="M113.876 187.938l53.393-25.15M113.876 181.896l53.393-25.15M113.876 176.566l53.393-25.151M113.876 193.624l53.393-25.15M113.876 199.666l53.393-25.15"/>
        <path stroke="#5FF5F5" stroke-linecap="round" stroke-linejoin="round" d="M112.794 189.535c3.831-2.765 7.104-5.87 9.82-9.316 4.074-5.169 5.092-7.268 9.748-7.026 4.655.243 5.892-2.57 6.474.23.582 2.8 4.219 2.104 4.51 4.73.29 2.625 4.073 3.26 4.51-2.424.436-5.683 2.11-8.286 5.31-10.8 3.2-2.515 2.4.3 5.383-1.7 2.982-2 4.365-8.372 7.638-6.753"/>
        <path fill="#16CACA" d="M137.22 174.144c.94-.443 1.702-1.756 1.702-2.934 0-1.178-.762-1.773-1.702-1.33-.94.442-1.702 1.756-1.702 2.933 0 1.178.762 1.774 1.702 1.331z" opacity=".5"/>
        <path fill="#16CACA" d="M137.36 173.06c.406-.191.735-.759.735-1.268s-.329-.766-.735-.575c-.406.192-.736.76-.736 1.268 0 .51.33.767.736.575zM115.307 165.21c.391-.184.709-.731.709-1.222 0-.49-.318-.739-.71-.554-.391.184-.709.731-.709 1.222 0 .49.318.739.71.555zM130.456 158.14c.392-.185.71-.732.71-1.223 0-.49-.318-.739-.71-.555-.392.185-.71.732-.71 1.223 0 .49.318.739.71.554zM145.605 151.068c.392-.184.71-.732.71-1.222s-.318-.74-.71-.555c-.391.185-.709.732-.709 1.223 0 .49.318.739.71.554zM160.394 143.996c.392-.184.71-.732.71-1.222s-.318-.74-.71-.555c-.392.185-.71.732-.71 1.223 0 .49.318.739.71.554z"/>
        <g>
            <g transform="translate(15 85)">
                <use fill="#000" filter="url(#g)" xlink:href="#h"/>
                <use fill="#FFF" xlink:href="#h"/>
                <path stroke="#F3F4F6" d="M1.333 28.97c-.287.136-.564.613-.564 1.015v62.358c0 .247.025.266.138.213l59-27.792c.288-.136.565-.612.565-1.015V1.391c0-.246-.026-.266-.138-.213l-59 27.793z"/>
            </g>
            <path fill="url(#b)" d="M8.211 19.908c4.535-2.146 8.211-8.173 8.211-13.46 0-5.287-3.676-7.833-8.21-5.686C3.675 2.908 0 8.934 0 14.222c0 5.286 3.676 7.832 8.211 5.686z" transform="translate(23 114)"/>
            <path fill="#FFF" fill-rule="nonzero" d="M31.124 125.698c1.154-.546 2.205-2.949 2.205-5.041 0-1.815-.803-2.476-2.205-1.812-1.4.663-2.204 2.084-2.204 3.899 0 2.092 1.05 3.5 2.204 2.954z"/>
            <path fill="#FFF" fill-rule="nonzero" d="M35.424 125.126c-.627-.145-1.943-.432-2.736-.494-.39.727-.957 1.321-1.564 1.637-.608.259-1.177.2-1.567-.16-.797.813-2.11 2.348-2.735 3.087-.218.26-.352.6-.351.898v.511c0 .42.26.655.616.554a28.538 28.538 0 0 0 4.037-1.463 36.841 36.841 0 0 0 4.038-2.36c.356-.235.617-.717.616-1.136v-.51c0-.3-.134-.514-.354-.564z"/>
            <path fill="#C6E0FD" d="M23 144.873l25.087-12.313v2.502L23 147.375zM23 150.873l46.346-21.535v2.502L23 153.375zM23 156.873l46.346-21.535v2.502L23 159.375zM23 162.873l46.346-21.535v2.502L23 165.375z"/>
        </g>
        <g>
            <path fill="url(#d)" d="M1.12 28.518L61.972.525c.754-.356 1.992-.086 1.945 1.48l-1.945 44.744c0 .589-.381 1.246-.851 1.467C35 60.927 15.575 70.492 2.848 76.91c-.384.194-1.018-.004-1.903-.593C.384 75.82.27 74.89.27 74.06V29.985c0-.589.381-1.245.851-1.467z" transform="translate(107 8)"/>
            <g opacity=".96" transform="translate(107 8)">
                <use fill="#000" filter="url(#i)" xlink:href="#j"/>
                <use fill="#FFF" xlink:href="#j"/>
                <path stroke="#F3F4F6" d="M3.085 30.384c-.298.143-.585.643-.585 1.067v44.788c0 .266.033.291.153.234l60.262-28.857c.298-.143.585-.643.585-1.067V1.761c0-.266-.033-.291-.153-.234L3.085 30.384z"/>
            </g>
            <path fill="#5FF5F5" d="M116.344 39.322l5.508-2.686v1.122l-5.508 2.685zM131.88 31.707l5.507-2.685v1.122l-5.508 2.685zM146.85 24.375l5.508-2.685v1.122l-5.508 2.685zM162.385 17.184l5.508-2.685v1.122l-5.508 2.685z"/>
            <path stroke="#DFF3FD" stroke-linecap="square" stroke-width="1.25" d="M112.813 65.4l54.656-26.226M112.813 59.056l54.656-26.227M112.813 53.557L167.47 27.33M112.813 71.04l54.656-26.226M112.813 77.386L167.47 51.16"/>
            <path fill="#16CACA" d="M114.226 41.653c.39-.179.706-.708.706-1.181 0-.473-.316-.712-.706-.533-.39.179-.707.707-.707 1.18 0 .474.317.713.707.534zM129.62 34.32c.39-.178.706-.707.706-1.18s-.316-.712-.706-.533c-.39.179-.707.707-.707 1.18 0 .474.317.713.707.534zM144.872 26.848c.39-.18.707-.708.707-1.181 0-.474-.317-.712-.707-.533-.39.179-.706.707-.706 1.18 0 .474.316.713.706.534zM159.984 19.516c.39-.18.706-.708.706-1.181 0-.474-.316-.712-.706-.533-.39.178-.706.707-.706 1.18 0 .474.316.713.706.534z"/>
            <g fill="#2DDEDE">
                <path d="M115 67.252l4.21-1.979v9.4L115 76.652zM121.665 49.497l4.21-1.979V71.54l-4.21 1.979zM128.33 55.764l4.21-1.979v14.622l-4.21 1.98zM134.995 39.401l4.209-1.978v27.852l-4.21 1.978zM141.66 43.231l4.209-1.978v20.889l-4.21 1.978zM148.324 46.365l4.21-1.979V59.01l-4.21 1.978zM154.99 32.092l4.208-1.98v25.764l-4.209 1.978zM161.654 33.833l4.21-1.979v20.889l-4.21 1.979z"/>
            </g>
        </g>
    </g>
</svg>
