<svg xmlns="http://www.w3.org/2000/svg" xmlns:xlink="http://www.w3.org/1999/xlink" width="138" height="200" viewBox="0 0 138 200">
    <defs>
        <linearGradient id="a" x1="93.624%" x2="50%" y1="0%" y2="100%">
            <stop offset="0%" stop-color="#F1FAFF"/>
            <stop offset="100%" stop-color="#DFF3FD"/>
        </linearGradient>
        <linearGradient id="b" x1="100%" x2="0%" y1="92.338%" y2="92.338%">
            <stop offset="0%" stop-color="#5BD4F2" stop-opacity="0"/>
            <stop offset="20.148%" stop-color="#3E8599"/>
            <stop offset="51.787%" stop-color="#13547A"/>
            <stop offset="79.907%" stop-color="#0C3B56"/>
            <stop offset="100%" stop-color="#2EA9E0" stop-opacity="0"/>
        </linearGradient>
        <filter id="c" width="134.5%" height="114.5%" x="-24.5%" y="-8.8%" filterUnits="objectBoundingBox">
            <feOffset dx="-4" dy="-2" in="SourceAlpha" result="shadowOffsetOuter1"/>
            <feGaussianBlur in="shadowOffsetOuter1" result="shadowBlurOuter1" stdDeviation="2.5"/>
            <feColorMatrix in="shadowBlurOuter1" result="shadowMatrixOuter1" values="0 0 0 0 0.00392156863 0 0 0 0 0.278431373 0 0 0 0 0.6 0 0 0 0.132642663 0"/>
            <feMerge>
                <feMergeNode in="shadowMatrixOuter1"/>
                <feMergeNode in="SourceGraphic"/>
            </feMerge>
        </filter>
        <linearGradient id="d" x1="123.172%" x2="38.292%" y1="-89.682%" y2="81.578%">
            <stop offset="0%" stop-color="#75FFFF"/>
            <stop offset="100%" stop-color="#14C8C8"/>
        </linearGradient>
        <linearGradient id="e" x1="100%" x2="22.277%" y1="-20.779%" y2="95.402%">
            <stop offset="0%" stop-color="#75FFFF"/>
            <stop offset="100%" stop-color="#23D9D9"/>
        </linearGradient>
        <linearGradient id="f" x1="62.466%" x2="50%" y1="77.912%" y2="-112.142%">
            <stop offset="0%" stop-color="#13547A"/>
            <stop offset="100%" stop-color="#80D0C7"/>
        </linearGradient>
        <linearGradient id="h" x1="50%" x2="50%" y1="21.943%" y2="94.456%">
            <stop offset="0%" stop-color="#BAE4FB"/>
            <stop offset="100%" stop-color="#DFF3FD"/>
        </linearGradient>
        <path id="g" d="M22.503.111l-.179-.013C1.204 24.928-4.93 53.205 3.921 84.928c1.73 5.942 7.864 8.93 18.403 8.964 10.648.014 16.842-2.975 18.582-8.951 8.85-31.722 2.717-59.999-18.403-84.83z"/>
    </defs>
    <g fill="none" fill-rule="evenodd">
        <path stroke="url(#a)" d="M9.574 65.69v28.998l28.998-13.926V51.765L9.574 65.69zm0-.287l28.998-13.926v-9.286l.287 9.149 28.997-13.926v-9.287l.288 9.149L97.14 23.35v-9.286l.287 9.148 28.998-13.925V0l.287 9.149L136 4.689l-9.287 4.747v28.998l9.287-4.46-9.287 4.747v28.998l9.287-4.46-9.287 4.747v28.997l9.287-4.46-9.287 4.748v28.997l9.287-4.46-9.287 4.747v9.287l-.287-9.149-28.998 13.926v9.287l-.287-9.15-28.997 13.927v9.286l-.288-9.149-28.997 13.926v9.287l-.287-9.149L9.574 182.83v9.286l-.287-9.148L0 187.428l9.287-4.748v-28.997L0 158.143l9.287-4.747v-28.998L0 128.858l9.287-4.747V95.113L0 99.573l9.287-4.747V65.828L0 70.288l9.287-4.747v-9.287l.287 9.15zm116.852-55.83L97.428 23.5v28.997l28.998-13.925V9.574zM97.141 23.638L68.144 37.563v28.998L97.14 52.635V23.637zM67.856 37.701L38.86 51.627v28.997L67.856 66.7V37.7zM9.574 123.973l28.998-13.926V81.05L9.574 94.975v28.998zm116.852-85.114L97.428 52.784v28.998l28.998-13.926V38.86zM97.141 52.922L68.144 66.848v28.998L97.14 81.92V52.922zM38.86 80.912v28.997l28.997-13.925V66.986L38.86 80.912zM9.574 153.258l28.998-13.926v-28.998L9.574 124.26v28.998zm87.854-71.189v28.998l28.998-13.926V68.144L97.428 82.069zM68.144 96.133v28.998l28.997-13.926V82.207L68.144 96.133zm-29.285 14.063v28.998l28.997-13.926V96.271L38.86 110.196zM9.574 153.545v28.998l28.998-13.926v-28.998L9.574 153.545zm87.854-42.19v28.997l28.998-13.926V97.428l-28.998 13.926zm-.287.137l-28.997 13.926v28.997L97.14 140.49v-28.998zm-58.282 27.99v28.997l28.997-13.926v-28.997L38.86 139.48z" transform="translate(1 1)"/>
        <path stroke="url(#b)" stroke-linecap="round" stroke-linejoin="round" stroke-width="3" d="M2 177.07c5.905-5.526 10.951-22.627 15.137-29.062 6.28-9.653 7.849-13.433 15.025-14.045 7.176-.612 9.082-5.648 9.98-1.032.896 4.616 6.503-5.887 6.951-1.503.449 4.384 6.28 4.629 6.952-5.097.673-9.725 3.252-5.977 8.185-10.94 4.934-4.964 3.7-.02 8.297-4.064 4.598-4.043 6.728-15.143 11.774-13.12 5.045 2.024 6.054-2.98 12.221-6.715 6.167-3.736 11.325-9.088 14.577-18.205 3.251-9.116 11.641-12.054 13.387-1.892C126.232 81.558 137 73.968 137 80.972" transform="translate(1 1)"/>
        <g filter="url(#c)" transform="translate(58 26)">
            <path fill="url(#d)" d="M34.92 20.235v100.303L19.804 130.87l-5.687-2.56V28.006l-8.458 7.672L0 33.278 24.518 0l6.002 2.4 18.517 12.563z"/>
            <path fill="url(#e)" d="M40.579 22.969v104.647l-20.805-1.672V30.707L5.658 35.678 30.176 2.817l24.519 14.9z"/>
        </g>
        <path fill="url(#f)" d="M46 84.026c4.123-2.698 7.788-2.04 10.994 1.974.158-9.216-2.666-15.882-8.472-20l-2.39 14.521L46 84.026z" transform="translate(42 74)"/>
        <path fill="url(#e)" d="M41.8 89.093c.958 5.102-1.531 10.715-7.466 16.839-.36-2.473-1.252-4.71-2.678-6.713.612 14-1.67 22.926-6.846 26.781 1.518-3.728 1.46-7.482-.173-11.261-2.45-5.668-5.969-14.05-5.969-15.52-.85.774-1.172 2.898-.965 6.373-3.279-3.749-4.843-8.226-4.693-13.43.15-5.206 7.389-7.926 21.717-8.162l7.074 5.093z" transform="translate(42 74)"/>
        <g transform="translate(47 74)">
            <mask id="i" fill="#fff">
                <use xlink:href="#g"/>
            </mask>
            <use fill="url(#h)" xlink:href="#g"/>
            <path fill="url(#f)" d="M2.1 26.703c.711 10.89 7.424 16.334 20.137 16.334 19.07 0 20.869-14.238 19.627-17.06-.828-1.88-6.141-12.726-15.941-32.535L.073.015 2.1 26.703z" mask="url(#i)"/>
        </g>
        <path fill="#0C3B57" d="M82.95 139.898c3.693.426 8.264-5.794 9.55-10.382 1.285-4.588-1.993-7.696-5.457-7.575-3.463.12-7.313 3.938-8.599 8.526-1.285 4.588.813 9.004 4.506 9.43z"/>
        <path fill="url(#f)" d="M42 66c3.312 0 7.117-3.806 8.498-8.5 1.38-4.694-.185-8.5-3.498-8.5-3.312 0-7.117 3.806-8.498 8.5-1.38 4.694.185 8.5 3.498 8.5z" transform="translate(42 74)"/>
        <path fill="url(#e)" d="M43.461 63c2.039 0 4.38-2.462 5.23-5.5.85-3.038-.114-5.5-2.152-5.5-2.039 0-4.38 2.462-5.23 5.5-.85 3.038.114 5.5 2.152 5.5z" transform="translate(42 74)"/>
        <path fill="#0C3B57" d="M56.095 160.006L58 154.022 55.235 152C46.88 164.17 42.467 176.872 42 190.104l1.978.896 3.833-12.47 8.284-18.524z"/>
        <path fill="url(#f)" d="M15.824 80.086C7.272 91.312 2.657 103.622 1.98 117.015c2.086-4.78 4.524-8.212 7.313-10.295 4.185-3.125 8.38-7.46 10.707-13.706l-4.176-12.928z" transform="translate(42 74)"/>
    </g>
</svg>
