<svg xmlns="http://www.w3.org/2000/svg" xmlns:xlink="http://www.w3.org/1999/xlink" width="163" height="164" viewBox="0 0 163 164">
    <defs>
        <filter id="a" height="114.5%" x="-14.2%" y="-8.8%" filterUnits="objectBoundingBox">
            <feOffset dx="-4" dy="-2" in="SourceAlpha" result="shadowOffsetOuter1"/>
            <feGaussianBlur in="shadowOffsetOuter1" result="shadowBlurOuter1" stdDeviation="2.5"/>
            <feColorMatrix in="shadowBlurOuter1" result="shadowMatrixOuter1" values="0 0 0 0 0.00392156863 0 0 0 0 0.278431373 0 0 0 0 0.6 0 0 0 0.132642663 0"/>
            <feMerge>
                <feMergeNode in="shadowMatrixOuter1"/>
                <feMergeNode in="SourceGraphic"/>
            </feMerge>
        </filter>
        <linearGradient id="b" x1="62.466%" x2="50%" y1="77.912%" y2="-112.142%">
            <stop offset="0%" stop-color="#13547A"/>
            <stop offset="100%" stop-color="#80D0C7"/>
        </linearGradient>
        <path id="c" d="M5.933 43.4L93.27 2.492c.916-.423 1.658.182 1.658 1.35v81.095c0 1.168-.742 2.47-1.658 2.909l-87.337 42.42c-.915.452-1.658-.147-1.658-1.337V46.342c0-1.19.743-2.507 1.658-2.943z"/>
        <path id="e" d="M9.945 29.828L68.712 1.676c.468-.224.848.075.848.669v26.181c0 .594-.38 1.257-.848 1.48L9.945 58.16c-.468.224-.848-.075-.848-.668v-7.072l-6.891-2.422 6.891-10.211v-6.477c0-.594.38-1.256.848-1.48z"/>
        <filter id="d" width="159.4%" height="170.6%" x="-44.5%" y="-35.3%" filterUnits="objectBoundingBox">
            <feOffset dx="-10" in="SourceAlpha" result="shadowOffsetOuter1"/>
            <feGaussianBlur in="shadowOffsetOuter1" result="shadowBlurOuter1" stdDeviation="5"/>
            <feComposite in="shadowBlurOuter1" in2="SourceAlpha" operator="out" result="shadowBlurOuter1"/>
            <feColorMatrix in="shadowBlurOuter1" values="0 0 0 0 0.0352941176 0 0 0 0 0.505882353 0 0 0 0 0.745098039 0 0 0 0.2 0"/>
        </filter>
        <path id="g" d="M9.945 29.828L68.712 1.676c.468-.224.848.075.848.669v26.181c0 .594-.38 1.257-.848 1.48L9.945 58.16c-.468.224-.848-.075-.848-.668v-7.072l-6.891-2.422 6.891-10.211v-6.477c0-.594.38-1.256.848-1.48z"/>
        <filter id="f" width="159.4%" height="170.6%" x="-44.5%" y="-35.3%" filterUnits="objectBoundingBox">
            <feOffset dx="-10" in="SourceAlpha" result="shadowOffsetOuter1"/>
            <feGaussianBlur in="shadowOffsetOuter1" result="shadowBlurOuter1" stdDeviation="5"/>
            <feComposite in="shadowBlurOuter1" in2="SourceAlpha" operator="out" result="shadowBlurOuter1"/>
            <feColorMatrix in="shadowBlurOuter1" values="0 0 0 0 0.0352941176 0 0 0 0 0.505882353 0 0 0 0 0.745098039 0 0 0 0.2 0"/>
        </filter>
        <linearGradient id="h" x1="62.466%" x2="-15.182%" y1="77.912%" y2="-37.022%">
            <stop offset="0%" stop-color="#0C3B57"/>
            <stop offset="100%" stop-color="#13547A"/>
        </linearGradient>
        <linearGradient id="i" x1="123.172%" x2="38.292%" y1="-89.682%" y2="81.578%">
            <stop offset="0%" stop-color="#75FFFF"/>
            <stop offset="100%" stop-color="#14C8C8"/>
        </linearGradient>
        <linearGradient id="j" x1="100%" x2="56.756%" y1="-20.779%" y2="62.96%">
            <stop offset="0%" stop-color="#75FFFF"/>
            <stop offset="100%" stop-color="#23D9D9"/>
        </linearGradient>
        <linearGradient id="k" x1="31.734%" x2="25.901%" y1="-53.811%" y2="115.223%">
            <stop offset="0%" stop-color="#75FFFF"/>
            <stop offset="100%" stop-color="#23D9D9"/>
        </linearGradient>
    </defs>
    <g fill="none" fill-rule="evenodd">
        <g filter="url(#a)" transform="translate(10 16)">
            <path fill="url(#b)" d="M2.07 41.465L89.405.558c.426-.196.814-.17 1.108.03.177.122 2.024 1.026 3.739 1.947 1.033.556-.03 27.378-3.189 80.468 0 1.169-.742 2.471-1.658 2.91l-84.254 44.32c-.445.219-3.932-1.71-4.23-1.933-.315-.237-.51-.693-.51-1.304V44.408c0-1.19.742-2.508 1.657-2.943z"/>
            <use fill="#FFF" xlink:href="#c"/>
            <path stroke="#F3F4F6" stroke-width=".96" d="M6.138 43.833c-.739.352-1.383 1.496-1.383 2.51v82.587c0 .863.4 1.186.969.906l87.339-42.422c.741-.355 1.385-1.485 1.385-2.476V3.843c0-.844-.408-1.177-.974-.916L6.138 43.833z"/>
            <path fill="#DFF3FD" d="M12.165 57.64l74.874-35.07c.785-.362 1.422.156 1.422 1.158v55.984c0 1.001-.637 2.118-1.422 2.494l-74.874 36.368c-.786.386-1.422-.127-1.422-1.147V60.163c0-1.02.636-2.15 1.422-2.523z"/>
            <path fill="url(#b)" d="M17.226 43.9l16.188-7.657v3.481l-16.188 7.669zM43.127 31.213l16.188-7.59v3.464l-16.188 7.6zM69.837 19.397l16.188-7.523v3.445l-16.188 7.534z"/>
        </g>
        <path fill="url(#b)" d="M7.477 28.892L67.467.555c.52-.24 2.01-.305 2.017 1.575l-.446 24.97c0 .593-.38 1.256-.848 1.48L9.736 58.238c-2.671.973-2.671-1.3-2.671-1.893V49.66L.136 47.201l6.929-10.428v-6.477c0-.594-.057-1.18.412-1.404z" transform="translate(93.274 47.822)"/>
        <g opacity=".96" transform="translate(93.274 47.822)">
            <use fill="#000" filter="url(#d)" xlink:href="#e"/>
            <use fill="#FFF" xlink:href="#e"/>
            <path stroke="#F3F4F6" d="M2.982 47.74l6.615 2.325v7.426c0 .25.023.269.132.217l58.767-28.152c.287-.137.564-.621.564-1.03V2.345c0-.252-.024-.27-.132-.218L10.161 30.279c-.287.138-.564.621-.564 1.03v6.63l-6.615 9.8z"/>
        </g>
        <path fill="#2DDEDE" d="M126.09 74.906l20.287-9.602v3.004l-20.286 9.602z"/>
        <path fill="#C6E0FD" d="M126.09 80.35l29.311-13.873v1.502l-29.31 13.872zM126.09 82.978l21.579-10.213v1.501L126.09 84.48z"/>
        <path fill="url(#b)" d="M7.579 30.184c4.001-1.894 7.245-7.212 7.245-11.877 0-4.665-3.244-6.911-7.245-5.017C3.578 15.184.334 20.5.334 25.166c0 4.665 3.244 6.911 7.245 5.018z" transform="translate(108.047 65.016)"/>
        <path fill="#FEFEFE" fill-rule="nonzero" d="M115.55 87.956c1.017-.482 1.945-2.602 1.945-4.448 0-1.602-.71-2.185-1.946-1.6-1.236.586-1.945 1.84-1.945 3.44 0 1.847.927 3.09 1.945 2.608z"/>
        <path fill="#FEFEFE" fill-rule="nonzero" d="M119.343 87.45c-.554-.127-1.714-.38-2.414-.435-.344.642-.845 1.166-1.38 1.445-.536.228-1.038.177-1.382-.141-.704.717-1.862 2.071-2.413 2.723-.194.229-.311.53-.31.793v.45c-.001.371.23.578.543.49a25.18 25.18 0 0 0 3.562-1.291 32.507 32.507 0 0 0 3.563-2.082c.314-.208.544-.633.544-1.004v-.449c0-.264-.118-.454-.313-.498z"/>
        <g>
            <path fill="url(#b)" d="M7.477 28.892L67.467.555c.52-.24 2.01-.305 2.017 1.575l-.446 24.97c0 .593-.38 1.256-.848 1.48L9.736 58.238c-2.671.973-2.671-1.3-2.671-1.893V49.66L.136 47.201l6.929-10.428v-6.477c0-.594-.057-1.18.412-1.404z" transform="translate(93.274 7.822)"/>
            <g opacity=".96" transform="translate(93.274 7.822)">
                <use fill="#000" filter="url(#f)" xlink:href="#g"/>
                <use fill="#FFF" xlink:href="#g"/>
                <path stroke="#F3F4F6" d="M2.982 47.74l6.615 2.325v7.426c0 .25.023.269.132.217l58.767-28.152c.287-.137.564-.621.564-1.03V2.345c0-.252-.024-.27-.132-.218L10.161 30.279c-.287.138-.564.621-.564 1.03v6.63l-6.615 9.8z"/>
            </g>
            <path fill="#2DDEDE" d="M126.09 34.906l20.287-9.602v3.004l-20.286 9.602z"/>
            <path fill="#C6E0FD" d="M126.09 40.35l29.311-13.873v1.502l-29.31 13.872zM126.09 42.978l21.579-10.213v1.501L126.09 44.48z"/>
            <path fill="url(#b)" d="M7.579 30.184c4.001-1.894 7.245-7.212 7.245-11.877 0-4.665-3.244-6.911-7.245-5.017C3.578 15.184.334 20.5.334 25.166c0 4.665 3.244 6.911 7.245 5.018z" transform="translate(108.047 25.016)"/>
            <path fill="#FEFEFE" fill-rule="nonzero" d="M115.55 47.956c1.017-.482 1.945-2.602 1.945-4.448 0-1.602-.71-2.185-1.946-1.6-1.236.586-1.945 1.84-1.945 3.44 0 1.847.927 3.09 1.945 2.608z"/>
            <path fill="#FEFEFE" fill-rule="nonzero" d="M119.343 47.45c-.554-.127-1.714-.38-2.414-.435-.344.642-.845 1.166-1.38 1.445-.536.228-1.038.177-1.382-.141-.704.717-1.862 2.071-2.413 2.723-.194.229-.311.53-.31.793v.45c-.001.371.23.578.543.49a25.18 25.18 0 0 0 3.562-1.291 32.507 32.507 0 0 0 3.563-2.082c.314-.208.544-.633.544-1.004v-.449c0-.264-.118-.454-.313-.498z"/>
        </g>
        <path fill="#FFF" d="M29 81l32.625-15.22v34.164L29 115.164zM68.67 63.169l21.82-10.955v15.863L68.67 79.03z"/>
        <g fill-rule="nonzero">
            <path fill="url(#h)" d="M19.954 40.391c-1.467.691-4.734.691-9.8 0C3.383 36.001 0 31.211 0 26.021c0-9.69 6.688-20.59 15.098-24.549C17.922.143 20.674.031 22.977.15c2.36.525 5.29 2.16 8.788 4.905 2.218 4.64 3.327 7.483 3.327 8.527 0 9.69-6.727 22.851-15.138 26.81zm-4.856-6.359c7.102-3.342 12.99-12.938 12.99-21.23 0-7.682-1.633-8.542-8.134-5.483-7.102 3.342-11.847 11.258-11.847 19.55 0 4.887-2.438 7.19.685 8.046 1.786.49 3.941.23 6.306-.883z" transform="translate(59 96)"/>
            <path fill="url(#b)" d="M33.97 28.415l8.6 6.248a4.853 4.853 0 0 1-5.704 7.852l-8.552-6.213c-1.926 1.927-4.077 3.507-6.353 4.579-9.012 4.24-16.667-1.03-16.667-11.33 0-9.691 6.688-20.592 15.098-24.55C29.404.761 37.06 6.032 37.06 16.332c0 4.013-1.147 8.234-3.088 12.083zm-13.578 9.147c7.103-3.343 12.99-12.938 12.99-21.23 0-7.683-4.92-11.07-11.421-8.011-7.103 3.342-12.99 12.937-12.99 21.23 0 7.682 4.92 11.07 11.421 8.01z" transform="translate(59 96)"/>
        </g>
        <g>
            <path fill="url(#i)" d="M38.257.636L5.497 16.89C2.432 18.411.55 21.53.55 25.081v6.004L33.23 15.267c3.11-1.505 5.027-4.644 5.027-8.228V.636z" transform="translate(0 91)"/>
            <path fill="url(#j)" d="M38.257.701a38498.673 38498.673 0 0 1-34.678 17.19c4.312 2.367 6.446 5.262 6.401 8.683v39.38c0 3.313 2.686 6.239 6 6.534a5.679 5.679 0 0 0 2.977-.525l29.835-14.388V7.682c0-3.866-3.134-7.28-7-7.624a6.617 6.617 0 0 0-3.535.643z" transform="translate(0 91)"/>
            <path fill="#FFF" d="M26 111.325l-11.607 5.565v11L26 122.325zM37.495 105.74l-8.141 3.97v3l8.14-3.97zM44 107.93l-14.646 6.78v2L44 109.93zM44 111.93l-14.646 6.78v2L44 113.93zM37.495 124.74l-8.141 3.97v3l8.14-3.97zM44 126.93l-14.646 6.78v2L44 128.93zM44 130.93l-14.646 6.78v2L44 132.93zM26 130.325l-11.607 5.565v11L26 141.325z"/>
            <path fill="url(#k)" d="M18.291 72.396L50.945 56.73C54.07 55.23 56 52.084 56 48.489V43L23.319 58.818c-3.11 1.505-5.028 4.644-5.028 8.228v5.35z" transform="translate(0 91)"/>
        </g>
    </g>
</svg>
