<svg xmlns="http://www.w3.org/2000/svg" xmlns:xlink="http://www.w3.org/1999/xlink" width="438" height="490" viewBox="0 0 438 490">
    <defs>
        <linearGradient id="a" x1="85.153%" x2="91.175%" y1="34.935%" y2="100%">
            <stop offset="0%" stop-color="#A1C6F0"/>
            <stop offset="100%" stop-color="#5D9ADF"/>
        </linearGradient>
        <path id="c" d="M44.403 99.46c24.495 11.381 44.352-.592 44.352-26.742 0-26.15-19.857-56.575-44.352-67.956C19.907-6.618.05 5.355.05 31.505S19.907 88.08 44.403 99.461z"/>
        <filter id="b" width="155.2%" height="147.4%" x="-16.3%" y="-23.7%" filterUnits="objectBoundingBox">
            <feOffset dx="10" in="SourceAlpha" result="shadowOffsetOuter1"/>
            <feGaussianBlur in="shadowOffsetOuter1" result="shadowBlurOuter1" stdDeviation="6.5"/>
            <feComposite in="shadowBlurOuter1" in2="SourceAlpha" operator="out" result="shadowBlurOuter1"/>
            <feColorMatrix in="shadowBlurOuter1" values="0 0 0 0 0.146253377 0 0 0 0 0.313440019 0 0 0 0 0.614344175 0 0 0 0.164402174 0"/>
        </filter>
        <linearGradient id="d" x1="59.296%" x2="-52.562%" y1="73.629%" y2="6.071%">
            <stop offset="0%" stop-color="#9D4FE0"/>
            <stop offset="100%" stop-color="#D18CF3"/>
        </linearGradient>
        <linearGradient id="e" x1="-64.261%" x2="29.206%" y1="-33.129%" y2="55.965%">
            <stop offset="0%" stop-color="#FFB8F8"/>
            <stop offset="100%" stop-color="#FF82EE"/>
        </linearGradient>
        <path id="g" d="M2.142 81.955c-.566.073-1.183-.38-1.38-1.011-.026-.086-.046-26.401-.06-78.947 0-.732.456-1.276 1.13-1.345l82.69 32.961c.57-.058 1.18.408 1.363 1.042.023.081-.067 26.078-.271 77.99-.006.712-.444 1.243-1.093 1.327L2.141 81.955z"/>
        <filter id="f" width="157.5%" height="143.2%" x="-17%" y="-21.6%" filterUnits="objectBoundingBox">
            <feOffset dx="10" in="SourceAlpha" result="shadowOffsetOuter1"/>
            <feGaussianBlur in="shadowOffsetOuter1" result="shadowBlurOuter1" stdDeviation="6.5"/>
            <feComposite in="shadowBlurOuter1" in2="SourceAlpha" operator="out" result="shadowBlurOuter1"/>
            <feColorMatrix in="shadowBlurOuter1" values="0 0 0 0 0.146253377 0 0 0 0 0.313440019 0 0 0 0 0.614344175 0 0 0 0.164402174 0"/>
        </filter>
        <path id="i" d="M2.197 81.563c-.588.08-1.229-.367-1.433-.998C.737 80.479.716 54.08.702 1.368c0-.735.474-1.286 1.172-1.363l86.173 33.332c.591-.065 1.225.396 1.415 1.03.025.08-.182 25.75-.62 77.006-.007.714-.46 1.252-1.135 1.343L2.197 81.563z"/>
        <filter id="h" width="155.2%" height="143.5%" x="-16.3%" y="-21.7%" filterUnits="objectBoundingBox">
            <feOffset dx="10" in="SourceAlpha" result="shadowOffsetOuter1"/>
            <feGaussianBlur in="shadowOffsetOuter1" result="shadowBlurOuter1" stdDeviation="6.5"/>
            <feComposite in="shadowBlurOuter1" in2="SourceAlpha" operator="out" result="shadowBlurOuter1"/>
            <feColorMatrix in="shadowBlurOuter1" values="0 0 0 0 0.146253377 0 0 0 0 0.313440019 0 0 0 0 0.614344175 0 0 0 0.164402174 0"/>
        </filter>
        <path id="k" d="M2.194 81.34c-.586.385-1.226.273-1.43-.25C.737 81.019.716 54.715.702 2.176c0-.732.473-1.528 1.17-1.967l85.705 30.654c.59-.372 1.223-.243 1.413.29.024.068.157 27.476-.28 78.798-.007.715-.46 1.487-1.133 1.929L2.194 81.34z"/>
        <filter id="j" width="155.5%" height="143.9%" x="-16.4%" y="-21.9%" filterUnits="objectBoundingBox">
            <feOffset dx="10" in="SourceAlpha" result="shadowOffsetOuter1"/>
            <feGaussianBlur in="shadowOffsetOuter1" result="shadowBlurOuter1" stdDeviation="6.5"/>
            <feComposite in="shadowBlurOuter1" in2="SourceAlpha" operator="out" result="shadowBlurOuter1"/>
            <feColorMatrix in="shadowBlurOuter1" values="0 0 0 0 0.146253377 0 0 0 0 0.313440019 0 0 0 0 0.614344175 0 0 0 0.164402174 0"/>
        </filter>
        <linearGradient id="l" x1="6.706%" x2="123.854%" y1="40.189%" y2="59.358%">
            <stop offset="0%" stop-color="#263238" stop-opacity=".2"/>
            <stop offset="100%" stop-color="#263238" stop-opacity="0"/>
        </linearGradient>
    </defs>
    <g fill="none" fill-rule="evenodd">
        <path d="M53.315-2.209l411.509-40.146V478.25l-411.51 40.147z"/>
        <path stroke="#FFF" d="M412.415 143.357v76.108l-76.107-29.125v-76.108l76.107 29.125zm0-.754l-76.107-29.124V89.105l-.754 24.085-76.108-29.124V59.692l-.754 24.085-76.107-29.124V30.279l-.754 24.085-76.108-29.124V.866l-.754 24.085-24.374-9.327 24.374 10.08v76.109l-24.374-9.327 24.374 10.08v76.108l-24.374-9.327 24.374 10.08v76.109l-24.374-9.327 24.374 10.08v76.108l-24.374-9.327 24.374 10.08v24.375l.754-24.086 76.108 29.125v24.374l.754-24.086 76.107 29.125v24.374l.754-24.086 76.108 29.125v24.374l.754-24.086 76.107 29.125v24.374l.754-24.086 24.374 9.327-24.374-10.08V374.23l24.374 9.327-24.374-10.081v-76.108l24.374 9.327-24.374-10.08v-76.108l24.374 9.327-24.374-10.081v-76.108l24.374 9.327-24.374-10.08v-24.375l-.754 24.086zM105.723 25.993l76.108 29.125v76.108L105.723 102.1V25.993zm76.862 29.413l76.107 29.125v76.108l-76.107-29.125V55.406zm76.861 29.413l76.108 29.125v76.108l-76.108-29.125V84.82zm152.97 211.507l-76.108-29.124v-76.108l76.107 29.124v76.108zM105.722 102.855l76.108 29.124v76.108l-76.108-29.124v-76.108zm76.862 29.413l76.107 29.124V237.5l-76.107-29.124v-76.108zm152.969 58.537v76.108l-76.108-29.124V161.68l76.108 29.124zm76.861 182.383l-76.107-29.125v-76.108l76.107 29.125v76.108zM181.831 208.84v76.108l-76.108-29.125v-76.108l76.108 29.125zm76.861 29.413v76.108l-76.107-29.125V209.13l76.107 29.125zm76.862 29.413v76.108l-76.108-29.125v-76.108l76.108 29.125zm76.861 106.274v76.108l-76.107-29.124v-76.108l76.107 29.124zm-230.584-88.239v76.108l-76.108-29.124v-76.108l76.108 29.124zm.754.289l76.107 29.124v76.108L182.585 362.1V285.99zm152.969 58.537v76.108l-76.108-29.124v-76.108l76.108 29.124z" opacity=".668"/>
        <path fill="url(#a)" fill-rule="nonzero" d="M68.912 158.775l-57.156-38.822C31.324 45.022 41.536 7.265 42.393 6.683c3.785-2.57 10.805-5.65 12.44-6.047 2.623-.636 5.95.134 9.28 2.33l127.4 86.465-17.453 51.503-10.368 5.164c1.354-11.162 1.174-17.297-.54-18.405-10.907-7.568-22.25-3.956-23.124 7.498-.436 6.818 3.491 15.266 9.6 20.605 6.108 5.337 12.216 7.185 17.451 6.089l-17.452 51.503-10.337 5.01-46.818-43.832c3.054 6.377 3.49 13.085.436 17.615-1.034 1.68-2.517 2.944-4.298 3.76-1.351.62-5.569 2.875-10.495 5.283-7.768 3.799-21.42-25.637-18.366-35.402 1.309-4.311 4.8-6.933 9.163-7.047zM233.398 324.115c-6.545-3.756-12.653-3.422-16.58-.963v-60.21l59.774 22.348c-4.364-5.558-6.545-12.481-5.236-18.536 1.309-6.492 6.545-10.206 13.526-8.905 11.78 1.787 22.251 14.428 22.251 25.772 0 5.235-2.182 9.219-5.672 10.968l59.337 22.186v134.381c0 3.563-1.633 6.219-4.206 7.36-1.05.465-5.814 3.126-10.185 5.148-2.194 1.015-45.39-17.317-129.59-54.997v-60.646c3.054 4.633 7.854 8.609 13.09 10.566 11.344 4.242 20.07-2.967 17.452-15.726-1.745-7.197-7.417-14.99-13.961-18.746z" transform="translate(-1 14.58)"/>
        <path fill="#8340D2" fill-rule="nonzero" d="M202.729 181.44c5.236 1.958 9.599 5.771 13.09 10.567l-10.311-55.156 10.31-5.054 133.072 49.754c6.109 2.284 10.908 8.878 10.908 15.422v134.382l-10.402 5.007-49.371-27.356c3.49-2.185 5.672-5.732 5.672-10.968 0-11.344-10.47-24.422-22.251-25.772-6.545-.702-12.217 2.85-13.526 8.905-1.309 6.054.873 12.978 5.236 18.536l-59.774-22.348v-60.646c-3.926 2.895-10.035 2.792-16.579-.964-6.98-3.919-22.081-12.56-23.826-20.193-1.343-7.75 11.309-12.012 16.293-14.271 3.118-1.413 7.095-1.476 11.459.156z" opacity=".96"/>
        <path fill="#D156C0" fill-rule="nonzero" d="M131.611 246.037c-4.363 2.296-6.544 7.588-5.235 14.622 1.309 7.47 6.544 15.1 13.525 19.019 11.78 7.022 22.252 2.21 22.252-9.133 0-1.79-5.3-5.131-15.897-10.026l10.225-5.184 59.337 22.186v60.646c3.926-2.896 10.035-2.793 16.579.963 6.981 3.919 12.216 11.112 13.961 18.745 2.618 12.76-6.108 19.968-17.452 15.727-5.235-1.958-9.598-5.77-13.089-10.566v60.646L82.746 373.927c-6.108-2.283-10.908-8.877-10.908-15.422L61.457 228.827l10.381-5.138 59.773 22.348z"/>
        <path fill="#FAFCFF" fill-rule="nonzero" d="M57.628 178.509L.473 139.687l38.394-114.79c1.745-5.457 7.853-6.226 13.962-2.198l127.4 86.465-17.452 51.504c-2.182-5.18-6.108-10.137-10.908-13.24-10.907-7.57-22.251-3.957-23.124 7.496-.436 6.819 3.49 15.267 9.599 20.605 6.108 5.338 12.217 7.186 17.452 6.09l-17.452 51.503L81.188 194.3c3.054 6.377 3.491 13.085.437 17.615-3.054 4.966-10.035 6.283-17.016 3.236-11.781-5.277-19.198-19.83-16.144-29.596 1.31-4.31 4.8-6.933 9.163-7.046z"/>
        <g transform="translate(28.92 60.104)">
            <use fill="#000" filter="url(#b)" xlink:href="#c"/>
            <use fill="#FFF" xlink:href="#c"/>
            <path stroke="#F3F4F6" stroke-width="1.25" d="M44.666 98.894c24.088 11.192 43.464-.491 43.464-26.176 0-25.905-19.714-56.11-43.99-67.389C20.05-5.862.674 5.821.674 31.505c0 25.905 19.714 56.11 43.99 67.39z"/>
        </g>
        <path fill="#023ECD" d="M92.502 132.356c-2.32 1.272-4.728 2.414-7.04 3.7-.88.491-1.531.345-2.441-1.106-1.286-2.052-2.666-4.07-4.07-6.065-.83-1.176-.835-1.758.013-2.164 2.186-1.048 4.306-2.2 6.446-3.316 3.359-1.756 3.316-4.981-.03-9.797-.781-1.125-1.25-1.327-2.002-.92-3.161 1.709-6.374 3.34-9.571 4.995-1.756.91-1.758.909-3.535-1.733-.907-1.347-1.821-2.69-2.715-4.044-1.457-2.205-1.467-2.725.02-3.506 3.098-1.634 6.181-3.291 9.353-4.813 1.018-.489 1.076-1.08.03-2.507-1.31-1.788-2.511-3.651-3.716-5.504-.68-1.043-1.22-1.258-1.914-.892-4.438 2.34-8.949 4.573-13.335 6.987-2.429 1.336-2.23 4.664.356 8.521 6.083 9.073 12.163 18.147 18.318 27.182 1.232 1.809 1.427 2.731.008 3.255-1.355.498-2.565 1.244-3.797 1.94-.697.393-1.264.304-2.053-.874-6.48-9.693-13.142-19.3-19.441-29.074-5.753-8.93-5.463-17.105.535-20.435 6.357-3.528 12.934-6.74 19.38-10.142.913-.481 1.496-.05 2.312 1.17 6.32 9.444 12.694 18.861 19.005 28.31 2.864 4.287 4.317 8.728 4.268 12.948-.145 3.523-1.565 6.34-4.384 7.884z"/>
        <path fill="url(#d)" fill-rule="nonzero" d="M192.73 167.015c5.236 1.958 9.6 5.771 13.09 10.567v-60.21l133.072 49.754c6.108 2.284 10.907 8.878 10.907 15.422v134.381l-59.773-22.348c3.49-2.186 5.672-5.733 5.672-10.969 0-11.344-10.47-24.421-22.251-25.771-6.544-.702-12.217 2.85-13.525 8.904-1.31 6.055.872 12.979 5.235 18.537l-59.773-22.349v-60.646c-3.927 2.895-10.035 2.792-16.58-.963-6.98-3.92-12.216-11.112-13.96-18.746-2.183-12.596 6.543-19.804 17.886-15.563z" transform="translate(-.285 19.58)"/>
        <path fill="url(#e)" fill-rule="nonzero" d="M121.613 231.612c-4.364 2.295-6.545 7.588-5.236 14.622 1.31 7.47 6.545 15.1 13.526 19.018 11.78 7.022 22.251 2.211 22.251-9.132 0-5.236-2.181-10.85-5.672-15.21l59.337 22.185v60.646c3.927-2.895 10.035-2.792 16.58.964 6.98 3.919 12.216 11.111 13.96 18.745 2.619 12.76-6.107 19.968-17.451 15.726-5.236-1.957-9.599-5.77-13.09-10.566v60.646l-133.07-49.754c-6.109-2.284-10.908-8.878-10.908-15.422V209.263l59.773 22.349z" transform="translate(-.285 19.58)"/>
        <path fill="#F4F9FF" fill-rule="nonzero" d="M222.114 343.849c-6.544-3.756-12.652-3.422-16.579-.964v-60.21l59.773 22.35c-4.363-5.559-6.544-12.483-5.235-18.538 1.309-6.491 6.544-10.205 13.525-8.904 11.78 1.787 22.252 14.428 22.252 25.772 0 5.235-2.182 9.219-5.673 10.968l59.338 22.186V470.89c0 6.109-4.8 9.55-10.908 7.266L205.534 428.4v-60.646c3.054 4.632 7.854 8.609 13.09 10.566 11.343 4.242 20.07-2.967 17.452-15.726-1.745-7.197-7.417-14.99-13.962-18.746z"/>
        <g>
            <g transform="translate(284.731 363.568)">
                <use fill="#000" filter="url(#f)" xlink:href="#g"/>
                <use fill="#FFF" xlink:href="#g"/>
                <path stroke="#F3F4F6" stroke-width="1.25" d="M84.573 113.321c.254-.088.413-.33.416-.678.168-42.785.29-77.834.295-77.815-.103-.357-.446-.619-.7-.593l-.152.015L1.767 1.3c-.27.081-.44.33-.44.697.011 43.252.038 78.781.032 78.761.11.356.456.61.703.577l.158-.02 82.353 32.006z"/>
            </g>
            <path fill="#1A64B2" fill-rule="nonzero" d="M353.759 424.98c-.128-3.27-.865-6.467-2.19-9.663l-3.545 3.676c.49 1.89.688 3.798.54 5.65-.674 8.483-8.334 12.524-17.11 9.026-2.06-.821-3.999-1.985-5.749-3.395l21.187-14.529 8.946-5.853-6.374.957c-4.226-7.206-11.017-13.191-18.805-15.972-13.396-4.784-24.777 1.992-25.421 15.135-.644 13.142 9.692 27.673 23.088 32.457 11.814 4.22 22.062-.556 24.758-10.755l.675-6.735zm-2.749 24.14c-4.827 4.843-15.587 7.305-26.2 3.074-16.976-6.766-29.62-26.279-28.246-43.587 1.378-17.305 16.254-25.848 33.23-19.081 8.606 3.43 16.1 10.135 21.216 18.17l9.765.01-5.769 7.684c.573 1.401.832.332 2.307 11.006s-1.475 17.88-6.303 22.724zm-17.115-46.171c4.4 1.753 8.245 5.07 10.9 9.01l-26.021 9.6c-1.491-3.11-2.239-6.43-1.99-9.583.676-8.482 8.336-12.525 17.111-9.027z"/>
        </g>
        <g>
            <g transform="translate(26.295 294.097)">
                <use fill="#000" filter="url(#h)" xlink:href="#i"/>
                <use fill="#FFF" xlink:href="#i"/>
                <path stroke="#F3F4F6" stroke-width="1.25" d="M87.753 112.068c.285-.09.46-.343.463-.7.358-41.798.64-76.846.647-76.822-.106-.355-.468-.618-.748-.588l-.152.017L1.813.651c-.3.086-.486.346-.486.716.012 43.077.04 79.03.032 79.006.115.354.48.608.753.571l.153-.02 85.488 31.144z"/>
            </g>
            <path fill="#FF9C0B" fill-rule="nonzero" d="M99.634 339.789v-1.613c0-2.506-2.042-5.301-4.562-6.243l-47.549-17.78c-2.52-.943-4.562.325-4.562 2.831v33.098l15.733-9.676 12.599 16.266 28.341-16.883z"/>
            <path fill="#FB5722" fill-rule="nonzero" d="M58.127 353.161L42.961 363.25v1.471c0 2.529 2.043 5.343 4.562 6.285l47.55 17.78c2.519.942 4.561-.344 4.561-2.872v-33.057l-28.336 17.43-13.17-17.126z"/>
            <path fill="#FF9B07" fill-rule="nonzero" d="M65.311 348.83l-7.184 4.336 7.183 9.277"/>
        </g>
        <g>
            <g transform="translate(280.731 182.097)">
                <use fill="#000" filter="url(#j)" xlink:href="#k"/>
                <use fill="#FFF" xlink:href="#k"/>
                <path stroke="#F3F4F6" stroke-width="1.25" d="M87.467 111.177c.373-.339.613-.815.617-1.231.328-38.495.384-78.396.317-78.584-.04-.113-.21-.147-.49.03l-.258.162L1.975.91c-.393.342-.648.837-.648 1.267.01 39.009.042 78.744.02 78.687.042.11.22.14.504-.045l.26-.171 85.356 30.53z"/>
            </g>
            <path fill="#0F9D58" fill-rule="nonzero" d="M334.567 213.154l18.597 62.527-13.599-4.864c-1.976-.707-3.719-2.146-4.998-3.942a11.049 11.049 0 0 1-1.569-3.064l-17.028-57.309 18.597 6.652z"/>
            <path fill="url(#l)" fill-rule="nonzero" d="M53.836 31.056l-9.298 24.612 27.895 37.915z" transform="translate(280.731 182.097)"/>
            <path fill="#4285F5" fill-rule="nonzero" d="M315.97 206.502l-18.597 49.223 13.6 4.864c1.975.707 3.719.516 4.997-.365.698-.45 1.22-1.135 1.57-1.942l17.027-45.128-18.597-6.652z"/>
        </g>
    </g>
</svg>
