<?xml version="1.0" encoding="UTF-8"?>
<svg width="32px" height="21px" viewBox="0 0 32 21" version="1.1" xmlns="http://www.w3.org/2000/svg" xmlns:xlink="http://www.w3.org/1999/xlink">
    <!-- Generator: Sketch 47.1 (45422) - http://www.bohemiancoding.com/sketch -->
    <title>ic_simplify</title>
    <desc>Created with Sketch.</desc>
    <defs></defs>
    <g id="Page-1" stroke="none" stroke-width="1" fill="none" fill-rule="evenodd">
        <g id="003-Call-Routing-and-Managements-@2560" transform="translate(-1408.000000, -2627.000000)" fill-rule="nonzero" fill="#F9A759">
            <g id="Simplify" transform="translate(0.000000, 2475.000000)">
                <g id="Group-23" transform="translate(1392.000000, 130.000000)">
                    <g id="ic_simplify" transform="translate(16.000000, 22.000000)">
                        <path d="M26.9009611,0.00596403716 C24.3085702,-0.134121163 22.4359207,2.21680999 22.3065826,4.60794056 C22.3992117,6.31849974 23.1790336,7.53171355 24.2470214,8.25456789 C23.2119494,9.81205059 22.1760209,11.3703912 21.1402147,12.928119 C20.5611911,12.6249075 19.9154795,12.4413137 19.2656075,12.4065069 C18.347882,12.3567479 17.5346548,12.667313 16.8802554,13.1875769 C15.6944317,11.8607507 14.5082409,10.5342921 13.323029,9.20734334 C13.5271312,8.78169514 13.6532879,8.31609262 13.6787394,7.84718101 C13.7746723,6.06075767 12.1592308,4.76849315 10.5169916,4.67976027 C8.73366744,4.58355128 7.44310068,6.20231359 7.35487667,7.84718101 C7.3815519,8.3417075 7.50611783,8.79162244 7.69908491,9.19422951 C6.72482754,10.3256963 5.75020307,11.4567955 4.7759457,12.5882623 C4.3453489,12.2833349 3.81845211,12.0954516 3.22290946,12.0629734 C1.68932899,11.9803685 0.579860062,13.3725188 0.503505301,14.7870974 C0.420910008,16.3230097 1.81169239,17.4340091 3.22290946,17.5098733 C4.75648992,17.5927233 5.86620358,16.2004504 5.94170179,14.7870974 C5.91429239,14.271123 5.76366305,13.8111583 5.52933714,13.4154145 C6.27183824,12.5534554 7.0144617,11.6910061 7.75757462,10.8286794 C7.96082022,10.5921401 8.16418819,10.3563361 8.36767852,10.1205322 C8.91757963,10.6414089 9.65543092,10.9677841 10.5163798,11.0144792 C11.3754932,11.0605615 12.1186061,10.706733 12.669119,10.1460245 C13.8155417,11.4297099 14.9629433,12.712905 16.1092436,13.9962227 C15.5926253,14.7049827 15.2744805,15.5738051 15.227493,16.4513292 C15.3508353,18.7377942 16.9821841,20.3708959 19.265118,20.4948033 C21.543035,20.6173625 23.1883333,18.5517493 23.3021312,16.4513292 C23.3649037,15.2806434 22.850855,14.2793345 22.0537798,13.5635886 C23.1174849,11.9634553 24.1807004,10.3634446 25.2444054,8.76367893 C27.8578429,9.70750756 31.29344,8.32332362 31.4939936,4.60855336 C31.6344668,2.0111556 29.2876592,0.134773788 26.9009611,0.00596403716 Z" id="Shape"></path>
                    </g>
                </g>
            </g>
        </g>
    </g>
</svg>