<?xml version="1.0" encoding="UTF-8"?>
<svg width="26px" height="27px" viewBox="0 0 26 27" version="1.1" xmlns="http://www.w3.org/2000/svg" xmlns:xlink="http://www.w3.org/1999/xlink">
    <!-- Generator: Sketch 47.1 (45422) - http://www.bohemiancoding.com/sketch -->
    <title>ic_what_does</title>
    <desc>Created with Sketch.</desc>
    <defs></defs>
    <g id="Page-1" stroke="none" stroke-width="1" fill="none" fill-rule="evenodd">
        <g id="003-Call-Routing-and-Managements-@2560" transform="translate(-732.000000, -3317.000000)" fill-rule="nonzero" fill="#E7484A">
            <g id="What-Does" transform="translate(710.000000, 3298.000000)">
                <g id="Group-7-Copy">
                    <g id="Group-23" transform="translate(3.000000, 0.300886)">
                        <g id="ic_what_does" transform="translate(18.000000, 19.000000)">
                            <path d="M10.9500083,13.8824 L9.37668745,13.8824 C6.87520275,13.8824 4.84734874,11.854546 4.84734874,9.35306134 C4.84734874,6.85157665 6.87520275,4.82372264 9.37668745,4.82372264 L17.8173854,4.82372264 C17.8137383,4.77675679 17.8106179,4.72940369 17.8080326,4.6816632 C17.9373708,2.29053262 19.8100202,-0.0603985261 22.4024111,0.0796866737 C24.7891092,0.208496424 27.1359168,2.08487824 26.9954436,4.682276 C26.8036469,8.23484567 23.6531469,9.65590973 21.0925571,8.94771929 C20.9756476,8.91538525 19.6205634,8.23921921 19.5582728,8.19200092 C18.8355791,7.64417594 18.2660937,6.85555015 17.9869543,5.82372264 L9.37668745,5.82372264 C7.4274875,5.82372264 5.84734874,7.4038614 5.84734874,9.35306134 C5.84734874,11.3022613 7.4274875,12.8824 9.37668745,12.8824 L10.8509189,12.8824 C10.9495242,11.2288876 12.3217193,9.91837928 14,9.91837928 C15.6782807,9.91837928 17.0504758,11.2288876 17.1490811,12.8824 L18.3990686,12.8824 C20.8863731,12.8824 22.9027317,14.8987587 22.9027317,17.3860632 C22.9027317,19.8733676 20.8863731,21.8897263 18.3990686,21.8897263 L10.1502781,21.8897263 C9.74955937,25.144259 6.74389823,26.4302273 4.28307442,25.7496295 C4.16616491,25.7172955 2.81108071,25.0411294 2.74879009,24.9939111 C1.77934318,24.2590392 1.08558664,23.0908585 0.998549979,21.4835734 C1.12788809,19.0924428 3.00053753,16.7415117 5.59292848,16.8815969 C7.79336268,17.000354 9.95988976,18.6045572 10.1745656,20.8897263 L18.3990686,20.8897263 C20.3340883,20.8897263 21.9027317,19.3210829 21.9027317,17.3860632 C21.9027317,15.4510435 20.3340883,13.8824 18.3990686,13.8824 L17.0499917,13.8824 C16.6926748,15.2326111 15.4625665,16.2278832 14,16.2278832 C12.5374335,16.2278832 11.3073252,15.2326111 10.9500083,13.8824 L10.9500083,13.8824 Z" id="Combined-Shape"></path>
                        </g>
                    </g>
                </g>
            </g>
        </g>
    </g>
</svg>