<svg xmlns="http://www.w3.org/2000/svg" xmlns:xlink="http://www.w3.org/1999/xlink" width="728" height="526" viewBox="0 0 728 526">
    <defs>
        <linearGradient id="a" x1="79.445%" x2="50%" y1="89.447%" y2="0%">
            <stop offset="0%" stop-color="#E65940"/>
            <stop offset="100%" stop-color="#EA6545"/>
        </linearGradient>
        <linearGradient id="b" x1="50%" x2="50%" y1="217.802%" y2="-37.441%">
            <stop offset="0%" stop-color="#E75B41"/>
            <stop offset="100%" stop-color="#FFC161"/>
        </linearGradient>
        <linearGradient id="c" x1="53.587%" x2="21.062%" y1="-20.756%" y2="50%">
            <stop offset="0%" stop-color="#EDC63E"/>
            <stop offset="100%" stop-color="#E9BE23"/>
        </linearGradient>
        <linearGradient id="d" x1="35.294%" x2="50%" y1="2.632%" y2="95.51%">
            <stop offset="0%" stop-color="#FFD646"/>
            <stop offset="100%" stop-color="#FFC700"/>
        </linearGradient>
        <linearGradient id="e" x1="160.276%" x2="27.143%" y1="198.661%" y2="0%">
            <stop offset="0%" stop-color="#E65940"/>
            <stop offset="60.306%" stop-color="#F37F50"/>
            <stop offset="100%" stop-color="#FC6374"/>
        </linearGradient>
        <path id="g" d="M30.353 98.475l87.883-42.232c.922-.443 1.669-1.751 1.669-2.923V1.63c0-1.172-.747-1.763-1.669-1.32L2.573 55.891c-.921.443-1.668 1.751-1.668 2.923v51.691c0 1.172.747 1.763 1.668 1.32l13.499-6.487 4.986 8.865a1 1 0 0 0 1.773-.057l7.522-15.67z"/>
        <filter id="f" width="143.7%" height="145.4%" x="-32.8%" y="-22.7%" filterUnits="objectBoundingBox">
            <feOffset dx="-13" in="SourceAlpha" result="shadowOffsetOuter1"/>
            <feGaussianBlur in="shadowOffsetOuter1" result="shadowBlurOuter1" stdDeviation="6.5"/>
            <feComposite in="shadowBlurOuter1" in2="SourceAlpha" operator="out" result="shadowBlurOuter1"/>
            <feColorMatrix in="shadowBlurOuter1" values="0 0 0 0 0.0352941176 0 0 0 0 0.505882353 0 0 0 0 0.745098039 0 0 0 0.1 0"/>
        </filter>
        <linearGradient id="h" x1="12.631%" x2="125.478%" y1="74.764%" y2="50%">
            <stop offset="0%" stop-color="#FC637E"/>
            <stop offset="100%" stop-color="#FFA25E"/>
        </linearGradient>
        <path id="j" d="M30.353 98.475l87.883-42.232c.922-.443 1.669-1.751 1.669-2.923V1.63c0-1.172-.747-1.763-1.669-1.32L2.573 55.891c-.921.443-1.668 1.751-1.668 2.923v51.691c0 1.172.747 1.763 1.668 1.32l13.499-6.487 4.986 8.865a1 1 0 0 0 1.773-.057l7.522-15.67z"/>
        <filter id="i" width="143.7%" height="145.4%" x="-32.8%" y="-22.7%" filterUnits="objectBoundingBox">
            <feOffset dx="-13" in="SourceAlpha" result="shadowOffsetOuter1"/>
            <feGaussianBlur in="shadowOffsetOuter1" result="shadowBlurOuter1" stdDeviation="6.5"/>
            <feComposite in="shadowBlurOuter1" in2="SourceAlpha" operator="out" result="shadowBlurOuter1"/>
            <feColorMatrix in="shadowBlurOuter1" values="0 0 0 0 0.0352941176 0 0 0 0 0.505882353 0 0 0 0 0.745098039 0 0 0 0.1 0"/>
        </filter>
        <path id="l" d="M30.353 98.475l87.883-42.232c.922-.443 1.669-1.751 1.669-2.923V1.63c0-1.172-.747-1.763-1.669-1.32L2.573 55.891c-.921.443-1.668 1.751-1.668 2.923v51.691c0 1.172.747 1.763 1.668 1.32l13.499-6.487 4.986 8.865a1 1 0 0 0 1.773-.057l7.522-15.67z"/>
        <filter id="k" width="143.7%" height="145.4%" x="-32.8%" y="-22.7%" filterUnits="objectBoundingBox">
            <feOffset dx="-13" in="SourceAlpha" result="shadowOffsetOuter1"/>
            <feGaussianBlur in="shadowOffsetOuter1" result="shadowBlurOuter1" stdDeviation="6.5"/>
            <feComposite in="shadowBlurOuter1" in2="SourceAlpha" operator="out" result="shadowBlurOuter1"/>
            <feColorMatrix in="shadowBlurOuter1" values="0 0 0 0 0.0352941176 0 0 0 0 0.505882353 0 0 0 0 0.745098039 0 0 0 0.1 0"/>
        </filter>
        <path id="m" d="M138.787 72.125L3.17.65C1.75-.09.596.78.596 2.592v125.784c0 1.812 1.153 3.9 2.575 4.665l135.616 73.823c1.422.784 2.575-.076 2.575-1.922v-128.1c0-1.845-1.153-3.957-2.575-4.717z"/>
        <linearGradient id="n" x1="79.445%" x2="50%" y1="89.447%" y2="0%">
            <stop offset="0%" stop-color="#E65940"/>
            <stop offset="100%" stop-color="#FFA25E"/>
        </linearGradient>
    </defs>
    <g fill="none" fill-rule="evenodd">
        <path fill="#0C3573" d="M503.252 291.94c6.109 2.16 6.356 6.254.55 9.143L203.685 412.777c-5.805 2.888-15.47 3.473-21.573 1.312L5.281 328.898c-6.11-2.164-6.39-6.315-.626-9.27l295.861-112.911c5.764-2.956 15.393-3.599 21.497-1.439l181.24 86.661z" opacity=".1"/>
        <path fill="#FED0CF" d="M506.256 254.314c3.22 1.14 2.331 10.371 2.264 12.127-.06 1.573-1.45 3.21-4.194 4.576l-299.98 111.778c-5.803 2.891-15.464 3.477-21.564 1.313L6.032 298.853c-3.338-1.183-4.935-2.96-4.757-4.812.147-1.536-.337-11.314 2.276-12.655l297.582-104.807c5.761-2.958 15.385-3.601 21.487-1.44l183.636 79.175z"/>
        <path fill="#FFF" d="M503.777 252.715c6.105 2.163 6.353 6.26.549 9.15l-299.98 111.78c-5.803 2.89-15.464 3.476-21.564 1.312L6.032 289.702c-6.108-2.166-6.387-6.32-.626-9.278l295.727-112.996c5.761-2.958 15.385-3.601 21.487-1.44l181.157 86.727z"/>
        <path fill="#FFECEC" d="M367.516 217.328l-189.994 73.209-45.782-22.73 189.994-71.069z"/>
        <path fill="#FABFBE" d="M367.516 199.026l-189.315 72.553-46.461-22.074v-7.011l45.782 22.877 189.994-73.209z"/>
        <path fill="#FED0CF" d="M178.201 271.58l-46.461-22.075v-7.011l45.782 22.877z"/>
        <path fill="#FFF" d="M367.516 192.162l-189.994 73.21-45.782-22.73 189.994-71.07z"/>
        <path fill="url(#a)" d="M114.897 176.76l38.235 19.457 46.461-17.095v-43.616l-45.782 17.971-38.914-20.185z" transform="translate(157.884 14.598)"/>
        <path fill="url(#b)" d="M153.132 196.217l46.461-17.095v-43.616l-45.782 17.971z" transform="translate(157.884 14.598)"/>
        <path fill="#FFC287" d="M272.78 147.89l38.915 20.185 45.782-17.823-38.914-18.046z"/>
        <path fill="url(#a)" d="M57.67 198.08l38.234 19.457 46.462-17.095V47.085L96.584 65.056 57.67 44.871z" transform="translate(157.884 14.598)"/>
        <path fill="url(#b)" d="M95.904 217.537l46.462-17.095V47.085L96.584 65.056z" transform="translate(157.884 14.598)"/>
        <path fill="#FFC287" d="M215.553 59.469l38.915 20.185L300.25 61.83l-38.915-18.046z"/>
        <path fill="url(#c)" d="M.442 221.944l38.235 16.913 46.462-17.095V18.074L39.357 36.045.442 15.86z" opacity=".896" transform="translate(157.884 14.598)"/>
        <path fill="url(#d)" d="M38.677 238.857l46.462-17.095V18.074L39.357 36.045z" opacity=".896" transform="translate(157.884 14.598)"/>
        <path fill="#FFE066" d="M158.326 30.458l38.915 20.185 45.782-17.823-38.915-18.045z" opacity=".9"/>
        <g>
            <path fill="#FFECEC" d="M431.61 249.357l-189.994 73.209-45.782-22.73 189.995-71.07z"/>
            <path fill="#FABFBE" d="M431.61 231.055l-189.314 72.553-46.462-22.074v-7.012l45.782 22.878 189.995-73.209z"/>
            <path fill="#FED0CF" d="M242.296 303.608l-46.462-22.074v-7.012l45.782 22.878z"/>
            <path fill="#FFF" d="M431.61 224.191l-189.994 73.21-45.782-22.73L385.83 203.6z"/>
            <path fill="url(#a)" d="M114.897 63.03l38.772 17.553 45.233-18.09V55.71L153.669 73.8l-38.772-21.167z" transform="translate(224.038 161.397)"/>
            <path fill="url(#b)" d="M153.669 80.583l45.233-18.09V55.71L153.669 73.8z" transform="translate(224.038 161.397)"/>
            <path fill="#FFC287" d="M337.836 215.238l39.87 19.959 45.234-18.09-39.322-17.552z"/>
            <path fill="url(#a)" d="M57.67 84.35l38.234 19.458 46.462-17.095V46.665L96.017 63 57.67 44.404z" transform="translate(224.038 161.397)"/>
            <path fill="url(#b)" d="M95.904 103.808l46.462-17.095V46.665L96.017 63z" transform="translate(224.038 161.397)"/>
            <path fill="#FFC287" d="M281.708 205.801l38.347 18.595 46.344-16.334-38.758-18.682z"/>
            <path fill="url(#c)" d="M.442 108.215l38.235 16.913 46.462-17.095V17.415L40.04 35.017 1.875 14.666z" opacity=".896" transform="translate(224.038 161.397)"/>
            <path fill="url(#d)" d="M38.677 125.128l46.462-17.095.7-90.823-45.798 17.807z" opacity=".896" transform="translate(224.038 161.397)"/>
            <path fill="#FFE066" d="M225.913 176.063l38.166 20.35 45.799-17.806-40.758-17.21z" opacity=".9"/>
        </g>
        <g>
            <path fill="#FFECEC" d="M163.787 295.112l-38.914 16.015-45.782-22.73 38.914-13.875z"/>
            <path fill="url(#b)" d="M84.696 27.453L45.782 42.37 0 20.738v-7.011l45.782 22.877L84.696 20.59z" transform="translate(79.09 249.357)"/>
            <path fill="url(#a)" d="M45.782 42.37L0 20.738v-7.011l45.782 22.877z" transform="translate(79.09 249.357)"/>
            <path fill="#FFC287" d="M163.787 269.947l-38.914 16.014-45.782-22.73 38.914-13.874z"/>
        </g>
        <g>
            <path fill="#FFECEC" d="M227.882 327.141l-38.915 16.015-45.782-22.73L182.1 306.55z"/>
            <path fill="url(#b)" d="M84.696 27.453L45.782 41.997 0 20.738v-7.011l45.782 22.877L84.696 20.59z" transform="translate(143.185 281.386)"/>
            <path fill="url(#a)" d="M45.782 41.997L0 20.738v-7.011l45.782 22.877z" transform="translate(143.185 281.386)"/>
            <path fill="#FFC287" d="M227.882 301.976l-38.915 16.014-45.782-22.73 38.915-13.874z"/>
        </g>
        <g>
            <path stroke="#CA1927" stroke-linecap="round" stroke-width="3" d="M342.447 327.76l132.198 56.996"/>
            <path stroke="#CA1927" stroke-linecap="round" stroke-linejoin="round" stroke-width="3" d="M581.815 295.667l-37.553-16.412-300.924 124.422 57.666 24.612"/>
            <g transform="rotate(3 -7488.411 4850.756)">
                <path fill="#000" d="M67.284 21.348l-62.34 28.55c-3.792 1.73-3.802 7.112-.017 8.856l128.504 59.192a16.698 16.698 0 0 0 13.915.026l59.336-27.179c3.93-1.794 3.944-7.378.014-9.187L75.913 21.364a10.354 10.354 0 0 0-8.629-.016" opacity=".1"/>
                <path fill="#EBF1F9" d="M66.238 7.97L2.59 31.636C-1.201 33.367.095 43.632 3.88 45.375l128.504 59.193a16.7 16.7 0 0 0 13.915.026l59.336-27.18c3.93-1.793 5.56-10.77 1.63-12.579L74.866 7.985a10.357 10.357 0 0 0-8.628-.016"/>
                <path fill="#EBF1F9" d="M139.055 103.022c-.329-2.636 3.196-3.06 5.272-4.284L2.591 31.638c-.356.161-.667.398-.935.697a3.846 3.846 0 0 0-.48.673c-.142.249-.265.52-.37.81a6.629 6.629 0 0 0-.146.45c-.22.77-.333 1.646-.346 2.56a13.511 13.511 0 0 0 .152 2.235c.192 1.309.563 2.593 1.083 3.673.148.31.309.6.482.873.172.27.356.52.551.746.196.226.402.426.618.598.217.17.444.314.68.422l128.504 59.193a16.706 16.706 0 0 0 11.223.982c-2.202.028-4.28-.347-4.552-2.528"/>
                <path fill="#FFFFFE" d="M66.238 1.375L3.897 29.925C.105 31.655.095 37.037 3.88 38.78l128.504 59.192A16.698 16.698 0 0 0 146.3 98l59.336-27.179c3.93-1.794 3.944-7.378.014-9.187L74.866 1.391a10.354 10.354 0 0 0-8.628-.016"/>
                <ellipse cx="170.045" cy="79.795" fill="#EBF1F9" rx="5.993" ry="2.985"/>
            </g>
            <path fill="url(#e)" d="M79.544 7.924L14.376 37.766a.713.713 0 0 0-.003 1.296L129 91.724c.588.269 1.259.27 1.84.004l64.727-29.639a.82.82 0 0 0 .007-1.493L80.928 7.927a1.665 1.665 0 0 0-1.384-.003" transform="rotate(3 -7488.411 4850.756)"/>
            <path fill="#91A7C3" d="M292.018 416.72l-13.686 5.42a.56.56 0 1 0 .408 1.041l13.685-5.42a.56.56 0 1 0-.407-1.041M275.406 424.268c-.081-.19-.247-.358-.472-.486a2.13 2.13 0 0 0-.925-.25c-.553-.028-1.036.126-1.306.385a.688.688 0 0 0-.228.462.616.616 0 0 0 .02.19c.114.432.689.773 1.417.811.838.044 1.509-.327 1.536-.845a.681.681 0 0 0-.042-.267M283.679 417.52a.667.667 0 0 0-.306-.32 1.42 1.42 0 0 0-.607-.163c-.363-.019-.684.083-.86.253a.454.454 0 0 0-.15.302l.015.126c.076.283.45.507.931.532.545.029.992-.215 1.01-.555l-.033-.176M409.653 497.209l-.088 1.679a.369.369 0 0 0 .506.363l8.29-3.326a.374.374 0 0 0 .227-.325l.086-1.642a.369.369 0 0 0-.5-.365l-8.166 3.123a.553.553 0 0 0-.355.493M432.775 489.018c-.035.674-.455 1.345-.94 1.497-.484.152-.847-.27-.811-.945.035-.675.455-1.345.94-1.497.484-.152.846.271.811.945M436.149 487.71c-.036.675-.463 1.344-.947 1.497-.484.152-.847-.272-.812-.945.036-.675.456-1.345.94-1.497.484-.153.854.27.819.945M439.515 486.402c-.035.674-.456 1.345-.94 1.496-.49.153-.854-.27-.818-.945.035-.675.455-1.344.946-1.496.484-.152.847.27.812.945M442.881 485.094c-.035.674-.455 1.344-.94 1.496-.483.153-.846-.27-.81-.945.034-.674.455-1.345.939-1.496.484-.153.847.27.811.945"/>
            <path fill="#746C68" d="M377.232 511.809a16.704 16.704 0 0 1-6.895-1.895l-125.23-65.837-.02-.01.02.01 125.23 65.837.054.027a16.7 16.7 0 0 0 6.841 1.868M245.08 444.062l-.012-.006.012.006m-.021-.01l-.01-.007.01.006m-.02-.011l-.011-.007.01.007m-.02-.012l-.01-.005.01.005M244.95 443.988l-.01-.005.01.005m-.02-.012c-.004-.002-.007-.003-.01-.006.003.003.006.004.01.006m-.02-.012l-.01-.006.01.006m-.039-.024l-.009-.006.01.006m-.03-.02l-.008-.005.008.006m-.04-.027l-.005-.004.006.004m-.019-.013l-.005-.003.005.003"/>
            <path fill="#F4D5E4" d="M377.225 511.806a16.652 16.652 0 0 1-6.834-1.865l-.054-.027-125.23-65.837-.02-.01-.008-.005-.012-.006a.114.114 0 0 1-.01-.005l-.01-.006-.01-.005-.01-.007a.064.064 0 0 1-.01-.005l-.01-.005a.064.064 0 0 0-.01-.006.113.113 0 0 0-.012-.008l-.015-.009a.056.056 0 0 1-.01-.006c-.004-.001-.007-.004-.01-.006l-.01-.005a.076.076 0 0 0-.01-.007c-.004-.002-.007-.003-.01-.006l-.01-.006-.01-.006-.01-.006a.045.045 0 0 0-.01-.006c-.003-.002-.005-.005-.009-.006l-.009-.006c-.006-.005-.013-.01-.02-.013l-.008-.006a.105.105 0 0 0-.012-.007l-.007-.005a.07.07 0 0 1-.011-.009c-.003 0-.005-.002-.007-.004l-.013-.009-.005-.003c-.004-.004-.01-.007-.015-.01-1.385-.972-2.3-3.171-2.646-5.531.538 1.36 1.306 2.455 2.28 2.967l8.292 4.36-.027.51c-.022.423.205.822.58 1.02l3.468 1.823a.402.402 0 0 0 .588-.335l.03-.58 10.083 5.3-.033.637c-.023.439.21.85.6 1.055l9.676 5.086a.812.812 0 0 0 .338.094.834.834 0 0 0 .874-.784l.004-.065 1.547.814-.037.704c-.023.44.207.85.596 1.055l9.676 5.085a.828.828 0 0 0 1.212-.69l.007-.131 78.683 41.363a16.762 16.762 0 0 0 6.685 1.892c.533 1.46 2.214 1.86 4.03 1.954.076.004.146.008.223.01a16.757 16.757 0 0 1-4.268.325"/>
            <path fill="#91A7C3" d="M267.46 452.499l-.081 1.54c-.023.439.21.85.6 1.055l9.676 5.086a.83.83 0 0 0 1.212-.69l.091-1.73a.83.83 0 0 0-.442-.777l-9.844-5.174a.828.828 0 0 0-1.213.69M280.461 459.403l-.08 1.54c-.023.44.207.85.596 1.055l9.676 5.085a.829.829 0 0 0 1.212-.689l.09-1.73a.83.83 0 0 0-.442-.777l-9.84-5.174a.827.827 0 0 0-1.212.69M252.743 444.658l-.08 1.516c-.022.423.205.822.58 1.02l3.468 1.823a.402.402 0 0 0 .588-.335l.102-1.954a.401.401 0 0 0-.214-.377l-3.857-2.027a.401.401 0 0 0-.587.334"/>
            <g>
                <g opacity=".96" transform="rotate(3 -5892.585 5752.374)">
                    <use fill="#000" filter="url(#f)" xlink:href="#g"/>
                    <use fill="#FFF" xlink:href="#g"/>
                    <path stroke="#F3F4F6" stroke-width="1.25" d="M22.268 113.875l7.616-15.868 88.082-42.327c.695-.334 1.314-1.419 1.314-2.36V1.63c0-.744-.302-.983-.773-.756L2.844 56.454c-.695.334-1.314 1.419-1.314 2.36v51.691c0 .744.301.983.772.757l14.027-6.74 5.274 9.375a.375.375 0 0 0 .665-.022z"/>
                </g>
                <path fill="#FFC700" d="M337.862 369.172l40.864-16.842-.31 5.922-40.864 16.841z"/>
                <path fill="#FED0CF" d="M337.3 379.905l59.04-24.334-.154 2.961-59.042 24.333zM337.028 385.086l43.466-17.914-.156 2.96-43.465 17.915zM336.756 390.267l43.466-17.914-.155 2.961-43.466 17.914z"/>
                <path fill="url(#h)" d="M14.917 59.592c7.875-3.739 14.26-14.237 14.26-23.447 0-9.21-6.385-13.646-14.26-9.907C7.04 29.978.657 40.475.657 49.685c0 9.211 6.384 13.646 14.26 9.907z" transform="rotate(3 -6489.529 5967.455)"/>
                <path fill="#FEFEFE" fill-rule="nonzero" d="M315.795 393.815c2.05-.845 4.092-4.93 4.282-8.57.166-3.157-1.167-4.38-3.658-3.353-2.49 1.026-4.013 3.426-4.178 6.583-.19 3.64 1.503 6.185 3.554 5.34z"/>
                <path fill="#FEFEFE" fill-rule="nonzero" d="M323.304 393.21c-1.076-.309-3.331-.928-4.7-1.107-.743 1.229-1.781 2.21-2.861 2.706-1.079.394-2.06.241-2.704-.42-1.457 1.34-3.873 3.892-5.024 5.12-.403.431-.665 1.011-.692 1.53l-.047.89c-.038.73.393 1.162 1.018 1.019a49.458 49.458 0 0 0 7.136-2.178 63.932 63.932 0 0 0 7.218-3.738c.638-.377 1.134-1.191 1.172-1.922l.046-.885c.028-.522-.185-.907-.562-1.016z"/>
            </g>
            <g>
                <g transform="rotate(3 -4836.154 10098.293)">
                    <path fill="#000" d="M67.284 21.348l-62.34 28.55c-3.792 1.73-3.802 7.112-.017 8.856l128.504 59.192a16.698 16.698 0 0 0 13.915.026l59.336-27.179c3.93-1.794 3.944-7.378.014-9.187L75.913 21.364a10.354 10.354 0 0 0-8.629-.016" opacity=".1"/>
                    <path fill="#EBF1F9" d="M66.238 7.97L2.59 31.636C-1.201 33.367.095 43.632 3.88 45.375l128.504 59.193a16.7 16.7 0 0 0 13.915.026l59.336-27.18c3.93-1.793 5.56-10.77 1.63-12.579L74.866 7.985a10.357 10.357 0 0 0-8.628-.016"/>
                    <path fill="#EBF1F9" d="M139.055 103.022c-.329-2.636 3.196-3.06 5.272-4.284L2.591 31.638c-.356.161-.667.398-.935.697a3.846 3.846 0 0 0-.48.673c-.142.249-.265.52-.37.81a6.629 6.629 0 0 0-.146.45c-.22.77-.333 1.646-.346 2.56a13.511 13.511 0 0 0 .152 2.235c.192 1.309.563 2.593 1.083 3.673.148.31.309.6.482.873.172.27.356.52.551.746.196.226.402.426.618.598.217.17.444.314.68.422l128.504 59.193a16.706 16.706 0 0 0 11.223.982c-2.202.028-4.28-.347-4.552-2.528"/>
                    <path fill="#FFFFFE" d="M66.238 1.375L3.897 29.925C.105 31.655.095 37.037 3.88 38.78l128.504 59.192A16.698 16.698 0 0 0 146.3 98l59.336-27.179c3.93-1.794 3.944-7.378.014-9.187L74.866 1.391a10.354 10.354 0 0 0-8.628-.016"/>
                    <ellipse cx="170.045" cy="79.795" fill="#EBF1F9" rx="5.993" ry="2.985"/>
                </g>
                <path fill="url(#e)" d="M79.544 7.924L14.376 37.766a.713.713 0 0 0-.003 1.296L129 91.724c.588.269 1.259.27 1.84.004l64.727-29.639a.82.82 0 0 0 .007-1.493L80.928 7.927a1.665 1.665 0 0 0-1.384-.003" transform="rotate(3 -4836.154 10098.293)"/>
                <path fill="#91A7C3" d="M570.287 285.103l-13.685 5.42a.56.56 0 1 0 .407 1.041l13.686-5.42a.56.56 0 1 0-.408-1.04M553.676 292.65c-.081-.189-.248-.357-.472-.485a2.13 2.13 0 0 0-.925-.25c-.553-.028-1.036.127-1.306.386a.688.688 0 0 0-.229.46.616.616 0 0 0 .02.19c.114.433.69.774 1.418.813.838.043 1.508-.328 1.536-.846a.681.681 0 0 0-.042-.267M561.948 285.903a.667.667 0 0 0-.305-.319 1.42 1.42 0 0 0-.608-.163c-.363-.02-.683.082-.86.252a.454.454 0 0 0-.149.302l.014.126c.077.283.45.507.932.532.544.029.991-.215 1.01-.555l-.034-.175M687.923 365.592l-.088 1.679a.369.369 0 0 0 .506.363l8.29-3.326a.374.374 0 0 0 .226-.324l.086-1.643a.369.369 0 0 0-.499-.365l-8.167 3.123a.553.553 0 0 0-.354.493M711.045 357.401c-.036.675-.456 1.345-.94 1.497-.484.152-.847-.27-.812-.945.036-.675.456-1.345.94-1.497.484-.152.847.271.812.945M714.418 356.093c-.035.675-.462 1.344-.946 1.497-.485.152-.847-.271-.812-.945.035-.675.455-1.345.94-1.497.484-.152.854.27.818.945M717.785 354.786c-.036.673-.456 1.344-.94 1.496-.491.152-.854-.271-.819-.946.036-.674.456-1.344.947-1.496.484-.152.847.271.812.946M721.151 353.477c-.035.674-.455 1.344-.94 1.497-.484.152-.847-.272-.811-.945.035-.675.455-1.345.94-1.497.484-.153.846.27.811.945"/>
                <path fill="#746C68" d="M655.502 380.192a16.704 16.704 0 0 1-6.896-1.895l-125.23-65.837-.02-.01.02.01 125.23 65.837c.021.009.034.018.055.027a16.7 16.7 0 0 0 6.841 1.868m-132.153-67.747l-.013-.006.013.006m-.021-.01l-.011-.007.01.006m-.02-.011l-.01-.007.01.007m-.02-.012l-.01-.005.01.005M523.219 312.371l-.01-.005.01.005m-.02-.011l-.01-.007.01.007m-.02-.013l-.009-.006c.003.003.006.004.01.006m-.04-.024l-.008-.006.009.006m-.03-.02l-.007-.004.008.005m-.04-.027l-.006-.004c.003.001.004.004.007.004m-.02-.013l-.004-.003c.001.001.003.003.005.003"/>
                <path fill="#F4D5E4" d="M655.495 380.189a16.652 16.652 0 0 1-6.834-1.865c-.02-.009-.034-.018-.055-.027l-125.23-65.837-.02-.01-.007-.005-.013-.006a.114.114 0 0 1-.008-.005l-.011-.006-.01-.005-.01-.007a.064.064 0 0 1-.01-.005l-.01-.005a.064.064 0 0 0-.01-.006.113.113 0 0 0-.012-.007l-.015-.01a.056.056 0 0 1-.01-.006c-.004-.001-.008-.004-.011-.006l-.01-.005a.076.076 0 0 0-.01-.006l-.01-.007-.01-.006-.009-.006-.01-.006a.045.045 0 0 0-.01-.006c-.003-.002-.006-.005-.01-.006l-.008-.006c-.007-.005-.013-.01-.02-.013l-.008-.005a.105.105 0 0 0-.012-.008l-.007-.005a.07.07 0 0 1-.012-.009c-.003 0-.005-.002-.007-.004l-.012-.009-.005-.003-.015-.01c-1.386-.972-2.301-3.17-2.646-5.531.537 1.36 1.306 2.455 2.28 2.967l8.292 4.36-.027.51c-.022.424.204.822.58 1.02l3.467 1.823a.402.402 0 0 0 .588-.335l.03-.58 10.084 5.3-.034.637c-.023.439.211.85.6 1.055l9.677 5.086a.812.812 0 0 0 .338.095.834.834 0 0 0 .874-.785l.003-.065 1.547.814-.037.704c-.023.44.208.85.596 1.055l9.676 5.086a.828.828 0 0 0 1.212-.69l.008-.132 78.682 41.363a16.762 16.762 0 0 0 6.686 1.893c.533 1.459 2.213 1.858 4.029 1.954l.223.01a16.757 16.757 0 0 1-4.267.324"/>
                <path fill="#91A7C3" d="M545.73 320.882l-.082 1.54c-.023.439.211.85.6 1.055l9.677 5.086a.83.83 0 0 0 1.212-.69l.09-1.73a.83.83 0 0 0-.442-.777l-9.843-5.174a.828.828 0 0 0-1.213.69M558.731 327.786l-.08 1.54c-.024.44.207.85.595 1.055l9.676 5.086a.829.829 0 0 0 1.213-.69l.09-1.73a.83.83 0 0 0-.442-.777l-9.84-5.173a.827.827 0 0 0-1.212.689M531.013 313.041l-.08 1.516c-.022.424.204.822.58 1.02l3.467 1.823a.402.402 0 0 0 .589-.335l.102-1.954a.401.401 0 0 0-.214-.377l-3.857-2.027a.401.401 0 0 0-.587.334"/>
                <g>
                    <g opacity=".96" transform="rotate(3 -3240.327 10999.91)">
                        <use fill="#000" filter="url(#i)" xlink:href="#j"/>
                        <use fill="#FFF" xlink:href="#j"/>
                        <path stroke="#F3F4F6" stroke-width="1.25" d="M22.268 113.875l7.616-15.868 88.082-42.327c.695-.334 1.314-1.419 1.314-2.36V1.63c0-.744-.302-.983-.773-.756L2.844 56.454c-.695.334-1.314 1.419-1.314 2.36v51.691c0 .744.301.983.772.757l14.027-6.74 5.274 9.375a.375.375 0 0 0 .665-.022z"/>
                    </g>
                    <path fill="#FFC700" d="M616.132 237.555l40.864-16.842-.31 5.922-40.865 16.841z"/>
                    <path fill="#FED0CF" d="M615.57 248.288l59.04-24.333-.155 2.96-59.041 24.333zM615.298 253.469l43.465-17.914-.155 2.961-43.466 17.914zM615.026 258.65l43.466-17.913-.156 2.96-43.465 17.914z"/>
                    <path fill="url(#h)" d="M14.917 59.592c7.875-3.739 14.26-14.237 14.26-23.447 0-9.21-6.385-13.646-14.26-9.907C7.04 29.978.657 40.475.657 49.685c0 9.211 6.384 13.646 14.26 9.907z" transform="rotate(3 -3837.271 11214.992)"/>
                    <path fill="#FEFEFE" fill-rule="nonzero" d="M594.064 262.198c2.05-.845 4.092-4.93 4.283-8.57.165-3.157-1.168-4.38-3.658-3.353-2.49 1.026-4.013 3.426-4.178 6.583-.191 3.64 1.503 6.185 3.553 5.34z"/>
                    <path fill="#FEFEFE" fill-rule="nonzero" d="M601.573 261.593c-1.075-.309-3.33-.927-4.7-1.107-.742 1.229-1.78 2.211-2.86 2.706-1.079.394-2.06.241-2.704-.42-1.457 1.34-3.873 3.892-5.024 5.12-.403.431-.666 1.011-.692 1.53l-.047.89c-.039.73.392 1.162 1.018 1.019a49.458 49.458 0 0 0 7.136-2.178 63.932 63.932 0 0 0 7.217-3.737c.638-.378 1.135-1.192 1.172-1.923l.047-.885c.028-.522-.186-.907-.563-1.015z"/>
                </g>
            </g>
            <g>
                <g transform="rotate(3 -6629.7 8541.848)">
                    <path fill="#000" d="M67.284 21.348l-62.34 28.55c-3.792 1.73-3.802 7.112-.017 8.856l128.504 59.192a16.698 16.698 0 0 0 13.915.026l59.336-27.179c3.93-1.794 3.944-7.378.014-9.187L75.913 21.364a10.354 10.354 0 0 0-8.629-.016" opacity=".1"/>
                    <path fill="#EBF1F9" d="M66.238 7.97L2.59 31.636C-1.201 33.367.095 43.632 3.88 45.375l128.504 59.193a16.7 16.7 0 0 0 13.915.026l59.336-27.18c3.93-1.793 5.56-10.77 1.63-12.579L74.866 7.985a10.357 10.357 0 0 0-8.628-.016"/>
                    <path fill="#EBF1F9" d="M139.055 103.022c-.329-2.636 3.196-3.06 5.272-4.284L2.591 31.638c-.356.161-.667.398-.935.697a3.846 3.846 0 0 0-.48.673c-.142.249-.265.52-.37.81a6.629 6.629 0 0 0-.146.45c-.22.77-.333 1.646-.346 2.56a13.511 13.511 0 0 0 .152 2.235c.192 1.309.563 2.593 1.083 3.673.148.31.309.6.482.873.172.27.356.52.551.746.196.226.402.426.618.598.217.17.444.314.68.422l128.504 59.193a16.706 16.706 0 0 0 11.223.982c-2.202.028-4.28-.347-4.552-2.528"/>
                    <path fill="#FFFFFE" d="M66.238 1.375L3.897 29.925C.105 31.655.095 37.037 3.88 38.78l128.504 59.192A16.698 16.698 0 0 0 146.3 98l59.336-27.179c3.93-1.794 3.944-7.378.014-9.187L74.866 1.391a10.354 10.354 0 0 0-8.628-.016"/>
                    <ellipse cx="170.045" cy="79.795" fill="#EBF1F9" rx="5.993" ry="2.985"/>
                </g>
                <path fill="url(#e)" d="M79.544 7.924L14.376 37.766a.713.713 0 0 0-.003 1.296L129 91.724c.588.269 1.259.27 1.84.004l64.727-29.639a.82.82 0 0 0 .007-1.493L80.928 7.927a1.665 1.665 0 0 0-1.384-.003" transform="rotate(3 -6629.7 8541.848)"/>
                <path fill="#91A7C3" d="M486.371 376.837l-13.685 5.42a.56.56 0 1 0 .407 1.041l13.686-5.42a.56.56 0 1 0-.408-1.041M469.76 384.385c-.081-.19-.248-.358-.472-.486a2.13 2.13 0 0 0-.925-.25c-.553-.028-1.036.126-1.306.385a.688.688 0 0 0-.229.462.616.616 0 0 0 .02.19c.114.432.69.773 1.418.811.838.044 1.508-.327 1.536-.845a.681.681 0 0 0-.042-.267M478.032 377.636a.667.667 0 0 0-.305-.318 1.42 1.42 0 0 0-.608-.164c-.363-.019-.683.083-.86.253a.454.454 0 0 0-.149.302l.014.126c.077.283.45.507.932.532.544.029.991-.215 1.01-.555l-.034-.176M604.007 457.326l-.088 1.679a.369.369 0 0 0 .506.363l8.29-3.326a.374.374 0 0 0 .226-.325l.086-1.642a.369.369 0 0 0-.499-.365l-8.167 3.123a.553.553 0 0 0-.354.493M627.129 449.135c-.036.674-.456 1.345-.94 1.497-.484.152-.847-.27-.812-.945.036-.675.456-1.345.94-1.497.484-.152.847.271.812.945M630.502 447.827c-.035.675-.462 1.344-.946 1.497-.485.152-.847-.271-.812-.945.035-.675.455-1.345.94-1.497.484-.153.854.27.818.945M633.869 446.52c-.036.673-.456 1.344-.94 1.495-.491.153-.854-.27-.819-.945.036-.675.456-1.344.947-1.496.484-.152.847.27.812.945M637.235 445.21c-.035.675-.455 1.345-.94 1.497-.484.153-.847-.27-.811-.945.035-.674.455-1.345.94-1.496.484-.153.846.27.811.945"/>
                <path fill="#746C68" d="M571.586 471.926a16.704 16.704 0 0 1-6.896-1.895l-125.23-65.837-.02-.01.02.01 125.23 65.837c.021.009.035.018.055.027a16.7 16.7 0 0 0 6.841 1.868m-132.153-67.747l-.013-.006.013.006m-.021-.01l-.011-.007.01.006m-.02-.011l-.01-.007.01.007m-.02-.012l-.01-.005.01.005M439.303 404.105l-.01-.005.01.005m-.02-.012l-.01-.006.01.006m-.02-.012l-.009-.006.01.006m-.04-.024l-.008-.006.009.006m-.03-.02l-.007-.005.008.006m-.04-.027l-.006-.004.007.004m-.02-.013l-.004-.003c.001.001.003.003.005.003"/>
                <path fill="#F4D5E4" d="M571.58 471.923a16.652 16.652 0 0 1-6.835-1.865c-.02-.01-.034-.018-.055-.027l-125.23-65.837-.02-.01-.007-.005-.013-.006a.114.114 0 0 1-.008-.005l-.011-.006-.01-.005-.01-.007a.064.064 0 0 1-.01-.005l-.01-.005a.064.064 0 0 0-.01-.006.113.113 0 0 0-.012-.008l-.015-.009a.056.056 0 0 1-.01-.006c-.004-.001-.008-.004-.011-.006l-.01-.005a.076.076 0 0 0-.01-.007l-.01-.006-.01-.006-.009-.006-.01-.006a.045.045 0 0 0-.01-.006c-.003-.002-.006-.005-.01-.006l-.008-.006c-.007-.005-.013-.01-.02-.013l-.008-.006a.105.105 0 0 0-.012-.007l-.007-.005a.07.07 0 0 1-.012-.009l-.007-.004-.012-.009-.005-.003-.015-.01c-1.386-.972-2.301-3.17-2.646-5.531.537 1.36 1.306 2.455 2.28 2.967l8.292 4.36-.027.51c-.022.423.204.822.58 1.02l3.467 1.823a.402.402 0 0 0 .588-.335l.03-.58 10.084 5.3-.034.637c-.023.439.211.85.6 1.055l9.677 5.086a.812.812 0 0 0 .338.095.834.834 0 0 0 .874-.785l.003-.065 1.547.814-.037.704c-.023.44.208.85.596 1.055l9.676 5.086a.828.828 0 0 0 1.212-.69l.008-.132 78.682 41.363a16.762 16.762 0 0 0 6.686 1.893c.533 1.459 2.213 1.858 4.029 1.953.077.004.146.008.223.01a16.757 16.757 0 0 1-4.267.325"/>
                <path fill="#91A7C3" d="M461.813 412.616l-.08 1.54c-.024.439.21.85.6 1.055l9.676 5.086a.83.83 0 0 0 1.212-.69l.09-1.73a.83.83 0 0 0-.442-.777l-9.843-5.174a.828.828 0 0 0-1.213.69M474.815 419.52l-.08 1.54c-.024.44.207.85.595 1.055l9.676 5.086a.829.829 0 0 0 1.213-.69l.09-1.73a.83.83 0 0 0-.442-.777l-9.84-5.174a.827.827 0 0 0-1.212.69M447.097 404.775l-.08 1.516c-.022.423.204.822.58 1.02l3.467 1.823a.402.402 0 0 0 .589-.335l.102-1.954a.401.401 0 0 0-.214-.377l-3.857-2.027a.401.401 0 0 0-.587.334"/>
                <g>
                    <g opacity=".96" transform="rotate(3 -5033.873 9443.466)">
                        <use fill="#000" filter="url(#k)" xlink:href="#l"/>
                        <use fill="#FFF" xlink:href="#l"/>
                        <path stroke="#F3F4F6" stroke-width="1.25" d="M22.268 113.875l7.616-15.868 88.082-42.327c.695-.334 1.314-1.419 1.314-2.36V1.63c0-.744-.302-.983-.773-.756L2.844 56.454c-.695.334-1.314 1.419-1.314 2.36v51.691c0 .744.301.983.772.757l14.027-6.74 5.274 9.375a.375.375 0 0 0 .665-.022z"/>
                    </g>
                    <path fill="#FFC700" d="M532.216 329.289l40.864-16.842-.31 5.922-40.865 16.841z"/>
                    <path fill="#FED0CF" d="M531.653 340.022l59.042-24.334-.156 2.961-59.041 24.333zM531.382 345.203l43.465-17.914-.155 2.96-43.466 17.915zM531.11 350.384l43.466-17.914-.156 2.961-43.465 17.914z"/>
                    <path fill="url(#h)" d="M14.917 59.592c7.875-3.739 14.26-14.237 14.26-23.447 0-9.21-6.385-13.646-14.26-9.907C7.04 29.978.657 40.475.657 49.685c0 9.211 6.384 13.646 14.26 9.907z" transform="rotate(3 -5630.817 9658.547)"/>
                    <path fill="#FEFEFE" fill-rule="nonzero" d="M510.148 353.932c2.051-.845 4.092-4.93 4.283-8.57.165-3.157-1.168-4.38-3.658-3.353-2.49 1.026-4.013 3.426-4.178 6.583-.191 3.64 1.503 6.185 3.553 5.34z"/>
                    <path fill="#FEFEFE" fill-rule="nonzero" d="M517.657 353.327c-1.075-.309-3.33-.928-4.7-1.107-.742 1.229-1.78 2.211-2.86 2.706-1.079.394-2.06.241-2.704-.42-1.457 1.34-3.873 3.892-5.024 5.12-.403.431-.666 1.011-.692 1.53l-.047.89c-.039.73.392 1.162 1.018 1.019a49.458 49.458 0 0 0 7.136-2.178A63.932 63.932 0 0 0 517 357.15c.638-.377 1.135-1.191 1.172-1.922l.047-.885c.028-.522-.186-.907-.563-1.015z"/>
                </g>
            </g>
        </g>
        <g>
            <g transform="translate(367)">
                <use fill="#FFF" xlink:href="#m"/>
                <path stroke="#F3F4F6" stroke-width=".96" d="M138.562 72.55L2.95 1.075c-1.077-.56-1.874.04-1.874 1.516v125.784c0 1.641 1.062 3.564 2.325 4.243l135.617 73.825c1.076.593 1.864.005 1.864-1.502v-128.1c0-1.675-1.062-3.62-2.32-4.293z"/>
            </g>
            <path stroke="#FED0CF" stroke-linecap="square" stroke-width=".96" d="M486.995 154.102L381.422 96.875M486.995 123.305L381.422 66.497M486.995 93.792L381.422 37.385"/>
            <path fill="url(#n)" d="M116.225 145.916l-10.055-5.366v35.647l10.055 5.41zM98.63 90.962l-10.055-5.36v81.506l10.054 5.464zM82.29 114.198l-10.054-5.348v49.34l10.055 5.409zM64.695 124.525l-10.055-5.44v29.086l10.055 5.478zM48.356 103.049l-10.055-5.348v41.635l10.055 5.4z" transform="translate(367)"/>
            <path fill="#FFC700" d="M418.292 79.64l-17.184-9.128c-.46-.244-.834.036-.834.626v13.85c0 .59.373 1.266.834 1.511l6.137 3.27 2.455 3.474 2.434-.867 6.158 3.287c.461.246.835-.033.835-.624V81.155c0-.591-.374-1.27-.835-1.514z"/>
            <path fill="url(#n)" d="M32.017 122.277l-10.054-5.335v13.565l10.054 5.35z" transform="translate(367)"/>
            <path fill="#FED0CF" d="M488.252 71.864L463.116 58.5v5.4l25.136 13.382z"/>
            <path stroke="#FED0CF" stroke-linecap="square" stroke-width=".96" d="M486.995 183.616l-105.573-57.63"/>
            <path fill="#FED0CF" d="M448.034 49.805l-25.137-13.259v5.372l25.137 13.276zM406.558 29.023l-25.136-13.156v5.343l25.136 13.173z"/>
        </g>
    </g>
</svg>
