<svg xmlns="http://www.w3.org/2000/svg" xmlns:xlink="http://www.w3.org/1999/xlink" width="152" height="172" viewBox="0 0 152 172">
    <defs>
        <path id="a" d="M19.573 58.89L135.236 3.31c.922-.444 1.669.147 1.669 1.319V56.32c0 1.172-.747 2.48-1.669 2.923L19.573 114.825c-.921.443-1.668-.148-1.668-1.32V99.543L4.34 94.761l13.564-20.16V61.814c0-1.172.747-2.48 1.668-2.923z"/>
        <linearGradient id="b" x1="160.276%" x2="27.143%" y1="198.661%" y2="0%">
            <stop offset="0%" stop-color="#E65940"/>
            <stop offset="60.306%" stop-color="#F37F50"/>
            <stop offset="100%" stop-color="#FC6374"/>
        </linearGradient>
        <path id="c" d="M76.427 2.753L6.23 36.537c-.922.436-1.668 1.74-1.668 2.911V91.14c0 1.171.746 1.767 1.668 1.33l70.197-33.783c.921-.436 1.668-1.74 1.668-2.911V41.814L91.66 24.087l-13.564-7.215V4.084c0-1.171-.747-1.767-1.668-1.33z"/>
    </defs>
    <g fill="none" fill-rule="evenodd">
        <path fill="#FABFBE" d="M14.715 57.042L132.786 1.095c1.024-.474 3.954-.602 3.97 3.111l-.878 49.298c0 1.171-.747 2.48-1.668 2.923L19.16 114.98c-5.256 1.922-5.256-2.566-5.256-3.737V98.046L.269 93.19l13.636-20.59V59.814c0-1.172-.111-2.329.81-2.772z" opacity=".99"/>
        <g opacity=".96">
            <use fill="#FFF" xlink:href="#a"/>
            <path stroke="#F3F4F6" d="M5.117 94.505l13.288 4.684v14.316c0 .83.39 1.139.951.87L135.02 58.792c.74-.356 1.385-1.486 1.385-2.473V4.63c0-.83-.391-1.139-.952-.87L19.79 59.343c-.74.355-1.385 1.485-1.385 2.472v12.94L5.117 94.504z"/>
        </g>
        <path fill="#FFC700" d="M64.588 53.473l39.927-18.957v5.93L64.588 59.402z"/>
        <path fill="#FDDFDB" d="M64.588 64.22l57.687-27.39v2.965l-57.687 27.39zM64.588 69.409l42.469-20.164v2.965L64.588 72.374zM64.588 74.597l42.469-20.164v2.965L64.588 77.562z"/>
        <path fill="url(#b)" d="M14.917 59.592c7.875-3.739 14.26-14.237 14.26-23.447 0-9.21-6.385-13.646-14.26-9.907C7.04 29.978.657 40.475.657 49.685c0 9.211 6.384 13.646 14.26 9.907z" transform="translate(29.075 33.947)"/>
        <path fill="#FEFEFE" fill-rule="nonzero" d="M43.84 79.237c2.005-.951 3.83-5.137 3.83-8.782 0-3.162-1.396-4.312-3.83-3.157-2.432 1.155-3.827 3.63-3.827 6.792 0 3.645 1.824 6.099 3.828 5.147z"/>
        <path fill="#FEFEFE" fill-rule="nonzero" d="M51.308 78.24c-1.09-.252-3.375-.752-4.752-.86-.677 1.266-1.662 2.302-2.715 2.852-1.056.45-2.044.35-2.722-.278-1.384 1.415-3.664 4.09-4.749 5.377-.38.451-.612 1.044-.611 1.564v.89c0 .732.453 1.14 1.07.965a49.458 49.458 0 0 0 7.012-2.548 63.932 63.932 0 0 0 7.012-4.11c.617-.41 1.07-1.25 1.07-1.981v-.887c0-.522-.233-.896-.615-.984z"/>
        <g>
            <path fill="#FABFBE" d="M60.913 113.168l72.605-34.927c1.024-.475 4.433-.603 4.449 3.11l-1.358 49.298c0 1.171-.747 2.48-1.668 2.923l-69.58 37.318c-5.259 2.313-5.259-2.35-5.259-3.522v-51.429c0-1.171-.11-2.329.81-2.771z" opacity=".99"/>
            <g opacity=".96" transform="translate(60 78)">
                <use fill="#FFF" xlink:href="#c"/>
                <path stroke="#F3F4F6" d="M76.642 3.205L6.444 36.989c-.739.35-1.382 1.473-1.382 2.46v51.69c0 .832.393 1.146.95.881l70.2-33.785c.74-.35 1.383-1.473 1.383-2.46v-14.13l13.308-17.393-13.308-7.08V4.084c0-.83-.393-1.144-.953-.88z"/>
            </g>
            <path fill="#FFC700" d="M71.89 129.357l10.754-5.382v5.93l-10.754 5.182z"/>
            <path fill="#FDDFDB" d="M71.89 139.905l18.385-8.798v2.965L71.89 142.87zM71.89 145.093l10.952-5.066v2.965l-10.952 5.066zM71.89 150.282l10.952-5.066v2.965l-10.952 5.066z"/>
            <path fill="url(#b)" d="M52.009 60.705c-7.876 3.777-14.26-.628-14.26-9.838 0-9.21 6.384-19.74 14.26-23.516 7.875-3.777 14.26.628 14.26 9.839 0 9.21-6.385 19.739-14.26 23.515z" transform="translate(60 78)"/>
            <path fill="#FEFEFE" fill-rule="nonzero" d="M112.16 124.26c-2.005.961-3.83-1.484-3.83-5.129 0-3.161 1.396-5.644 3.83-6.81 2.432-1.167 3.827-.023 3.827 3.138 0 3.646-1.824 7.84-3.828 8.801z"/>
            <path fill="#FEFEFE" fill-rule="nonzero" d="M104.692 130.389c1.09-1.292 3.375-3.973 4.752-5.394.677.62 1.662.714 2.715.26 1.056-.558 2.044-1.602 2.722-2.876 1.384.094 3.664.593 4.749.845.38.088.612.46.611.98v.891c0 .731-.453 1.573-1.07 1.986a64.333 64.333 0 0 1-7.012 4.144 49.686 49.686 0 0 1-7.012 2.581c-.617.179-1.07-.228-1.07-.96v-.886c0-.522.233-1.118.615-1.571z"/>
        </g>
    </g>
</svg>
