<svg xmlns="http://www.w3.org/2000/svg" width="91" height="95" viewBox="0 0 91 95">
    <defs>
        <linearGradient id="a" x1="50%" x2="50%" y1="128.815%" y2="-12.325%">
            <stop offset="0%" stop-color="#B2DDFC"/>
            <stop offset="100%" stop-color="#ECF5FD"/>
        </linearGradient>
        <linearGradient id="b" x1="86.213%" x2="22.277%" y1="13.901%" y2="95.402%">
            <stop offset="0%" stop-color="#E6F2FD"/>
            <stop offset="100%" stop-color="#DCEDFD"/>
        </linearGradient>
        <linearGradient id="c" x1="160.276%" x2="27.143%" y1="198.661%" y2="0%">
            <stop offset="0%" stop-color="#E65940"/>
            <stop offset="60.306%" stop-color="#F37F50"/>
            <stop offset="100%" stop-color="#FC6374"/>
        </linearGradient>
        <linearGradient id="d" x1="195.574%" x2="0%" y1="244.133%" y2="-27.247%">
            <stop offset="0%" stop-color="#E65940"/>
            <stop offset="60.306%" stop-color="#FF9C74"/>
            <stop offset="100%" stop-color="#FF8391"/>
        </linearGradient>
    </defs>
    <g fill="none" fill-rule="evenodd">
        <path fill="url(#a)" d="M86.123 83.019l-66.05-24.685a6 6 0 0 1-3.9-5.62l-2-48.182c0-.94 2.432-2.454 3.108-3.004a2.988 2.988 0 0 1 2.943-.482l66.05 24.685a6 6 0 0 1 3.9 5.62v48.857c0 .963-.454 1.82-1.16 2.37-.508.395-3.147 1.954-3.84 1.954-.36 0 1.285-1.388.95-1.513z"/>
        <path fill="url(#b)" d="M84.123 85.019l-66.05-24.685a6 6 0 0 1-3.9-5.62V5.855a3 3 0 0 1 4.05-2.81l66.05 24.685a6 6 0 0 1 3.9 5.62v48.857a3 3 0 0 1-4.05 2.81z"/>
        <path fill="url(#c)" d="M72.95 92.486L6.9 67.802a6 6 0 0 1-3.9-5.62L1 14c0-.94 2.432-2.454 3.107-3.004a2.988 2.988 0 0 1 2.943-.482L73.1 35.198a6 6 0 0 1 3.9 5.62v48.858c0 .963-.454 1.82-1.16 2.37C75.334 92.44 72.695 94 72 94c-.359 0 1.286-1.388.95-1.514z"/>
        <path fill="url(#d)" d="M69.95 94.486L3.9 69.802a6 6 0 0 1-3.9-5.62V15.323a3 3 0 0 1 4.05-2.81L70.1 37.198a6 6 0 0 1 3.9 5.62v48.858a3 3 0 0 1-4.05 2.81z"/>
        <path stroke="#FFF" stroke-linecap="round" stroke-linejoin="round" stroke-width="3" d="M42.525 69.186c2.46 2.947 5.778 4.16 7.888 2.886l2.104-1.268c.348-.21.544-.624.544-1.15 0-.526-.196-1.121-.544-1.655l-3.505-5.367c-.349-.534-.821-.963-1.315-1.192-.493-.229-.965-.24-1.314-.029l-1.51.91c-.405.245-1.036.031-1.525-.517a67.128 67.128 0 0 1-5.727-7.266 65.862 65.862 0 0 1-4.318-8.117c-.3-.66-.226-1.3.18-1.543l1.51-.91c.348-.21.544-.624.544-1.15 0-.526-.196-1.121-.544-1.655l-3.505-5.367c-.349-.534-.821-.963-1.314-1.192-.493-.229-.966-.24-1.315-.029l-2.104 1.268c-2.113 1.27-2.419 4.668-.727 8.078 2.163 4.5 4.574 8.932 7.213 13.258a155.131 155.131 0 0 0 4.964 6.721"/>
    </g>
</svg>
