<svg xmlns="http://www.w3.org/2000/svg" width="91" height="95" viewBox="0 0 91 95">
    <defs>
        <linearGradient id="a" x1="50%" x2="50%" y1="128.815%" y2="-12.325%">
            <stop offset="0%" stop-color="#B2DDFC"/>
            <stop offset="100%" stop-color="#ECF5FD"/>
        </linearGradient>
        <linearGradient id="b" x1="86.213%" x2="22.277%" y1="13.901%" y2="95.402%">
            <stop offset="0%" stop-color="#E6F2FD"/>
            <stop offset="100%" stop-color="#DCEDFD"/>
        </linearGradient>
        <linearGradient id="c" x1="160.276%" x2="27.143%" y1="198.661%" y2="0%">
            <stop offset="0%" stop-color="#E65940"/>
            <stop offset="60.306%" stop-color="#F37F50"/>
            <stop offset="100%" stop-color="#FC6374"/>
        </linearGradient>
        <linearGradient id="d" x1="195.574%" x2="0%" y1="244.133%" y2="-27.247%">
            <stop offset="0%" stop-color="#E65940"/>
            <stop offset="60.306%" stop-color="#FF9C74"/>
            <stop offset="100%" stop-color="#FF8391"/>
        </linearGradient>
    </defs>
    <g fill="none" fill-rule="evenodd">
        <path fill="url(#a)" d="M86.123 83.019l-66.05-24.685a6 6 0 0 1-3.9-5.62l-2-48.182c0-.94 2.432-2.454 3.108-3.004a2.988 2.988 0 0 1 2.943-.482l66.05 24.685a6 6 0 0 1 3.9 5.62v48.857c0 .963-.454 1.82-1.16 2.37-.508.395-3.147 1.954-3.84 1.954-.36 0 1.285-1.388.95-1.513z"/>
        <path fill="url(#b)" d="M84.123 85.019l-66.05-24.685a6 6 0 0 1-3.9-5.62V5.855a3 3 0 0 1 4.05-2.81l66.05 24.685a6 6 0 0 1 3.9 5.62v48.857a3 3 0 0 1-4.05 2.81z"/>
        <path fill="url(#c)" d="M72.95 92.486L6.9 67.802a6 6 0 0 1-3.9-5.62L1 14c0-.94 2.432-2.454 3.107-3.004a2.988 2.988 0 0 1 2.943-.482L73.1 35.198a6 6 0 0 1 3.9 5.62v48.858c0 .963-.454 1.82-1.16 2.37C75.334 92.44 72.695 94 72 94c-.359 0 1.286-1.388.95-1.514z"/>
        <path fill="url(#d)" d="M69.95 94.486L3.9 69.802a6 6 0 0 1-3.9-5.62V15.323a3 3 0 0 1 4.05-2.81L70.1 37.198a6 6 0 0 1 3.9 5.62v48.858a3 3 0 0 1-4.05 2.81z"/>
        <g stroke="#FFF" stroke-linecap="round" stroke-linejoin="round" stroke-width="3">
            <path d="M29.782 59.253c3.71 5.079 9.726 7.298 13.436 4.956 3.71-2.341 3.71-8.356 0-13.435-3.71-5.078-9.726-7.297-13.436-4.956-3.71 2.341-3.71 8.356 0 13.435zM26.141 40.834c-5.72 3.61-7.022 12.872-1.301 20.703m22.019 7.657c5.72-3.61 6.942-12.934 1.221-20.765"/>
            <path d="M22.32 35.604c-7.83 4.942-9.816 18.058-1.985 28.778M50.68 74.424c7.831-4.942 10.487-17.775 2.656-28.495"/>
        </g>
    </g>
</svg>
