<svg xmlns="http://www.w3.org/2000/svg" xmlns:xlink="http://www.w3.org/1999/xlink" width="524" height="408" viewBox="0 0 524 408">
    <defs>
        <linearGradient id="a" x1="62.239%" x2="69.327%" y1="22.374%" y2="52.285%">
            <stop offset="0%" stop-color="#F47D52"/>
            <stop offset="100%" stop-color="#FFF" stop-opacity="0"/>
        </linearGradient>
        <path id="c" d="M2.467 82.231L173.533.217C174.895-.436 176 .435 176 2.164v127.292c0 1.729-1.105 3.66-2.467 4.313L2.467 215.783c-1.362.653-2.467-.218-2.467-1.947V86.544c0-1.729 1.105-3.66 2.467-4.313z"/>
        <filter id="b" width="129.5%" height="124.1%" x="-22.2%" y="-12%" filterUnits="objectBoundingBox">
            <feOffset dx="-13" in="SourceAlpha" result="shadowOffsetOuter1"/>
            <feGaussianBlur in="shadowOffsetOuter1" result="shadowBlurOuter1" stdDeviation="6.5"/>
            <feComposite in="shadowBlurOuter1" in2="SourceAlpha" operator="out" result="shadowBlurOuter1"/>
            <feColorMatrix in="shadowBlurOuter1" values="0 0 0 0 1 0 0 0 0 0.416074811 0 0 0 0 0.416074811 0 0 0 0.2 0"/>
        </filter>
        <linearGradient id="d" x1="160.276%" x2="27.143%" y1="198.661%" y2="0%">
            <stop offset="0%" stop-color="#E65940"/>
            <stop offset="60.306%" stop-color="#F37F50"/>
            <stop offset="100%" stop-color="#FC6374"/>
        </linearGradient>
        <path id="f" d="M298.15 81.505l19.023-8.462c3.437-1.529 6.224-5.558 6.224-8.999V5.047c0-3.44-2.787-4.99-6.224-3.461l-58.948 26.22c-3.438 1.529-6.225 5.557-6.225 8.998v58.998c0 3.44 2.787 4.99 6.225 3.461l19.052-8.475 10.469 10.259 10.403-19.542z"/>
        <filter id="e" width="172.8%" height="152%" x="-54.6%" y="-26%" filterUnits="objectBoundingBox">
            <feOffset dx="-13" in="SourceAlpha" result="shadowOffsetOuter1"/>
            <feGaussianBlur in="shadowOffsetOuter1" result="shadowBlurOuter1" stdDeviation="6.5"/>
            <feComposite in="shadowBlurOuter1" in2="SourceAlpha" operator="out" result="shadowBlurOuter1"/>
            <feColorMatrix in="shadowBlurOuter1" values="0 0 0 0 1 0 0 0 0 0.416074811 0 0 0 0 0.416074811 0 0 0 0.2 0"/>
        </filter>
        <path id="h" d="M46.15 81.505l19.023-8.462c3.437-1.529 6.224-5.558 6.224-8.999V5.047c0-3.44-2.787-4.99-6.224-3.461L6.225 27.806C2.787 29.334 0 33.362 0 36.803v58.998c0 3.44 2.787 4.99 6.225 3.461l19.052-8.475 10.469 10.259 10.403-19.542z"/>
        <filter id="g" width="172.8%" height="152%" x="-54.6%" y="-26%" filterUnits="objectBoundingBox">
            <feOffset dx="-13" in="SourceAlpha" result="shadowOffsetOuter1"/>
            <feGaussianBlur in="shadowOffsetOuter1" result="shadowBlurOuter1" stdDeviation="6.5"/>
            <feComposite in="shadowBlurOuter1" in2="SourceAlpha" operator="out" result="shadowBlurOuter1"/>
            <feColorMatrix in="shadowBlurOuter1" values="0 0 0 0 1 0 0 0 0 0.416074811 0 0 0 0 0.416074811 0 0 0 0.2 0"/>
        </filter>
        <path id="j" d="M71.721 23.035l.126-19.082C71.87.503 69.1-.967 65.658.667L6.661 28.69C3.22 30.324.412 34.444.389 37.893L0 97.026c-.023 3.448 2.748 4.92 6.19 3.285l58.997-28.022c3.44-1.635 6.248-5.755 6.27-9.204l.127-19.112 14.983-17.586-14.846-3.352z"/>
        <filter id="i" width="160.1%" height="151.5%" x="-45.1%" y="-25.7%" filterUnits="objectBoundingBox">
            <feOffset dx="-13" in="SourceAlpha" result="shadowOffsetOuter1"/>
            <feGaussianBlur in="shadowOffsetOuter1" result="shadowBlurOuter1" stdDeviation="6.5"/>
            <feComposite in="shadowBlurOuter1" in2="SourceAlpha" operator="out" result="shadowBlurOuter1"/>
            <feColorMatrix in="shadowBlurOuter1" values="0 0 0 0 1 0 0 0 0 0.416074811 0 0 0 0 0.416074811 0 0 0 0.2 0"/>
        </filter>
    </defs>
    <g fill="none" fill-rule="evenodd">
        <path fill="url(#a)" d="M0 255.893c21.347-14.418 39.586-31.284 54.718-50.599 22.697-28.972 28.372-41.152 54.312-36.626 25.94 4.525 32.83-11.877 36.073 5.64 3.243 17.516 23.508 15.633 25.13 31.89 1.62 16.257 22.697 22.614 25.13-11.883 2.431-34.497 11.753-49.332 29.587-62.63 17.834-13.296 13.376 3.403 29.994-6.887 16.617-10.29 24.318-48.383 42.558-36.337 18.239 12.046 21.887-5.081 44.18-12.785 22.291-7.705 40.936-22.196 52.69-52.073 11.754-29.877 42.08-32.611 48.393 5.735C449.077 67.684 488 50.378 488 75.676v84.176L0 407V255.893z" opacity=".5"/>
        <g opacity=".96" transform="translate(200 16)">
            <use fill="#000" filter="url(#b)" xlink:href="#c"/>
            <use fill="#FFF" xlink:href="#c"/>
            <path stroke="#F3F4F6" stroke-width="1.25" d="M2.737 82.795c-1.135.544-2.112 2.251-2.112 3.75v127.29c0 1.302.66 1.822 1.572 1.384l171.066-82.014c1.135-.544 2.112-2.251 2.112-3.75V2.166c0-1.302-.66-1.822-1.572-1.384L2.737 82.795z"/>
        </g>
        <path fill="#FABFBE" d="M220.847 102.177l15.636-7.632v3.189l-15.636 7.631zM264.948 80.537l15.635-7.632v3.189l-15.635 7.631zM307.444 59.698l15.636-7.631v3.188l-15.636 7.632zM351.544 39.26l15.636-7.631v3.188l-15.636 7.632z" opacity=".613"/>
        <path stroke="#FABFBE" stroke-linecap="square" stroke-width="1.25" d="M210.825 176.297l155.152-74.538M210.825 158.263l155.152-74.538M210.825 142.635l155.152-74.539M210.825 192.327l155.152-74.539M210.825 210.36l155.152-74.538" opacity=".613"/>
        <path fill="#FFC700" d="M214.834 108.803c1.107-.508 2.004-2.01 2.004-3.356s-.897-2.024-2.004-1.516c-1.107.509-2.005 2.012-2.005 3.357 0 1.345.898 2.024 2.005 1.515zM258.533 87.965c1.107-.509 2.005-2.011 2.005-3.357 0-1.345-.898-2.024-2.005-1.515-1.107.508-2.005 2.011-2.005 3.356 0 1.346.898 2.024 2.005 1.516zM301.831 66.725c1.108-.508 2.005-2.01 2.005-3.356s-.897-2.024-2.005-1.516c-1.107.509-2.004 2.012-2.004 3.357 0 1.345.897 2.024 2.004 1.515zM344.729 45.887c1.107-.509 2.004-2.011 2.004-3.357 0-1.345-.897-2.024-2.004-1.515-1.107.508-2.005 2.011-2.005 3.356 0 1.346.898 2.024 2.005 1.516z"/>
        <g fill="url(#d)" transform="translate(216 74)">
            <path d="M0 107l11.885-5.683v27L0 134zM18.818 56.001l11.886-5.683v69L18.818 125zM37.637 74.003l11.885-5.684v42l-11.885 5.684zM56.455 27.004L68.34 21.32v80l-11.885 5.684zM75.274 38.005l11.885-5.683v60l-11.885 5.683zM94.092 47.006l11.885-5.683v42l-11.885 5.683zM112.91 6.008L124.796.324v74l-11.886 5.684zM131.729 11.009l11.885-5.684v60L131.73 71.01z"/>
        </g>
        <path stroke="#CC1B26" stroke-linecap="round" stroke-linejoin="round" stroke-width="3" d="M308.456 385.552l47.696 20.064 165.96-81.138L465.982 299"/>
        <g stroke-width="2">
            <path stroke="#FEEBE2" d="M315.495 391.674c38.61-17.594 38.61-46.12 0-63.715-38.61-17.594-101.211-17.594-139.822 0-38.61 17.594-38.61 46.12 0 63.715 38.61 17.594 101.211 17.594 139.822 0z"/>
            <path stroke="#FEEBE2" d="M289.42 379.792c24.21-11.032 24.21-28.919 0-39.951s-63.462-11.032-87.672 0c-24.21 11.032-24.21 28.919 0 39.95 24.21 11.033 63.462 11.033 87.672 0z"/>
            <path stroke="#C6E0FD" d="M276.343 373.833c16.988-7.741 16.988-20.292 0-28.033s-44.53-7.741-61.518 0-16.988 20.292 0 28.033 44.53 7.741 61.518 0z"/>
        </g>
        <g stroke-width="2">
            <path stroke="#FEEBE2" d="M475.495 308.674c38.61-17.594 38.61-46.12 0-63.715-38.61-17.594-101.211-17.594-139.822 0-38.61 17.594-38.61 46.12 0 63.715 38.61 17.594 101.211 17.594 139.822 0z"/>
            <path stroke="#FEEBE2" d="M449.42 296.792c24.21-11.032 24.21-28.919 0-39.951s-63.462-11.032-87.672 0c-24.21 11.032-24.21 28.919 0 39.95 24.21 11.033 63.462 11.033 87.672 0z"/>
            <path stroke="#C6E0FD" d="M436.343 290.833c16.988-7.741 16.988-20.292 0-28.033s-44.53-7.741-61.518 0-16.988 20.292 0 28.033 44.53 7.741 61.518 0z"/>
        </g>
        <g>
            <g transform="translate(146 299.877)">
                <path fill="#F9EBEB" d="M66.238 7.97L2.59 31.636C-1.201 33.367.095 43.632 3.88 45.375l128.504 59.193a16.7 16.7 0 0 0 13.915.026l59.336-27.18c3.93-1.793 5.56-10.77 1.63-12.579L74.866 7.985a10.357 10.357 0 0 0-8.628-.016"/>
                <path fill="#F9EBEB" d="M139.055 103.022c-.329-2.636 3.196-3.06 5.272-4.284L2.591 31.638c-.356.161-.667.398-.935.697a3.846 3.846 0 0 0-.48.673c-.142.249-.265.52-.37.81a6.629 6.629 0 0 0-.146.45c-.22.77-.333 1.646-.346 2.56a13.511 13.511 0 0 0 .152 2.235c.192 1.309.563 2.593 1.083 3.673.148.31.309.6.482.873.172.27.356.52.551.746.196.226.402.426.618.598.217.17.444.314.68.422l128.504 59.193a16.706 16.706 0 0 0 11.223.982c-2.202.028-4.28-.347-4.552-2.528"/>
                <path fill="#FFFFFE" d="M66.238 1.375L3.897 29.925C.105 31.655.095 37.037 3.88 38.78l128.504 59.192A16.698 16.698 0 0 0 146.3 98l59.336-27.179c3.93-1.794 3.944-7.378.014-9.187L74.866 1.391a10.354 10.354 0 0 0-8.628-.016"/>
                <ellipse cx="170.045" cy="79.795" fill="#F9EBEB" rx="5.993" ry="2.985"/>
            </g>
            <path fill="url(#d)" d="M79.544 7.924L14.376 37.766a.713.713 0 0 0-.003 1.296L129 91.724c.588.269 1.259.27 1.84.004l64.727-29.639a.82.82 0 0 0 .007-1.493L80.928 7.927a1.665 1.665 0 0 0-1.384-.003" transform="translate(146 299.877)"/>
            <path fill="#FFFFFE" d="M222.575 362.908a.632.632 0 0 0-.002 1.15l41.286 18.867c.521.238 1.117.24 1.632.003l56.408-27.287a.728.728 0 0 0 .006-1.324l-40.303-17.874c-.39-.179-.837-.18-1.228-.002l-57.799 26.467zM173.014 339.51a.632.632 0 0 0-.003 1.15l41.287 18.867c.521.238 1.116.24 1.631.003l57.408-26.287a.728.728 0 0 0 .007-1.324l-41.303-18.874c-.391-.179-.838-.18-1.228-.002l-57.8 26.467z" opacity=".2"/>
            <path fill="#C39191" d="M195.295 315.478l-13.383 6.129a.56.56 0 1 0 .462 1.018l13.383-6.128a.56.56 0 1 0-.462-1.02M179.101 323.885c-.09-.186-.265-.345-.496-.46a2.13 2.13 0 0 0-.937-.201c-.554 0-1.028.18-1.284.452a.688.688 0 0 0-.204.473c0 .064.01.128.03.189.136.425.729.736 1.458.736.839 0 1.49-.406 1.49-.925a.681.681 0 0 0-.057-.264M187.01 316.713a.667.667 0 0 0-.322-.302 1.42 1.42 0 0 0-.615-.132c-.364 0-.679.118-.846.297a.454.454 0 0 0-.133.31l.02.125c.092.279.476.483.959.483.545 0 .979-.267.979-.608l-.042-.173M316.982 389.7v1.68c0 .27.272.45.524.337l8.104-3.755a.374.374 0 0 0 .21-.336v-1.645a.369.369 0 0 0-.517-.338l-7.993 3.546a.553.553 0 0 0-.328.511M339.644 380.31c0 .676-.385 1.367-.86 1.544-.476.178-.86-.226-.86-.901 0-.676.384-1.367.86-1.544.475-.177.86.226.86.901M342.944 378.828c0 .675-.392 1.366-.867 1.544-.475.176-.86-.227-.86-.902s.385-1.367.86-1.544c.475-.177.867.226.867.902M346.237 377.345c0 .675-.384 1.367-.86 1.544-.482.177-.867-.226-.867-.902 0-.675.385-1.366.867-1.544.476-.177.86.227.86.902M349.53 375.862c0 .676-.384 1.367-.86 1.544-.475.178-.86-.226-.86-.901 0-.676.385-1.367.86-1.544.476-.178.86.226.86.901"/>
            <path fill="#746C68" d="M285.37 405.977c-2.385 0-4.769-.512-6.986-1.532L149.88 345.252l-.02-.009.02.01 128.504 59.192.056.024a16.7 16.7 0 0 0 6.93 1.508m-135.518-60.738l-.013-.006.013.006m-.022-.01l-.01-.005.01.005m-.02-.01l-.012-.006.011.006m-.02-.01l-.011-.006.01.005M149.718 345.172l-.01-.005.01.005m-.02-.01c-.003-.003-.006-.004-.01-.006l.01.005m-.02-.01c-.003-.003-.006-.004-.01-.006l.01.005m-.04-.022l-.009-.006.01.006m-.031-.018l-.008-.005.008.005m-.04-.024l-.007-.004.006.004m-.02-.012l-.004-.003.005.003"/>
            <path fill="#F4D5D5" d="M285.363 405.974c-2.364 0-4.727-.502-6.923-1.505l-.056-.024-128.504-59.193-.02-.009-.008-.004-.013-.006a.114.114 0 0 1-.009-.004l-.01-.005-.01-.005-.012-.006a.064.064 0 0 1-.01-.005l-.01-.005a.064.064 0 0 0-.01-.005.113.113 0 0 0-.012-.007l-.016-.008a.056.056 0 0 1-.011-.006.076.076 0 0 1-.01-.005l-.01-.005a.076.076 0 0 0-.01-.006l-.01-.005-.011-.006-.01-.005c-.003-.003-.007-.004-.01-.006a.045.045 0 0 0-.01-.006l-.01-.005-.009-.006-.021-.012-.008-.005a.105.105 0 0 0-.012-.007l-.008-.004a.07.07 0 0 1-.012-.008c-.003 0-.005-.002-.007-.004l-.013-.008-.005-.003-.015-.01h-.001c-1.434-.897-2.463-3.045-2.931-5.384.607 1.33 1.432 2.383 2.432 2.843l8.509 3.92v.51c0 .425.246.811.632.989l3.558 1.64a.402.402 0 0 0 .57-.365v-.582l10.346 4.766v.637c0 .44.256.839.655 1.023l9.929 4.572c.112.052.23.077.342.077a.834.834 0 0 0 .832-.83v-.065l1.588.732v.705c0 .44.251.839.65 1.023l9.929 4.572a.828.828 0 0 0 1.175-.752v-.133l80.74 37.189a16.762 16.762 0 0 0 6.775 1.54c.608 1.43 2.307 1.74 4.125 1.74l.224-.001a16.757 16.757 0 0 1-4.244.547"/>
            <path fill="#C39191" d="M172.643 352.493v1.542c0 .44.256.839.655 1.023l9.929 4.572a.83.83 0 0 0 1.174-.753v-1.732a.83.83 0 0 0-.482-.753l-10.101-4.652a.828.828 0 0 0-1.175.753M185.989 358.707v1.542c0 .44.251.839.65 1.023l9.929 4.572a.829.829 0 0 0 1.175-.752v-1.733a.83.83 0 0 0-.483-.753l-10.097-4.65a.827.827 0 0 0-1.174.75M157.537 345.433v1.518c0 .424.246.81.632.988l3.558 1.64a.402.402 0 0 0 .57-.366v-1.957c0-.157-.091-.299-.234-.365l-3.957-1.823a.401.401 0 0 0-.57.365"/>
        </g>
        <g>
            <g transform="translate(308 215.877)">
                <path fill="#F9EBEB" d="M66.238 7.97L2.59 31.636C-1.201 33.367.095 43.632 3.88 45.375l128.504 59.193a16.7 16.7 0 0 0 13.915.026l59.336-27.18c3.93-1.793 5.56-10.77 1.63-12.579L74.866 7.985a10.357 10.357 0 0 0-8.628-.016"/>
                <path fill="#EBF1F9" d="M139.055 103.022c-.329-2.636 3.196-3.06 5.272-4.284L2.591 31.638c-.356.161-.667.398-.935.697a3.846 3.846 0 0 0-.48.673c-.142.249-.265.52-.37.81a6.629 6.629 0 0 0-.146.45c-.22.77-.333 1.646-.346 2.56a13.511 13.511 0 0 0 .152 2.235c.192 1.309.563 2.593 1.083 3.673.148.31.309.6.482.873.172.27.356.52.551.746.196.226.402.426.618.598.217.17.444.314.68.422l128.504 59.193a16.706 16.706 0 0 0 11.223.982c-2.202.028-4.28-.347-4.552-2.528"/>
                <path fill="#FFFFFE" d="M66.238 1.375L3.897 29.925C.105 31.655.095 37.037 3.88 38.78l128.504 59.192A16.698 16.698 0 0 0 146.3 98l59.336-27.179c3.93-1.794 3.944-7.378.014-9.187L74.866 1.391a10.354 10.354 0 0 0-8.628-.016"/>
                <ellipse cx="170.045" cy="79.795" fill="#EBF1F9" rx="5.993" ry="2.985"/>
            </g>
            <path fill="url(#d)" d="M79.544 7.924L14.376 37.766a.713.713 0 0 0-.003 1.296L129 91.724c.588.269 1.259.27 1.84.004l64.727-29.639a.82.82 0 0 0 .007-1.493L80.928 7.927a1.665 1.665 0 0 0-1.384-.003" transform="translate(308 215.877)"/>
            <path fill="#FFFFFE" d="M385.932 279.998a.632.632 0 0 0-.003 1.15l41.287 18.867c.521.238 1.116.239 1.631.003l56.409-27.288a.728.728 0 0 0 .006-1.324l-40.303-17.873c-.391-.18-.837-.18-1.228-.002l-57.8 26.467zM336.37 256.6a.632.632 0 0 0-.002 1.15l41.287 18.867c.52.238 1.116.239 1.63.003l57.41-26.288a.728.728 0 0 0 .005-1.324l-41.303-18.873c-.39-.18-.837-.18-1.228-.003L336.37 256.6z" opacity=".2"/>
            <path fill="#C39191" d="M357.295 231.478l-13.383 6.129a.56.56 0 1 0 .462 1.018l13.383-6.128a.56.56 0 1 0-.462-1.02M341.101 239.885c-.09-.186-.265-.345-.496-.46a2.13 2.13 0 0 0-.937-.201c-.554 0-1.028.18-1.284.452a.688.688 0 0 0-.204.473c0 .064.01.128.03.189.136.425.729.736 1.458.736.839 0 1.49-.406 1.49-.925a.681.681 0 0 0-.057-.264M349.01 232.713a.667.667 0 0 0-.322-.302 1.42 1.42 0 0 0-.615-.132c-.364 0-.679.118-.846.297a.454.454 0 0 0-.133.31l.02.125c.092.279.476.483.959.483.545 0 .979-.267.979-.608l-.042-.173M478.982 305.7v1.68c0 .27.272.45.524.337l8.104-3.755a.374.374 0 0 0 .21-.336v-1.645a.369.369 0 0 0-.517-.338l-7.993 3.546a.553.553 0 0 0-.328.511M501.644 296.31c0 .676-.385 1.367-.86 1.544-.476.178-.86-.226-.86-.901 0-.676.384-1.367.86-1.544.475-.177.86.226.86.901M504.944 294.828c0 .675-.392 1.366-.867 1.544-.475.176-.86-.227-.86-.902s.385-1.367.86-1.544c.475-.177.867.226.867.902M508.237 293.345c0 .675-.384 1.367-.86 1.544-.482.177-.867-.226-.867-.902 0-.675.385-1.366.867-1.544.476-.177.86.227.86.902M511.53 291.862c0 .676-.384 1.367-.86 1.544-.475.178-.86-.226-.86-.901 0-.676.385-1.367.86-1.544.476-.178.86.226.86.901"/>
            <path fill="#746C68" d="M447.37 321.977c-2.385 0-4.769-.512-6.986-1.532L311.88 261.252l-.02-.009.02.01 128.504 59.192.056.024a16.7 16.7 0 0 0 6.93 1.508m-135.518-60.738l-.013-.006.013.006m-.022-.01l-.01-.005.01.005m-.02-.01l-.012-.006.011.006m-.02-.01l-.011-.006.01.005M311.718 261.172l-.01-.005.01.005m-.02-.01c-.003-.003-.006-.004-.01-.006l.01.005m-.02-.01c-.003-.003-.006-.004-.01-.006l.01.005m-.04-.022l-.009-.006.01.006m-.031-.018l-.008-.005.008.005m-.04-.024l-.007-.004.006.004m-.02-.012l-.004-.003.005.003"/>
            <path fill="#F4D5D5" d="M447.363 321.974c-2.364 0-4.727-.502-6.923-1.505l-.056-.024-128.504-59.193-.02-.009-.008-.004-.013-.006a.114.114 0 0 1-.009-.004l-.01-.005-.01-.005-.012-.006a.064.064 0 0 1-.01-.005l-.01-.005a.064.064 0 0 0-.01-.005.113.113 0 0 0-.012-.007l-.016-.008a.056.056 0 0 1-.011-.006.076.076 0 0 1-.01-.005l-.01-.005a.076.076 0 0 0-.01-.006l-.01-.005-.011-.006-.01-.005c-.003-.003-.007-.004-.01-.006a.045.045 0 0 0-.01-.006l-.01-.005-.009-.006-.021-.012-.008-.005a.105.105 0 0 0-.012-.007l-.008-.004a.07.07 0 0 1-.012-.008c-.003 0-.005-.002-.007-.004l-.013-.008-.005-.003-.015-.01h-.001c-1.434-.897-2.463-3.045-2.931-5.384.607 1.33 1.432 2.383 2.432 2.843l8.509 3.92v.51c0 .425.246.811.632.989l3.558 1.64a.402.402 0 0 0 .57-.365v-.582l10.346 4.766v.637c0 .44.256.839.655 1.023l9.929 4.572c.112.052.23.077.342.077a.834.834 0 0 0 .832-.83v-.065l1.588.732v.705c0 .44.251.839.65 1.023l9.929 4.572a.828.828 0 0 0 1.175-.752v-.133l80.74 37.189a16.762 16.762 0 0 0 6.775 1.54c.608 1.43 2.307 1.74 4.125 1.74l.224-.001a16.757 16.757 0 0 1-4.244.547"/>
            <path fill="#C39191" d="M334.643 268.493v1.542c0 .44.256.839.655 1.023l9.929 4.572a.83.83 0 0 0 1.174-.753v-1.732a.83.83 0 0 0-.482-.753l-10.101-4.652a.828.828 0 0 0-1.175.753M347.989 274.707v1.542c0 .44.251.839.65 1.023l9.929 4.572a.829.829 0 0 0 1.175-.752v-1.733a.83.83 0 0 0-.483-.753l-10.097-4.65a.827.827 0 0 0-1.174.75M319.537 261.433v1.518c0 .424.246.81.632.988l3.558 1.64a.402.402 0 0 0 .57-.366v-1.957c0-.157-.091-.299-.234-.365l-3.957-1.823a.401.401 0 0 0-.57.365"/>
        </g>
        <g>
            <g opacity=".96" transform="translate(104 149)">
                <use fill="#000" filter="url(#e)" xlink:href="#f"/>
                <use fill="#FFF" xlink:href="#f"/>
                <path stroke="#F3F4F6" stroke-width="1.25" d="M287.587 100.016l10.112-18.995 19.22-8.549c3.218-1.431 5.853-5.241 5.853-8.428V5.047c0-2.964-2.301-4.244-5.345-2.89l-58.948 26.22c-3.219 1.431-5.854 5.24-5.854 8.427v58.998c0 2.964 2.302 4.244 5.346 2.89l19.44-8.647 10.176 9.97z"/>
            </g>
            <path fill="#FFC700" fill-rule="nonzero" d="M403.102 199.117c-.393-.277-.925-.277-1.48 0-.555.278-1.087.81-1.48 1.478l-1.7 2.896c-.456.778-1.166 1.234-1.716 1.101a20.144 20.144 0 0 1-6.448-2.635c-1.847-1.449-3.477-3.238-4.86-5.338-.34-.494-.255-1.391.201-2.17l1.7-2.895c.392-.669.613-1.42.613-2.089 0-.668-.22-1.2-.613-1.476l-3.946-2.782c-.392-.276-.925-.276-1.48.001-.555.277-1.087.809-1.48 1.478l-2.368 4.036c-2.379 4.048-2.723 8.719-.819 11.104 2.435 3.225 5.15 6.079 8.12 8.536a45.915 45.915 0 0 0 10.453 4.559c2.77.91 6.505-1.37 8.88-5.422l2.368-4.036c.393-.668.613-1.42.613-2.088 0-.669-.22-1.2-.613-1.477l-3.945-2.781z"/>
            <g opacity=".96" transform="translate(206 239)">
                <use fill="#000" filter="url(#g)" xlink:href="#h"/>
                <use fill="#FFF" xlink:href="#h"/>
                <path stroke="#F3F4F6" stroke-width="1.25" d="M35.587 100.016L45.699 81.02l19.22-8.549c3.218-1.431 5.853-5.241 5.853-8.428V5.047c0-2.964-2.301-4.244-5.345-2.89L6.479 28.377C3.26 29.807.625 33.616.625 36.803v58.998c0 2.964 2.302 4.244 5.346 2.89l19.44-8.647 10.176 9.97z"/>
            </g>
            <path fill="#FFC700" fill-rule="nonzero" d="M253.102 289.117c-.393-.277-.925-.277-1.48 0-.555.278-1.087.81-1.48 1.478l-1.7 2.896c-.456.778-1.166 1.234-1.716 1.101a20.144 20.144 0 0 1-6.448-2.635c-1.847-1.449-3.477-3.238-4.86-5.338-.34-.494-.255-1.391.201-2.17l1.7-2.895c.392-.669.613-1.42.613-2.089 0-.668-.22-1.2-.613-1.476l-3.946-2.782c-.392-.276-.925-.276-1.48.001-.555.277-1.087.809-1.48 1.478l-2.368 4.036c-2.379 4.048-2.723 8.719-.819 11.104 2.435 3.225 5.15 6.079 8.12 8.536a45.915 45.915 0 0 0 10.453 4.559c2.77.91 6.505-1.37 8.88-5.422l2.368-4.036c.393-.668.613-1.42.613-2.088 0-.669-.22-1.2-.613-1.477l-3.945-2.781z"/>
            <g>
                <g opacity=".96" transform="translate(104.532 149.996)">
                    <use fill="#000" filter="url(#i)" xlink:href="#j"/>
                    <use fill="#FFF" xlink:href="#j"/>
                    <path stroke="#F3F4F6" stroke-width="1.25" d="M85.42 26.77l-14.327-3.236.13-19.586c.019-2.96-2.25-4.163-5.297-2.716L6.93 29.254c-3.23 1.535-5.893 5.442-5.915 8.643L.625 97.03c-.02 2.96 2.25 4.164 5.296 2.716l58.997-28.022c3.231-1.534 5.894-5.442 5.915-8.643l.127-19.34 14.46-16.972z"/>
                </g>
                <path fill="#FFC700" d="M140.342 197.448c-2.646 1.177-4.81 4.306-4.81 6.954 0 2.647 2.164 3.851 4.81 2.674 2.645-1.176 4.81-4.306 4.81-6.953 0-2.648-2.165-3.852-4.81-2.675z"/>
                <path fill="#FFC700" d="M154.392 196.375c0-7.943-6.493-11.554-14.43-8.024-7.937 3.53-14.43 12.918-14.43 20.861 0 5.296 2.886 8.586 7.215 9.308l2.405-5.162c-2.886-.401-4.81-2.675-4.81-6.045 0-5.295 4.329-11.554 9.62-13.907 5.291-2.353 9.62.054 9.62 5.35 0 3.61-1.924 7.595-4.81 10.323l2.405 3.022c4.33-4.573 7.215-10.43 7.215-15.726z"/>
                <path fill="#FFC700" d="M140.582 178.254c-13.228 5.884-24.05 21.53-24.05 34.769 0 8.906 4.81 14.47 12.025 15.352l2.405-5.162c-5.772-.802-9.62-5.35-9.62-12.33 0-10.59 8.658-23.108 19.24-27.815 10.583-4.707 19.24.108 19.24 10.7 0 7.22-3.847 14.95-9.62 20.887l2.406 3.022c7.215-7.301 12.025-17.384 12.025-26.05 0-13.238-10.823-19.256-24.05-13.373z"/>
            </g>
        </g>
    </g>
</svg>
