<svg xmlns="http://www.w3.org/2000/svg" xmlns:xlink="http://www.w3.org/1999/xlink" width="158" height="174" viewBox="0 0 158 174">
    <defs>
        <linearGradient id="d" x1="108.725%" x2="22.637%" y1="6.323%" y2="107.105%">
            <stop offset="0%" stop-color="#F96E66"/>
            <stop offset="100%" stop-color="#F27E4F"/>
        </linearGradient>
        <linearGradient id="c" x1="91.968%" x2="11.57%" y1="-5.668%" y2="100%">
            <stop offset="0%" stop-color="#F87062"/>
            <stop offset="100%" stop-color="#F37D51"/>
        </linearGradient>
        <path id="b" d="M77.134 0l31.95 20.005v45.606l-31.95 44.491-45.184 17.315L0 107.412V61.806l31.95-44.492z"/>
        <filter id="a" width="142.2%" height="136.1%" x="-30.3%" y="-18.1%" filterUnits="objectBoundingBox">
            <feMorphology in="SourceAlpha" operator="dilate" radius="3" result="shadowSpreadOuter1"/>
            <feOffset dx="-10" in="shadowSpreadOuter1" result="shadowOffsetOuter1"/>
            <feGaussianBlur in="shadowOffsetOuter1" result="shadowBlurOuter1" stdDeviation="5"/>
            <feComposite in="shadowBlurOuter1" in2="SourceAlpha" operator="out" result="shadowBlurOuter1"/>
            <feColorMatrix in="shadowBlurOuter1" values="0 0 0 0 0.788235294 0 0 0 0 0.22745098 0 0 0 0 0.34717005 0 0 0 0.2 0"/>
        </filter>
        <linearGradient id="f" x1="108.725%" x2="22.637%" y1="6.323%" y2="107.105%">
            <stop offset="0%" stop-color="#FEFEFE"/>
            <stop offset="100%" stop-color="#F3F6FC"/>
        </linearGradient>
        <linearGradient id="e" x1="91.968%" x2="11.57%" y1="-5.668%" y2="100%">
            <stop offset="0%" stop-color="#F77160"/>
            <stop offset="100%" stop-color="#F37C52"/>
        </linearGradient>
        <linearGradient id="g" x1="160.276%" x2="27.143%" y1="198.661%" y2="0%">
            <stop offset="0%" stop-color="#E65940"/>
            <stop offset="60.306%" stop-color="#F37F50"/>
            <stop offset="100%" stop-color="#FC6374"/>
        </linearGradient>
    </defs>
    <g fill="none" fill-rule="evenodd">
        <g fill="#FDDFDB">
            <path d="M136.71 164.603c27.386-12.53 27.386-32.843 0-45.373-27.385-12.529-71.785-12.529-99.17 0-27.386 12.53-27.386 32.844 0 45.373 27.385 12.53 71.785 12.53 99.17 0z" opacity=".5"/>
            <path d="M123.233 158.121c19.69-8.95 19.69-23.46 0-32.409-19.689-8.95-51.61-8.95-71.3 0-19.689 8.95-19.689 23.46 0 32.41 19.69 8.949 51.611 8.949 71.3 0z"/>
        </g>
        <g stroke-linecap="round" stroke-linejoin="round" transform="translate(20.667 9)">
            <use fill="#000" filter="url(#a)" xlink:href="#b"/>
            <use fill="url(#d)" stroke="url(#c)" stroke-width="6" xlink:href="#b"/>
        </g>
        <path fill="url(#f)" stroke="url(#e)" stroke-linecap="round" stroke-linejoin="round" stroke-width="6" d="M85.384 5.5l31.95 20.005v45.606l-31.95 44.491L40.2 132.917 8.25 112.912V67.306L40.2 22.814z" transform="translate(20.667 9)"/>
        <path fill="url(#g)" d="M35.668 72.466l57.925-22.313c.927-.357 1.679.116 1.679 1.057v13.628c0 .94-.752 1.993-1.68 2.35L35.669 89.501c-.928.357-1.68-.116-1.68-1.057V74.816c0-.941.752-1.993 1.68-2.35z" transform="translate(20.667 9)"/>
        <g>
            <path fill="#FFC700" d="M117.375 138.454c13.416-4.913 24.292-19.453 24.292-32.475 0-13.023-10.876-19.596-24.292-14.683-13.416 4.913-24.292 19.453-24.292 32.475 0 13.023 10.876 19.596 24.292 14.683z"/>
            <path fill="#FBFCFE" d="M117.045 102.849c4.247-1.647 8.427-1.272 8.427 3.493 0 4.398-4.944 8.004-6.007 10.002-.795 1.493-.528 3.049-2.719 3.898-1.426.553-2.126-.36-2.126-1.44 0-4.027 5.809-7.19 5.809-10.505 0-1.823-1.194-2.444-3.186-1.672-4.248 1.647-2.589 5.468-5.809 6.716-1.158.449-2.156.123-2.156-1.229 0-3.315 3.717-7.693 7.767-9.263zm-.29 18.985c1.365-.595 2.489.21 2.489 1.791s-1.124 3.37-2.49 3.964c-1.37.597-2.493-.207-2.493-1.793 0-1.58 1.124-3.365 2.493-3.962z"/>
        </g>
    </g>
</svg>
