<?xml version="1.0" encoding="UTF-8"?>
<svg width="577px" height="425px" viewBox="0 0 577 425" version="1.1" xmlns="http://www.w3.org/2000/svg" xmlns:xlink="http://www.w3.org/1999/xlink">
    <!-- Generator: Sketch 47.1 (45422) - http://www.bohemiancoding.com/sketch -->
    <title>il_what_does</title>
    <desc>Created with Sketch.</desc>
    <defs>
        <linearGradient x1="94.961423%" y1="13.1057857%" x2="-44.1765031%" y2="115.473543%" id="linearGradient-1">
            <stop stop-color="#FEFEFE" offset="0%"></stop>
            <stop stop-color="#FEEFE6" offset="100%"></stop>
        </linearGradient>
        <linearGradient x1="50%" y1="17.0495468%" x2="95.4716334%" y2="71.5040244%" id="linearGradient-2">
            <stop stop-color="#72FAD6" offset="0%"></stop>
            <stop stop-color="#49FCD8" offset="100%"></stop>
        </linearGradient>
        <linearGradient x1="195.574229%" y1="244.133219%" x2="0%" y2="-27.2467224%" id="linearGradient-3">
            <stop stop-color="#E65940" offset="0%"></stop>
            <stop stop-color="#FF9C74" offset="60.305549%"></stop>
            <stop stop-color="#FF8391" offset="100%"></stop>
        </linearGradient>
        <linearGradient x1="160.2762%" y1="198.66143%" x2="27.1431365%" y2="0%" id="linearGradient-4">
            <stop stop-color="#E65940" offset="0%"></stop>
            <stop stop-color="#F37F50" offset="60.305549%"></stop>
            <stop stop-color="#FC6374" offset="100%"></stop>
        </linearGradient>
        <linearGradient x1="127.79226%" y1="-17.7486829%" x2="-19.2184804%" y2="138.231336%" id="linearGradient-5">
            <stop stop-color="#FFFEFB" offset="0%"></stop>
            <stop stop-color="#FEE7DC" offset="100%"></stop>
        </linearGradient>
        <path d="M46.149498,81.5046573 L65.1725251,73.0432683 C68.6104271,71.5140992 71.3973972,67.4851406 71.3973972,64.0443375 L71.3973972,5.0469397 C71.3973972,1.60613656 68.6104271,0.0564509918 65.1725251,1.58562011 L6.22487215,27.8053702 C2.78697019,29.3345393 0,33.3634979 0,36.804301 L0,95.8016988 C0,99.242502 2.78697019,100.792188 6.22487215,99.2630184 L25.2774244,90.7884968 L35.7458567,101.04671 L46.149498,81.5046573 Z" id="path-6"></path>
        <filter x="-54.6%" y="-26.0%" width="172.8%" height="152.0%" filterUnits="objectBoundingBox" id="filter-7">
            <feOffset dx="-13" dy="0" in="SourceAlpha" result="shadowOffsetOuter1"></feOffset>
            <feGaussianBlur stdDeviation="6.5" in="shadowOffsetOuter1" result="shadowBlurOuter1"></feGaussianBlur>
            <feComposite in="shadowBlurOuter1" in2="SourceAlpha" operator="out" result="shadowBlurOuter1"></feComposite>
            <feColorMatrix values="0 0 0 0 1   0 0 0 0 0.416074811   0 0 0 0 0.416074811  0 0 0 0.2 0" type="matrix" in="shadowBlurOuter1"></feColorMatrix>
        </filter>
        <path d="M46.149498,81.5046573 L65.1725251,73.0432683 C68.6104271,71.5140992 71.3973972,67.4851406 71.3973972,64.0443375 L71.3973972,5.0469397 C71.3973972,1.60613656 68.6104271,0.0564509918 65.1725251,1.58562011 L6.22487215,27.8053702 C2.78697019,29.3345393 0,33.3634979 0,36.804301 L0,95.8016988 C0,99.242502 2.78697019,100.792188 6.22487215,99.2630184 L25.2774244,90.7884968 L35.7458567,101.04671 L46.149498,81.5046573 Z" id="path-8"></path>
        <filter x="-54.6%" y="-26.0%" width="172.8%" height="152.0%" filterUnits="objectBoundingBox" id="filter-9">
            <feOffset dx="-13" dy="0" in="SourceAlpha" result="shadowOffsetOuter1"></feOffset>
            <feGaussianBlur stdDeviation="6.5" in="shadowOffsetOuter1" result="shadowBlurOuter1"></feGaussianBlur>
            <feComposite in="shadowBlurOuter1" in2="SourceAlpha" operator="out" result="shadowBlurOuter1"></feComposite>
            <feColorMatrix values="0 0 0 0 1   0 0 0 0 0.416074811   0 0 0 0 0.416074811  0 0 0 0.2 0" type="matrix" in="shadowBlurOuter1"></feColorMatrix>
        </filter>
    </defs>
    <g id="Page-1" stroke="none" stroke-width="1" fill="none" fill-rule="evenodd">
        <g id="003-Call-Routing-and-Managements-@2560" transform="translate(-1286.000000, -3314.000000)">
            <g id="What-Does" transform="translate(710.000000, 3298.000000)">
                <g id="il_what_does" transform="translate(576.000000, 17.000000)">
                    <path d="M299.106493,283.956129 L247,264" id="Path-37" stroke="#CC1B26" stroke-width="3"></path>
                    <g id="Group-42">
                        <path d="M288.498147,170.071525 C291.21302,168.753502 294.351373,168.620907 297.159689,169.705574 C383.329549,178.405043 426.414479,182.754777 426.414479,182.754777 C426.414479,182.754777 426.613104,194.246442 426.637761,195.520666 C426.645747,195.93338 426.574412,196.35477 426.414479,196.763747 C426.112887,197.534977 425.527995,198.163307 424.779238,198.520432 L138.742292,335.188887 C136.095841,336.451132 133.05387,336.593127 130.30891,335.582544 L2.82576059,288.648428 C1.56931266,288.185855 0.77366999,287.029178 0.711703994,285.772979 C0.697667444,285.488424 0.697667444,291.813199 0.711703994,273.461602 L288.498147,170.071525 Z" id="Rectangle-5-Copy" fill="#F4A9A8"></path>
                        <path d="M138.742292,335.188887 L424.779238,198.520432 C425.527995,198.163307 426.112887,197.534977 426.414479,196.763747 C426.574412,196.35477 426.645747,195.93338 426.637761,195.520666 C426.613104,194.246442 426.414479,182.754777 426.414479,182.754777 L297.159689,169.705574 C294.351373,168.620907 291.21302,168.753502 288.498147,170.071525 L134.46351,226.209846 L134.46351,336.242197 C135.931466,336.187076 137.388621,335.834531 138.742292,335.188887 Z" id="Combined-Shape" fill="#FED0CF"></path>
                        <path d="M2.54654152,270.147204 L288.498147,131.183864 C291.21302,129.865841 294.351373,129.733246 297.159689,130.817913 L424.568467,180.02752 C426.241703,180.673781 427.068191,182.552831 426.414479,184.224495 C426.112887,184.995725 425.527995,185.624055 424.779238,185.98118 L138.742292,322.649635 C136.095841,323.911881 133.05387,324.053875 130.30891,323.043293 L2.82576059,276.109176 C1.14239639,275.48943 0.286182821,273.62376 0.91335406,271.942085 C1.20618106,271.156909 1.79130022,270.51386 2.54654152,270.147204 Z" id="Rectangle-5" fill="url(#linearGradient-1)"></path>
                        <path d="M40.6039042,270.840549 C52.5205219,208.263895 74.2711608,176.846085 105.855821,176.587117 C153.232811,176.198666 138.493303,94.4567576 185.870293,101.438061 C233.247284,108.419363 232.731637,85.2547178 237.458572,61.6863295 C243.775504,30.1902521 264.103759,11.9004182 298.443337,6.81682795 L298.443337,149.111264 L40.6039042,270.840549 Z" id="Path-5-Copy-2" fill="url(#linearGradient-2)"></path>
                        <path d="M298.318896,6.34331825 C263.928914,11.5430342 243.575457,29.8909309 237.258525,61.3870083 C232.53159,84.9553966 233.047237,108.120042 185.670247,101.138739 C138.293257,94.1574364 153.032765,175.899345 105.655775,176.287796 C74.0711145,176.546763 51.3343357,208.744984 37.4454382,272.882458 L126.472458,304.616619 C138.389076,242.039966 160.139715,210.622155 191.724375,210.363188 C239.101366,209.974737 224.361857,128.232828 271.738848,135.214131 C319.115838,142.195434 318.600191,119.030788 323.327126,95.4624 C329.644058,63.9663226 349.972313,45.6764888 384.311891,40.5928985 L298.318896,6.34331825 Z" id="Combined-Shape" fill="url(#linearGradient-3)"></path>
                        <path d="M126.472458,304.616619 C138.389076,242.039966 160.139715,210.622155 191.724375,210.363188 C239.101366,209.974737 224.361857,128.232828 271.738848,135.214131 C319.115838,142.195434 318.600191,119.030788 323.327126,95.4624 C329.644058,63.9663226 349.972313,45.6764888 384.311891,40.5928985 L384.311891,182.887334 L126.472458,304.616619 Z" id="Path-5-Copy" fill="url(#linearGradient-4)"></path>
                        <path d="M163.298918,221.384197 L163.298918,287.987775" id="Path-44-Copy" stroke="#F5F7FA" stroke-linecap="round" stroke-linejoin="round" stroke-dasharray="3,5"></path>
                        <path d="M248.580795,142.207813 L248.580795,246.437192" id="Path-44" stroke="#F5F7FA" stroke-linecap="round" stroke-linejoin="round" stroke-dasharray="3,5"></path>
                        <path d="M332.806556,71.3865813 L332.806556,208.780861" id="Path-44-Copy-2" stroke="#F5F7FA" stroke-linecap="round" stroke-linejoin="round" stroke-dasharray="3,5"></path>
                        <path d="M118.122996,297.970204 C130.039614,235.393551 151.790253,203.97574 183.374913,203.716773 C230.751903,203.328322 216.012395,121.586413 263.389386,128.567716 C310.766376,135.549019 310.250729,112.384373 314.977664,88.8159849 C321.294596,57.3199076 341.622851,39.0300737 375.962429,33.9464834" id="Path-5-Copy" stroke="#FFC700" stroke-width="2" opacity="0.900000036" stroke-linecap="round" stroke-linejoin="round"></path>
                        <path d="M37.0601446,264.112991 C48.9767623,201.536338 70.7274012,170.118528 102.312061,169.85956 C149.689052,169.471109 134.949544,87.7292005 182.326534,94.7105034 C229.703524,101.691806 229.187877,78.5271607 233.914812,54.9587723 C240.231744,23.4626949 260.559999,5.17286109 294.899577,0.0892708069" id="Path-5-Copy" stroke="#FFC700" stroke-width="2" opacity="0.900000036" stroke-linecap="round" stroke-linejoin="round"></path>
                    </g>
                    <path d="M464.5,335.5 C431.466674,335.5 404.5,318.444155 404.5,297 C404.5,275.555845 431.466674,258.5 464.5,258.5 C497.533326,258.5 524.5,275.555845 524.5,297 C524.5,318.444155 497.533326,335.5 464.5,335.5 Z M464.5,332.5 C496.08399,332.5 521.5,316.424917 521.5,297 C521.5,277.575083 496.08399,261.5 464.5,261.5 C432.91601,261.5 407.5,277.575083 407.5,297 C407.5,316.424917 432.91601,332.5 464.5,332.5 Z" id="Oval-18" fill-opacity="0.75" fill="#F9EBEB" fill-rule="nonzero"></path>
                    <path d="M464.5,346.5 C422.077336,346.5 387.5,324.517058 387.5,297 C387.5,269.482942 422.077336,247.5 464.5,247.5 C506.922664,247.5 541.5,269.482942 541.5,297 C541.5,324.517058 506.922664,346.5 464.5,346.5 Z M464.5,343.5 C505.472333,343.5 538.5,322.502278 538.5,297 C538.5,271.497722 505.472333,250.5 464.5,250.5 C423.527667,250.5 390.5,271.497722 390.5,297 C390.5,322.502278 423.527667,343.5 464.5,343.5 Z" id="Oval-18" fill-opacity="0.75" fill="#F9EBEB" fill-rule="nonzero"></path>
                    <g id="Group-86" transform="translate(212.000000, 245.000000)">
                        <polyline id="Path-27" stroke="#CC1B26" stroke-width="3" stroke-linecap="round" stroke-linejoin="round" points="198.893561 18.8553442 160.53344 4.43180776 0.409679721 80.508029 59.2843772 102.068468"></polyline>
                        <g id="Group-63" transform="translate(1.000000, 72.000000)">
                            <g id="Group" transform="translate(0.000000, 0.877371)">
                                <g id="Group-684">
                                    <path d="M66.2376917,7.96908025 L2.59063283,31.6371857 C-1.2012705,33.3670711 0.0950947542,43.6317108 3.88000582,45.3748815 L132.384484,104.56787 C136.796601,106.60052 141.879975,106.60961 146.299084,104.593741 L205.635414,77.4148214 C209.565065,75.6206071 211.194261,66.6432428 207.264611,64.835044 L74.8661421,7.98516245 C72.1251757,6.72515696 68.9786581,6.71886392 66.2376917,7.96908025" id="Fill-681" fill="#F9EBEB"></path>
                                    <path d="M139.055101,103.021881 C138.726465,100.386498 142.250565,99.9620673 144.327266,98.7384216 L2.59063283,31.6371857 C2.23472672,31.7994061 1.92427032,32.0364438 1.65576748,32.3350133 C1.47746482,32.5335936 1.31734204,32.7594436 1.17609836,33.0083681 C1.03415545,33.2565934 0.911091652,33.5285923 0.805508506,33.8187712 C0.75236732,33.9642102 0.704120717,34.1145438 0.66006947,34.2683736 C0.439813238,35.0389208 0.327237831,35.9136527 0.313952534,36.8275412 C0.308358725,37.1932365 0.318847117,37.5652248 0.344019258,37.9393108 C0.369890625,38.3133968 0.410445741,38.6888812 0.465684605,39.0629672 C0.657971792,40.3719185 1.02856164,41.6563969 1.54878589,42.7360021 C1.69702183,43.04506 1.85784384,43.3366373 2.03055269,43.6086363 C2.20326155,43.8792368 2.38715802,44.1295598 2.58224211,44.3554098 C2.77802543,44.5805606 2.98359791,44.7812385 3.20035801,44.9525489 C3.41711812,45.1238593 3.64366738,45.2665015 3.88000582,45.3748815 L132.384484,104.56787 C135.922568,106.197766 139.894173,106.522906 143.607063,105.549583 C141.404501,105.578252 139.327799,105.202767 139.055101,103.021881" id="Fill-682" fill="#F9EBEB"></path>
                                    <path d="M66.2376917,1.37537781 L3.89678724,29.9247808 C0.10488392,31.6546663 0.0950947542,37.0373091 3.88000582,38.7811791 L132.384484,97.9734682 C136.796601,100.006119 141.879975,100.015908 146.299084,97.9993396 L205.635414,70.8204197 C209.565065,69.0262055 209.579049,63.4421856 205.649398,61.6332876 L74.8661421,1.39146001 C72.1251757,0.130755287 68.9786581,0.125161478 66.2376917,1.37537781" id="Fill-683" fill="#FFFFFE"></path>
                                    <ellipse id="Oval-11" fill="#F9EBEB" cx="170.045279" cy="79.7946783" rx="5.99335772" ry="2.98489539"></ellipse>
                                </g>
                                <path d="M79.543965,7.92432977 L14.3760893,37.7659027 C13.8209038,38.0190226 13.8188061,38.8070504 14.3732924,39.062268 L129.000229,91.7244842 C129.587579,91.9929871 130.258836,91.9943855 130.839194,91.7279804 L195.566557,62.089183 C196.209845,61.7976057 196.209845,60.8900102 195.57355,60.5963352 L80.9284327,7.92712668 C80.4879203,7.72505033 79.9844774,7.7243511 79.543965,7.92432977" id="Fill-687" fill="url(#linearGradient-5)"></path>
                                <path d="M49.2954424,15.6004343 L35.9122542,21.7291513 C35.6255715,21.8578089 35.5067031,22.1899414 35.6325638,22.4717295 C35.7654167,22.7528184 36.094053,22.8765814 36.3737435,22.7479238 L49.7569317,16.6192067 C50.0436144,16.4905491 50.1624828,16.1584167 50.0366221,15.8766286 C49.9037692,15.5955397 49.5751329,15.4717767 49.2954424,15.6004343" id="Fill-689" fill="#C39191"></path>
                                <path d="M33.1013652,24.0072301 C33.0104658,23.8219352 32.8356592,23.6625116 32.6049146,23.5471393 C32.3531932,23.4212786 32.0245569,23.3464614 31.6679516,23.3464614 C31.1141645,23.3464614 30.6400892,23.5261625 30.3841724,23.7988607 C30.2548156,23.9366082 30.1799984,24.0974302 30.1799984,24.2715376 C30.1799984,24.3358664 30.1897876,24.3994959 30.2093659,24.4603286 C30.3464142,24.8854581 30.9386587,25.1966137 31.6679516,25.1966137 C32.507023,25.1966137 33.1573033,24.7903633 33.1573033,24.2715376 C33.1573033,24.1792397 33.1363265,24.090438 33.1013652,24.0072301" id="Fill-696" fill="#C39191"></path>
                                <path d="M41.0096127,16.8352676 C40.9536747,16.7143015 40.8417985,16.6094176 40.6879687,16.5332019 C40.5201545,16.4506933 40.3033944,16.4017474 40.0726497,16.4017474 C39.7090521,16.4017474 39.3944004,16.5199166 39.2265861,16.6989185 C39.142679,16.7891187 39.0937331,16.8947018 39.0937331,17.0086757 L39.1147099,17.133138 C39.2056093,17.4121292 39.5901837,17.6163032 40.0726497,17.6163032 C40.6180461,17.6163032 41.0515663,17.3491988 41.0515663,17.0086757 L41.0096127,16.8352676" id="Fill-697" fill="#C39191"></path>
                                <path d="M170.981767,89.8225892 L170.981767,91.5035288 C170.981767,91.7727308 171.254465,91.9517327 171.506186,91.8398565 L179.610217,88.0850122 C179.736078,88.0248788 179.819985,87.8934242 179.819985,87.7486844 L179.819985,86.1041046 C179.819985,85.8370002 179.547287,85.6579983 179.302557,85.7656791 L171.310403,89.3114548 C171.107627,89.4002566 170.981767,89.6009345 170.981767,89.8225892" id="Fill-698" fill="#C39191"></path>
                                <path d="M193.643686,80.4326814 C193.643686,81.1081338 193.259111,81.7996685 192.783637,81.9765727 C192.308164,82.1541761 191.923589,81.7507227 191.923589,81.0752702 C191.923589,80.3998178 192.308164,79.7089824 192.783637,79.5313789 C193.259111,79.3544747 193.643686,79.7579282 193.643686,80.4326814" id="Fill-702" fill="#C39191"></path>
                                <path d="M196.944033,78.950322 C196.944033,79.6257744 196.552466,80.3166099 196.076992,80.4942133 C195.601519,80.6711175 195.216944,80.267664 195.216944,79.5929108 C195.216944,78.9174584 195.601519,78.2259237 196.076992,78.0490195 C196.552466,77.8714161 196.944033,78.2748696 196.944033,78.950322" id="Fill-703" fill="#C39191"></path>
                                <path d="M200.237388,77.4679626 C200.237388,78.1427158 199.852814,78.8342505 199.37734,79.0111547 C198.894874,79.1887581 198.510299,78.7853046 198.510299,78.1098522 C198.510299,77.4343997 198.894874,76.7435643 199.37734,76.5659609 C199.852814,76.3890567 200.237388,76.7925101 200.237388,77.4679626" id="Fill-704" fill="#C39191"></path>
                                <path d="M203.530743,75.984904 C203.530743,76.6603564 203.146169,77.3511918 202.670695,77.5287953 C202.195221,77.7063987 201.810647,77.302246 201.810647,76.6274928 C201.810647,75.9520403 202.195221,75.2605057 202.670695,75.0836015 C203.146169,74.905998 203.530743,75.3094515 203.530743,75.984904" id="Fill-705" fill="#C39191"></path>
                                <path d="M139.369753,106.099175 C136.985392,106.099175 134.601031,105.588041 132.384484,104.56787 L3.88000582,45.3748815 C3.87371278,45.3720846 3.86672052,45.3685885 3.85972826,45.3657916 C3.86672052,45.3685885 3.87371278,45.3720846 3.88000582,45.3748815 L132.384484,104.56787 C132.405461,104.575561 132.419445,104.583952 132.440422,104.591644 C134.642984,105.596432 137.006369,106.098476 139.369753,106.099175 M3.85203677,45.3615962 C3.84784141,45.3601978 3.84364606,45.3581001 3.8394507,45.3560024 C3.84364606,45.3581001 3.84784141,45.3601978 3.85203677,45.3615962 M3.83036076,45.351807 C3.8261654,45.3497094 3.82266927,45.3476117 3.81917314,45.3462132 C3.82266927,45.3476117 3.8261654,45.3497094 3.83036076,45.351807 M3.80938398,45.3413186 C3.80588785,45.339221 3.80169249,45.3378225 3.79819636,45.3357248 C3.80239172,45.3378225 3.80588785,45.339221 3.80938398,45.3413186 M3.78840719,45.3308303 C3.78491106,45.3294318 3.78141493,45.3273341 3.7779188,45.3259357 C3.78141493,45.3273341 3.78491106,45.3294318 3.78840719,45.3308303 M3.76812964,45.3210411 C3.76393428,45.3182442 3.75973892,45.3161465 3.75554356,45.3140488 C3.75973892,45.3161465 3.76393428,45.3182442 3.76812964,45.3210411 M3.74016059,45.3056581 C3.73596523,45.3042597 3.7324691,45.302162 3.72897297,45.3000643 C3.7324691,45.302162 3.73596523,45.3042597 3.74016059,45.3056581 M3.71848458,45.2944705 C3.71498845,45.293072 3.71219154,45.2909744 3.70869541,45.2895759 C3.71219154,45.2909744 3.71498845,45.293072 3.71848458,45.2944705 M3.69820702,45.2839821 C3.69471089,45.2818844 3.69191399,45.280486 3.68841786,45.2783883 C3.69191399,45.280486 3.69471089,45.2818844 3.69820702,45.2839821 M3.67792946,45.2727945 C3.67513256,45.2706968 3.67163643,45.2692984 3.6681403,45.2672007 C3.67163643,45.2692984 3.67443333,45.2706968 3.67792946,45.2727945 M3.65765191,45.2616069 C3.654855,45.2595092 3.65135887,45.2574115 3.64786274,45.2560131 C3.65135887,45.2574115 3.654855,45.2595092 3.65765191,45.2616069 M3.63807357,45.2504193 C3.63457744,45.2483216 3.63178054,45.2469231 3.62898363,45.2448254 C3.63178054,45.2469231 3.63457744,45.2483216 3.63807357,45.2504193 M3.60800685,45.2329386 C3.60520995,45.2308409 3.60241304,45.2294425 3.59961614,45.228044 C3.60241304,45.2294425 3.60520995,45.2308409 3.60800685,45.2329386 M3.58772929,45.2210518 C3.58563161,45.2189541 3.58283471,45.2175556 3.58003781,45.2161572 C3.58283471,45.2175556 3.58493239,45.2189541 3.58772929,45.2210518 M3.56745173,45.2084657 C3.56535406,45.2070672 3.56325638,45.206368 3.5611587,45.2049696 C3.56325638,45.2056688 3.56535406,45.2077665 3.56745173,45.2084657 M3.5478734,45.1965788 C3.54647495,45.1951804 3.54437727,45.1944812 3.54297882,45.1937819 C3.54437727,45.1944812 3.54647495,45.1958796 3.5478734,45.1965788" id="Fill-706" fill="#746C68"></path>
                                <path d="M139.362761,106.096378 C136.999376,106.096378 134.635992,105.595033 132.440422,104.591644 C132.419445,104.583952 132.405461,104.575561 132.384484,104.56787 L3.88000582,45.3748815 C3.87371278,45.3720846 3.86672052,45.3685885 3.85972826,45.3657916 C3.85693135,45.3643931 3.85413445,45.3629947 3.85203677,45.3615962 C3.84784141,45.3601978 3.84364606,45.3581001 3.8394507,45.3560024 C3.83595457,45.3546039 3.83315767,45.3532055 3.83036076,45.351807 C3.8261654,45.3497094 3.82266927,45.3476117 3.81917314,45.3462132 C3.81567701,45.3448148 3.81218088,45.3427171 3.80938398,45.3413186 C3.80588785,45.339221 3.80239172,45.3378225 3.79819636,45.3357248 C3.79470023,45.3343264 3.79190332,45.3329279 3.78840719,45.3308303 C3.78491106,45.3294318 3.78141493,45.3273341 3.7779188,45.3259357 C3.77442267,45.323838 3.77162577,45.3224395 3.76812964,45.3210411 C3.76393428,45.3182442 3.75973892,45.3161465 3.75554356,45.3140488 C3.75064898,45.3112519 3.74505517,45.308455 3.74016059,45.3056581 C3.73596523,45.3042597 3.7324691,45.302162 3.72897297,45.3000643 C3.72547684,45.2986659 3.72198071,45.2965682 3.71848458,45.2944705 C3.71498845,45.293072 3.71219154,45.2909744 3.70869541,45.2895759 C3.70519928,45.2874782 3.70170315,45.2853806 3.69820702,45.2839821 C3.69471089,45.2818844 3.69191399,45.280486 3.68841786,45.2783883 C3.68492173,45.2762906 3.68142559,45.2748922 3.67792946,45.2727945 C3.67443333,45.2706968 3.67163643,45.2692984 3.6681403,45.2672007 C3.66464417,45.265103 3.66114804,45.2637045 3.65765191,45.2616069 C3.654855,45.2595092 3.65135887,45.2574115 3.64786274,45.2560131 C3.64436661,45.2539154 3.6415697,45.2518177 3.63807357,45.2504193 C3.63457744,45.2483216 3.63178054,45.2469231 3.62898363,45.2448254 C3.62199137,45.2406301 3.61499911,45.2364347 3.60800685,45.2329386 C3.60520995,45.2308409 3.60241304,45.2294425 3.59961614,45.228044 C3.59542078,45.2252471 3.59192465,45.2231494 3.58772929,45.2210518 C3.58563161,45.2196533 3.58283471,45.2175556 3.58003781,45.2161572 C3.57584245,45.2140595 3.57164709,45.2112626 3.56815096,45.2084657 C3.56535406,45.2077665 3.56325638,45.206368 3.5611587,45.2049696 C3.55696334,45.2021726 3.55206876,45.1993757 3.5478734,45.1965788 C3.54577572,45.1951804 3.54437727,45.1944812 3.54297882,45.1937819 C3.53808424,45.1902858 3.53249043,45.1874889 3.52759585,45.1839928 C3.52759585,45.1839928 3.52759585,45.1839928 3.52689662,45.1839928 C2.09278382,44.2861864 1.06352295,42.1381637 0.595740666,39.7992523 C1.20336818,41.1291804 2.02845501,42.182215 3.02764916,42.643005 L11.536532,46.5621675 L11.536532,47.0733018 C11.536532,47.497732 11.7833588,47.8837049 12.1693316,48.0613083 L15.7269942,49.7009936 C15.7829323,49.7261657 15.8395696,49.7380526 15.8955077,49.7380526 C16.106674,49.7380526 16.2968635,49.5674414 16.2968635,49.3359976 L16.2968635,48.7549406 L26.6433126,53.5201667 L26.6433126,54.157861 C26.6433126,54.596975 26.8985301,54.9962331 27.2977883,55.1801296 L37.2267994,59.7523693 C37.3386755,59.8048112 37.457544,59.8292841 37.5694202,59.8292841 C38.0029404,59.8292841 38.4014993,59.4782726 38.4014993,59.0000019 L38.4014993,58.9349739 L39.9887426,59.6670637 L39.9887426,60.3718836 C39.9887426,60.8116969 40.240464,61.2102558 40.6390229,61.3941522 L50.568034,65.9663919 C50.6799102,66.0188339 50.7987786,66.0433068 50.9176471,66.0433068 C51.3511673,66.0433068 51.7427339,65.6922953 51.7427339,65.2147238 L51.7427339,65.0818709 L132.482376,102.270213 C134.629,103.262415 136.943438,103.775647 139.257877,103.810608 C139.866204,105.239826 141.565323,105.550982 143.383311,105.550982 C143.460226,105.550982 143.530148,105.550982 143.607063,105.549583 C142.215603,105.91388 140.789182,106.096378 139.362761,106.096378" id="Fill-708" fill="#F4D5D5"></path>
                                <path d="M26.6433126,52.6153681 L26.6433126,54.157861 C26.6433126,54.596975 26.8985301,54.9962331 27.2977883,55.1801296 L37.2267994,59.7523693 C37.7721957,60.0047899 38.4014993,59.6041333 38.4014993,59.0000019 L38.4014993,57.2673196 C38.4014993,56.9442771 38.2127082,56.6506021 37.9190332,56.5149523 L27.8180125,51.8630008 C27.26912,51.6105802 26.6433126,52.0112367 26.6433126,52.6153681" id="Fill-717" fill="#C39191"></path>
                                <path d="M39.9887426,58.8293908 L39.9887426,60.3718836 C39.9887426,60.8116969 40.240464,61.2102558 40.6390229,61.3941522 L50.568034,65.9663919 C51.1134304,66.2195118 51.7427339,65.818156 51.7427339,65.2147238 L51.7427339,63.4813422 C51.7427339,63.1582998 51.5539428,62.8646248 51.2602679,62.7289749 L41.1634425,58.0777227 C40.6110539,57.8246028 39.9887426,58.2252594 39.9887426,58.8293908" id="Fill-720" fill="#C39191"></path>
                                <path d="M11.536532,45.5559811 L11.536532,47.0733018 C11.536532,47.497732 11.7833588,47.8837049 12.1693316,48.0613083 L15.7269942,49.7009936 C15.9933994,49.8233582 16.2968635,49.6289733 16.2968635,49.3359976 L16.2968635,47.3788636 C16.2968635,47.2215377 16.2059641,47.0795948 16.063322,47.0138676 L12.1057021,45.190985 C11.8399961,45.0679212 11.536532,45.2630053 11.536532,45.5559811" id="Fill-723" fill="#C39191"></path>
                            </g>
                        </g>
                        <g id="Group-63-Copy-2" transform="translate(155.000000, 0.000000)">
                            <g id="Group" transform="translate(0.000000, 0.877371)">
                                <g id="Group-684">
                                    <path d="M66.2376917,7.96908025 L2.59063283,31.6371857 C-1.2012705,33.3670711 0.0950947542,43.6317108 3.88000582,45.3748815 L132.384484,104.56787 C136.796601,106.60052 141.879975,106.60961 146.299084,104.593741 L205.635414,77.4148214 C209.565065,75.6206071 211.194261,66.6432428 207.264611,64.835044 L74.8661421,7.98516245 C72.1251757,6.72515696 68.9786581,6.71886392 66.2376917,7.96908025" id="Fill-681" fill="#F9EBEB"></path>
                                    <path d="M139.055101,103.021881 C138.726465,100.386498 142.250565,99.9620673 144.327266,98.7384216 L2.59063283,31.6371857 C2.23472672,31.7994061 1.92427032,32.0364438 1.65576748,32.3350133 C1.47746482,32.5335936 1.31734204,32.7594436 1.17609836,33.0083681 C1.03415545,33.2565934 0.911091652,33.5285923 0.805508506,33.8187712 C0.75236732,33.9642102 0.704120717,34.1145438 0.66006947,34.2683736 C0.439813238,35.0389208 0.327237831,35.9136527 0.313952534,36.8275412 C0.308358725,37.1932365 0.318847117,37.5652248 0.344019258,37.9393108 C0.369890625,38.3133968 0.410445741,38.6888812 0.465684605,39.0629672 C0.657971792,40.3719185 1.02856164,41.6563969 1.54878589,42.7360021 C1.69702183,43.04506 1.85784384,43.3366373 2.03055269,43.6086363 C2.20326155,43.8792368 2.38715802,44.1295598 2.58224211,44.3554098 C2.77802543,44.5805606 2.98359791,44.7812385 3.20035801,44.9525489 C3.41711812,45.1238593 3.64366738,45.2665015 3.88000582,45.3748815 L132.384484,104.56787 C135.922568,106.197766 139.894173,106.522906 143.607063,105.549583 C141.404501,105.578252 139.327799,105.202767 139.055101,103.021881" id="Fill-682" fill="#F9EBEB"></path>
                                    <path d="M66.2376917,1.37537781 L3.89678724,29.9247808 C0.10488392,31.6546663 0.0950947542,37.0373091 3.88000582,38.7811791 L132.384484,97.9734682 C136.796601,100.006119 141.879975,100.015908 146.299084,97.9993396 L205.635414,70.8204197 C209.565065,69.0262055 209.579049,63.4421856 205.649398,61.6332876 L74.8661421,1.39146001 C72.1251757,0.130755287 68.9786581,0.125161478 66.2376917,1.37537781" id="Fill-683" fill="#FFFFFE"></path>
                                    <ellipse id="Oval-11" fill="#F9EBEB" cx="170.045279" cy="79.7946783" rx="5.99335772" ry="2.98489539"></ellipse>
                                </g>
                                <path d="M79.543965,7.92432977 L14.3760893,37.7659027 C13.8209038,38.0190226 13.8188061,38.8070504 14.3732924,39.062268 L129.000229,91.7244842 C129.587579,91.9929871 130.258836,91.9943855 130.839194,91.7279804 L195.566557,62.089183 C196.209845,61.7976057 196.209845,60.8900102 195.57355,60.5963352 L80.9284327,7.92712668 C80.4879203,7.72505033 79.9844774,7.7243511 79.543965,7.92432977" id="Fill-687" fill="url(#linearGradient-4)"></path>
                                <path d="M49.2954424,15.6004343 L35.9122542,21.7291513 C35.6255715,21.8578089 35.5067031,22.1899414 35.6325638,22.4717295 C35.7654167,22.7528184 36.094053,22.8765814 36.3737435,22.7479238 L49.7569317,16.6192067 C50.0436144,16.4905491 50.1624828,16.1584167 50.0366221,15.8766286 C49.9037692,15.5955397 49.5751329,15.4717767 49.2954424,15.6004343" id="Fill-689" fill="#C39191"></path>
                                <path d="M33.1013652,24.0072301 C33.0104658,23.8219352 32.8356592,23.6625116 32.6049146,23.5471393 C32.3531932,23.4212786 32.0245569,23.3464614 31.6679516,23.3464614 C31.1141645,23.3464614 30.6400892,23.5261625 30.3841724,23.7988607 C30.2548156,23.9366082 30.1799984,24.0974302 30.1799984,24.2715376 C30.1799984,24.3358664 30.1897876,24.3994959 30.2093659,24.4603286 C30.3464142,24.8854581 30.9386587,25.1966137 31.6679516,25.1966137 C32.507023,25.1966137 33.1573033,24.7903633 33.1573033,24.2715376 C33.1573033,24.1792397 33.1363265,24.090438 33.1013652,24.0072301" id="Fill-696" fill="#C39191"></path>
                                <path d="M41.0096127,16.8352676 C40.9536747,16.7143015 40.8417985,16.6094176 40.6879687,16.5332019 C40.5201545,16.4506933 40.3033944,16.4017474 40.0726497,16.4017474 C39.7090521,16.4017474 39.3944004,16.5199166 39.2265861,16.6989185 C39.142679,16.7891187 39.0937331,16.8947018 39.0937331,17.0086757 L39.1147099,17.133138 C39.2056093,17.4121292 39.5901837,17.6163032 40.0726497,17.6163032 C40.6180461,17.6163032 41.0515663,17.3491988 41.0515663,17.0086757 L41.0096127,16.8352676" id="Fill-697" fill="#C39191"></path>
                                <path d="M170.981767,89.8225892 L170.981767,91.5035288 C170.981767,91.7727308 171.254465,91.9517327 171.506186,91.8398565 L179.610217,88.0850122 C179.736078,88.0248788 179.819985,87.8934242 179.819985,87.7486844 L179.819985,86.1041046 C179.819985,85.8370002 179.547287,85.6579983 179.302557,85.7656791 L171.310403,89.3114548 C171.107627,89.4002566 170.981767,89.6009345 170.981767,89.8225892" id="Fill-698" fill="#C39191"></path>
                                <path d="M193.643686,80.4326814 C193.643686,81.1081338 193.259111,81.7996685 192.783637,81.9765727 C192.308164,82.1541761 191.923589,81.7507227 191.923589,81.0752702 C191.923589,80.3998178 192.308164,79.7089824 192.783637,79.5313789 C193.259111,79.3544747 193.643686,79.7579282 193.643686,80.4326814" id="Fill-702" fill="#C39191"></path>
                                <path d="M196.944033,78.950322 C196.944033,79.6257744 196.552466,80.3166099 196.076992,80.4942133 C195.601519,80.6711175 195.216944,80.267664 195.216944,79.5929108 C195.216944,78.9174584 195.601519,78.2259237 196.076992,78.0490195 C196.552466,77.8714161 196.944033,78.2748696 196.944033,78.950322" id="Fill-703" fill="#C39191"></path>
                                <path d="M200.237388,77.4679626 C200.237388,78.1427158 199.852814,78.8342505 199.37734,79.0111547 C198.894874,79.1887581 198.510299,78.7853046 198.510299,78.1098522 C198.510299,77.4343997 198.894874,76.7435643 199.37734,76.5659609 C199.852814,76.3890567 200.237388,76.7925101 200.237388,77.4679626" id="Fill-704" fill="#C39191"></path>
                                <path d="M203.530743,75.984904 C203.530743,76.6603564 203.146169,77.3511918 202.670695,77.5287953 C202.195221,77.7063987 201.810647,77.302246 201.810647,76.6274928 C201.810647,75.9520403 202.195221,75.2605057 202.670695,75.0836015 C203.146169,74.905998 203.530743,75.3094515 203.530743,75.984904" id="Fill-705" fill="#C39191"></path>
                                <path d="M139.369753,106.099175 C136.985392,106.099175 134.601031,105.588041 132.384484,104.56787 L3.88000582,45.3748815 C3.87371278,45.3720846 3.86672052,45.3685885 3.85972826,45.3657916 C3.86672052,45.3685885 3.87371278,45.3720846 3.88000582,45.3748815 L132.384484,104.56787 C132.405461,104.575561 132.419445,104.583952 132.440422,104.591644 C134.642984,105.596432 137.006369,106.098476 139.369753,106.099175 M3.85203677,45.3615962 C3.84784141,45.3601978 3.84364606,45.3581001 3.8394507,45.3560024 C3.84364606,45.3581001 3.84784141,45.3601978 3.85203677,45.3615962 M3.83036076,45.351807 C3.8261654,45.3497094 3.82266927,45.3476117 3.81917314,45.3462132 C3.82266927,45.3476117 3.8261654,45.3497094 3.83036076,45.351807 M3.80938398,45.3413186 C3.80588785,45.339221 3.80169249,45.3378225 3.79819636,45.3357248 C3.80239172,45.3378225 3.80588785,45.339221 3.80938398,45.3413186 M3.78840719,45.3308303 C3.78491106,45.3294318 3.78141493,45.3273341 3.7779188,45.3259357 C3.78141493,45.3273341 3.78491106,45.3294318 3.78840719,45.3308303 M3.76812964,45.3210411 C3.76393428,45.3182442 3.75973892,45.3161465 3.75554356,45.3140488 C3.75973892,45.3161465 3.76393428,45.3182442 3.76812964,45.3210411 M3.74016059,45.3056581 C3.73596523,45.3042597 3.7324691,45.302162 3.72897297,45.3000643 C3.7324691,45.302162 3.73596523,45.3042597 3.74016059,45.3056581 M3.71848458,45.2944705 C3.71498845,45.293072 3.71219154,45.2909744 3.70869541,45.2895759 C3.71219154,45.2909744 3.71498845,45.293072 3.71848458,45.2944705 M3.69820702,45.2839821 C3.69471089,45.2818844 3.69191399,45.280486 3.68841786,45.2783883 C3.69191399,45.280486 3.69471089,45.2818844 3.69820702,45.2839821 M3.67792946,45.2727945 C3.67513256,45.2706968 3.67163643,45.2692984 3.6681403,45.2672007 C3.67163643,45.2692984 3.67443333,45.2706968 3.67792946,45.2727945 M3.65765191,45.2616069 C3.654855,45.2595092 3.65135887,45.2574115 3.64786274,45.2560131 C3.65135887,45.2574115 3.654855,45.2595092 3.65765191,45.2616069 M3.63807357,45.2504193 C3.63457744,45.2483216 3.63178054,45.2469231 3.62898363,45.2448254 C3.63178054,45.2469231 3.63457744,45.2483216 3.63807357,45.2504193 M3.60800685,45.2329386 C3.60520995,45.2308409 3.60241304,45.2294425 3.59961614,45.228044 C3.60241304,45.2294425 3.60520995,45.2308409 3.60800685,45.2329386 M3.58772929,45.2210518 C3.58563161,45.2189541 3.58283471,45.2175556 3.58003781,45.2161572 C3.58283471,45.2175556 3.58493239,45.2189541 3.58772929,45.2210518 M3.56745173,45.2084657 C3.56535406,45.2070672 3.56325638,45.206368 3.5611587,45.2049696 C3.56325638,45.2056688 3.56535406,45.2077665 3.56745173,45.2084657 M3.5478734,45.1965788 C3.54647495,45.1951804 3.54437727,45.1944812 3.54297882,45.1937819 C3.54437727,45.1944812 3.54647495,45.1958796 3.5478734,45.1965788" id="Fill-706" fill="#746C68"></path>
                                <path d="M139.362761,106.096378 C136.999376,106.096378 134.635992,105.595033 132.440422,104.591644 C132.419445,104.583952 132.405461,104.575561 132.384484,104.56787 L3.88000582,45.3748815 C3.87371278,45.3720846 3.86672052,45.3685885 3.85972826,45.3657916 C3.85693135,45.3643931 3.85413445,45.3629947 3.85203677,45.3615962 C3.84784141,45.3601978 3.84364606,45.3581001 3.8394507,45.3560024 C3.83595457,45.3546039 3.83315767,45.3532055 3.83036076,45.351807 C3.8261654,45.3497094 3.82266927,45.3476117 3.81917314,45.3462132 C3.81567701,45.3448148 3.81218088,45.3427171 3.80938398,45.3413186 C3.80588785,45.339221 3.80239172,45.3378225 3.79819636,45.3357248 C3.79470023,45.3343264 3.79190332,45.3329279 3.78840719,45.3308303 C3.78491106,45.3294318 3.78141493,45.3273341 3.7779188,45.3259357 C3.77442267,45.323838 3.77162577,45.3224395 3.76812964,45.3210411 C3.76393428,45.3182442 3.75973892,45.3161465 3.75554356,45.3140488 C3.75064898,45.3112519 3.74505517,45.308455 3.74016059,45.3056581 C3.73596523,45.3042597 3.7324691,45.302162 3.72897297,45.3000643 C3.72547684,45.2986659 3.72198071,45.2965682 3.71848458,45.2944705 C3.71498845,45.293072 3.71219154,45.2909744 3.70869541,45.2895759 C3.70519928,45.2874782 3.70170315,45.2853806 3.69820702,45.2839821 C3.69471089,45.2818844 3.69191399,45.280486 3.68841786,45.2783883 C3.68492173,45.2762906 3.68142559,45.2748922 3.67792946,45.2727945 C3.67443333,45.2706968 3.67163643,45.2692984 3.6681403,45.2672007 C3.66464417,45.265103 3.66114804,45.2637045 3.65765191,45.2616069 C3.654855,45.2595092 3.65135887,45.2574115 3.64786274,45.2560131 C3.64436661,45.2539154 3.6415697,45.2518177 3.63807357,45.2504193 C3.63457744,45.2483216 3.63178054,45.2469231 3.62898363,45.2448254 C3.62199137,45.2406301 3.61499911,45.2364347 3.60800685,45.2329386 C3.60520995,45.2308409 3.60241304,45.2294425 3.59961614,45.228044 C3.59542078,45.2252471 3.59192465,45.2231494 3.58772929,45.2210518 C3.58563161,45.2196533 3.58283471,45.2175556 3.58003781,45.2161572 C3.57584245,45.2140595 3.57164709,45.2112626 3.56815096,45.2084657 C3.56535406,45.2077665 3.56325638,45.206368 3.5611587,45.2049696 C3.55696334,45.2021726 3.55206876,45.1993757 3.5478734,45.1965788 C3.54577572,45.1951804 3.54437727,45.1944812 3.54297882,45.1937819 C3.53808424,45.1902858 3.53249043,45.1874889 3.52759585,45.1839928 C3.52759585,45.1839928 3.52759585,45.1839928 3.52689662,45.1839928 C2.09278382,44.2861864 1.06352295,42.1381637 0.595740666,39.7992523 C1.20336818,41.1291804 2.02845501,42.182215 3.02764916,42.643005 L11.536532,46.5621675 L11.536532,47.0733018 C11.536532,47.497732 11.7833588,47.8837049 12.1693316,48.0613083 L15.7269942,49.7009936 C15.7829323,49.7261657 15.8395696,49.7380526 15.8955077,49.7380526 C16.106674,49.7380526 16.2968635,49.5674414 16.2968635,49.3359976 L16.2968635,48.7549406 L26.6433126,53.5201667 L26.6433126,54.157861 C26.6433126,54.596975 26.8985301,54.9962331 27.2977883,55.1801296 L37.2267994,59.7523693 C37.3386755,59.8048112 37.457544,59.8292841 37.5694202,59.8292841 C38.0029404,59.8292841 38.4014993,59.4782726 38.4014993,59.0000019 L38.4014993,58.9349739 L39.9887426,59.6670637 L39.9887426,60.3718836 C39.9887426,60.8116969 40.240464,61.2102558 40.6390229,61.3941522 L50.568034,65.9663919 C50.6799102,66.0188339 50.7987786,66.0433068 50.9176471,66.0433068 C51.3511673,66.0433068 51.7427339,65.6922953 51.7427339,65.2147238 L51.7427339,65.0818709 L132.482376,102.270213 C134.629,103.262415 136.943438,103.775647 139.257877,103.810608 C139.866204,105.239826 141.565323,105.550982 143.383311,105.550982 C143.460226,105.550982 143.530148,105.550982 143.607063,105.549583 C142.215603,105.91388 140.789182,106.096378 139.362761,106.096378" id="Fill-708" fill="#F4D5D5"></path>
                                <path d="M26.6433126,52.6153681 L26.6433126,54.157861 C26.6433126,54.596975 26.8985301,54.9962331 27.2977883,55.1801296 L37.2267994,59.7523693 C37.7721957,60.0047899 38.4014993,59.6041333 38.4014993,59.0000019 L38.4014993,57.2673196 C38.4014993,56.9442771 38.2127082,56.6506021 37.9190332,56.5149523 L27.8180125,51.8630008 C27.26912,51.6105802 26.6433126,52.0112367 26.6433126,52.6153681" id="Fill-717" fill="#C39191"></path>
                                <path d="M39.9887426,58.8293908 L39.9887426,60.3718836 C39.9887426,60.8116969 40.240464,61.2102558 40.6390229,61.3941522 L50.568034,65.9663919 C51.1134304,66.2195118 51.7427339,65.818156 51.7427339,65.2147238 L51.7427339,63.4813422 C51.7427339,63.1582998 51.5539428,62.8646248 51.2602679,62.7289749 L41.1634425,58.0777227 C40.6110539,57.8246028 39.9887426,58.2252594 39.9887426,58.8293908" id="Fill-720" fill="#C39191"></path>
                                <path d="M11.536532,45.5559811 L11.536532,47.0733018 C11.536532,47.497732 11.7833588,47.8837049 12.1693316,48.0613083 L15.7269942,49.7009936 C15.9933994,49.8233582 16.2968635,49.6289733 16.2968635,49.3359976 L16.2968635,47.3788636 C16.2968635,47.2215377 16.2059641,47.0795948 16.063322,47.0138676 L12.1057021,45.190985 C11.8399961,45.0679212 11.536532,45.2630053 11.536532,45.5559811" id="Fill-723" fill="#C39191"></path>
                            </g>
                        </g>
                    </g>
                    <g id="Group-65" transform="translate(425.000000, 182.000000)">
                        <g id="Combined-Shape" opacity="0.959701528">
                            <use fill="black" fill-opacity="1" filter="url(#filter-7)" xlink:href="#path-6"></use>
                            <use fill="#FFFFFF" fill-rule="evenodd" xlink:href="#path-6"></use>
                            <path stroke="#F3F4F6" stroke-width="1.25" d="M35.5866929,100.015688 L45.6989123,81.0210385 L64.9185204,72.4722109 C68.136991,71.0406442 70.7723972,67.2307927 70.7723972,64.0443375 L70.7723972,5.0469397 C70.7723972,2.08254727 68.4706431,0.802664509 65.4265298,2.15667754 L6.47887689,28.3764277 C3.26040627,29.8079943 0.625,33.6178459 0.625,36.804301 L0.625,95.8016988 C0.625,98.7660913 2.9267541,100.045974 5.97086741,98.691961 L25.4114972,90.0448236 L35.5866929,100.015688 Z"></path>
                        </g>
                        <path d="M47.1016693,50.1167115 C46.7092569,49.8398687 46.1769448,49.8400856 45.6218877,50.1173146 C45.0668306,50.3945436 44.5345185,50.9260642 44.1421061,51.594896 L42.4426285,54.4907497 C41.9862182,55.2690518 41.2757949,55.7247293 40.7256688,55.5920367 C38.4083046,55.0820364 36.246623,54.1987736 34.2779505,52.9574999 C32.4311348,51.5084733 30.8014782,49.7185574 29.4171087,47.6186462 C29.0788468,47.1249873 29.162512,46.2275361 29.6193226,45.4495591 L31.3188002,42.5537053 C31.711357,41.8849754 31.9319053,41.1336468 31.9319053,40.4650768 C31.9319053,39.7965069 31.711357,39.2654885 31.3188002,38.9888916 L27.3730829,36.2074755 C26.9806705,35.9306327 26.4483583,35.9308496 25.8933013,36.2080786 C25.3382442,36.4853076 24.805932,37.0168282 24.4135196,37.68566 L22.0451807,41.7215629 C19.6664351,45.7703884 19.3219675,50.4407274 21.2261388,52.8262436 C23.6612198,56.0513528 26.3759442,58.9049231 29.3463545,61.3617715 C32.6174379,63.3055703 36.1118843,64.8298076 39.7988437,65.9210269 C42.5689623,66.8310745 46.3035619,64.5508775 48.6786348,60.4993821 L51.0473866,56.4632729 C51.4399434,55.794543 51.6604917,55.0432144 51.6604917,54.3746444 C51.6604917,53.7060745 51.4399434,53.1750561 51.0473866,52.8984592 L47.1016693,50.1167115 Z" id="Shape" fill="#FFC700" fill-rule="nonzero"></path>
                    </g>
                    <g id="Group-65" transform="translate(201.053247, 26.887385)">
                        <g id="Combined-Shape" opacity="0.959701528">
                            <use fill="black" fill-opacity="1" filter="url(#filter-9)" xlink:href="#path-8"></use>
                            <use fill="#FFFFFF" fill-rule="evenodd" xlink:href="#path-8"></use>
                            <path stroke="#F3F4F6" stroke-width="1.25" d="M35.5866929,100.015688 L45.6989123,81.0210385 L64.9185204,72.4722109 C68.136991,71.0406442 70.7723972,67.2307927 70.7723972,64.0443375 L70.7723972,5.0469397 C70.7723972,2.08254727 68.4706431,0.802664509 65.4265298,2.15667754 L6.47887689,28.3764277 C3.26040627,29.8079943 0.625,33.6178459 0.625,36.804301 L0.625,95.8016988 C0.625,98.7660913 2.9267541,100.045974 5.97086741,98.691961 L25.4114972,90.0448236 L35.5866929,100.015688 Z"></path>
                        </g>
                        <path d="M47.4260807,50.0965077 C47.0336683,49.8196648 46.5013561,49.8198818 45.946299,50.0971108 C45.391242,50.3743398 44.8589298,50.9058604 44.4665174,51.5746921 L42.7670398,54.4705459 C42.3106295,55.248848 41.6002063,55.7045255 41.0500802,55.5718329 C38.732716,55.0618326 36.5710343,54.1785698 34.6023618,52.9372961 C32.7555461,51.4882695 31.1258896,49.6983536 29.7415201,47.5984424 C29.4032581,47.1047835 29.4869233,46.2073323 29.9437339,45.4293552 L31.6432115,42.5335015 C32.0357684,41.8647716 32.2563166,41.1134429 32.2563166,40.444873 C32.2563166,39.776303 32.0357684,39.2452846 31.6432115,38.9686878 L27.6974942,36.1872717 C27.3050818,35.9104288 26.7727697,35.9106458 26.2177126,36.1878748 C25.6626555,36.4651038 25.1303434,36.9966244 24.737931,37.6654561 L22.3695921,41.7013591 C19.9908465,45.7501845 19.6463788,50.4205235 21.5505502,52.8060397 C23.9856311,56.0311489 26.7003556,58.8847192 29.6707659,61.3415677 C32.9418493,63.2853665 36.4362956,64.8096037 40.1232551,65.9008231 C42.8933736,66.8108707 46.6279732,64.5306737 49.0030461,60.4791783 L51.371798,56.4430691 C51.7643548,55.7743392 51.9849031,55.0230106 51.9849031,54.3544406 C51.9849031,53.6858706 51.7643548,53.1548522 51.371798,52.8782554 L47.4260807,50.0965077 Z" id="Shape" fill="#FFC700" fill-rule="nonzero"></path>
                    </g>
                </g>
            </g>
        </g>
    </g>
</svg>